<svg xmlns="http://www.w3.org/2000/svg" viewBox="0 0 1163.91 797.35"><defs><style>.cls-1{isolation:isolate;}.cls-2{fill:#606060;opacity:0.12;mix-blend-mode:multiply;}.cls-3{fill:#939985;}.cls-4{fill:#59595b;}.cls-5{fill:#fff;}.cls-6{fill:#3b2c24;}.cls-7{fill:#f4cdaf;}.cls-8{fill:#c4a676;}</style></defs><title>weddign-404-page</title><g class="cls-1"><g id="Layer_2" data-name="Layer 2"><g id="Layer_1-2" data-name="Layer 1"><path class="cls-2" d="M881.27,730.46c-44.2-52.26-198.88-20.9-198.88-20.9-11,3.2-20.56,6.37-28.71,9.49,0,0-44.77,15.33-66.32,8.8-17.24-5.23-64.55-12.13-89.56,1.4-8.34-4.25-19.88-8.63-35.28-13.1,0,0-118.4-24-152.23,16s73.58,48,104.45,51c14.76,1.44,56.32-5.14,81.32-16.54,19.49,8,55,6.77,74.18,1.74,29.82-7.84,44.8.42,78.45,11.31,32.8,12.3,78.72,19.12,96.12,17.43C785.14,793.17,925.46,782.72,881.27,730.46Z"/><polygon class="cls-3" points="538.78 112.58 506.78 122.58 434.78 226.59 343.78 264.58 350.74 298.58 460.78 269.58 534.78 187.59 538.78 112.58"/><polygon class="cls-3" points="611.7 118.22 724.78 197.59 813.78 227.59 806.78 257.58 684.78 230.59 618.14 181.4 611.7 118.22"/><polygon class="cls-4" points="654.61 351.05 685.05 515.56 683.24 694.78 653.88 697.03 624.75 528.63 562.79 350.92 654.61 351.05"/><polygon class="cls-4" points="618.14 320.64 589.85 505.64 547.22 697.53 519.72 696.88 522.84 503.46 506.9 325.89 618.14 320.64"/><path class="cls-3" d="M475.5,377.57c-.8,17.18-.95,40.36,4.92,41.36a4.91,4.91,0,0,0,3.16-1c10.35-6,17.8-14.53,28-20.28,10.69-6,22.82-9.06,34.7-11.08a297.79,297.79,0,0,1,53.86-4.76c14.15.11,28.33,1.84,42.37,3.54,11.69,1.41,22.49,5.6,34.45,5A71,71,0,0,0,712.05,379a2.16,2.16,0,0,0,1-1,2.56,2.56,0,0,0-.12-1.61c-2.29-7.74-3.88-15.39-8.24-21.86-4.88-7.24-8.24-16.35-11.68-24.53-7.18-17-13.89-34.89-18.74-53-7.4-24.6-16-48.6-23.09-73.27-4.95-17.1-9.4-34.49-16.3-50.76-5.4-12.75-15.13-31.41-27.3-37.29-4.12-2-8.71-2.28-13.2-2.54l-40.84-2.43c-5-.29-10.13-.55-14.72,1.62-6.88,3.25-10.93,11.14-14.49,18.5-15.94,33-26.51,68.77-32.88,105.77-3.33,19.32-6.46,38.69-9,58.15-2.85,21.71-5,43.53-5.91,65.43C476.41,362.6,475.88,369.41,475.5,377.57Z"/><path class="cls-5" d="M571.67,186.62c.3,7.74-1,15.43-2.32,23.07-8,46.49-26.66,132.67-34.61,179.15,36.6.68,91.17-.28,127.77.4-.85-17.52-8.93-73.11-9.79-90.63-.54-11.23-1.09-22.51-3.16-33.57-3.33-17.85-10.54-34.76-17.69-51.51Q612,167.11,592.2,120.68a12.61,12.61,0,0,0-2.8-4.58c-1.62-1.45-3.88-2-6-2.42-10.41-2.1-22.18-4-32.73-2.7-2.89,9.5,6.89,8.3,10.24,17.3C565.76,141.37,571.11,172.49,571.67,186.62Z"/><polygon class="cls-6" points="679.64 694.69 699.78 702.82 698.81 714.3 657.08 715.25 655.46 696.96 679.64 694.69"/><polygon class="cls-6" points="521.22 693.52 499.9 707.75 504.51 721.09 547.07 713.14 545.19 696.33 521.22 693.52"/><path class="cls-6" d="M620.24,71.15c-5.93,10-10,12.48-20.06,19.82,1.88-9.82,4.05-19.89,5.94-29.7l9.9,5.09C618,67.39,620.32,68.9,620.24,71.15Z"/><path class="cls-7" d="M600.71,91.9c2.88-9.78,11.18-23,6.35-32.93C601.72,48,588.47,43.32,576.3,42.6,566.62,42,555.67,44,550,51.83c-5.47,7.61-4.14,18-2.58,27.22.73,4.34.34,10.48,2.86,14.15,3.5,5.07,11.08,7.2,11.08,7.2h0a3.42,3.42,0,0,1,2.19,4.67l-2.31,5.17s-2.18,3.67,3.59,6.16h0l14.1,1.82c2.19-4.16,1.83-10.07,5.87-12.48,2.3-1.36,5.22-1,7.74-1.88C597.28,102.18,599.29,96.71,600.71,91.9Z"/><path class="cls-6" d="M636.5,46.53q1.95-10,3.89-19.94c.48-2.47,1-5,.36-7.47-1-4.06-13.57-10.78-17.5-12.21s-8.16-1.84-12.15-3.09C606.84,2.49,602.78.2,598.32,0c-8.49-.35-15.63,6.93-24.09,7.55-11.73.86-21.89-5.35-30,7.66-1.5,2.39-2.1,5.24-3.46,7.72-1.74,3.2-4.63,5.59-7,8.39-10.27,12.3-9,32.41,1.12,44.45,4.91,5.84,6.69,10.89,14,13.25-2.8-7.18,4-34.25,13.58-36.54,2.53-.6,9.65,3,12.34,3.67,6,1.4,11.74,2.87,17.22,5.71a87.88,87.88,0,0,0,26.11,8.93c1.16.18,2.23-.43,3.41-.35,6.8.44,7.89,2,10.14,1C639.34,67.92,634.88,54.83,636.5,46.53Z"/><path class="cls-8" d="M734.1,184C702,175.31,660.57,182.19,634,202.58l3,29.61-53.1,44L617,316l-34.13,22.2,29.8,55L539.43,518.43l48.64-117.69-47.49-65,48.79-23.36-21.55-37.79,46.92-48.76L613.66,222c-8.47-40.45-67.53-74.6-109.72-78.25-114.35-9.9-176.56,119.94-145,220.2,17,54,46.27,103.7,79.7,149.61,28,38.45,102.83,122.73,103.14,122.54.22.28,99.39-53.28,138.86-79.82,47.13-31.7,91.68-68.4,126.1-113.29C870.64,359.55,844.93,213.8,734.1,184Z"/><polygon class="cls-7" points="805.51 230.39 820.78 233.59 827.78 252.59 816.78 269.58 805.78 254.59 809.78 238.09 805.51 230.39"/><polygon class="cls-7" points="345.24 271.7 334.78 287.58 343.78 309.58 360.78 317.58 365.78 302.58 350.78 287.58 345.24 271.7"/><path class="cls-3" d="M109,511.47l-83.52,1.61H23.1q-10.76,0-16.92-3.63T0,499.38Q0,476,25.78,402t66.07-152.4q3.48-6.72,9.66-18.8,26.59-52.64,45.93-52.64a48,48,0,0,1,26.31,7.52q11.82,7.51,11.82,18.26,0,7.26-18.13,35.45t-29.4,50q-25.25,48.88-42.17,90.37A637.1,637.1,0,0,0,69.29,458l57.2-1.61q7.79-21.21,21-57.2Q187.45,287,206.25,287a49.88,49.88,0,0,1,26.45,7.12q11.69,7.13,11.68,16,0,9.4-22.55,55.73t-36.26,85.53q21-.27,42.16-1.61,5.1-.27,6.18-.27,5.64,0,8.59,3.49t3,10.21a69.59,69.59,0,0,1-2,14.63,139.66,139.66,0,0,1-5.77,18.94q-3.22,7.79-7.52,10.47t-16.65,2.69H164.62l-28.19,85.66a33.47,33.47,0,0,1-1.35,4.3q-6.18,19.33-23.36,19.34-14.5,0-19.87-3.76t-5.38-13.16a45.7,45.7,0,0,1,.81-8.19q.81-4.44,3-12.22Z"/><path class="cls-3" d="M1027.49,511.47,944,513.08h-2.42q-10.74,0-16.92-3.63t-6.18-10.07q0-23.36,25.79-97.35t66.06-152.4q3.5-6.72,9.67-18.8,26.58-52.64,45.92-52.64a48,48,0,0,1,26.32,7.52Q1104,193.23,1104,204q0,7.26-18.13,35.45t-29.41,50q-25.24,48.88-42.16,90.37A638.93,638.93,0,0,0,987.74,458l57.2-1.61q7.79-21.21,21-57.2Q1105.91,287,1124.7,287a49.89,49.89,0,0,1,26.46,7.12q11.68,7.13,11.68,16,0,9.4-22.56,55.73T1104,451.31q20.94-.27,42.16-1.61,5.1-.27,6.18-.27,5.64,0,8.59,3.49t3,10.21a70.14,70.14,0,0,1-2,14.63,141.1,141.1,0,0,1-5.77,18.94q-3.23,7.79-7.52,10.47T1132,509.86h-48.88l-28.2,85.66a34.68,34.68,0,0,1-1.34,4.3q-6.18,19.33-23.37,19.34-14.51,0-19.87-3.76t-5.37-13.16a46.57,46.57,0,0,1,.8-8.19q.81-4.44,3-12.22Z"/></g></g></g></svg>