<svg xmlns="http://www.w3.org/2000/svg" xmlns:xlink="http://www.w3.org/1999/xlink" width="295.75" height="369.173" viewBox="0 0 295.75 369.173">
  <defs>
    <filter id="Path_488" x="0" y="255.78" width="295.75" height="113.393" filterUnits="userSpaceOnUse">
      <feOffset dx="5" dy="5" input="SourceAlpha"/>
      <feGaussianBlur stdDeviation="2.5" result="blur"/>
      <feFlood flood-opacity="0.161"/>
      <feComposite operator="in" in2="blur"/>
      <feComposite in="SourceGraphic"/>
    </filter>
  </defs>
  <g id="bride-dress" transform="translate(2.5)">
    <path id="Path_482" data-name="Path 482" d="M140.588,57.4a30.87,30.87,0,0,1,6.15,18.441V86.093H165.95A110.208,110.208,0,0,0,187.6,83.946l14.487-2.887V73.8h14L232.831,83.84v-8a30.924,30.924,0,0,1,6.15-18.449l6.15-8.2a30.74,30.74,0,0,0,0-36.892l-.985-1.321A27.613,27.613,0,0,0,222.17,0a27.29,27.29,0,0,0-19.434,8.05L189.784,20.995,176.842,8.05A27.307,27.307,0,0,0,157.408,0a27.619,27.619,0,0,0-21.987,11l-.968,1.3a30.719,30.719,0,0,0-.014,36.9Zm0,0" transform="translate(-49.397 0)" fill="#939985"/>
    <path id="Path_483" data-name="Path 483" d="M280.988,212.019,288.74,181l-7.7,4.619-14.658,29.314Zm0,0" transform="translate(-102.57 -69.693)" fill="#939985"/>
    <path id="Path_484" data-name="Path 484" d="M351.3,214.631l-11.213-29.878L333.836,181l7.8,31.214Zm0,0" transform="translate(-128.542 -69.694)" fill="#939985"/>
    <path id="Path_485" data-name="Path 485" d="M268.289,141.66v22.556l18.8-11.278Zm0,0" transform="translate(-103.304 -54.546)" fill="#939985"/>
    <path id="Path_486" data-name="Path 486" d="M356.518,141.66l-18.8,11.278,18.8,11.278Zm0,0" transform="translate(-130.037 -54.546)" fill="#939985"/>
    <path id="Path_487" data-name="Path 487" d="M94.317,391.959h5.03a45.3,45.3,0,0,1,32.242,13.356,38.391,38.391,0,0,0,54.289,0,45.305,45.305,0,0,1,32.24-13.356h5.033a45.505,45.505,0,0,1,36.631-18.449H269.8A446.823,446.823,0,0,0,247.832,331.2a35.136,35.136,0,0,0-22.491,14.973l-1.83,2.736h-5.4a47.806,47.806,0,0,0-34.041,14.1,35.84,35.84,0,0,1-50.686,0,47.833,47.833,0,0,0-34.046-14.1h-5.4l-1.826-2.736a35.151,35.151,0,0,0-22.5-14.973A449,449,0,0,0,47.66,373.51H57.672a45.522,45.522,0,0,1,36.645,18.449Zm0,0" transform="translate(-18.351 -127.529)" fill="#939985"/>
    <g transform="matrix(1, 0, 0, 1, -2.5, 0)" filter="url(#Path_488)">
      <path id="Path_488-2" data-name="Path 488" d="M279.658,491.26A447.284,447.284,0,0,0,256.724,420H241.439a33.234,33.234,0,0,0-27.707,14.826l-2.417,3.622h-11.55A33.075,33.075,0,0,0,176.22,448.2a50.682,50.682,0,0,1-71.678,0A33.1,33.1,0,0,0,81,438.449H69.447l-2.417-3.622A33.22,33.22,0,0,0,39.326,420H24.041A447.286,447.286,0,0,0,1.107,491.26L0,496.026c16.123,5.6,70.239,22.366,140.377,22.366s124.249-16.765,140.373-22.366Zm0,0" transform="translate(2.5 -161.72)" fill="#939985"/>
    </g>
    <path id="Path_489" data-name="Path 489" d="M145.146,194.57l-1.979,1.979c-3.346,3.349-6.539,6.8-9.654,10.32h6.608A106.427,106.427,0,0,0,203.283,185.9a123.38,123.38,0,0,1-45.137,8.672Zm0,0" transform="translate(-51.408 -71.579)" fill="#939985"/>
    <path id="Path_490" data-name="Path 490" d="M213.635,152.2l-12.076,2.414A122.693,122.693,0,0,1,177.5,157H158.289v12.3h9.4a110.917,110.917,0,0,0,45.949-10.072Zm0,0" transform="translate(-60.949 -58.605)" fill="#939985"/>
    <path id="Path_491" data-name="Path 491" d="M110.458,286.1a60.045,60.045,0,0,1,41.687,17.7,23.545,23.545,0,0,0,33.294,0,60.059,60.059,0,0,1,41.687-17.7,47.464,47.464,0,0,1,36.681-18.442,236.578,236.578,0,0,0-20.579-35.026l-11.859-2.964-7.231-28.917-7.281,29.119-46.89,9.378L189.59,200h-.346a118.774,118.774,0,0,1-72.127,24.6H100.239A235.5,235.5,0,0,0,73.77,267.657,47.478,47.478,0,0,1,110.458,286.1Zm0,0" transform="translate(-28.405 -77.009)" fill="#939985"/>
  </g>
</svg>
