<svg xmlns="http://www.w3.org/2000/svg" xmlns:xlink="http://www.w3.org/1999/xlink" viewBox="0 0 190.74 286.32"><defs><style>.cls-1{fill:#e8937c;}.cls-2{fill:#f5a98d;}.cls-3{fill:#efeeee;}.cls-4{fill:#fbddde;}.cls-5{fill:#b25a5a;}.cls-6{fill:#ee7677;}.cls-7{fill:url(#radial-gradient);}.cls-8{fill:#8f4446;}.cls-9{fill:#e88175;}</style><radialGradient id="radial-gradient" cx="-4698.12" cy="30.28" r="4.25" gradientTransform="matrix(-1, 0, 0, 1, -4621.91, 0)" gradientUnits="userSpaceOnUse"><stop offset="0" stop-color="#f29183"/><stop offset="1" stop-color="#f5a98d"/></radialGradient></defs><title>bride</title><g id="Layer_2" data-name="Layer 2"><g id="Capa_1" data-name="Capa 1"><g id="bride"><path class="cls-1" d="M67.05,100.59c-2.32,1.69-5.56,2.28-7.42.52h0c-1.85-1.75-1.1-4.45.25-7A81.48,81.48,0,0,1,70,80.3c3.18-3.4,9.27-9.3,13.51-12.16,2.38-1.6,5.13-2.65,7.73-.17,2.33,2.22,2.11,5.31.59,7.74-3.14,5-7.84,9.81-11.22,13.37A101.6,101.6,0,0,1,67.05,100.59Z"/><path class="cls-1" d="M63.34,102s-22.78,1-44.75-4.41l-.05-4.08s28-2.43,44.71-.77c0,0,4.24.9,4.29,4.69C67.58,100.65,63.34,102,63.34,102Z"/><path class="cls-1" d="M19.94,97.51s-8.12,2.91-18.3-2.71c-.82-.45-2.3-1.75-1.31-2.93.49-.58,1.27-.9,3.31-1a30.08,30.08,0,0,1,6,.36c-1.53-.81-3.9-2.06-3.27-3,1-1.36,8.38,3.51,11.77,4.58a9.35,9.35,0,0,0,2.33.64Z"/><path class="cls-2" d="M85,279.36s4.71-3.2,8-12.45l-1.8-23.08,11.41,0-.72,18.55-10.39,17.1S83.16,285.51,85,279.36Z"/><path class="cls-3" d="M101.86,262.58s-7.53,10.49-10.72,14.76a26.25,26.25,0,0,1-3,3.05c-1.46,1.37-3.6.5-2.89-1.31,0,0-3.3,2.64-6.32,2.89-.9.07-2.39.88-2.39,2,0,.92.51,2.11,2.75,2.11,1.65,0,8.41.06,11.13,0,2-.05,4.12-2,5.78-4.53,2.26-3.42,5.81-10,5.81-10v14.78h1.76V278c0-1.58,3-5.06,3-9.25A6.09,6.09,0,0,0,101.86,262.58Z"/><path class="cls-2" d="M57,279.36s4.7-3.2,8-12.45l-1.8-23.08,11.41,0-.72,18.55-10.39,17.1S55.21,285.51,57,279.36Z"/><path class="cls-3" d="M73.9,262.58s-7.53,10.49-10.72,14.76a24.14,24.14,0,0,1-3,3.05c-1.45,1.37-3.59.5-2.89-1.31,0,0-3.29,2.64-6.31,2.89-.9.07-2.38.88-2.38,2,0,.92.49,2.11,2.73,2.11,1.67,0,8.43.06,11.14,0,2-.05,4.13-2,5.79-4.53,2.25-3.42,5.8-10,5.8-10v14.78h1.76V278c0-1.58,3.05-5.06,3.05-9.25A6.09,6.09,0,0,0,73.9,262.58Z"/><path class="cls-4" d="M77.94,124.09S39.57,162.79,33.2,244.62c-.59,7.63-.91,15.67-.91,24.16,0,0,24.76,12.17,62.24,12,24.74-.13,72.87-5.42,96.21-21,0,0-21.73-5.18-25-23.57A239.51,239.51,0,0,0,144,171.63c-11.2-22-29.07-40.16-43.55-47.64Z"/><path class="cls-2" d="M68.48,70.71h0a70.57,70.57,0,0,1,8.67-9A16.17,16.17,0,0,0,83.33,51c0-1.37-.07-.05-.08-2.74A28.81,28.81,0,0,0,81,38.5l15.9-2.3S95.32,40.1,95.78,43c.79,4.88.9,8.83,3.89,13.86,2.57,4.31,4.91,12.61,4.91,14.86l0,.49H68.48V70.71Z"/><path class="cls-4" d="M100.27,124l-22.45.1L74.36,87c-9.51-6.73-6.22-16.13-6.22-16.13h36.65a44.25,44.25,0,0,1-.5,18.52C98.37,112.13,98.66,121.9,100.27,124Z"/><path class="cls-2" d="M66.54,22.3c-.26,3.44-1.56,5-3.12,6.14-.65.49-.63,1.27-.06,1.42,1.49.39,1.82,2.09,2,2.83.19,1.12.9,1.22.8,2.07,0,.36.47,1.13.33,1.36-.25.48-.54,1.05,0,1.32,0,0,.87.59.6,3.05-.25,2.15,2.5,3.51,5.49,2.85,1.84-.41,9.84-2.34,11.78-2.8a100.86,100.86,0,0,0,11.8-3.18,27.68,27.68,0,0,0,4.26-3.27c6.86-4.67,10.8-22.38-4.89-32C91.47-.36,80.27.45,73.35,3.48a10.76,10.76,0,0,0-6.52,7.46c-1.17,3.83-.49,8-.29,10.27Z"/><path class="cls-5" d="M67.53,18.59a7.59,7.59,0,0,1,1.48-.4,9,9,0,0,1,3.26,0,7.25,7.25,0,0,1,1.66.47,6,6,0,0,1,1.32.66l1.16.82a.24.24,0,0,1,.06.34.22.22,0,0,1-.3.07l0,0-1.19-.58a4.82,4.82,0,0,0-1.28-.4,5.58,5.58,0,0,0-1.49-.18,7.71,7.71,0,0,0-2.72.47,6.14,6.14,0,0,0-1.11.5.94.94,0,0,1-.8-1.71Z"/><path class="cls-4" d="M65.87,34.32a6.12,6.12,0,0,0,.4,2.32l3.74-2Z"/><path class="cls-6" d="M65.22,32.68c.38-.07.68,0,1.53.38a16.56,16.56,0,0,0,4.35.84c.3,0,.41.37.17.46a8.08,8.08,0,0,1-6.08,0s-.92-.45-.69-1.08A.85.85,0,0,1,65.22,32.68Z"/><path class="cls-6" d="M65.43,36.37c.26-.27.55-.38,1.46-.56a16.44,16.44,0,0,0,4-1.8c.26-.17.55.07.41.29a8.11,8.11,0,0,1-5,3.49s-1,.16-1.19-.49A.83.83,0,0,1,65.43,36.37Z"/><path class="cls-7" d="M71.56,32.16c.69,1.69,3.33,2.24,5.89,1.21s4.09-3.26,3.4-5S77.53,26.17,75,27.2,70.87,30.46,71.56,32.16Z"/><path class="cls-8" d="M67.6,11l.05-.06a5.73,5.73,0,0,0,.94-.39c3.69-2,7,3.26,9.86,7.81,3.94,6.36,8.78,5.78,13.26,5.54a18.8,18.8,0,0,0-.35,7.85,7,7,0,0,0,4.2,5.05A12.47,12.47,0,0,0,96.11,38a11.7,11.7,0,0,0,1.14,1.64,13.93,13.93,0,0,0,2.91,2.62,14.26,14.26,0,0,1-2.54-2.9,11.61,11.61,0,0,1-.88-1.67c-.06-.15-.1-.31-.16-.45a9.83,9.83,0,0,0,.88.83,8.83,8.83,0,0,0,1.91,1.19,8.78,8.78,0,0,1-1.58-1.52,9,9,0,0,1-.73-1.12,7,7,0,0,0,.92-.4,8.17,8.17,0,0,0,7.14,5c2.69.11,4-1.15,4.64-2.51a5.16,5.16,0,0,0,1.64-1,7.19,7.19,0,0,0,1.72-2.35c2-.53,4.44-2.11,4-6.73-.27-3-1.7-4.31-2.74-4.89a4.54,4.54,0,0,0-.39-2.37,6.75,6.75,0,0,0-1.49-2,6.88,6.88,0,0,0-1.69-2.85,6.44,6.44,0,0,0-4.78-1.69c-2.69-10.06-14-19.6-32.38-12.22a16.12,16.12,0,0,0-3.93,2.19c-.08.06-3.89,2.58-5.47,2.64S63.26,12.4,67.6,11Zm45.72,12.37a16.39,16.39,0,0,0-.38-2.52,5.53,5.53,0,0,1,.66.79,4.25,4.25,0,0,1,.68,2.09A4.07,4.07,0,0,0,113.32,23.36ZM110,38.23a7.28,7.28,0,0,0,.4-2.61,7.76,7.76,0,0,0,1,0,6.07,6.07,0,0,1-.63,1.57A5.28,5.28,0,0,1,110,38.23Z"/><path class="cls-4" d="M104.37,14.78c0-.19.54-.34,1.22-.34h.35l-.26-.23c-.48-.48-.75-1-.62-1.11s.63.14,1.11.62a3,3,0,0,1,.24.26,2.11,2.11,0,0,1,0-.36c0-.67.16-1.22.35-1.22s.34.55.34,1.22c0,.13,0,.24,0,.36a2.85,2.85,0,0,1,.23-.26c.48-.48,1-.76,1.11-.62s-.14.63-.61,1.11l-.26.23h.35c.67,0,1.21.15,1.21.34s-.54.35-1.21.35h-.35a1.89,1.89,0,0,1,.26.24c.47.47.75,1,.61,1.1s-.63-.14-1.11-.62l-.23-.26c0,.11,0,.23,0,.36,0,.67-.15,1.21-.34,1.21s-.35-.54-.35-1.21a2.06,2.06,0,0,1,0-.36l-.24.26c-.48.48-1,.75-1.11.62s.14-.63.62-1.1a1.45,1.45,0,0,1,.26-.24h-.35C104.91,15.13,104.37,15,104.37,14.78Z"/><path class="cls-4" d="M103.77,20.16c-.1-.15.22-.55.72-.91l.28-.18-.32,0c-.61-.11-1.08-.33-1-.51s.55-.22,1.15-.12l.33.07a1.71,1.71,0,0,1-.21-.26c-.35-.5-.52-1-.38-1.09s.55.22.9.72l.18.28c0-.1,0-.21,0-.32.11-.61.34-1.08.51-1s.23.54.12,1.15c0,.12,0,.22-.06.32a2,2,0,0,1,.26-.2c.49-.35,1-.53,1.09-.38s-.22.54-.73.9a2.68,2.68,0,0,1-.28.18c.11,0,.22,0,.33,0,.6.11,1.08.34,1,.51s-.55.23-1.16.13l-.32-.07a2.76,2.76,0,0,1,.21.25c.34.5.52,1,.38,1.1s-.55-.23-.91-.73a2.92,2.92,0,0,1-.17-.27c0,.1,0,.21,0,.32-.1.61-.33,1.07-.51,1.05s-.22-.55-.12-1.16a3,3,0,0,1,.07-.32,2.43,2.43,0,0,1-.25.2C104.36,20.13,103.87,20.3,103.77,20.16Z"/><path class="cls-4" d="M107.75,18.55c-.07-.11.17-.41.55-.68l.2-.13-.24,0c-.45-.08-.8-.24-.78-.37s.41-.18.87-.1l.23.05a1.57,1.57,0,0,1-.15-.19c-.26-.38-.39-.74-.28-.82s.4.17.68.54L109,17l0-.24c.08-.46.25-.81.38-.79s.18.42.1.87c0,.09,0,.16,0,.24a1.57,1.57,0,0,1,.19-.15c.37-.27.74-.4.81-.29s-.16.42-.54.68l-.2.13.23,0c.46.08.81.25.8.38s-.42.17-.88.09l-.23-.05.15.19c.27.38.39.74.29.82s-.41-.17-.68-.55a1.43,1.43,0,0,1-.14-.2,1,1,0,0,1,0,.24c-.07.46-.24.81-.37.79s-.17-.41-.1-.87l.06-.23-.2.15C108.2,18.53,107.83,18.66,107.75,18.55Z"/><path class="cls-4" d="M101.71,17.53c-.09-.14.21-.52.68-.85a2.85,2.85,0,0,1,.26-.17l-.3,0c-.57-.1-1-.31-1-.47s.51-.21,1.08-.12l.3.07c-.06-.08-.13-.16-.19-.25-.34-.47-.5-.93-.36-1s.51.22.85.69a1.92,1.92,0,0,1,.17.26c0-.1,0-.2,0-.3.1-.58.32-1,.48-1s.21.52.12,1.09c0,.1,0,.2-.07.3a1.55,1.55,0,0,1,.24-.19c.47-.33.94-.5,1-.36s-.21.51-.68.84a1.53,1.53,0,0,1-.27.17l.31,0c.57.09,1,.31,1,.47s-.5.22-1.08.12l-.3-.06.19.24c.33.47.49.93.36,1s-.52-.21-.85-.69c-.06-.08-.11-.17-.17-.26a1.76,1.76,0,0,1,0,.31c-.09.57-.3,1-.47,1s-.21-.51-.12-1.08c0-.11,0-.21.07-.3l-.24.18C102.26,17.5,101.81,17.66,101.71,17.53Z"/><path class="cls-4" d="M102.58,14c-.06-.1.15-.38.5-.62l.19-.12-.22,0c-.42-.07-.74-.22-.71-.34s.37-.16.78-.09l.22,0-.14-.18c-.24-.34-.36-.68-.26-.75s.37.15.63.5l.11.19,0-.22c.07-.42.22-.74.34-.72s.17.38.09.79c0,.08,0,.15,0,.22l.18-.14c.34-.24.68-.36.75-.26s-.15.37-.5.62l-.19.12.22,0c.42.08.74.23.72.35s-.37.16-.79.09l-.21-.05.13.18c.24.34.36.68.26.75s-.37-.16-.62-.5a2,2,0,0,1-.12-.19,1.8,1.8,0,0,1,0,.22c-.07.42-.23.74-.35.72s-.16-.38-.09-.79a1.42,1.42,0,0,1,.05-.22l-.18.14C103,14,102.65,14.12,102.58,14Z"/><path class="cls-4" d="M108,15.43c-.07-.11.18-.41.55-.68l.22-.13-.25,0c-.47-.08-.81-.25-.79-.39s.42-.17.87-.09a1.4,1.4,0,0,1,.24.06l-.15-.2c-.27-.38-.4-.75-.29-.83s.42.17.68.55a2.39,2.39,0,0,1,.13.21c0-.08,0-.16,0-.25.08-.45.25-.81.38-.79s.17.42.09.87a1.84,1.84,0,0,1-.05.25,1.39,1.39,0,0,1,.19-.15c.39-.27.76-.41.84-.3s-.17.42-.56.69l-.21.13.25,0c.46.08.81.25.79.38s-.41.18-.87.1l-.24-.06.15.2c.27.38.4.75.29.83s-.42-.17-.69-.55l-.13-.21a1.13,1.13,0,0,1,0,.25c-.07.46-.25.81-.38.78s-.17-.41-.09-.87a2,2,0,0,1,0-.24,1.39,1.39,0,0,1-.19.15C108.49,15.41,108.13,15.54,108,15.43Z"/><path class="cls-2" d="M88.3,24c-1.22,1.63-1.26,3.66-.09,4.53s3.11.25,4.32-1.38,1.25-3.66.08-4.53S89.51,22.31,88.3,24Z"/><path class="cls-4" d="M88.54,28.23a1.18,1.18,0,1,0,1.17-1.17A1.18,1.18,0,0,0,88.54,28.23Z"/><path class="cls-4" d="M78,61.83a1,1,0,1,1-1-1A1,1,0,0,1,78,61.83Z"/><path class="cls-4" d="M80,61.58a1,1,0,1,1-1-1A1,1,0,0,1,80,61.58Z"/><path class="cls-4" d="M82,61.12a1,1,0,1,1-1-1A1,1,0,0,1,82,61.12Z"/><path class="cls-4" d="M83.87,60.58a1,1,0,1,1-1-1A1,1,0,0,1,83.87,60.58Z"/><path class="cls-4" d="M85.78,60a1,1,0,1,1-1-1A1,1,0,0,1,85.78,60Z"/><path class="cls-4" d="M87.65,59.21a1,1,0,1,1-1-1A1,1,0,0,1,87.65,59.21Z"/><path class="cls-4" d="M89.31,58.25a1,1,0,1,1-1-1A1,1,0,0,1,89.31,58.25Z"/><path class="cls-4" d="M90.94,57.3a1,1,0,1,1-1-1A1,1,0,0,1,90.94,57.3Z"/><path class="cls-4" d="M92.55,56.22a1,1,0,0,1-2,0,1,1,0,1,1,2,0Z"/><path class="cls-4" d="M94,54.93a1,1,0,1,1-1-1A1,1,0,0,1,94,54.93Z"/><path class="cls-4" d="M95.34,53.77a1,1,0,1,1-1-1A1,1,0,0,1,95.34,53.77Z"/><path class="cls-4" d="M96.88,52.64a1,1,0,1,1-1-1A1,1,0,0,1,96.88,52.64Z"/><path class="cls-4" d="M98.29,51.27a1,1,0,1,1-1-1A1,1,0,0,1,98.29,51.27Z"/><path class="cls-2" d="M88.14,106.91c-1.52,2.42-4.31,4.19-6.68,3.25h0c-2.37-1-2.68-3.73-2.37-6.57A82.07,82.07,0,0,1,83.32,87c1.69-4.33,5.14-12.07,8-16.32,1.61-2.37,3.78-4.36,7.12-3,3,1.19,3.94,4.15,3.43,7-1,5.83-3.63,12-5.45,16.58A100.23,100.23,0,0,1,88.14,106.91Z"/><path class="cls-2" d="M80.88,110s-19.14-12.36-34-29.44l2.33-3.36s24.24,14.19,36.92,25.2c0,0,3,3.18.8,6.31C85.12,111.36,80.88,110,80.88,110Z"/><path class="cls-2" d="M47.58,80.91S39,80,32.31,70.47c-.54-.76-1.3-2.59.1-3.21.7-.31,1.53-.26,3.44.51a30.35,30.35,0,0,1,5.22,2.93c-1-1.39-2.61-3.56-1.66-4.08,1.46-.8,6,6.83,8.59,9.27a9.3,9.3,0,0,0,1.81,1.59Z"/><path class="cls-9" d="M68.36,23c.38-1.34,1.63-2.52,4-2.07,1.67.32,2.63,2.24,2.55,3.72A12.09,12.09,0,0,0,71.81,23,7,7,0,0,0,68.36,23Z"/><path class="cls-8" d="M76.38,24.05A3.2,3.2,0,0,1,74,23.38a4.45,4.45,0,0,0-2-1.14,4.57,4.57,0,0,0-3.87.88c.33,0,.64-.05,1-.07a1.14,1.14,0,0,0-.34.64,1.27,1.27,0,0,0,2.51.39,1.18,1.18,0,0,0-.34-1,5.27,5.27,0,0,1,.88.1A8,8,0,0,1,75,24.88a3.39,3.39,0,0,0-.36-.71A2.71,2.71,0,0,0,76.38,24.05Z"/></g></g></g></svg>