<svg xmlns="http://www.w3.org/2000/svg" xmlns:xlink="http://www.w3.org/1999/xlink" viewBox="0 0 528.91 318.31"><defs><style>.cls-1,.cls-10,.cls-16,.cls-4,.cls-5,.cls-7{fill:none;stroke-miterlimit:10;}.cls-1{stroke:#e58783;}.cls-1,.cls-5,.cls-7{stroke-width:0.92px;}.cls-2{fill:#e58783;}.cls-3{fill:#cb7a6d;}.cls-4{stroke:#fff;stroke-width:0.4px;}.cls-5{stroke:#c97874;}.cls-6{fill:#f4a6a0;}.cls-7{stroke:#d8807c;}.cls-8{fill:#575756;}.cls-9{fill:#7c7c7b;}.cls-10{stroke:#c8c8c8;stroke-width:1.11px;}.cls-11{fill:#3c3c3b;}.cls-12{fill:#3c322d;}.cls-13{fill:#eed596;}.cls-14{fill:#e8937c;}.cls-15{fill:#ec665e;}.cls-16{stroke:#f29797;stroke-width:0.73px;}.cls-17{fill:#f29797;}.cls-18{fill:#fbddde;}.cls-19{fill:#f8c3c5;}.cls-20{fill:#f5a98d;}.cls-21{fill:#b25a5a;}.cls-22{fill:#ee7677;}.cls-23{fill:#e88175;}.cls-24{fill:url(#radial-gradient);}.cls-25{fill:#8f4446;}.cls-26{fill:#8cd3f6;}.cls-27{fill:#f7b49e;}.cls-28{fill:#6e262e;}.cls-29{fill:#2b221c;}.cls-30{fill:#362c28;}.cls-31{fill:#acacac;}.cls-32{fill:#d2d2d2;}.cls-33{fill:#ededed;}.cls-34{fill:#706f6f;}.cls-35{fill:#d27773;}.cls-36{fill:#f18d86;}.cls-37{fill:#ec654b;}</style><radialGradient id="radial-gradient" cx="-1618.38" cy="605.28" r="2.74" gradientTransform="translate(1302.92 -1210.6) rotate(-31.91)" gradientUnits="userSpaceOnUse"><stop offset="0" stop-color="#f29183"/><stop offset="1" stop-color="#f5a98d"/></radialGradient></defs><title>car</title><g id="Layer_2" data-name="Layer 2"><g id="Capa_1" data-name="Capa 1"><path class="cls-1" d="M49.33,298.51s7.05,11,21.58-1.87,21.7-16.06,34.86-14.11c11.2,1.66,33.82-3.32,36.93-11.62"/><rect class="cls-2" x="34.15" y="286.3" width="15.03" height="27.16" transform="translate(-255.31 241.02) rotate(-70.88)"/><polygon class="cls-3" points="29.05 303.45 26.38 302.53 31.3 288.32 33.98 289.25 29.05 303.45"/><polygon class="cls-3" points="52.04 311.43 49.36 310.49 54.28 296.3 56.96 297.22 52.04 311.43"/><line class="cls-4" x1="36.13" y1="290.05" x2="31.23" y2="304.16"/><line class="cls-4" x1="39.32" y1="291.16" x2="34.43" y2="305.26"/><line class="cls-4" x1="42.51" y1="292.27" x2="37.63" y2="306.37"/><line class="cls-4" x1="45.72" y1="293.38" x2="40.82" y2="307.49"/><line class="cls-4" x1="48.9" y1="294.48" x2="44.01" y2="308.59"/><line class="cls-4" x1="52.1" y1="295.59" x2="47.21" y2="309.7"/><path class="cls-5" d="M131.91,270.29s-1,13.07-12.86,15.56-21,.83-27.6,11C88.72,301,78,310.34,72.16,304.53"/><polygon class="cls-6" points="81.13 311.11 54.95 318.31 50.97 303.81 77.16 296.62 81.13 311.11"/><rect class="cls-3" x="52.91" y="303.17" width="2.84" height="15.03" transform="translate(-80.7 25.65) rotate(-15.43)"/><polygon class="cls-3" points="81.13 311.11 78.41 311.86 74.42 297.37 77.16 296.62 81.13 311.11"/><line class="cls-4" x1="55.92" y1="302.5" x2="59.88" y2="316.9"/><line class="cls-4" x1="59.19" y1="301.61" x2="63.14" y2="316"/><line class="cls-4" x1="62.44" y1="300.71" x2="66.4" y2="315.11"/><line class="cls-4" x1="65.71" y1="299.81" x2="69.66" y2="314.21"/><line class="cls-4" x1="68.96" y1="298.92" x2="72.92" y2="313.32"/><line class="cls-4" x1="72.22" y1="298.02" x2="76.19" y2="312.42"/><path class="cls-7" d="M22.15,285.44s6.64-6.23,19.3-.63,31.88,2.18,39,1.25c14.31-1.87,30.94,10.46,46.08,3.82s14.66-16.49,14.66-16.49"/><rect class="cls-6" x="1.34" y="288.04" width="27.16" height="15.03" transform="translate(-204.21 96.67) rotate(-44.88)"/><polygon class="cls-3" points="12.61 308.46 10.6 310.46 0 299.81 2 297.81 12.61 308.46"/><rect class="cls-3" x="22.12" y="279.45" width="2.83" height="15.03" transform="translate(-195.73 100.35) rotate(-44.91)"/><line class="cls-4" x1="3.66" y1="296.23" x2="14.2" y2="306.81"/><line class="cls-4" x1="6.06" y1="293.84" x2="16.59" y2="304.42"/><line class="cls-4" x1="8.46" y1="291.46" x2="18.99" y2="302.04"/><line class="cls-4" x1="10.85" y1="289.07" x2="21.38" y2="299.65"/><line class="cls-4" x1="13.25" y1="286.68" x2="23.78" y2="297.26"/><line class="cls-4" x1="15.65" y1="284.3" x2="26.18" y2="294.88"/><rect class="cls-8" x="200.9" y="187.35" width="184.35" height="28.18"/><rect class="cls-9" x="200.9" y="187.35" width="184.35" height="4.97"/><line class="cls-10" x1="202" y1="197.11" x2="372.54" y2="197.11"/><rect class="cls-11" x="251.26" y="201.48" width="31.78" height="3.59"/><path class="cls-12" d="M225.36,214l18.27,1.2L235.07,186c-2.51-8.71-10.1-15.09-14.75-14.07a6,6,0,0,0-4.28,7.53Z"/><rect class="cls-13" x="182.39" y="226.58" width="314.62" height="41.99"/><path class="cls-14" d="M263.19,181.44c1.55-1,2.68-2.79,2.06-4.32h0c-.62-1.52-2.41-1.71-4.24-1.49a52.24,52.24,0,0,0-10.69,2.81,64.07,64.07,0,0,0-10.48,5.24c-1.52,1-2.79,2.45-1.92,4.6a3.83,3.83,0,0,0,4.51,2.17,58.13,58.13,0,0,0,10.66-3.58A66.47,66.47,0,0,0,263.19,181.44Z"/><path class="cls-14" d="M264.35,180.47a117.68,117.68,0,0,0,15-24.76l-2.09-1.61s-12.08,13.49-17.7,22.73c0,0-1.18,2.54.75,4C262,182.14,264.35,180.47,264.35,180.47Z"/><path class="cls-14" d="M277.31,154.1s1-5.46,7.48-9.28c.52-.31,1.73-.71,2.06.23.17.46.08,1-.5,2.18a19.42,19.42,0,0,1-2.15,3.2c.95-.58,2.42-1.5,2.71-.85.43,1-4.7,3.5-6.4,5a6.64,6.64,0,0,0-1.11,1.09Z"/><path class="cls-15" d="M59.31,108.27a16.95,16.95,0,0,1,20.3-27,16.95,16.95,0,1,1,29.54-14.63h0l4,43c1.45.47,3,1.34,3.44,3l-2.25,1.76a19.9,19.9,0,0,0-1.79-3.44l-42.45,1.64A16.83,16.83,0,0,1,59.31,108.27Z"/><path class="cls-16" d="M115,112.16s19.14,17.92,30.51,20.1,43.6-.24,58.62,2.42,33.66,9,44.08,5.57,32,4.84,38.27,10.17,24.46,34.64,42.14,33.43"/><path class="cls-17" d="M51.12,141.5a16.94,16.94,0,0,1,20.74-7.45A16.95,16.95,0,1,1,98.3,114.87l12.24,40.68a20.16,20.16,0,0,0,3.84.58l-.93,2.7c-1.67.12-3-1.08-3.91-2.3L67.61,166.75h0a16.94,16.94,0,0,1-16.5-25.24Z"/><path class="cls-16" d="M185,90.84s15.49,19.38,34.63,25.68,58.43,27,64,32.57,13.26,12.23,38.94,4.48"/><path class="cls-15" d="M146,66.27a16.94,16.94,0,1,1,25.73-20.61A17,17,0,1,1,204.1,50.2L184.7,88a19.25,19.25,0,0,0,2.36,3.08l-2.55,1.3c-1.29-1.07-1.41-2.86-1.22-4.37L146,66.27Z"/><path class="cls-16" d="M145,63.48a31.39,31.39,0,0,0,15,22c13.56,8,52.55,19.37,62.48,31.48s21.8,13.56,31.25,15.5,28.34,13.32,32.7,18.41,17.19,18.65,31,19.62"/><path class="cls-18" d="M99.87,31.2a16.94,16.94,0,0,1,31.57-12,16.95,16.95,0,1,1,32.79,3.37h0L144.69,61c1,1.17,1.84,2.74,1.34,4.33l-2.84.29a19.88,19.88,0,0,0,.32-3.86l-36.8-21.25A16.89,16.89,0,0,1,99.87,31.2Z"/><path class="cls-19" d="M94.37,87.17A17,17,0,0,1,113,75.43,16.95,16.95,0,1,1,134,50h0l21.17,37.6c1.51-.17,3.3,0,4.34,1.29l-1.33,2.52a19.74,19.74,0,0,0-3-2.41l-38.09,18.84A16.94,16.94,0,0,1,94.37,87.17Z"/><path class="cls-16" d="M157.91,89.15s21.62,4.72,28.34,10.72,26.33,26.33,38.87,26.88,29.61,4.36,37.24,10,20.7,13.44,23.61,14.17,12.35,9.26,13.81,21.62"/><path class="cls-16" d="M225.18,102s6,16.22,21.07,24,34.21,17.62,39.54,25.13,35.55,15.8,52,12.65"/><path class="cls-19" d="M171.27,90a16.94,16.94,0,0,1,24.09-23.69,16.95,16.95,0,1,1,31.4-10.08h0l-2.47,43.08c1.36.68,2.78,1.77,3,3.43l-2.48,1.4a20.23,20.23,0,0,0-1.26-3.67l-42.23-4.7A16.78,16.78,0,0,1,171.27,90Z"/><path class="cls-18" d="M102.05,161.15a17,17,0,0,1,9.73-19.77A16.94,16.94,0,0,1,106,108.1a16.74,16.74,0,0,1,10.36.63h0l37.75,20.91c1.2-.93,2.8-1.74,4.37-1.18l.19,2.84a20.57,20.57,0,0,0-3.85-.45l-22.55,36a17,17,0,0,1-30.17-5.7Z"/><path class="cls-16" d="M157.12,129.59s13.56-5.57,38,.24,35.11,5.82,49.4,6.3S276,141.7,286.7,150.18s40.44,36.09,47.71,30"/><path class="cls-16" d="M179.89,131.05s6.78,9.69,17,9.93,74.62,2.36,87.94,10.84,17.65,2.72,28.31-.19"/><path class="cls-17" d="M124.22,125.91a16.95,16.95,0,0,1,20.9-26.55A16.94,16.94,0,1,1,175,85.4h0l3,43.05c1.44.5,3,1.4,3.37,3l-2.28,1.7a20.54,20.54,0,0,0-1.71-3.48l-42.49.68A16.81,16.81,0,0,1,124.22,125.91Z"/><path class="cls-20" d="M257.56,186.35h0a45.16,45.16,0,0,0-5.59-5.81,10.44,10.44,0,0,1-4-6.87c0-.88,0,0,0-1.77a18.64,18.64,0,0,1,1.47-6.3l-10.24-1.49a10.38,10.38,0,0,1,.7,4.37c-.51,3.15-.59,5.68-2.51,8.93A29.19,29.19,0,0,0,234.3,187l0,.31h23.27v-.94Z"/><path class="cls-18" d="M251.36,180.54a.64.64,0,0,0,.76.5.63.63,0,0,0,.5-.75.64.64,0,0,0-.75-.51A.65.65,0,0,0,251.36,180.54Z"/><path class="cls-18" d="M250.07,180.64a.63.63,0,0,0,.76.5.64.64,0,0,0,.5-.76.64.64,0,0,0-1.26.26Z"/><path class="cls-18" d="M248.75,180.61a.64.64,0,1,0,.5-.76A.64.64,0,0,0,248.75,180.61Z"/><path class="cls-18" d="M247.5,180.51a.65.65,0,0,0,.76.5.64.64,0,0,0,.5-.76.65.65,0,0,0-.76-.51A.66.66,0,0,0,247.5,180.51Z"/><path class="cls-18" d="M246.21,180.35a.65.65,0,0,0,.76.51.64.64,0,1,0-.76-.51Z"/><path class="cls-18" d="M244.93,180.12a.64.64,0,0,0,.76.5.64.64,0,1,0-.76-.5Z"/><path class="cls-18" d="M243.76,179.73a.65.65,0,0,0,.77.5.64.64,0,0,0-.26-1.26A.64.64,0,0,0,243.76,179.73Z"/><path class="cls-18" d="M242.62,179.33a.63.63,0,0,0,.75.5.64.64,0,1,0-.25-1.25A.62.62,0,0,0,242.62,179.33Z"/><path class="cls-18" d="M241.45,178.86a.64.64,0,0,0,1.26-.26.64.64,0,0,0-.76-.5A.64.64,0,0,0,241.45,178.86Z"/><path class="cls-18" d="M240.4,178.22a.64.64,0,0,0,.75.51.67.67,0,0,0,.51-.76.65.65,0,0,0-.76-.51A.63.63,0,0,0,240.4,178.22Z"/><path class="cls-18" d="M239.38,177.66a.64.64,0,1,0,1.26-.25.64.64,0,0,0-.76-.5A.63.63,0,0,0,239.38,177.66Z"/><path class="cls-18" d="M238.27,177.15a.63.63,0,0,0,.75.5.64.64,0,1,0-.25-1.26A.63.63,0,0,0,238.27,177.15Z"/><path class="cls-18" d="M237.2,176.47a.64.64,0,1,0,.5-.76A.64.64,0,0,0,237.2,176.47Z"/><path class="cls-20" d="M251.6,151a4.84,4.84,0,0,0,3.8,2.3c.51,0,.78.47.51.75a2.07,2.07,0,0,0-.1,2.21c.28.68-.08,1,.27,1.41.14.18.12.78.28.86s.66.38.43.73c0,0-.28.62.71,1.87s-.17,2.78-2,3.43c-1.13.41-6.18,2.07-7.39,2.48a63.68,63.68,0,0,1-7.55,2.28,17.24,17.24,0,0,1-3.44-.33c-5.34-.22-13.53-8.57-8.22-19.16,1.38-2.73,7.78-6.11,12.59-6.81a6.9,6.9,0,0,1,6.12,1.87c1.94,1.68,3,4.19,3.66,5.51Z"/><path class="cls-21" d="M249.94,150.55a5,5,0,0,0-2.43.78,5.24,5.24,0,0,0-1.77,2,.15.15,0,0,1-.2.1.17.17,0,0,1-.09-.21l.35-.85a5.35,5.35,0,0,1,1.25-1.63,6,6,0,0,1,2.74-1.37h0a.61.61,0,0,1,.22,1.2Z"/><path class="cls-18" d="M256.06,157.39a4,4,0,0,1,.56,1.4l-2.7.2Z"/><path class="cls-22" d="M255.85,156.27c-.22.09-.36.23-.7.72a11.14,11.14,0,0,1-2.1,1.95c-.16.11-.09.34.08.31a5.16,5.16,0,0,0,3.32-2.06s.35-.56,0-.83A.57.57,0,0,0,255.85,156.27Z"/><path class="cls-22" d="M257,158.36c-.24-.06-.44,0-1,.18a10.07,10.07,0,0,1-2.83.4c-.2,0-.28.23-.13.3a5.21,5.21,0,0,0,3.91.22s.61-.26.49-.68A.55.55,0,0,0,257,158.36Z"/><path class="cls-23" d="M251.17,152.88c-.56-.7-1.55-1-2.87-.21a2,2,0,0,0-.58,2.8,7.8,7.8,0,0,1,1.44-1.71A4.38,4.38,0,0,1,251.17,152.88Z"/><path class="cls-24" d="M252.21,158.14c.2,1.17-1.05,2.36-2.81,2.67s-3.35-.39-3.55-1.55,1.05-2.36,2.81-2.67S252,157,252.21,158.14Z"/><path class="cls-25" d="M247.77,142.15c-.88.5-3.82.41-3.89.41a10.52,10.52,0,0,0-2.89.14c-12.58,2.22-15.51,11.3-13.56,17.72a4.15,4.15,0,0,0-2,2.55,4.57,4.57,0,0,0,.05,2.14,4,4,0,0,0-.12,1.62,2.88,2.88,0,0,0,.59,1.43,3.69,3.69,0,0,0,.17,3.6c1.35,2.67,3.19,2.73,4.5,2.31a4.58,4.58,0,0,0,1.73.7,3.38,3.38,0,0,0,1.23,0,2.87,2.87,0,0,0,3.39-.21,5.28,5.28,0,0,0,2.19-5.2,5.19,5.19,0,0,0,.64-.09,4.14,4.14,0,0,1,0,.86,5.61,5.61,0,0,1-.34,1.37,6,6,0,0,0,.64-1.3,6.49,6.49,0,0,0,.19-.76c0,.1.05.21.07.3a7.08,7.08,0,0,1,.09,1.22,9,9,0,0,1-.4,2.45,8.4,8.4,0,0,0,.77-3.71,7.86,7.86,0,0,0-.11-.83,4.47,4.47,0,0,0,.58-4.2,12.22,12.22,0,0,0-2.86-4.17c2.53-1.39,5.37-2.72,5.36-7.54,0-3.46,0-7.48,2.74-7.64a2.87,2.87,0,0,0,.64-.1h0C250,144.5,248.66,141.64,247.77,142.15ZM226,168.08a2.68,2.68,0,0,1-.34-1.37,3.62,3.62,0,0,1,.09-.66,10.39,10.39,0,0,0,.65,1.5A2.63,2.63,0,0,0,226,168.08Zm6.51,6.19a4,4,0,0,1-.88-.64,4.6,4.6,0,0,0,.56-.37,4.72,4.72,0,0,0,1.11,1.29A3.24,3.24,0,0,1,232.47,174.27Z"/><path class="cls-18" d="M228.33,159.81c-.06-.1-.4,0-.77.23l-.19.13.06-.22c.1-.42.08-.79,0-.82s-.3.29-.4.72a2.07,2.07,0,0,0,0,.22l-.1-.2c-.24-.37-.51-.61-.61-.55s0,.42.22.79l.13.19a.79.79,0,0,0-.22-.06c-.43-.1-.78-.09-.81,0s.28.29.71.39l.23,0-.2.11c-.37.23-.62.5-.55.61s.41,0,.78-.23l.19-.13a.9.9,0,0,0-.06.22c-.11.42-.08.79,0,.82s.3-.3.4-.72a1.7,1.7,0,0,0,0-.22l.12.2c.23.37.49.61.6.55s0-.42-.22-.79a1.24,1.24,0,0,0-.14-.18l.22.06c.43.09.79.07.82,0s-.29-.3-.71-.4l-.23,0,.2-.11C228.16,160.19,228.41,159.92,228.33,159.81Z"/><path class="cls-18" d="M230.5,162.55c0-.12-.31-.23-.71-.25h-.21a1.07,1.07,0,0,0,.16-.14c.3-.26.49-.54.41-.63s-.38.06-.68.33l-.15.15,0-.21c0-.4-.06-.72-.17-.73s-.22.3-.24.7a1.55,1.55,0,0,0,0,.21l-.13-.16c-.26-.29-.55-.48-.63-.4s.06.38.32.67l.15.15-.22,0c-.39,0-.71.05-.72.16s.31.23.71.25h.21l-.17.13c-.29.27-.47.55-.4.64s.37-.06.68-.33l.15-.14a1.25,1.25,0,0,0,0,.21c0,.39,0,.72.15.73s.23-.31.25-.71a1.48,1.48,0,0,0,0-.21.91.91,0,0,0,.13.16c.27.3.55.48.63.4s-.06-.37-.32-.67a1.06,1.06,0,0,0-.15-.15l.21,0C230.16,162.73,230.5,162.66,230.5,162.55Z"/><path class="cls-18" d="M227.77,163c0-.09-.23-.17-.53-.19h-.16l.13-.1c.22-.19.35-.41.3-.47s-.29,0-.51.25a.52.52,0,0,0-.11.1c0-.05,0-.1,0-.16,0-.29,0-.54-.13-.54s-.17.23-.18.53v.16a1.47,1.47,0,0,1-.1-.13c-.2-.22-.41-.36-.48-.3s0,.29.25.51l.11.11-.16,0c-.29,0-.54,0-.55.13s.24.17.54.18h.15l-.12.09c-.23.2-.36.41-.31.47s.29,0,.51-.24a.57.57,0,0,0,.11-.11c0,.05,0,.1,0,.16,0,.3,0,.54.12.55s.16-.24.19-.53v-.16a.53.53,0,0,0,.1.12c.19.22.4.36.47.3s0-.28-.25-.5l-.1-.11h.15C227.52,163.17,227.76,163.11,227.77,163Z"/><path class="cls-18" d="M230.73,160.41c0-.11-.29-.21-.66-.23h-.2l.15-.12c.28-.25.45-.51.38-.59s-.36,0-.63.3l-.15.14a1.23,1.23,0,0,0,0-.2c0-.37,0-.68-.15-.69s-.21.3-.23.67a.67.67,0,0,0,0,.2,1.83,1.83,0,0,0-.13-.16c-.25-.28-.52-.45-.59-.37s.05.35.3.63l.13.14-.19,0c-.37,0-.68.05-.68.15s.29.21.66.23h.2l-.16.12c-.27.25-.45.52-.38.6s.36-.06.64-.3c.06,0,.1-.1.15-.15l0,.2c0,.37,0,.68.15.69s.22-.29.24-.67v-.2a.91.91,0,0,0,.13.16c.24.28.51.45.59.38s-.06-.36-.31-.64l-.13-.14.19,0C230.42,160.58,230.72,160.51,230.73,160.41Z"/><path class="cls-18" d="M229.05,158.79c0-.08-.21-.15-.48-.17h-.15l.12-.09c.2-.19.33-.38.28-.43s-.26,0-.47.22l-.1.1a.77.77,0,0,1,0-.15c0-.27,0-.49-.12-.5s-.16.21-.17.49v.14l-.09-.11c-.18-.2-.37-.33-.44-.27s.05.25.23.46l.1.1-.14,0c-.28,0-.51,0-.51.12s.22.15.48.17h.15a.44.44,0,0,0-.11.09c-.2.18-.32.37-.28.43s.27,0,.47-.22l.1-.1s0,.09,0,.14c0,.27,0,.5.11.5s.15-.21.17-.48a.38.38,0,0,0,0-.15l.09.11c.18.21.37.33.43.28s0-.26-.22-.46a.52.52,0,0,0-.1-.11l.15,0C228.83,158.91,229.05,158.86,229.05,158.79Z"/><path class="cls-18" d="M226.55,161.42c0-.09-.24-.17-.54-.18a.85.85,0,0,0-.16,0,.69.69,0,0,0,.13-.11c.23-.2.36-.41.3-.47s-.28,0-.51.24l-.11.11s0-.1,0-.15c0-.31,0-.55-.12-.56s-.17.24-.19.54V161l-.1-.13c-.2-.22-.41-.36-.48-.3s.05.29.25.51l.11.11H225c-.29,0-.55,0-.55.12s.24.17.54.19h.15l-.12.1c-.23.2-.36.41-.3.48s.28,0,.51-.25l.11-.11s0,.1,0,.16c0,.3,0,.54.12.55s.18-.23.2-.53v-.16l.09.12c.21.22.42.36.49.3s0-.28-.25-.5a.63.63,0,0,0-.11-.12H226C226.3,161.56,226.54,161.51,226.55,161.42Z"/><path class="cls-20" d="M240.25,159.35c1.23.48,1.94,1.58,1.59,2.45s-1.61,1.2-2.83.72-1.93-1.58-1.59-2.45S239,158.87,240.25,159.35Z"/><path class="cls-18" d="M241.58,161.78a.75.75,0,0,1-.24,1,.76.76,0,0,1-1.05-.24.76.76,0,0,1,1.29-.8Z"/><path class="cls-25" d="M246.75,155.51a2,2,0,0,0,1.24-1,2.76,2.76,0,0,1,.87-1.16,2.93,2.93,0,0,1,2.49-.46l-.58.2a.7.7,0,0,1,.37.29.81.81,0,0,1-1.37.86.8.8,0,0,1-.06-.69,5.5,5.5,0,0,0-.48.28,5.2,5.2,0,0,0-1.45,1.81,2.85,2.85,0,0,1,0-.51A1.73,1.73,0,0,1,246.75,155.51Z"/><path class="cls-18" d="M237.07,220.69l14.47.06,2.23-23.9c6.13-4.34,4-10.4,4-10.4H234.16a28.32,28.32,0,0,0,.32,11.94C238.29,213.05,238.11,219.34,237.07,220.69Z"/><path class="cls-12" d="M292.81,213.29,311,214.93l-7.85-29.35c-2.29-8.77-9.73-15.33-14.39-14.42a6,6,0,0,0-4.48,7.42Z"/><polygon class="cls-12" points="377.52 207.24 337.83 194.5 339.31 189.97 378.99 202.7 377.52 207.24"/><rect class="cls-12" x="325.52" y="189.65" width="26.31" height="4.17" transform="translate(37.82 438.62) rotate(-68.89)"/><polygon class="cls-26" points="390.39 202.31 383.93 207.2 339.93 149.69 344.83 146.09 390.39 202.31"/><polygon class="cls-6" points="387.05 205.51 380.59 210.4 336.25 152.46 342.7 147.57 387.05 205.51"/><path class="cls-27" d="M323.94,155.34a6.14,6.14,0,0,1-1.26-1.37c-.29-.4-.61-.89-1-1.5a2.56,2.56,0,0,1-.07-.61c0-1.27.17-3.61-.77-5.6a6,6,0,0,0-2.46-5c-7.25-4.53-15.3,0-15.95.38,0,0-5.77,2.58-5.09,8.46.6,5.21,2.65,9.3,5.27,10.85a19.68,19.68,0,0,1,.35,3.42c.12,1.87-.23,10.21-.23,10.21l12.49-1.44c-.81-1.44.47-7.32,1.39-8a10.87,10.87,0,0,1,3-.44c1.74.17,3.2-.77,2.92-2a3.12,3.12,0,0,1-.11-1c.11-.4.38-.51.49-.82.05-.14,0-.22-.18-.26a8.74,8.74,0,0,0,.16-1.8c.35-.11.32-.36.23-.51a3,3,0,0,1-.22-.73c-.05-.49-.16-1.22.56-1.3C324.77,156.15,324.25,155.58,323.94,155.34Z"/><path class="cls-28" d="M302.1,141.39c0-.78-.9-.74-.9-.74.72-.33,1.83.32,1.83.32-.28-.75.73-1.88.73-1.88a1.09,1.09,0,0,0,.17,1.46,12.34,12.34,0,0,1,14.71.44,18.32,18.32,0,0,1,2.13,2.93c.12.23.25.47.36.7a3.28,3.28,0,0,0,1.42-1.22s.3,3.69-2.26,4c-1.48.3-3.52-.62-5.3-1.13-3.39-1-5,.65-5.24,3.34-.14,1.9-.11,2.39-.25,4.87-.05.93-.08,1.19-.13,2.52,0,.39-.55.33-1,.38s-.58-.6-.63-.79a3.52,3.52,0,0,0-2.31-2.68c-.93-.29-1.24.07-1.51.5-.68,1,.36,2.07,1.59,3.62.91,1.15-1.52,3.13-2.89,3.29-1,.11-5.21-5.94-5.82-11.2C296.12,144.06,302.1,141.39,302.1,141.39Z"/><path class="cls-27" d="M307.07,155.06c.8,1.17.81,2.48,0,2.93s-2.07-.14-2.86-1.31-.82-2.49,0-2.93S306.27,153.89,307.07,155.06Z"/><path class="cls-25" d="M320,150.8a5.31,5.31,0,0,0-2.3.16,6.49,6.49,0,0,0-1.52.65l-.69.34h0a.13.13,0,0,1-.17-.05.14.14,0,0,1,0-.16l.66-.45a6.62,6.62,0,0,1,1.51-.91,5.87,5.87,0,0,1,1.77-.5,3.07,3.07,0,0,1,.83,0h.09a.48.48,0,1,1-.13,1Z"/><path class="cls-18" d="M319.1,158.7s-.31-.07-.19.22a6.82,6.82,0,0,0,3.82,1.72l0-.15a7.17,7.17,0,0,0,.11-1.63A6.25,6.25,0,0,1,319.1,158.7Z"/><path class="cls-25" d="M319.87,152.65l.49-.1a1.86,1.86,0,0,0-1.88,0,2,2,0,0,0-.71.69,1.88,1.88,0,0,0-.29.91,5.35,5.35,0,0,1,1.27-1.11s0,0,.06,0a.73.73,0,0,0,0,.29.71.71,0,0,0,.8.6.68.68,0,0,0,.63-.76A.62.62,0,0,0,319.87,152.65Z"/><polygon class="cls-18" points="302.49 163.44 316.08 168.18 314.9 171.36 302.87 166.71 302.49 163.44"/><path class="cls-29" d="M302,203.61c-.6-5.29-2.25-19.52-2.74-23.68-.74-6.44,3.56-13.18,3.56-13.18l12.1,4.58s4.59,5.23,5.21,10.57l5.29,45.78c-2.19.49-20,4.35-24.89,1.71C300.57,229.39,302.9,211.09,302,203.61Z"/><path class="cls-30" d="M301.85,168.56l.69-3.76L315,171.33a21.37,21.37,0,0,1,5.57,13.32l1.28,11.12L313.94,178l1.63-2-2.56.68Z"/><path class="cls-27" d="M334.92,185.54s3.65-4.3,6.11-4.91c3.43-.87,3.82-.4,4.36,1.33.23.73.43,4.23-2,5.73a.84.84,0,0,1-.94,0s.36-1.07.32-1.07c-1.91,0-3.35,2.36-5.34,4Z"/><rect class="cls-18" x="335.04" y="184.18" width="2.99" height="7.53" transform="translate(-48.9 183.13) rotate(-28.47)"/><path class="cls-30" d="M301.1,177.92c.11,2.63,1.53,6,3.06,9.27,5.12,10.92,10.18,15.09,10.18,15.09l6.68-5.82s-3-7.07-6.92-14.54a31.38,31.38,0,0,0-5.7-7.19C305.7,172.35,300.88,173.17,301.1,177.92Z"/><path class="cls-30" d="M316.1,195.7c4-2.56,11.4-7.52,17.81-10.71l3.54,7c-5.35,3.46-11.37,7.73-18,11.72C315.57,206.05,310,199.6,316.1,195.7Z"/><path class="cls-31" d="M370.56,195.4h-6.22v18h6.22a9,9,0,0,0,0-18Z"/><rect class="cls-32" x="360.58" y="195.4" width="3.76" height="17.97"/><path class="cls-12" d="M279.81,274.55a34.07,34.07,0,1,1-34.07-34.07A34.07,34.07,0,0,1,279.81,274.55Z"/><path class="cls-33" d="M267.31,274.55A21.57,21.57,0,1,1,245.74,253,21.57,21.57,0,0,1,267.31,274.55Z"/><path class="cls-8" d="M264.51,274.55a18.77,18.77,0,1,1-18.77-18.76A18.77,18.77,0,0,1,264.51,274.55Z"/><path class="cls-34" d="M260.41,274.55a14.67,14.67,0,1,1-14.67-14.66A14.67,14.67,0,0,1,260.41,274.55Z"/><path class="cls-6" d="M528.82,234c0,8.77-4.27,15.88-9.53,15.88s-9.53-7.11-9.53-15.88,4.26-15.89,9.53-15.89S528.82,225.26,528.82,234Z"/><path class="cls-8" d="M519.38,218.15h0v1.68c3.14,2.59,5.3,8,5.3,14.21s-2.16,11.61-5.3,14.2v1.68h0c5.26,0,9.53-7.11,9.53-15.88S524.64,218.15,519.38,218.15Z"/><path class="cls-6" d="M453.54,197.2c0,8.77-4.27,15.89-9.54,15.89s-9.52-7.12-9.52-15.89,4.26-15.89,9.52-15.89S453.54,188.43,453.54,197.2Z"/><path class="cls-8" d="M444.1,181.31h-.05V183c3.14,2.6,5.3,8,5.3,14.21s-2.16,11.61-5.3,14.2v1.68h.05c5.27,0,9.53-7.12,9.53-15.89S449.37,181.31,444.1,181.31Z"/><path class="cls-6" d="M520.82,269.12l-.61-36.84a22.15,22.15,0,0,0-4.49-12.73,44.87,44.87,0,0,0-7.91-8.41c-9.41-8-20.05-12.8-27.2-16.15a79.25,79.25,0,0,0-28.51-7.39l-12.75-3.94-63.91.3a23.75,23.75,0,0,1,2.77,3.73c5.88,8.42,5.84,21.75-4.74,21.75H227.69c-28,0-25.78-22.1-25.78-22.1-41.25,0-84,23.4-84,23.4-26.52,14.36-23.57,47-22.47,58.38l96.7,13.45,8.65-13.45Z"/><path class="cls-12" d="M479.88,274.55a34.08,34.08,0,1,1-34.08-34.07A34.08,34.08,0,0,1,479.88,274.55Z"/><path class="cls-33" d="M467.36,274.55A21.57,21.57,0,1,1,445.8,253,21.57,21.57,0,0,1,467.36,274.55Z"/><path class="cls-8" d="M464.56,274.55a18.76,18.76,0,1,1-18.76-18.76A18.76,18.76,0,0,1,464.56,274.55Z"/><path class="cls-34" d="M460.47,274.55a14.67,14.67,0,1,1-14.67-14.66A14.67,14.67,0,0,1,460.47,274.55Z"/><path class="cls-8" d="M135.33,264a10.5,10.5,0,0,1-10.5,10.5H98.31c-5.8,0-6.08-4.7-6.08-10.5h0c0-5.8.28-10.5,6.08-10.5h26.52a10.5,10.5,0,0,1,10.5,10.5Z"/><path class="cls-8" d="M526.56,264.75c0,5.79-2.92,10.23-8.7,9.76-4.63-.38-9.11-1.11-11.56-1.48-5.73-.85-10.5-2.49-10.5-8.28h0c0-5.81,4.88-5.77,10.5-7.19,1.27-.32,6.79-1.63,11.35-2.6,5.79-1.23,8.91,4,8.91,9.79Z"/><path class="cls-35" d="M183.12,189.56s-.21,1.77-.36,4.89a73.8,73.8,0,0,0,.45,12.84,19.4,19.4,0,0,0,.87,4c.23.75.41,1.11.68,2.21,0,.23.14.26,0,.66a3,3,0,0,1-.39,1,4.42,4.42,0,0,1-1.14.9c-3.1,1.52-6.31,1.83-9.65,2.37-6.68.9-13.78,1.61-20.83,2.63a185,185,0,0,0-20.54,3.66,93,93,0,0,0-17.19,5.73,49.23,49.23,0,0,0-10.93,6.66,30.75,30.75,0,0,0-2.69,2.42l-.92.89.83-1a24.73,24.73,0,0,1,2.48-2.66,45.48,45.48,0,0,1,10.67-7.48,72.77,72.77,0,0,1,8-3.54,85.78,85.78,0,0,1,9.29-2.95,184.45,184.45,0,0,1,20.72-4c7.11-.92,14.25-1.53,20.87-2.32,3.23-.48,6.62-.75,9.1-1.86.36-.13.46-.32.69-.46,0-.06,0,0,.07,0s0-.3,0-.43c0-.35-.37-1.38-.53-2a21.16,21.16,0,0,1-.75-4.23,62.08,62.08,0,0,1,.44-13C182.77,191.31,183.12,189.56,183.12,189.56Z"/><path class="cls-36" d="M202,277.54v-2.89c0-4.93,4-5.61,8.94-5.61h71.37c4.93,0,8.93.68,8.93,5.61v3s-.42,5.06,4,5.06h6.07a15.93,15.93,0,0,0,3.22-9.63v-9.79a16.05,16.05,0,0,0-16.05-16.06H204.7a16.06,16.06,0,0,0-16,16.06v9.79a15.93,15.93,0,0,0,3.22,9.63H197C202.37,282.7,202,277.54,202,277.54Z"/><path class="cls-35" d="M137.81,242.23l41.33-.64,42.37-.34,48.56-.16,48.57.15,42.36.35,41.33.64-41.33.64-42.36.35-48.57.15-48.56-.15-42.37-.35Z"/><path class="cls-35" d="M515.6,220.29s-1.8-.56-5-1.28c-1.6-.36-3.53-.87-5.77-1.32l-7.55-1.37c-2.76-.45-5.78-.51-8.95-.81-3.19-.15-6.62.09-10.14.05l-22.09.15L434,215.56l-19.27-.34c-11.28-.29-18.8-.62-18.8-.62s7.52-.32,18.8-.62l19.27-.34,22.08-.14,22.09.15c3.53,0,6.92,0,10.17.26,3.25.43,6.36.63,9.14,1.19a133,133,0,0,1,13.21,3.55C513.85,219.6,515.6,220.29,515.6,220.29Z"/><path class="cls-35" d="M446.36,186.29l-2.44-.34a29,29,0,0,0-6.4-.27c-5.36.29-12.5.62-19.64.6s-14.29-.17-19.65-.46-8.93-.64-8.93-.64,3.57-.38,8.93-.64,12.5-.49,19.65-.45,14.28.3,19.64.59a35.67,35.67,0,0,1,6.46,1Z"/><path class="cls-8" d="M97.76,248.2a2.51,2.51,0,0,1-2.5-2.47c0-.53-.14-13.24,7-20.38a2.5,2.5,0,0,1,3.54,3.54c-5.65,5.65-5.52,16.65-5.52,16.76a2.51,2.51,0,0,1-2.46,2.55Z"/><path class="cls-37" d="M96.64,247.07a1.87,1.87,0,0,1-1.87-1.84c0-.53-.15-13,6.8-19.93a1.88,1.88,0,1,1,2.66,2.65c-5.84,5.84-5.71,17.1-5.7,17.21a1.89,1.89,0,0,1-1.85,1.91Z"/><path class="cls-16" d="M185.88,156.36s10.17-5.82,15.81-12.35,31.72-16.47,49-11.63c25.39,7.1,29.18,17.44,35,19,11.23,3,34.06,17.53,37.87,24.25"/><path class="cls-15" d="M134.08,192.9a17,17,0,0,1,7.76-20.63,16.95,16.95,0,1,1,2.53-32.56l38.92,17a20.68,20.68,0,0,0,2.93-2.55l1.44,2.46c-1,1.35-2.76,1.58-4.27,1.49L164,196.7h0a16.94,16.94,0,0,1-29.91-3.79Z"/><path class="cls-20" d="M264.71,181.17c1.64-.87,2.89-2.59,2.39-4.16h0c-.5-1.56-2.27-1.89-4.11-1.81a53.38,53.38,0,0,0-10.88,2,64.68,64.68,0,0,0-10.84,4.42c-1.61.93-3,2.23-2.27,4.44a3.81,3.81,0,0,0,4.32,2.52,57.91,57.91,0,0,0,10.91-2.76A65.6,65.6,0,0,0,264.71,181.17Z"/><path class="cls-20" d="M266,180.28a117.77,117.77,0,0,0,16.92-23.53l-2-1.76s-13.1,12.51-19.41,21.3c0,0-1.37,2.44.44,4.08C263.49,181.77,266,180.28,266,180.28Z"/><path class="cls-20" d="M282.56,157.31s5-2.33,7.18-9.51c.17-.58.27-1.85-.72-2-.49,0-1,.17-2,1a19.35,19.35,0,0,0-2.59,2.87c.34-1.06.87-2.71.17-2.84-1.05-.18-2.26,5.41-3.34,7.43a5.76,5.76,0,0,1-.78,1.35Z"/></g></g></svg>