<svg xmlns="http://www.w3.org/2000/svg" xmlns:xlink="http://www.w3.org/1999/xlink" width="415" height="251" viewBox="0 0 415 251">
  <defs>
    <clipPath id="clip-path">
      <rect id="Rectangle_71" data-name="Rectangle 71" width="415" height="251" transform="translate(1448.286 2447)" fill="#fff" stroke="#707070" stroke-width="1"/>
    </clipPath>
  </defs>
  <g id="Mask_Group_4" data-name="Mask Group 4" transform="translate(-1448.286 -2447)" clip-path="url(#clip-path)">
    <g id="Group_25" data-name="Group 25" transform="translate(1448.286 2420.173)">
      <g id="Layer_2" data-name="Layer 2" transform="translate(225.721 26.518) rotate(90)">
        <g id="OBJECTS" transform="translate(0 0)">
          <path id="Path_494" data-name="Path 494" d="M146.578,22.084c-9.679-3.188-19.2-7.259-29.459-8.3L98.338,11.945a9.179,9.179,0,0,1-2.189-.73,10.331,10.331,0,0,1,1.69-1.728c4.916-2.765,7.682-8.642,14.1-9.295,8.219-.845,16.016,1.306,24,2.458,10.6,1.536,20.51,6.107,31.533,5.876,7.682,0,7.029.461,3.841,7.912-5.377,12.252-15.094,20.51-24.734,28.959-.5,0-.691-.269-.384-.73l6.875-20.74c-4.071.269-4.839,4.455-6.645,7.489-6.452,10.831-12.137,22.2-19.434,32.416C120.461,72.552,110.9,77.583,101.257,82c-9.371,4.263-19.2,4.263-28.729,5.953-.73,0-1.191,0-.845-.922a161.965,161.965,0,0,0,38.139-31.494,119.062,119.062,0,0,1,17.091-14.864c.269-.461.269-.768-.384-.768a23.045,23.045,0,0,0-12.636,6.222A342.86,342.86,0,0,1,81.17,68.865c-7.067,4.033-15.094,3.5-22.853,4.11C44.8,74.088,31.432,75.2,17.759,76.239A84,84,0,0,0,.552,78.351c-.538,0-.691-.269-.422-.73,5.992-5.915,9.909-13.673,16.63-18.589A50.2,50.2,0,0,1,48.293,48.547a226.6,226.6,0,0,0,32.646-1.152c5.262-.615,10.716.883,16.054-.346a83.344,83.344,0,0,0,20.087-8.258,144.178,144.178,0,0,0-23.505,1.383c-6.606,1.114-13.212-.73-19.857-.653A120.715,120.715,0,0,0,34.428,45.4c-2.189.768-4.494,1.152-7.3,1.844A77.737,77.737,0,0,1,76.791,19.78a173.448,173.448,0,0,1,42.556-.538,148.483,148.483,0,0,1,18.82,4.3,11.522,11.522,0,0,0,8.488-1.5Z" transform="translate(2.444 40.559)" fill="#433a4a" fill-rule="evenodd"/>
          <path id="Path_495" data-name="Path 495" d="M1.536,0a4.532,4.532,0,0,1,.422.73L0,1.767H0Z" transform="translate(1.037 118.103)" fill="#9c97a0" fill-rule="evenodd"/>
          <path id="Path_496" data-name="Path 496" d="M.807,0a4.378,4.378,0,0,1,.384.73L0,1.613Z" transform="translate(147.716 85.226)" fill="#8e8992" fill-rule="evenodd"/>
          <path id="Path_497" data-name="Path 497" d="M1,0l.845.922H0Z" transform="translate(73.128 127.59)" fill="#736d79" fill-rule="evenodd"/>
          <path id="Path_498" data-name="Path 498" d="M0,0H1.613L.5.807Z" transform="translate(128.973 80.387)" fill="#89848d" fill-rule="evenodd"/>
          <path id="Path_499" data-name="Path 499" d="M1.037.038.307,1.152,0,.883,1.037,0Z" transform="translate(0 119.832)" fill="#b4b0b7" fill-rule="evenodd"/>
          <path id="Path_500" data-name="Path 500" d="M0,0H.465V.461c0,.115-.269,0-.422,0A1.422,1.422,0,0,1,0,0Z" transform="translate(144.869 69.863)" fill="#7d7882" fill-rule="evenodd"/>
          <path id="Path_501" data-name="Path 501" d="M0,0H.23c.23,0,0,0,0,.192h0A.844.844,0,0,1,0,0Z" transform="translate(150.366 62.22)" fill="#b8b5bb" fill-rule="evenodd"/>
          <path id="Path_502" data-name="Path 502" d="M0,.077.077,0V.038Z" transform="translate(149.021 62.566)" fill="#fff" fill-rule="evenodd"/>
          <path id="Path_503" data-name="Path 503" d="M37.871,22.369c-3.841,5.531-8.027,11.1-12.1,16.669A148.828,148.828,0,0,0,9.411,64.311C7.99,67.5,5.34,66.884,3.151,67.844h0c-2.458.768-3.188-.5-3.149-2.689Q.347,51.79.616,38.27a7.681,7.681,0,0,0,4.647-5.492,3.034,3.034,0,0,1,.461-.576C7.913,30.819,9.3,28.361,11.37,26.94s3.418-3.418,5.108-5.185c2.612-2.8,3.841-6.837,8.027-8.334a2.535,2.535,0,0,0,1.267-1.267c1.383-3.341,4.763-4.8,6.875-7.451l.691-.269h.346c1.191,0,1.728,1.229,2.612,1.844,1.5.845,2.343-.269,3.3-1.114a14.057,14.057,0,0,0,2.535-3.457c.538-.883,1-2.112,2.458-1.575A18.436,18.436,0,0,1,41.9,8.274,56.191,56.191,0,0,1,28.461,27.823c0,.192-.346.422-.307,1.114a24.465,24.465,0,0,0,6.337-4.686C35.528,23.483,36.181,21.985,37.871,22.369Z" transform="translate(118.678 39.928)" fill="#ff9197" fill-rule="evenodd"/>
          <path id="Path_504" data-name="Path 504" d="M47.9,18.167c-.192.691-.346,1.383-.538,2.074a5.8,5.8,0,0,1-3.5,2.343,15.747,15.747,0,0,1-7.989,3,6.11,6.11,0,0,1-.5.5l-.576.461a2.227,2.227,0,0,1-.96.461A3.774,3.774,0,0,0,31.23,28.46c-5.262,4.839-10.1,10.1-14.979,15.363a38.407,38.407,0,0,1-3.841,4.686c-.883.73-1.844,1.421-2.727,2.189a20.856,20.856,0,0,1-4.647,4.724h0a8.718,8.718,0,0,1-3.38,4.647c-.883.691-1.575.922-1.536-.576,0-4.686-.269-9.371,0-14.057A33.607,33.607,0,0,1,10.682,20.394C21.013,9.756,33.457,4.263,46.9,0a6.03,6.03,0,0,1-6.721,5.108,2.727,2.727,0,0,0-2.65.5,58.957,58.957,0,0,0-9.679,9.141c-1.037,1.459-1.805,2.957-.23,4.647.96,1,.269,2.074,0,3.149s0,1.882,1.69,1.613A16.093,16.093,0,0,0,38.8,18.09c.807-.922,1.652-2.65,2.957-1.728s0,2.151-.653,3.226-.922,1.229-.922,2.112c1.613-.5,2.842-1.69,4.378-2.189a11.134,11.134,0,0,0,2.765-1.5h.346Z" transform="translate(119.405 17.207)" fill="#ff3c7b" fill-rule="evenodd"/>
          <path id="Path_505" data-name="Path 505" d="M18.682,20.006l-6.8,4.417c1.459-2.957,2.535-5.185,4.263-8.8a69.134,69.134,0,0,0-5.454,5.915c-2.074,2.881-5.415,3-8.258,4.263-.768.346-2.381,0-2.112-.768C1.974,21.2-2.4,16.626,2.128,13.169,5.047,10.942,7.5,8.176,10.347,5.8a4.225,4.225,0,0,1,4.724-.768c2.535.845,3.841-2.727,5.646-4.571,3.841-1.728,2.3,1.92,3.149,3.149a25.349,25.349,0,0,1-2.612,15.017h0C19.949,18.239,19.8,19.891,18.682,20.006Z" transform="translate(145.588 16.942)" fill="#e10b69" fill-rule="evenodd"/>
          <path id="Path_506" data-name="Path 506" d="M17.918,2.036,21.528,0c-2.266,7.682-3.841,15.9-8.334,22.853a22.811,22.811,0,0,1-1.882,2c-2.765,2.3-5.454,4.647-8.3,6.875-.73.615-1.959,1.459-2.765.461s.538-1.805,1.191-2.42C9.775,22.43,14.039,12.6,17.995,2.573V2.381h-.23Z" transform="translate(145.238 37.447)" fill="#ff668d" fill-rule="evenodd"/>
          <path id="Path_507" data-name="Path 507" d="M.384,0V14.672A14.249,14.249,0,0,0,5.147,9.986C4.686,13.02,3.61,15.517,0,15.67.115,10.408.269,5.223.384,0Z" transform="translate(119.332 62.643)" fill="#fe6088" fill-rule="evenodd"/>
          <path id="Path_508" data-name="Path 508" d="M0,15.017C.768,9.986,3.457,5.3,2.612,0A22.622,22.622,0,0,1,.461,15.017Z" transform="translate(166.843 20.356)" fill="#ec1973" fill-rule="evenodd"/>
          <path id="Path_509" data-name="Path 509" d="M0,23.774C5.608,19.934,8.757,13.75,13.673,9.333,17.283,6.107,19.857,1.652,24.811,0c.269.96-.653.73-1.037,1.037h0a6.871,6.871,0,0,1-.538.5C17.552,8.066,10.37,13.289,5.723,20.74c-.845,1.344-2.727,2-4.148,2.957A1.191,1.191,0,0,1,0,23.774Z" transform="translate(128.589 43.669)" fill="#fe5583" fill-rule="evenodd"/>
          <path id="Path_510" data-name="Path 510" d="M.483,3.149,9.2,0h0a.307.307,0,0,1,0,.5h0C7.474,2.689,5.822,4.916,3.94,6.952c-.883,1-2.228,2.228-3.533.307S1.444,4.532.483,3.149Z" transform="translate(153.954 39.483)" fill="#ff628b" fill-rule="evenodd"/>
          <path id="Path_511" data-name="Path 511" d="M2.074,0C5.915,1.383.5,2.765,2.074,4.148L0,2.074,1.037,1.037,1.536.5A3.3,3.3,0,0,0,2.074,0Z" transform="translate(152.363 42.632)" fill="#fe798f" fill-rule="evenodd"/>
          <path id="Path_512" data-name="Path 512" d="M4.11,0H5.684C3.918,1.882,2.765,4.417,0,5.185.615,2.842,3.8,2.573,4.11,0Z" transform="translate(124.479 67.444)" fill="#fe6088" fill-rule="evenodd"/>
          <path id="Path_513" data-name="Path 513" d="M0,.5.538,0Z" transform="translate(151.825 44.706)" fill="#fe798f" fill-rule="evenodd"/>
          <path id="Path_514" data-name="Path 514" d="M0,0Z" transform="translate(121.867 107.618)" fill="#fff" fill-rule="evenodd"/>
          <path id="Path_515" data-name="Path 515" d="M0,3.841C.461,2.65.96,1.421,1.536,0L2.573,2.228C1.882,3.111,1.536,4.455,0,3.841Z" transform="translate(164.269 33.107)" fill="#ec1973" fill-rule="evenodd"/>
          <path id="Path_516" data-name="Path 516" d="M.538,0,0,.5Z" transform="translate(153.899 42.632)" fill="#ff628b" fill-rule="evenodd"/>
          <path id="Path_517" data-name="Path 517" d="M0,.5A2.379,2.379,0,0,0,0,0V.346S.077.461,0,.5Z" transform="translate(163.194 39.56)" fill="#ff9197" fill-rule="evenodd"/>
          <path id="Path_518" data-name="Path 518" d="M1.295,85.951C.949,83.57.565,81.189.219,78.808a67.405,67.405,0,0,1,.845-17.36,28.729,28.729,0,0,1,2.074-9.179c.422-.845-.23-1.728.23-2.535h0c.653-.576,0-1.5.538-2.074h0c.615-.576,0-1.652,1-2.151A158.589,158.589,0,0,1,16.043,28.455c3.841-6.107,8.68-11.177,12.713-16.938a1.844,1.844,0,0,0,1.575-2.074h0a1.575,1.575,0,0,1,.538-.461l1.421-.653A23.045,23.045,0,0,1,36.13,4.758L41.546.11a.538.538,0,0,1,.653,0c.768,1.5-.307,2.65-.883,3.841-3,5.915-5.992,11.83-8.6,17.9A7.451,7.451,0,0,0,31.56,25.92c1.5-.23,1.882-1.421,2.42-2.42,2.151-4.3,4.532-8.488,6.683-12.79.538-1.037.845-2.343,2.381-2.458a1.882,1.882,0,0,1,.807,1.69C42.621,15.666,40.739,21.2,39.088,26.8c-1.844,6.26-3.841,12.521-5.147,18.9-.192.96-.615,2.036.461,2.8a3.841,3.841,0,0,1-.576,3.649,29.689,29.689,0,0,0-3.841,8.834c-3.188,9.832-5.07,19.972-7.336,30.035-1.152,5.031-2.074,10.063-3.149,15.133-.269,1.306,0,3-2.036,3.457q-6.837-9.448-13.635-18.935a14.249,14.249,0,0,1-2.535-4.724Z" transform="translate(112.085 80.046)" fill="#ff3c7b" fill-rule="evenodd"/>
          <path id="Path_519" data-name="Path 519" d="M44.438.113c6.184,20.433,7.912,40.789,0,61.222-3.226,8.1-4.839,16.938-8.6,24.773a288.524,288.524,0,0,1-15.017,24.85,79.964,79.964,0,0,0-7.681,21.124,15.632,15.632,0,0,1-1.344,2.65,21.353,21.353,0,0,1-1.613-2.189Q5.031,122.4,0,112.224a35.373,35.373,0,0,0,4.8-7.259c1.844-2.842,2.727-6.337,5.684-8.411.96-.653.538-1.92,1.152-2.765,2.957-4.11,4.071-9.141,6.645-13.443.845-1.383,0-3.572,1.844-4.532l.615-.384A103.469,103.469,0,0,0,24.581,61.8a4.991,4.991,0,0,1,.307-.653,37.14,37.14,0,0,0,3.841-9.1,17.207,17.207,0,0,1,2.074-6.26,1.536,1.536,0,0,0,0-1.459,3.841,3.841,0,0,1,.23-3c2.036-3.034,1.152-6.645,2.228-9.832a12.483,12.483,0,0,1,1.459-7.182c.883-1.421,1.767-1.459,2.535,0a1.277,1.277,0,0,0,.653,1.075c.422.23.346,0,.384-.307a92.177,92.177,0,0,0,.5-17.821,3.841,3.841,0,0,1,0-1.844c.269-.96,1.037-1.69,1.267-2.727C40.712.266,41.634-.272,44.438.113Z" transform="translate(138.114 90.99)" fill="#ffb883" fill-rule="evenodd"/>
          <path id="Path_520" data-name="Path 520" d="M0,98.608c1.805-7.912,3.841-15.786,5.454-23.7a218.926,218.926,0,0,1,6.337-25.272c2.8-6.107,6.3-11.829,9.487-17.744.5-.922,1.383-1.5,1.805-2.458a8.027,8.027,0,0,0,1.767-2.458,2.688,2.688,0,0,1,.538-.615c2-1.037,2.5,0,2.458,1.767a35.067,35.067,0,0,1-.807,5.646,74.126,74.126,0,0,0-1.459,18.205,7.259,7.259,0,0,0,1.114,4.148,258.063,258.063,0,0,1,6.03-39.906,5.456,5.456,0,0,1,0-.845,8.334,8.334,0,0,1,.73-1.575,1.882,1.882,0,0,1,.691-.538c2.381,0,2.036,1.767,1.959,3a110.889,110.889,0,0,0-.346,11.292A22.468,22.468,0,0,0,36.3,34.7a247.187,247.187,0,0,0,1.92-27.692,4.762,4.762,0,0,1,0-1.267c.96-1.575,1-3.572,2.151-5.07C43.132-.56,43.785-.214,44.207,2.7s.576,5.723,1,8.6a9.834,9.834,0,0,1,0,2.381,2.228,2.228,0,0,1,0,.73,3.841,3.841,0,0,0,0,2.765,4.919,4.919,0,0,1,0,.73,23.735,23.735,0,0,0-2.65,8.526,1.84,1.84,0,0,1-.422,1.459c-1.037,1.075-.461,1.959.23,2.881a1.844,1.844,0,0,1-.307.615,4.07,4.07,0,0,0-.346.96,1.844,1.844,0,0,1-.307.615,2.458,2.458,0,0,0,0,1.652,1.421,1.421,0,0,1,0,.691,7.681,7.681,0,0,1-.346,1,37.175,37.175,0,0,0-1.613,6.337c0,3.534-2.112,6.3-2.343,9.6a6.453,6.453,0,0,1-.73,2.458,54.272,54.272,0,0,0-2.765,6.76h0c-1.652,2.689-1.344,5.953-2.689,8.757-.883,1.805-.73,3.841-1.421,5.723h0a2.881,2.881,0,0,0-2.5,3.3c0,2.3-1.959,3.841-2.535,5.8,0,.384-.73.768-.653,1.037.922,3.5-2.612,4.916-3.5,7.682a3.188,3.188,0,0,0-.23,1.69,1.344,1.344,0,0,1-.922,1.613,5.454,5.454,0,0,0-2.919,3.073c-1.575,3.61-4.378,6.529-6.068,10.1a2.42,2.42,0,0,1-1.92,1.536C5.377,107.327,2.689,102.987,0,98.608Z" transform="translate(129.549 91.087)" fill="#ff9197" fill-rule="evenodd"/>
          <path id="Path_521" data-name="Path 521" d="M12.561,46.2C9.681,51.689,6.877,57.182,4,62.674c-.691,1.344-1.613,3-3.226,2.189s-.269-2.3.23-3.38C4.841,53.61,8.375,45.775,12.062,37.939v-.346c0-.922.691-1.459.96-2.228a30.034,30.034,0,0,1,4.763-9.295l.346-1.652a2.074,2.074,0,0,0,.73-1.844,53.963,53.963,0,0,1,2.5-11.522l1.536-4.148c.653-1.844,1.767-3.457,2.343-5.377.269-.96,1.152-2.689,2.3-.384a2.842,2.842,0,0,1,0,.807,5.339,5.339,0,0,0,0,2.8c0,.346,0,.768,0,1,4.11,4.724,3.841,10.793,4.609,16.323.653,4.186,1.344,8.45,1.652,12.713a16.094,16.094,0,0,1,0,3.841,8.8,8.8,0,0,1-1.114,2.612c-1.267,2.458-1.959,2.5-3.841.269a41.057,41.057,0,0,1-1.536-9.64c-.346-3.841-.845-7.259-1.037-10.908.538,9.986,2.151,19.972.691,30.035a38.411,38.411,0,0,1-2.381,5.646c-.461.691-.845,1.728-1.805,1.344s-.615-1.459-.384-2.3v-.538a19.2,19.2,0,0,1-3.265,9.487c-.5.73-1.037,1.459-2,1.459s-1.152-.807-1.229-1.613a5.683,5.683,0,0,1,0-.807,6.8,6.8,0,0,0,.307-2.65c.653-5.3.883-10.639,1.882-15.862a28.537,28.537,0,0,1-.883,4.378C13.368,60.216,10.334,71.047,6.646,81.686A17.975,17.975,0,0,1,4.38,86.333H4.035c-2.689.346-1.69-1.459-1.383-2.573q5.07-18.09,10.216-36.142c.5-1,0-2.189.576-2.957A2.112,2.112,0,0,1,12.561,46.2Z" transform="translate(142.221 42.217)" fill="#e10b69" fill-rule="evenodd"/>
          <path id="Path_522" data-name="Path 522" d="M7,47.088A215.928,215.928,0,0,0,2.851,17.322C2.467,15.479-.99,15.172.278,12.445c.615-.768,0-1.805.5-2.612V9.372c.538-1.383-.807-2.765,0-4.11,1.344-1.229,0-2.458,0-3.841h0c.269-.23.384-.576.653-.768L2.006.5C4.848-.422,4.848-.422,5.847,3.611h0c.5.807,0,1.805.422,2.65,0,6.376.653,12.79.461,19.2A36.641,36.641,0,0,0,9.419,41.98a6.837,6.837,0,0,1-1.575,7.144,1.229,1.229,0,0,1-.73.269C5.847,48.778,7.46,47.78,7,47.088Z" transform="translate(168.447 34.144)" fill="#ff3c7b" fill-rule="evenodd"/>
          <path id="Path_523" data-name="Path 523" d="M.653,7.182A14.748,14.748,0,0,0,2.765,0,81.54,81.54,0,0,1,7.3,15.017c-3.841-.5-2.727,4.033-5.031,5.108a2,2,0,0,1-.73-.538A40.943,40.943,0,0,1,0,8.8,2.343,2.343,0,0,1,.653,7.182Z" transform="translate(175.254 76.085)" fill="#ff9198" fill-rule="evenodd"/>
          <path id="Path_524" data-name="Path 524" d="M.156,35.719A62.566,62.566,0,0,1,7.837,23.582a25.5,25.5,0,0,0,6.568-10.716c.768-3.841,4.3-6.26,3.572-10.293C17.593.461,19.475,0,21.242,0c-1.652,3.841-3.38,7.413-4.955,11.177a67.715,67.715,0,0,1-5.8,10.6c-2.381,3.841-4.3,7.682-6.645,11.253C3,34.375,2.383,36.334,0,36.18a.614.614,0,0,1,.154-.461Z" transform="translate(137.497 167.035)" fill="#ffab7f" fill-rule="evenodd"/>
          <path id="Path_525" data-name="Path 525" d="M3.567,0C2.684,6.3,1.647,12.559.917,18.9c-.384,3.341-.346,6.8-.461,10.178A65.831,65.831,0,0,1,2.53,3.265C2.8,2.151,3.375,1.114,3.567,0Z" transform="translate(111.848 129.779)" fill="#fe77a3" fill-rule="evenodd"/>
          <path id="Path_526" data-name="Path 526" d="M3.23,0A40.52,40.52,0,0,1,0,13.4,27.653,27.653,0,0,1,3.23,0Z" transform="translate(160.31 53.31)" fill="#fd3f81" fill-rule="evenodd"/>
          <path id="Path_527" data-name="Path 527" d="M4.609.154c-.192,1.575-.346,3.111-.538,4.686-1.191-1.536-1.344,0-1.421.576A13.25,13.25,0,0,1,0,10.485C1.037,7.413,2.036,4.3,3.073,1.191a1.46,1.46,0,0,0,.346-.5,1.651,1.651,0,0,1,0-.269A1.191,1.191,0,0,1,4.225,0Z" transform="translate(165.153 38.676)" fill="#fa2477" fill-rule="evenodd"/>
          <path id="Path_528" data-name="Path 528" d="M5.185,0C3.61,3.265,2.074,6.529.538,9.832a.423.423,0,0,1-.538,0V9.563C1.652,6.414,1.383,2.112,5.185,0Z" transform="translate(154.783 68.366)" fill="#fd6298" fill-rule="evenodd"/>
          <path id="Path_529" data-name="Path 529" d="M4.186,4.809C3.188,3.311,2.65.968,0,2.2,0,.661.384-.3,2.151.085A4.609,4.609,0,0,1,4.186,4.809Z" transform="translate(170.261 32.984)" fill="#fe5d8c" fill-rule="evenodd"/>
          <path id="Path_530" data-name="Path 530" d="M3.188,1.792,1.037,3.9h-.5A.346.346,0,0,1,0,3.9,24.129,24.129,0,0,1,.538.294c1.229-.883,1.5.461,2.112.96a3.3,3.3,0,0,1,.538.538Z" transform="translate(169.224 31.277)" fill="#fe939c" fill-rule="evenodd"/>
          <path id="Path_531" data-name="Path 531" d="M.576,0c-.845,1.229,5.07,1.267.576,3.111h0c-.269-.23-.576,0-.845-.192A.5.5,0,0,1,0,2.5Z" transform="translate(168.609 35.719)" fill="#fe5d8c" fill-rule="evenodd"/>
          <path id="Path_532" data-name="Path 532" d="M.069,0,2.6,4.763C1.259,3.457-.354,2.266.069,0Z" transform="translate(113.311 165.998)" fill="#fe719f" fill-rule="evenodd"/>
          <path id="Path_533" data-name="Path 533" d="M3.841,0,0,3.572A6.068,6.068,0,0,1,3.841,0Z" transform="translate(144.182 84.842)" fill="#fe6c9b" fill-rule="evenodd"/>
          <path id="Path_534" data-name="Path 534" d="M2.112,1.933,0,.973C0,.282.5-.256,1.075.128S1.805,1.319,2.112,1.933Z" transform="translate(169.762 30.636)" fill="#fecad0" fill-rule="evenodd"/>
          <path id="Path_535" data-name="Path 535" d="M1.575,0C2.612,1.882,1.267,1.92,0,2.074Z" transform="translate(140.802 89.528)" fill="#fea1bf" fill-rule="evenodd"/>
          <path id="Path_536" data-name="Path 536" d="M1.006,0c-.384.691.23,1.882-1,2.151C.045,1.229-.262.307,1.006,0Z" transform="translate(115.946 125.593)" fill="#fe77a3" fill-rule="evenodd"/>
          <path id="Path_537" data-name="Path 537" d="M.8,2.151H.147A1.536,1.536,0,0,1,1.184,0V.23a7.334,7.334,0,0,1-.538,2Z" transform="translate(153.483 78.083)" fill="#fd6298" fill-rule="evenodd"/>
          <path id="Path_538" data-name="Path 538" d="M.422,2.65A15.85,15.85,0,0,0,0,0C.154.73.269,1.767.422,2.65Z" transform="translate(174.447 37.755)" fill="#fe5d8c" fill-rule="evenodd"/>
          <path id="Path_539" data-name="Path 539" d="M.538,0A8.264,8.264,0,0,1,0,2.074C.192,1.383.384.691.538,0Z" transform="translate(115.415 127.744)" fill="#fe77a3" fill-rule="evenodd"/>
          <path id="Path_540" data-name="Path 540" d="M0,1.152.422,0,.615.192a.73.73,0,0,1,0,.96h0S.192,1.306,0,1.152Z" transform="translate(168.187 38.216)" fill="#fe5d8c" fill-rule="evenodd"/>
          <path id="Path_541" data-name="Path 541" d="M.038,0H.576L0,.461Z" transform="translate(169.185 35.22)" fill="#fe5d8c" fill-rule="evenodd"/>
          <path id="Path_542" data-name="Path 542" d="M.087,0h.5L.049.538A.576.576,0,0,1,.087,0Z" transform="translate(168.099 39.368)" fill="#ff3c7b" fill-rule="evenodd"/>
          <path id="Path_543" data-name="Path 543" d="M.538,0,0,.461Z" transform="translate(142.377 89.067)" fill="#fea1bf" fill-rule="evenodd"/>
          <path id="Path_544" data-name="Path 544" d="M11.868,3.613,0,23.815,5.108,11.832h0C6.99,9.028,8.1,5.879,9.756,3,10.6,1.539,11.215-.42,13.6.079a1.536,1.536,0,0,1,0,1.421h0C13.174,2.461,12.29,2.922,11.868,3.613Z" transform="translate(141.34 116.91)" fill="#fe5282" fill-rule="evenodd"/>
          <path id="Path_545" data-name="Path 545" d="M0,4.34C.615,2.919,1.191,1.459,1.805,0l.883.5C2,2.343,1.344,4.34.691,6.107A6.005,6.005,0,0,1,0,4.34Z" transform="translate(154.783 84.074)" fill="#fa2376" fill-rule="evenodd"/>
          <path id="Path_546" data-name="Path 546" d="M0,.615.5,0A2.236,2.236,0,0,1,.883.422a.259.259,0,0,1-.23.384A1.558,1.558,0,0,1,0,.615Z" transform="translate(135.694 120.446)" fill="#ff6294" fill-rule="evenodd"/>
          <path id="Path_547" data-name="Path 547" d="M.405,10.293v-.5a9.641,9.641,0,0,1,0-2.573h0A9.564,9.564,0,0,0,1.98,2.765,3.3,3.3,0,0,1,3.516,0a85.342,85.342,0,0,1-.269,18.781c0,.461-.96,1.306-1.344,1.229C.1,19.665,1.212,18.052.866,17.053A9.64,9.64,0,0,1,.405,10.293Z" transform="translate(174.004 98.323)" fill="#ff8b65" fill-rule="evenodd"/>
          <path id="Path_548" data-name="Path 548" d="M7.758,3.745V3.284a2.189,2.189,0,0,1,0-2.074h0C8.1.941,7.989.442,8.3.173h0c0-.23.346-.23.5,0A63.223,63.223,0,0,0,7.3,9.2c-1.613,6.376-3.38,12.675-5.531,18.9A3.265,3.265,0,0,1,0,30.131L7.259,4.4a3.418,3.418,0,0,0,.5-.653Z" transform="translate(163.002 122.424)" fill="#ffab7f" fill-rule="evenodd"/>
          <path id="Path_549" data-name="Path 549" d="M.717,13.98h-.5A19.972,19.972,0,0,1,3.329,0a18.9,18.9,0,0,1,.5,6.683C.6,7.3,1.562,10.14.947,12.1.794,12.675,1.447,13.4.717,13.98Z" transform="translate(171.08 108.617)" fill="#ffa681" fill-rule="evenodd"/>
          <path id="Path_550" data-name="Path 550" d="M0,14.48A26.117,26.117,0,0,1,4.113,0c.346,4.916-3,9.1-2.8,14.019C1.309,14.134.464,14.326,0,14.48Z" transform="translate(158.889 152.555)" fill="#ffab7f" fill-rule="evenodd"/>
          <path id="Path_551" data-name="Path 551" d="M3.111,2.584C1.69,4.85,3.111,8.345,0,9.8V7.231a31,31,0,0,1,1.613-5.8C1.613.74,1.959-.1,3.034.011v.5C3.034.664,3.073,1.893,3.111,2.584Z" transform="translate(174.447 95.701)" fill="#ff7374" fill-rule="evenodd"/>
          <path id="Path_552" data-name="Path 552" d="M.7,12.072V10.536A1.767,1.767,0,0,1,1.35,9.422a1.767,1.767,0,0,0,.422-.845A2.189,2.189,0,0,1,3.616,6.964l.538-.307A4.839,4.839,0,0,0,5.229,5.12a3.84,3.84,0,0,1,.307-.538l.307-.538V3.738A7.681,7.681,0,0,0,6.3,2.124c.691-.845.615-2.612,2.458-2-1.613,9.6-3.3,19.2-4.763,28.844-.576,3.841-.576,7.682-.883,11.522,0,.768.307,1.882-1,2S.735,41.569.582,40.724a65.6,65.6,0,0,1,1.152-23.7c.269-1.344.5-2.689.653-4.033a4.051,4.051,0,0,0-.192-1.652C2,11.073,1.234,11.8.7,12.072Z" transform="translate(154.086 106.377)" fill="#ff638b" fill-rule="evenodd"/>
          <path id="Path_553" data-name="Path 553" d="M5.381.009Q4.767,14.335,4,28.7c0,.73,0,2.036-1.267,1.767s-1.383-1.69-1.383-2.727c0-6.414,0-12.828.307-19.2,0-1.383,0-1.805-1.459-1.267-.538-2.189,0-2.919,2-3.841.73-.269.96-1.152,1.306-1.805S4.114-.107,5.381.009Z" transform="translate(163.267 97.7)" fill="#ff648b" fill-rule="evenodd"/>
          <path id="Path_554" data-name="Path 554" d="M.526,33.184C1.563,22.123.065,11.1.526,0l3,23.352c.845,1.306.538,3.226,2.189,4.071.538,1.5.422,2.65-1.575,2.727-1.037,0-1.306,1.191-2.189,1.5a7.682,7.682,0,0,1-1.5,4.686C-.4,35.3.142,34.26.526,33.184Z" transform="translate(168.199 60.454)" fill="#fe3b7b" fill-rule="evenodd"/>
          <path id="Path_555" data-name="Path 555" d="M.06,8.834C-.593,5.876,4.323,7.682,3.632,4.686,2.71,2.612,3.862,1.306,5.206,0h.5c.5,4.148,1.037,8.3,1.536,12.444-1,2.42-2,4.8-3.034,7.221-.346-3.111-.845-6.222-1.037-9.371S1.327,8.834.06,8.834Z" transform="translate(170.201 83.421)" fill="#ff648b" fill-rule="evenodd"/>
          <path id="Path_556" data-name="Path 556" d="M11.523,0V4.071c-.691,1.267-1.383,2.5-2.112,3.841C9.1,8.488,8.757,9.41,8.3,9.525c-1.037.192-.615-1.152-1.229-1.844l-.73,3.841h0c-.384.461,0,1.152-.5,1.575h0c-1.652,0-1.383,1.728-2,2.65s0,1.152-.538,1.536h0l-.5.538h0c-.807.691-1,1.728-1.575,2.573h0a.959.959,0,0,1-.96-.653,7.067,7.067,0,0,1,1.5-6.606c0,1.344.615,2.036,1.536.691A14.48,14.48,0,0,0,6.184,8.219,23.045,23.045,0,0,1,7.951,1.805V7.489Z" transform="translate(157.202 93.638)" fill="#f61670" fill-rule="evenodd"/>
          <path id="Path_557" data-name="Path 557" d="M.775,0c.346.845.883,1.69,0,2.573C-.608,1.728.16.845.775,0Z" transform="translate(173.634 105.544)" fill="#ffa681" fill-rule="evenodd"/>
          <path id="Path_558" data-name="Path 558" d="M0,2.074,1.575,0C1.728,1.229.883,1.69,0,2.074Z" transform="translate(153.208 118.449)" fill="#ff638b" fill-rule="evenodd"/>
          <path id="Path_559" data-name="Path 559" d="M.512,0V2.074A1.306,1.306,0,0,1,.512,0Z" transform="translate(170.248 123.634)" fill="#ffa681" fill-rule="evenodd"/>
          <path id="Path_560" data-name="Path 560" d="M0,1.575A6.236,6.236,0,0,1,.5,0C.346.538.192,1.037,0,1.575Z" transform="translate(162.963 104.968)" fill="#ff638b" fill-rule="evenodd"/>
          <path id="Path_561" data-name="Path 561" d="M.538,0,0,1.037Z" transform="translate(170.76 122.597)" fill="#ffa681" fill-rule="evenodd"/>
          <path id="Path_562" data-name="Path 562" d="M.5,0,0,.538Z" transform="translate(170.261 126.169)" fill="#ffa681" fill-rule="evenodd"/>
          <path id="Path_563" data-name="Path 563" d="M12.444,21.623a12.367,12.367,0,0,0-.538,7.259c-.807.538-2.5.23-2.074,2.074h0L8.3,31.994C4.455,34.336,4.033,38.83,1.844,42.172c-.538.845-.807,1.575-1.844,1.69Q5.876,26.194,11.522,8.526A63.641,63.641,0,0,1,14.864,0c-.691,6.184-1.344,12.367-2,18.512-.615.807,0,1.844-.5,2.612Z" transform="translate(146.448 84.919)" fill="#ff3d7b" fill-rule="evenodd"/>
          <path id="Path_564" data-name="Path 564" d="M3.572,2.036,2,6.721.807,7.413,0,2.573C3.61,5.108,1.92.192,3.61,0,3.572.691,3.572,1.344,3.572,2.036Z" transform="translate(171.836 81.232)" fill="#f81a71" fill-rule="evenodd"/>
          <path id="Path_565" data-name="Path 565" d="M0,1.383,1.191,0c.23.269.653.615.615.883A5.377,5.377,0,0,1,1.267,2.3Z" transform="translate(161.734 89.682)" fill="#f295be" fill-rule="evenodd"/>
          <path id="Path_566" data-name="Path 566" d="M0,2.612A16.423,16.423,0,0,1,.5,0C.346.883.154,1.767,0,2.612Z" transform="translate(158.892 103.432)" fill="#f61670" fill-rule="evenodd"/>
          <path id="Path_567" data-name="Path 567" d="M0,2.026a7.334,7.334,0,0,1,.538-2,1.114,1.114,0,0,1,.5,0Z" transform="translate(154.283 78.208)" fill="#ff3c7b" fill-rule="evenodd"/>
          <path id="Path_568" data-name="Path 568" d="M.5,0C.307.883.154,1.767,0,2.612.269,1.767.269.883.5,0Z" transform="translate(168.725 43.977)" fill="#fa2477" fill-rule="evenodd"/>
          <path id="Path_569" data-name="Path 569" d="M0,.883.307,0l.96.422Z" transform="translate(168.686 38.484)" fill="#ff3c7b" fill-rule="evenodd"/>
          <path id="Path_570" data-name="Path 570" d="M0,2.573C0,1.459,0,.307,1.575,0A3.265,3.265,0,0,1,0,2.573Z" transform="translate(158.354 111.228)" fill="#ff3d7b" fill-rule="evenodd"/>
          <path id="Path_571" data-name="Path 571" d="M0,1.536A6.688,6.688,0,0,1,.538,0C.384.538.192,1.037,0,1.536Z" transform="translate(160.428 109.154)" fill="#ff3d7b" fill-rule="evenodd"/>
          <path id="Path_572" data-name="Path 572" d="M0,.538.5,0Z" transform="translate(159.929 110.691)" fill="#ff3d7b" fill-rule="evenodd"/>
          <path id="Path_573" data-name="Path 573" d="M0,0H0Z" transform="translate(156.28 115.876)" fill="#ff9197" fill-rule="evenodd"/>
          <path id="Path_574" data-name="Path 574" d="M14.633,45.052A73.55,73.55,0,0,1,0,39.752a10.14,10.14,0,0,0,7.682-4.186,9.6,9.6,0,0,1,3.841-2.535,8.45,8.45,0,0,0,3.034-1.959C18.4,27,23.544,24.158,27.845,20.433a106.971,106.971,0,0,1,10.063-5.761,14.518,14.518,0,0,1,6.337-3.149,4.263,4.263,0,0,1,2.765.307c-.23-1.613,1.306-1.536,2.074-2.151a27.193,27.193,0,0,1,7.682-2.842A62.067,62.067,0,0,1,71.745,2.228h1.075a69.786,69.786,0,0,1,14.441,0,20.492,20.492,0,0,1,4.34,0,34.989,34.989,0,0,0,4.955.346A4.878,4.878,0,0,1,100.7,3.841c1.191,1.306,2.689.538,4.11.346A14.98,14.98,0,0,0,107.887,3a1.882,1.882,0,0,1,.653-.23h.96l.653-.23.653-.23h1.037c2.765.384,5.262-1.114,7.989-1.191,1.767.883,1.613,2.228.346,3.265A60.607,60.607,0,0,1,101.242,16.63C95.788,18.436,90.3,20.279,85,22.545a125.014,125.014,0,0,0,16.784-4.3,42.594,42.594,0,0,0,15.363-8.258A112.23,112.23,0,0,1,128.2,2h.691a6.145,6.145,0,0,0,1.69,0,29.767,29.767,0,0,0,3.5-2c.768,0,1.191,0,1.267.922a3.841,3.841,0,0,1-1.575,2.612c-3.687,3.764-7.029,7.989-10.332,11.83a21.2,21.2,0,0,1-9.871,7.144A132,132,0,0,0,98.4,28.422a43.669,43.669,0,0,1-12.252,3,132.276,132.276,0,0,1-17.322,2.8c-4.378,0-8.68-1.267-13.519-.845a6.03,6.03,0,0,0,3.226,1.114A48.97,48.97,0,0,0,83,33.146a19.434,19.434,0,0,1,5.339-.768,55.96,55.96,0,0,0,17.015-5.147c1.459-.653,3.034-1.92,4.763-.461,0,1.652-1.229,2.151-2.343,2.727-2.189,1.152-5.147,1.037-6.222,3.841a2.353,2.353,0,0,1-.653.346,42.517,42.517,0,0,0-12.559,5.031,72.36,72.36,0,0,1-13.712,4.955,34.567,34.567,0,0,1-13.558,2.266A13.327,13.327,0,0,0,54,47.049a24.619,24.619,0,0,1-9.179.691c-4.955.192-9.948,0-14.941-.192a54.04,54.04,0,0,1-15.248-2.5Z" transform="translate(15.363 23.121)" fill="#fec794" fill-rule="evenodd"/>
          <path id="Path_575" data-name="Path 575" d="M73.929,20.174a58.955,58.955,0,0,0-14.787,4.455A136.578,136.578,0,0,0,32.641,36.5,57.342,57.342,0,0,0,20.7,45.369c-4.071,4.3-9.871,6.145-13.673,10.562a3.841,3.841,0,0,1-5.147.768c-3.188-2.65-1.767-5.339.23-7.682a24.466,24.466,0,0,1,4.071-3.265c.346-.192.422-.653.807-.845h0A.96.96,0,0,1,7.6,44.6,317.891,317.891,0,0,1,35.022,15.8a46.819,46.819,0,0,1,19.2-9.256c.653,0,.423-1.114,1.114-1.267C60.6,3.7,65.825,1.854,71.164.586,78.615-1.219,85.72,1.623,92.941,2.7c9.179,1.344,18.09,4.186,27.692,2.765,3.841-.576,8.027.691,11.868-1.191,0,1.267-1,1.69-1.805,2.266a117.566,117.566,0,0,1-22.622,11.522,7.067,7.067,0,0,0-3,1.92c-1.613,1.421-3.265,0-4.839,0a33.952,33.952,0,0,1-7.874-.691,146.408,146.408,0,0,0-15.363,0,3.841,3.841,0,0,0-2.381.73h0Z" transform="translate(13.448 6.174)" fill="#f68769" fill-rule="evenodd"/>
          <path id="Path_576" data-name="Path 576" d="M0,39.6a173.256,173.256,0,0,0,29.267,1.959c5.223,0,10.524-1.92,15.747-1.728A65.293,65.293,0,0,0,68.75,34.8a70.747,70.747,0,0,0,17.322-7.682c2.957-2,7.682-1.844,9.256-5.761.768-1.882,2.612-1.882,4.148-2.458a25.5,25.5,0,0,0,6.3-2.957c.73-.422,1.383-1.075,2.343-.807a.922.922,0,0,1,.346.576,26.885,26.885,0,0,1-6.337,7.3A103.7,103.7,0,0,1,87.108,35.028a11.983,11.983,0,0,0,6.452-2.074,144.374,144.374,0,0,0,30.5-30.112A10.638,10.638,0,0,1,126.515.23a1.267,1.267,0,0,1,.73-.23,2.216,2.216,0,0,1,2.343,1.267C121.637,14.441,114.224,28.153,102.7,38.6a25.966,25.966,0,0,1-2.689,1.882c-.691.422-.96,1.229-1.69,1.575A58.61,58.61,0,0,1,53.5,54.5C34.759,52.158,17.514,45.59,0,39.6Z" transform="translate(29.996 28.575)" fill="#ffe48f" fill-rule="evenodd"/>
          <path id="Path_577" data-name="Path 577" d="M61.03,43.669l-4.417,1.92c-6.529,1.191-12.1,5.147-18.743,6.107C26.885,53.31,16.131,56.958,4.839,54.232A11.255,11.255,0,0,1,2.8,53.847c-1.114-.461-2.458-.807-2.8-2.3a18.4,18.4,0,0,1,3.226,0c17.322,2.381,33.3-2.458,49.661-7.682,13.481-4.3,20.2-14.787,28.729-24l.691-.384a19.626,19.626,0,0,1,4.186-1.037,10.024,10.024,0,0,0,7.682-4.8c2.036-3.841,4.071-7.682,6.068-11.522.422-.807.615-1.805,1.69-2.112a32.531,32.531,0,0,1-5.876,14.864l-.538.422a2.072,2.072,0,0,1,0,.422c-1.575,2.65-3.841,4.763-5.454,7.451a2.65,2.65,0,0,1-1.69,1.075h0a11.522,11.522,0,0,0-6.837,5.147c-4.955,2.189-8.181,6.875-13.212,9.141a14.557,14.557,0,0,0-7.3,5.147Z" transform="translate(68.711 4.417)" fill="#fba680" fill-rule="evenodd"/>
          <path id="Path_578" data-name="Path 578" d="M0,25.848c2.074-3.3,5.953-3.457,9.064-4.878A105.045,105.045,0,0,0,27.346,10.447c4.839,0,7.144-4.34,10.677-6.606A46.742,46.742,0,0,1,45.475,0c2.612,0,1.613,1.613.883,2.8a102.361,102.361,0,0,1-6.568,9.179A52.081,52.081,0,0,1,28.921,23.121a2.5,2.5,0,0,1-.615.5c-1.767,1.229-3.841.691-5.915,1.421A1.306,1.306,0,0,1,20.74,24.2c-.384-1,.269-1.613.96-2.151a74.967,74.967,0,0,0,7.682-6.99,12.79,12.79,0,0,0,1.075-.96,2.035,2.035,0,0,1,.73-.461,2.65,2.65,0,0,0,.691-.615.922.922,0,0,1-.346.307l-.5.422a5.456,5.456,0,0,0-.461.5A82.153,82.153,0,0,1,11.138,25h-.615a4.916,4.916,0,0,1-1.306,0H8.642l-.807.307h0a2.059,2.059,0,0,0-1.306.307H3.5l-.653.192c-.883,0-1.728.691-2.535,0A.768.768,0,0,1,0,25.848Z" transform="translate(118.603)" fill="#f53841" fill-rule="evenodd"/>
          <path id="Path_579" data-name="Path 579" d="M19.706,2.862c-2.5,5.07-4.647,10.332-7.682,15.133a9.717,9.717,0,0,1-8.181,4.3A23.736,23.736,0,0,0,0,22.987,3.341,3.341,0,0,1,1.232,20.26C6.34,15.344,9.144,8.738,13.33,3.284c.384-.461.691-.96,1.037-1.459C15.865-.4,16.172-.441,18.707.9Z" transform="translate(150.939 1.056)" fill="#f53d44" fill-rule="evenodd"/>
          <path id="Path_580" data-name="Path 580" d="M22.929,1.885c-1.652-.845-2.65-.422-3.841,1.229A118.1,118.1,0,0,1,4.11,23.969h-.5l-1-.346c-.922.346-1.844.768-2.612-.346A97.9,97.9,0,0,0,17.783,2.461c.576-.883,1.728-1.805,0-2.458a7.413,7.413,0,0,1,5.147,1.882Z" transform="translate(146.602 0.074)" fill="#f68568" fill-rule="evenodd"/>
          <path id="Path_581" data-name="Path 581" d="M0,8.526A29.382,29.382,0,0,1,7.144,0,35.833,35.833,0,0,1,2.689,9.41Z" transform="translate(156.895 20.279)" fill="#fec796" fill-rule="evenodd"/>
          <path id="Path_582" data-name="Path 582" d="M1.114.127,0,1.394C.038.549-.154-.334,1.114.127Z" transform="translate(67.789 11.472)" fill="#f9ab96" fill-rule="evenodd"/>
          <path id="Path_583" data-name="Path 583" d="M0,1.575,1.69,0C1.383.807,1,1.536,0,1.575Z" transform="translate(128.281 68.903)" fill="#feeeb9" fill-rule="evenodd"/>
          <path id="Path_584" data-name="Path 584" d="M.807,0c0,.615,0,1.075-.807.845Z" transform="translate(19.626 51.005)" fill="#fac4b6" fill-rule="evenodd"/>
          <path id="Path_585" data-name="Path 585" d="M.615,0,0,.307Z" transform="translate(20.433 50.698)" fill="#fac4b6" fill-rule="evenodd"/>
          <path id="Path_586" data-name="Path 586" d="M0,.576.538,0Z" transform="translate(164.231 19.281)" fill="#fec796" fill-rule="evenodd"/>
          <path id="Path_587" data-name="Path 587" d="M45.746,1.833A83.421,83.421,0,0,1,2.038,23.226c-.653,0-1.92,0-2-.461-.269-1.037.845-1.075,1.5-1.306,6.76-2.5,13.558-4.916,20.279-7.489,5.915-2.228,10.14-6.952,15.363-10.485,1.152-.807.807-1.728-.23-2.458V.68c2.228-1.613,3.841,0,5.377,1.152a2.612,2.612,0,0,0,1.613,0c.576-.269,1.152-.615,1.844,0Z" transform="translate(98.206 23.209)" fill="#fba680" fill-rule="evenodd"/>
          <path id="Path_588" data-name="Path 588" d="M.048,0,12.8.96h0c1.037,1.421,1.882.269,2.765,0h0a2.675,2.675,0,0,1,2.5.883C15.027,3,12.454,5.876,8.8,2.189,7.422.768,3.889,1.421,1.354,1.152.7.96-.221,1.267.048,0Z" transform="translate(105.803 24.888)" fill="#faa47e" fill-rule="evenodd"/>
          <path id="Path_589" data-name="Path 589" d="M17.9.5l1.306.96H0C3.841-.917,7.682.389,11.522.12,13.827.2,15.747.427,17.9.5Z" transform="translate(87.953 24.384)" fill="#faab81" fill-rule="evenodd"/>
          <path id="Path_590" data-name="Path 590" d="M8.3.7A17.207,17.207,0,0,1,.085,2.274a.653.653,0,0,1,.307-.922h0c.538-.346,1.114.346,1.652,0h0A35.3,35.3,0,0,1,5.885.047C6.73.047,7.537-.26,8.074.7Z" transform="translate(126.66 23.535)" fill="#fba680" fill-rule="evenodd"/>
          <path id="Path_591" data-name="Path 591" d="M1.652,0,4.263.346C3.726,1.959,1.92,1.114,1,2a.845.845,0,0,1-1-.23C0,.615,1.191.691,1.652,0Z" transform="translate(145.065 23.121)" fill="#f9a67e" fill-rule="evenodd"/>
          <path id="Path_592" data-name="Path 592" d="M2.5,1.365,0,.481a4.071,4.071,0,0,1,3.841,0V.827l-.307.23h0l-.653.307Z" transform="translate(121.368 25.175)" fill="#f68769" fill-rule="evenodd"/>
          <path id="Path_593" data-name="Path 593" d="M.687.216l1,.346H.072a.346.346,0,0,1,0-.422C.418-.091.61-.014.687.216Z" transform="translate(144.379 24.634)" fill="#fba680" fill-rule="evenodd"/>
          <path id="Path_594" data-name="Path 594" d="M.845,0A8.638,8.638,0,0,1,.5.922H0Z" transform="translate(126.246 24.888)" fill="#f68669" fill-rule="evenodd"/>
          <path id="Path_595" data-name="Path 595" d="M0,0H1.152L.538.422a.384.384,0,0,1-.5,0Z" transform="translate(125.132 25.771)" fill="#f68769" fill-rule="evenodd"/>
          <path id="Path_596" data-name="Path 596" d="M0,.307.653,0Z" transform="translate(87.377 26.04)" fill="#faab81" fill-rule="evenodd"/>
          <path id="Path_597" data-name="Path 597" d="M.532.152v.5h-.5C-.082,0,.11-.155.532.152Z" transform="translate(144.072 24.544)" fill="#f9a67e" fill-rule="evenodd"/>
          <path id="Path_598" data-name="Path 598" d="M0,.307.653,0Z" transform="translate(124.325 26.348)" fill="#faa47e" fill-rule="evenodd"/>
          <path id="Path_599" data-name="Path 599" d="M.192,0h.5L0,.269Z" transform="translate(124.978 25.925)" fill="#faa47e" fill-rule="evenodd"/>
          <path id="Path_600" data-name="Path 600" d="M14.518,19.354a3.192,3.192,0,0,1,1.959-3.111A132.616,132.616,0,0,0,30.726,6.794C33.8,4.259,36.142-.657,41.48.073A146.564,146.564,0,0,1,9.256,32.8,9.219,9.219,0,0,1,7.8,33.833,9.986,9.986,0,0,1,0,35.485c1.191-2.112,3.61-2.612,5.339-3.841A96.942,96.942,0,0,0,23.045,15.09h0Z" transform="translate(115.223 28.733)" fill="#ffd475" fill-rule="evenodd"/>
          <path id="Path_601" data-name="Path 601" d="M15.9,11.407l-.653.307-1.844.538c-.538.269-1.075-.346-1.652,0-1.767-.807-3.341-2.343-5.531-1.306-2.189-.883-4.11.807-6.222.653A118.755,118.755,0,0,0,20.126.346L20.74,0h0c.461,0,.653.23.346.691v.384c-.384,0-.422.691-.807.845C17.552,4.455,14.787,6.952,12.06,9.6a7.681,7.681,0,0,0-.883,1.306c.461,0,.96.422,1.383.346,1.882-.346,3.841-.807,5.608-1.267l-1.652,1.652Z" transform="translate(128.704 13.289)" fill="#f68669" fill-rule="evenodd"/>
          <path id="Path_602" data-name="Path 602" d="M.346,2.957,0,2.266,2.535,0,3,.461Z" transform="translate(149.444 10.985)" fill="#f4695a" fill-rule="evenodd"/>
          <path id="Path_603" data-name="Path 603" d="M2.765,0C1.92,1.037,1.075,2.381,0,0Z" transform="translate(118.603 25.656)" fill="#f68769" fill-rule="evenodd"/>
          <path id="Path_604" data-name="Path 604" d="M0,0Z" transform="translate(128.742 24.85)" fill="#f68669" fill-rule="evenodd"/>
          <path id="Path_605" data-name="Path 605" d="M0,.845.96,0Z" transform="translate(148.829 14.364)" fill="#f4695a" fill-rule="evenodd"/>
          <path id="Path_606" data-name="Path 606" d="M.615,0,0,.346Z" transform="translate(148.868 13.251)" fill="#f4695a" fill-rule="evenodd"/>
          <path id="Path_607" data-name="Path 607" d="M0,0Z" transform="translate(140.495 25.503)" fill="#f9a67e" fill-rule="evenodd"/>
          <path id="Path_608" data-name="Path 608" d="M0,0Z" transform="translate(138.267 43.823)" fill="#ffe48f" fill-rule="evenodd"/>
          <path id="Path_609" data-name="Path 609" d="M1.144,0A151.634,151.634,0,0,1,16.507,18.858,83,83,0,0,1,32.523,61.106c1.613,18.205,2.343,36.41-2.074,54.424a10.238,10.238,0,0,1-.691,2.228c-1.421-3.61-2.689-6.721-3.841-9.832a88.03,88.03,0,0,0-4.763-22.238,6.76,6.76,0,0,0-.845-5.608A3.341,3.341,0,0,1,20,78.044a168.986,168.986,0,0,0-1.383-17.091A97.979,97.979,0,0,0,15.2,39.982,53.77,53.77,0,0,0,4.332,16.938,21.777,21.777,0,0,1,.03,9.487a2.459,2.459,0,0,1,0-.768,11.023,11.023,0,0,0,0-3.841C.376,3.38-.277,1.5,1.144,0Z" transform="translate(195.503 39.675)" fill="#ffb883" fill-rule="evenodd"/>
          <path id="Path_610" data-name="Path 610" d="M9.794,49.93C2.112,34.106.23,17.091,0,0,2,.615,1.575,2.458,1.767,3.841c.96,6.8,1.575,13.673,2.573,20.471a3.572,3.572,0,0,0,.807,2.3,26.655,26.655,0,0,0,.5-8.3c-.192-1.306-.807-3.3.691-3.649S8.1,16.4,8.488,17.629c2.842,9.295,5.454,18.628,7.682,28.153a.422.422,0,0,0,.384.346c.883-1.69-.269-3.5,0-5.223s1.344-1,2.112,0,.615,1.383,1.229,1.844h0c-.922-.922-.96-2.42-2.266-3-.615-.192-1.191.73-1.844,0-1.114-5.723-2.765-11.292-4.225-16.938-.96-3.841-2.151-7.682-3.341-11.522-.269-.807-.73-1.805,0-2.381s1.728.269,2.42.883A41.134,41.134,0,0,1,18.7,19.741c2.228,3.841,4.532,7.413,6.452,11.522.192.269.23-.346,0,0a3.841,3.841,0,0,1,.422-5.147,1.421,1.421,0,0,1,1.037,1.191,26.54,26.54,0,0,1-.192,6.76c-.422,3.265,1.652,5.8,2.42,8.757a27.077,27.077,0,0,0,4.263,9.41c1.229,1.652.461,3.841,1.229,5.953A28.614,28.614,0,0,0,38.177,69.71c1.191,3,2.343,6.03,3.341,9.1l.346.653a2.149,2.149,0,0,0,.192.307l.422.653a3.419,3.419,0,0,1,.307.653c.576,1.728.615,3.61,2.189,4.955.538.461.384,1.421.346,2.189-.653,1.459,1.075,2.612.576,4.071a2,2,0,0,0-.269,1.459c1.229,3.111-.922,5.876-.922,8.872,0,.346-.307.576-.615.768A77.084,77.084,0,0,1,35.22,87.569c-.73-.922-.845-2.151-1.575-3.073l-1.152-2.957a29.881,29.881,0,0,0-8.181-13.174C21.47,65.831,19.4,62.6,16.63,59.954A39.253,39.253,0,0,1,9.794,49.93Z" transform="translate(170.299 31.571)" fill="#ff3c7b" fill-rule="evenodd"/>
          <path id="Path_611" data-name="Path 611" d="M17.748,49.93c0,1.882.422,3.841.538,5.608,0,.922.23,2.189-1.075,2.228s-1.306-1.229-1.5-2.266a310.406,310.406,0,0,0-8.6-31.994V34.644c0,1.152.23,3.034-1.421,3.149s-1.267-1.767-1.421-2.919C3.038,26.463,1.847,18.013.657,9.6.465,7.029.273,4.494.042,1.92A1.536,1.536,0,0,1,1.348.038,1.882,1.882,0,0,1,3.46,1.152a11.522,11.522,0,0,1,1.92,5.8,6.184,6.184,0,0,0,3.841,6.184c.384,0,.653.576,1,.807,1.037.768,1.92,1.652,2.881,2.458,1.191,1.69,3.111,2.8,3.841,4.878s.922,3.61,2.8,4.532c.653.307,1.037.922,1.613,1.306a3.072,3.072,0,0,1,.5.5,2.88,2.88,0,0,1,.5,1.229c0,1.191.23,1.92,1.459,2.074a4.455,4.455,0,0,1,1.69,2.151,9.41,9.41,0,0,1,.922,2.228.73.73,0,0,1-.269.615v6.376c-5.3-8.642-8.987-17.552-16.938-23.736A276.533,276.533,0,0,1,17.4,49.277a.422.422,0,0,1,.576,0,.384.384,0,0,1-.23.653Z" transform="translate(169.566 21.777)" fill="#e10b69" fill-rule="evenodd"/>
          <path id="Path_612" data-name="Path 612" d="M16.909,11.945v5.569c-.615,1.152.23,2.535-.5,3.841h0c-.346.307,0,1-.653,1.191a68.021,68.021,0,0,0-5.339-5.185A26.885,26.885,0,0,0,4.311,9.679a5.377,5.377,0,0,1-1.92-3.841A4.532,4.532,0,0,0,.778,2.3C-.259.691-.259.576.778,0L3.351.576c1.5.653,2.343,2.343,4.11,2.573Z" transform="translate(179.738 27.73)" fill="#ff5348" fill-rule="evenodd"/>
          <path id="Path_613" data-name="Path 613" d="M2.379,3.015A66.714,66.714,0,0,1,7.1,23.025a13.749,13.749,0,0,1-.5,2.689L.344,14.192c-.883-2,.192-3.841.384-5.915a10.447,10.447,0,0,0,0-5.223,1.529,1.529,0,0,1,.538-1.805A2.458,2.458,0,0,1,1.573.1C2.648-.173,3.032.1,2.763,1.248S1.957,2.4,2.379,3.015Z" transform="translate(214.892 122.002)" fill="#ff5549" fill-rule="evenodd"/>
          <path id="Path_614" data-name="Path 614" d="M10.407,16.391c-4.878-1.652-5.415-5.761-5.8-10.063A4.455,4.455,0,0,0,2.38,2.257C1.42,1.8,1,2.948.5,3.6.5,2.372-.923.759,1.036.183A2.42,2.42,0,0,1,4.377,2.372c.384,3.841,4.494,2.5,5.992,4.724a26.079,26.079,0,0,1,.96,6.222,3.149,3.149,0,0,1-.922,3.073Z" transform="translate(169.187 20.097)" fill="#ff3d7c" fill-rule="evenodd"/>
          <path id="Path_615" data-name="Path 615" d="M.337,0A35.643,35.643,0,0,1,8.018,10.716a2.42,2.42,0,0,1,0,2.881L.337,1.69A1.229,1.229,0,0,1,.337,0Z" transform="translate(194.774 99.552)" fill="#fe6f9e" fill-rule="evenodd"/>
          <path id="Path_616" data-name="Path 616" d="M0,9.295V0L.922.538c-1,.96.384,1.383.5,2.074,1.652,2.189.845,5.07,2.228,7.374.422.73-.269,1.383-1.229,1.459Z" transform="translate(179.594 27.193)" fill="#ff435f" fill-rule="evenodd"/>
          <path id="Path_617" data-name="Path 617" d="M0,0,7.3,9.717c.307.73.653,1.459,0,2.151A22.545,22.545,0,0,1,0,0Z" transform="translate(180.093 81.501)" fill="#fe86ad" fill-rule="evenodd"/>
          <path id="Path_618" data-name="Path 618" d="M0,2.151V0L7.682,8.334v1.69C3.572,8.911,3.034,4.3,0,2.151Z" transform="translate(187.352 91.218)" fill="#fe84ab" fill-rule="evenodd"/>
          <path id="Path_619" data-name="Path 619" d="M2.228.346a39.445,39.445,0,0,1-1.191,12.9L0,11.676C.538,7.836,1.037,3.995,1.536.154,1.882-.076,2.074-.076,2.228.346Z" transform="translate(214.045 123.057)" fill="#ff4651" fill-rule="evenodd"/>
          <path id="Path_620" data-name="Path 620" d="M4.11,2.573C2,2.881,1.114,1.267,0,0,1.92.038,2.573,2.074,4.11,2.573Z" transform="translate(183.204 28.23)" fill="#fe8b84" fill-rule="evenodd"/>
          <path id="Path_621" data-name="Path 621" d="M.051,0C1.587.5,1.74,1.728,1.625,3.073A2.8,2.8,0,0,1,.051,0Z" transform="translate(203.894 116.106)" fill="#fe9abb" fill-rule="evenodd"/>
          <path id="Path_622" data-name="Path 622" d="M22.428,76.085c-1.306-.538.883-2.381-.96-2.689a3.034,3.034,0,0,1-1.037-2.458,5.377,5.377,0,0,0-1.037-3.572c0-5.646-.807-11.253-.96-16.9a82.426,82.426,0,0,0-2.3-12.137,76.815,76.815,0,0,0-4.3-12.559A31,31,0,0,0,7.3,18.359a22.391,22.391,0,0,1-3.5-6.8C4.761,8.1,2,6.568.19,4.532a3.841,3.841,0,0,1,.576-3.5L1.266,0c3,4.763,5.876,9.64,9.1,14.249a59.455,59.455,0,0,1,5.185,12.675,95.174,95.174,0,0,1,4.225,20.894,164,164,0,0,1,1.575,20.817C21.429,71.246,24.579,73.282,22.428,76.085Z" transform="translate(194.844 48.931)" fill="#ffae7c" fill-rule="evenodd"/>
          <path id="Path_623" data-name="Path 623" d="M0,3.841A37.708,37.708,0,0,1,.5,0C.384,1.383,1,2.727,0,3.841Z" transform="translate(196.109 45.091)" fill="#ffae7c" fill-rule="evenodd"/>
          <path id="Path_624" data-name="Path 624" d="M3.687,1.275C5.915,5.768,9.1,9.686,11.369,13.988a57.227,57.227,0,0,1,5.3,15.363A111.383,111.383,0,0,1,19.05,57c-1.191.615-1.46,0-1.613-1.075a9.1,9.1,0,0,0-.691-3.149,8.68,8.68,0,0,1-2.074-4.839A72.169,72.169,0,0,0,11.1,39.26c-.96-2.881-2.074-5.684-2.842-8.6C6.491,22.4,1.191,15.293,0,6.882c1.767,0,2.036,1.383,2.535,2.42a153.624,153.624,0,0,0,9.333,18.973A39.215,39.215,0,0,0,8.8,20.594C6.145,14.986,4.571,9.071,1.575,3.5A4.071,4.071,0,0,1,1.191.276C2.381-.492,3,.507,3.687,1.275Z" transform="translate(195.533 59.025)" fill="#ff9197" fill-rule="evenodd"/>
          <path id="Path_625" data-name="Path 625" d="M1,.551c3.841,9.909,8.987,19.4,10.524,30.073L0,7.311.461.052C.96-.1,1.114.09,1,.551Z" transform="translate(195.648 58.712)" fill="#ff648b" fill-rule="evenodd"/>
          <path id="Path_626" data-name="Path 626" d="M.038,0c2.919,7.374,5.876,14.787,8.8,22.2,0,.192-.346.192-.538,0l-.538-.538h0a6.112,6.112,0,0,0-.5-.5C4.916,15.017,2.5,8.911.23,2.727A8.257,8.257,0,0,1,.038,0Z" transform="translate(203.868 89.797)" fill="#fe5683" fill-rule="evenodd"/>
          <path id="Path_627" data-name="Path 627" d="M1.5,5.953l-.538-.5-.5-1.075a1.881,1.881,0,0,0,0-.461C.191,2.881-.424,1.844.459.807L2.111,0C1.535,2.343,5.03,2.765,4.569,5.031a16.247,16.247,0,0,1-.5,1.959Z" transform="translate(195.15 53.31)" fill="#fea387" fill-rule="evenodd"/>
          <path id="Path_628" data-name="Path 628" d="M.014,1.536a1.651,1.651,0,0,1,0-.422A6.3,6.3,0,0,1,.628,0c2.189.768,2.266,3.188,3.61,4.609a.653.653,0,0,1-1.037,0C.9,4.647,1.857,1.767.014,1.536Z" transform="translate(187.3 70.171)" fill="#fe80a9" fill-rule="evenodd"/>
          <path id="Path_629" data-name="Path 629" d="M.034,0H.572c1.267,1.114-.422,3.61,2,4.148.346,1.229.653,2.42,1,3.61a.576.576,0,0,1-.96,0C2.608,4.878-.35,3,.034,0Z" transform="translate(212.129 111.997)" fill="#fe5182" fill-rule="evenodd"/>
          <path id="Path_630" data-name="Path 630" d="M.356,0h.96c.192.845.422,1.69.615,2.573s0,.73,0,1.075H1.393C1.2,2.381-.8,1.613.356,0Z" transform="translate(214.381 119.755)" fill="#fe4e5f" fill-rule="evenodd"/>
          <path id="Path_631" data-name="Path 631" d="M1.043.178c.346.653,0,1.037-.615,1.114H.044C-.033.409-.148-.359,1.043.178Z" transform="translate(186.809 69.992)" fill="#fdc8db" fill-rule="evenodd"/>
          <path id="Path_632" data-name="Path 632" d="M0,0H1.037V1.383Z" transform="translate(190.425 74.78)" fill="#ffbbd1" fill-rule="evenodd"/>
          <path id="Path_633" data-name="Path 633" d="M0,0A6.11,6.11,0,0,1,.5.5,6.11,6.11,0,0,0,0,0Z" transform="translate(211.242 110.998)" fill="#fe5182" fill-rule="evenodd"/>
          <path id="Path_634" data-name="Path 634" d="M0,0,.538.5Z" transform="translate(211.626 111.459)" fill="#fe5182" fill-rule="evenodd"/>
          <path id="Path_635" data-name="Path 635" d="M1,8.834C2,5.723.154,2.957,0,0,1.575,5.953,7.259,9.371,9.333,15.017a.691.691,0,0,0-.269,0,16.325,16.325,0,0,0-1.959.538c-1.267-.307-1.767-1.383-2.458-2.3Z" transform="translate(181.13 29.651)" fill="#ff444f" fill-rule="evenodd"/>
          <path id="Path_636" data-name="Path 636" d="M5.13,9.179V12.29c-.346-.691-.653-1.383-1-2.036s-.538-2.5-1.536-3.38a1.575,1.575,0,0,1-.615,0,1.229,1.229,0,0,1-.5-.384,1.152,1.152,0,0,1,0-.576c0-.461-.461-.768-.538-1.191S.291,4.148.06,3.764a1.8,1.8,0,0,1,0-.653C.6,2.112-.516.96.329,0h0C2.4,1.344,4.823,2.343,5.476,5.147Z" transform="translate(190.48 44.937)" fill="#ff4d50" fill-rule="evenodd"/>
          <path id="Path_637" data-name="Path 637" d="M0,0,2.573,2.074a1.805,1.805,0,0,1,1.306,2.3l-.269.307C-.038,4.993,1.421,1.421,0,0Z" transform="translate(185.777 43.247)" fill="#f91355" fill-rule="evenodd"/>
          <path id="Path_638" data-name="Path 638" d="M.253,1.229,1.943,0a5.281,5.281,0,0,0,.23,1.882v3L.6,2.765A.958.958,0,0,1,.253,1.229Z" transform="translate(192.285 50.314)" fill="#fe3a6c" fill-rule="evenodd"/>
          <path id="Path_639" data-name="Path 639" d="M1.525,1.2l.461,1.536C-.28,2.967-.318,1.815.45.2.45-.067.8-.067.987.2a1.882,1.882,0,0,0,0,.461l.461.5Z" transform="translate(191.012 50.343)" fill="#fa1255" fill-rule="evenodd"/>
          <path id="Path_640" data-name="Path 640" d="M1.075,1.6,0,.105H0c.576-.269.807,0,1.037.538h0a.73.73,0,0,1,.038.96Z" transform="translate(189.388 47.827)" fill="#f91355" fill-rule="evenodd"/>
          <path id="Path_641" data-name="Path 641" d="M0,1V0L1,1.037c0,.23-.346.23-.5,0Z" transform="translate(190.463 48.432)" fill="#ff4063" fill-rule="evenodd"/>
          <path id="Path_642" data-name="Path 642" d="M0,0H.5l.538,1.075H.5C.346.538.154.538,0,0Z" transform="translate(190.963 49.469)" fill="#fe3a6c" fill-rule="evenodd"/>
          <path id="Path_643" data-name="Path 643" d="M2.112,4.317,1.075,3.779C.73,2.934.384,2.051,0,1.206.23-.753,1.229.13,2.112.706,2.228,2.051,3.994,3.088,2.112,4.317Z" transform="translate(188.351 44.115)" fill="#ff4063" fill-rule="evenodd"/>
          <path id="Path_644" data-name="Path 644" d="M.461.5,0,0Z" transform="translate(192.038 51.005)" fill="#fe3a6c" fill-rule="evenodd"/>
        </g>
      </g>
      <g id="Layer_2-2" data-name="Layer 2" transform="translate(322.86 320.729) rotate(-130)">
        <g id="OBJECTS-2" data-name="OBJECTS" transform="translate(0 0)">
          <path id="Path_494-2" data-name="Path 494" d="M146.578,22.084c-9.679-3.188-19.2-7.259-29.459-8.3L98.338,11.945a9.179,9.179,0,0,1-2.189-.73,10.331,10.331,0,0,1,1.69-1.728c4.916-2.765,7.682-8.642,14.1-9.295,8.219-.845,16.016,1.306,24,2.458,10.6,1.536,20.51,6.107,31.533,5.876,7.682,0,7.029.461,3.841,7.912-5.377,12.252-15.094,20.51-24.734,28.959-.5,0-.691-.269-.384-.73l6.875-20.74c-4.071.269-4.839,4.455-6.645,7.489-6.452,10.831-12.137,22.2-19.434,32.416C120.461,72.552,110.9,77.583,101.257,82c-9.371,4.263-19.2,4.263-28.729,5.953-.73,0-1.191,0-.845-.922a161.965,161.965,0,0,0,38.139-31.494,119.062,119.062,0,0,1,17.091-14.864c.269-.461.269-.768-.384-.768a23.045,23.045,0,0,0-12.636,6.222A342.86,342.86,0,0,1,81.17,68.865c-7.067,4.033-15.094,3.5-22.853,4.11C44.8,74.088,31.432,75.2,17.759,76.239A84,84,0,0,0,.552,78.351c-.538,0-.691-.269-.422-.73,5.992-5.915,9.909-13.673,16.63-18.589A50.2,50.2,0,0,1,48.293,48.547a226.6,226.6,0,0,0,32.646-1.152c5.262-.615,10.716.883,16.054-.346a83.344,83.344,0,0,0,20.087-8.258,144.178,144.178,0,0,0-23.505,1.383c-6.606,1.114-13.212-.73-19.857-.653A120.715,120.715,0,0,0,34.428,45.4c-2.189.768-4.494,1.152-7.3,1.844A77.737,77.737,0,0,1,76.791,19.78a173.448,173.448,0,0,1,42.556-.538,148.483,148.483,0,0,1,18.82,4.3,11.522,11.522,0,0,0,8.488-1.5Z" transform="translate(2.444 40.559)" fill="#433a4a" fill-rule="evenodd"/>
          <path id="Path_495-2" data-name="Path 495" d="M1.536,0a4.532,4.532,0,0,1,.422.73L0,1.767H0Z" transform="translate(1.037 118.103)" fill="#9c97a0" fill-rule="evenodd"/>
          <path id="Path_496-2" data-name="Path 496" d="M.807,0a4.378,4.378,0,0,1,.384.73L0,1.613Z" transform="translate(147.716 85.226)" fill="#8e8992" fill-rule="evenodd"/>
          <path id="Path_497-2" data-name="Path 497" d="M1,0l.845.922H0Z" transform="translate(73.128 127.59)" fill="#736d79" fill-rule="evenodd"/>
          <path id="Path_498-2" data-name="Path 498" d="M0,0H1.613L.5.807Z" transform="translate(128.973 80.387)" fill="#89848d" fill-rule="evenodd"/>
          <path id="Path_499-2" data-name="Path 499" d="M1.037.038.307,1.152,0,.883,1.037,0Z" transform="translate(0 119.832)" fill="#b4b0b7" fill-rule="evenodd"/>
          <path id="Path_500-2" data-name="Path 500" d="M0,0H.465V.461c0,.115-.269,0-.422,0A1.422,1.422,0,0,1,0,0Z" transform="translate(144.869 69.863)" fill="#7d7882" fill-rule="evenodd"/>
          <path id="Path_501-2" data-name="Path 501" d="M0,0H.23c.23,0,0,0,0,.192h0A.844.844,0,0,1,0,0Z" transform="translate(150.366 62.22)" fill="#b8b5bb" fill-rule="evenodd"/>
          <path id="Path_502-2" data-name="Path 502" d="M0,.077.077,0V.038Z" transform="translate(149.021 62.566)" fill="#fff" fill-rule="evenodd"/>
          <path id="Path_503-2" data-name="Path 503" d="M37.871,22.369c-3.841,5.531-8.027,11.1-12.1,16.669A148.828,148.828,0,0,0,9.411,64.311C7.99,67.5,5.34,66.884,3.151,67.844h0c-2.458.768-3.188-.5-3.149-2.689Q.347,51.79.616,38.27a7.681,7.681,0,0,0,4.647-5.492,3.034,3.034,0,0,1,.461-.576C7.913,30.819,9.3,28.361,11.37,26.94s3.418-3.418,5.108-5.185c2.612-2.8,3.841-6.837,8.027-8.334a2.535,2.535,0,0,0,1.267-1.267c1.383-3.341,4.763-4.8,6.875-7.451l.691-.269h.346c1.191,0,1.728,1.229,2.612,1.844,1.5.845,2.343-.269,3.3-1.114a14.057,14.057,0,0,0,2.535-3.457c.538-.883,1-2.112,2.458-1.575A18.436,18.436,0,0,1,41.9,8.274,56.191,56.191,0,0,1,28.461,27.823c0,.192-.346.422-.307,1.114a24.465,24.465,0,0,0,6.337-4.686C35.528,23.483,36.181,21.985,37.871,22.369Z" transform="translate(118.678 39.928)" fill="#ff9197" fill-rule="evenodd"/>
          <path id="Path_504-2" data-name="Path 504" d="M47.9,18.167c-.192.691-.346,1.383-.538,2.074a5.8,5.8,0,0,1-3.5,2.343,15.747,15.747,0,0,1-7.989,3,6.11,6.11,0,0,1-.5.5l-.576.461a2.227,2.227,0,0,1-.96.461A3.774,3.774,0,0,0,31.23,28.46c-5.262,4.839-10.1,10.1-14.979,15.363a38.407,38.407,0,0,1-3.841,4.686c-.883.73-1.844,1.421-2.727,2.189a20.856,20.856,0,0,1-4.647,4.724h0a8.718,8.718,0,0,1-3.38,4.647c-.883.691-1.575.922-1.536-.576,0-4.686-.269-9.371,0-14.057A33.607,33.607,0,0,1,10.682,20.394C21.013,9.756,33.457,4.263,46.9,0a6.03,6.03,0,0,1-6.721,5.108,2.727,2.727,0,0,0-2.65.5,58.957,58.957,0,0,0-9.679,9.141c-1.037,1.459-1.805,2.957-.23,4.647.96,1,.269,2.074,0,3.149s0,1.882,1.69,1.613A16.093,16.093,0,0,0,38.8,18.09c.807-.922,1.652-2.65,2.957-1.728s0,2.151-.653,3.226-.922,1.229-.922,2.112c1.613-.5,2.842-1.69,4.378-2.189a11.134,11.134,0,0,0,2.765-1.5h.346Z" transform="translate(119.405 17.207)" fill="#ff3c7b" fill-rule="evenodd"/>
          <path id="Path_505-2" data-name="Path 505" d="M18.682,20.006l-6.8,4.417c1.459-2.957,2.535-5.185,4.263-8.8a69.134,69.134,0,0,0-5.454,5.915c-2.074,2.881-5.415,3-8.258,4.263-.768.346-2.381,0-2.112-.768C1.974,21.2-2.4,16.626,2.128,13.169,5.047,10.942,7.5,8.176,10.347,5.8a4.225,4.225,0,0,1,4.724-.768c2.535.845,3.841-2.727,5.646-4.571,3.841-1.728,2.3,1.92,3.149,3.149a25.349,25.349,0,0,1-2.612,15.017h0C19.949,18.239,19.8,19.891,18.682,20.006Z" transform="translate(145.588 16.942)" fill="#e10b69" fill-rule="evenodd"/>
          <path id="Path_506-2" data-name="Path 506" d="M17.918,2.036,21.528,0c-2.266,7.682-3.841,15.9-8.334,22.853a22.811,22.811,0,0,1-1.882,2c-2.765,2.3-5.454,4.647-8.3,6.875-.73.615-1.959,1.459-2.765.461s.538-1.805,1.191-2.42C9.775,22.43,14.039,12.6,17.995,2.573V2.381h-.23Z" transform="translate(145.238 37.447)" fill="#ff668d" fill-rule="evenodd"/>
          <path id="Path_507-2" data-name="Path 507" d="M.384,0V14.672A14.249,14.249,0,0,0,5.147,9.986C4.686,13.02,3.61,15.517,0,15.67.115,10.408.269,5.223.384,0Z" transform="translate(119.332 62.643)" fill="#fe6088" fill-rule="evenodd"/>
          <path id="Path_508-2" data-name="Path 508" d="M0,15.017C.768,9.986,3.457,5.3,2.612,0A22.622,22.622,0,0,1,.461,15.017Z" transform="translate(166.843 20.356)" fill="#ec1973" fill-rule="evenodd"/>
          <path id="Path_509-2" data-name="Path 509" d="M0,23.774C5.608,19.934,8.757,13.75,13.673,9.333,17.283,6.107,19.857,1.652,24.811,0c.269.96-.653.73-1.037,1.037h0a6.871,6.871,0,0,1-.538.5C17.552,8.066,10.37,13.289,5.723,20.74c-.845,1.344-2.727,2-4.148,2.957A1.191,1.191,0,0,1,0,23.774Z" transform="translate(128.589 43.669)" fill="#fe5583" fill-rule="evenodd"/>
          <path id="Path_510-2" data-name="Path 510" d="M.483,3.149,9.2,0h0a.307.307,0,0,1,0,.5h0C7.474,2.689,5.822,4.916,3.94,6.952c-.883,1-2.228,2.228-3.533.307S1.444,4.532.483,3.149Z" transform="translate(153.954 39.483)" fill="#ff628b" fill-rule="evenodd"/>
          <path id="Path_511-2" data-name="Path 511" d="M2.074,0C5.915,1.383.5,2.765,2.074,4.148L0,2.074,1.037,1.037,1.536.5A3.3,3.3,0,0,0,2.074,0Z" transform="translate(152.363 42.632)" fill="#fe798f" fill-rule="evenodd"/>
          <path id="Path_512-2" data-name="Path 512" d="M4.11,0H5.684C3.918,1.882,2.765,4.417,0,5.185.615,2.842,3.8,2.573,4.11,0Z" transform="translate(124.479 67.444)" fill="#fe6088" fill-rule="evenodd"/>
          <path id="Path_513-2" data-name="Path 513" d="M0,.5.538,0Z" transform="translate(151.825 44.706)" fill="#fe798f" fill-rule="evenodd"/>
          <path id="Path_514-2" data-name="Path 514" d="M0,0Z" transform="translate(121.867 107.618)" fill="#fff" fill-rule="evenodd"/>
          <path id="Path_515-2" data-name="Path 515" d="M0,3.841C.461,2.65.96,1.421,1.536,0L2.573,2.228C1.882,3.111,1.536,4.455,0,3.841Z" transform="translate(164.269 33.107)" fill="#ec1973" fill-rule="evenodd"/>
          <path id="Path_516-2" data-name="Path 516" d="M.538,0,0,.5Z" transform="translate(153.899 42.632)" fill="#ff628b" fill-rule="evenodd"/>
          <path id="Path_517-2" data-name="Path 517" d="M0,.5A2.379,2.379,0,0,0,0,0V.346S.077.461,0,.5Z" transform="translate(163.194 39.56)" fill="#ff9197" fill-rule="evenodd"/>
          <path id="Path_518-2" data-name="Path 518" d="M1.295,85.951C.949,83.57.565,81.189.219,78.808a67.405,67.405,0,0,1,.845-17.36,28.729,28.729,0,0,1,2.074-9.179c.422-.845-.23-1.728.23-2.535h0c.653-.576,0-1.5.538-2.074h0c.615-.576,0-1.652,1-2.151A158.589,158.589,0,0,1,16.043,28.455c3.841-6.107,8.68-11.177,12.713-16.938a1.844,1.844,0,0,0,1.575-2.074h0a1.575,1.575,0,0,1,.538-.461l1.421-.653A23.045,23.045,0,0,1,36.13,4.758L41.546.11a.538.538,0,0,1,.653,0c.768,1.5-.307,2.65-.883,3.841-3,5.915-5.992,11.83-8.6,17.9A7.451,7.451,0,0,0,31.56,25.92c1.5-.23,1.882-1.421,2.42-2.42,2.151-4.3,4.532-8.488,6.683-12.79.538-1.037.845-2.343,2.381-2.458a1.882,1.882,0,0,1,.807,1.69C42.621,15.666,40.739,21.2,39.088,26.8c-1.844,6.26-3.841,12.521-5.147,18.9-.192.96-.615,2.036.461,2.8a3.841,3.841,0,0,1-.576,3.649,29.689,29.689,0,0,0-3.841,8.834c-3.188,9.832-5.07,19.972-7.336,30.035-1.152,5.031-2.074,10.063-3.149,15.133-.269,1.306,0,3-2.036,3.457q-6.837-9.448-13.635-18.935a14.249,14.249,0,0,1-2.535-4.724Z" transform="translate(112.085 80.046)" fill="#ff3c7b" fill-rule="evenodd"/>
          <path id="Path_519-2" data-name="Path 519" d="M44.438.113c6.184,20.433,7.912,40.789,0,61.222-3.226,8.1-4.839,16.938-8.6,24.773a288.524,288.524,0,0,1-15.017,24.85,79.964,79.964,0,0,0-7.681,21.124,15.632,15.632,0,0,1-1.344,2.65,21.353,21.353,0,0,1-1.613-2.189Q5.031,122.4,0,112.224a35.373,35.373,0,0,0,4.8-7.259c1.844-2.842,2.727-6.337,5.684-8.411.96-.653.538-1.92,1.152-2.765,2.957-4.11,4.071-9.141,6.645-13.443.845-1.383,0-3.572,1.844-4.532l.615-.384A103.469,103.469,0,0,0,24.581,61.8a4.991,4.991,0,0,1,.307-.653,37.14,37.14,0,0,0,3.841-9.1,17.207,17.207,0,0,1,2.074-6.26,1.536,1.536,0,0,0,0-1.459,3.841,3.841,0,0,1,.23-3c2.036-3.034,1.152-6.645,2.228-9.832a12.483,12.483,0,0,1,1.459-7.182c.883-1.421,1.767-1.459,2.535,0a1.277,1.277,0,0,0,.653,1.075c.422.23.346,0,.384-.307a92.177,92.177,0,0,0,.5-17.821,3.841,3.841,0,0,1,0-1.844c.269-.96,1.037-1.69,1.267-2.727C40.712.266,41.634-.272,44.438.113Z" transform="translate(138.114 90.99)" fill="#ffb883" fill-rule="evenodd"/>
          <path id="Path_520-2" data-name="Path 520" d="M0,98.608c1.805-7.912,3.841-15.786,5.454-23.7a218.926,218.926,0,0,1,6.337-25.272c2.8-6.107,6.3-11.829,9.487-17.744.5-.922,1.383-1.5,1.805-2.458a8.027,8.027,0,0,0,1.767-2.458,2.688,2.688,0,0,1,.538-.615c2-1.037,2.5,0,2.458,1.767a35.067,35.067,0,0,1-.807,5.646,74.126,74.126,0,0,0-1.459,18.205,7.259,7.259,0,0,0,1.114,4.148,258.063,258.063,0,0,1,6.03-39.906,5.456,5.456,0,0,1,0-.845,8.334,8.334,0,0,1,.73-1.575,1.882,1.882,0,0,1,.691-.538c2.381,0,2.036,1.767,1.959,3a110.889,110.889,0,0,0-.346,11.292A22.468,22.468,0,0,0,36.3,34.7a247.187,247.187,0,0,0,1.92-27.692,4.762,4.762,0,0,1,0-1.267c.96-1.575,1-3.572,2.151-5.07C43.132-.56,43.785-.214,44.207,2.7s.576,5.723,1,8.6a9.834,9.834,0,0,1,0,2.381,2.228,2.228,0,0,1,0,.73,3.841,3.841,0,0,0,0,2.765,4.919,4.919,0,0,1,0,.73,23.735,23.735,0,0,0-2.65,8.526,1.84,1.84,0,0,1-.422,1.459c-1.037,1.075-.461,1.959.23,2.881a1.844,1.844,0,0,1-.307.615,4.07,4.07,0,0,0-.346.96,1.844,1.844,0,0,1-.307.615,2.458,2.458,0,0,0,0,1.652,1.421,1.421,0,0,1,0,.691,7.681,7.681,0,0,1-.346,1,37.175,37.175,0,0,0-1.613,6.337c0,3.534-2.112,6.3-2.343,9.6a6.453,6.453,0,0,1-.73,2.458,54.272,54.272,0,0,0-2.765,6.76h0c-1.652,2.689-1.344,5.953-2.689,8.757-.883,1.805-.73,3.841-1.421,5.723h0a2.881,2.881,0,0,0-2.5,3.3c0,2.3-1.959,3.841-2.535,5.8,0,.384-.73.768-.653,1.037.922,3.5-2.612,4.916-3.5,7.682a3.188,3.188,0,0,0-.23,1.69,1.344,1.344,0,0,1-.922,1.613,5.454,5.454,0,0,0-2.919,3.073c-1.575,3.61-4.378,6.529-6.068,10.1a2.42,2.42,0,0,1-1.92,1.536C5.377,107.327,2.689,102.987,0,98.608Z" transform="translate(129.549 91.087)" fill="#ff9197" fill-rule="evenodd"/>
          <path id="Path_521-2" data-name="Path 521" d="M12.561,46.2C9.681,51.689,6.877,57.182,4,62.674c-.691,1.344-1.613,3-3.226,2.189s-.269-2.3.23-3.38C4.841,53.61,8.375,45.775,12.062,37.939v-.346c0-.922.691-1.459.96-2.228a30.034,30.034,0,0,1,4.763-9.295l.346-1.652a2.074,2.074,0,0,0,.73-1.844,53.963,53.963,0,0,1,2.5-11.522l1.536-4.148c.653-1.844,1.767-3.457,2.343-5.377.269-.96,1.152-2.689,2.3-.384a2.842,2.842,0,0,1,0,.807,5.339,5.339,0,0,0,0,2.8c0,.346,0,.768,0,1,4.11,4.724,3.841,10.793,4.609,16.323.653,4.186,1.344,8.45,1.652,12.713a16.094,16.094,0,0,1,0,3.841,8.8,8.8,0,0,1-1.114,2.612c-1.267,2.458-1.959,2.5-3.841.269a41.057,41.057,0,0,1-1.536-9.64c-.346-3.841-.845-7.259-1.037-10.908.538,9.986,2.151,19.972.691,30.035a38.411,38.411,0,0,1-2.381,5.646c-.461.691-.845,1.728-1.805,1.344s-.615-1.459-.384-2.3v-.538a19.2,19.2,0,0,1-3.265,9.487c-.5.73-1.037,1.459-2,1.459s-1.152-.807-1.229-1.613a5.683,5.683,0,0,1,0-.807,6.8,6.8,0,0,0,.307-2.65c.653-5.3.883-10.639,1.882-15.862a28.537,28.537,0,0,1-.883,4.378C13.368,60.216,10.334,71.047,6.646,81.686A17.975,17.975,0,0,1,4.38,86.333H4.035c-2.689.346-1.69-1.459-1.383-2.573q5.07-18.09,10.216-36.142c.5-1,0-2.189.576-2.957A2.112,2.112,0,0,1,12.561,46.2Z" transform="translate(142.221 42.217)" fill="#e10b69" fill-rule="evenodd"/>
          <path id="Path_522-2" data-name="Path 522" d="M7,47.088A215.928,215.928,0,0,0,2.851,17.322C2.467,15.479-.99,15.172.278,12.445c.615-.768,0-1.805.5-2.612V9.372c.538-1.383-.807-2.765,0-4.11,1.344-1.229,0-2.458,0-3.841h0c.269-.23.384-.576.653-.768L2.006.5C4.848-.422,4.848-.422,5.847,3.611h0c.5.807,0,1.805.422,2.65,0,6.376.653,12.79.461,19.2A36.641,36.641,0,0,0,9.419,41.98a6.837,6.837,0,0,1-1.575,7.144,1.229,1.229,0,0,1-.73.269C5.847,48.778,7.46,47.78,7,47.088Z" transform="translate(168.447 34.144)" fill="#ff3c7b" fill-rule="evenodd"/>
          <path id="Path_523-2" data-name="Path 523" d="M.653,7.182A14.748,14.748,0,0,0,2.765,0,81.54,81.54,0,0,1,7.3,15.017c-3.841-.5-2.727,4.033-5.031,5.108a2,2,0,0,1-.73-.538A40.943,40.943,0,0,1,0,8.8,2.343,2.343,0,0,1,.653,7.182Z" transform="translate(175.254 76.085)" fill="#ff9198" fill-rule="evenodd"/>
          <path id="Path_524-2" data-name="Path 524" d="M.156,35.719A62.566,62.566,0,0,1,7.837,23.582a25.5,25.5,0,0,0,6.568-10.716c.768-3.841,4.3-6.26,3.572-10.293C17.593.461,19.475,0,21.242,0c-1.652,3.841-3.38,7.413-4.955,11.177a67.715,67.715,0,0,1-5.8,10.6c-2.381,3.841-4.3,7.682-6.645,11.253C3,34.375,2.383,36.334,0,36.18a.614.614,0,0,1,.154-.461Z" transform="translate(137.497 167.035)" fill="#ffab7f" fill-rule="evenodd"/>
          <path id="Path_525-2" data-name="Path 525" d="M3.567,0C2.684,6.3,1.647,12.559.917,18.9c-.384,3.341-.346,6.8-.461,10.178A65.831,65.831,0,0,1,2.53,3.265C2.8,2.151,3.375,1.114,3.567,0Z" transform="translate(111.848 129.779)" fill="#fe77a3" fill-rule="evenodd"/>
          <path id="Path_526-2" data-name="Path 526" d="M3.23,0A40.52,40.52,0,0,1,0,13.4,27.653,27.653,0,0,1,3.23,0Z" transform="translate(160.31 53.31)" fill="#fd3f81" fill-rule="evenodd"/>
          <path id="Path_527-2" data-name="Path 527" d="M4.609.154c-.192,1.575-.346,3.111-.538,4.686-1.191-1.536-1.344,0-1.421.576A13.25,13.25,0,0,1,0,10.485C1.037,7.413,2.036,4.3,3.073,1.191a1.46,1.46,0,0,0,.346-.5,1.651,1.651,0,0,1,0-.269A1.191,1.191,0,0,1,4.225,0Z" transform="translate(165.153 38.676)" fill="#fa2477" fill-rule="evenodd"/>
          <path id="Path_528-2" data-name="Path 528" d="M5.185,0C3.61,3.265,2.074,6.529.538,9.832a.423.423,0,0,1-.538,0V9.563C1.652,6.414,1.383,2.112,5.185,0Z" transform="translate(154.783 68.366)" fill="#fd6298" fill-rule="evenodd"/>
          <path id="Path_529-2" data-name="Path 529" d="M4.186,4.809C3.188,3.311,2.65.968,0,2.2,0,.661.384-.3,2.151.085A4.609,4.609,0,0,1,4.186,4.809Z" transform="translate(170.261 32.984)" fill="#fe5d8c" fill-rule="evenodd"/>
          <path id="Path_530-2" data-name="Path 530" d="M3.188,1.792,1.037,3.9h-.5A.346.346,0,0,1,0,3.9,24.129,24.129,0,0,1,.538.294c1.229-.883,1.5.461,2.112.96a3.3,3.3,0,0,1,.538.538Z" transform="translate(169.224 31.277)" fill="#fe939c" fill-rule="evenodd"/>
          <path id="Path_531-2" data-name="Path 531" d="M.576,0c-.845,1.229,5.07,1.267.576,3.111h0c-.269-.23-.576,0-.845-.192A.5.5,0,0,1,0,2.5Z" transform="translate(168.609 35.719)" fill="#fe5d8c" fill-rule="evenodd"/>
          <path id="Path_532-2" data-name="Path 532" d="M.069,0,2.6,4.763C1.259,3.457-.354,2.266.069,0Z" transform="translate(113.311 165.998)" fill="#fe719f" fill-rule="evenodd"/>
          <path id="Path_533-2" data-name="Path 533" d="M3.841,0,0,3.572A6.068,6.068,0,0,1,3.841,0Z" transform="translate(144.182 84.842)" fill="#fe6c9b" fill-rule="evenodd"/>
          <path id="Path_534-2" data-name="Path 534" d="M2.112,1.933,0,.973C0,.282.5-.256,1.075.128S1.805,1.319,2.112,1.933Z" transform="translate(169.762 30.636)" fill="#fecad0" fill-rule="evenodd"/>
          <path id="Path_535-2" data-name="Path 535" d="M1.575,0C2.612,1.882,1.267,1.92,0,2.074Z" transform="translate(140.802 89.528)" fill="#fea1bf" fill-rule="evenodd"/>
          <path id="Path_536-2" data-name="Path 536" d="M1.006,0c-.384.691.23,1.882-1,2.151C.045,1.229-.262.307,1.006,0Z" transform="translate(115.946 125.593)" fill="#fe77a3" fill-rule="evenodd"/>
          <path id="Path_537-2" data-name="Path 537" d="M.8,2.151H.147A1.536,1.536,0,0,1,1.184,0V.23a7.334,7.334,0,0,1-.538,2Z" transform="translate(153.483 78.083)" fill="#fd6298" fill-rule="evenodd"/>
          <path id="Path_538-2" data-name="Path 538" d="M.422,2.65A15.85,15.85,0,0,0,0,0C.154.73.269,1.767.422,2.65Z" transform="translate(174.447 37.755)" fill="#fe5d8c" fill-rule="evenodd"/>
          <path id="Path_539-2" data-name="Path 539" d="M.538,0A8.264,8.264,0,0,1,0,2.074C.192,1.383.384.691.538,0Z" transform="translate(115.415 127.744)" fill="#fe77a3" fill-rule="evenodd"/>
          <path id="Path_540-2" data-name="Path 540" d="M0,1.152.422,0,.615.192a.73.73,0,0,1,0,.96h0S.192,1.306,0,1.152Z" transform="translate(168.187 38.216)" fill="#fe5d8c" fill-rule="evenodd"/>
          <path id="Path_541-2" data-name="Path 541" d="M.038,0H.576L0,.461Z" transform="translate(169.185 35.22)" fill="#fe5d8c" fill-rule="evenodd"/>
          <path id="Path_542-2" data-name="Path 542" d="M.087,0h.5L.049.538A.576.576,0,0,1,.087,0Z" transform="translate(168.099 39.368)" fill="#ff3c7b" fill-rule="evenodd"/>
          <path id="Path_543-2" data-name="Path 543" d="M.538,0,0,.461Z" transform="translate(142.377 89.067)" fill="#fea1bf" fill-rule="evenodd"/>
          <path id="Path_544-2" data-name="Path 544" d="M11.868,3.613,0,23.815,5.108,11.832h0C6.99,9.028,8.1,5.879,9.756,3,10.6,1.539,11.215-.42,13.6.079a1.536,1.536,0,0,1,0,1.421h0C13.174,2.461,12.29,2.922,11.868,3.613Z" transform="translate(141.34 116.91)" fill="#fe5282" fill-rule="evenodd"/>
          <path id="Path_545-2" data-name="Path 545" d="M0,4.34C.615,2.919,1.191,1.459,1.805,0l.883.5C2,2.343,1.344,4.34.691,6.107A6.005,6.005,0,0,1,0,4.34Z" transform="translate(154.783 84.074)" fill="#fa2376" fill-rule="evenodd"/>
          <path id="Path_546-2" data-name="Path 546" d="M0,.615.5,0A2.236,2.236,0,0,1,.883.422a.259.259,0,0,1-.23.384A1.558,1.558,0,0,1,0,.615Z" transform="translate(135.694 120.446)" fill="#ff6294" fill-rule="evenodd"/>
          <path id="Path_547-2" data-name="Path 547" d="M.405,10.293v-.5a9.641,9.641,0,0,1,0-2.573h0A9.564,9.564,0,0,0,1.98,2.765,3.3,3.3,0,0,1,3.516,0a85.342,85.342,0,0,1-.269,18.781c0,.461-.96,1.306-1.344,1.229C.1,19.665,1.212,18.052.866,17.053A9.64,9.64,0,0,1,.405,10.293Z" transform="translate(174.004 98.323)" fill="#ff8b65" fill-rule="evenodd"/>
          <path id="Path_548-2" data-name="Path 548" d="M7.758,3.745V3.284a2.189,2.189,0,0,1,0-2.074h0C8.1.941,7.989.442,8.3.173h0c0-.23.346-.23.5,0A63.223,63.223,0,0,0,7.3,9.2c-1.613,6.376-3.38,12.675-5.531,18.9A3.265,3.265,0,0,1,0,30.131L7.259,4.4a3.418,3.418,0,0,0,.5-.653Z" transform="translate(163.002 122.424)" fill="#ffab7f" fill-rule="evenodd"/>
          <path id="Path_549-2" data-name="Path 549" d="M.717,13.98h-.5A19.972,19.972,0,0,1,3.329,0a18.9,18.9,0,0,1,.5,6.683C.6,7.3,1.562,10.14.947,12.1.794,12.675,1.447,13.4.717,13.98Z" transform="translate(171.08 108.617)" fill="#ffa681" fill-rule="evenodd"/>
          <path id="Path_550-2" data-name="Path 550" d="M0,14.48A26.117,26.117,0,0,1,4.113,0c.346,4.916-3,9.1-2.8,14.019C1.309,14.134.464,14.326,0,14.48Z" transform="translate(158.889 152.555)" fill="#ffab7f" fill-rule="evenodd"/>
          <path id="Path_551-2" data-name="Path 551" d="M3.111,2.584C1.69,4.85,3.111,8.345,0,9.8V7.231a31,31,0,0,1,1.613-5.8C1.613.74,1.959-.1,3.034.011v.5C3.034.664,3.073,1.893,3.111,2.584Z" transform="translate(174.447 95.701)" fill="#ff7374" fill-rule="evenodd"/>
          <path id="Path_552-2" data-name="Path 552" d="M.7,12.072V10.536A1.767,1.767,0,0,1,1.35,9.422a1.767,1.767,0,0,0,.422-.845A2.189,2.189,0,0,1,3.616,6.964l.538-.307A4.839,4.839,0,0,0,5.229,5.12a3.84,3.84,0,0,1,.307-.538l.307-.538V3.738A7.681,7.681,0,0,0,6.3,2.124c.691-.845.615-2.612,2.458-2-1.613,9.6-3.3,19.2-4.763,28.844-.576,3.841-.576,7.682-.883,11.522,0,.768.307,1.882-1,2S.735,41.569.582,40.724a65.6,65.6,0,0,1,1.152-23.7c.269-1.344.5-2.689.653-4.033a4.051,4.051,0,0,0-.192-1.652C2,11.073,1.234,11.8.7,12.072Z" transform="translate(154.086 106.377)" fill="#ff638b" fill-rule="evenodd"/>
          <path id="Path_553-2" data-name="Path 553" d="M5.381.009Q4.767,14.335,4,28.7c0,.73,0,2.036-1.267,1.767s-1.383-1.69-1.383-2.727c0-6.414,0-12.828.307-19.2,0-1.383,0-1.805-1.459-1.267-.538-2.189,0-2.919,2-3.841.73-.269.96-1.152,1.306-1.805S4.114-.107,5.381.009Z" transform="translate(163.267 97.7)" fill="#ff648b" fill-rule="evenodd"/>
          <path id="Path_554-2" data-name="Path 554" d="M.526,33.184C1.563,22.123.065,11.1.526,0l3,23.352c.845,1.306.538,3.226,2.189,4.071.538,1.5.422,2.65-1.575,2.727-1.037,0-1.306,1.191-2.189,1.5a7.682,7.682,0,0,1-1.5,4.686C-.4,35.3.142,34.26.526,33.184Z" transform="translate(168.199 60.454)" fill="#fe3b7b" fill-rule="evenodd"/>
          <path id="Path_555-2" data-name="Path 555" d="M.06,8.834C-.593,5.876,4.323,7.682,3.632,4.686,2.71,2.612,3.862,1.306,5.206,0h.5c.5,4.148,1.037,8.3,1.536,12.444-1,2.42-2,4.8-3.034,7.221-.346-3.111-.845-6.222-1.037-9.371S1.327,8.834.06,8.834Z" transform="translate(170.201 83.421)" fill="#ff648b" fill-rule="evenodd"/>
          <path id="Path_556-2" data-name="Path 556" d="M11.523,0V4.071c-.691,1.267-1.383,2.5-2.112,3.841C9.1,8.488,8.757,9.41,8.3,9.525c-1.037.192-.615-1.152-1.229-1.844l-.73,3.841h0c-.384.461,0,1.152-.5,1.575h0c-1.652,0-1.383,1.728-2,2.65s0,1.152-.538,1.536h0l-.5.538h0c-.807.691-1,1.728-1.575,2.573h0a.959.959,0,0,1-.96-.653,7.067,7.067,0,0,1,1.5-6.606c0,1.344.615,2.036,1.536.691A14.48,14.48,0,0,0,6.184,8.219,23.045,23.045,0,0,1,7.951,1.805V7.489Z" transform="translate(157.202 93.638)" fill="#f61670" fill-rule="evenodd"/>
          <path id="Path_557-2" data-name="Path 557" d="M.775,0c.346.845.883,1.69,0,2.573C-.608,1.728.16.845.775,0Z" transform="translate(173.634 105.544)" fill="#ffa681" fill-rule="evenodd"/>
          <path id="Path_558-2" data-name="Path 558" d="M0,2.074,1.575,0C1.728,1.229.883,1.69,0,2.074Z" transform="translate(153.208 118.449)" fill="#ff638b" fill-rule="evenodd"/>
          <path id="Path_559-2" data-name="Path 559" d="M.512,0V2.074A1.306,1.306,0,0,1,.512,0Z" transform="translate(170.248 123.634)" fill="#ffa681" fill-rule="evenodd"/>
          <path id="Path_560-2" data-name="Path 560" d="M0,1.575A6.236,6.236,0,0,1,.5,0C.346.538.192,1.037,0,1.575Z" transform="translate(162.963 104.968)" fill="#ff638b" fill-rule="evenodd"/>
          <path id="Path_561-2" data-name="Path 561" d="M.538,0,0,1.037Z" transform="translate(170.76 122.597)" fill="#ffa681" fill-rule="evenodd"/>
          <path id="Path_562-2" data-name="Path 562" d="M.5,0,0,.538Z" transform="translate(170.261 126.169)" fill="#ffa681" fill-rule="evenodd"/>
          <path id="Path_563-2" data-name="Path 563" d="M12.444,21.623a12.367,12.367,0,0,0-.538,7.259c-.807.538-2.5.23-2.074,2.074h0L8.3,31.994C4.455,34.336,4.033,38.83,1.844,42.172c-.538.845-.807,1.575-1.844,1.69Q5.876,26.194,11.522,8.526A63.641,63.641,0,0,1,14.864,0c-.691,6.184-1.344,12.367-2,18.512-.615.807,0,1.844-.5,2.612Z" transform="translate(146.448 84.919)" fill="#ff3d7b" fill-rule="evenodd"/>
          <path id="Path_564-2" data-name="Path 564" d="M3.572,2.036,2,6.721.807,7.413,0,2.573C3.61,5.108,1.92.192,3.61,0,3.572.691,3.572,1.344,3.572,2.036Z" transform="translate(171.836 81.232)" fill="#f81a71" fill-rule="evenodd"/>
          <path id="Path_565-2" data-name="Path 565" d="M0,1.383,1.191,0c.23.269.653.615.615.883A5.377,5.377,0,0,1,1.267,2.3Z" transform="translate(161.734 89.682)" fill="#f295be" fill-rule="evenodd"/>
          <path id="Path_566-2" data-name="Path 566" d="M0,2.612A16.423,16.423,0,0,1,.5,0C.346.883.154,1.767,0,2.612Z" transform="translate(158.892 103.432)" fill="#f61670" fill-rule="evenodd"/>
          <path id="Path_567-2" data-name="Path 567" d="M0,2.026a7.334,7.334,0,0,1,.538-2,1.114,1.114,0,0,1,.5,0Z" transform="translate(154.283 78.208)" fill="#ff3c7b" fill-rule="evenodd"/>
          <path id="Path_568-2" data-name="Path 568" d="M.5,0C.307.883.154,1.767,0,2.612.269,1.767.269.883.5,0Z" transform="translate(168.725 43.977)" fill="#fa2477" fill-rule="evenodd"/>
          <path id="Path_569-2" data-name="Path 569" d="M0,.883.307,0l.96.422Z" transform="translate(168.686 38.484)" fill="#ff3c7b" fill-rule="evenodd"/>
          <path id="Path_570-2" data-name="Path 570" d="M0,2.573C0,1.459,0,.307,1.575,0A3.265,3.265,0,0,1,0,2.573Z" transform="translate(158.354 111.228)" fill="#ff3d7b" fill-rule="evenodd"/>
          <path id="Path_571-2" data-name="Path 571" d="M0,1.536A6.688,6.688,0,0,1,.538,0C.384.538.192,1.037,0,1.536Z" transform="translate(160.428 109.154)" fill="#ff3d7b" fill-rule="evenodd"/>
          <path id="Path_572-2" data-name="Path 572" d="M0,.538.5,0Z" transform="translate(159.929 110.691)" fill="#ff3d7b" fill-rule="evenodd"/>
          <path id="Path_573-2" data-name="Path 573" d="M0,0H0Z" transform="translate(156.28 115.876)" fill="#ff9197" fill-rule="evenodd"/>
          <path id="Path_574-2" data-name="Path 574" d="M14.633,45.052A73.55,73.55,0,0,1,0,39.752a10.14,10.14,0,0,0,7.682-4.186,9.6,9.6,0,0,1,3.841-2.535,8.45,8.45,0,0,0,3.034-1.959C18.4,27,23.544,24.158,27.845,20.433a106.971,106.971,0,0,1,10.063-5.761,14.518,14.518,0,0,1,6.337-3.149,4.263,4.263,0,0,1,2.765.307c-.23-1.613,1.306-1.536,2.074-2.151a27.193,27.193,0,0,1,7.682-2.842A62.067,62.067,0,0,1,71.745,2.228h1.075a69.786,69.786,0,0,1,14.441,0,20.492,20.492,0,0,1,4.34,0,34.989,34.989,0,0,0,4.955.346A4.878,4.878,0,0,1,100.7,3.841c1.191,1.306,2.689.538,4.11.346A14.98,14.98,0,0,0,107.887,3a1.882,1.882,0,0,1,.653-.23h.96l.653-.23.653-.23h1.037c2.765.384,5.262-1.114,7.989-1.191,1.767.883,1.613,2.228.346,3.265A60.607,60.607,0,0,1,101.242,16.63C95.788,18.436,90.3,20.279,85,22.545a125.014,125.014,0,0,0,16.784-4.3,42.594,42.594,0,0,0,15.363-8.258A112.23,112.23,0,0,1,128.2,2h.691a6.145,6.145,0,0,0,1.69,0,29.767,29.767,0,0,0,3.5-2c.768,0,1.191,0,1.267.922a3.841,3.841,0,0,1-1.575,2.612c-3.687,3.764-7.029,7.989-10.332,11.83a21.2,21.2,0,0,1-9.871,7.144A132,132,0,0,0,98.4,28.422a43.669,43.669,0,0,1-12.252,3,132.276,132.276,0,0,1-17.322,2.8c-4.378,0-8.68-1.267-13.519-.845a6.03,6.03,0,0,0,3.226,1.114A48.97,48.97,0,0,0,83,33.146a19.434,19.434,0,0,1,5.339-.768,55.96,55.96,0,0,0,17.015-5.147c1.459-.653,3.034-1.92,4.763-.461,0,1.652-1.229,2.151-2.343,2.727-2.189,1.152-5.147,1.037-6.222,3.841a2.353,2.353,0,0,1-.653.346,42.517,42.517,0,0,0-12.559,5.031,72.36,72.36,0,0,1-13.712,4.955,34.567,34.567,0,0,1-13.558,2.266A13.327,13.327,0,0,0,54,47.049a24.619,24.619,0,0,1-9.179.691c-4.955.192-9.948,0-14.941-.192a54.04,54.04,0,0,1-15.248-2.5Z" transform="translate(15.363 23.121)" fill="#fec794" fill-rule="evenodd"/>
          <path id="Path_575-2" data-name="Path 575" d="M73.929,20.174a58.955,58.955,0,0,0-14.787,4.455A136.578,136.578,0,0,0,32.641,36.5,57.342,57.342,0,0,0,20.7,45.369c-4.071,4.3-9.871,6.145-13.673,10.562a3.841,3.841,0,0,1-5.147.768c-3.188-2.65-1.767-5.339.23-7.682a24.466,24.466,0,0,1,4.071-3.265c.346-.192.422-.653.807-.845h0A.96.96,0,0,1,7.6,44.6,317.891,317.891,0,0,1,35.022,15.8a46.819,46.819,0,0,1,19.2-9.256c.653,0,.423-1.114,1.114-1.267C60.6,3.7,65.825,1.854,71.164.586,78.615-1.219,85.72,1.623,92.941,2.7c9.179,1.344,18.09,4.186,27.692,2.765,3.841-.576,8.027.691,11.868-1.191,0,1.267-1,1.69-1.805,2.266a117.566,117.566,0,0,1-22.622,11.522,7.067,7.067,0,0,0-3,1.92c-1.613,1.421-3.265,0-4.839,0a33.952,33.952,0,0,1-7.874-.691,146.408,146.408,0,0,0-15.363,0,3.841,3.841,0,0,0-2.381.73h0Z" transform="translate(13.448 6.174)" fill="#f68769" fill-rule="evenodd"/>
          <path id="Path_576-2" data-name="Path 576" d="M0,39.6a173.256,173.256,0,0,0,29.267,1.959c5.223,0,10.524-1.92,15.747-1.728A65.293,65.293,0,0,0,68.75,34.8a70.747,70.747,0,0,0,17.322-7.682c2.957-2,7.682-1.844,9.256-5.761.768-1.882,2.612-1.882,4.148-2.458a25.5,25.5,0,0,0,6.3-2.957c.73-.422,1.383-1.075,2.343-.807a.922.922,0,0,1,.346.576,26.885,26.885,0,0,1-6.337,7.3A103.7,103.7,0,0,1,87.108,35.028a11.983,11.983,0,0,0,6.452-2.074,144.374,144.374,0,0,0,30.5-30.112A10.638,10.638,0,0,1,126.515.23a1.267,1.267,0,0,1,.73-.23,2.216,2.216,0,0,1,2.343,1.267C121.637,14.441,114.224,28.153,102.7,38.6a25.966,25.966,0,0,1-2.689,1.882c-.691.422-.96,1.229-1.69,1.575A58.61,58.61,0,0,1,53.5,54.5C34.759,52.158,17.514,45.59,0,39.6Z" transform="translate(29.996 28.575)" fill="#ffe48f" fill-rule="evenodd"/>
          <path id="Path_577-2" data-name="Path 577" d="M61.03,43.669l-4.417,1.92c-6.529,1.191-12.1,5.147-18.743,6.107C26.885,53.31,16.131,56.958,4.839,54.232A11.255,11.255,0,0,1,2.8,53.847c-1.114-.461-2.458-.807-2.8-2.3a18.4,18.4,0,0,1,3.226,0c17.322,2.381,33.3-2.458,49.661-7.682,13.481-4.3,20.2-14.787,28.729-24l.691-.384a19.626,19.626,0,0,1,4.186-1.037,10.024,10.024,0,0,0,7.682-4.8c2.036-3.841,4.071-7.682,6.068-11.522.422-.807.615-1.805,1.69-2.112a32.531,32.531,0,0,1-5.876,14.864l-.538.422a2.072,2.072,0,0,1,0,.422c-1.575,2.65-3.841,4.763-5.454,7.451a2.65,2.65,0,0,1-1.69,1.075h0a11.522,11.522,0,0,0-6.837,5.147c-4.955,2.189-8.181,6.875-13.212,9.141a14.557,14.557,0,0,0-7.3,5.147Z" transform="translate(68.711 4.417)" fill="#fba680" fill-rule="evenodd"/>
          <path id="Path_578-2" data-name="Path 578" d="M0,25.848c2.074-3.3,5.953-3.457,9.064-4.878A105.045,105.045,0,0,0,27.346,10.447c4.839,0,7.144-4.34,10.677-6.606A46.742,46.742,0,0,1,45.475,0c2.612,0,1.613,1.613.883,2.8a102.361,102.361,0,0,1-6.568,9.179A52.081,52.081,0,0,1,28.921,23.121a2.5,2.5,0,0,1-.615.5c-1.767,1.229-3.841.691-5.915,1.421A1.306,1.306,0,0,1,20.74,24.2c-.384-1,.269-1.613.96-2.151a74.967,74.967,0,0,0,7.682-6.99,12.79,12.79,0,0,0,1.075-.96,2.035,2.035,0,0,1,.73-.461,2.65,2.65,0,0,0,.691-.615.922.922,0,0,1-.346.307l-.5.422a5.456,5.456,0,0,0-.461.5A82.153,82.153,0,0,1,11.138,25h-.615a4.916,4.916,0,0,1-1.306,0H8.642l-.807.307h0a2.059,2.059,0,0,0-1.306.307H3.5l-.653.192c-.883,0-1.728.691-2.535,0A.768.768,0,0,1,0,25.848Z" transform="translate(118.603 0)" fill="#f53841" fill-rule="evenodd"/>
          <path id="Path_579-2" data-name="Path 579" d="M19.706,2.862c-2.5,5.07-4.647,10.332-7.682,15.133a9.717,9.717,0,0,1-8.181,4.3A23.736,23.736,0,0,0,0,22.987,3.341,3.341,0,0,1,1.232,20.26C6.34,15.344,9.144,8.738,13.33,3.284c.384-.461.691-.96,1.037-1.459C15.865-.4,16.172-.441,18.707.9Z" transform="translate(150.939 1.056)" fill="#f53d44" fill-rule="evenodd"/>
          <path id="Path_580-2" data-name="Path 580" d="M22.929,1.885c-1.652-.845-2.65-.422-3.841,1.229A118.1,118.1,0,0,1,4.11,23.969h-.5l-1-.346c-.922.346-1.844.768-2.612-.346A97.9,97.9,0,0,0,17.783,2.461c.576-.883,1.728-1.805,0-2.458a7.413,7.413,0,0,1,5.147,1.882Z" transform="translate(146.602 0.074)" fill="#f68568" fill-rule="evenodd"/>
          <path id="Path_581-2" data-name="Path 581" d="M0,8.526A29.382,29.382,0,0,1,7.144,0,35.833,35.833,0,0,1,2.689,9.41Z" transform="translate(156.895 20.279)" fill="#fec796" fill-rule="evenodd"/>
          <path id="Path_582-2" data-name="Path 582" d="M1.114.127,0,1.394C.038.549-.154-.334,1.114.127Z" transform="translate(67.789 11.472)" fill="#f9ab96" fill-rule="evenodd"/>
          <path id="Path_583-2" data-name="Path 583" d="M0,1.575,1.69,0C1.383.807,1,1.536,0,1.575Z" transform="translate(128.281 68.903)" fill="#feeeb9" fill-rule="evenodd"/>
          <path id="Path_584-2" data-name="Path 584" d="M.807,0c0,.615,0,1.075-.807.845Z" transform="translate(19.626 51.005)" fill="#fac4b6" fill-rule="evenodd"/>
          <path id="Path_585-2" data-name="Path 585" d="M.615,0,0,.307Z" transform="translate(20.433 50.698)" fill="#fac4b6" fill-rule="evenodd"/>
          <path id="Path_586-2" data-name="Path 586" d="M0,.576.538,0Z" transform="translate(164.231 19.281)" fill="#fec796" fill-rule="evenodd"/>
          <path id="Path_587-2" data-name="Path 587" d="M45.746,1.833A83.421,83.421,0,0,1,2.038,23.226c-.653,0-1.92,0-2-.461-.269-1.037.845-1.075,1.5-1.306,6.76-2.5,13.558-4.916,20.279-7.489,5.915-2.228,10.14-6.952,15.363-10.485,1.152-.807.807-1.728-.23-2.458V.68c2.228-1.613,3.841,0,5.377,1.152a2.612,2.612,0,0,0,1.613,0c.576-.269,1.152-.615,1.844,0Z" transform="translate(98.206 23.209)" fill="#fba680" fill-rule="evenodd"/>
          <path id="Path_588-2" data-name="Path 588" d="M.048,0,12.8.96h0c1.037,1.421,1.882.269,2.765,0h0a2.675,2.675,0,0,1,2.5.883C15.027,3,12.454,5.876,8.8,2.189,7.422.768,3.889,1.421,1.354,1.152.7.96-.221,1.267.048,0Z" transform="translate(105.803 24.888)" fill="#faa47e" fill-rule="evenodd"/>
          <path id="Path_589-2" data-name="Path 589" d="M17.9.5l1.306.96H0C3.841-.917,7.682.389,11.522.12,13.827.2,15.747.427,17.9.5Z" transform="translate(87.953 24.384)" fill="#faab81" fill-rule="evenodd"/>
          <path id="Path_590-2" data-name="Path 590" d="M8.3.7A17.207,17.207,0,0,1,.085,2.274a.653.653,0,0,1,.307-.922h0c.538-.346,1.114.346,1.652,0h0A35.3,35.3,0,0,1,5.885.047C6.73.047,7.537-.26,8.074.7Z" transform="translate(126.66 23.535)" fill="#fba680" fill-rule="evenodd"/>
          <path id="Path_591-2" data-name="Path 591" d="M1.652,0,4.263.346C3.726,1.959,1.92,1.114,1,2a.845.845,0,0,1-1-.23C0,.615,1.191.691,1.652,0Z" transform="translate(145.065 23.121)" fill="#f9a67e" fill-rule="evenodd"/>
          <path id="Path_592-2" data-name="Path 592" d="M2.5,1.365,0,.481a4.071,4.071,0,0,1,3.841,0V.827l-.307.23h0l-.653.307Z" transform="translate(121.368 25.175)" fill="#f68769" fill-rule="evenodd"/>
          <path id="Path_593-2" data-name="Path 593" d="M.687.216l1,.346H.072a.346.346,0,0,1,0-.422C.418-.091.61-.014.687.216Z" transform="translate(144.379 24.634)" fill="#fba680" fill-rule="evenodd"/>
          <path id="Path_594-2" data-name="Path 594" d="M.845,0A8.638,8.638,0,0,1,.5.922H0Z" transform="translate(126.246 24.888)" fill="#f68669" fill-rule="evenodd"/>
          <path id="Path_595-2" data-name="Path 595" d="M0,0H1.152L.538.422a.384.384,0,0,1-.5,0Z" transform="translate(125.132 25.771)" fill="#f68769" fill-rule="evenodd"/>
          <path id="Path_596-2" data-name="Path 596" d="M0,.307.653,0Z" transform="translate(87.377 26.04)" fill="#faab81" fill-rule="evenodd"/>
          <path id="Path_597-2" data-name="Path 597" d="M.532.152v.5h-.5C-.082,0,.11-.155.532.152Z" transform="translate(144.072 24.544)" fill="#f9a67e" fill-rule="evenodd"/>
          <path id="Path_598-2" data-name="Path 598" d="M0,.307.653,0Z" transform="translate(124.325 26.348)" fill="#faa47e" fill-rule="evenodd"/>
          <path id="Path_599-2" data-name="Path 599" d="M.192,0h.5L0,.269Z" transform="translate(124.978 25.925)" fill="#faa47e" fill-rule="evenodd"/>
          <path id="Path_600-2" data-name="Path 600" d="M14.518,19.354a3.192,3.192,0,0,1,1.959-3.111A132.616,132.616,0,0,0,30.726,6.794C33.8,4.259,36.142-.657,41.48.073A146.564,146.564,0,0,1,9.256,32.8,9.219,9.219,0,0,1,7.8,33.833,9.986,9.986,0,0,1,0,35.485c1.191-2.112,3.61-2.612,5.339-3.841A96.942,96.942,0,0,0,23.045,15.09h0Z" transform="translate(115.223 28.733)" fill="#ffd475" fill-rule="evenodd"/>
          <path id="Path_601-2" data-name="Path 601" d="M15.9,11.407l-.653.307-1.844.538c-.538.269-1.075-.346-1.652,0-1.767-.807-3.341-2.343-5.531-1.306-2.189-.883-4.11.807-6.222.653A118.755,118.755,0,0,0,20.126.346L20.74,0h0c.461,0,.653.23.346.691v.384c-.384,0-.422.691-.807.845C17.552,4.455,14.787,6.952,12.06,9.6a7.681,7.681,0,0,0-.883,1.306c.461,0,.96.422,1.383.346,1.882-.346,3.841-.807,5.608-1.267l-1.652,1.652Z" transform="translate(128.704 13.289)" fill="#f68669" fill-rule="evenodd"/>
          <path id="Path_602-2" data-name="Path 602" d="M.346,2.957,0,2.266,2.535,0,3,.461Z" transform="translate(149.444 10.985)" fill="#f4695a" fill-rule="evenodd"/>
          <path id="Path_603-2" data-name="Path 603" d="M2.765,0C1.92,1.037,1.075,2.381,0,0Z" transform="translate(118.603 25.656)" fill="#f68769" fill-rule="evenodd"/>
          <path id="Path_604-2" data-name="Path 604" d="M0,0Z" transform="translate(128.742 24.85)" fill="#f68669" fill-rule="evenodd"/>
          <path id="Path_605-2" data-name="Path 605" d="M0,.845.96,0Z" transform="translate(148.829 14.364)" fill="#f4695a" fill-rule="evenodd"/>
          <path id="Path_606-2" data-name="Path 606" d="M.615,0,0,.346Z" transform="translate(148.868 13.251)" fill="#f4695a" fill-rule="evenodd"/>
          <path id="Path_607-2" data-name="Path 607" d="M0,0Z" transform="translate(140.495 25.503)" fill="#f9a67e" fill-rule="evenodd"/>
          <path id="Path_608-2" data-name="Path 608" d="M0,0Z" transform="translate(138.267 43.823)" fill="#ffe48f" fill-rule="evenodd"/>
          <path id="Path_609-2" data-name="Path 609" d="M1.144,0A151.634,151.634,0,0,1,16.507,18.858,83,83,0,0,1,32.523,61.106c1.613,18.205,2.343,36.41-2.074,54.424a10.238,10.238,0,0,1-.691,2.228c-1.421-3.61-2.689-6.721-3.841-9.832a88.03,88.03,0,0,0-4.763-22.238,6.76,6.76,0,0,0-.845-5.608A3.341,3.341,0,0,1,20,78.044a168.986,168.986,0,0,0-1.383-17.091A97.979,97.979,0,0,0,15.2,39.982,53.77,53.77,0,0,0,4.332,16.938,21.777,21.777,0,0,1,.03,9.487a2.459,2.459,0,0,1,0-.768,11.023,11.023,0,0,0,0-3.841C.376,3.38-.277,1.5,1.144,0Z" transform="translate(195.503 39.675)" fill="#ffb883" fill-rule="evenodd"/>
          <path id="Path_610-2" data-name="Path 610" d="M9.794,49.93C2.112,34.106.23,17.091,0,0,2,.615,1.575,2.458,1.767,3.841c.96,6.8,1.575,13.673,2.573,20.471a3.572,3.572,0,0,0,.807,2.3,26.655,26.655,0,0,0,.5-8.3c-.192-1.306-.807-3.3.691-3.649S8.1,16.4,8.488,17.629c2.842,9.295,5.454,18.628,7.682,28.153a.422.422,0,0,0,.384.346c.883-1.69-.269-3.5,0-5.223s1.344-1,2.112,0,.615,1.383,1.229,1.844h0c-.922-.922-.96-2.42-2.266-3-.615-.192-1.191.73-1.844,0-1.114-5.723-2.765-11.292-4.225-16.938-.96-3.841-2.151-7.682-3.341-11.522-.269-.807-.73-1.805,0-2.381s1.728.269,2.42.883A41.134,41.134,0,0,1,18.7,19.741c2.228,3.841,4.532,7.413,6.452,11.522.192.269.23-.346,0,0a3.841,3.841,0,0,1,.422-5.147,1.421,1.421,0,0,1,1.037,1.191,26.54,26.54,0,0,1-.192,6.76c-.422,3.265,1.652,5.8,2.42,8.757a27.077,27.077,0,0,0,4.263,9.41c1.229,1.652.461,3.841,1.229,5.953A28.614,28.614,0,0,0,38.177,69.71c1.191,3,2.343,6.03,3.341,9.1l.346.653a2.149,2.149,0,0,0,.192.307l.422.653a3.419,3.419,0,0,1,.307.653c.576,1.728.615,3.61,2.189,4.955.538.461.384,1.421.346,2.189-.653,1.459,1.075,2.612.576,4.071a2,2,0,0,0-.269,1.459c1.229,3.111-.922,5.876-.922,8.872,0,.346-.307.576-.615.768A77.084,77.084,0,0,1,35.22,87.569c-.73-.922-.845-2.151-1.575-3.073l-1.152-2.957a29.881,29.881,0,0,0-8.181-13.174C21.47,65.831,19.4,62.6,16.63,59.954A39.253,39.253,0,0,1,9.794,49.93Z" transform="translate(170.299 31.571)" fill="#ff3c7b" fill-rule="evenodd"/>
          <path id="Path_611-2" data-name="Path 611" d="M17.748,49.93c0,1.882.422,3.841.538,5.608,0,.922.23,2.189-1.075,2.228s-1.306-1.229-1.5-2.266a310.406,310.406,0,0,0-8.6-31.994V34.644c0,1.152.23,3.034-1.421,3.149s-1.267-1.767-1.421-2.919C3.038,26.463,1.847,18.013.657,9.6.465,7.029.273,4.494.042,1.92A1.536,1.536,0,0,1,1.348.038,1.882,1.882,0,0,1,3.46,1.152a11.522,11.522,0,0,1,1.92,5.8,6.184,6.184,0,0,0,3.841,6.184c.384,0,.653.576,1,.807,1.037.768,1.92,1.652,2.881,2.458,1.191,1.69,3.111,2.8,3.841,4.878s.922,3.61,2.8,4.532c.653.307,1.037.922,1.613,1.306a3.072,3.072,0,0,1,.5.5,2.88,2.88,0,0,1,.5,1.229c0,1.191.23,1.92,1.459,2.074a4.455,4.455,0,0,1,1.69,2.151,9.41,9.41,0,0,1,.922,2.228.73.73,0,0,1-.269.615v6.376c-5.3-8.642-8.987-17.552-16.938-23.736A276.533,276.533,0,0,1,17.4,49.277a.422.422,0,0,1,.576,0,.384.384,0,0,1-.23.653Z" transform="translate(169.566 21.777)" fill="#e10b69" fill-rule="evenodd"/>
          <path id="Path_612-2" data-name="Path 612" d="M16.909,11.945v5.569c-.615,1.152.23,2.535-.5,3.841h0c-.346.307,0,1-.653,1.191a68.021,68.021,0,0,0-5.339-5.185A26.885,26.885,0,0,0,4.311,9.679a5.377,5.377,0,0,1-1.92-3.841A4.532,4.532,0,0,0,.778,2.3C-.259.691-.259.576.778,0L3.351.576c1.5.653,2.343,2.343,4.11,2.573Z" transform="translate(179.738 27.73)" fill="#ff5348" fill-rule="evenodd"/>
          <path id="Path_613-2" data-name="Path 613" d="M2.379,3.015A66.714,66.714,0,0,1,7.1,23.025a13.749,13.749,0,0,1-.5,2.689L.344,14.192c-.883-2,.192-3.841.384-5.915a10.447,10.447,0,0,0,0-5.223,1.529,1.529,0,0,1,.538-1.805A2.458,2.458,0,0,1,1.573.1C2.648-.173,3.032.1,2.763,1.248S1.957,2.4,2.379,3.015Z" transform="translate(214.892 122.002)" fill="#ff5549" fill-rule="evenodd"/>
          <path id="Path_614-2" data-name="Path 614" d="M10.407,16.391c-4.878-1.652-5.415-5.761-5.8-10.063A4.455,4.455,0,0,0,2.38,2.257C1.42,1.8,1,2.948.5,3.6.5,2.372-.923.759,1.036.183A2.42,2.42,0,0,1,4.377,2.372c.384,3.841,4.494,2.5,5.992,4.724a26.079,26.079,0,0,1,.96,6.222,3.149,3.149,0,0,1-.922,3.073Z" transform="translate(169.187 20.097)" fill="#ff3d7c" fill-rule="evenodd"/>
          <path id="Path_615-2" data-name="Path 615" d="M.337,0A35.643,35.643,0,0,1,8.018,10.716a2.42,2.42,0,0,1,0,2.881L.337,1.69A1.229,1.229,0,0,1,.337,0Z" transform="translate(194.774 99.552)" fill="#fe6f9e" fill-rule="evenodd"/>
          <path id="Path_616-2" data-name="Path 616" d="M0,9.295V0L.922.538c-1,.96.384,1.383.5,2.074,1.652,2.189.845,5.07,2.228,7.374.422.73-.269,1.383-1.229,1.459Z" transform="translate(179.594 27.193)" fill="#ff435f" fill-rule="evenodd"/>
          <path id="Path_617-2" data-name="Path 617" d="M0,0,7.3,9.717c.307.73.653,1.459,0,2.151A22.545,22.545,0,0,1,0,0Z" transform="translate(180.093 81.501)" fill="#fe86ad" fill-rule="evenodd"/>
          <path id="Path_618-2" data-name="Path 618" d="M0,2.151V0L7.682,8.334v1.69C3.572,8.911,3.034,4.3,0,2.151Z" transform="translate(187.352 91.218)" fill="#fe84ab" fill-rule="evenodd"/>
          <path id="Path_619-2" data-name="Path 619" d="M2.228.346a39.445,39.445,0,0,1-1.191,12.9L0,11.676C.538,7.836,1.037,3.995,1.536.154,1.882-.076,2.074-.076,2.228.346Z" transform="translate(214.045 123.057)" fill="#ff4651" fill-rule="evenodd"/>
          <path id="Path_620-2" data-name="Path 620" d="M4.11,2.573C2,2.881,1.114,1.267,0,0,1.92.038,2.573,2.074,4.11,2.573Z" transform="translate(183.204 28.23)" fill="#fe8b84" fill-rule="evenodd"/>
          <path id="Path_621-2" data-name="Path 621" d="M.051,0C1.587.5,1.74,1.728,1.625,3.073A2.8,2.8,0,0,1,.051,0Z" transform="translate(203.894 116.106)" fill="#fe9abb" fill-rule="evenodd"/>
          <path id="Path_622-2" data-name="Path 622" d="M22.428,76.085c-1.306-.538.883-2.381-.96-2.689a3.034,3.034,0,0,1-1.037-2.458,5.377,5.377,0,0,0-1.037-3.572c0-5.646-.807-11.253-.96-16.9a82.426,82.426,0,0,0-2.3-12.137,76.815,76.815,0,0,0-4.3-12.559A31,31,0,0,0,7.3,18.359a22.391,22.391,0,0,1-3.5-6.8C4.761,8.1,2,6.568.19,4.532a3.841,3.841,0,0,1,.576-3.5L1.266,0c3,4.763,5.876,9.64,9.1,14.249a59.455,59.455,0,0,1,5.185,12.675,95.174,95.174,0,0,1,4.225,20.894,164,164,0,0,1,1.575,20.817C21.429,71.246,24.579,73.282,22.428,76.085Z" transform="translate(194.844 48.931)" fill="#ffae7c" fill-rule="evenodd"/>
          <path id="Path_623-2" data-name="Path 623" d="M0,3.841A37.708,37.708,0,0,1,.5,0C.384,1.383,1,2.727,0,3.841Z" transform="translate(196.109 45.091)" fill="#ffae7c" fill-rule="evenodd"/>
          <path id="Path_624-2" data-name="Path 624" d="M3.687,1.275C5.915,5.768,9.1,9.686,11.369,13.988a57.227,57.227,0,0,1,5.3,15.363A111.383,111.383,0,0,1,19.05,57c-1.191.615-1.46,0-1.613-1.075a9.1,9.1,0,0,0-.691-3.149,8.68,8.68,0,0,1-2.074-4.839A72.169,72.169,0,0,0,11.1,39.26c-.96-2.881-2.074-5.684-2.842-8.6C6.491,22.4,1.191,15.293,0,6.882c1.767,0,2.036,1.383,2.535,2.42a153.624,153.624,0,0,0,9.333,18.973A39.215,39.215,0,0,0,8.8,20.594C6.145,14.986,4.571,9.071,1.575,3.5A4.071,4.071,0,0,1,1.191.276C2.381-.492,3,.507,3.687,1.275Z" transform="translate(195.533 59.025)" fill="#ff9197" fill-rule="evenodd"/>
          <path id="Path_625-2" data-name="Path 625" d="M1,.551c3.841,9.909,8.987,19.4,10.524,30.073L0,7.311.461.052C.96-.1,1.114.09,1,.551Z" transform="translate(195.648 58.712)" fill="#ff648b" fill-rule="evenodd"/>
          <path id="Path_626-2" data-name="Path 626" d="M.038,0c2.919,7.374,5.876,14.787,8.8,22.2,0,.192-.346.192-.538,0l-.538-.538h0a6.112,6.112,0,0,0-.5-.5C4.916,15.017,2.5,8.911.23,2.727A8.257,8.257,0,0,1,.038,0Z" transform="translate(203.868 89.797)" fill="#fe5683" fill-rule="evenodd"/>
          <path id="Path_627-2" data-name="Path 627" d="M1.5,5.953l-.538-.5-.5-1.075a1.881,1.881,0,0,0,0-.461C.191,2.881-.424,1.844.459.807L2.111,0C1.535,2.343,5.03,2.765,4.569,5.031a16.247,16.247,0,0,1-.5,1.959Z" transform="translate(195.15 53.31)" fill="#fea387" fill-rule="evenodd"/>
          <path id="Path_628-2" data-name="Path 628" d="M.014,1.536a1.651,1.651,0,0,1,0-.422A6.3,6.3,0,0,1,.628,0c2.189.768,2.266,3.188,3.61,4.609a.653.653,0,0,1-1.037,0C.9,4.647,1.857,1.767.014,1.536Z" transform="translate(187.3 70.171)" fill="#fe80a9" fill-rule="evenodd"/>
          <path id="Path_629-2" data-name="Path 629" d="M.034,0H.572c1.267,1.114-.422,3.61,2,4.148.346,1.229.653,2.42,1,3.61a.576.576,0,0,1-.96,0C2.608,4.878-.35,3,.034,0Z" transform="translate(212.129 111.997)" fill="#fe5182" fill-rule="evenodd"/>
          <path id="Path_630-2" data-name="Path 630" d="M.356,0h.96c.192.845.422,1.69.615,2.573s0,.73,0,1.075H1.393C1.2,2.381-.8,1.613.356,0Z" transform="translate(214.381 119.755)" fill="#fe4e5f" fill-rule="evenodd"/>
          <path id="Path_631-2" data-name="Path 631" d="M1.043.178c.346.653,0,1.037-.615,1.114H.044C-.033.409-.148-.359,1.043.178Z" transform="translate(186.809 69.992)" fill="#fdc8db" fill-rule="evenodd"/>
          <path id="Path_632-2" data-name="Path 632" d="M0,0H1.037V1.383Z" transform="translate(190.425 74.78)" fill="#ffbbd1" fill-rule="evenodd"/>
          <path id="Path_633-2" data-name="Path 633" d="M0,0A6.11,6.11,0,0,1,.5.5,6.11,6.11,0,0,0,0,0Z" transform="translate(211.242 110.998)" fill="#fe5182" fill-rule="evenodd"/>
          <path id="Path_634-2" data-name="Path 634" d="M0,0,.538.5Z" transform="translate(211.626 111.459)" fill="#fe5182" fill-rule="evenodd"/>
          <path id="Path_635-2" data-name="Path 635" d="M1,8.834C2,5.723.154,2.957,0,0,1.575,5.953,7.259,9.371,9.333,15.017a.691.691,0,0,0-.269,0,16.325,16.325,0,0,0-1.959.538c-1.267-.307-1.767-1.383-2.458-2.3Z" transform="translate(181.13 29.651)" fill="#ff444f" fill-rule="evenodd"/>
          <path id="Path_636-2" data-name="Path 636" d="M5.13,9.179V12.29c-.346-.691-.653-1.383-1-2.036s-.538-2.5-1.536-3.38a1.575,1.575,0,0,1-.615,0,1.229,1.229,0,0,1-.5-.384,1.152,1.152,0,0,1,0-.576c0-.461-.461-.768-.538-1.191S.291,4.148.06,3.764a1.8,1.8,0,0,1,0-.653C.6,2.112-.516.96.329,0h0C2.4,1.344,4.823,2.343,5.476,5.147Z" transform="translate(190.48 44.937)" fill="#ff4d50" fill-rule="evenodd"/>
          <path id="Path_637-2" data-name="Path 637" d="M0,0,2.573,2.074a1.805,1.805,0,0,1,1.306,2.3l-.269.307C-.038,4.993,1.421,1.421,0,0Z" transform="translate(185.777 43.247)" fill="#f91355" fill-rule="evenodd"/>
          <path id="Path_638-2" data-name="Path 638" d="M.253,1.229,1.943,0a5.281,5.281,0,0,0,.23,1.882v3L.6,2.765A.958.958,0,0,1,.253,1.229Z" transform="translate(192.285 50.314)" fill="#fe3a6c" fill-rule="evenodd"/>
          <path id="Path_639-2" data-name="Path 639" d="M1.525,1.2l.461,1.536C-.28,2.967-.318,1.815.45.2.45-.067.8-.067.987.2a1.882,1.882,0,0,0,0,.461l.461.5Z" transform="translate(191.012 50.343)" fill="#fa1255" fill-rule="evenodd"/>
          <path id="Path_640-2" data-name="Path 640" d="M1.075,1.6,0,.105H0c.576-.269.807,0,1.037.538h0a.73.73,0,0,1,.038.96Z" transform="translate(189.388 47.827)" fill="#f91355" fill-rule="evenodd"/>
          <path id="Path_641-2" data-name="Path 641" d="M0,1V0L1,1.037c0,.23-.346.23-.5,0Z" transform="translate(190.463 48.432)" fill="#ff4063" fill-rule="evenodd"/>
          <path id="Path_642-2" data-name="Path 642" d="M0,0H.5l.538,1.075H.5C.346.538.154.538,0,0Z" transform="translate(190.963 49.469)" fill="#fe3a6c" fill-rule="evenodd"/>
          <path id="Path_643-2" data-name="Path 643" d="M2.112,4.317,1.075,3.779C.73,2.934.384,2.051,0,1.206.23-.753,1.229.13,2.112.706,2.228,2.051,3.994,3.088,2.112,4.317Z" transform="translate(188.351 44.115)" fill="#ff4063" fill-rule="evenodd"/>
          <path id="Path_644-2" data-name="Path 644" d="M.461.5,0,0Z" transform="translate(192.038 51.005)" fill="#fe3a6c" fill-rule="evenodd"/>
        </g>
      </g>
    </g>
  </g>
</svg>
