<svg xmlns="http://www.w3.org/2000/svg" xmlns:xlink="http://www.w3.org/1999/xlink" viewBox="0 0 289.87 307.07"><defs><style>.cls-1{fill:#e8937c;}.cls-2{fill:#f5a98d;}.cls-3{fill:#efeeee;}.cls-4{fill:#fbddde;}.cls-5{fill:#b25a5a;}.cls-6{fill:#ee7677;}.cls-7{fill:url(#radial-gradient);}.cls-8{fill:#8f4446;}.cls-9{fill:#acdef9;}.cls-10{fill:#fdcf80;}.cls-11{fill:#e88175;}.cls-12{fill:#f5a58f;}.cls-13{fill:#201811;}.cls-14{fill:#f6b09c;}.cls-15{fill:#f7b49e;}.cls-16{fill:#6e262e;}.cls-17{fill:#17110a;}.cls-18{fill:#251d1a;}.cls-19{fill:#2c2620;}.cls-20{fill:#2b221c;}.cls-21{fill:#362c28;}</style><radialGradient id="radial-gradient" cx="-4535.33" cy="43.37" r="4.38" gradientTransform="matrix(-1, 0, 0, 1, -4363.42, 0)" gradientUnits="userSpaceOnUse"><stop offset="0" stop-color="#f29183"/><stop offset="1" stop-color="#f5a98d"/></radialGradient></defs><title>First Dating</title><g id="Layer_2" data-name="Layer 2"><g id="Capa_1" data-name="Capa 1"><path class="cls-1" d="M190,116.77c-.53,2.91-2.53,5.65-5.16,5.65h0c-2.62,0-4-2.55-4.76-5.38a83.67,83.67,0,0,1-2.27-17.51c0-4.78.33-13.51,1.47-18.66.63-2.89,1.95-5.62,5.64-5.62,3.32,0,5.35,2.48,5.94,5.37,1.22,6,1.1,12.89,1.1,17.94A104.56,104.56,0,0,1,190,116.77Z"/><path class="cls-1" d="M189.22,119.07s-11.21,20.62-27.6,37.19L158,154.13s12.69-26,23-39.88c0,0,3.05-3.28,6.42-1.31C190.3,114.62,189.22,119.07,189.22,119.07Z"/><path class="cls-1" d="M158,154.13s-7.47,4.81-9.25,16.66c-.14,1,0,3,1.57,2.91.79,0,1.53-.48,2.93-2.06a31.2,31.2,0,0,0,3.46-5.11c-.3,1.76-.77,4.49.35,4.53,1.72.06,2.38-9.06,3.63-12.5a10,10,0,0,1,.94-2.3Z"/><path class="cls-2" d="M180.93,299.89s4.83-3.28,8.26-12.81l-1.87-23.77,11.76.05-.74,19.11-10.71,17.61S179.09,306.24,180.93,299.89Z"/><path class="cls-3" d="M198.34,282.62s-7.76,10.8-11,15.21a27.66,27.66,0,0,1-3.06,3.13c-1.5,1.42-3.7.51-3-1.35,0,0-3.39,2.72-6.5,3-.93.08-2.45.91-2.45,2.1,0,.95.51,2.17,2.81,2.17,1.71,0,8.68.07,11.48,0,2.06-.05,4.25-2.07,6-4.66,2.32-3.52,6-10.36,6-10.36v15.23h1.81v-8.6c0-1.63,3.14-5.21,3.14-9.53A6.26,6.26,0,0,0,198.34,282.62Z"/><path class="cls-2" d="M152.13,299.89s4.84-3.28,8.26-12.81l-1.87-23.77,11.76.05-.74,19.11-10.7,17.61S150.28,306.24,152.13,299.89Z"/><path class="cls-3" d="M169.54,282.62s-7.75,10.8-11,15.21a26.73,26.73,0,0,1-3.06,3.13c-1.5,1.42-3.7.51-3-1.35,0,0-3.39,2.72-6.5,3-.94.08-2.46.91-2.46,2.1,0,.95.51,2.17,2.82,2.17,1.71,0,8.67.07,11.47,0,2.07-.05,4.25-2.07,5.95-4.66,2.33-3.52,6-10.36,6-10.36v15.23h1.81v-8.6c0-1.63,3.13-5.21,3.13-9.53A6.26,6.26,0,0,0,169.54,282.62Z"/><path class="cls-4" d="M173.7,140s-39.51,39.85-46.08,124.14c-.61,7.86-1,16.15-1,24.88,0,0,25.51,12.55,64.12,12.34,25.48-.13,75-5.58,99.08-21.61,0,0-22.38-5.32-25.73-24.28a247.18,247.18,0,0,0-22.42-66.51c-11.54-22.67-29.94-41.36-44.86-49.06Z"/><path class="cls-2" d="M164,85h0a72,72,0,0,1,8.93-9.29,16.65,16.65,0,0,0,6.34-11c0-1.4-.07,0-.09-2.82a29.8,29.8,0,0,0-2.35-10.07l16.38-2.37s-1.59,4-1.11,7c.8,5,.92,9.09,4,14.27,2.64,4.45,5.06,13,5.06,15.31v.5H164V85Z"/><path class="cls-4" d="M196.7,139.88l-23.12.1L170,101.78c-9.8-6.93-6.4-16.61-6.4-16.61h37.75a45.73,45.73,0,0,1-.52,19.07C194.74,127.67,195,137.72,196.7,139.88Z"/><path class="cls-2" d="M162,35.15c-.26,3.53-1.6,5.12-3.21,6.32-.67.5-.65,1.31-.06,1.47,1.53.4,1.87,2.14,2,2.9.2,1.16.93,1.26.82,2.14,0,.37.5,1.16.35,1.4-.26.49-.57,1.08,0,1.35,0,0,.9.62.62,3.15-.25,2.22,2.58,3.61,5.66,2.93,1.89-.41,10.14-2.41,12.12-2.88a103,103,0,0,0,12.16-3.28,28.45,28.45,0,0,0,4.4-3.36c7.06-4.82,11.12-23.06-5-32.94-4.17-2.54-15.71-1.72-22.83,1.41a11.08,11.08,0,0,0-6.72,7.68c-1.21,3.94-.51,8.23-.31,10.59Z"/><path class="cls-5" d="M163,31.32a8.56,8.56,0,0,1,1.53-.42,9.62,9.62,0,0,1,3.36,0,6.57,6.57,0,0,1,1.7.49,6,6,0,0,1,1.37.67l1.2.85a.25.25,0,0,1,.06.34.24.24,0,0,1-.31.08l0,0-1.24-.6a5.32,5.32,0,0,0-1.31-.41,5.89,5.89,0,0,0-1.53-.18,7.93,7.93,0,0,0-2.81.47,7.2,7.2,0,0,0-1.14.52,1,1,0,0,1-.83-1.76Z"/><path class="cls-4" d="M161.26,47.52a6.48,6.48,0,0,0,.42,2.39l3.85-2Z"/><path class="cls-6" d="M160.6,45.84c.39-.07.69,0,1.57.38a17.46,17.46,0,0,0,4.48.87c.31,0,.43.38.17.48a8.35,8.35,0,0,1-6.25,0s-.95-.47-.72-1.12A.86.86,0,0,1,160.6,45.84Z"/><path class="cls-6" d="M160.82,49.64c.27-.29.56-.4,1.5-.59a17,17,0,0,0,4.18-1.85c.26-.17.56.07.41.3a8.34,8.34,0,0,1-5.12,3.59s-1,.17-1.23-.49A.85.85,0,0,1,160.82,49.64Z"/><path class="cls-7" d="M167.14,45.29c.7,1.76,3.41,2.32,6.05,1.25s4.22-3.35,3.51-5.11-3.42-2.3-6.07-1.24S166.42,43.54,167.14,45.29Z"/><path class="cls-8" d="M163.06,23.49l0-.06a5.26,5.26,0,0,0,1-.4c3.8-2.07,7.24,3.36,10.15,8,4.07,6.55,9.05,6,13.66,5.7a19.7,19.7,0,0,0-.37,8.08,7.18,7.18,0,0,0,4.34,5.2,9.54,9.54,0,0,0,.56,1.21A12.46,12.46,0,0,0,193.59,53a14.26,14.26,0,0,0,3,2.7,14.58,14.58,0,0,1-2.62-3,10.85,10.85,0,0,1-.9-1.72c-.07-.15-.11-.31-.17-.46a8,8,0,0,0,.9.85,9,9,0,0,0,2,1.23A8.62,8.62,0,0,1,194.15,51a7.82,7.82,0,0,1-.75-1.15,9,9,0,0,0,.94-.41,8.42,8.42,0,0,0,7.36,5.19c2.76.11,4.11-1.19,4.77-2.58a5.21,5.21,0,0,0,1.69-1,7.32,7.32,0,0,0,1.77-2.41c2.12-.55,4.58-2.18,4.15-6.94-.27-3.07-1.75-4.44-2.81-5a4.73,4.73,0,0,0-.41-2.45,7.12,7.12,0,0,0-1.54-2.09,7.18,7.18,0,0,0-1.73-2.93,6.58,6.58,0,0,0-4.93-1.74C199.9,17.1,188.23,7.27,169.31,14.87a16.73,16.73,0,0,0-4.05,2.26c-.08.06-4,2.65-5.63,2.72S158.58,24.94,163.06,23.49Zm47.08,12.75a16.69,16.69,0,0,0-.39-2.6,5.84,5.84,0,0,1,.68.81,4.49,4.49,0,0,1,.7,2.16A4,4,0,0,0,210.14,36.24Zm-3.46,15.31a7.46,7.46,0,0,0,.42-2.69,8.29,8.29,0,0,0,1.08,0,6.28,6.28,0,0,1-.66,1.62A4.62,4.62,0,0,1,206.68,51.55Z"/><path class="cls-4" d="M200.91,27.4c0-.2.57-.36,1.26-.36l.37,0-.27-.24c-.49-.5-.78-1-.63-1.15s.64.15,1.13.64l.25.27c0-.12,0-.24,0-.36,0-.7.15-1.26.35-1.26s.36.56.36,1.26c0,.12,0,.24,0,.36l.24-.27c.49-.49,1-.78,1.14-.64s-.14.65-.63,1.15l-.27.24.36,0c.7,0,1.26.16,1.26.36s-.56.36-1.26.36l-.36,0a3.08,3.08,0,0,1,.27.25c.49.49.77,1,.63,1.14s-.65-.15-1.14-.64l-.24-.27c0,.12,0,.24,0,.37,0,.69-.16,1.25-.36,1.25s-.35-.56-.35-1.25c0-.13,0-.25,0-.37l-.25.27c-.49.49-1,.78-1.13.64s.14-.65.63-1.14a3.08,3.08,0,0,1,.27-.25l-.37,0C201.48,27.76,200.91,27.6,200.91,27.4Z"/><path class="cls-4" d="M200.3,32.94c-.11-.16.23-.57.75-.94l.28-.18a1.86,1.86,0,0,1-.33,0c-.63-.11-1.11-.34-1.08-.52s.57-.23,1.19-.13l.33.08-.21-.27c-.37-.52-.54-1-.4-1.13s.57.23.94.75a2.29,2.29,0,0,1,.18.29,2.09,2.09,0,0,1,0-.34c.11-.62.34-1.11.52-1.07s.23.56.13,1.18c0,.12,0,.23-.07.33a1.46,1.46,0,0,1,.27-.2c.51-.37,1-.55,1.12-.4s-.23.56-.75.93l-.28.18.33,0c.62.11,1.11.34,1.08.52s-.56.24-1.19.13l-.34-.07a2.75,2.75,0,0,1,.22.26c.36.52.53,1,.39,1.13s-.56-.23-.93-.75a3.23,3.23,0,0,1-.18-.28c0,.11,0,.22,0,.33-.11.63-.34,1.11-.52,1.08s-.24-.56-.13-1.19c0-.11,0-.22.08-.33l-.27.21C200.91,32.9,200.41,33.08,200.3,32.94Z"/><path class="cls-4" d="M204.41,31.28c-.08-.11.17-.42.56-.7l.21-.13-.24,0c-.48-.08-.84-.26-.81-.39s.41-.18.88-.1l.25.06-.16-.2c-.28-.39-.4-.77-.29-.85s.42.18.7.57l.14.21a2.11,2.11,0,0,1,0-.25c.08-.47.26-.84.39-.81s.18.42.1.89a1.44,1.44,0,0,1,0,.24,1.73,1.73,0,0,1,.2-.15c.38-.27.76-.41.84-.29s-.18.42-.57.69l-.2.14a1,1,0,0,1,.24,0c.47.08.84.25.82.38s-.43.19-.9.1l-.25-.05a1.56,1.56,0,0,1,.16.2c.28.39.41.77.29.84s-.41-.17-.69-.56a1.28,1.28,0,0,1-.14-.21,1.13,1.13,0,0,1,0,.25c-.08.47-.25.83-.38.81s-.19-.42-.11-.9l.06-.24-.2.15C204.86,31.26,204.48,31.39,204.41,31.28Z"/><path class="cls-4" d="M198.18,30.23c-.1-.14.21-.53.71-.88a1.45,1.45,0,0,1,.26-.17l-.31,0c-.59-.1-1-.32-1-.49s.52-.22,1.11-.12l.31.07c-.06-.08-.13-.16-.19-.25-.35-.49-.51-1-.37-1.06s.53.22.87.7l.18.27c0-.1,0-.2,0-.31.1-.59.32-1.05.48-1s.23.54.13,1.12a2.82,2.82,0,0,1-.07.31l.25-.19c.49-.35,1-.52,1.06-.37s-.22.52-.71.87l-.26.17.31,0c.59.1,1,.32,1,.49s-.53.22-1.12.12l-.31-.07c.06.08.13.16.19.25.35.48.52,1,.37,1.06s-.53-.22-.87-.71a1.92,1.92,0,0,1-.17-.26c0,.1,0,.2,0,.31-.09.59-.31,1-.49,1s-.22-.53-.12-1.12a2.82,2.82,0,0,1,.07-.31l-.25.19C198.75,30.2,198.28,30.36,198.18,30.23Z"/><path class="cls-4" d="M199.08,26.61c-.07-.1.16-.38.51-.63l.21-.13-.24,0c-.43-.07-.76-.24-.74-.36s.39-.15.81-.08l.23,0-.14-.17c-.25-.36-.37-.7-.27-.78s.39.16.64.52l.12.19a1,1,0,0,1,0-.23c.07-.43.24-.76.36-.73s.16.38.08.81a1.43,1.43,0,0,1,0,.22l.18-.14c.35-.25.7-.37.77-.27s-.16.39-.51.64l-.2.12.23,0c.43.08.76.24.74.36s-.39.16-.81.09l-.23,0,.14.18c.25.36.37.7.27.77s-.39-.16-.64-.51l-.12-.2a2,2,0,0,1,0,.23c-.08.43-.24.76-.36.74s-.16-.38-.09-.82a1.42,1.42,0,0,1,0-.22l-.18.14C199.5,26.59,199.15,26.72,199.08,26.61Z"/><path class="cls-4" d="M204.71,28.07c-.08-.11.18-.43.56-.7l.22-.14-.25,0c-.48-.08-.84-.26-.82-.39s.43-.19.9-.1a1,1,0,0,1,.25.06l-.16-.21c-.28-.39-.41-.77-.29-.85s.42.17.7.56l.13.22,0-.25c.09-.47.26-.84.4-.82s.18.43.09.9a1.84,1.84,0,0,1-.05.25l.2-.16c.4-.27.78-.41.86-.3s-.18.43-.57.71a1.64,1.64,0,0,1-.22.14,1.09,1.09,0,0,1,.26,0c.47.08.84.25.81.39s-.42.18-.89.1l-.26-.05c0,.06.11.12.16.19.28.39.41.78.3.86s-.43-.18-.7-.57l-.14-.22a2.3,2.3,0,0,1,0,.26c-.09.47-.26.84-.4.81s-.17-.43-.09-.9a1.69,1.69,0,0,1,0-.24l-.2.15C205.17,28.05,204.78,28.18,204.71,28.07Z"/><path class="cls-2" d="M184.36,36.84c-1.25,1.68-1.28,3.77-.08,4.67s3.2.25,4.44-1.43,1.3-3.77.09-4.66S185.62,35.16,184.36,36.84Z"/><path class="cls-4" d="M184.62,41.26a1.21,1.21,0,0,0,2.42,0,1.21,1.21,0,1,0-2.42,0Z"/><path class="cls-2" d="M176.36,117.81c-1.68,2.43-4.63,4.11-7,3h0c-2.4-1.08-2.58-4-2.12-6.85a83.29,83.29,0,0,1,5.12-16.9c1.93-4.38,5.85-12.19,9-16.41,1.76-2.37,4.08-4.32,7.45-2.79,3,1.35,3.87,4.44,3.21,7.33-1.35,6-4.29,12.19-6.38,16.8A103.08,103.08,0,0,1,176.36,117.81Z"/><path class="cls-4" d="M173.77,75.86a1,1,0,0,1-1,1,1,1,0,0,1,0-2A1,1,0,0,1,173.77,75.86Z"/><path class="cls-4" d="M175.82,75.6a1,1,0,1,1-1-1A1,1,0,0,1,175.82,75.6Z"/><path class="cls-4" d="M177.87,75.13a1,1,0,0,1-2.05,0,1,1,0,1,1,2.05,0Z"/><path class="cls-4" d="M179.8,74.57a1,1,0,1,1-1-1A1,1,0,0,1,179.8,74.57Z"/><path class="cls-4" d="M181.78,73.93a1,1,0,1,1-1-1A1,1,0,0,1,181.78,73.93Z"/><path class="cls-4" d="M183.71,73.16a1,1,0,0,1-2.07,0,1,1,0,0,1,2.07,0Z"/><path class="cls-4" d="M185.41,72.17a1,1,0,1,1-1-1A1,1,0,0,1,185.41,72.17Z"/><path class="cls-4" d="M187.08,71.19a1,1,0,1,1-1-1A1,1,0,0,1,187.08,71.19Z"/><path class="cls-4" d="M188.75,70.08a1,1,0,0,1-2.05,0,1,1,0,1,1,2.05,0Z"/><path class="cls-4" d="M190.21,68.75a1,1,0,1,1-1-1A1,1,0,0,1,190.21,68.75Z"/><path class="cls-4" d="M191.62,67.55a1,1,0,1,1-1-1A1,1,0,0,1,191.62,67.55Z"/><path class="cls-4" d="M193.2,66.39a1,1,0,1,1-1-1A1,1,0,0,1,193.2,66.39Z"/><path class="cls-4" d="M194.66,65a1,1,0,1,1-1-1A1,1,0,0,1,194.66,65Z"/><path class="cls-2" d="M175,113.72c-10.48-13.76-32.7-34-32.7-34L138,82.86s18,29.15,28.43,38.21c1.53,1.33,5.64,1.48,8.06-.81C177.26,117.56,175,113.72,175,113.72Z"/><path class="cls-9" d="M130.79,93.42c2.59-.22,4.35-1.52,4.09-4.55-.39-4.62-2.16-24.29-2.16-24.29l1.87-.15s1.76,19.66,2.15,24.28c.28,3.18,3.13,3.93,5.51,3.74l1.66-.15.11,1.41L128.54,95l-.12-1.4Z"/><path class="cls-9" d="M138.22,38l1.67,19.64c.32,3.73-.68,8.43-6,8.89-4.7.4-7.15-4-7.46-7.75l-1.67-19.64Z"/><path class="cls-10" d="M137.45,46.55l1,11.72c.24,2.91-.56,6.25-4.76,6.61-3.66.31-5.54-2.81-5.8-5.72l-1-11.72Z"/><path class="cls-2" d="M141.48,79c-2.38-2.32-6.51-9.49-7.87-8.77-.9.47.56,2.51,1.48,3.83-.92-.63-1.6-.66-1.71-2,0,0-2-.4-2,2.94,0,4.78,1.34,4.87,1.34,4.87A19.41,19.41,0,0,0,141,83.69l2.13-3.16A8.52,8.52,0,0,1,141.48,79Z"/><path class="cls-11" d="M163.45,36c.35-1.33,1.56-2.53,4-2.12A3.58,3.58,0,0,1,170,37.47a11.89,11.89,0,0,0-3.13-1.53A6.76,6.76,0,0,0,163.45,36Z"/><path class="cls-8" d="M171.4,36.89a3.11,3.11,0,0,1-2.4-.62,4.28,4.28,0,0,0-5.81-.16l.95-.09a1.2,1.2,0,0,0-.33.64,1.26,1.26,0,0,0,2.49.35,1.22,1.22,0,0,0-.35-1,6.11,6.11,0,0,1,.86.09A8,8,0,0,1,170,37.74a3,3,0,0,0-.35-.69A2.71,2.71,0,0,0,171.4,36.89Z"/><polygon class="cls-12" points="106.17 79.12 96.78 87.37 91.04 76.43 102.58 70.98 106.17 79.12"/><polygon class="cls-4" points="97.62 87.19 103.18 83.13 98.15 72.26 92.67 75.12 97.62 87.19"/><path class="cls-13" d="M18.17,70.48c.63,3.56,2.43,7.74,5.29,13.58,9.62,19.62,27.57,34,27.57,34l9.22-14.35S53.37,87.61,42.06,74.88A101.67,101.67,0,0,0,28.45,63.19C23.6,59.83,16.69,62.08,18.17,70.48Z"/><path class="cls-13" d="M51.12,101.59S81.84,79.81,93.55,74.38l5,12.69A175.73,175.73,0,0,1,65.09,115c-3.1,2-9.27,5.5-14.11,3C47.31,116.1,51.12,101.59,51.12,101.59Z"/><path class="cls-12" d="M101.74,71.71s1.61-2.71,3.17-3.41a15.3,15.3,0,0,1,7.57-1.14l.33,5.92s-.15,4.93-1.53,5.41a35.54,35.54,0,0,1-5.86.69Z"/><path class="cls-9" d="M113.76,90.53c-2.59-.25-4.34-1.57-4-4.6.44-4.61,2.43-24.26,2.43-24.26l-1.88-.18s-2,19.65-2.42,24.26c-.31,3.18-3.17,3.9-5.54,3.68l-1.66-.16-.13,1.4L116,92.15l.13-1.4Z"/><path class="cls-9" d="M107,35.06l-1.89,19.63c-.36,3.72.58,8.44,6,9,4.69.45,7.19-3.93,7.55-7.66l1.88-19.62Z"/><path class="cls-10" d="M107.62,43.58l-1.13,11.71c-.28,2.91.49,6.26,4.68,6.67,3.66.35,5.58-2.75,5.86-5.66l1.12-11.71Z"/><path class="cls-14" d="M112.39,67.1a4,4,0,0,1-2.15,2.22c-1.5.47-3.62.23-4.39,1.25s-.91,10,5.91,7.8c4.19-1.32,2.65-7.87,2.42-9A3,3,0,0,0,112.39,67.1Z"/><path class="cls-15" d="M58.25,33.19a11.05,11.05,0,0,1-2-2.69c-.44-.79-.91-1.72-1.55-2.9a5.83,5.83,0,0,1,0-1.11c.19-2.27,1.05-6.41-.2-10.16,1-4.52-2.34-8.62-3.37-9.44-12-9.58-27.34-3.13-28.57-2.61,0,0-10.85,3.42-10.85,14,0,9.43,2.82,17.18,7.18,20.47A34.46,34.46,0,0,1,18.85,45c-.18,3.39-2.53,18.2-2.53,18.2H38.93c-1.15-2.73,2.34-13,4.15-14,.75-.44,5.13-.24,5.5-.16,3.05.67,5.84-.71,5.6-2.9a6.82,6.82,0,0,1,0-1.84c.3-.71.79-.84,1.06-1.37.12-.24,0-.39-.26-.49a15.81,15.81,0,0,0,.64-3.19c.65-.12.65-.58.51-.85A6.12,6.12,0,0,1,55.9,37c0-.9,0-2.21,1.28-2.21C59.57,34.82,58.76,33.69,58.25,33.19Z"/><path class="cls-16" d="M22.12,3.78c.17-1.41-1.46-1.52-1.46-1.52,1.36-.45,3.21,1,3.21,1C23.53,1.81,25.55,0,25.55,0a2,2,0,0,0,0,2.64c8.26-4.6,19.59-3.14,26.19,3.82a31.3,31.3,0,0,1,3.2,5.68c.18.44.36.89.5,1.32a5.73,5.73,0,0,0,2.77-1.89s-.2,6.65-4.85,6.73c-2.71.24-6.16-1.84-9.24-3.11-5.84-2.43-9.13.12-10,4.89-.64,3.37-.68,4.24-1.45,8.64-.29,1.66-.38,2.11-.76,4.5-.11.68-1.05.46-1.83.46-1,0-.91-1.2-1-1.54a6.34,6.34,0,0,0-3.57-5.26c-1.59-.71-2.22-.14-2.81.57-1.4,1.7.23,3.78,2.11,6.8,1.38,2.24-3.38,5.27-5.85,5.27-1.79,0-8.08-11.68-8.08-21.2C10.88,7.32,22.12,3.78,22.12,3.78Z"/><path class="cls-15" d="M28.17,29.21c1.19,2.26.94,4.6-.56,5.24s-3.66-.67-4.84-2.93-.94-4.6.55-5.24S27,27,28.17,29.21Z"/><path class="cls-8" d="M52.13,24.28A4.6,4.6,0,0,0,50.84,24a5.12,5.12,0,0,0-1.29-.09L48,24.1a11.12,11.12,0,0,0-2.86.83l-1.31.47,0,0a.22.22,0,0,1-.28-.13.22.22,0,0,1,.1-.27l1.26-.67A11.8,11.8,0,0,1,47.75,23l1.7-.42A6.6,6.6,0,0,1,51,22.5a5.47,5.47,0,0,1,1.49.08l.14,0a.88.88,0,0,1-.43,1.7Z"/><path class="cls-4" d="M48.92,38.21s-.54-.19-.41.35,4,3.65,6.49,3.85c0,0,.09-.24.09-.25a12.35,12.35,0,0,0,.54-2.89C55.33,39.32,51.51,39.82,48.92,38.21Z"/><path class="cls-17" d="M1,293l17.6-.06c.62,1.18,3,5.76,7.24,5.75l7.62,0c5.74,0,6.37,4.76,6.58,8.26L15.61,307,14,305.56,12.79,307,1.05,307Z"/><path class="cls-18" d="M40.34,153.8,32,220.21,26.61,297.9,0,295.59l7.92-76.23.26-27.77a163,163,0,0,1,.53-16.43c-5.43-7.59-3-22-2.3-25.09Z"/><path class="cls-18" d="M20.2,293H37.82c.6,1.17,3,5.77,7.21,5.77h7.61c5.74,0,6.37,4.78,6.56,8.28H34.76l-1.65-1.42-1.17,1.42H20.2Z"/><path class="cls-19" d="M43.56,154.55l-2.34,66.92,1.41,77.06H16.84l.35-75.65-3.67-29.94c-.89-6.13-2.69-13-2.69-13-6.12-7-5.08-22.21-4.69-25.38Z"/><polygon class="cls-4" points="18.27 43.24 41.56 54.5 38.8 59.95 18.27 49.16 18.27 43.24"/><path class="cls-20" d="M9.17,114.9V72c0-11.66,9.06-22.82,9.06-22.82L38.91,59.91S46,70.19,46,79.87v82.85c-4,.42-36.59,3.65-44.81-2.08C1.22,160.64,9.17,128.44,9.17,114.9Z"/><path class="cls-21" d="M16.07,52.25l2-6.57L38.91,59.91a38.51,38.51,0,0,1,7.19,25V105L35.7,71.65,39,68.39l-4.7.69Z"/><path class="cls-21" d="M21.64,72.94c-2.42,2.68-3.47,7.72-4.83,14-4.78,22.08-3,36.53-3,36.53l16.25,1s2.51-12.4,4.48-30.14c.5-4.45.78-14.55,0-17.9C33.34,70.67,27.33,66.61,21.64,72.94Z"/><path class="cls-15" d="M25.87,174.48s-.07,12.94,5.83,17.65c1.25,1,3.66.89,4.34-.95.82-2.26.27-4.66.31-6.64,0-.8,1.2-.28,1.5.53s.66,1.44,1.12,1.44c1,0,1.07-1.94,1-3.32-.13-2.51-3.24-8.68-5.52-11.27Z"/><rect class="cls-4" x="23.73" y="169.25" width="12.79" height="5.82" transform="translate(-43.02 13.43) rotate(-14.82)"/><path class="cls-21" d="M29.43,122.36c1.3,4.9,6.23,34.39,7.49,47.18l-13.75,4c-6.3-32.95-6.91-33.5-9.49-47.08-.68-3.63.63-9.33,6.09-10.36C22.43,115.63,28.53,119,29.43,122.36Z"/><path class="cls-8" d="M51.83,26.59l.87-.09a3.34,3.34,0,0,0-3.31-.33A3.65,3.65,0,0,0,48,27.26a3.48,3.48,0,0,0-.68,1.55,9.4,9.4,0,0,1,2.44-1.73.38.38,0,0,0,.1,0,1.18,1.18,0,0,0-.11.5,1.24,1.24,0,0,0,1.29,1.19,1.25,1.25,0,0,0,1.26-1.23A1.19,1.19,0,0,0,51.83,26.59Z"/></g></g></svg>