<svg xmlns="http://www.w3.org/2000/svg" xmlns:xlink="http://www.w3.org/1999/xlink" viewBox="0 0 364.37 697.23"><defs><style>.cls-1{fill:#f4a38e;}.cls-2{fill:#fbddde;}.cls-3{fill:#201811;}.cls-4{fill:#e8937c;}.cls-5{fill:#ec665e;}.cls-6{fill:none;stroke:#ea7872;stroke-miterlimit:10;stroke-width:1.25px;}.cls-7{fill:#f29797;}.cls-8{fill:#f8c3c5;}.cls-9{fill:#f5a98d;}.cls-10{fill:#efeeee;}.cls-11{fill:#b25a5a;}.cls-12{fill:#ee7677;}.cls-13{fill:#e88175;}.cls-14{fill:url(#radial-gradient);}.cls-15{fill:#8f4446;}.cls-16{fill:#f7b49e;}.cls-17{fill:#6e262e;}.cls-18{fill:#17110a;}.cls-19{fill:#251d1a;}.cls-20{fill:#2c2620;}.cls-21{fill:#261e18;}.cls-22{fill:#302723;}.cls-23{fill:#362c28;}</style><radialGradient id="radial-gradient" cx="-3678.75" cy="-530.99" r="4.73" gradientTransform="matrix(-0.85, -0.53, -0.53, 0.85, -3166.25, -1085.77)" gradientUnits="userSpaceOnUse"><stop offset="0" stop-color="#f29183"/><stop offset="1" stop-color="#f5a98d"/></radialGradient></defs><title>First met</title><g id="Layer_2" data-name="Layer 2"><g id="Capa_1" data-name="Capa 1"><path class="cls-1" d="M161.07,403.71s.3-14,6.84-18.95c1.39-1.05,4-.84,4.67,1.16.83,2.47.15,5,.15,7.2,0,.86,1.28.34,1.63-.53s.76-1.53,1.25-1.51c1.14,0,1.1,2.11,1,3.61-.22,2.72-3.77,9.3-6.3,12Z"/><rect class="cls-2" x="161.74" y="398.98" width="6.31" height="13.87" transform="translate(-272.94 389.78) rotate(-65.78)"/><path class="cls-3" d="M79.63,443.44c2.94,2.59,7.27,4.9,13.62,7.89,21.36,10.08,39.53,9.4,39.53,9.4l.85-17.61s-15.32-9.14-33.46-12.25a82.41,82.41,0,0,0-16.79-.52C77,430.79,72.71,437.35,79.63,443.44Z"/><path class="cls-3" d="M132.48,442.39s-.14.65,10.19-14.38c4.7-6.86,6.92-12.1,14.57-23.73l14.32,6c-17.13,32.06-17.18,31.8-24.26,45-1.88,3.52-6.51,5.81-15.68,5.42Z"/><path class="cls-4" d="M212.87,447.33c-2.69-1.71-4.63-4.83-3.56-7.46h0c1.07-2.63,4.17-3,7.32-2.58a91,91,0,0,1,18.46,4.85c4.8,1.91,13.4,5.82,18.08,9.05,2.63,1.81,4.83,4.24,3.33,7.94-1.35,3.32-4.65,4.35-7.79,3.76-6.48-1.21-13.35-4.13-18.41-6.19A113.41,113.41,0,0,1,212.87,447.33Z"/><path class="cls-4" d="M210.87,445.64s-16.09-19.62-26-42.75l3.6-2.77S209.34,423.4,219,439.37c0,0,2,4.39-1.29,7C214.89,448.53,210.87,445.64,210.87,445.64Z"/><path class="cls-4" d="M188.47,400.12s-1.78-9.43-12.91-16c-.89-.53-3-1.23-3.55.4-.28.8-.15,1.72.87,3.77a33.38,33.38,0,0,0,3.7,5.53c-1.63-1-4.17-2.59-4.67-1.48-.76,1.68,8.1,6.06,11,8.71a11.23,11.23,0,0,1,1.92,1.88Z"/><path class="cls-5" d="M235.85,31.28a31.28,31.28,0,0,0-62.18-4.83,31.29,31.29,0,1,0-56.32,23.08h0L172,107.44c-1.12,2.57-1.83,5.82-.11,8.36l5.18-1a37.93,37.93,0,0,1-2.58-6.67l54.06-56.83A31.15,31.15,0,0,0,235.85,31.28Z"/><path class="cls-6" d="M173.18,112.28s-10.46,56.47-3.76,79.05,6.27,69,.41,84.49-2.92,99.95,3.77,115,0,120.88-13.81,128"/><path class="cls-7" d="M289.27,57.66a31.27,31.27,0,0,0-35.62,19.63,31.29,31.29,0,1,0-58.82,13.24l41.43,66.6a37.52,37.52,0,0,1-3.88,6l4.88,2c2.19-2.16,2.15-5.47,1.58-8.22l65.29-45.63h0a31.26,31.26,0,0,0-14.84-53.64Z"/><path class="cls-6" d="M237.17,161.42s0,38.9-22,60.23-35.13,69-31.37,99.75,6,44.85-7.84,68.06S151.22,437.77,158.12,477"/><path class="cls-5" d="M344.8,115.14a31.31,31.31,0,0,0-38.57,13A31.28,31.28,0,1,0,246,130.6l28.85,72.94a37.61,37.61,0,0,1-4.9,5.23l4.45,2.83c2.55-1.72,3.09-5,3-7.79l72.41-33.22h0a31.27,31.27,0,0,0-5-55.44Z"/><path class="cls-6" d="M274,207.64S223.78,262,206.22,308.85c-5,13.37-15.06,64.41-33.46,83.65-14.75,15.42-10.88,82-3.14,105.6"/><path class="cls-5" d="M120.34,168.65a31.28,31.28,0,1,0-60.21-8.89A31.28,31.28,0,1,0,12.8,197.09l66.12,42.19a37.37,37.37,0,0,1-.91,7.1l5.27-.3c1-2.89-.42-5.86-2.12-8.09l39.19-69.35Z"/><path class="cls-6" d="M81.17,243.19s12.7,37.79,23,49.35C135.74,328,171,381.91,175.06,395.11c11,35.76-12.23,82.5-7.53,107.9"/><path class="cls-6" d="M134.28,172.09s24.47,77.16,21.34,100.37-1.26,70.26,9.4,86,11.29,25.72,7.53,34.5-16.31,74,1.88,101"/><path class="cls-2" d="M143.22,68.84A31.28,31.28,0,0,0,88,97.91,31.28,31.28,0,1,0,52.7,147.46h0l77.15,19.83c.43,2.77,1.55,5.89,4.37,7.14l3.86-3.59a38.24,38.24,0,0,1-5.75-4.27l15.45-76.9A31.18,31.18,0,0,0,143.22,68.84Z"/><path class="cls-8" d="M211.3,83.86a31.26,31.26,0,0,0-32.54,24.4,31.29,31.29,0,1,0-57.69,19.39h0L171.9,189c-1.29,2.5-2.21,5.68-.66,8.34l5.23-.63a36.63,36.63,0,0,1-2.13-6.83l57.6-53.22A31.27,31.27,0,0,0,211.3,83.86Z"/><path class="cls-6" d="M173.6,195.51s.83,32.63-2.51,51-5,45.59-3.35,76.53-2.51,47.26,5.86,65.67c2.94,6.47,10.45,43.49,6.27,62.31"/><path class="cls-6" d="M118,272.46s12.13,34.3,33.46,54.38c14.17,13.33,23.32,52.22,22.06,64.35s-3.24,31.83-1.15,38.95,6.27,32.62,0,48.09c0,0-15.47,23-13.8,38.48"/><path class="cls-8" d="M167.61,183a31.28,31.28,0,0,0-62.21,4.48,31.28,31.28,0,1,0-52.25,31.2h0l62.72,49.13c-.73,2.71-1,6,1.13,8.29l5-1.73a37.35,37.35,0,0,1-3.54-6.22l45-64.24A31.13,31.13,0,0,0,167.61,183Z"/><path class="cls-6" d="M212.07,256.57s2.51,22.59-8.36,34.3-23,29.27-21.33,48.93-1.67,39.31-9.62,53.11-6.28,67.34-1.26,92.43"/><path class="cls-2" d="M283.14,163.74a31.26,31.26,0,0,0-38.5,13.12,31.29,31.29,0,1,0-60.86.57h0l29.35,74.06c-2,2-3.86,4.72-3.2,7.73l5.16,1a37.27,37.27,0,0,1,.08-7.16l71.26-32.76a31.25,31.25,0,0,0-3.28-56.56Z"/><path class="cls-6" d="M175.27,274.14s10.46,21.33-.42,54.79-4.08,47.57-2,64.3-11.8,61.58-15.16,77.06,10.46,57.3,14.22,59.38"/><path class="cls-7" d="M236.05,189.73a31.28,31.28,0,0,0-62.27-3.41A31.29,31.29,0,1,0,118,210.67h0l56,56.65c-1.06,2.6-1.71,5.86.07,8.37l5.15-1.09a37.86,37.86,0,0,1-2.73-6.62l52.76-58A31,31,0,0,0,236.05,189.73Z"/><path class="cls-9" d="M240.92,688s5.24-3.55,8.93-13.85l-2-25.68,12.71,0-.8,20.65-11.57,19S238.93,694.87,240.92,688Z"/><path class="cls-10" d="M259.74,669.35S251.36,681,247.8,685.77a27,27,0,0,1-3.3,3.39c-1.62,1.54-4,.56-3.21-1.45,0,0-3.67,2.94-7,3.21-1,.09-2.65,1-2.65,2.27,0,1,.55,2.35,3,2.35,1.85,0,9.38.07,12.4,0,2.24,0,4.59-2.24,6.44-5,2.51-3.81,6.46-11.2,6.46-11.2v16.45h2v-9.29c0-1.75,3.38-5.63,3.38-10.29A6.76,6.76,0,0,0,259.74,669.35Z"/><path class="cls-9" d="M209.8,688s5.23-3.55,8.93-13.85l-2-25.68,12.7,0-.8,20.65-11.56,19S207.82,694.87,209.8,688Z"/><path class="cls-10" d="M228.62,669.35s-8.37,11.67-11.93,16.42a27.42,27.42,0,0,1-3.31,3.39c-1.61,1.54-4,.56-3.21-1.45,0,0-3.66,2.94-7,3.21-1,.09-2.66,1-2.66,2.27,0,1,.56,2.35,3,2.35,1.85,0,9.38.07,12.4,0,2.23,0,4.59-2.24,6.43-5,2.51-3.81,6.47-11.2,6.47-11.2v16.45h1.95v-9.29c0-1.75,3.39-5.63,3.39-10.29A6.76,6.76,0,0,0,228.62,669.35Z"/><path class="cls-2" d="M233.12,515.21s-42.7,43.06-49.8,134.15c-.65,8.48-1,17.44-1,26.87,0,0,27.56,13.57,69.28,13.35,27.53-.15,81.1-6,107.07-23.36,0,0-24.18-5.75-27.81-26.23a266.41,266.41,0,0,0-24.22-71.87c-12.46-24.5-32.35-44.69-48.47-53Z"/><path class="cls-9" d="M222.58,455.8h0v0h0a77.81,77.81,0,0,1,9.65-10,18,18,0,0,0,6.85-11.86c0-1.52-.07-.06-.09-3.06A31.91,31.91,0,0,0,236.47,420l17.7-2.57s-1.71,4.34-1.2,7.54c.87,5.43,1,9.82,4.33,15.42,2.85,4.8,5.46,14,5.46,16.54l0,.54H222.59V455.8Z"/><path class="cls-2" d="M233.29,445.78a1.11,1.11,0,1,1-.87-1.32A1.13,1.13,0,0,1,233.29,445.78Z"/><path class="cls-2" d="M235.52,445.94a1.12,1.12,0,1,1-.87-1.31A1.12,1.12,0,0,1,235.52,445.94Z"/><path class="cls-2" d="M237.8,445.88a1.11,1.11,0,1,1-2.18-.44,1.11,1.11,0,0,1,2.18.44Z"/><path class="cls-2" d="M240,445.71a1.1,1.1,0,0,1-1.3.87,1.12,1.12,0,1,1,1.3-.87Z"/><path class="cls-2" d="M242.18,445.45a1.11,1.11,0,1,1-.87-1.31A1.12,1.12,0,0,1,242.18,445.45Z"/><path class="cls-2" d="M244.39,445a1.11,1.11,0,1,1-2.18-.44,1.11,1.11,0,0,1,2.18.44Z"/><path class="cls-2" d="M246.41,444.38a1.11,1.11,0,1,1-2.17-.45,1.09,1.09,0,0,1,1.3-.87A1.11,1.11,0,0,1,246.41,444.38Z"/><path class="cls-2" d="M248.39,443.68a1.11,1.11,0,1,1-.87-1.3A1.1,1.1,0,0,1,248.39,443.68Z"/><path class="cls-2" d="M250.4,442.86a1.11,1.11,0,0,1-1.31.87,1.12,1.12,0,0,1-.88-1.3,1.14,1.14,0,0,1,1.32-.88A1.12,1.12,0,0,1,250.4,442.86Z"/><path class="cls-2" d="M252.23,441.77a1.13,1.13,0,0,1-1.32.87,1.11,1.11,0,1,1,1.32-.87Z"/><path class="cls-2" d="M254,440.8a1.11,1.11,0,1,1-.87-1.3A1.11,1.11,0,0,1,254,440.8Z"/><path class="cls-2" d="M255.91,439.92a1.12,1.12,0,0,1-2.19-.45,1.12,1.12,0,0,1,2.19.45Z"/><path class="cls-2" d="M257.75,438.74a1.11,1.11,0,0,1-1.31.86,1.09,1.09,0,0,1-.87-1.3,1.11,1.11,0,1,1,2.18.44Z"/><path class="cls-9" d="M232.89,394.82c-2.27,3.1-4.41,3.79-6.57,4-.89.08-1.35.84-.89,1.31,1.17,1.24.49,3,.18,3.82-.48,1.18.13,1.68-.47,2.43-.25.31-.21,1.35-.48,1.48-.52.3-1.13.66-.75,1.26,0,0,.48,1.08-1.23,3.24-1.49,1.9.31,4.78,3.53,5.92,2,.7,10.68,3.58,12.77,4.29a111.48,111.48,0,0,0,13,3.93,29.8,29.8,0,0,0,5.95-.58c9.23-.38,23.38-14.79,14.19-33.09-2.37-4.71-13.43-10.54-21.75-11.75a12,12,0,0,0-10.55,3.22c-3.36,2.92-5.16,7.25-6.33,9.53Z"/><path class="cls-11" d="M236,391.9a9,9,0,0,1,1.64.49,10.22,10.22,0,0,1,3.1,1.89A7.1,7.1,0,0,1,242,395.7a6.46,6.46,0,0,1,.87,1.4l.61,1.46a.26.26,0,0,1-.14.35.27.27,0,0,1-.33-.11l0-.05-.79-1.25a5.43,5.43,0,0,0-1-1.12,5.86,5.86,0,0,0-1.3-1.05,8.69,8.69,0,0,0-2.84-1.17,7.61,7.61,0,0,0-1.34-.18,1,1,0,0,1,.24-2.08Z"/><path class="cls-2" d="M225.18,405.78a7,7,0,0,0-1,2.44l4.67.35Z"/><path class="cls-12" d="M225.53,403.86c.4.16.64.39,1.22,1.25a18.83,18.83,0,0,0,3.62,3.36c.28.18.17.59-.12.54a9,9,0,0,1-5.75-3.55s-.6-1,0-1.44A.94.94,0,0,1,225.53,403.86Z"/><path class="cls-12" d="M223.55,407.47c.42-.1.75,0,1.72.32a18.38,18.38,0,0,0,4.89.69c.33,0,.48.39.21.51a9,9,0,0,1-6.75.38s-1.05-.45-.84-1.16A.93.93,0,0,1,223.55,407.47Z"/><path class="cls-13" d="M233.63,398c1-1.19,2.67-1.79,5-.36,1.95,1.22,1.71,3.4,1,4.85a12.85,12.85,0,0,0-2.49-3A7.5,7.5,0,0,0,233.63,398Z"/><path class="cls-14" d="M231.83,407.1c-.35,2,1.82,4.06,4.85,4.6s5.78-.67,6.13-2.68S241,405,238,404.41,232.19,405.08,231.83,407.1Z"/><path class="cls-15" d="M240.55,384.77l.07,0a5.11,5.11,0,0,0,1.12.16c4.67.29,4.72,7.23,4.72,13.2,0,8.33,4.89,10.61,9.26,13a21.08,21.08,0,0,0-4.94,7.2c-1.09,2.59-.17,6.06,1,7.25a13.42,13.42,0,0,0-.17,1.42,12.61,12.61,0,0,0,.11,2.22,15.65,15.65,0,0,0,1.2,4.19,15.64,15.64,0,0,1-.68-4.23,13.4,13.4,0,0,1,.15-2.1c0-.17.07-.34.11-.52a11.44,11.44,0,0,0,.34,1.31,9.36,9.36,0,0,0,1.11,2.24,9.52,9.52,0,0,1-.6-2.36,9.29,9.29,0,0,1,0-1.49,6.78,6.78,0,0,0,1.09.16,9.13,9.13,0,0,0,3.8,9c2.46,1.69,4.45,1.26,5.85.36a6,6,0,0,0,2.12.05,8,8,0,0,0,3-1.21c2.25.72,5.44.63,7.78-4,1.5-3,.92-5.07.28-6.22a5.13,5.13,0,0,0,1-2.47,7.17,7.17,0,0,0-.23-2.8,7.54,7.54,0,0,0,.09-3.68,7.11,7.11,0,0,0-3.52-4.41c3.38-11.08-1.7-26.76-23.4-30.6a18,18,0,0,0-5-.24c-.12,0-5.2.15-6.72-.72S235.61,383.55,240.55,384.77Zm35.9,38.58a18.29,18.29,0,0,0,1.13-2.6,6,6,0,0,1,.16,1.13,4.7,4.7,0,0,1-.59,2.38A4.3,4.3,0,0,0,276.45,423.35Zm-11.91,12.08a8.19,8.19,0,0,0,1.92-2.23,7.76,7.76,0,0,0,1,.64,6.48,6.48,0,0,1-1.53,1.1A4.91,4.91,0,0,1,264.54,435.43Z"/><path class="cls-2" d="M273.05,410c.11-.18.71,0,1.35.38l.32.23c0-.12-.07-.25-.11-.38-.16-.73-.13-1.36.07-1.41s.52.5.69,1.24a3.1,3.1,0,0,1,.07.38c.06-.11.12-.23.19-.34.4-.63.86-1.06,1-.94s0,.71-.38,1.35a3,3,0,0,1-.23.32l.38-.1c.74-.17,1.36-.14,1.41.07s-.5.51-1.23.68a2.92,2.92,0,0,1-.39.07l.34.19c.64.4,1.06.87.95,1s-.72,0-1.35-.38l-.33-.22a2.9,2.9,0,0,1,.11.38c.17.72.14,1.35-.07,1.4s-.51-.5-.68-1.23a2.66,2.66,0,0,1-.07-.39c-.07.11-.12.23-.2.35-.4.63-.86,1.05-1,.94s0-.72.38-1.35c.08-.11.15-.23.23-.33l-.38.11c-.73.16-1.36.13-1.41-.07s.51-.51,1.24-.68a2.87,2.87,0,0,1,.38-.08L274,411C273.35,410.63,272.93,410.17,273.05,410Z"/><path class="cls-2" d="M269.31,414.7c0-.19.54-.38,1.23-.42h.36a2,2,0,0,1-.28-.23c-.52-.46-.83-.94-.69-1.09s.64.11,1.16.57a3.07,3.07,0,0,1,.26.25,2,2,0,0,1,0-.36c0-.69.09-1.25.28-1.26s.39.53.42,1.21c0,.13,0,.25,0,.37a2.83,2.83,0,0,1,.23-.28c.45-.51.94-.82,1.09-.7s-.1.66-.56,1.17a3.07,3.07,0,0,1-.26.25,2.22,2.22,0,0,1,.37,0c.68-.05,1.24.09,1.26.28s-.54.39-1.22.42a2.32,2.32,0,0,1-.37,0l.29.22c.51.46.82.95.7,1.11s-.66-.11-1.17-.57a3.32,3.32,0,0,1-.27-.25,3.6,3.6,0,0,1,0,.36c.05.68-.09,1.25-.28,1.26s-.38-.53-.42-1.22c0-.12,0-.25,0-.37a2,2,0,0,1-.23.28c-.46.52-.94.83-1.09.7s.11-.65.56-1.16a1.6,1.6,0,0,1,.26-.26l-.37,0C269.89,415,269.32,414.9,269.31,414.7Z"/><path class="cls-2" d="M274,415.53c0-.14.4-.29.91-.32h.27L275,415c-.39-.34-.62-.71-.53-.81s.49.07.88.42a1.62,1.62,0,0,1,.19.18l0-.27c0-.51.07-.94.21-.94s.3.4.32.91a1.22,1.22,0,0,1,0,.27c.05-.06.11-.14.18-.21.34-.39.71-.62.81-.52s-.07.49-.42.87c-.06.08-.13.13-.18.2a1.12,1.12,0,0,1,.27,0c.5,0,.93.07.94.21s-.4.3-.92.32h-.26l.21.17c.38.34.61.71.52.82s-.49-.07-.88-.42a1.66,1.66,0,0,1-.19-.18c0,.07,0,.17,0,.26,0,.52-.07.94-.22.95s-.29-.4-.31-.92a2.44,2.44,0,0,1,0-.26l-.17.2c-.34.39-.71.62-.82.52s.08-.49.42-.87l.19-.19-.27,0C274.46,415.77,274,415.68,274,415.53Z"/><path class="cls-2" d="M268.92,411c0-.19.5-.37,1.14-.4h.35c-.09-.06-.18-.14-.27-.21-.48-.43-.77-.89-.64-1s.6.1,1.09.53l.24.24c0-.11,0-.22,0-.35,0-.63.08-1.16.26-1.18s.36.51.4,1.15a1.93,1.93,0,0,1,0,.34l.22-.27c.43-.48.89-.77,1-.64s-.1.61-.52,1.09a2.72,2.72,0,0,1-.24.24c.11,0,.22,0,.34,0,.65,0,1.18.08,1.19.26s-.5.37-1.15.4H272l.26.21c.48.43.78.89.65,1s-.61-.1-1.09-.53a1.9,1.9,0,0,1-.25-.24,1.87,1.87,0,0,1,0,.34c0,.64-.07,1.18-.26,1.19s-.36-.51-.39-1.15c0-.12,0-.23,0-.35a2.61,2.61,0,0,1-.22.27c-.42.49-.88.77-1,.66s.1-.62.53-1.1c.07-.09.16-.17.23-.25l-.34,0C269.46,411.31,268.93,411.19,268.92,411Z"/><path class="cls-2" d="M271.81,408.21c0-.13.36-.27.83-.29h.26l-.2-.15c-.35-.32-.57-.65-.47-.75s.44.07.8.38l.17.17,0-.24c0-.47.06-.86.2-.86s.26.37.29.83a2.08,2.08,0,0,1,0,.25,1.46,1.46,0,0,1,.16-.19c.31-.36.65-.57.75-.48s-.08.45-.39.8a1.37,1.37,0,0,1-.17.17l.25,0c.47,0,.86.06.86.19s-.37.27-.83.3H274l.19.16c.35.31.56.64.48.74s-.45-.06-.8-.38l-.18-.17,0,.25c0,.47-.06.85-.2.86s-.26-.37-.29-.84a1,1,0,0,1,0-.25l-.16.2c-.31.35-.65.56-.75.47s.07-.44.39-.8l.17-.17-.25,0C272.2,408.43,271.81,408.34,271.81,408.21Z"/><path class="cls-2" d="M276.14,412.76c0-.16.41-.29.92-.33h.28a1.84,1.84,0,0,1-.22-.17c-.39-.35-.62-.71-.52-.83s.49.08.88.42l.2.2a1.24,1.24,0,0,1,0-.27c0-.52.07-.95.21-1s.29.41.32.92a2.44,2.44,0,0,0,0,.28l.17-.21c.34-.39.71-.63.82-.52s-.08.49-.42.88l-.19.19.27,0c.52,0,1,.07,1,.22s-.41.29-.93.32h-.27l.21.17c.39.35.62.71.53.83s-.49-.08-.88-.43a1.23,1.23,0,0,1-.2-.19,2.46,2.46,0,0,1,0,.28c0,.52-.06.94-.21,1s-.29-.4-.32-.92a1.31,1.31,0,0,1,0-.28l-.18.22c-.34.38-.71.62-.82.52s.08-.49.42-.88l.19-.2a2,2,0,0,1-.27,0C276.57,413,276.15,412.9,276.14,412.76Z"/><path class="cls-9" d="M252.46,409.18c-2.1.83-3.33,2.72-2.73,4.23s2.78,2.07,4.89,1.24,3.33-2.72,2.74-4.23S254.58,408.35,252.46,409.18Z"/><path class="cls-2" d="M250.18,413.38A1.3,1.3,0,1,0,252,413,1.3,1.3,0,0,0,250.18,413.38Z"/><path class="cls-15" d="M241.27,402.55a3.45,3.45,0,0,1-2.15-1.72,5,5,0,0,0-1.52-2,5,5,0,0,0-4.3-.79c.35.1.67.23,1,.33a1.32,1.32,0,0,0-.64.5,1.4,1.4,0,0,0,2.37,1.48,1.26,1.26,0,0,0,.09-1.16,5.31,5.31,0,0,1,.84.47,8.81,8.81,0,0,1,2.5,3.11,3.64,3.64,0,0,0-.06-.87A3.1,3.1,0,0,0,241.27,402.55Z"/><path class="cls-9" d="M210.23,446.85c-2.81-1.5-5-4.46-4.12-7.17h0c.86-2.7,3.93-3.26,7.1-3.13A91.35,91.35,0,0,1,232,440c4.94,1.54,13.81,4.78,18.74,7.64,2.76,1.61,5.14,3.85,3.92,7.67-1.09,3.41-4.3,4.68-7.47,4.34-6.56-.71-13.63-3.1-18.83-4.76A112.55,112.55,0,0,1,210.23,446.85Z"/><path class="cls-9" d="M208.1,445.32S190.56,427,178.89,404.7l3.38-3.05s22.6,21.61,33.5,36.78c0,0,2.38,4.22-.75,7C212.34,447.88,208.1,445.32,208.1,445.32Z"/><path class="cls-9" d="M179.42,405.66s-8.71-4-12.41-16.43c-.29-1-.45-3.2,1.25-3.35.85-.07,1.71.28,3.45,1.76a34.3,34.3,0,0,1,4.46,4.94c-.58-1.83-1.5-4.68-.3-4.89,1.82-.32,3.91,9.33,5.77,12.83a11,11,0,0,0,1.35,2.32Z"/><path class="cls-2" d="M258,515.1l-25,.11-3.85-41.28c-10.59-7.49-6.92-18-6.92-18H263a49.42,49.42,0,0,1-.55,20.62C255.85,501.9,256.18,512.77,258,515.1Z"/><path class="cls-16" d="M118,385.31a11.69,11.69,0,0,1-3.14-1.76c-.79-.58-1.67-1.28-2.83-2.15a6,6,0,0,1-.5-1.09c-.82-2.32-1.85-6.78-4.75-9.9-1.08-4.88-6.17-7.43-7.55-7.78-16.11-4-28.29,9.2-29.26,10.27,0,0-9.13,8.22-4.36,18.67,4.22,9.27,10.48,15.61,16.25,16.91a38.11,38.11,0,0,1,2.7,6.1c1.33,3.41,5.66,19,5.66,19l21.29-4.6c-2.35-2.18-2.57-19.35-1.26-21.17.55-.77,4.94-2.55,5.34-2.63,3.31-.71,5.43-3.32,4.2-5.37A6.62,6.62,0,0,1,119,398c0-.81.39-1.18.42-1.82,0-.28-.2-.37-.48-.37a17.16,17.16,0,0,0-.79-3.42.62.62,0,0,0,.12-1.07,5.93,5.93,0,0,1-.86-1.21c-.39-.89-1-2.17.28-2.74C120.07,386.32,118.77,385.57,118,385.31Z"/><path class="cls-17" d="M69.33,372.6c-.46-1.45-2.11-.83-2.11-.83,1.12-1,3.57-.5,3.57-.5-1-1.23.22-3.91.22-3.91A2.13,2.13,0,0,0,72.2,370c6-8.24,17.85-11.87,27.46-8a34.82,34.82,0,0,1,5.69,4.14c.38.35.74.71,1.08,1.07a6.18,6.18,0,0,0,1.88-3.09s2.77,6.62-1.76,8.79c-2.55,1.44-6.87.95-10.47,1.08-6.83.24-8.93,4.23-7.69,9.32.88,3.59,1.24,4.47,2.46,9.15.46,1.75.57,2.24,1.28,4.75.2.72-.82.92-1.6,1.28-1,.45-1.44-.76-1.63-1.09A6.86,6.86,0,0,0,83,393.81c-1.87,0-2.24.85-2.51,1.82-.61,2.3,1.93,3.61,5.13,5.74,2.37,1.57-1,6.69-3.38,7.8-1.76.8-13.18-7.86-17.45-17.21C59.87,381.12,69.33,372.6,69.33,372.6Z"/><path class="cls-16" d="M86.69,394.89c2.17,1.69,3,4.11,1.8,5.41s-3.9,1-6.09-.72-3-4.1-1.8-5.39S84.5,393.21,86.69,394.89Z"/><path class="cls-15" d="M108,379.31a7.4,7.4,0,0,0-1.31.26,11.09,11.09,0,0,0-2.83,1.36,12.68,12.68,0,0,0-2.47,2.08c-.6.67-1,1.11-1,1.11l0,0a.24.24,0,0,1-.34,0,.24.24,0,0,1,0-.31l.87-1.28a13.15,13.15,0,0,1,2.3-2.58,12.18,12.18,0,0,1,2.94-2,8.21,8.21,0,0,1,1.61-.57.93.93,0,0,1,1.08.78A1,1,0,0,1,108,379.31Z"/><path class="cls-2" d="M111.12,394.43s-.63.06-.24.52,5.52,1.83,8.1.89l0-.29a13.49,13.49,0,0,0-.77-3.08C117.91,392.66,114.38,394.86,111.12,394.43Z"/><path class="cls-15" d="M108.9,382.78l.84-.47a3.64,3.64,0,0,0-3.47,1.12,4,4,0,0,0-.89,1.7,3.62,3.62,0,0,0,0,1.85,10.46,10.46,0,0,1,1.69-2.8s.07-.05.1-.08a1.2,1.2,0,0,0,.11.55,1.4,1.4,0,0,0,2.54-1.16A1.28,1.28,0,0,0,108.9,382.78Z"/><path class="cls-18" d="M64.65,682l19-.06c.66,1.27,3.25,6.23,7.82,6.21l8.23,0c6.2,0,6.88,5.14,7.11,8.93l-26.41.09-1.79-1.53-1.26,1.54-12.68,0Z"/><path class="cls-19" d="M107.15,531.6,98.1,603.37l-5.78,84-28.76-2.5,8.56-82.37.29-30A174.92,174.92,0,0,1,73,554.69c-5.87-8.21-3.22-23.73-2.48-27.11Z"/><path class="cls-19" d="M85.39,682.05h19c.66,1.27,3.23,6.22,7.8,6.22h8.23c6.2,0,6.88,5.17,7.09,9H101.12l-1.78-1.54-1.26,1.54H85.39Z"/><path class="cls-20" d="M110.63,532.41l-2.53,72.32L109.63,688H81.76l.39-81.75-4-32.36c-1-6.61-2.9-14.06-2.9-14.06-6.62-7.6-5.49-24-5.07-27.42Z"/><path class="cls-2" d="M83.3,412.15l27.91,14s2.2,8.54,1.93,15.72c-.33,8.94-29.84-23.35-29.84-23.35Z"/><path class="cls-21" d="M73.47,489.57V443.26c0-12.6,9.8-24.67,9.8-24.67l22.34,11.56s7.7,11.11,7.7,21.56v89.53c-4.33.46-39.54,4-48.42-2.25C64.89,539,73.47,504.21,73.47,489.57Z"/><path class="cls-22" d="M80.93,421.87l2.17-7.09,29.25,17.94c1.79,5,1,24.39,1,24.39v21.74l-11.25-36,3.61-3.52-5.1.74Z"/><path class="cls-23" d="M80.1,447.38c3,2.56,7.31,4.83,13.69,7.77,21.45,9.88,44.89,6,44.89,6l-5.81-16.79a132.83,132.83,0,0,0-32.35-9.73,83,83,0,0,0-16.79-.36C77.36,434.75,73.12,441.35,80.1,447.38Z"/><path class="cls-16" d="M174.79,404.6s9.05-10.72,7.42-18.73c-.35-1.71-2.43-3.29-4.27-2.23-2.26,1.3-3.46,3.69-4.87,5.31-.58.65-1.19-.6-.88-1.49s.45-1.64.06-2c-.87-.71-2.23.87-3.13,2.07-1.63,2.17-3.33,9.46-3.25,13.18Z"/><rect class="cls-2" x="166.48" y="396.63" width="6.31" height="13.86" transform="translate(-267.77 385.99) rotate(-64.9)"/><path class="cls-23" d="M132.43,444.35s4.22-5,14.78-19.85c4.82-6.78,7.12-12,15-23.49l14.23,6.22c-17.67,31.75-17.72,31.5-25,44.58-1.94,3.49-4.71,6.85-13,9.33Z"/></g></g></svg>