<svg xmlns="http://www.w3.org/2000/svg" viewBox="0 0 59.74 58.75"><defs><style>.cls-1{fill:#433a4a;}.cls-1,.cls-10,.cls-11,.cls-12,.cls-13,.cls-14,.cls-15,.cls-16,.cls-17,.cls-18,.cls-19,.cls-2,.cls-20,.cls-21,.cls-22,.cls-23,.cls-24,.cls-25,.cls-26,.cls-27,.cls-28,.cls-29,.cls-3,.cls-30,.cls-31,.cls-32,.cls-33,.cls-34,.cls-35,.cls-36,.cls-37,.cls-38,.cls-39,.cls-4,.cls-40,.cls-41,.cls-42,.cls-43,.cls-44,.cls-45,.cls-46,.cls-47,.cls-48,.cls-49,.cls-5,.cls-50,.cls-51,.cls-52,.cls-53,.cls-54,.cls-55,.cls-56,.cls-57,.cls-58,.cls-59,.cls-6,.cls-60,.cls-61,.cls-62,.cls-63,.cls-64,.cls-65,.cls-66,.cls-67,.cls-68,.cls-69,.cls-7,.cls-70,.cls-71,.cls-72,.cls-73,.cls-74,.cls-75,.cls-76,.cls-77,.cls-78,.cls-79,.cls-8,.cls-80,.cls-81,.cls-82,.cls-83,.cls-84,.cls-85,.cls-9{fill-rule:evenodd;}.cls-2{fill:#9c97a0;}.cls-3{fill:#8e8992;}.cls-4{fill:#736d79;}.cls-5{fill:#89848d;}.cls-6{fill:#b4b0b7;}.cls-7{fill:#7d7882;}.cls-8{fill:#b8b5bb;}.cls-9{fill:#fff;}.cls-10{fill:#ff9197;}.cls-11{fill:#ff3c7b;}.cls-12{fill:#e10b69;}.cls-13{fill:#ff668d;}.cls-14{fill:#fe6088;}.cls-15{fill:#ec1973;}.cls-16{fill:#fe5583;}.cls-17{fill:#ff628b;}.cls-18{fill:#fe798f;}.cls-19{fill:#ffb883;}.cls-20{fill:#ff9198;}.cls-21{fill:#ffab7f;}.cls-22{fill:#fe77a3;}.cls-23{fill:#fd3f81;}.cls-24{fill:#fa2477;}.cls-25{fill:#fd6298;}.cls-26{fill:#fe5d8c;}.cls-27{fill:#fe939c;}.cls-28{fill:#fe719f;}.cls-29{fill:#fe6c9b;}.cls-30{fill:#fecad0;}.cls-31{fill:#fea1bf;}.cls-32{fill:#fe5282;}.cls-33{fill:#fa2376;}.cls-34{fill:#ff6294;}.cls-35{fill:#ff8b65;}.cls-36{fill:#ffa681;}.cls-37{fill:#ff7374;}.cls-38{fill:#ff638b;}.cls-39{fill:#ff648b;}.cls-40{fill:#fe3b7b;}.cls-41{fill:#f61670;}.cls-42{fill:#ff3d7b;}.cls-43{fill:#f81a71;}.cls-44{fill:#f295be;}.cls-45{fill:#fec794;}.cls-46{fill:#f68769;}.cls-47{fill:#ffe48f;}.cls-48{fill:#fba680;}.cls-49{fill:#f53841;}.cls-50{fill:#f53d44;}.cls-51{fill:#f68568;}.cls-52{fill:#fec796;}.cls-53{fill:#f9ab96;}.cls-54{fill:#feeeb9;}.cls-55{fill:#fac4b6;}.cls-56{fill:#faa47e;}.cls-57{fill:#faab81;}.cls-58{fill:#f9a67e;}.cls-59{fill:#f68669;}.cls-60{fill:#ffd475;}.cls-61{fill:#f4695a;}.cls-62{fill:#ff5348;}.cls-63{fill:#ff5549;}.cls-64{fill:#ff3d7c;}.cls-65{fill:#fe6f9e;}.cls-66{fill:#ff435f;}.cls-67{fill:#fe86ad;}.cls-68{fill:#fe84ab;}.cls-69{fill:#ff4651;}.cls-70{fill:#fe8b84;}.cls-71{fill:#fe9abb;}.cls-72{fill:#ffae7c;}.cls-73{fill:#fe5683;}.cls-74{fill:#fea387;}.cls-75{fill:#fe80a9;}.cls-76{fill:#fe5182;}.cls-77{fill:#fe4e5f;}.cls-78{fill:#fdc8db;}.cls-79{fill:#ffbbd1;}.cls-80{fill:#ff444f;}.cls-81{fill:#ff4d50;}.cls-82{fill:#f91355;}.cls-83{fill:#fe3a6c;}.cls-84{fill:#fa1255;}.cls-85{fill:#ff4063;}</style></defs><title>flower-2</title><g id="Layer_2" data-name="Layer 2"><g id="OBJECTS"><path class="cls-1" d="M38.8,16.29c-2.52-.83-5-1.89-7.67-2.16l-4.89-.48a2.39,2.39,0,0,1-.57-.19,2.69,2.69,0,0,1,.44-.45c1.28-.72,2-2.25,3.67-2.42,2.14-.22,4.17.34,6.25.64,2.76.4,5.34,1.59,8.21,1.53,2,0,1.83.12,1,2.06-1.4,3.19-3.93,5.34-6.44,7.54-.13,0-.18-.07-.1-.19l1.79-5.4c-1.06.07-1.26,1.16-1.73,1.95-1.68,2.82-3.16,5.78-5.06,8.44C32,29.43,29.51,30.74,27,31.89,24.56,33,22,33,19.52,33.44c-.19,0-.31,0-.22-.24A42.17,42.17,0,0,0,29.23,25a31,31,0,0,1,4.45-3.87c.07-.12.07-.2-.1-.2a6,6,0,0,0-3.29,1.62,89.27,89.27,0,0,1-8.52,5.92c-1.84,1.05-3.93.91-5.95,1.07-3.52.29-7,.58-10.56.85a21.87,21.87,0,0,0-4.48.55c-.14,0-.18-.07-.11-.19C2.23,29.21,3.25,27.19,5,25.91a13.07,13.07,0,0,1,8.21-2.73,59,59,0,0,0,8.5-.3c1.37-.16,2.79.23,4.18-.09a21.7,21.7,0,0,0,5.23-2.15A37.54,37.54,0,0,0,25,21c-1.72.29-3.44-.19-5.17-.17A31.43,31.43,0,0,0,9.6,22.36c-.57.2-1.17.3-1.9.48a20.24,20.24,0,0,1,12.93-7.15,45.16,45.16,0,0,1,11.08-.14,38.66,38.66,0,0,1,4.9,1.12,3,3,0,0,0,2.21-.39Z"/><path class="cls-2" d="M.67,30.73a1.18,1.18,0,0,1,.11.19l-.51.27h0Z"/><path class="cls-3" d="M38.67,22.17a1.14,1.14,0,0,1,.1.19l-.31.23Z"/><path class="cls-4" d="M19.3,33.2l.22.24-.48,0Z"/><path class="cls-5" d="M33.58,20.91H34l-.29.21Z"/><path class="cls-6" d="M.27,31.19l-.19.29L0,31.41l.27-.23Z"/><path class="cls-7" d="M37.72,18.17l.12,0s0,.09,0,.12-.07,0-.11,0A.37.37,0,0,1,37.72,18.17Z"/><path class="cls-8" d="M39.15,16.18s0,0,.06,0,0,0,0,.05,0,0,0,0S39.16,16.2,39.15,16.18Z"/><polygon class="cls-9" points="38.8 16.29 38.82 16.27 38.82 16.28 38.8 16.29"/><path class="cls-10" d="M40.76,16.2c-1,1.44-2.09,2.89-3.15,4.34a38.75,38.75,0,0,0-4.26,6.58c-.37.83-1.06.67-1.63.92h0c-.64.2-.83-.13-.82-.7.06-2.32.11-4.65.16-7a2,2,0,0,0,1.21-1.43.79.79,0,0,1,.12-.15c.57-.36.93-1,1.47-1.37s.89-.89,1.33-1.35c.68-.73,1-1.78,2.09-2.17a.66.66,0,0,0,.33-.33c.36-.87,1.24-1.25,1.79-1.94l.18-.07h.09c.31,0,.45.32.68.48.39.22.61-.07.86-.29a3.66,3.66,0,0,0,.66-.9c.14-.23.26-.55.64-.41a4.8,4.8,0,0,1-.7,2.12,14.63,14.63,0,0,1-3.5,5.09c0,.05-.09.11-.08.29a6.37,6.37,0,0,0,1.65-1.22C40.15,16.49,40.32,16.1,40.76,16.2Z"/><path class="cls-11" d="M43.56,9.19c-.05.18-.09.36-.14.54a1.51,1.51,0,0,1-.91.61,4.1,4.1,0,0,1-2.08.78,1.59,1.59,0,0,1-.13.13l-.15.12a.58.58,0,0,1-.25.12c-.3,0-.48.19-.68.38-1.37,1.26-2.63,2.63-3.9,4a10,10,0,0,1-1,1.22c-.23.19-.48.37-.71.57a5.43,5.43,0,0,1-1.21,1.23h0a2.27,2.27,0,0,1-.88,1.21c-.23.18-.41.24-.4-.15,0-1.22-.07-2.44,0-3.66a8.75,8.75,0,0,1,2.75-6.52C36.56,7,39.8,5.57,43.3,4.46a1.57,1.57,0,0,1-1.75,1.33.71.71,0,0,0-.69.13A15.35,15.35,0,0,0,38.34,8.3c-.27.38-.47.77-.06,1.21.25.26.07.54,0,.82s0,.49.44.42a4.19,4.19,0,0,0,2.47-1.58c.21-.24.43-.69.77-.45s0,.56-.17.84-.24.32-.24.55c.42-.13.74-.44,1.14-.57s.48-.26.72-.39h.09Z"/><path class="cls-12" d="M42.77,9.6,41,10.75c.38-.77.66-1.35,1.11-2.29A18,18,0,0,0,40.69,10c-.54.75-1.41.78-2.15,1.11-.2.09-.62,0-.55-.2.43-1-.71-2.19.47-3.09.76-.58,1.4-1.3,2.14-1.92a1.1,1.1,0,0,1,1.23-.2c.66.22,1-.71,1.47-1.19,1-.45.6.5.82.82a6.6,6.6,0,0,1-.68,3.91h0C43.1,9.14,43.06,9.57,42.77,9.6Z"/><path class="cls-13" d="M42.48,10.26l.94-.53c-.59,2-1,4.14-2.17,5.95a5.94,5.94,0,0,1-.49.52c-.72.6-1.42,1.21-2.16,1.79-.19.16-.51.38-.72.12s.14-.47.31-.63c2.17-1.91,3.28-4.47,4.31-7.08v-.05l0,0h-.06Z"/><path class="cls-14" d="M31.17,16.29v3.82a3.71,3.71,0,0,0,1.24-1.22c-.12.79-.4,1.44-1.34,1.48C31.1,19,31.14,17.65,31.17,16.29Z"/><path class="cls-15" d="M43.44,9.19c.2-1.31.9-2.53.68-3.91a5.89,5.89,0,0,1-.56,3.91Z"/><path class="cls-16" d="M33.48,17.54c1.46-1,2.28-2.61,3.56-3.76.94-.84,1.61-2,2.9-2.43.07.25-.17.19-.27.27h0a1.79,1.79,0,0,1-.14.13c-1.48,1.7-3.35,3.06-4.56,5-.22.35-.71.52-1.08.77A.31.31,0,0,1,33.48,17.54Z"/><path class="cls-17" d="M40.21,11.08l2.27-.82,0,0a.08.08,0,0,1,0,.13h0c-.45.57-.88,1.15-1.37,1.68-.23.26-.58.58-.92.08S40.46,11.44,40.21,11.08Z"/><path class="cls-18" d="M40.21,11.08c1,.36-.41.72,0,1.08l-.54-.54.27-.27.13-.14a.86.86,0,0,0,.14-.13Z"/><path class="cls-14" d="M33.48,17.54h.41c-.46.49-.76,1.15-1.48,1.35C32.57,18.28,33.4,18.21,33.48,17.54Z"/><path class="cls-18" d="M39.53,11.75l.14-.13Z"/><path class="cls-9" d="M31.73,28l0,0,0,0Z"/><path class="cls-15" d="M42.77,9.6c.12-.31.25-.63.4-1l.27.58C43.26,9.41,43.17,9.76,42.77,9.6Z"/><path class="cls-17" d="M40.21,11.08l-.14.13Z"/><path class="cls-10" d="M42.49,10.41a.62.62,0,0,0,0-.13l0,.09S42.51,10.4,42.49,10.41Z"/><path class="cls-11" d="M29.52,43.2c-.09-.62-.19-1.24-.28-1.86a17.55,17.55,0,0,1,.22-4.52A7.48,7.48,0,0,1,30,34.43c.11-.22-.06-.45.06-.66h0c.17-.15,0-.39.14-.54h0c.16-.15,0-.43.26-.56a41.29,41.29,0,0,1,2.9-4.44c1-1.59,2.26-2.91,3.31-4.41a.48.48,0,0,0,.41-.54h0a.41.41,0,0,1,.14-.12l.37-.17a6,6,0,0,1,1-.93L40,20.85a.14.14,0,0,1,.17,0c.2.39-.08.69-.23,1-.78,1.54-1.56,3.08-2.24,4.66a1.94,1.94,0,0,0-.3,1.06c.39-.06.49-.37.63-.63.56-1.12,1.18-2.21,1.74-3.33.14-.27.22-.61.62-.64a.49.49,0,0,1,.21.44c-.32,1.49-.81,2.93-1.24,4.39-.48,1.63-1,3.26-1.34,4.92-.05.25-.16.53.12.73a1,1,0,0,1-.15.95,7.73,7.73,0,0,0-1,2.3c-.83,2.56-1.32,5.2-1.91,7.82-.3,1.31-.54,2.62-.82,3.94-.07.34,0,.78-.53.9q-1.78-2.46-3.55-4.93A3.71,3.71,0,0,1,29.52,43.2Z"/><path class="cls-19" d="M47.53,23.7c1.61,5.32,2.06,10.62,0,15.94-.84,2.11-1.26,4.41-2.24,6.45a75.12,75.12,0,0,1-3.91,6.47,20.82,20.82,0,0,0-2,5.5,4.07,4.07,0,0,1-.35.69,5.56,5.56,0,0,1-.42-.57q-1.34-2.64-2.65-5.29A9.21,9.21,0,0,0,37.21,51c.48-.74.71-1.65,1.48-2.19.25-.17.14-.5.3-.72.77-1.07,1.06-2.38,1.73-3.5.22-.36,0-.93.48-1.18l.16-.1a26.94,26.94,0,0,0,1-3.55,1.3,1.3,0,0,1,.08-.17,9.67,9.67,0,0,0,1-2.37,4.48,4.48,0,0,1,.54-1.63.4.4,0,0,0,0-.38,1,1,0,0,1,.06-.78c.53-.79.3-1.73.58-2.56A3.25,3.25,0,0,1,45,30c.23-.37.46-.38.66,0,0,.1.06.22.17.28s.09,0,.1-.08a24,24,0,0,0,.13-4.64,1,1,0,0,1,0-.48c.07-.25.27-.44.33-.71C46.56,23.74,46.8,23.6,47.53,23.7Z"/><path class="cls-10" d="M33.73,49.37c.47-2.06,1-4.11,1.42-6.17a57,57,0,0,1,1.65-6.58c.73-1.59,1.64-3.08,2.47-4.62.13-.24.36-.39.47-.64a2.09,2.09,0,0,0,.46-.64.7.7,0,0,1,.14-.16c.52-.27.65,0,.64.46a9.13,9.13,0,0,1-.21,1.47,19.3,19.3,0,0,0-.38,4.74,1.89,1.89,0,0,0,.29,1.08,67.19,67.19,0,0,1,1.57-10.39,1.42,1.42,0,0,1,0-.22,2.17,2.17,0,0,1,.19-.41.49.49,0,0,1,.18-.14c.62,0,.53.46.51.78a28.87,28.87,0,0,0-.09,2.94,5.85,5.85,0,0,0,.14,1.86,64.36,64.36,0,0,0,.5-7.21,1.24,1.24,0,0,1,0-.33c.25-.41.26-.93.56-1.32.72-.32.89-.23,1,.53s.15,1.49.26,2.24a2.56,2.56,0,0,1,0,.62.58.58,0,0,1,0,.19,1,1,0,0,0,0,.72,1.28,1.28,0,0,1,0,.19,6.18,6.18,0,0,0-.69,2.22c0,.13,0,.28-.11.38-.27.28-.12.51.06.75a.48.48,0,0,1-.08.16,1.06,1.06,0,0,0-.09.25.48.48,0,0,1-.08.16.64.64,0,0,0,0,.43.37.37,0,0,1,0,.18,2,2,0,0,1-.09.26A9.68,9.68,0,0,0,44,34.8c0,.92-.55,1.64-.61,2.5a1.68,1.68,0,0,1-.19.64,14.13,14.13,0,0,0-.72,1.76h0c-.43.7-.35,1.55-.7,2.28-.23.47-.19,1-.37,1.49h0a.75.75,0,0,0-.65.86c0,.6-.51,1-.66,1.51,0,.1-.19.2-.17.27.24.91-.68,1.28-.91,2a.83.83,0,0,0-.06.44.35.35,0,0,1-.24.42,1.42,1.42,0,0,0-.76.8c-.41.94-1.14,1.7-1.58,2.63a.63.63,0,0,1-.5.4C35.13,51.64,34.43,50.51,33.73,49.37Z"/><path class="cls-12" d="M40.3,23c-.75,1.43-1.48,2.86-2.23,4.29-.18.35-.42.78-.84.57s-.07-.6.06-.88c1-2.05,1.92-4.09,2.88-6.13v-.09c0-.24.18-.38.25-.58a7.82,7.82,0,0,1,1.24-2.42l.09-.43a.54.54,0,0,0,.19-.48,14.05,14.05,0,0,1,.65-3l.4-1.08c.17-.48.46-.9.61-1.4.07-.25.3-.7.6-.1a.74.74,0,0,1,0,.21,1.39,1.39,0,0,0,0,.73c0,.09,0,.2,0,.26,1.07,1.23,1,2.81,1.2,4.25.17,1.09.35,2.2.43,3.31a4.19,4.19,0,0,1,0,1,2.29,2.29,0,0,1-.29.68c-.33.64-.51.65-1,.07a10.69,10.69,0,0,1-.4-2.51c-.09-1-.22-1.89-.27-2.84.14,2.6.56,5.2.18,7.82a10,10,0,0,1-.62,1.47c-.12.18-.22.45-.47.35s-.16-.38-.1-.6c0-.06,0-.13,0-.14a5,5,0,0,1-.85,2.47c-.13.19-.27.38-.52.38s-.3-.21-.32-.42a1.48,1.48,0,0,1,0-.21,1.77,1.77,0,0,0,.08-.69c.17-1.38.23-2.77.49-4.13a7.43,7.43,0,0,1-.23,1.14c-1,2.78-1.79,5.6-2.75,8.37a4.68,4.68,0,0,1-.59,1.21l-.09,0c-.7.09-.44-.38-.36-.67q1.32-4.71,2.66-9.41c.13-.26,0-.57.15-.77A.55.55,0,0,1,40.3,23Z"/><path class="cls-11" d="M45.68,21.13a56.22,56.22,0,0,0-1.08-7.75c-.1-.48-1-.56-.67-1.27.16-.2,0-.47.13-.68v-.12c.14-.36-.21-.72,0-1.07.35-.32,0-.64,0-1h0c.07-.06.1-.15.17-.2L44.38,9c.74-.24.74-.24,1,.81h0c.13.21,0,.47.11.69,0,1.66.17,3.33.12,5a9.54,9.54,0,0,0,.7,4.3,1.78,1.78,0,0,1-.41,1.86.32.32,0,0,1-.19.07C45.38,21.57,45.8,21.31,45.68,21.13Z"/><path class="cls-20" d="M45.8,21.66a3.84,3.84,0,0,0,.55-1.87,21.23,21.23,0,0,1,1.18,3.91c-1-.13-.71,1.05-1.31,1.33a.52.52,0,0,1-.19-.14,10.66,10.66,0,0,1-.4-2.81A.61.61,0,0,1,45.8,21.66Z"/><path class="cls-21" d="M35.84,52.77a16.29,16.29,0,0,1,2-3.16,6.64,6.64,0,0,0,1.71-2.79c.2-1,1.12-1.63.93-2.68-.1-.55.39-.67.85-.67-.43,1-.88,1.93-1.29,2.91a17.63,17.63,0,0,1-1.51,2.76c-.62,1-1.12,2-1.73,2.93-.22.35-.38.86-1,.82A.16.16,0,0,1,35.84,52.77Z"/><path class="cls-22" d="M30.05,33.77c-.23,1.64-.5,3.27-.69,4.92-.1.87-.09,1.77-.12,2.65a17.14,17.14,0,0,1,.54-6.72C29.85,34.33,30,34.06,30.05,33.77Z"/><path class="cls-23" d="M42.58,13.86a10.55,10.55,0,0,1-.84,3.49A7.2,7.2,0,0,1,42.58,13.86Z"/><path class="cls-24" d="M44.2,10.09c-.05.41-.09.81-.14,1.22-.31-.4-.35,0-.37.15A3.45,3.45,0,0,1,43,12.78c.27-.8.53-1.61.8-2.42a.38.38,0,0,0,.09-.13.43.43,0,0,1,0-.07.31.31,0,0,1,.21-.11Z"/><path class="cls-25" d="M41.65,17.78c-.41.85-.81,1.7-1.21,2.56a.11.11,0,0,1-.14,0l0-.07C40.73,19.45,40.66,18.33,41.65,17.78Z"/><path class="cls-26" d="M45.42,9.82c-.26-.39-.4-1-1.09-.68,0-.4.1-.65.56-.55A1.2,1.2,0,0,1,45.42,9.82Z"/><path class="cls-27" d="M44.89,8.59l-.56.55-.13,0a.09.09,0,0,1-.14,0c0-.31.09-.62.14-.94.32-.23.39.12.55.25A.86.86,0,0,1,44.89,8.59Z"/><path class="cls-26" d="M44.05,9.28c-.22.32,1.32.33.15.81h0c-.07-.06-.15,0-.22-.05a.13.13,0,0,1-.08-.11Z"/><path class="cls-28" d="M29.52,43.2l.66,1.24C29.83,44.1,29.41,43.79,29.52,43.2Z"/><path class="cls-29" d="M38.54,22.07l-1,.93A1.58,1.58,0,0,1,38.54,22.07Z"/><path class="cls-30" d="M44.75,8.46l-.55-.25c0-.18.13-.32.28-.22S44.67,8.3,44.75,8.46Z"/><path class="cls-31" d="M37.07,23.29c.27.49-.08.5-.41.54Z"/><path class="cls-22" d="M30.45,32.68c-.1.18.06.49-.26.56C30.2,33,30.12,32.76,30.45,32.68Z"/><path class="cls-25" d="M40.17,20.87l-.17,0a.4.4,0,0,1,.27-.56l0,.06a1.91,1.91,0,0,1-.14.52Z"/><path class="cls-26" d="M45.53,10.5c0-.23-.07-.46-.11-.69C45.46,10,45.49,10.27,45.53,10.5Z"/><path class="cls-22" d="M30.19,33.24c0,.18-.09.36-.14.54C30.1,33.6,30.15,33.42,30.19,33.24Z"/><path class="cls-26" d="M43.79,10.23l.11-.3s0,0,.05.05a.19.19,0,0,1,0,.25h0S43.84,10.27,43.79,10.23Z"/><path class="cls-26" d="M44.06,9.15h.14l-.15.12Z"/><path class="cls-11" d="M43.79,10.23h.13l-.14.14A.15.15,0,0,1,43.79,10.23Z"/><path class="cls-31" d="M37.21,23.17l-.14.12Z"/><path class="cls-32" d="M39.89,31.36,36.8,36.62l1.33-3.12h0c.49-.73.78-1.55,1.21-2.3.22-.38.38-.89,1-.76a.4.4,0,0,1,0,.37h0C40.23,31.06,40,31.18,39.89,31.36Z"/><path class="cls-33" d="M40.3,23c.16-.37.31-.75.47-1.13L41,22c-.18.48-.35,1-.52,1.46C40.38,23.29,40.34,23.16,40.3,23Z"/><path class="cls-34" d="M35.33,31.5l.13-.16s.08.07.1.11,0,.1-.06.1S35.4,31.53,35.33,31.5Z"/><path class="cls-35" d="M45.41,28.26v-.13a2.51,2.51,0,0,1,0-.67h0a2.49,2.49,0,0,0,.41-1.16.86.86,0,0,1,.4-.72,22.22,22.22,0,0,1-.07,4.89c0,.12-.25.34-.35.32-.47-.09-.18-.51-.27-.77A2.51,2.51,0,0,1,45.41,28.26Z"/><path class="cls-21" d="M44.46,32.83v-.12a.57.57,0,0,1,0-.54h0c.09-.07.06-.2.14-.27h0c0-.06.09-.06.13,0a16.46,16.46,0,0,0-.39,2.35c-.42,1.66-.88,3.3-1.44,4.92a.85.85,0,0,1-.46.53L44.33,33A.89.89,0,0,0,44.46,32.83Z"/><path class="cls-36" d="M44.73,31.9H44.6a5.2,5.2,0,0,1,.81-3.64A4.92,4.92,0,0,1,45.54,30c-.84.16-.59.9-.75,1.41C44.75,31.56,44.92,31.75,44.73,31.9Z"/><path class="cls-21" d="M41.37,43.47a6.8,6.8,0,0,1,1.07-3.77c.09,1.28-.78,2.37-.73,3.65C41.71,43.38,41.49,43.43,41.37,43.47Z"/><path class="cls-37" d="M46.23,25.57c-.37.59,0,1.5-.81,1.88,0-.22,0-.44,0-.67a8.07,8.07,0,0,1,.42-1.51c0-.18.09-.4.37-.37,0,.05,0,.09,0,.13S46.22,25.39,46.23,25.57Z"/><path class="cls-38" d="M40.3,30.82c0-.13,0-.27,0-.4a.46.46,0,0,1,.17-.29.46.46,0,0,0,.11-.22.57.57,0,0,1,.48-.42l.14-.08a1.26,1.26,0,0,0,.28-.4,1,1,0,0,1,.08-.14l.08-.14,0-.08a2,2,0,0,0,.12-.42c.18-.22.16-.68.64-.52-.42,2.5-.86,5-1.24,7.51-.15,1-.15,2-.23,3,0,.2.08.49-.26.52s-.36-.24-.4-.46a17.08,17.08,0,0,1,.3-6.17c.07-.35.13-.7.17-1.05,0-.15,0-.36-.05-.43S40.44,30.75,40.3,30.82Z"/><path class="cls-39" d="M43.91,25.42q-.16,3.73-.36,7.47c0,.19,0,.53-.33.46s-.36-.44-.36-.71c0-1.67,0-3.34.08-5,0-.36,0-.47-.38-.33-.14-.57,0-.76.52-1,.19-.07.25-.3.34-.47S43.58,25.39,43.91,25.42Z"/><path class="cls-40" d="M43.93,24.36c.27-2.88-.12-5.75,0-8.64l.78,6.08c.22.34.14.84.57,1.06.14.39.11.69-.41.71-.27,0-.34.31-.57.39a2,2,0,0,1-.39,1.22C43.69,24.91,43.83,24.64,43.93,24.36Z"/><path class="cls-39" d="M44.33,24c-.17-.77,1.11-.3.93-1.08-.24-.54.06-.88.41-1.22h.13c.13,1.08.27,2.16.4,3.24-.26.63-.52,1.25-.79,1.88-.09-.81-.22-1.62-.27-2.44S44.66,24,44.33,24Z"/><path class="cls-41" d="M43.93,24.36c0,.27,0,.55,0,.82l0,.24c-.18.33-.36.65-.55,1-.08.15-.17.39-.29.42-.27.05-.16-.3-.32-.48l-.19,1h0c-.1.12,0,.3-.13.41h0c-.43,0-.36.45-.52.69s0,.3-.14.4h0l-.13.14h0c-.21.18-.26.45-.41.67h0c-.13,0-.2-.06-.25-.17a1.84,1.84,0,0,1,.39-1.72c0,.35.16.53.4.18a3.77,3.77,0,0,0,.75-1.46A6,6,0,0,1,43,24.83v1.48Z"/><path class="cls-36" d="M45.41,27.46c.09.22.23.44,0,.67C45.05,27.91,45.25,27.68,45.41,27.46Z"/><path class="cls-38" d="M39.89,31.36l.41-.54C40.34,31.14,40.12,31.26,39.89,31.36Z"/><path class="cls-36" d="M44.46,32.17v.54A.34.34,0,0,1,44.46,32.17Z"/><path class="cls-38" d="M42.43,27.72c0-.14.09-.27.13-.41C42.52,27.45,42.48,27.58,42.43,27.72Z"/><path class="cls-36" d="M44.6,31.9l-.14.27Z"/><path class="cls-36" d="M44.46,32.83l-.13.14Z"/><path class="cls-42" d="M41.37,27.72a3.22,3.22,0,0,0-.14,1.89c-.21.14-.65.06-.54.54h0l-.4.27c-1,.61-1.11,1.78-1.68,2.65-.14.22-.21.41-.48.44q1.53-4.6,3-9.2A16.57,16.57,0,0,1,42,22.09c-.18,1.61-.35,3.22-.52,4.82-.16.21,0,.48-.13.68Z"/><path class="cls-43" d="M45.67,21.66l-.41,1.22-.31.18-.21-1.26c.94.66.5-.62.94-.67C45.67,21.31,45.67,21.48,45.67,21.66Z"/><path class="cls-44" d="M42.11,23.69l.31-.36c.06.07.17.16.16.23a1.4,1.4,0,0,1-.14.37Z"/><path class="cls-41" d="M41.37,27.59c0-.22.09-.45.13-.68C41.46,27.14,41.41,27.37,41.37,27.59Z"/><path class="cls-11" d="M40.17,20.87c0-.18.09-.35.14-.52a.29.29,0,0,1,.13,0Z"/><path class="cls-24" d="M44.06,11.43c-.05.23-.09.46-.13.68C44,11.89,44,11.66,44.06,11.43Z"/><path class="cls-11" d="M43.92,10.23,44,10l.25.11Z"/><path class="cls-42" d="M41.23,29.61c0-.29,0-.59.41-.67A.85.85,0,0,1,41.23,29.61Z"/><path class="cls-42" d="M41.77,28.8c0-.13.1-.26.14-.4C41.87,28.54,41.82,28.67,41.77,28.8Z"/><path class="cls-42" d="M41.64,28.94l.13-.14Z"/><path class="cls-10" d="M40.69,30.15l.05,0-.05,0Z"/><path class="cls-45" d="M7.81,17.73A19.15,19.15,0,0,1,4,16.35,2.64,2.64,0,0,0,6,15.26a2.5,2.5,0,0,1,1-.66,2.2,2.2,0,0,0,.79-.51c1-1.06,2.34-1.8,3.46-2.77a27.85,27.85,0,0,1,2.62-1.5A3.78,3.78,0,0,1,15.52,9a1.11,1.11,0,0,1,.72.08c-.06-.42.34-.4.54-.56a7.08,7.08,0,0,1,2-.74,16.16,16.16,0,0,1,3.9-1.2l.19,0,.09,0a18.17,18.17,0,0,1,3.76,0c.38,0,.75-.08,1.13,0a9.11,9.11,0,0,0,1.29.09A1.27,1.27,0,0,1,30.22,7c.31.34.7.14,1.07.09a3.9,3.9,0,0,0,.8-.31.49.49,0,0,1,.17-.06l.17,0,.08,0,.17-.06.17-.06.09,0,.18,0c.72.1,1.37-.29,2.08-.31.46.23.42.58.09.85a15.78,15.78,0,0,1-4.93,3.19c-1.42.47-2.85.95-4.23,1.54a32.55,32.55,0,0,0,4.37-1.12,11.09,11.09,0,0,0,4-2.15,29.22,29.22,0,0,1,2.88-2.08l.18,0a1.6,1.6,0,0,0,.44,0A7.75,7.75,0,0,0,38.91,6c.2,0,.31,0,.33.24a1,1,0,0,1-.41.68C37.87,7.9,37,9,36.14,10a5.52,5.52,0,0,1-2.57,1.86,34.37,34.37,0,0,0-3.95,1.54,11.37,11.37,0,0,1-3.19.78,34.44,34.44,0,0,1-4.51.73c-1.14,0-2.26-.33-3.52-.22a1.57,1.57,0,0,0,.84.29,12.75,12.75,0,0,0,6.37-.35A5.06,5.06,0,0,1,27,14.43a14.57,14.57,0,0,0,4.43-1.34c.38-.17.79-.5,1.24-.12,0,.43-.32.56-.61.71-.57.3-1.34.27-1.62,1,0,0-.11.08-.17.09A11.07,11.07,0,0,0,27,16.08a18.84,18.84,0,0,1-3.57,1.29,9,9,0,0,1-3.53.59,3.47,3.47,0,0,0-1.84.29,6.41,6.41,0,0,1-2.39.18c-1.29.05-2.59,0-3.89-.05A14.07,14.07,0,0,1,7.81,17.73Z"/><path class="cls-46" d="M22.75,6.84A15.35,15.35,0,0,0,18.9,8,35.56,35.56,0,0,0,12,11.09,14.93,14.93,0,0,0,8.89,13.4C7.83,14.52,6.32,15,5.33,16.15a1,1,0,0,1-1.34.2c-.83-.69-.46-1.39.06-2a6.37,6.37,0,0,1,1.06-.85c.09-.05.11-.17.21-.22h0a.25.25,0,0,1,.16-.08A82.77,82.77,0,0,1,12.62,5.7a12.19,12.19,0,0,1,5-2.41c.17,0,.11-.29.29-.33,1.37-.41,2.73-.89,4.12-1.22,1.94-.47,3.79.27,5.67.55,2.39.35,4.71,1.09,7.21.72,1-.15,2.09.18,3.09-.31,0,.33-.26.44-.47.59a30.61,30.61,0,0,1-5.89,3,1.84,1.84,0,0,0-.78.5c-.42.37-.85,0-1.26,0a8.84,8.84,0,0,1-2.05-.18c-1.35-.06-2.69-.08-4,0a1,1,0,0,0-.62.19h0Z"/><path class="cls-47" d="M7.81,17.73a45.11,45.11,0,0,0,7.62.51c1.36,0,2.74-.5,4.1-.45a17,17,0,0,0,6.18-1.31,18.42,18.42,0,0,0,4.51-2c.77-.52,2-.48,2.41-1.5.2-.49.68-.49,1.08-.64a6.64,6.64,0,0,0,1.64-.77c.19-.11.36-.28.61-.21a.24.24,0,0,1,.09.15,7,7,0,0,1-1.65,1.9,27,27,0,0,1-3.91,3.13A3.12,3.12,0,0,0,32.17,16a37.59,37.59,0,0,0,7.94-7.84,2.77,2.77,0,0,1,.64-.68.33.33,0,0,1,.19-.06c.26,0,.5.06.61.33-2.07,3.43-4,7-7,9.72a6.76,6.76,0,0,1-.7.49c-.18.11-.25.32-.44.41a15.26,15.26,0,0,1-11.67,3.24C16.86,21,12.37,19.29,7.81,17.73Z"/><path class="cls-48" d="M33.78,12.5,32.63,13c-1.7.31-3.15,1.34-4.88,1.59-2.86.42-5.66,1.37-8.6.66a2.93,2.93,0,0,1-.53-.1c-.29-.12-.64-.21-.73-.6a4.79,4.79,0,0,1,.84,0c4.51.62,8.67-.64,12.93-2,3.51-1.12,5.26-3.85,7.48-6.25l.18-.1a5.11,5.11,0,0,1,1.09-.27,2.61,2.61,0,0,0,2-1.25c.53-1,1.06-2,1.58-3,.11-.21.16-.47.44-.55A8.47,8.47,0,0,1,42.9,5l-.14.11a.54.54,0,0,1,0,.11c-.41.69-1,1.24-1.42,1.94a.69.69,0,0,1-.44.28h0a3,3,0,0,0-1.78,1.34c-1.29.57-2.13,1.79-3.44,2.38A3.79,3.79,0,0,0,33.78,12.5Z"/><path class="cls-49" d="M30.88,6.71c.54-.86,1.55-.9,2.36-1.27A27.35,27.35,0,0,0,38,2.7c1.26,0,1.86-1.13,2.78-1.72a12.17,12.17,0,0,1,1.94-1c.68,0,.42.42.23.73a26.65,26.65,0,0,1-1.71,2.39A13.56,13.56,0,0,1,38.41,6a.65.65,0,0,1-.16.13c-.46.32-1,.18-1.54.37a.34.34,0,0,1-.43-.22c-.1-.26.07-.42.25-.56a19.52,19.52,0,0,0,2-1.82,3.33,3.33,0,0,0,.28-.25A.53.53,0,0,1,39,3.53a.69.69,0,0,0,.18-.16.24.24,0,0,1-.09.08l-.13.11a1.42,1.42,0,0,0-.12.13,21.39,21.39,0,0,1-5.06,2.8l-.16,0a1.28,1.28,0,0,1-.34,0l-.15,0-.21.08h0c-.11,0-.23,0-.34.08-.27,0-.53,0-.79,0l-.17.05c-.23,0-.45.18-.66,0A.2.2,0,0,1,30.88,6.71Z"/><path class="cls-50" d="M44.43,1c-.65,1.32-1.21,2.69-2,3.94A2.53,2.53,0,0,1,40.3,6.06a6.18,6.18,0,0,0-1,.18.87.87,0,0,1,.32-.71c1.33-1.28,2.06-3,3.15-4.42.1-.12.18-.25.27-.38.39-.58.47-.59,1.13-.24Z"/><path class="cls-51" d="M44.14.49c-.43-.22-.69-.11-1,.32a30.75,30.75,0,0,1-3.9,5.43l-.13,0-.26-.09c-.24.09-.48.2-.68-.09A25.49,25.49,0,0,0,42.8.64c.15-.23.45-.47,0-.64A1.93,1.93,0,0,1,44.14.49Z"/><path class="cls-52" d="M40.85,7.48a7.65,7.65,0,0,1,1.86-2.22,9.33,9.33,0,0,1-1.16,2.45Z"/><path class="cls-53" d="M17.94,3l-.29.33C17.66,3.11,17.61,2.88,17.94,3Z"/><path class="cls-54" d="M33.4,18.33l.44-.41C33.76,18.13,33.66,18.32,33.4,18.33Z"/><path class="cls-55" d="M5.32,13.26c0,.16,0,.28-.21.22Z"/><path class="cls-55" d="M5.48,13.18l-.16.08Z"/><path class="cls-52" d="M42.76,5.15,42.9,5Z"/><path class="cls-48" d="M37.48,6.5A21.72,21.72,0,0,1,26.1,12.07c-.17,0-.5,0-.52-.12-.07-.27.22-.28.39-.34,1.76-.65,3.53-1.28,5.28-1.95,1.54-.58,2.64-1.81,4-2.73.3-.21.21-.45-.06-.64V6.2c.58-.42,1,0,1.4.3a.68.68,0,0,0,.42,0c.15-.07.3-.16.48,0Z"/><path class="cls-56" d="M27.56,6.46l3.32.25h0c.27.37.49.07.72,0h0c.23,0,.5,0,.65.23-.79.3-1.46,1.05-2.41.09-.36-.37-1.28-.2-1.94-.27C27.73,6.71,27.49,6.79,27.56,6.46Z"/><path class="cls-57" d="M27.56,6.46l.34.25-5,0c1-.62,2-.28,3-.35C26.5,6.38,27,6.44,27.56,6.46Z"/><path class="cls-48" d="M35.14,6.29A4.48,4.48,0,0,1,33,6.7a.17.17,0,0,1,.08-.24h0c.14-.09.29.09.43,0h0a9.19,9.19,0,0,1,1-.34c.22,0,.43-.08.57.17Z"/><path class="cls-58" d="M38.2,6l.68.09c-.14.42-.61.2-.85.43a.22.22,0,0,1-.26-.06c0-.3.31-.28.43-.46Z"/><path class="cls-46" d="M32.25,6.89l-.65-.23a1.06,1.06,0,0,1,1,0l0,.09-.08.06h0l-.17.08Z"/><path class="cls-48" d="M37.77,6.45l.26.09h-.42a.09.09,0,0,1,0-.11.07.07,0,0,1,0,0C37.7,6.37,37.75,6.39,37.77,6.45Z"/><path class="cls-59" d="M33.09,6.46A2.25,2.25,0,0,1,33,6.7l-.13,0Z"/><path class="cls-46" d="M32.58,6.69l.3,0-.16.11a.1.1,0,0,1-.13,0Z"/><path class="cls-57" d="M22.75,6.84l.17-.08Z"/><path class="cls-58" d="M37.65,6.41l0,.13-.13,0h0C37.49,6.37,37.54,6.33,37.65,6.41Z"/><path class="cls-56" d="M32.37,6.92l.17-.08Z"/><path class="cls-56" d="M32.59,6.73l.07,0,.06,0-.18.07Z"/><path class="cls-60" d="M33.78,12.5c0-.39.14-.59.51-.81A34.53,34.53,0,0,0,38,9.23c.8-.66,1.41-1.94,2.8-1.75A38.16,38.16,0,0,1,32.41,16a2.4,2.4,0,0,1-.38.27A2.6,2.6,0,0,1,30,16.7c.31-.55.94-.68,1.39-1A25.24,25.24,0,0,0,36,11.39h0Z"/><path class="cls-59" d="M37.65,6.41l-.17.08L37,6.63c-.14.07-.28-.09-.43,0-.46-.21-.87-.61-1.44-.34-.57-.23-1.07.21-1.62.17a30.92,30.92,0,0,0,5.24-2.93l.16-.09h0c.12,0,.17.06.09.18L39,3.72c-.1,0-.11.18-.21.22-.71.66-1.43,1.31-2.14,2a2,2,0,0,0-.23.34c.12,0,.25.11.36.09.49-.09,1-.21,1.46-.33l-.43.43Z"/><path class="cls-61" d="M39,3.61l-.09-.18.66-.59.12.12Z"/><path class="cls-46" d="M31.6,6.66c-.22.27-.44.62-.72,0Z"/><path class="cls-59" d="M33.52,6.45h0Z"/><path class="cls-61" d="M38.75,3.94,39,3.72Z"/><path class="cls-61" d="M38.92,3.43l-.16.09Z"/><path class="cls-58" d="M36.58,6.62h0Z"/><path class="cls-47" d="M36,11.39l0,0s0,0,0,0Z"/><path class="cls-19" d="M51.2,10.31a39.48,39.48,0,0,1,4,4.91,21.61,21.61,0,0,1,4.17,11c.42,4.74.61,9.48-.54,14.17,0,.15-.09.29-.18.58-.37-.94-.7-1.75-1-2.56a22.92,22.92,0,0,0-1.24-5.79,1.76,1.76,0,0,0-.22-1.46.87.87,0,0,1-.08-.53,44,44,0,0,0-.36-4.45,25.51,25.51,0,0,0-.89-5.46,14,14,0,0,0-2.83-6,5.67,5.67,0,0,1-1.12-1.94.64.64,0,0,1,0-.2,2.87,2.87,0,0,0,0-1C51,11.19,50.83,10.7,51.2,10.31Z"/><path class="cls-11" d="M46.89,21.2c-2-4.12-2.49-8.55-2.55-13,.52.16.41.64.46,1,.25,1.77.41,3.56.67,5.33a.93.93,0,0,0,.21.6,6.94,6.94,0,0,0,.13-2.16c-.05-.34-.21-.86.18-.95s.46.45.56.77c.74,2.42,1.42,4.85,2,7.33a.11.11,0,0,0,.1.09c.23-.44-.07-.91,0-1.36s.35-.26.55,0,.16.36.32.48c0,0,0,0,0,0v0c-.24-.24-.25-.63-.59-.78-.16-.05-.31.19-.48,0-.29-1.49-.72-2.94-1.1-4.41-.25-1-.56-2-.87-3-.07-.21-.19-.47,0-.62s.45.07.63.23a10.71,10.71,0,0,1,2.1,2.59c.58,1,1.18,1.93,1.68,3,.05.07.06-.09,0,0A1,1,0,0,1,51,15a.37.37,0,0,1,.27.31,6.91,6.91,0,0,1-.05,1.76c-.11.85.43,1.51.63,2.28a7.05,7.05,0,0,0,1.11,2.45c.32.43.12,1,.32,1.55a7.45,7.45,0,0,0,1,3c.31.78.61,1.57.87,2.37l.09.17a.56.56,0,0,0,.05.08l.11.17a.89.89,0,0,1,.08.17c.15.45.16.94.57,1.29.14.12.1.37.09.57-.17.38.28.68.15,1.06a.52.52,0,0,0-.07.38c.32.81-.24,1.53-.24,2.31,0,.09-.08.15-.16.2A20.07,20.07,0,0,1,53.51,31c-.19-.24-.22-.56-.41-.8l-.3-.77A7.78,7.78,0,0,0,50.67,26c-.74-.66-1.28-1.5-2-2.19A10.22,10.22,0,0,1,46.89,21.2Z"/><path class="cls-12" d="M48.77,18.65c0,.49.11,1,.14,1.46,0,.24.06.57-.28.58s-.34-.32-.39-.59A80.82,80.82,0,0,0,46,11.77c0,1.17,0,2,0,2.9,0,.3.06.79-.37.82s-.33-.46-.37-.76c-.32-2.19-.63-4.39-.94-6.58-.05-.67-.1-1.33-.16-2a.4.4,0,0,1,.34-.49.49.49,0,0,1,.55.29,3,3,0,0,1,.5,1.51,1.61,1.61,0,0,0,1,1.61c.1,0,.17.15.26.21.27.2.5.43.75.64.31.44.81.73,1,1.27s.24.94.73,1.18c.17.08.27.24.42.34a.8.8,0,0,1,.13.13.75.75,0,0,1,.13.32c0,.31.06.5.38.54a1.16,1.16,0,0,1,.44.56,2.45,2.45,0,0,1,.24.58.19.19,0,0,1-.07.16v1.66c-1.38-2.25-2.34-4.57-4.41-6.18a72,72,0,0,1,2.13,8,.11.11,0,0,1,.15,0A.1.1,0,0,1,48.77,18.65Z"/><path class="cls-62" d="M51.2,10.31c0,.48,0,1,0,1.45-.16.3.06.66-.13,1h0c-.09.08,0,.26-.17.31a17.71,17.71,0,0,0-1.39-1.35,7,7,0,0,0-1.59-2,1.4,1.4,0,0,1-.5-1A1.18,1.18,0,0,0,47,7.8c-.27-.42-.27-.45,0-.6l.67.15c.39.17.61.61,1.07.67Z"/><path class="cls-63" d="M56.57,32.53a17.37,17.37,0,0,1,1.23,5.21,3.58,3.58,0,0,1-.13.7l-1.63-3c-.23-.52.05-1,.1-1.54a2.72,2.72,0,0,0,0-1.36c-.08-.19,0-.33.14-.47a.64.64,0,0,1,.08-.3c.28-.07.38,0,.31.3S56.46,32.37,56.57,32.53Z"/><path class="cls-64" d="M46.76,9.48c-1.27-.43-1.41-1.5-1.51-2.62a1.16,1.16,0,0,0-.58-1.06c-.25-.12-.36.18-.49.35,0-.32-.37-.74.14-.89a.63.63,0,0,1,.87.57c.1,1,1.17.65,1.56,1.23A6.79,6.79,0,0,1,47,8.68.82.82,0,0,1,46.76,9.48Z"/><path class="cls-65" d="M50.8,25.9a9.28,9.28,0,0,1,2,2.79.63.63,0,0,1,0,.75l-2-3.1A.32.32,0,0,1,50.8,25.9Z"/><path class="cls-66" d="M46.76,9.48c0-.81,0-1.61,0-2.42L47,7.2c-.26.25.1.36.13.54.43.57.22,1.32.58,1.92.11.19-.07.36-.32.38Z"/><path class="cls-67" d="M46.89,21.2l1.9,2.53c.08.19.17.38,0,.56A5.87,5.87,0,0,1,46.89,21.2Z"/><path class="cls-68" d="M48.78,24.29c0-.19,0-.37,0-.56l2,2.17c0,.15,0,.29,0,.44C49.71,26.05,49.57,24.85,48.78,24.29Z"/><path class="cls-69" d="M56.31,32.11A10.27,10.27,0,0,1,56,35.47l-.27-.41c.14-1,.27-2,.4-3C56.22,32,56.27,32,56.31,32.11Z"/><path class="cls-70" d="M48.77,8c-.55.08-.78-.34-1.07-.67C48.2,7.34,48.37,7.87,48.77,8Z"/><path class="cls-71" d="M53.1,30.21c.4.13.44.45.41.8A.73.73,0,0,1,53.1,30.21Z"/><path class="cls-72" d="M56.57,32.53c-.34-.14.23-.62-.25-.7a.79.79,0,0,1-.27-.64,1.4,1.4,0,0,0-.27-.93c0-1.47-.21-2.93-.25-4.4a21.46,21.46,0,0,0-.6-3.16,20,20,0,0,0-1.12-3.27,8.07,8.07,0,0,0-1.18-1.93,5.83,5.83,0,0,1-.91-1.77c.25-.9-.47-1.3-.94-1.83a1,1,0,0,1,.15-.91l.13-.27c.78,1.24,1.53,2.51,2.37,3.71a15.48,15.48,0,0,1,1.35,3.3,24.78,24.78,0,0,1,1.1,5.44,42.7,42.7,0,0,1,.41,5.42C56.31,31.27,57.13,31.8,56.57,32.53Z"/><path class="cls-72" d="M51.06,12.72c0-.32.09-.64.13-1C51.16,12.08,51.32,12.43,51.06,12.72Z"/><path class="cls-10" d="M51.87,15.68c.58,1.17,1.41,2.19,2,3.31a14.9,14.9,0,0,1,1.38,4,29,29,0,0,1,.62,7.2c-.31.16-.38,0-.42-.28a2.37,2.37,0,0,0-.18-.82,2.26,2.26,0,0,1-.54-1.26,18.79,18.79,0,0,0-.93-2.26c-.25-.75-.54-1.48-.74-2.24-.46-2.15-1.84-4-2.15-6.19.46,0,.53.36.66.63A40,40,0,0,0,54,22.71a10.21,10.21,0,0,0-.8-2c-.69-1.46-1.1-3-1.88-4.45a1.06,1.06,0,0,1-.1-.84C51.53,15.22,51.69,15.48,51.87,15.68Z"/><path class="cls-39" d="M51.2,15.41c1,2.58,2.34,5.05,2.74,7.83l-3-6.07.12-1.89C51.19,15.24,51.23,15.29,51.2,15.41Z"/><path class="cls-73" d="M53.09,23.36c.76,1.92,1.53,3.85,2.29,5.78,0,.05-.09.05-.14,0L55.1,29h0a1.59,1.59,0,0,0-.13-.13c-.61-1.6-1.24-3.19-1.83-4.8A2.15,2.15,0,0,1,53.09,23.36Z"/><path class="cls-74" d="M51.2,15.41l-.14-.13L50.93,15a.49.49,0,0,0,0-.12c-.07-.27-.23-.54,0-.81l.43-.21c-.15.61.76.72.64,1.31a4.23,4.23,0,0,1-.13.51Z"/><path class="cls-75" d="M48.77,18.65a.43.43,0,0,1,0-.11,1.64,1.64,0,0,1,.16-.29c.57.2.59.83.94,1.2a.17.17,0,0,1-.27,0C49,19.46,49.25,18.71,48.77,18.65Z"/><path class="cls-76" d="M55.24,29.14h.14c.33.29-.11.94.52,1.08.09.32.17.63.26.94a.15.15,0,0,1-.25,0C55.91,30.41,55.14,29.92,55.24,29.14Z"/><path class="cls-77" d="M55.91,31.16h.25c.05.22.11.44.16.67s0,.19,0,.28h-.14C56.13,31.78,55.61,31.58,55.91,31.16Z"/><path class="cls-78" d="M48.91,18.25c.09.17,0,.27-.16.29l-.1,0C48.63,18.31,48.6,18.11,48.91,18.25Z"/><path class="cls-79" d="M49.58,19.45h.27v.36Z"/><path class="cls-76" d="M55,28.88a1.59,1.59,0,0,1,.13.13A1.59,1.59,0,0,0,55,28.88Z"/><path class="cls-76" d="M55.1,29l.14.13Z"/><path class="cls-80" d="M47.42,10c.26-.81-.22-1.53-.26-2.3.41,1.55,1.89,2.44,2.43,3.91a.18.18,0,0,0-.07,0,4.25,4.25,0,0,0-.51.14c-.33-.08-.46-.36-.64-.6Z"/><path class="cls-81" d="M50.93,14.07v.81c-.09-.18-.17-.36-.26-.53s-.14-.65-.4-.88a.41.41,0,0,1-.16,0,.32.32,0,0,1-.13-.1.3.3,0,0,1,0-.15c0-.12-.12-.2-.14-.31s-.17-.15-.23-.25a.47.47,0,0,1,0-.17c.14-.26-.15-.56.07-.81h0c.54.35,1.17.61,1.34,1.34Z"/><path class="cls-82" d="M48.37,11.24l.67.54a.47.47,0,0,1,.34.6l-.07.08C48.36,12.54,48.74,11.61,48.37,11.24Z"/><path class="cls-83" d="M50.13,13.4l.44-.32c0,.16,0,.33.06.49l0,.78-.41-.55C50.08,13.71,50,13.59,50.13,13.4Z"/><path class="cls-84" d="M50.13,13.4l.12.4c-.59.06-.6-.24-.4-.66,0-.07.09-.07.14,0a.49.49,0,0,0,0,.12l.12.13Z"/><path class="cls-82" d="M49.59,12.85l-.28-.39h0c.15-.07.21,0,.27.14h0A.19.19,0,0,1,49.59,12.85Z"/><path class="cls-85" d="M49.59,12.85v-.26l.26.27c0,.06-.09.06-.13,0Z"/><path class="cls-83" d="M49.72,12.86h.13l.14.28h-.14C49.81,13,49.76,13,49.72,12.86Z"/><path class="cls-85" d="M49.59,12.59l-.27-.14c-.09-.22-.18-.45-.28-.67.06-.51.32-.28.55-.13C49.62,12,50.08,12.27,49.59,12.59Z"/><path class="cls-83" d="M50.12,13.39,50,13.26Z"/></g></g></svg>