<svg xmlns="http://www.w3.org/2000/svg" viewBox="0 0 119.31 90.74"><defs><style>.cls-1{fill:#ff9197;}.cls-1,.cls-10,.cls-11,.cls-12,.cls-13,.cls-14,.cls-15,.cls-16,.cls-17,.cls-18,.cls-19,.cls-2,.cls-20,.cls-21,.cls-22,.cls-23,.cls-24,.cls-25,.cls-26,.cls-27,.cls-28,.cls-29,.cls-3,.cls-30,.cls-31,.cls-32,.cls-33,.cls-34,.cls-35,.cls-36,.cls-37,.cls-38,.cls-39,.cls-4,.cls-40,.cls-41,.cls-42,.cls-43,.cls-44,.cls-45,.cls-46,.cls-47,.cls-48,.cls-49,.cls-5,.cls-50,.cls-51,.cls-52,.cls-53,.cls-54,.cls-55,.cls-56,.cls-57,.cls-58,.cls-59,.cls-6,.cls-60,.cls-61,.cls-62,.cls-63,.cls-64,.cls-65,.cls-66,.cls-7,.cls-8,.cls-9{fill-rule:evenodd;}.cls-2{fill:#ff3c7b;}.cls-3{fill:#ffb883;}.cls-4{fill:#e10b69;}.cls-5{fill:#fe387b;}.cls-6{fill:#e6106c;}.cls-7{fill:#feac7f;}.cls-8{fill:#fe5384;}.cls-9{fill:#ffab83;}.cls-10{fill:#fe5b8d;}.cls-11{fill:#fe6190;}.cls-12{fill:#fed3e1;}.cls-13{fill:#fe5c90;}.cls-14{fill:#fe74a1;}.cls-15{fill:#feb4b8;}.cls-16{fill:#fea9ae;}.cls-17{fill:#feb5ba;}.cls-18{fill:#fea7c3;}.cls-19{fill:#fee1e3;}.cls-20{fill:#ff91b5;}.cls-21{fill:#feb0c9;}.cls-22{fill:#fea2c0;}.cls-23{fill:#fed3d8;}.cls-24{fill:#ff638b;}.cls-25{fill:#ff648b;}.cls-26{fill:#fe5182;}.cls-27{fill:#fe4d80;}.cls-28{fill:#fe5082;}.cls-29{fill:#fd2574;}.cls-30{fill:#ff7e92;}.cls-31{fill:#fe5483;}.cls-32{fill:#fe6c8b;}.cls-33{fill:#fe5683;}.cls-34{fill:#fe5083;}.cls-35{fill:#fe578d;}.cls-36{fill:#fe9bbb;}.cls-37{fill:#f92476;}.cls-38{fill:#fe91b4;}.cls-39{fill:#fe7ca7;}.cls-40{fill:#eb0f6c;}.cls-41{fill:#feaac5;}.cls-42{fill:#ffe8ef;}.cls-43{fill:#433a4a;}.cls-44{fill:#7a747f;}.cls-45{fill:#aca9af;}.cls-46{fill:#f68769;}.cls-47{fill:#ffe48f;}.cls-48{fill:#f53841;}.cls-49{fill:#fec794;}.cls-50{fill:#fba680;}.cls-51{fill:#ffd475;}.cls-52{fill:#f53942;}.cls-53{fill:#fec796;}.cls-54{fill:#fec795;}.cls-55{fill:#fdc594;}.cls-56{fill:#fec896;}.cls-57{fill:#f9b8a7;}.cls-58{fill:#f79679;}.cls-59{fill:#f7967b;}.cls-60{fill:#f9bdad;}.cls-61{fill:#fdddd5;}.cls-62{fill:#fee4d0;}.cls-63{fill:#faa87f;}.cls-64{fill:#faad82;}.cls-65{fill:#ffd278;}.cls-66{fill:#febd7a;}</style></defs><title>flower</title><g id="Layer_2" data-name="Layer 2"><g id="OBJECTS"><path class="cls-1" d="M18.3,60.18l-.25-.33c-.4-1.12-1.22-2-1.71-3.09a.84.84,0,0,1-.08-.27,4.64,4.64,0,0,0-.53-1.38c-.83-1.53-1.51-3.13-2.19-4.73-.45-1.08-.91-2.16-1.39-3.24a4.19,4.19,0,0,1-.26-1.41,22.28,22.28,0,0,0-1.16-4.23,1.38,1.38,0,0,1-.08-.27,12.83,12.83,0,0,1-.23-2.83.85.85,0,0,0-.08-.66A4.22,4.22,0,0,1,9.83,35l2.05,2a1.33,1.33,0,0,0,.65.32c2.05,2,4.15,3.86,6.12,5.89,1.63,1.67,3.12,3.49,4.79,5.38-.51-2.24-1.05-4.29-1.44-6.36a35.56,35.56,0,0,1,.75-14.66C23.56,24,24.26,20.46,25,16.91a3.8,3.8,0,0,1,.48-.94,4.8,4.8,0,0,1,.31-1.67c.07-.36.15-.72.22-1.09s.18-.73.21-1.11l1.17-5.78.13,0,.09.1a1.09,1.09,0,0,1,.1.25s0,.08,0,.13a.53.53,0,0,1,0,.13,3,3,0,0,0,.1.78,1.24,1.24,0,0,1,0,.27c.36,1.56-.09,3.14.17,4.72a19.4,19.4,0,0,1,.31,4,24,24,0,0,0-.15,3.39c-.18.48,0,1.1-.52,1.45-.21,0-.33.08-.17.3-.31,1.09.22,2.15.13,3.23-.29,1.07.31,2.11.15,3.18a2.19,2.19,0,0,0,.21,1.4l.06.26a6.45,6.45,0,0,1,.18,2.27,1.18,1.18,0,0,1,0,.27,1.06,1.06,0,0,1-.09.25c-.34.34-.19.7-.06,1.07a26.93,26.93,0,0,1,.28,4.3,2,2,0,0,0,0,.49c.63,2,.23,4.17.69,6.22.06.9-.71,1.66-.38,2.59a2.44,2.44,0,0,1,0,.27,12.61,12.61,0,0,0,.23,1.73,1.43,1.43,0,0,1,0,1c-.66.55-.78-.11-.92-.46-.51-1.22-.79-2.51-1.23-3.75a3.1,3.1,0,0,0-.52-1.14,47.85,47.85,0,0,0,2.95,9.56,17,17,0,0,1,.68,1.85c-.16,1.69.72,3.16,1,4.76a2.07,2.07,0,0,1,0,1.43c-.11.52-.37.71-.81.31a7.45,7.45,0,0,1-1.27-1.63c-1.62-2.65-3.38-5.19-5.13-7.75a.78.78,0,0,0-.48-.38c.79,1.49,1.86,2.71,2.32,4.26,0,.28.07.58-.3.69-.61-.18-.91-.75-1.29-1.18a46.3,46.3,0,0,0-6.78-6.65A7.89,7.89,0,0,0,18.4,52c1.89,2,3.78,4,5.64,6,1.39,1.51,2.5,3.23,3.74,4.86a52.76,52.76,0,0,1,4.49,6.39,1.19,1.19,0,0,1,.16.48c0,.35.06.78-.39.92s-.6-.21-.84-.42a30.88,30.88,0,0,1-5-6A41.54,41.54,0,0,0,20.4,56.8a27.2,27.2,0,0,0-3-2.39,37.93,37.93,0,0,1,4.29,4.4A35.73,35.73,0,0,1,24.85,63a47.76,47.76,0,0,0,6.08,7.31,14.09,14.09,0,0,1,1.7,2.3c.5.78,1,1.56,1.55,2.31a.86.86,0,0,1,.16.84c-.75,0-1-.71-1.25-1.11-2.11-3.6-6-5.22-8.81-8.06-2-2-4-4.09-5.87-6.25C18.41,60.23,18.38,60.19,18.3,60.18Z"/><path class="cls-2" d="M28.87,45c-.65-3.71-.71-7.48-1-11.23a1.09,1.09,0,0,1,.29-.91,5.26,5.26,0,0,0-.24-2.94h0c0-.24-.19-.47-.05-.71s0-.17,0-.25-.07-.46-.07-.7c.29-1-.37-2-.14-3a.79.79,0,0,0,.05-.58,4.58,4.58,0,0,1,.32-3.35c.16-.3,0-.67.16-1a22.88,22.88,0,0,0,.21-5,24,24,0,0,1-.41-4.46,12.87,12.87,0,0,0-.2-3.1h0c.12-.31-.15-.58-.11-.88h0a.34.34,0,0,0,0-.22.33.33,0,0,1,0-.22h0a7.79,7.79,0,0,1,.17-3.26v0c-.17-.58.16-1.15.05-1.74S27.31.2,28.15,0c.67-.15.63.7.82,1.11A67.52,67.52,0,0,0,34.73,11.4c1.79,2.58,1.42,5.56,1.7,8.43.12,1.22.25,2.44.37,3.66-.15,1.06.16,2.12-.07,3.17h0c-.18.36.39.44.28.78h0c-.6.61-.11,1.4-.33,2.07,0,1.86-.07,3.71-.1,5.57a1.67,1.67,0,0,0-.11.44.79.79,0,0,0,.16.44,1.37,1.37,0,0,1,.07.24,1.06,1.06,0,0,1,0,.25.84.84,0,0,1,0,.27c-.19.8,0,1.65-.25,2.45a2.75,2.75,0,0,0-.13,1.14l0,.26A3.61,3.61,0,0,1,36,42c.27,1.06-.22,2.13-.07,2.82-.21-.55.44-1.43.23-2.34a2.64,2.64,0,0,1,0-.28,3.1,3.1,0,0,1,.15-.52,6.92,6.92,0,0,0,.29-2.22,1.26,1.26,0,0,1,0-.27.72.72,0,0,1,.14-.24l.13-.06a.77.77,0,0,1,.72.87,5.47,5.47,0,0,0,.56,1.92,2.3,2.3,0,0,1,.06.28,2.44,2.44,0,0,1,0,.27v.14a2.53,2.53,0,0,1,0,.28,6,6,0,0,0,.3,2.87c.28.72-.21,1.35-.1,2.26a20.24,20.24,0,0,0,1.6-4,8.62,8.62,0,0,1,1.85-3.43c.45-.48.41-1.32,1-1.76.89-1.36,1.42-2.9,2.17-4.32a53.29,53.29,0,0,0,2.16-5.85c.1-.25.21-.53.5-.55s.35.25.4.48h0c-.2.46.15.82.22,1.23a.57.57,0,0,1,0,.26h0c0,.24.09.47.06.72A16.13,16.13,0,0,1,48,37.1c-.65,2.28-1,4.63-1.54,6.94a5,5,0,0,0-.49,2.19h0c0,.25-.36.25-.33.52s-.17.72-.25,1.08-.39.68-.24,1.1L44.65,50c-.1.23,0,.48,0,.71-.71.7-.53,1.71-.87,2.54-.34.63-.21,1.38-.53,2,0,.21.19.4.14.62-1.16,5-2.74,9.88-2,15.11.37,2.52.12,5.1,1,7.58a1.57,1.57,0,0,1-1.21,1.94,3,3,0,0,1-1-2A139,139,0,0,1,38.7,58.78a4.25,4.25,0,0,0-.31-1.91c-.4,2.25-.34,4.52-.55,6.77l-.06.28,0,.13a1.48,1.48,0,0,1-.14.25l-.11.1a.37.37,0,0,1-.39-.08.78.78,0,0,1-.16-.24c-.06-.18-.14-.35-.19-.54a37.47,37.47,0,0,1-.69-5.69,81.29,81.29,0,0,1-.62-9.49,8.74,8.74,0,0,0-.28-2,2.76,2.76,0,0,1-.5-2.88,1.86,1.86,0,0,0,.17-1.06c-.34-1.43.13-2.83.06-4.25a1.14,1.14,0,0,1,0-.49c.81-1.78.06-3.57,0-5.35A29.23,29.23,0,0,1,35.21,29c.13-1.18,0-2.37.09-3.55.11-2.71-.55-5.35-.44-8.06a11.89,11.89,0,0,0-2.34-7.3,2.1,2.1,0,0,1-.37-.69c-.4-1.79-1.65-3.13-2.44-4.72-.19-.38-.1-.83-.35-1.15a32.27,32.27,0,0,1,0,4.51c-.14,1.34.45,2.65.57,4a11.17,11.17,0,0,1,0,2.24,6.13,6.13,0,0,0,.44,3,2.14,2.14,0,0,1,0,2.08.63.63,0,0,0-.11.57,5.56,5.56,0,0,1,.06,2.33,4.26,4.26,0,0,1-.64,2.91c-.23.29,0,.71.12,1A2.59,2.59,0,0,1,30,28.14a3.22,3.22,0,0,0-.09,1.38,4.52,4.52,0,0,1-.12,2.25,1.27,1.27,0,0,0,0,.88c.65,1.82.14,3.7.25,5.54a.91.91,0,0,1-.31.8l-.19.12a.71.71,0,0,0-.15.15s0,.05,0,.08a.89.89,0,0,0,0,.28v.19c0,.06,0,.12,0,.18v.1a2.66,2.66,0,0,0,0,.28,1.5,1.5,0,0,1,0,.2c0,.1,0,.2,0,.3a1.48,1.48,0,0,1,0,.21c0,.11,0,.21,0,.32a1.27,1.27,0,0,0,0,.2,3,3,0,0,0,0,.31,1.5,1.5,0,0,1,0,.2l0,.21c0,.07,0,.13,0,.2a1.23,1.23,0,0,1,0,.2s0,.07,0,.11a1.29,1.29,0,0,1,0,.19s0,.07,0,.1,0,.13,0,.19l0,.09,0,.2v.09a1.15,1.15,0,0,0,0,.19v.4s0,.07,0,.1,0,.21,0,.31a1.92,1.92,0,0,1,0,.22,1.94,1.94,0,0,1,0,.24.36.36,0,0,1-.14.18.24.24,0,0,1-.23,0A.4.4,0,0,1,28.87,45Z"/><path class="cls-3" d="M12.15,45.66c.06.43.11.87.17,1.31.62,2,1.53,3.91,2.32,5.86.64,1.6,1.5,3.08,2.13,4.68.11.27.26.55,0,.83-1.71-2.12-3.39-4.27-5.15-6.34a88.86,88.86,0,0,1-8-11A23.57,23.57,0,0,1,.41,30.4C.33,29.52.12,28.65,0,27.77a1.56,1.56,0,0,1,.14-.52c.14.07.32.1.41.21a34.52,34.52,0,0,0,9.1,7c-.08.24-.43.44-.24.71.57.78.38,1.8.87,2.6.27.43.11.9.1,1.35a5.22,5.22,0,0,0,.5,2.17h0A26.13,26.13,0,0,0,12.15,45.66Z"/><path class="cls-4" d="M29.21,44.06a.51.51,0,0,0-.09-.16,1.35,1.35,0,0,1,.05-.29h0a2.74,2.74,0,0,1,0-.28h0c0-.1,0-.19.05-.28h0a2,2,0,0,0,.05-.26v0a1.84,1.84,0,0,0,.05-.25.91.91,0,0,0-.09-.17,2.7,2.7,0,0,0,0-.28h0c.05-.15-.09-.28,0-.44h0c0-.24,0-.48,0-.72h0c0-.15-.09-.29-.05-.44h0c0-.15-.1-.29,0-.44h0c0-.09,0-.18,0-.28h0c0-.15-.1-.28-.06-.44h0a2.56,2.56,0,0,0,.05-.27h0c.56-.17.65.28.76.62a10.74,10.74,0,0,1,.51,2.52,71.81,71.81,0,0,0,2.83,15.18c1,3.19,1.72,6.42,2.27,8.4a78.75,78.75,0,0,1-1.38-15,14.78,14.78,0,0,1,.18-3.45c.13-.53.2-1.29,1.12-1q.61,7.77,1.25,15.56c0,.59.19,1.17.29,1.76,0,.15.1.28.06.44h0a6.68,6.68,0,0,1,.39,2.21,1.06,1.06,0,0,0,.06.5c0,.25,0,.5,0,.75s.07.32.06.49.09.32,0,.5a1.59,1.59,0,0,0-.06.38,10,10,0,0,0,0,2.18,12.6,12.6,0,0,1,0-2.13,1.2,1.2,0,0,1,0-.38c0-.17,0-.33,0-.49s-.08-.32-.06-.48,0-.49,0-.74-.08-.33,0-.5a5.54,5.54,0,0,1,0-2.07h0c0-.09,0-.18,0-.28h0c0-.09,0-.18.05-.27.11-2.14.23-4.27.33-6.41,0-.5,0-1.19.56-1.18s.42.74.44,1.17c.2,4.57.26,9.16.6,13.72.23,3.18.38,6.42,1.62,9.45l-.7.4a2.36,2.36,0,0,1-1.72-1.47,34.85,34.85,0,0,0-3.29-4.89c-1-1.28-1.87-2.69-2.82-4a1,1,0,0,1-.19-.27,5.64,5.64,0,0,0-.78-2.36,6.42,6.42,0,0,1-.72-3.22c.23-.38.56-.41.81-.1A29.86,29.86,0,0,1,35.21,70c-1.94-4-2.54-8.53-4-12.74a33,33,0,0,1-1.42-6.37,36.15,36.15,0,0,1-.7-5.07,1.55,1.55,0,0,1,0-.31,2.54,2.54,0,0,0,.16-.28l-.09-.15a1.54,1.54,0,0,1,0-.3h0c0-.15-.1-.28,0-.44h0C29.18,44.24,29.2,44.15,29.21,44.06Z"/><path class="cls-1" d="M43.14,38.81c-1,1.67-2.29,3.12-2.86,5a4.19,4.19,0,0,0-.65,1.64.59.59,0,0,1-.54.51c-.41.08-.37-.28-.45-.51a6.71,6.71,0,0,1-.4-3.2,3.52,3.52,0,0,0-.39-1.71,18.35,18.35,0,0,1-.2-3.63c0-.33.16-.76-.42-.81a.25.25,0,0,1-.12-.22c.22-.63.45-1.25.67-1.88,0-.24.38-.23.4-.49h0c0-.09,0-.18.09-.27q2.46-5.58,4.91-11.18c.21-.53.33-1.1.59-1.61a1.15,1.15,0,0,1,.88-1.17c.58-.06.48.67.62,1.05.8,2.14,1.55,4.31,2.32,6.47a9,9,0,0,1-.71,2.6c-.35,1-.5,2-.87,3-.14.37-.14.74-.54.93-.09,0-.24.12-.22.17.27,1-.77,1.41-.84,2.28a3.73,3.73,0,0,1-.94,2A1.43,1.43,0,0,0,43.14,38.81Z"/><path class="cls-5" d="M32.59,70.2a71.27,71.27,0,0,1,6.38,9,4.09,4.09,0,0,0,1.47,1.66c-.59.31-1.09-.23-1.25-.48-.61-.93-1.69-1.25-2.38-2,.13-.31.39-.12.54-.14-1.34-2-2.7-3.93-4.15-5.84.22.22.29.41-.1.51C32,72.2,32.36,71.18,32.59,70.2Z"/><path class="cls-6" d="M33.2,72.91c-.06-.28-.12-.55-.21-1,2.1,2.2,3.48,4.73,5.22,7-.6.31-.81-.68-1.4-.47l-2.47-2.66-.41-.67a6.09,6.09,0,0,0-.63-1.28C33.14,73.5,32.93,73.23,33.2,72.91Z"/><path class="cls-7" d="M16.77,58.34c-1-2.28-2.1-4.53-3-6.84-.59-1.46-1-3-1.42-4.53l4.11,9c.11.25.23.49,0,.72h0c.75,1,1.67,1.84,1.66,3.19a.21.21,0,0,1-.11-.13c-.5-.37-.68-1-1.17-1.39Z"/><path class="cls-8" d="M43.14,38.81c-.64-.79.28-1.07.5-1.59a70.1,70.1,0,0,0,3.6-9.32c.09-.36-.42-.95.35-1.09l.54,1.54c-.27-.36-.47-.43-.63.1A54.78,54.78,0,0,1,43.14,38.81Z"/><path class="cls-9" d="M10.88,41.25c-1.31-1.17-.41-2.9-1.08-4.27a10.52,10.52,0,0,0-.68-1.6c-.49-.68-.35-1,.53-1l.18.58A21.05,21.05,0,0,1,10.88,41.25Z"/><path class="cls-10" d="M27.73,3.23c-.06,1.09-.12,2.17-.17,3.26l-.14-.17C27.33,5.27,26.94,4.19,27.73,3.23Z"/><path class="cls-11" d="M36.73,26.66c0-1.06-.38-2.12.07-3.17A4.85,4.85,0,0,1,36.73,26.66Z"/><path class="cls-12" d="M37.11,35.89l.15.16c.34.34.11.66,0,1s-.35.49-.64.28,0-.54,0-.82c0,0,0-.09,0-.14a.45.45,0,0,1,0-.28h0c0-.22-.27-.36-.21-.61l.24-.39C36.67,35.39,36.64,35.8,37.11,35.89Z"/><path class="cls-11" d="M36.68,29.49c-.1-.73-.52-1.5.33-2.07C36.7,28.08,37.19,28.86,36.68,29.49Z"/><path class="cls-13" d="M43,55.37c.49-.63,0-1.59.76-2.13-.14.64-.28,1.28-.43,1.92A.24.24,0,0,1,43,55.37Z"/><path class="cls-14" d="M45.93,46.23c-.5-.87.18-1.49.49-2.19C46.26,44.77,46.1,45.5,45.93,46.23Z"/><path class="cls-15" d="M25.82,14.3c.31.64-.21,1.11-.31,1.67C25.32,15.36,25.18,14.76,25.82,14.3Z"/><path class="cls-16" d="M43.77,20.46a2.18,2.18,0,0,1-.59,1.61C43.26,21.49,43.22,20.86,43.77,20.46Z"/><path class="cls-10" d="M27.78,1.51c.32.59,0,1.16-.05,1.74C27.4,2.66,27.68,2.09,27.78,1.51Z"/><path class="cls-3" d="M16.77,58.33c.66.23.78.92,1.17,1.39Z"/><path class="cls-8" d="M48.25,29.66c-.13-.43-.57-.83-.12-1.32.11.41.22.82.32,1.23A.14.14,0,0,1,48.25,29.66Z"/><path class="cls-17" d="M26.25,12.1c.33.44,0,.77-.21,1.11C25.88,12.8,25.8,12.4,26.25,12.1Z"/><path class="cls-11" d="M37,27.43c-.08-.27-.83-.29-.28-.78C36.71,27,37.48,27,37,27.43Z"/><path class="cls-18" d="M43,55.37l.33-.21c.14.24.35.47,0,.72Z"/><path class="cls-19" d="M12.53,37.32c-.49.45-.55,0-.65-.32Z"/><path class="cls-20" d="M45.11,48.94c-.34-.46-.11-.79.24-1.1Z"/><path class="cls-21" d="M48.41,30.55c-.15-.23-.34-.46-.06-.72C48.55,30.05,48.69,30.28,48.41,30.55Z"/><path class="cls-22" d="M44.6,50.7c-.16-.25-.26-.49,0-.71C44.63,50.23,44.62,50.47,44.6,50.7Z"/><path class="cls-23" d="M38.18,33.52c-.13.17-.26.33-.4.49C37.58,33.57,38,33.68,38.18,33.52Z"/><path class="cls-14" d="M45.6,46.76l.33-.52Z"/><path class="cls-7" d="M18.3,60.18a.39.39,0,0,1,.11.06s0,0,0,.07A.18.18,0,0,1,18.3,60.18Z"/><path class="cls-23" d="M38.27,33.25l-.09.27Z"/><path class="cls-21" d="M48.25,29.66l.2-.09a2.77,2.77,0,0,1-.1.26Z"/><path class="cls-24" d="M31.09,64.75c.28,1,.55,2,.83,3-.08.54.74,1,.13,1.6a108.76,108.76,0,0,0-14.23-17.5,4.65,4.65,0,0,1-1.54-2.57c1.1,0,1.34,1.09,2,1.6a39.61,39.61,0,0,1,6.94,7.23,2,2,0,0,1,1,1.19c.35.71.91,1.29,1.12,1.76a16.38,16.38,0,0,1-2-3.49c-.9-1.57-1.8-3.14-2.67-4.72-.1-.18-.18-.55-.1-.61.31-.24.45.09.61.28a94.91,94.91,0,0,1,6,8.73l1.19,1.78.32-.67a1,1,0,0,1,.49,1.23A4.34,4.34,0,0,0,31.09,64.75Z"/><path class="cls-2" d="M31.09,64.75c-.71-.69.3-1.66-.38-2.36.14-1.4-.63-2.6-.91-3.9a4.91,4.91,0,0,1-.11-1.9.6.6,0,0,1,.42.18,17.92,17.92,0,0,1,1.41,3,42.13,42.13,0,0,1-2.16-6.07c-.22-.58-.19-1.31-.89-1.63-.29-.35-.13-.68.06-1s.35-.48.3-.81-.07-.59-.11-.88a2.26,2.26,0,0,0-.22-1.76h0a2.75,2.75,0,0,1,.05-.57.73.73,0,0,0,0-.36,1.59,1.59,0,0,1,.69-1.22c1,8.55,3.66,16.71,6.34,25.24-1.38-2.06-2.55-3.83-3.75-5.57C31.68,65,31.66,64.26,31.09,64.75Z"/><path class="cls-24" d="M33.2,72.91c.24.71.48,1.43.73,2.15C29,68.86,24.07,62.66,19.1,56.49a29.45,29.45,0,0,0-2.37-2.22c-.15-.14-.1-.47-.14-.71a2.13,2.13,0,0,1,.69.2A33.64,33.64,0,0,1,25.91,63a38.33,38.33,0,0,0,5.73,7.16,2.49,2.49,0,0,0,.38.25l.21-.74a.27.27,0,0,1,.25.33l.11.16C33.06,71,32.19,72.18,33.2,72.91Z"/><path class="cls-25" d="M28.83,50.27c.63.69-.64,1.15-.22,1.82A2.51,2.51,0,0,1,29,54.73a53.8,53.8,0,0,1-3-9.25c-.09-.43-.27-1.09.28-1.21s.44.61.56,1c.55,1.58,1,3.18,1.59,4.76C28.41,50.19,28.34,50.78,28.83,50.27Z"/><path class="cls-26" d="M27.7,7.81c.61,1,.33,2.16.44,3.24.16,1.45.24,2.91.35,4.36-.16.45.25,1-.29,1.39A61.44,61.44,0,0,1,27.7,7.81Z"/><path class="cls-27" d="M28.2,16.8c.1-.47.19-.93.29-1.39a11.39,11.39,0,0,1-.27,5c-.14,0-.18-.06-.14-.18A6.71,6.71,0,0,1,28.2,16.8Z"/><path class="cls-28" d="M28.08,20.19l.14.18c-.19,1.63-.37,3.27-.55,4.9-.14,0-.18-.05-.13-.18a5.76,5.76,0,0,1-.15-3.46h0C28.1,21.39,27.59,20.55,28.08,20.19Z"/><path class="cls-29" d="M29,54.73c-.11-.88-.22-1.76-.34-2.64,1.05-.06.63.86.89,1.32A6.62,6.62,0,0,0,30,56c.14.28.37.68-.07,1-.09-.11-.18-.22-.26-.34Z"/><path class="cls-9" d="M12.15,45.66a7.77,7.77,0,0,1-1.27-4.41A16.05,16.05,0,0,1,12.15,45.66Z"/><path class="cls-26" d="M27.54,25.09l.13.18a5.05,5.05,0,0,1,.12,3c0,.11-.08.15-.19.11C27.81,27.3,26.85,26.21,27.54,25.09Z"/><path class="cls-30" d="M25.37,57.6q1.2,2,2.41,4l-.13.08c-.8-1.19-1.59-2.39-2.39-3.59C25.29,58,25.33,57.78,25.37,57.6Z"/><path class="cls-31" d="M29.22,45.48c-.15.5-.3,1-.44,1.49h0c-.09.22-.18.44-.28.66-.44-1,0-1.8.37-2.65l.24.34c.07,0,.11,0,.12.07s0,.08,0,.09Z"/><path class="cls-26" d="M27.88,29.9A3.91,3.91,0,0,1,28.27,33a.26.26,0,0,1-.21-.33h0c0-.09,0-.18.05-.28C28,31.55,28,30.72,27.88,29.9Z"/><path class="cls-31" d="M28.5,47.63c.55.53,1,1.07.22,1.76C28.65,48.8,28.58,48.22,28.5,47.63Z"/><path class="cls-5" d="M32.48,70l-.25-.33-.18-.33c0-.53-.09-1.07-.13-1.6A3.36,3.36,0,0,1,32.48,70Z"/><path class="cls-26" d="M27.6,28.41l.19-.11.26.77h0c-.06.28-.11.55-.17.83A1.45,1.45,0,0,1,27.6,28.41Z"/><path class="cls-32" d="M28.06,32.65l.21.33c-.14.26-.29.51-.44.77A.66.66,0,0,1,28.06,32.65Z"/><path class="cls-26" d="M27.59,6.93c.16.28.51.54.11.88C27.66,7.52,27.63,7.22,27.59,6.93Z"/><path class="cls-10" d="M27.56,6.49l.1.17a.11.11,0,0,1-.15.1C27.53,6.67,27.54,6.58,27.56,6.49Z"/><path class="cls-26" d="M27.51,6.76l.15-.1c0,.09-.05.18-.07.27A.89.89,0,0,1,27.51,6.76Z"/><path class="cls-28" d="M27.39,21.63h0Z"/><path class="cls-32" d="M28.11,32.37c0,.1,0,.19-.05.28C28.08,32.56,28.09,32.47,28.11,32.37Z"/><path class="cls-2" d="M35.5,46.33c-1.11.25-.88,1.18-.92,1.91a83.27,83.27,0,0,0,1.31,17.62c.08.45.1.9.19,1.71-1.21-2.57-1.46-5.06-2.25-7.37-2.25-6.53-3.13-13.33-4.06-20.12-.05-.37,0-.92-.56-1,1.16-.65.64-1.9.61-2.68a48.1,48.1,0,0,1,0-8.57,2.51,2.51,0,0,0-.18-1.33,1.67,1.67,0,0,1,.18-2c.82-1.06.37-2.53.37-3.76a15.63,15.63,0,0,0-.29-4.59c-.62-2.14-.21-4.47-.7-6.74C28.73,7.23,29,5,29,2.79c0-.12.15-.24.23-.36.23.49.46,1,.7,1.46.48.94.4,2.19,1.49,2.79.81.45.36,1.33.67,1.94a42.81,42.81,0,0,1,2.6,5.09A17.58,17.58,0,0,1,35.2,18c.16,1.88.19,3.75.52,5.65s-.09,4-.29,6.06a24,24,0,0,0,.23,6.1c.16,1-.41,2-.54,3.08-.22,1.8.37,3.64-.36,5.42C34.46,45,35,45.74,35.5,46.33Z"/><path class="cls-33" d="M38,40.35a2.32,2.32,0,0,1,.48,2,8.79,8.79,0,0,0,.57,3.5c.81-.42.24-1.73,1.25-2-.18,1.67-1.32,3-2,4.61-.09-2-.18-4-.28-5.93a2.61,2.61,0,0,0,.06-.27c0-.09,0-.19,0-.28h0C38.12,41.41,37.32,40.93,38,40.35Z"/><path class="cls-34" d="M38,40.35c0,.53.07,1.07.1,1.6-1-.75-.2-2.26-1.27-3-.64-.79.06-1.41.25-2.1.07-.27.14-.55.2-.83.17-.12.37-.36.51-.33.38.06.22.39.22.64C38,37.69,38,39,38,40.35Z"/><path class="cls-35" d="M36.45,42.35c-.21,1.2,0,2.49-.78,4.1.06-1.9.1-3.29.14-4.67l.12,0a.61.61,0,0,1,.17.19A.5.5,0,0,0,36.45,42.35Z"/><path class="cls-36" d="M37.06,36.88c-.08.7-.17,1.4-.25,2.1h0a1.09,1.09,0,0,0,0,.26.52.52,0,0,0,.06.16c-.08.22-.1.57-.44.46s-.3-.43-.19-.71l.33-2.67c.05.24.11.48.16.71C36.83,37.09,36.94,37,37.06,36.88Z"/><path class="cls-34" d="M36.21,39.15c.07.19.14.39.22.58l.41-.33a5,5,0,0,1-.34,2.39c-.21,0-.43.12-.65,0l0,0c.11-.46.22-.91.32-1.37h0C36.09,40,35.81,39.55,36.21,39.15Z"/><path class="cls-37" d="M37.49,64.31a3.66,3.66,0,0,1,0,2.15h0a4.61,4.61,0,0,1-.39-2.37Z"/><path class="cls-38" d="M35.85,41.8c.22-.18.43-.4.65,0l-.1.4a.24.24,0,0,1-.2,0A.66.66,0,0,1,36,42L35.89,42A.83.83,0,0,0,35.85,41.8Z"/><path class="cls-39" d="M36.34,35.45l.21.61C36.31,35.92,36,35.8,36.34,35.45Z"/><path class="cls-2" d="M29.27,40.91v0Z"/><path class="cls-38" d="M36.45,42.35c-.41.17-.6,0-.56-.4H36c.13,0,.2.17.33.2l.11,0A1.42,1.42,0,0,0,36.45,42.35Z"/><path class="cls-2" d="M29.22,40.47c0,.14,0,.29.05.44C29.26,40.76,29.24,40.61,29.22,40.47Z"/><path class="cls-2" d="M29.28,41.62c0,.15,0,.3,0,.44C29.31,41.92,29.29,41.77,29.28,41.62Z"/><path class="cls-2" d="M29.17,44.32c0,.15,0,.3,0,.44C29.2,44.62,29.18,44.47,29.17,44.32Z"/><path class="cls-2" d="M29.17,40c0,.14,0,.29,0,.44C29.2,40.32,29.19,40.17,29.17,40Z"/><path class="cls-37" d="M37.1,64.09,37,63.65Z"/><path class="cls-2" d="M29.16,39.31l.06.44Z"/><path class="cls-34" d="M38,42.23,38,42.5Z"/><path class="cls-2" d="M29.22,45.48l-.11-.16.16-.11A2.56,2.56,0,0,0,29.22,45.48Z"/><path class="cls-34" d="M38.08,42c0,.09,0,.19,0,.28C38.05,42.14,38.06,42,38.08,42Z"/><path class="cls-39" d="M36.55,36.06l0,.28Z"/><path class="cls-2" d="M29.22,39.75c0,.1,0,.19,0,.28C29.18,39.94,29.2,39.85,29.22,39.75Z"/><path class="cls-2" d="M29.21,39c0,.09,0,.18-.05.27C29.18,39.22,29.19,39.13,29.21,39Z"/><path class="cls-26" d="M28.05,29.07h0Z"/><path class="cls-2" d="M29.22,44.76c0,.1,0,.2,0,.29C29.19,45,29.21,44.86,29.22,44.76Z"/><path class="cls-34" d="M36.78,39.24l0-.26Z"/><path class="cls-2" d="M29.21,44.06c0,.09,0,.18,0,.27C29.18,44.24,29.2,44.15,29.21,44.06Z"/><path class="cls-2" d="M29.17,43.61c0,.09,0,.19-.05.29C29.14,43.8,29.15,43.7,29.17,43.61Z"/><path class="cls-2" d="M29.22,43.33c0,.1,0,.19,0,.28C29.18,43.52,29.2,43.43,29.22,43.33Z"/><path class="cls-2" d="M29.27,43.06c0,.09,0,.18-.05.28C29.24,43.24,29.25,43.15,29.27,43.06Z"/><path class="cls-2" d="M29.32,42.79c0,.09,0,.17-.05.26C29.29,43,29.3,42.88,29.32,42.79Z"/><path class="cls-2" d="M29.37,42.52l-.05.25Z"/><path class="cls-2" d="M29.32,42.07c0,.09,0,.19,0,.28C29.29,42.26,29.31,42.16,29.32,42.07Z"/><path class="cls-37" d="M37.54,64c0,.1,0,.19,0,.28C37.51,64.22,37.52,64.13,37.54,64Z"/><path class="cls-37" d="M37.59,63.76a2.56,2.56,0,0,1-.05.27A2.56,2.56,0,0,0,37.59,63.76Z"/><path class="cls-37" d="M37.6,68.77c.12,1.07.25,2.13.4,3.5a3.13,3.13,0,0,1-.4-3.5Z"/><path class="cls-37" d="M37.54,67.61v0Z"/><path class="cls-37" d="M37.54,66.9c0-.15,0-.29,0-.44h0C37.51,66.61,37.53,66.75,37.54,66.9Z"/><path class="cls-37" d="M37.6,68.05c0,.15,0,.3,0,.44h0l-.06-.45Z"/><path class="cls-37" d="M37.54,67.61l.06.44h0Z"/><path class="cls-37" d="M37.6,68.77l.06-.27h0c0,.1,0,.19,0,.28Z"/><path class="cls-1" d="M16.39,56.66h0Z"/><path class="cls-30" d="M28.23,62.45l-.07-.06,0,0A.81.81,0,0,1,28.23,62.45Z"/><path class="cls-40" d="M30,56.93c-.24-1.15-.49-2.3-.71-3.46,0-.07-.29-.31.08-.28.06,0,.12.15.18.22C30.27,55.6,31,57.79,31.8,60l-.3.13C31,59.06,30.46,58,30,56.93Z"/><path class="cls-31" d="M28.78,47h0Z"/><path class="cls-41" d="M36.13,40.42l.33-.09c0,.06,0,.11,0,.16l-.35-.08Z"/><path class="cls-42" d="M36.29,42.16,36,42Z"/><path class="cls-1" d="M59.74,58.94l.33-.23c1.15-.34,2.08-1.12,3.18-1.55a.67.67,0,0,1,.28-.06,4.79,4.79,0,0,0,1.4-.46c1.57-.75,3.2-1.34,4.84-1.94,1.1-.39,2.21-.79,3.3-1.22a4.08,4.08,0,0,1,1.43-.18,22.51,22.51,0,0,0,4.29-.94l.27-.07a13.48,13.48,0,0,1,2.84-.08.8.8,0,0,0,.66,0,4.19,4.19,0,0,1,2.76-.37l-2.1,1.94a1.35,1.35,0,0,0-.35.64c-2.06,1.94-4.08,3.94-6.2,5.8C74.91,61.72,73,63.11,71,64.68c2.28-.4,4.34-.82,6.43-1.1a35.59,35.59,0,0,1,14.6,1.51c3.5,1,7,1.88,10.53,2.84a4.29,4.29,0,0,1,.92.53,4.65,4.65,0,0,1,1.64.4l1.08.28c.38,0,.72.21,1.1.26l5.7,1.48,0,.12-.1.09a1.21,1.21,0,0,1-.25.08l-.13,0h-.14a2.57,2.57,0,0,0-.78.06.82.82,0,0,1-.27,0c-1.58.28-3.14-.25-4.72-.07a20.3,20.3,0,0,1-4,.1A23.88,23.88,0,0,0,99.17,71c-.47-.21-1.09,0-1.42-.59,0-.22-.06-.34-.29-.19-1.07-.37-2.15.11-3.22-.05-1.06-.34-2.13.21-3.19,0a2.2,2.2,0,0,0-1.41.13l-.27,0a6.66,6.66,0,0,1-2.27.07,1.28,1.28,0,0,1-.27-.05,1,1,0,0,1-.24-.09c-.32-.37-.7-.23-1.07-.12a25.73,25.73,0,0,1-4.3,0c-.17,0-.34-.07-.49,0-2.07.52-4.19,0-6.26.36-.89,0-1.62-.8-2.56-.52h-.27a11.34,11.34,0,0,0-1.74.14,1.5,1.5,0,0,1-1-.05c-.52-.69.15-.78.51-.9,1.24-.44,2.55-.66,3.81-1a3.07,3.07,0,0,0,1.16-.46,48.28,48.28,0,0,0-9.69,2.44,18,18,0,0,1-1.89.59c-1.68-.25-3.19.55-4.8.76a2,2,0,0,1-1.43-.09c-.52-.14-.69-.4-.27-.82A7,7,0,0,1,58,69.38c2.72-1.48,5.36-3.11,8-4.72a.75.75,0,0,0,.4-.46c-1.52.71-2.8,1.72-4.37,2.09-.28,0-.58,0-.67-.33.21-.61.79-.87,1.24-1.23a47,47,0,0,0,7-6.42,7.65,7.65,0,0,0-1.72,1.16c-2.08,1.78-4.15,3.57-6.26,5.32-1.58,1.31-3.36,2.32-5,3.47A51,51,0,0,1,50,72.41a1,1,0,0,1-.49.14c-.34,0-.78,0-.89-.44s.23-.58.46-.81a31,31,0,0,1,6.29-4.64A41.75,41.75,0,0,0,63,61.21a27,27,0,0,0,2.54-2.91,38.62,38.62,0,0,1-4.61,4.05,35.39,35.39,0,0,1-4.33,3A48.12,48.12,0,0,0,49,71a13.55,13.55,0,0,1-2.39,1.58c-.8.45-1.61.91-2.38,1.42a.87.87,0,0,1-.85.12c0-.75.77-1,1.17-1.19,3.71-1.92,5.54-5.72,8.52-8.37,2.14-1.91,4.29-3.78,6.55-5.54A.12.12,0,0,0,59.74,58.94Z"/><path class="cls-2" d="M74.36,70.3c3.74-.47,7.51-.33,11.27-.46a1.1,1.1,0,0,1,.89.34,5.29,5.29,0,0,0,3-.09h0c.24.06.48-.16.71,0s.17,0,.25,0,.47,0,.71,0c1,.35,2-.26,3,0a.79.79,0,0,0,.58.08,4.58,4.58,0,0,1,3.32.5c.29.17.67,0,1,.21a22.17,22.17,0,0,0,4.94.46,25.84,25.84,0,0,1,4.48-.17,12.85,12.85,0,0,0,3.1,0h0c.31.13.59-.12.89-.07h0a.28.28,0,0,0,.22,0,.33.33,0,0,1,.22,0h0a7.77,7.77,0,0,1,3.25.35h0c.59-.14,1.14.21,1.73.14s1.34-.4,1.48.44c.11.69-.74.59-1.16.76a68.63,68.63,0,0,0-10.56,5.22c-2.66,1.65-5.63,1.13-8.5,1.25l-3.68.18c-1.05-.21-2.12,0-3.16-.24h0c-.35-.21-.46.36-.79.23h0c-.57-.63-1.38-.18-2-.43l-5.56-.4a2.35,2.35,0,0,0-.43-.13.87.87,0,0,0-.45.13,1.05,1.05,0,0,1-.24.06,1.13,1.13,0,0,1-.26,0,.75.75,0,0,1-.26,0c-.8-.23-1.65-.11-2.44-.38a2.9,2.9,0,0,0-1.13-.2,1.09,1.09,0,0,1-.26,0,3.59,3.59,0,0,1-1.4-.37c-1.07.21-2.12-.33-2.81-.22.56-.18,1.4.51,2.33.35l.27,0a2.59,2.59,0,0,1,.51.18,7.2,7.2,0,0,0,2.2.41.81.81,0,0,1,.27,0,.91.91,0,0,1,.23.15l.06.13a.79.79,0,0,1-.91.68,5.35,5.35,0,0,0-2,.45l-.27,0H76.5l-.28,0a6.1,6.1,0,0,0-2.88.15c-.73.25-1.34-.28-2.26-.22A20.13,20.13,0,0,0,75,81.51a8.44,8.44,0,0,1,3.33,2c.46.47,1.3.47,1.71,1.1,1.31,1,2.81,1.57,4.19,2.39a51.73,51.73,0,0,0,5.73,2.46c.24.11.52.24.53.54s-.27.33-.51.37h0c-.45-.22-.82.11-1.24.16a.58.58,0,0,1-.26,0h0c-.25-.05-.48.07-.73,0a16.11,16.11,0,0,1-6.52-.79c-2.23-.77-4.56-1.28-6.85-1.9a4.94,4.94,0,0,0-2.16-.61h0c-.25,0-.23-.37-.5-.35l-1.06-.31c-.35-.15-.67-.42-1.09-.3l-1-.52c-.22-.11-.47,0-.7-.07-.66-.75-1.68-.63-2.49-1-.61-.38-1.37-.28-2-.63-.21,0-.41.17-.63.1-4.9-1.42-9.72-3.25-15-2.74-2.54.24-5.11-.15-7.63.56-.88.25-1.59-.37-1.87-1.31a2.89,2.89,0,0,1,2-.92,139.47,139.47,0,0,1,19.82-.38,4.22,4.22,0,0,0,1.92-.2c-2.22-.52-4.49-.58-6.73-.91L55,78.2l-.13,0A1.67,1.67,0,0,1,54.6,78a.44.44,0,0,1-.08-.11.37.37,0,0,1,.09-.39.89.89,0,0,1,.25-.14,5.52,5.52,0,0,1,.54-.16,37.88,37.88,0,0,1,5.73-.39,79.37,79.37,0,0,1,9.51-.13,8.25,8.25,0,0,0,2-.17,2.75,2.75,0,0,1,2.9-.35,1.81,1.81,0,0,0,1.06.22c1.44-.26,2.81.29,4.23.29a1.12,1.12,0,0,1,.49.06c1.74.9,3.56.24,5.34.31a27,27,0,0,1,3.34.44c1.18.18,2.37.16,3.54.27,2.7.25,5.38-.27,8.07,0a11.81,11.81,0,0,0,7.41-2,2,2,0,0,1,.72-.33c1.8-.31,3.21-1.49,4.84-2.19.38-.17.83-.06,1.17-.29a32.65,32.65,0,0,1-4.51-.21c-1.34-.21-2.67.31-4,.36A11.24,11.24,0,0,1,105,73a6.22,6.22,0,0,0-3,.28,2.11,2.11,0,0,1-2.08-.1.64.64,0,0,0-.56-.13A5.76,5.76,0,0,1,97,73a4.23,4.23,0,0,1-2.86-.8c-.28-.25-.71-.08-1,.07a2.6,2.6,0,0,1-1.94,0,3.18,3.18,0,0,0-1.37-.17,4.4,4.4,0,0,1-2.24-.24,1.27,1.27,0,0,0-.88,0c-1.85.55-3.7-.06-5.55,0a.93.93,0,0,1-.78-.35,2.12,2.12,0,0,1-.11-.21,1,1,0,0,0-.14-.15l-.08,0a.86.86,0,0,0-.27,0H79.5l-.19,0h-.38l-.2,0-.3,0h-.21c-.1,0-.21,0-.31,0h-.52l-.2,0h-.41l-.2,0-.1,0-.2-.05-.09,0-.19,0-.1,0-.18,0h-.49l-.2,0H74.4a.85.85,0,0,1-.23,0,.34.34,0,0,1-.18-.15.24.24,0,0,1,0-.23A.38.38,0,0,1,74.36,70.3Z"/><path class="cls-3" d="M74.56,53.56l-1.32.1c-2,.51-4,1.33-6,2-1.63.55-3.16,1.34-4.79,1.88-.28.09-.56.23-.83,0,2.21-1.6,4.44-3.16,6.61-4.81a88.2,88.2,0,0,1,11.43-7.4,23.75,23.75,0,0,1,10.72-2.67c.88,0,1.76-.19,2.64-.26a1.3,1.3,0,0,1,.52.16c-.08.13-.12.31-.23.4a34.89,34.89,0,0,0-7.43,8.72c-.23-.09-.42-.45-.69-.27-.81.53-1.82.28-2.64.73-.45.25-.91.06-1.36,0a5.42,5.42,0,0,0-2.19.39h0A27.36,27.36,0,0,0,74.56,53.56Z"/><path class="cls-4" d="M75.26,70.68l.17-.08a1.4,1.4,0,0,1,.28.06h0l.27.07h0l.27.06h0l.26.07h0a1,1,0,0,0,.25.06l.17-.08.28.06h0c.15,0,.29-.08.44,0h0c.24,0,.48,0,.72,0h0c.15,0,.29-.08.45,0h0c.15,0,.29-.08.45,0h0a2.3,2.3,0,0,1,.28.06h0c.15,0,.29-.08.44,0h0l.27.07h0c.14.56-.31.63-.65.73a10.46,10.46,0,0,1-2.55.36,72.39,72.39,0,0,0-15.31,2c-3.23.81-6.5,1.37-8.51,1.83a78.66,78.66,0,0,1,15.06-.6,14.79,14.79,0,0,1,3.44.36c.52.16,1.27.27.91,1.17l-15.61.43c-.59,0-1.18.13-1.77.2-.16,0-.29.09-.45,0h0a6.7,6.7,0,0,1-2.22.27,1.24,1.24,0,0,0-.51,0l-.75,0c-.16,0-.32,0-.49,0s-.33.07-.5,0a1.59,1.59,0,0,0-.38-.07,10.17,10.17,0,0,0-2.18-.11,12,12,0,0,1,2.13.11,1.21,1.21,0,0,1,.38.06c.17.06.33,0,.49,0s.32-.07.49,0,.49,0,.73,0,.33-.06.5,0a5.35,5.35,0,0,1,2.07.11h0l.27.07h0l.28.07c2.12.22,4.25.45,6.38.66.49,0,1.19.06,1.15.63s-.76.37-1.2.37c-4.57,0-9.15-.22-13.72-.12-3.2.06-6.44,0-9.53,1.12L37.87,80c.15-.9.86-1.3,1.56-1.64a34.46,34.46,0,0,0,5-3c1.33-1,2.79-1.73,4.18-2.6a.75.75,0,0,1,.28-.18,5.64,5.64,0,0,0,2.4-.66,6.36,6.36,0,0,1,3.25-.54c.36.24.38.58,0,.81a29.61,29.61,0,0,1-5.58,3.19C53.2,73.58,57.71,73.23,62,72a33.38,33.38,0,0,1,6.43-1.09,38.17,38.17,0,0,1,5.11-.44,1.7,1.7,0,0,1,.31.06l.27.17.16-.08a1,1,0,0,1,.29.05h0c.15,0,.3-.09.45,0h0Z"/><path class="cls-1" d="M79.77,84.87c-1.62-1-3-2.46-4.85-3.12A4.3,4.3,0,0,0,73.31,81a.59.59,0,0,1-.48-.56c-.06-.42.3-.35.53-.43a6.76,6.76,0,0,1,3.22-.23,3.33,3.33,0,0,0,1.73-.3,19.14,19.14,0,0,1,3.63,0c.34,0,.76.2.84-.37A.23.23,0,0,1,83,79l1.83.77c.24,0,.21.39.47.42h0l.26.1,10.91,5.49c.52.24,1.08.39,1.58.68.58.07,1.1.42,1.12.93s-.69.45-1.08.57c-2.18.69-4.38,1.33-6.58,2A9,9,0,0,1,89,89.09c-.95-.4-2-.6-2.94-1-.36-.16-.73-.18-.9-.59,0-.09-.11-.25-.16-.23-1,.22-1.37-.84-2.23-1a3.76,3.76,0,0,1-1.92-1A1.41,1.41,0,0,0,79.77,84.87Z"/><path class="cls-5" d="M49,72.68a70.7,70.7,0,0,1-9.38,5.9A4.07,4.07,0,0,0,37.87,80c-.27-.6.29-1.07.54-1.22,1-.57,1.34-1.63,2.17-2.27.3.15.1.39.11.54,2-1.23,4.06-2.49,6-3.84-.22.22-.42.28-.5-.12C47,72,48,72.4,49,72.68Z"/><path class="cls-6" d="M46.24,73.15l1-.16C45,75,42.37,76.22,40,77.84c-.28-.61.73-.77.55-1.37l2.78-2.33.7-.38a6,6,0,0,0,1.31-.56C45.65,73.06,45.93,72.87,46.24,73.15Z"/><path class="cls-7" d="M61.65,57.51c2.33-.9,4.64-1.86,7-2.67,1.49-.51,3.06-.8,4.6-1.18l-9.19,3.63c-.25.1-.5.21-.71-.07h0c-1,.7-1.93,1.57-3.28,1.49a.26.26,0,0,1,.14-.11c.4-.48,1-.63,1.45-1.09Z"/><path class="cls-8" d="M79.77,84.87c.82-.61,1,.33,1.56.58a68.94,68.94,0,0,0,9.12,4.08c.35.12,1-.36,1.07.41L90,90.4c.38-.26.46-.45-.06-.64A54.89,54.89,0,0,1,79.77,84.87Z"/><path class="cls-9" d="M79,52.52c1.24-1.24,2.92-.26,4.32-.85a10.73,10.73,0,0,0,1.63-.6c.7-.45,1-.29.93.58l-.59.15A20.87,20.87,0,0,1,79,52.52Z"/><path class="cls-10" d="M116.11,71.35,112.86,71l.17-.12C114.09,70.84,115.19,70.51,116.11,71.35Z"/><path class="cls-11" d="M92.24,79.1c1.06,0,2.14-.26,3.16.24A4.84,4.84,0,0,1,92.24,79.1Z"/><path class="cls-12" d="M83,79l-.17.14c-.36.32-.67.07-1-.09s-.46-.37-.24-.65.54,0,.82,0l.14,0a.54.54,0,0,1,.28.05h0c.22,0,.37-.25.62-.18l.38.26C83.52,78.58,83.12,78.54,83,79Z"/><path class="cls-11" d="M89.42,78.91c.72-.07,1.52-.45,2,.43C90.82,79,90,79.45,89.42,78.91Z"/><path class="cls-13" d="M63.24,83.83c.6.52,1.58.12,2.09.87l-1.9-.53A.24.24,0,0,1,63.24,83.83Z"/><path class="cls-14" d="M72.21,87.26c.9-.45,1.48.26,2.16.61Z"/><path class="cls-15" d="M105.15,68.86c-.65.27-1.09-.27-1.64-.4C104.13,68.3,104.73,68.2,105.15,68.86Z"/><path class="cls-16" d="M98.06,86.46a2.18,2.18,0,0,1-1.58-.68C97.06,85.9,97.69,85.89,98.06,86.46Z"/><path class="cls-10" d="M117.82,71.49c-.6.29-1.16-.06-1.73-.14C116.69,71.05,117.25,71.36,117.82,71.49Z"/><path class="cls-3" d="M61.66,57.51c-.27.65-1,.73-1.45,1.09Z"/><path class="cls-8" d="M88.64,90.45c.44-.1.86-.53,1.32,0l-1.24.26A.14.14,0,0,1,88.64,90.45Z"/><path class="cls-17" d="M107.33,69.4c-.46.31-.77-.05-1.1-.26C106.65,69,107.06,68.94,107.33,69.4Z"/><path class="cls-11" d="M91.46,79.34c.27-.06.33-.81.79-.23C92,79.07,91.9,79.84,91.46,79.34Z"/><path class="cls-18" d="M63.24,83.83c.06.11.12.23.19.34-.24.12-.48.32-.72,0Z"/><path class="cls-19" d="M82.87,54.38c-.43-.51,0-.55.35-.64Z"/><path class="cls-20" d="M69.55,86.3c.48-.32.8-.06,1.09.3Z"/><path class="cls-21" d="M87.74,90.56c.24-.13.48-.31.73,0C88.23,90.73,88,90.86,87.74,90.56Z"/><path class="cls-22" d="M67.82,85.71c.25-.16.5-.25.7.07Z"/><path class="cls-23" d="M85.31,80.19l-.47-.42C85.29,79.59,85.17,80,85.31,80.19Z"/><path class="cls-14" d="M71.7,86.91l.5.35Z"/><path class="cls-7" d="M59.74,58.94a.41.41,0,0,1-.07.11s-.05,0-.07,0A.17.17,0,0,1,59.74,58.94Z"/><path class="cls-23" d="M85.57,80.29l-.26-.1Z"/><path class="cls-21" d="M88.64,90.45l.08.21-.26-.12Z"/><path class="cls-24" d="M54.49,71.47l-3.06.67c-.54-.11-1,.69-1.6,0A108.75,108.75,0,0,0,68.05,58.9a4.71,4.71,0,0,1,2.64-1.41c0,1.1-1.15,1.29-1.7,1.95A39.21,39.21,0,0,1,61.4,66a1.93,1.93,0,0,1-1.23.9c-.74.31-1.34.84-1.82,1a16.46,16.46,0,0,1,3.59-1.79c1.62-.81,3.23-1.62,4.86-2.42.18-.09.55-.14.61-.06.22.32-.12.44-.32.59a99,99,0,0,1-9,5.53l-1.85,1.09.66.36a1,1,0,0,1-1.26.42A4.75,4.75,0,0,0,54.49,71.47Z"/><path class="cls-2" d="M54.49,71.47c.74-.67,1.65.39,2.39-.25,1.39.21,2.62-.5,3.94-.7a4.86,4.86,0,0,1,1.9,0,.62.62,0,0,1-.2.42,18.19,18.19,0,0,1-3.08,1.24,42.83,42.83,0,0,1,6.17-1.83c.6-.2,1.32-.13,1.68-.81.36-.27.69-.09,1,.11s.47.38.79.35l.89-.07a2.32,2.32,0,0,0,1.77-.12h0a2.1,2.1,0,0,1,.56.08.73.73,0,0,0,.36,0,1.62,1.62,0,0,1,1.19.75c-8.6.59-16.88,2.78-25.54,5,2.13-1.27,4-2.34,5.76-3.45C54.26,72.05,55,72.07,54.49,71.47Z"/><path class="cls-24" d="M46.24,73.15l-2.18.61c6.44-4.6,12.9-9.19,19.32-13.83a29,29,0,0,0,2.33-2.25c.15-.14.48-.07.73-.1a2.38,2.38,0,0,1-.24.68,33.66,33.66,0,0,1-9.72,8.13A38.38,38.38,0,0,0,49,71.73a2.51,2.51,0,0,0-.27.37l.73.25a.28.28,0,0,1-.35.23l-.16.1C48.11,73.11,47,72.18,46.24,73.15Z"/><path class="cls-25" d="M69.07,70c-.72.59-1.11-.7-1.8-.32a2.53,2.53,0,0,1-2.66.21A52.77,52.77,0,0,1,74,67.32c.42-.07,1.1-.21,1.18.35s-.62.4-1,.5c-1.61.47-3.23.89-4.84,1.34C69.18,69.56,68.6,69.46,69.07,70Z"/><path class="cls-26" d="M111.53,71.08c-1,.55-2.17.21-3.26.27-1.45.08-2.91.08-4.37.11-.43-.18-1,.2-1.36-.35A60,60,0,0,1,111.53,71.08Z"/><path class="cls-27" d="M102.54,71.11l1.36.35A11.15,11.15,0,0,1,99,70.93c0-.13.06-.17.19-.13A6.72,6.72,0,0,1,102.54,71.11Z"/><path class="cls-28" d="M99.16,70.8l-.19.13-4.87-.8c0-.14.07-.18.19-.13a5.83,5.83,0,0,1,3.46,0h0C98,70.77,98.82,70.3,99.16,70.8Z"/><path class="cls-29" d="M64.61,69.87l2.66-.21c0,1-.89.58-1.37.82a6.66,6.66,0,0,0-2.58.38c-.29.13-.7.34-1-.12l.36-.24C63.35,70.29,64,70.07,64.61,69.87Z"/><path class="cls-9" d="M74.56,53.56a7.77,7.77,0,0,1,4.47-1A15.64,15.64,0,0,1,74.56,53.56Z"/><path class="cls-26" d="M94.29,70l-.19.13c-1,.12-2,.46-3,0-.11,0-.15-.09-.1-.19C92.07,70.16,93.2,69.26,94.29,70Z"/><path class="cls-30" d="M61.94,66.13l-4.18,2.2s0-.09-.07-.13L61.4,66Z"/><path class="cls-31" d="M73.84,70.61l-1.46-.51h0l-.65-.31c1-.39,1.79.11,2.63.51l-.35.21q0,.1-.09.12s-.07,0-.08,0Z"/><path class="cls-26" d="M89.47,70.09a3.94,3.94,0,0,1-3.1.24.26.26,0,0,1,.34-.2h0l.28.06Z"/><path class="cls-31" d="M71.73,69.79c-.56.51-1.12.9-1.77.12Z"/><path class="cls-5" d="M49.14,72.58l.35-.23.34-.17,1.6,0A3.4,3.4,0,0,1,49.14,72.58Z"/><path class="cls-26" d="M91,69.9c0,.06.07.12.1.19l-.78.22h0l-.82-.22A1.45,1.45,0,0,1,91,69.9Z"/><path class="cls-32" d="M86.71,70.13l-.34.2-.74-.49A.65.65,0,0,1,86.71,70.13Z"/><path class="cls-26" d="M112.42,71c-.29.15-.56.48-.89.07Z"/><path class="cls-10" d="M112.86,71l-.17.09a.11.11,0,0,1-.1-.15Z"/><path class="cls-26" d="M112.59,70.94l.1.15-.27-.08Z"/><path class="cls-28" d="M97.75,70a.25.25,0,0,0,0-.08V70Z"/><path class="cls-32" d="M87,70.19l-.28-.06Z"/><path class="cls-2" d="M72.67,76.84c-.2-1.12-1.14-.94-1.87-1a82.11,82.11,0,0,0-17.66.38c-.45.05-.91.05-1.72.09,2.63-1.07,5.13-1.18,7.48-1.86,6.64-1.89,13.47-2.42,20.31-3,.36,0,.91.08,1.07-.5.59,1.19,1.86.73,2.64.74a49.14,49.14,0,0,1,8.57.43A2.51,2.51,0,0,0,92.82,72a1.67,1.67,0,0,1,2,.29c1,.88,2.51.51,3.73.57a16.22,16.22,0,0,0,4.61-.05c2.17-.51,4.47,0,6.76-.34,2.12-.35,4.36,0,6.54.15.12,0,.24.16.35.25-.5.2-1,.4-1.5.62-1,.43-2.2.28-2.86,1.34-.5.78-1.34.28-2,.57a43.38,43.38,0,0,1-5.23,2.32A17.26,17.26,0,0,1,101,78c-1.89.06-3.76,0-5.67.23s-4-.31-6-.61a24,24,0,0,0-6.11-.09c-1,.1-2-.52-3-.7-1.8-.31-3.66.17-5.41-.65C74,75.87,73.28,76.36,72.67,76.84Z"/><path class="cls-33" d="M78.5,79.63a2.33,2.33,0,0,1-2,.38,8.85,8.85,0,0,0-3.53.38c.38.83,1.72.34,2,1.36-1.66-.27-2.91-1.47-4.5-2.27l5.93,0,.28.07.27.07h0C77.43,79.72,78,78.94,78.5,79.63Z"/><path class="cls-34" d="M78.5,79.63l-1.6,0c.8-.94,2.26-.09,3-1.11.82-.6,1.41.13,2.08.36l.83.24c.1.18.33.38.3.53-.08.37-.4.2-.65.19Z"/><path class="cls-35" d="M76.59,78c-1.19-.27-2.49-.15-4-1l4.65.39a.54.54,0,0,1,0,.11.53.53,0,0,1-.2.16A.49.49,0,0,0,76.59,78Z"/><path class="cls-36" d="M82,78.9l-2.08-.36h0a1.09,1.09,0,0,0-.26-.05l-.16.05c-.22-.09-.56-.12-.43-.46s.44-.28.72-.15l2.64.47-.72.12C81.82,78.65,81.92,78.77,82,78.9Z"/><path class="cls-34" d="M79.8,77.93l-.6.18.31.43a4.86,4.86,0,0,1-2.37-.46c0-.21-.1-.44,0-.65l0,0,1.35.39h0C79,77.77,79.42,77.5,79.8,77.93Z"/><path class="cls-37" d="M54.6,77.89a3.72,3.72,0,0,1-2.14-.12h0a4.6,4.6,0,0,1,2.38-.26Z"/><path class="cls-38" d="M77.17,77.43c.16.23.37.45,0,.65L76.75,78a.21.21,0,0,1,0-.2.58.58,0,0,1,.21-.23l.08-.07Z"/><path class="cls-39" d="M83.48,78.25l-.62.18C83,78.2,83.15,77.89,83.48,78.25Z"/><path class="cls-2" d="M78.4,70.91l-.72,0Z"/><path class="cls-38" d="M76.59,78c-.16-.42,0-.6.43-.54l0,.07c0,.13-.18.19-.22.32l0,.11Z"/><path class="cls-2" d="M78.85,70.88l-.45,0Z"/><path class="cls-2" d="M77.69,70.87l-.44,0Z"/><path class="cls-2" d="M75,70.62l-.45,0Z"/><path class="cls-2" d="M79.29,70.85l-.45,0Z"/><path class="cls-37" d="M54.84,77.51l.45,0Z"/><path class="cls-2" d="M80,70.88l-.44,0Z"/><path class="cls-34" d="M76.63,79.58l-.28-.07Z"/><path class="cls-2" d="M73.84,70.61l.17-.1.1.17Z"/><path class="cls-34" d="M76.9,79.65l-.27-.07Z"/><path class="cls-39" d="M82.86,78.43l-.28-.05Z"/><path class="cls-2" d="M79.56,70.91l-.28-.06Z"/><path class="cls-2" d="M80.27,71,80,70.88Z"/><path class="cls-26" d="M90.29,70.31v0Z"/><path class="cls-2" d="M74.56,70.65l-.29-.05Z"/><path class="cls-34" d="M79.67,78.49l.26.05Z"/><path class="cls-2" d="M75.26,70.68,75,70.62Z"/><path class="cls-2" d="M75.71,70.66l-.28-.06Z"/><path class="cls-2" d="M76,70.73l-.27-.07Z"/><path class="cls-2" d="M76.25,70.79,76,70.73Z"/><path class="cls-2" d="M76.52,70.86l-.26-.07Z"/><path class="cls-2" d="M76.79,70.92l-.25-.06Z"/><path class="cls-2" d="M77.24,70.9,77,70.84Z"/><path class="cls-37" d="M54.87,78l-.27-.07Z"/><path class="cls-37" d="M55.15,78,54.87,78Z"/><path class="cls-37" d="M50.14,77.76,46.63,78a3.14,3.14,0,0,1,3.51-.22Z"/><path class="cls-37" d="M51.3,77.76l.71,0Z"/><path class="cls-37" d="M52,77.8l.45,0h0Z"/><path class="cls-37" d="M50.86,77.8l-.45,0h0l.45,0Z"/><path class="cls-37" d="M51.3,77.76l-.44,0h0Z"/><path class="cls-37" d="M50.14,77.76l.27.07h0l-.27-.07Z"/><path class="cls-1" d="M63.35,57.22a.22.22,0,0,1,0-.08v.08Z"/><path class="cls-30" d="M57,68.74l.06-.07.05,0Z"/><path class="cls-40" d="M62.36,70.74c1.17-.18,2.33-.36,3.5-.52.07,0,.32-.28.27.09,0,.06-.15.11-.23.17l-6.68,2-.12-.31Z"/><path class="cls-31" d="M72.38,70.1v0Z"/><path class="cls-41" d="M78.53,77.78c0,.11,0,.23.07.34h-.16c0-.12.07-.23.1-.34Z"/><path class="cls-42" d="M76.78,77.85l.22-.32Z"/><path class="cls-43" d="M47,30.43c-1.18,3.92-3.09,7.66-2.84,11.93.25,4.08-1.15,8.09-.51,12.28a49.56,49.56,0,0,0,3.84-7c4.43-9.33,10.6-17.14,19.74-22.33a10.21,10.21,0,0,0,3.84-3.74c.26-.45.6-1,1.25-.91.11,0,.12.84.08,1.28a140.86,140.86,0,0,1-2.66,18.4C69,43.89,66.44,46.44,64.06,49a34.91,34.91,0,0,1-13,8.46c-3,1.23-4.48,3.67-6.09,6.28,9.76-7.59,22.41-9.52,32.22-16.59.56,8.42-7,17.14-13.83,20.26-5,2.26-10.22,3.09-15.34,4.58a9,9,0,0,0-6.81,7.21c-.17.82-.4,1.48-1.48,1.37s-.94-1-.86-1.56c.55-4.46-1.37-8.45-2.28-12.63-1-4.37-.38-8.79-.25-13.17C36.58,46.36,39.05,40.08,42,34c.93-1.92,2.9-2.64,4.47-3.82a.6.6,0,0,1,.27-.2l.23-.13A.45.45,0,0,1,47,30.43Z"/><path class="cls-44" d="M47,30.43l0-.6c.08-.08.15-.17.22-.25a.23.23,0,0,1,.35.06Z"/><path class="cls-45" d="M47.55,29.64l-.35-.06.5-.24Z"/><path class="cls-44" d="M46.75,30l-.27.2Z"/><path class="cls-46" d="M55.14,8a2.21,2.21,0,0,1,0,1.52c-.84,3-1.7,6-3.71,8.43-.33-.37-.11-.77,0-1.14.41-2,.81-3.9,1.06-5.88a1.67,1.67,0,0,0-.1-1.15,1.82,1.82,0,0,0-.47,1.12c-.49,2.63-1,5.26-1.62,7.87,0,.25,0,.53-.25.72-1.13-.83-1-2.16-1.22-3.31a6.77,6.77,0,0,1,0-1.56c-.13-.88.41-1.6.63-2.41.4-1.55.89-3.07,1.24-4.64.12-1.22,1-1.7,2-2a.41.41,0,0,1,.19,0,7.82,7.82,0,0,1,1.81,1.31C54.92,7.17,54.93,7.6,55.14,8Z"/><path class="cls-47" d="M39.82,35.42A20,20,0,0,1,37,31.08a12,12,0,0,1-1.2-5.88c.11-1.34,1.23-1.51,2.16-1.78s1.08.51,1.38,1.12a24.93,24.93,0,0,1,2.06,7.07,29.22,29.22,0,0,1-.13,5.6c0,.3-.15.4-.38.13a28,28,0,0,1-.44-3,13.33,13.33,0,0,0-1.77-5.62c.32,1.45.7,2.89,1.07,4.33A8.65,8.65,0,0,1,40,34.72C40.06,35,40.08,35.24,39.82,35.42Z"/><path class="cls-46" d="M56.11,19.76c.3-.18.53-.5.94-.4.18.12.43-.12.6.11a1.37,1.37,0,0,0,.42.33.4.4,0,0,1,.1.15,2.81,2.81,0,0,1,1,1.24c.87,1.4.55,2.56-1,4C56.33,27,54,27.46,51.64,27.87c-.61.11-.88-.11-1-.67a2.78,2.78,0,0,0,1.17-.6,30.54,30.54,0,0,0,3.55-3.07c.13-.16.33-.28.32-.54-.28-.1-.45.11-.64.23A29.27,29.27,0,0,0,51.47,26c-.28.24-.53.56-1,.5,0-.2,0-.39,0-.59a.35.35,0,0,1,.08-.16h0c1-1.27,2.24-2.31,3.31-3.51C54.65,21.41,55.4,20.6,56.11,19.76Z"/><path class="cls-46" d="M53.84,31.51c2.09-.28,2.72,0,3.11,2,.23,1.23-1.08,1.73-1.86,2.31a8.75,8.75,0,0,1-3.38,1.4c-1.71.39-3.1.12-4-1.49a.3.3,0,0,1,0-.37c.46-.36,1-.5,1.52-.83l.13-.13a1.57,1.57,0,0,1,.76-.48,1,1,0,0,0,.66-.58,11.36,11.36,0,0,1,1.08-1.21A3.51,3.51,0,0,1,53.84,31.51Z"/><path class="cls-47" d="M43.34,24.52c-.63-2.69-2.59-5-2.24-8,.17-1.43,1.26-1.85,2.54-2.12,1.58-.33,1.62.74,1.81,1.75a9,9,0,0,1-.27,1.35c-.1.2-.13.46-.43.46s-.25-.4-.56-.53c-.07,1.12.05,2.21,0,3.29a2.57,2.57,0,0,1,.05.4,5.72,5.72,0,0,0,0,.59,1.46,1.46,0,0,1,0,.2A11.76,11.76,0,0,0,43.34,24.52Z"/><path class="cls-48" d="M50,19.44c.3-1.6.6-3.2.92-4.8s.61-3.05.93-4.56c.06-.31.12-.79.51-.74s.39.54.36.9a58.89,58.89,0,0,1-1.21,7c-.05.23-.07.47-.1.7h0c-.07,0-.08.1-.12.16C50.73,18.42,50.94,19.48,50,19.44Z"/><path class="cls-49" d="M44.76,18l.69-1.79c0,.15,0,.29.08.44a.32.32,0,0,1,0,.14,34.47,34.47,0,0,1,.4,10.77c-.08.54-.28.85-.88.69A4.59,4.59,0,0,0,45.26,26c-.21-2.25-.31-4.52-.54-6.77a4.8,4.8,0,0,1-.07-.93A.46.46,0,0,1,44.76,18Z"/><path class="cls-50" d="M44.91,19.1c.2,2.77.41,5.54.61,8.3,0,.37,0,.73-.5.81-.25-.07-.52-.12-.55-.46a3.49,3.49,0,0,1-.39-1.55,20.68,20.68,0,0,1-.09-4,.6.6,0,0,1,.14-.39h0c.1-.16-.06-.32,0-.47,0-.67.41-1.27.44-1.94C44.59,19.23,44.68,19.06,44.91,19.1Z"/><path class="cls-51" d="M39.82,35.42c0-2.19-.89-4.2-1.31-6.3-.08-.4-.55-1,0-1.18s.39.57.58.88c1.49,2.5,1.64,5.32,1.92,8.11a2.12,2.12,0,0,1-.08.41h0c-.15-.2-.21-.46-.42-.62L40.09,36c-.2-.12-.08-.41-.27-.53Z"/><path class="cls-52" d="M50.5,26.5c1.55-1.21,3.09-2.42,4.66-3.61.24-.18.64-.5.86-.23s-.12.61-.35.88a44.56,44.56,0,0,1-4.28,3.72c-.32.29-.49.06-.72-.06C50.61,27,50.55,26.73,50.5,26.5Z"/><path class="cls-53" d="M50.79,7.59c-.48,1.87-.91,3.76-1.47,5.6-.13.46-.54.85-.58,1.38a10.51,10.51,0,0,1,2-8.16A1.56,1.56,0,0,1,50.79,7.59Z"/><path class="cls-54" d="M47.77,35.43c0,.12-.07.23-.1.34h-.1c-.15-.08-.22-.26-.38-.34-.1-.28-.47-.64-.13-.86,2.1-1.36,4.11-2.94,6.78-3.06-1.46.06-2.21,1.12-3,2.11-.35.18-.65.49-1.1.47-.3,0-.21.38-.41.5h0A8.25,8.25,0,0,0,47.77,35.43Z"/><path class="cls-55" d="M56.11,19.76a9.72,9.72,0,0,1-2.38,3c-1,1.06-2.08,2-3.13,3C52.1,23.44,53.5,21,56.11,19.76Z"/><path class="cls-56" d="M44.13,21.8c.11,2,.23,4,.34,5.95a7.44,7.44,0,0,1-1.13-3.23A3.68,3.68,0,0,1,44.13,21.8Z"/><path class="cls-57" d="M55.14,8l-.6-1.18c-.63-.32-1-1-1.76-1.17h0c-.34.08-.64.49-1,.1C53.4,4.68,54.69,5.54,55.14,8Z"/><path class="cls-58" d="M51.76,5.7l1-.1c-.08.09-.16.26-.24.26-1.2-.05-1.53.78-1.75,1.73,0-.4,0-.79,0-1.18Z"/><path class="cls-59" d="M59.14,21.19c0-.7-1.27-.45-1.09-1.34.2-.16.39-.21.58,0Z"/><path class="cls-60" d="M57.57,19.68l-.52-.32a1,1,0,0,1,1.17,0c.13.22,0,.3-.19.39A.35.35,0,0,1,57.57,19.68Z"/><path class="cls-61" d="M58,19.73c.08-.12.15-.24.22-.36.25.07.51.13.41.49h-.57c-.06,0-.08,0-.08-.06S58,19.74,58,19.73Z"/><path class="cls-47" d="M40.48,36.72c.32.08.36.36.42.62Z"/><path class="cls-47" d="M39.82,35.42l.27.53C39.79,35.88,39.83,35.63,39.82,35.42Z"/><path class="cls-62" d="M47.19,35.43c.26,0,.32.15.38.34Z"/><path class="cls-47" d="M45.5,16.75l0-.14Z"/><path class="cls-55" d="M50.59,25.75l-.08.16Z"/><path class="cls-46" d="M51.27,18.06l.12-.16Z"/><path class="cls-58" d="M52.78,5.6a2.65,2.65,0,0,1,1.76,1.17C53.76,6.68,53.4,5.94,52.78,5.6Z"/><path class="cls-59" d="M58,19.73a.27.27,0,0,1,.06.12c-.21.06-.4.09-.49-.17Z"/><path class="cls-52" d="M49.93,34.86c1-.15,1.91-.31,2.84-.44a.57.57,0,0,1,.69.38c.07.34-.22.53-.49.61-1.43.38-2.86.74-4.3,1.08-.47.1-.56-.37-.69-.67s.24-.32.4-.38C48.9,35.22,49.43,35,49.93,34.86Z"/><path class="cls-63" d="M47.77,35.43a1.6,1.6,0,0,1,1.55-.83A3.09,3.09,0,0,1,47.77,35.43Z"/><path class="cls-64" d="M49.32,34.59c.14-.89,1-.72,1.51-1C50.49,34.19,49.76,34.17,49.32,34.59Z"/><path class="cls-65" d="M44.76,18a2.29,2.29,0,0,1,.07.28c0,.65-.28,1.25-.33,1.89,0,.27-.07.62-.48.67-.05-1.05-.11-2.1-.14-3.16,0-.2-.13-.57.22-.56C44.62,17.09,44.65,17.58,44.76,18Z"/><path class="cls-66" d="M44,20.8c.57-.76.36-1.77.81-2.56,0,.29.05.57.08.86-.25.75-.5,1.5-.74,2.25-.05,0-.08,0-.07-.08a.08.08,0,0,1,0-.06C44.09,21.07,44.06,20.94,44,20.8Z"/><path class="cls-65" d="M44.12,21.21c0,.05,0,.1.05.14l0,.45C44.13,21.6,44.13,21.41,44.12,21.21Z"/><path class="cls-46" d="M49.57,26.64a2.54,2.54,0,0,1,0,1.74c-1,3.4-1.94,6.79-4.23,9.6-.38-.42-.12-.87,0-1.3.46-2.22.91-4.44,1.21-6.69a1.93,1.93,0,0,0-.13-1.32A2.07,2.07,0,0,0,45.83,30c-.56,3-1.17,6-1.85,9-.06.28,0,.6-.29.82-1.29-1-1.09-2.47-1.39-3.78a8,8,0,0,1,0-1.77c-.15-1,.47-1.83.71-2.75.46-1.76,1-3.51,1.42-5.29.14-1.4,1.11-1.94,2.31-2.23a.56.56,0,0,1,.22,0c.84.29,1.36,1,2.07,1.49C49.32,25.75,49.34,26.24,49.57,26.64Z"/><path class="cls-47" d="M32.11,58a21.94,21.94,0,0,1-3.19-5,13.74,13.74,0,0,1-1.38-6.7c.14-1.53,1.41-1.71,2.47-2s1.24.58,1.57,1.27a28.41,28.41,0,0,1,2.35,8.07c.33,2.06-.06,4.24-.14,6.37,0,.35-.17.46-.44.16a33.14,33.14,0,0,1-.5-3.44,15.33,15.33,0,0,0-2-6.41c.36,1.66.79,3.3,1.21,4.94a10.42,10.42,0,0,1,.31,1.91C32.38,57.45,32.41,57.76,32.11,58Z"/><path class="cls-46" d="M50.68,40.1c.34-.2.6-.57,1.07-.45.21.14.5-.14.68.12a1.47,1.47,0,0,0,.48.38.66.66,0,0,1,.12.17,3.3,3.3,0,0,1,1.11,1.42c1,1.6.63,2.91-1.13,4.58-2.08,2-4.72,2.57-7.42,3-.7.12-1-.13-1.12-.77a3,3,0,0,0,1.34-.68,34.49,34.49,0,0,0,4-3.5c.16-.18.39-.32.37-.61-.32-.11-.51.12-.73.25a34,34,0,0,0-4.1,3.18c-.32.27-.61.64-1.11.56,0-.22,0-.44,0-.66a.5.5,0,0,1,.1-.19h0c1.14-1.45,2.55-2.64,3.78-4C49,42,49.87,41.06,50.68,40.1Z"/><path class="cls-46" d="M48.09,53.5c2.38-.32,3.11,0,3.54,2.32.27,1.41-1.23,2-2.11,2.64a10,10,0,0,1-3.86,1.6c-1.95.44-3.53.14-4.6-1.7a.32.32,0,0,1,0-.42c.52-.41,1.18-.57,1.72-.95l.16-.15a1.75,1.75,0,0,1,.86-.55,1.15,1.15,0,0,0,.75-.66,13.59,13.59,0,0,1,1.23-1.38A4,4,0,0,1,48.09,53.5Z"/><path class="cls-47" d="M36.12,45.54c-.72-3.08-2.95-5.75-2.55-9.11C33.76,34.8,35,34.32,36.46,34c1.8-.38,1.85.84,2.06,2a8.92,8.92,0,0,1-.3,1.54c-.11.23-.15.52-.5.53s-.28-.46-.62-.61c-.09,1.28,0,2.52,0,3.75a3.44,3.44,0,0,1,0,.45c0,.23,0,.46,0,.68a1.42,1.42,0,0,1,0,.22A13.44,13.44,0,0,0,36.12,45.54Z"/><path class="cls-48" d="M43.69,39.74c.35-1.83.69-3.65,1.05-5.47s.69-3.47,1.06-5.21c.07-.35.14-.9.58-.83s.44.61.41,1a66.91,66.91,0,0,1-1.38,7.94,7.14,7.14,0,0,0-.11.79h0c-.08,0-.1.12-.14.19C44.54,38.57,44.78,39.78,43.69,39.74Z"/><path class="cls-49" d="M37.74,38.05l.78-2c0,.17.07.34.1.5a.47.47,0,0,1,0,.17A39.23,39.23,0,0,1,39,49c-.09.6-.32,1-1,.77a5.19,5.19,0,0,0,.27-2.53c-.24-2.57-.36-5.15-.61-7.72a5.42,5.42,0,0,1-.09-1.06A.56.56,0,0,1,37.74,38.05Z"/><path class="cls-50" d="M37.91,39.35c.23,3.16.47,6.31.69,9.47,0,.41,0,.82-.56.91-.29-.07-.6-.13-.62-.52A3.78,3.78,0,0,1,37,47.44a23.26,23.26,0,0,1-.1-4.57.64.64,0,0,1,.15-.44h0c.12-.17-.07-.35,0-.53,0-.76.47-1.44.51-2.21C37.55,39.5,37.65,39.31,37.91,39.35Z"/><path class="cls-51" d="M32.11,58c0-2.49-1-4.78-1.49-7.17-.09-.46-.63-1.13,0-1.36s.44.66.65,1c1.71,2.84,1.87,6.06,2.19,9.24a1.62,1.62,0,0,1-.09.47h0c-.18-.23-.25-.53-.49-.71l-.44-.88c-.23-.14-.09-.47-.32-.61Z"/><path class="cls-52" d="M44.28,47.78c1.77-1.37,3.53-2.75,5.31-4.1.28-.21.73-.58,1-.27s-.14.69-.4,1c-1.42,1.66-3.28,2.8-4.88,4.24-.37.33-.56.08-.83-.07C44.41,48.32,44.34,48.05,44.28,47.78Z"/><path class="cls-53" d="M44.61,26.23c-.54,2.13-1,4.28-1.67,6.39-.15.52-.61,1-.66,1.57a12,12,0,0,1,2.32-9.31A1.76,1.76,0,0,1,44.61,26.23Z"/><path class="cls-54" d="M41.17,58c0,.13-.07.26-.11.39H41c-.18-.1-.26-.3-.44-.39-.12-.32-.53-.73-.15-1,2.39-1.56,4.69-3.35,7.73-3.49-1.66.06-2.51,1.28-3.43,2.4-.4.21-.74.56-1.26.54-.33,0-.23.44-.46.57h0A9.71,9.71,0,0,0,41.17,58Z"/><path class="cls-55" d="M50.68,40.1c-.53,1.43-1.74,2.34-2.71,3.41s-2.38,2.28-3.57,3.42C46.11,44.3,47.7,41.56,50.68,40.1Z"/><path class="cls-56" d="M37,42.43q.19,3.39.4,6.78a8.23,8.23,0,0,1-1.3-3.67A4.21,4.21,0,0,1,37,42.43Z"/><path class="cls-57" d="M49.57,26.64c-.23-.45-.45-.9-.68-1.34-.72-.37-1.19-1.11-2-1.33h0c-.38.08-.73.55-1.16.11C47.59,22.91,49.06,23.89,49.57,26.64Z"/><path class="cls-58" d="M45.72,24.08,46.88,24c-.09.1-.18.29-.27.28-1.37-.05-1.74.9-2,2,0-.45,0-.9,0-1.35Z"/><path class="cls-59" d="M54.14,41.74c0-.81-1.46-.52-1.24-1.54.22-.18.44-.24.65,0Z"/><path class="cls-60" d="M52.34,40l-.59-.36a1.17,1.17,0,0,1,1.34,0c.14.26-.06.35-.22.46A.4.4,0,0,1,52.34,40Z"/><path class="cls-61" d="M52.84,40.07l.25-.42c.28.09.58.16.46.57l-.65,0h0c-.06,0-.09,0-.09-.06S52.82,40.08,52.84,40.07Z"/><path class="cls-47" d="M32.86,59.44c.37.1.41.41.49.71Z"/><path class="cls-47" d="M32.1,58l.32.61C32.07,58.48,32.12,58.2,32.1,58Z"/><path class="cls-62" d="M40.51,58c.3,0,.37.17.44.39Z"/><path class="cls-47" d="M38.58,36.68c0-.06,0-.11,0-.17S38.59,36.62,38.58,36.68Z"/><path class="cls-55" d="M44.39,46.93l-.1.19Z"/><path class="cls-46" d="M45.16,38.17,45.3,38Z"/><path class="cls-58" d="M46.88,24a3,3,0,0,1,2,1.33C48,25.2,47.59,24.35,46.88,24Z"/><path class="cls-59" d="M52.84,40.07a.38.38,0,0,1,.06.13c-.23.07-.45.11-.56-.19Z"/><path class="cls-52" d="M43.63,57.32c1.11-.17,2.18-.35,3.24-.5.34,0,.7,0,.78.43s-.24.61-.55.69c-1.63.43-3.26.85-4.9,1.23-.54.12-.64-.42-.79-.76s.27-.36.46-.44C42.46,57.73,43.07,57.53,43.63,57.32Z"/><path class="cls-63" d="M41.17,58A1.84,1.84,0,0,1,42.94,57,3.57,3.57,0,0,1,41.17,58Z"/><path class="cls-64" d="M42.94,57c.16-1,1.1-.81,1.72-1.11C44.27,56.56,43.44,56.53,42.94,57Z"/><path class="cls-65" d="M37.74,38.05c0,.11.06.21.08.32,0,.74-.32,1.42-.38,2.16,0,.31-.08.71-.54.76-.06-1.2-.13-2.4-.17-3.6,0-.23-.14-.66.26-.65C37.59,37.06,37.62,37.62,37.74,38.05Z"/><path class="cls-66" d="M36.9,41.29c.64-.87.4-2,.92-2.92l.09,1c-.28.86-.57,1.71-.85,2.57-.05,0-.08-.05-.08-.09a.15.15,0,0,1,0-.07C37,41.6,36.94,41.45,36.9,41.29Z"/><path class="cls-65" d="M37,41.76a1,1,0,0,1,.05.16c0,.17,0,.34,0,.5C37,42.2,37,42,37,41.76Z"/><path class="cls-46" d="M95.38,54.64a2.15,2.15,0,0,1-1.31.78c-3,.89-5.94,1.76-9.1,1.38.14-.47.59-.5,1-.63,1.86-.7,3.72-1.41,5.53-2.25a1.73,1.73,0,0,0,.92-.71,1.85,1.85,0,0,0-1.2.21q-3.73,1.5-7.51,2.84c-.24.09-.47.25-.75.17.1-1.4,1.32-2,2.15-2.8a6.44,6.44,0,0,1,1.3-.84c.68-.59,1.58-.52,2.37-.77,1.53-.49,3.08-.89,4.59-1.43a2.22,2.22,0,0,1,2.74.66.44.44,0,0,1,.12.15,8.32,8.32,0,0,1-.13,2.23C95.92,54,95.57,54.28,95.38,54.64Z"/><path class="cls-47" d="M64,56.41a19.37,19.37,0,0,1,2.17-4.69,12,12,0,0,1,4.32-4.16c1.19-.62,1.93.24,2.66.87s.14,1.19-.21,1.77a24.94,24.94,0,0,1-4.87,5.52,29.16,29.16,0,0,1-4.79,2.89c-.27.15-.42.09-.32-.25a29.17,29.17,0,0,1,2.31-2,13.44,13.44,0,0,0,3.8-4.5C68,52.92,67,54,66,55.09a8.49,8.49,0,0,1-1.27,1.13C64.48,56.37,64.27,56.54,64,56.41Z"/><path class="cls-46" d="M85.93,61.79c.3.15.7.17.84.57,0,.22.33.3.22.57a1.35,1.35,0,0,0,0,.53.51.51,0,0,1-.07.17,2.92,2.92,0,0,1-.53,1.48c-.72,1.49-1.86,1.84-3.92,1.32-2.46-.61-4.12-2.29-5.74-4.07a.72.72,0,0,1,0-1.19,2.64,2.64,0,0,0,1.14.67,30.52,30.52,0,0,0,4.49,1.35c.2,0,.41.13.62,0-.06-.28-.33-.32-.53-.41a29.55,29.55,0,0,0-4.28-1.55c-.35-.11-.76-.15-.94-.56l.5-.31a.55.55,0,0,1,.18,0h0c1.61.17,3.15.66,4.74.92C83.75,61.43,84.84,61.64,85.93,61.79Z"/><path class="cls-46" d="M74.78,66.16c1.36,1.61,1.44,2.32,0,3.71-.92.86-2,0-3-.32a8.82,8.82,0,0,1-3-2.11c-1.25-1.24-1.77-2.56-.91-4.21a.29.29,0,0,1,.3-.22c.55.2,1,.61,1.51.84l.19,0a1.49,1.49,0,0,1,.81.38,1,1,0,0,0,.84.25,11.86,11.86,0,0,1,1.6.25C73.86,64.94,74.3,65.61,74.78,66.16Z"/><path class="cls-47" d="M75.07,53.55c1.94-2,2.86-4.88,5.54-6.17,1.3-.62,2.24.07,3.15,1,1.12,1.16.24,1.77-.51,2.46a6.75,6.75,0,0,1-1.29.5c-.22,0-.45.14-.62-.11s.21-.43.16-.75c-1,.53-1.84,1.21-2.77,1.78a1.89,1.89,0,0,1-.31.25c-.18.09-.34.21-.51.3a.7.7,0,0,1-.19.06A11.45,11.45,0,0,0,75.07,53.55Z"/><path class="cls-48" d="M82.91,56.43l4.55-1.79c1.45-.56,2.9-1.12,4.35-1.66.3-.11.73-.32.9.05s-.25.61-.57.77a59.07,59.07,0,0,1-6.53,2.71c-.22.08-.43.19-.64.29h0c-.06,0-.13,0-.2,0C84.18,56.52,83.4,57.26,82.91,56.43Z"/><path class="cls-49" d="M81.37,51.24l1.88-.39-.33.31a.24.24,0,0,1-.14.05,34.27,34.27,0,0,1-8.88,6.11c-.49.22-.87.21-1.05-.38a4.42,4.42,0,0,0,2-1c1.79-1.38,3.65-2.68,5.43-4.08a5.23,5.23,0,0,1,.75-.56A.48.48,0,0,1,81.37,51.24Z"/><path class="cls-50" d="M80.48,52q-3.33,2.49-6.68,5c-.3.22-.63.36-1,0-.07-.25-.18-.51.1-.71a3.39,3.39,0,0,1,1.1-1.16,20.19,20.19,0,0,1,3.34-2.22.63.63,0,0,1,.4-.1h0c.19,0,.23-.21.4-.24.59-.33,1.29-.32,1.88-.66A.26.26,0,0,1,80.48,52Z"/><path class="cls-51" d="M64,56.41c1.84-1.18,3.06-3,4.62-4.48.29-.27.54-1,1-.65s-.28.64-.44,1c-1.31,2.6-3.62,4.24-5.83,6a1.44,1.44,0,0,1-.38.15h0c.08-.24.27-.43.29-.7l.45-.73c0-.24.3-.29.3-.52Z"/><path class="cls-52" d="M77.23,60.65c1.85.67,3.7,1.32,5.54,2,.28.11.76.27.66.6s-.58.23-.93.17a43,43,0,0,1-5.44-1.62c-.41-.11-.31-.38-.33-.64Z"/><path class="cls-53" d="M93.36,50.77c-1.84.6-3.66,1.25-5.52,1.77-.46.12-1,0-1.48.25a10.54,10.54,0,0,1,8-2.66A1.51,1.51,0,0,1,93.36,50.77Z"/><path class="cls-54" d="M68.22,63.13l-.34.1a.56.56,0,0,1,0-.08c0-.18.1-.33.08-.51.19-.24.29-.74.66-.57,2.28,1,4.69,1.9,6.21,4.09C74,65,72.66,64.89,71.4,64.75c-.35-.2-.77-.29-1-.68s-.43,0-.64-.08h0A8.3,8.3,0,0,0,68.22,63.13Z"/><path class="cls-55" d="M85.93,61.79a10,10,0,0,1-3.8-.42c-1.42-.24-2.81-.68-4.21-1C80.67,60.37,83.45,60.26,85.93,61.79Z"/><path class="cls-56" d="M77.79,52.75,73,56.23a7.2,7.2,0,0,1,2.12-2.68A3.7,3.7,0,0,1,77.79,52.75Z"/><path class="cls-57" d="M95.38,54.64c.22-.38.45-.76.68-1.13-.08-.71.25-1.41,0-2.12h0c-.25-.24-.75-.28-.63-.81C97.21,51.42,97.17,53,95.38,54.64Z"/><path class="cls-58" d="M95.47,50.58l.63.81c-.12,0-.3,0-.34-.06-.61-1-1.49-.87-2.4-.56l1-.64Z"/><path class="cls-59" d="M86.34,65.11c.57-.41-.3-1.32.55-1.64.24.08.39.22.3.5Z"/><path class="cls-60" d="M86.77,63v-.61a1,1,0,0,1,.62,1c-.12.23-.28.11-.44,0A.36.36,0,0,1,86.77,63Z"/><path class="cls-61" d="M87,63.37h.43c.07.25.16.5-.2.61l-.3-.5h0s0-.08,0-.09S87,63.36,87,63.37Z"/><path class="cls-47" d="M63.23,57.66c.1.32-.11.5-.29.7C63,58.12,63.14,57.89,63.23,57.66Z"/><path class="cls-47" d="M64,56.41l-.3.52C63.57,56.63,63.8,56.54,64,56.41Z"/><path class="cls-62" d="M67.91,62.64c.18.2,0,.35-.08.51C67.86,63,67.89,62.81,67.91,62.64Z"/><path class="cls-47" d="M82.78,51.21l.14-.05Z"/><path class="cls-55" d="M77.91,60.33h0Z"/><path class="cls-46" d="M84.77,56.79h0Z"/><path class="cls-58" d="M96.1,51.39a2.69,2.69,0,0,1,0,2.12C95.71,52.8,96.15,52.1,96.1,51.39Z"/><path class="cls-59" d="M87,63.37a.14.14,0,0,1-.07.1c-.16-.13-.29-.28-.12-.5Z"/><path class="cls-52" d="M69.86,64.65c.65.74,1.28,1.44,1.9,2.16a.56.56,0,0,1,0,.78.55.55,0,0,1-.78-.08Q69.4,66,67.82,64.46c-.35-.35,0-.67.19-.95s.39,0,.54.14C69,64,69.44,64.33,69.86,64.65Z"/><path class="cls-63" d="M68.22,63.13a1.62,1.62,0,0,1,1.54.86A3.11,3.11,0,0,1,68.22,63.13Z"/><path class="cls-64" d="M69.76,64c.83-.36,1.13.43,1.64.76C70.73,64.76,70.35,64.14,69.76,64Z"/><path class="cls-65" d="M81.37,51.24l-.2.21c-.55.33-1.2.42-1.77.73-.25.13-.57.27-.82,0,.86-.61,1.71-1.22,2.58-1.81.17-.11.42-.42.6-.11S81.63,50.94,81.37,51.24Z"/><path class="cls-66" d="M78.58,52.13c.94.07,1.68-.65,2.59-.68l-.69.52-2.29.58s0-.09,0-.1,0,0,.06,0Z"/><path class="cls-65" d="M78.28,52.44l-.09.11-.4.2Z"/><path class="cls-46" d="M76.61,59.94a2.47,2.47,0,0,1-1.49.9c-3.38,1-6.77,2-10.37,1.57.15-.54.67-.57,1.08-.72,2.12-.8,4.24-1.61,6.3-2.57a1.87,1.87,0,0,0,1.05-.8,2,2,0,0,0-1.36.24c-2.84,1.13-5.69,2.21-8.57,3.24-.27.09-.53.28-.85.19.11-1.6,1.5-2.24,2.45-3.2a8,8,0,0,1,1.48-1c.77-.67,1.8-.59,2.7-.87,1.74-.55,3.51-1,5.24-1.63,1.25-.63,2.22-.11,3.12.75a.62.62,0,0,1,.14.18,9.84,9.84,0,0,1-.15,2.54C77.23,59.25,76.83,59.53,76.61,59.94Z"/><path class="cls-47" d="M40.81,62a22.55,22.55,0,0,1,2.48-5.34,13.66,13.66,0,0,1,4.92-4.75c1.37-.71,2.21.27,3,1s.17,1.37-.23,2a28.61,28.61,0,0,1-5.56,6.3c-1.56,1.38-3.61,2.22-5.46,3.29-.3.18-.48.1-.36-.29a33.31,33.31,0,0,1,2.63-2.26,15.35,15.35,0,0,0,4.34-5.13c-1.21,1.19-2.36,2.43-3.52,3.67a11.06,11.06,0,0,1-1.45,1.29C41.39,61.92,41.14,62.11,40.81,62Z"/><path class="cls-46" d="M65.84,68.09c.35.18.8.2,1,.66,0,.25.38.34.25.64A1.57,1.57,0,0,0,67,70a.46.46,0,0,1-.08.19,3.36,3.36,0,0,1-.6,1.7c-.82,1.68-2.12,2.08-4.47,1.5-2.81-.7-4.7-2.62-6.54-4.65a.81.81,0,0,1,.05-1.35,3.13,3.13,0,0,0,1.3.77,35,35,0,0,0,5.12,1.53c.23,0,.47.15.71,0-.08-.32-.38-.36-.61-.47A33.73,33.73,0,0,0,57,67.43c-.41-.12-.87-.17-1.08-.63l.57-.35a.5.5,0,0,1,.21,0h0c1.83.18,3.59.74,5.41,1C63.36,67.69,64.59,67.92,65.84,68.09Z"/><path class="cls-46" d="M53.13,73.07c1.55,1.84,1.64,2.65-.06,4.24-1,1-2.32,0-3.36-.37a9.93,9.93,0,0,1-3.41-2.41c-1.43-1.4-2-2.91-1-4.79a.31.31,0,0,1,.34-.25c.62.22,1.11.69,1.72,1l.21,0a1.67,1.67,0,0,1,.92.43,1.19,1.19,0,0,0,1,.28,15.7,15.7,0,0,1,1.82.3C52.08,71.68,52.58,72.45,53.13,73.07Z"/><path class="cls-47" d="M53.45,58.7c2.22-2.25,3.27-5.56,6.33-7,1.47-.71,2.54.08,3.58,1.15,1.28,1.33.28,2-.58,2.81a9.21,9.21,0,0,1-1.46.57c-.25,0-.52.16-.71-.14s.23-.48.17-.85c-1.12.61-2.09,1.38-3.14,2a3.07,3.07,0,0,1-.36.27c-.2.1-.38.25-.59.35l-.21.07A13.73,13.73,0,0,0,53.45,58.7Z"/><path class="cls-48" d="M62.4,62c1.73-.68,3.46-1.37,5.19-2s3.3-1.28,5-1.89c.33-.13.83-.37,1,0s-.28.69-.64.88a65.1,65.1,0,0,1-7.44,3.08c-.25.1-.49.23-.73.34h0c-.08,0-.16,0-.23,0C63.84,62.09,63,62.94,62.4,62Z"/><path class="cls-49" d="M60.64,56.07l2.14-.44-.37.35a.3.3,0,0,1-.16.05,38.86,38.86,0,0,1-10.12,7c-.56.25-1,.24-1.2-.43a5.09,5.09,0,0,0,2.29-1.13c2-1.58,4.16-3.06,6.19-4.65a5.91,5.91,0,0,1,.85-.64A.52.52,0,0,1,60.64,56.07Z"/><path class="cls-50" d="M59.63,56.9c-2.54,1.89-5.07,3.78-7.62,5.65-.34.25-.71.42-1.08,0-.08-.29-.2-.58.11-.81a4,4,0,0,1,1.25-1.32,24,24,0,0,1,3.81-2.53.7.7,0,0,1,.46-.12h0c.21,0,.27-.24.45-.27.67-.38,1.48-.37,2.15-.76A.31.31,0,0,1,59.63,56.9Z"/><path class="cls-51" d="M40.81,62c2.1-1.34,3.5-3.42,5.27-5.1.33-.32.62-1.13,1.13-.74s-.32.72-.5,1.09c-1.49,3-4.12,4.83-6.64,6.8a1.3,1.3,0,0,1-.44.17h0c.09-.27.31-.49.34-.79l.5-.84c0-.27.35-.33.35-.59Z"/><path class="cls-52" d="M55.92,66.8c2.11.76,4.22,1.51,6.32,2.29.32.12.87.3.75.68s-.66.26-1.06.2c-2.16-.31-4.12-1.27-6.2-1.85-.47-.13-.36-.43-.38-.73Z"/><path class="cls-53" d="M74.31,55.54c-2.09.68-4.17,1.42-6.29,2-.53.14-1.15,0-1.69.28a12,12,0,0,1,9.11-3A1.78,1.78,0,0,1,74.31,55.54Z"/><path class="cls-54" d="M45.65,69.62l-.38.12a.21.21,0,0,1-.06-.1c0-.19.11-.37.09-.57.21-.27.33-.84.75-.66,2.59,1.19,5.34,2.17,7.08,4.66-.94-1.36-2.42-1.44-3.86-1.6-.39-.23-.87-.33-1.13-.78-.17-.29-.49,0-.73-.09h0A9.81,9.81,0,0,0,45.65,69.62Z"/><path class="cls-55" d="M65.84,68.09c-1.49.32-2.91-.22-4.33-.47-1.62-.28-3.2-.78-4.8-1.18C59.85,66.48,63,66.35,65.84,68.09Z"/><path class="cls-56" d="M56.56,57.79l-5.52,4a8.38,8.38,0,0,1,2.41-3.06A4.26,4.26,0,0,1,56.56,57.79Z"/><path class="cls-57" d="M76.61,59.94c.26-.43.52-.86.77-1.29-.08-.8.3-1.6.05-2.41h0c-.28-.27-.86-.32-.71-.92C78.7,56.27,78.66,58,76.61,59.94Z"/><path class="cls-58" d="M76.72,55.32c.24.31.47.62.71.92-.13,0-.34,0-.39-.07-.69-1.19-1.69-1-2.73-.63l1.13-.73Z"/><path class="cls-59" d="M66.31,71.89c.65-.48-.35-1.51.63-1.88.27.1.44.25.34.57C67,71,66.63,71.45,66.31,71.89Z"/><path class="cls-60" d="M66.8,69.45v-.7a1.17,1.17,0,0,1,.71,1.13c-.14.26-.33.14-.5.06A.39.39,0,0,1,66.8,69.45Z"/><path class="cls-61" d="M67,69.9l.49,0c.07.29.18.58-.23.7-.12-.19-.23-.38-.34-.57h0c0-.06,0-.09,0-.11S67,69.89,67,69.9Z"/><path class="cls-47" d="M40,63.39c.11.36-.14.57-.34.79Z"/><path class="cls-47" d="M40.82,62l-.35.59C40.35,62.22,40.62,62.11,40.82,62Z"/><path class="cls-62" d="M45.3,69.07c.2.23.05.4-.09.57Z"/><path class="cls-47" d="M62.25,56l.16-.05Z"/><path class="cls-55" d="M56.7,66.43l-.21,0Z"/><path class="cls-46" d="M64.52,62.39l.23,0Z"/><path class="cls-58" d="M77.43,56.24a3,3,0,0,1-.05,2.41C77,57.84,77.49,57.05,77.43,56.24Z"/><path class="cls-59" d="M67,69.9a.83.83,0,0,1-.08.12c-.18-.16-.34-.33-.14-.57Z"/><path class="cls-52" d="M47.52,71.36c.74.84,1.47,1.64,2.16,2.46a.63.63,0,0,1,.06.89.62.62,0,0,1-.88-.09c-1.24-1.15-2.47-2.3-3.67-3.48-.39-.4,0-.77.22-1.08s.45,0,.61.15C46.55,70.58,47.05,71,47.52,71.36Z"/><path class="cls-63" d="M45.65,69.62a1.86,1.86,0,0,1,1.76,1A3.45,3.45,0,0,1,45.65,69.62Z"/><path class="cls-64" d="M47.41,70.6c.94-.4,1.28.5,1.86.87C48.51,71.49,48.08,70.77,47.41,70.6Z"/><path class="cls-65" d="M60.64,56.07l-.22.23c-.64.38-1.38.49-2,.84-.27.14-.64.31-.93-.06,1-.69,1.95-1.39,2.95-2.06.18-.13.47-.48.68-.13C61.4,55.4,60.94,55.73,60.64,56.07Z"/><path class="cls-66" d="M57.46,57.08c1.07.08,1.91-.73,3-.78l-.79.6L57,57.56c0-.06,0-.1,0-.11s.06,0,.07,0Z"/><path class="cls-65" d="M57.12,57.44l-.11.12-.45.23Z"/></g></g></svg>