<svg xmlns="http://www.w3.org/2000/svg" viewBox="0 0 12.64 17.31"><defs><style>.cls-1{fill:#fff;}.cls-2{fill:#939985;}</style></defs><title>frame-rsvp</title><g id="Layer_2" data-name="Layer 2"><g id="Layer_1-2" data-name="Layer 1"><rect class="cls-1" width="12.64" height="17.31"/><path class="cls-2" d="M6.54,14.24a.22.22,0,0,0-.31-.09c-.32.2.4.77-.67,1.91C6.14,15.62,6.81,14.7,6.54,14.24Z"/><path class="cls-2" d="M5.71,15.9c.23-.26.38-.7.19-.89a.12.12,0,0,0-.16,0C5.62,15.13,6.05,15.35,5.71,15.9Z"/><path class="cls-2" d="M7,16.84A.14.14,0,0,1,6.9,17c-.26,0-.07-.58-1.11-.82C6.29,16.21,7,16.47,7,16.84Z"/><path class="cls-2" d="M5.79,16.15c.35.09.71.37.66.63a.12.12,0,0,1-.13.09C6.15,16.84,6.38,16.42,5.79,16.15Z"/><path class="cls-2" d="M6.54,15.39a.14.14,0,0,0-.15-.13c-.24,0,0,.54-.88.89C6,16.06,6.57,15.73,6.54,15.39Z"/><path class="cls-2" d="M6.19,15.9s.47-.08.57-.34c0-.05,0-.13,0-.15s-.09,0-.1.08A.68.68,0,0,1,6.19,15.9Z"/><path class="cls-2" d="M5.59,16.19c.86-.25,1,.26,1.18.14a.11.11,0,0,0,0-.17C6.6,15.9,6,16,5.59,16.19Z"/><path class="cls-2" d="M6.23,16a.69.69,0,0,1,.55,0s.1,0,.12,0,0-.1-.06-.13C6.6,15.78,6.23,16,6.23,16Z"/><path class="cls-2" d="M6,3.07a.22.22,0,0,0,.31.08c.32-.2-.4-.76.67-1.91C6.43,1.69,5.76,2.6,6,3.07Z"/><path class="cls-2" d="M6.86,1.4c-.24.27-.38.71-.19.9a.13.13,0,0,0,.16,0C7,2.18,6.52,2,6.86,1.4Z"/><path class="cls-2" d="M5.53.47A.14.14,0,0,1,5.67.31c.26,0,.07.58,1.11.82C6.28,1.1,5.55.84,5.53.47Z"/><path class="cls-2" d="M6.78,1.16c-.35-.09-.71-.37-.66-.63A.1.1,0,0,1,6.25.44C6.42.47,6.19.89,6.78,1.16Z"/><path class="cls-2" d="M6,1.92a.14.14,0,0,0,.15.13c.24,0,0-.54.88-.9C6.62,1.25,6,1.58,6,1.92Z"/><path class="cls-2" d="M6.38,1.41s-.47.07-.57.34c0,.05,0,.13.05.15S6,1.86,6,1.82A.7.7,0,0,1,6.38,1.41Z"/><path class="cls-2" d="M7,1.12C6.12,1.37,6,.86,5.8,1a.12.12,0,0,0,0,.18C6,1.41,6.61,1.3,7,1.12Z"/><path class="cls-2" d="M6.34,1.31a.69.69,0,0,1-.55,0,.11.11,0,0,0-.12,0c0,.05,0,.11.06.13C6,1.52,6.34,1.31,6.34,1.31Z"/><path class="cls-2" d="M2.39,1.41c-.29.3-1,.13-1.56-.16L.68,1.17V1.11l.14,0h0c1,.34,1.31-.3,1.56-.06A.21.21,0,0,1,2.39,1.41Z"/><path class="cls-2" d="M.68,1.1l0,0h0l.07,0h0c.26.07.54,0,.64-.15a.09.09,0,0,0,0-.14c-.13-.08-.21.24-.6.24Z"/><path class="cls-2" d="M1.25,1.56a.06.06,0,0,0,0-.08c0-.1-.24.06-.49-.3C.89,1.37,1.1,1.61,1.25,1.56Z"/><path class="cls-2" d="M1,1.46s.08.2.2.22.07,0,.06,0a0,0,0,0,0,0,0A.29.29,0,0,1,1,1.46Z"/><path class="cls-2" d="M.8,1.22c.19.35,0,.47,0,.54a.06.06,0,0,0,.08,0C1,1.64.91,1.37.8,1.22Z"/><path class="cls-2" d="M1,1.48a.32.32,0,0,1,0,.25s0,.05,0,.06,0,0,.05,0S1,1.48,1,1.48Z"/><path class="cls-2" d="M10.25,16.41c.29.3,1,.12,1.56-.17l.15-.08V16.1l-.14,0h0c-1,.35-1.31-.29-1.56-.06A.22.22,0,0,0,10.25,16.41Z"/><path class="cls-2" d="M11.81,16.1c-.39,0-.48-.33-.6-.25a.1.1,0,0,0,0,.15c.09.18.38.21.64.14h0l.07,0h-.08Z"/><path class="cls-2" d="M11.39,16.55s-.06,0,0-.07.23.06.48-.3C11.75,16.37,11.54,16.6,11.39,16.55Z"/><path class="cls-2" d="M11.65,16.45s-.08.2-.21.22-.06,0-.06,0,0,0,0,0A.32.32,0,0,0,11.65,16.45Z"/><path class="cls-2" d="M11.84,16.22c-.2.35,0,.47-.06.53a.05.05,0,0,1-.08,0C11.61,16.63,11.72,16.36,11.84,16.22Z"/><path class="cls-2" d="M11.69,16.48a.28.28,0,0,0,0,.25s0,.05,0,.05,0,0-.05,0S11.69,16.48,11.69,16.48Z"/><polygon class="cls-2" points="11.96 16.17 11.81 16.17 11.81 1.25 6.83 1.25 6.83 1.1 11.96 1.1 11.96 16.17"/><polygon class="cls-2" points="5.8 16.02 5.8 16.17 0.68 16.17 0.68 1.1 0.82 1.1 0.82 16.02 5.8 16.02"/><path class="cls-2" d="M7,1.21a.16.16,0,1,1-.16-.16A.16.16,0,0,1,7,1.21Z"/><circle class="cls-2" cx="5.74" cy="16.09" r="0.15"/></g></g></svg>