<svg xmlns="http://www.w3.org/2000/svg" viewBox="0 0 121.38 298.14"><defs><style>.cls-1{fill:#f7b190;}.cls-2{fill:#fbddde;}.cls-3{fill:#201811;}.cls-4{fill:#f7b49e;}.cls-5{fill:#6e262e;}.cls-6{fill:#8f4446;}.cls-7{fill:#17110a;}.cls-8{fill:#251d1a;}.cls-9{fill:#2c2620;}.cls-10{fill:#2b221c;}.cls-11{fill:#362c28;}</style></defs><title>groom</title><g id="Layer_2" data-name="Layer 2"><g id="Capa_1" data-name="Capa 1"><g id="groom"><path class="cls-1" d="M85.93,101s11.8-4.43,14-11.43c.47-1.5-.47-3.64-2.38-3.62-2.34,0-4.32,1.37-6.14,2-.74.26-.67-1,0-1.55s1.08-1.1.91-1.52C92,84,90.2,84.65,89,85.19c-2.24,1-6.77,6-8.33,8.92Z"/><rect class="cls-2" x="79.78" y="91.86" width="5.67" height="12.46" transform="translate(-41.69 66.52) rotate(-35.64)"/><path class="cls-3" d="M16.5,69.72c-.64,3.45-.42,7.85.2,14.13a109.8,109.8,0,0,0,11.08,37.64l14.5-10.19A127.19,127.19,0,0,0,35,80a74.66,74.66,0,0,0-6.71-13.41C25.05,61.86,18,61.57,16.5,69.72Z"/><path class="cls-3" d="M41.83,110.93s3.4-.82,13.53-5.71c6.73-3.24,10.84-6.28,22-11.85l8.43,11.11c-27.77,17.15-27.69,16.93-39.15,24-3.07,1.89-13.41,3.91-18.69-7.15Z"/><path class="cls-4" d="M56.56,32.22a10.69,10.69,0,0,1-1.92-2.61c-.42-.76-.89-1.67-1.51-2.81a5.52,5.52,0,0,1,0-1.08c.2-2.2,1-6.22-.19-9.87.94-4.38-2.27-8.37-3.26-9.16C38-2.61,23.12,3.65,21.92,4.16c0,0-10.52,3.32-10.52,13.64,0,9.15,2.73,16.68,7,19.88a35.11,35.11,0,0,1-.08,6c-.18,3.29-2.46,17.67-2.46,17.67h22c-1.11-2.65,2.29-12.59,4-13.59.73-.42,5-.24,5.35-.16,3,.66,5.68-.69,5.43-2.81a6,6,0,0,1,0-1.79c.28-.68.76-.82,1-1.33.12-.22,0-.37-.25-.47a16.52,16.52,0,0,0,.63-3.1c.63-.11.62-.56.49-.83A5.76,5.76,0,0,1,54.27,36c0-.88,0-2.15,1.25-2.15C57.83,33.8,57.05,32.71,56.56,32.22Z"/><path class="cls-5" d="M21.48,3.67c.17-1.37-1.42-1.48-1.42-1.48,1.31-.43,3.11.93,3.11.93C22.85,1.76,24.81,0,24.81,0a1.91,1.91,0,0,0,0,2.57c8-4.48,19-3,25.43,3.71a30.4,30.4,0,0,1,3.1,5.51c.19.43.35.86.49,1.28a5.58,5.58,0,0,0,2.69-1.84s-.2,6.46-4.72,6.53c-2.63.24-6-1.78-9-3-5.67-2.35-8.88.12-9.75,4.75-.62,3.26-.67,4.11-1.42,8.39-.27,1.6-.36,2.05-.72,4.36-.11.67-1,.45-1.78.45-1,0-.89-1.16-.93-1.49a6.18,6.18,0,0,0-3.47-5.12c-1.55-.68-2.16-.13-2.73.56-1.37,1.66.23,3.67,2.05,6.6,1.34,2.18-3.29,5.12-5.68,5.12-1.73,0-7.84-11.34-7.84-20.58C10.57,7.1,21.48,3.67,21.48,3.67Z"/><path class="cls-4" d="M27.36,28.37c1.14,2.18.9,4.47-.54,5.09s-3.57-.66-4.71-2.85-.92-4.47.53-5.09S26.2,26.17,27.36,28.37Z"/><path class="cls-6" d="M50.61,23.57a4.4,4.4,0,0,0-1.24-.24,4.91,4.91,0,0,0-1.26-.08l-1.51.14a10.42,10.42,0,0,0-2.77.82l-1.28.45,0,0a.21.21,0,0,1-.17-.39l1.22-.65a11.4,11.4,0,0,1,2.82-1.28L48,22a6.34,6.34,0,0,1,1.53-.12,5.75,5.75,0,0,1,1.45.08l.14,0a.85.85,0,1,1-.42,1.64Z"/><path class="cls-2" d="M47.5,37.09s-.53-.18-.4.35S51,41,53.4,41.18l.1-.24A12.29,12.29,0,0,0,54,38.13C53.72,38.18,50,38.67,47.5,37.09Z"/><path class="cls-6" d="M50.11,26.07c.28,0,.55-.06.87-.07a3.3,3.3,0,0,0-3.3-.38,3.76,3.76,0,0,0-1.39,1.06,3.36,3.36,0,0,0-.69,1.54,9.63,9.63,0,0,1,2.46-1.68l.11,0a1.26,1.26,0,0,0-.12.5,1.27,1.27,0,0,0,2.54,0A1.18,1.18,0,0,0,50.11,26.07Z"/><path class="cls-7" d="M1,284.45l17.1-.05c.6,1.14,2.93,5.59,7,5.57l7.39,0c5.57,0,6.19,4.63,6.39,8l-23.73.08-1.61-1.38-1.13,1.39L1,298.09Z"/><path class="cls-8" d="M39.16,149.33,31,213.81l-5.19,75.43L0,287l7.68-74,.26-27a157.92,157.92,0,0,1,.52-16c-5.28-7.37-2.89-21.33-2.23-24.36Z"/><path class="cls-8" d="M19.62,284.5H36.71c.6,1.14,2.91,5.59,7,5.59h7.39c5.58,0,6.17,4.65,6.37,8.05H33.75l-1.61-1.38L31,298.14H19.62Z"/><path class="cls-9" d="M42.29,150.05,40,215l1.37,74.82h-25l.33-73.45-3.57-29.08c-.86-5.93-2.6-12.62-2.6-12.62C4.57,167.86,5.58,153.13,6,150.05Z"/><polygon class="cls-2" points="17.74 41.99 40.35 52.91 37.67 58.21 17.74 47.73 17.74 41.99"/><path class="cls-10" d="M8.9,111.56V70c0-11.33,8.8-22.16,8.8-22.16L37.77,58.17s6.92,10,6.92,19.38V158c-3.89.41-35.53,3.54-43.5-2C1.19,156,8.9,124.71,8.9,111.56Z"/><path class="cls-11" d="M15.6,50.73l2-6.37L37.77,58.17a37.38,37.38,0,0,1,7,24.23v19.53L34.66,69.56l3.24-3.15-4.57.66Z"/><path class="cls-4" d="M101.31,120s13.15,4.22,19.07-.15c1.26-.93,1.44-4.68-.12-5.77-1.92-1.35-5-.86-6.85-1.4-.74-.21,0-1.19.89-1.27s1.51-.26,1.62-.7c.26-1-1.54-1.48-2.86-1.77-2.4-.51-9,.87-12,2.35Z"/><path class="cls-11" d="M13.64,72c.74,3.43,2.65,7.41,5.65,13,10.08,18.66,23.59,27.87,23.59,27.87l10-12.3S46.66,85.8,35.2,73.88a74.69,74.69,0,0,0-11.88-9.32C18.49,61.49,11.88,63.94,13.64,72Z"/><rect class="cls-2" x="93.98" y="112.62" width="12.45" height="5.67" transform="translate(-15.58 215.28) rotate(-89.81)"/><path class="cls-11" d="M52.88,100.57s5.67,1.55,21.78,4.54c7.34,1.36,12.45,1.26,24.79,3.31l.33,13.94C67.22,120,67.41,119.85,54,118.86c-3.58-.27-7.37-1.25-12.53-7.06Z"/></g></g></g></svg>