<svg xmlns="http://www.w3.org/2000/svg" xmlns:xlink="http://www.w3.org/1999/xlink" viewBox="0 0 235.22 306.34"><defs><style>.cls-1{isolation:isolate;}.cls-2{fill:#f7b49e;}.cls-3{fill:#6e262e;}.cls-4{fill:#8f4446;}.cls-16,.cls-5{fill:#fbddde;}.cls-6{fill:#17110a;}.cls-7{fill:#251d1a;}.cls-8{fill:#2c2620;}.cls-9{fill:#2b221c;}.cls-10{fill:#362c28;}.cls-11{fill:#e8937c;}.cls-12,.cls-13{fill:#a4b57d;}.cls-13,.cls-14,.cls-17,.cls-19{mix-blend-mode:multiply;}.cls-14{fill:#cecece;}.cls-15{fill:#f9c6ae;}.cls-16{mix-blend-mode:soft-light;}.cls-17{fill:#fce0db;}.cls-18,.cls-19{fill:#fcd6bf;}.cls-19{opacity:0.34;}.cls-20{fill:#c1aed5;}.cls-21{fill:#808d5d;}.cls-22{fill:#8f9f69;}.cls-23{fill:#f5a98d;}.cls-24{fill:#efeeee;}.cls-25{fill:#b25a5a;}.cls-26{fill:#ee7677;}.cls-27{fill:#e88175;}.cls-28{fill:url(#radial-gradient);}</style><radialGradient id="radial-gradient" cx="-4633.49" cy="43.26" r="4.37" gradientTransform="matrix(-1, 0, 0, 1, -4515.95, 0)" gradientUnits="userSpaceOnUse"><stop offset="0" stop-color="#f29183"/><stop offset="1" stop-color="#f5a98d"/></radialGradient></defs><title>He proposed</title><g class="cls-1"><g id="Layer_2" data-name="Layer 2"><g id="Capa_1" data-name="Capa 1"><path class="cls-2" d="M58.11,33.11a11.09,11.09,0,0,1-2-2.69c-.44-.78-.91-1.71-1.55-2.88a5.18,5.18,0,0,1,0-1.11c.19-2.27,1-6.4-.2-10.14,1-4.5-2.34-8.6-3.37-9.42-12-9.55-27.28-3.12-28.5-2.59,0,0-10.83,3.4-10.83,14,0,9.41,2.82,17.13,7.18,20.43a35.19,35.19,0,0,1-.07,6.15C18.63,48.25,16.28,63,16.28,63H38.84c-1.15-2.73,2.35-12.94,4.14-14,.75-.43,5.12-.24,5.48-.16,3,.67,5.84-.71,5.59-2.9a6.68,6.68,0,0,1,0-1.83c.29-.69.78-.84,1-1.37.13-.22,0-.38-.26-.48a16.58,16.58,0,0,0,.65-3.18c.64-.12.64-.58.5-.85a6.23,6.23,0,0,1-.24-1.35c0-.9,0-2.21,1.28-2.21C59.43,34.73,58.63,33.61,58.11,33.11Z"/><path class="cls-3" d="M22.07,3.77c.17-1.4-1.45-1.51-1.45-1.51,1.35-.45,3.2,1,3.2,1C23.48,1.81,25.49,0,25.49,0a2,2,0,0,0,0,2.64C33.74-1.95,45-.48,51.62,6.46a31.54,31.54,0,0,1,3.19,5.67,13,13,0,0,1,.5,1.31,5.73,5.73,0,0,0,2.77-1.89s-.21,6.64-4.84,6.71c-2.71.24-6.14-1.83-9.22-3.1-5.82-2.41-9.12.13-10,4.89-.63,3.35-.67,4.22-1.44,8.62-.28,1.65-.38,2.1-.75,4.47-.1.69-1,.47-1.83.47-1,0-.91-1.19-.95-1.53a6.34,6.34,0,0,0-3.57-5.26c-1.58-.7-2.21-.14-2.8.58-1.4,1.69.23,3.76,2.1,6.78,1.38,2.23-3.37,5.26-5.83,5.26-1.78,0-8.05-11.65-8.05-21.14C10.87,7.3,22.07,3.77,22.07,3.77Z"/><path class="cls-2" d="M28.11,29.15c1.18,2.25.94,4.59-.55,5.22s-3.66-.67-4.84-2.93-.93-4.59.55-5.22S26.93,26.89,28.11,29.15Z"/><path class="cls-4" d="M52,24.22A4.48,4.48,0,0,0,50.73,24a5.12,5.12,0,0,0-1.29-.09L47.89,24a10.54,10.54,0,0,0-2.85.84l-1.31.47h0a.21.21,0,0,1-.28-.13.22.22,0,0,1,.1-.27l1.26-.67A12,12,0,0,1,47.65,23l1.68-.41a6.2,6.2,0,0,1,1.57-.12,5.58,5.58,0,0,1,1.5.08l.14,0a.87.87,0,0,1-.43,1.69Z"/><path class="cls-5" d="M48.81,38.11s-.55-.19-.41.35,4,3.65,6.48,3.85l.09-.25a12.8,12.8,0,0,0,.53-2.88C55.2,39.23,51.39,39.73,48.81,38.11Z"/><path class="cls-4" d="M51.42,27.48c.29,0,.56-.05.88-.07A3.39,3.39,0,0,0,49,27a3.77,3.77,0,0,0-1.4,1.09,3.31,3.31,0,0,0-.7,1.55,9.32,9.32,0,0,1,2.5-1.7l.1,0a1.27,1.27,0,1,0,2.46.5A1.21,1.21,0,0,0,51.42,27.48Z"/><path class="cls-6" d="M1,292.27l17.56,0c.61,1.17,3,5.75,7.22,5.73l7.6,0c5.73,0,6.36,4.74,6.57,8.25l-24.39.07-1.65-1.4-1.16,1.41-11.71,0Z"/><path class="cls-7" d="M40.24,153.44,31.89,219.7l-5.34,77.49L0,294.89l7.9-76,.27-27.7a162.17,162.17,0,0,1,.53-16.39c-5.42-7.58-3-21.92-2.29-25Z"/><path class="cls-7" d="M20.16,292.32H37.73c.6,1.18,3,5.76,7.2,5.76h7.58c5.74,0,6.36,4.77,6.55,8.26H34.68L33,304.93l-1.16,1.41H20.16Z"/><path class="cls-8" d="M43.45,154.18l-2.32,66.76,1.41,76.88H16.8l.35-75.47L13.5,192.48c-.9-6.11-2.69-13-2.69-13-6.11-7-5.07-22.15-4.68-25.32Z"/><polygon class="cls-5" points="18.23 43.14 41.47 54.38 38.72 59.81 18.23 49.05 18.23 43.14"/><path class="cls-9" d="M9.15,114.63V71.87c0-11.63,9-22.77,9-22.77L38.82,59.77s7.1,10.26,7.1,19.91v82.65c-4,.43-36.5,3.64-44.7-2.08C1.22,160.25,9.15,128.14,9.15,114.63Z"/><path class="cls-10" d="M16,52.13l2-6.56,20.78,14.2A38.41,38.41,0,0,1,46,84.65v20.07L35.62,71.48l3.32-3.25-4.69.69Z"/><path class="cls-10" d="M18.62,70.09c-2.17,2.7-2.92,7.6-3.9,13.77-3.41,21.49-1,35.3-1,35.3l15.68,0S31.21,107.14,32.16,90c.24-4.3,0-14-.9-17.22C29.75,67.28,23.77,63.7,18.62,70.09Z"/><path class="cls-2" d="M28.1,167.54s.62,12.45,6.56,16.68c1.26.89,3.56.65,4.12-1.15.67-2.23,0-4.5-.06-6.41,0-.77,1.14-.34,1.47.44s.71,1.34,1.16,1.31c1-.06.93-1.92.78-3.24-.25-2.41-3.58-8.18-5.9-10.55Z"/><polygon class="cls-5" points="25.35 164.31 27.08 169.64 38.81 165.85 37.09 160.52 25.35 164.31"/><path class="cls-10" d="M28.75,117.21c1.52,4.64,7.84,32.75,9.72,45l-13,4.61C17.64,135.44,17,135,13.83,122c-.86-3.47.1-9,5.3-10.3C21.67,111.11,27.71,114,28.75,117.21Z"/><path class="cls-11" d="M118.92,117.5c-2,2.15-5.19,3.36-7.38,1.94h0c-2.21-1.43-2-4.29-1.08-7.09a83.46,83.46,0,0,1,7.6-15.89c2.56-4,7.6-11.14,11.35-14.84,2.09-2.07,4.67-3.64,7.77-1.63,2.78,1.8,3.14,5,2.07,7.71-2.23,5.67-6.07,11.38-8.82,15.62A104,104,0,0,1,118.92,117.5Z"/><path class="cls-11" d="M112.51,120.18s-21.61-9-39.77-23.5l2.78-3.63s26.07,9.68,40.92,18.47c0,0,3.58,2.67,2,6.22C117.05,120.77,112.51,120.18,112.51,120.18Z"/><path class="cls-12" d="M82.59,72.54a8.49,8.49,0,0,0-3.06-.88A18.36,18.36,0,0,1,80.78,74c.22.66.75,2.09,1.5,2.16s1.52-1.35,1.85-2a13.2,13.2,0,0,1,1.56-1.91A8.36,8.36,0,0,0,82.59,72.54Z"/><path class="cls-13" d="M84.2,72.23c-.6,1.28-1.86,2.28-3.34,1.72l-.11,0,0,.06c.22.66.75,2.09,1.5,2.16s1.52-1.35,1.85-2a13.2,13.2,0,0,1,1.56-1.91A4.34,4.34,0,0,0,84.2,72.23Z"/><path class="cls-14" d="M84.8,72.18A3.55,3.55,0,0,1,84,74.06c-.6.71-1.61,1.51-2.6,1l-.22-.12c.28.58.65,1.14,1.12,1.18.74.07,1.52-1.35,1.85-2a13.2,13.2,0,0,1,1.56-1.91A3.12,3.12,0,0,0,84.8,72.18Z"/><path class="cls-15" d="M89.57,66a46.13,46.13,0,0,0-2.5-7.13l-3.31-.29h0l-3.29-.29a46.45,46.45,0,0,0-3.69,6.61c-.76,2.11,2.16,7,5.78,7.82h0C86.24,72.49,90,68.16,89.57,66Z"/><path class="cls-15" d="M89.57,66a46.13,46.13,0,0,0-2.5-7.13l-3.31-.29h0l-3.29-.29a46.45,46.45,0,0,0-3.69,6.61c-.76,2.11,2.16,7,5.78,7.82h0C86.24,72.49,90,68.16,89.57,66Z"/><path class="cls-16" d="M77.55,65.08A50,50,0,0,1,82,58.37l-1.51-.13a47.07,47.07,0,0,0-3.69,6.59,5.06,5.06,0,0,0,.9,3.86A5.38,5.38,0,0,1,77.55,65.08Z"/><path class="cls-17" d="M89.57,66a42.7,42.7,0,0,0-2.36-6.82,11.91,11.91,0,0,1-3.74,2.43c-2.35.79-5.73.09-4.54,5a22.26,22.26,0,0,0,1.83,5.34,5.83,5.83,0,0,0,1.79.75h0C86.24,72.49,90,68.16,89.57,66Z"/><path class="cls-18" d="M89.58,66a39.05,39.05,0,0,0-2.18-6.37,11.59,11.59,0,0,1-3.78,2.62c-2,.68-4.92.08-3.91,4.31a14.86,14.86,0,0,0,2.57,6.09l.27.07h0C86.25,72.5,90,68.16,89.58,66Z"/><path class="cls-19" d="M89.58,66a39.05,39.05,0,0,0-2.18-6.37l-.49.46A3.2,3.2,0,0,1,87.34,62a17.35,17.35,0,0,1-.72,3.58,8.11,8.11,0,0,1-2.17,3.69,15.46,15.46,0,0,1-3,1.75l-.21.11a8.73,8.73,0,0,0,1,1.52l.27.07h0C86.25,72.5,90,68.16,89.58,66Z"/><path class="cls-19" d="M89.58,66a39.05,39.05,0,0,0-2.18-6.37l-.21.2a8,8,0,0,1,1.06,4.79,14.17,14.17,0,0,1-.41,2.4,5.92,5.92,0,0,1-1.58,2.61,12.16,12.16,0,0,1-3.49,2.16l-.83.41c.1.15.22.3.34.45l.27.07h0C86.25,72.5,90,68.16,89.58,66Z"/><path class="cls-16" d="M86.32,61.46a11.54,11.54,0,0,1-4.13,1.82c-1.31.25-2.37.5-2.13,1.67.12.62,1,.82,1.88.46a15.65,15.65,0,0,0,5-3.4C87.43,61.27,87,60.77,86.32,61.46Z"/><path class="cls-15" d="M87.12,58.88c-.06.65-1.61,1-3.47.89S80.33,59,80.39,58.3s1.61-1,3.46-.88S87.17,58.23,87.12,58.88Z"/><path class="cls-17" d="M86,57.9A4.76,4.76,0,0,1,83.66,59a6.13,6.13,0,0,1-2.94-.31,1.86,1.86,0,0,1-.25-.1c.31.55,1.61,1,3.18,1.18,1.86.15,3.41-.24,3.47-.89C87.15,58.53,86.73,58.18,86,57.9Z"/><path class="cls-17" d="M86.79,58.32a4.11,4.11,0,0,1-2.38,1A7.64,7.64,0,0,1,81.94,59a7.18,7.18,0,0,1-1.52-.63h0c.09.61,1.49,1.21,3.25,1.37s3.41-.24,3.47-.89A.69.69,0,0,0,86.79,58.32Z"/><path class="cls-12" d="M82.48,72.68a9.41,9.41,0,0,0,2.88-2.18,3.23,3.23,0,0,0,.42-1.73,3.65,3.65,0,0,1-1,1.31C84.08,70.57,81.81,71.8,82.48,72.68Z"/><path class="cls-13" d="M85.54,69.22a2.59,2.59,0,0,1-.39,1.13,9.06,9.06,0,0,1-2.77,2.13,1.24,1.24,0,0,0,.1.2,9.29,9.29,0,0,0,2.88-2.18,3.28,3.28,0,0,0,.43-1.73A3.15,3.15,0,0,1,85.54,69.22Z"/><path class="cls-16" d="M84.86,70.22a3.86,3.86,0,0,0,.92-1.08,1.79,1.79,0,0,0,0-.37,3.65,3.65,0,0,1-1,1.31c-.66.49-2.93,1.72-2.27,2.6l0,0C82.18,71.8,84.24,70.68,84.86,70.22Z"/><path class="cls-12" d="M82.44,72.65a2.52,2.52,0,0,0,3-.22,10.75,10.75,0,0,0,3.62-4.12,6.52,6.52,0,0,1-1.26,1c-.87.53-1.52,1.22-2.23,1.63A12.53,12.53,0,0,0,82.44,72.65Z"/><path class="cls-16" d="M85.56,71.14c.7-.41,1.36-1.1,2.23-1.63a8.13,8.13,0,0,0,1-.72c.08-.15.18-.31.26-.48a6.52,6.52,0,0,1-1.26,1c-.86.53-1.52,1.22-2.23,1.63a12.16,12.16,0,0,0-3.13,1.75l.15.09A14,14,0,0,1,85.56,71.14Z"/><path class="cls-13" d="M88.63,68.71a10.88,10.88,0,0,1-3.24,3.43,2.55,2.55,0,0,1-2.76.36l-.17.15a2.51,2.51,0,0,0,3-.22,10.55,10.55,0,0,0,3.62-4.13A3.9,3.9,0,0,1,88.63,68.71Z"/><path class="cls-12" d="M82.61,72.69a9.46,9.46,0,0,1-2.46-2.64A3.36,3.36,0,0,1,80,68.27a3.77,3.77,0,0,0,.79,1.48C81.4,70.34,83.42,72,82.61,72.69Z"/><path class="cls-13" d="M80.19,68.75a2.64,2.64,0,0,0,.19,1.19,9,9,0,0,0,2.36,2.57.68.68,0,0,1-.13.18,9.47,9.47,0,0,1-2.46-2.64A3.3,3.3,0,0,1,80,68.27,3.06,3.06,0,0,0,80.19,68.75Z"/><path class="cls-16" d="M80.69,69.86A3.57,3.57,0,0,1,80,68.64c0-.22,0-.37,0-.37a3.79,3.79,0,0,0,.8,1.47c.57.6,2.6,2.21,1.79,3l0,0C83.06,71.88,81.23,70.42,80.69,69.86Z"/><path class="cls-12" d="M82.66,72.67a2.52,2.52,0,0,1-2.92-.73,10.77,10.77,0,0,1-2.87-4.68A6.52,6.52,0,0,0,78,68.42c.76.67,1.28,1.46,1.91,2A12,12,0,0,1,82.66,72.67Z"/><path class="cls-16" d="M79.84,70.65c-.63-.53-1.16-1.32-1.92-2a9.32,9.32,0,0,1-.86-.88c-.06-.17-.12-.33-.17-.51A6.56,6.56,0,0,0,78,68.43c.76.67,1.29,1.46,1.92,2a12.53,12.53,0,0,1,2.8,2.26l-.17.07A13.8,13.8,0,0,0,79.84,70.65Z"/><path class="cls-13" d="M77.23,67.73a10.77,10.77,0,0,0,2.61,3.94,2.59,2.59,0,0,0,2.67.82l.13.17a2.52,2.52,0,0,1-2.93-.72,10.73,10.73,0,0,1-2.85-4.68A5.39,5.39,0,0,0,77.23,67.73Z"/><path class="cls-15" d="M96.73,72.55A46.52,46.52,0,0,0,95.94,65l-3.16-1h0l-3.13-1a46.24,46.24,0,0,0-5.11,5.56c-1.24,1.89.46,7.34,3.79,9h0C92,78.16,96.6,74.8,96.73,72.55Z"/><path class="cls-15" d="M96.73,72.55A46.52,46.52,0,0,0,95.94,65l-3.16-1h0l-3.13-1a46.24,46.24,0,0,0-5.11,5.56c-1.24,1.89.46,7.34,3.79,9h0C92,78.16,96.6,74.8,96.73,72.55Z"/><path class="cls-16" d="M85.22,68.94a52.79,52.79,0,0,1,5.85-5.52L89.64,63a46.24,46.24,0,0,0-5.11,5.56c-.55.84-.52,2.37,0,4A5.35,5.35,0,0,1,85.22,68.94Z"/><path class="cls-17" d="M96.73,72.55A42.82,42.82,0,0,0,96,65.38a12.07,12.07,0,0,1-4.18,1.51c-2.47.21-5.61-1.24-5.6,3.83a23.09,23.09,0,0,0,.55,5.62,6,6,0,0,0,1.56,1.13h0C92,78.16,96.6,74.8,96.73,72.55Z"/><path class="cls-18" d="M96.73,72.55a39.64,39.64,0,0,0-.64-6.69,11.91,11.91,0,0,1-4.29,1.68c-2.12.19-4.81-1.06-4.8,3.29a14.91,14.91,0,0,0,1.09,6.51,1.83,1.83,0,0,0,.24.13h0C92,78.17,96.6,74.8,96.73,72.55Z"/><path class="cls-19" d="M96.73,72.55a39.64,39.64,0,0,0-.64-6.69l-.59.34a3.25,3.25,0,0,1,0,2,17.56,17.56,0,0,1-1.54,3.32A8.06,8.06,0,0,1,91,74.55a15.28,15.28,0,0,1-3.31,1l-.23.06a8.71,8.71,0,0,0,.63,1.71,1.83,1.83,0,0,0,.24.13h0C92,78.17,96.6,74.8,96.73,72.55Z"/><path class="cls-19" d="M96.73,72.55a39.64,39.64,0,0,0-.64-6.69l-.26.15a8.12,8.12,0,0,1-.07,4.9,13.86,13.86,0,0,1-1,2.24,5.86,5.86,0,0,1-2.14,2.17,12,12,0,0,1-3.9,1.3c-.3.07-.61.15-.91.2a4.9,4.9,0,0,0,.24.52,1.83,1.83,0,0,0,.24.13h0C92,78.17,96.6,74.8,96.73,72.55Z"/><path class="cls-16" d="M94.59,67.44a11.43,11.43,0,0,1-4.44.81c-1.33,0-2.41-.06-2.46,1.14,0,.63.78,1,1.73.89A16,16,0,0,0,95,68.11C95.71,67.52,95.44,66.93,94.59,67.44Z"/><path class="cls-15" d="M96,65.11c-.2.62-1.79.65-3.56.06s-3-1.56-2.85-2.17,1.81-.64,3.58-.06S96.17,64.5,96,65.11Z"/><path class="cls-17" d="M95.15,63.92a4.74,4.74,0,0,1-2.57.51,6,6,0,0,1-2.79-1c-.08,0-.15-.1-.23-.15.19.6,1.34,1.37,2.84,1.87,1.77.59,3.36.56,3.56-.06C96.08,64.78,95.75,64.34,95.15,63.92Z"/><path class="cls-17" d="M95.79,64.5a4.18,4.18,0,0,1-2.55.38,7.24,7.24,0,0,1-2.34-.81,7.89,7.89,0,0,1-1.35-1h0c-.06.61,1.17,1.52,2.86,2.07s3.36.56,3.56-.06A.67.67,0,0,0,95.79,64.5Z"/><path class="cls-15" d="M68.72,72.41a47.58,47.58,0,0,1,.79-7.51l3.15-1.05h0l3.14-1a46.4,46.4,0,0,1,5.12,5.57c1.23,1.88-.48,7.33-3.8,9h0C73.47,78,68.86,74.65,68.72,72.41Z"/><path class="cls-15" d="M68.72,72.41a47.58,47.58,0,0,1,.79-7.51l3.15-1.05h0l3.14-1a46.4,46.4,0,0,1,5.12,5.57c1.23,1.88-.48,7.33-3.8,9h0C73.47,78,68.86,74.65,68.72,72.41Z"/><path class="cls-16" d="M80.23,68.79a52.56,52.56,0,0,0-5.85-5.51l1.43-.48a46.59,46.59,0,0,1,5.11,5.57c.55.83.52,2.37,0,4A5.5,5.5,0,0,0,80.23,68.79Z"/><path class="cls-17" d="M68.72,72.41a44,44,0,0,1,.73-7.18,12.12,12.12,0,0,0,4.19,1.51c2.47.22,5.6-1.24,5.59,3.83a22.09,22.09,0,0,1-.55,5.62,5.85,5.85,0,0,1-1.55,1.14h0C73.47,78,68.86,74.65,68.72,72.41Z"/><path class="cls-18" d="M68.72,72.41a40.58,40.58,0,0,1,.65-6.69,11.8,11.8,0,0,0,4.29,1.68c2.11.18,4.8-1.07,4.78,3.29a14.68,14.68,0,0,1-1.08,6.51l-.25.13h0C73.47,78,68.85,74.65,68.72,72.41Z"/><path class="cls-19" d="M68.72,72.41a40.58,40.58,0,0,1,.65-6.69l.58.33a3.25,3.25,0,0,0,0,2,17,17,0,0,0,1.53,3.33,8.16,8.16,0,0,0,3,3.08,15.26,15.26,0,0,0,3.31,1l.22.06a8.18,8.18,0,0,1-.62,1.72l-.25.13h0C73.47,78,68.85,74.65,68.72,72.41Z"/><path class="cls-19" d="M68.72,72.41a40.58,40.58,0,0,1,.65-6.69l.25.15a8.09,8.09,0,0,0,.07,4.89,13.49,13.49,0,0,0,1,2.24,5.81,5.81,0,0,0,2.14,2.18,12.31,12.31,0,0,0,3.89,1.3l.92.2c-.07.17-.16.35-.24.52l-.25.13h0C73.47,78,68.85,74.65,68.72,72.41Z"/><path class="cls-16" d="M70.85,67.29a11.63,11.63,0,0,0,4.45.82c1.32,0,2.41-.06,2.46,1.13,0,.63-.78,1-1.73.89A15.54,15.54,0,0,1,70.42,68C69.73,67.37,70,66.78,70.85,67.29Z"/><path class="cls-15" d="M69.48,65c.2.62,1.8.64,3.58.06s3-1.56,2.83-2.18-1.8-.64-3.58-.05S69.28,64.35,69.48,65Z"/><path class="cls-17" d="M70.3,63.77a4.67,4.67,0,0,0,2.57.51,6,6,0,0,0,2.79-1c.08-.05.15-.11.23-.15-.19.59-1.33,1.37-2.83,1.87-1.78.58-3.38.56-3.58-.06C69.37,64.64,69.69,64.19,70.3,63.77Z"/><path class="cls-17" d="M69.66,64.35a4.23,4.23,0,0,0,2.54.39,7.86,7.86,0,0,0,2.36-.81,7.74,7.74,0,0,0,1.33-1l0,0c0,.62-1.18,1.52-2.85,2.08s-3.38.56-3.58-.06A.7.7,0,0,1,69.66,64.35Z"/><path class="cls-12" d="M82.93,84a8.3,8.3,0,0,0-3.12-.6,14.94,14.94,0,0,1,1.43,2.17c.29.64.94,2,1.69,2s1.39-1.48,1.69-2.12a12.8,12.8,0,0,1,1.39-2A8.5,8.5,0,0,0,82.93,84Z"/><path class="cls-13" d="M84.52,83.52a2.69,2.69,0,0,1-3.18,2l-.12,0a.11.11,0,0,1,0,.05c.29.64.94,2,1.69,2s1.39-1.48,1.69-2.12a12.8,12.8,0,0,1,1.39-2A4.82,4.82,0,0,0,84.52,83.52Z"/><path class="cls-14" d="M85.11,83.43a3.41,3.41,0,0,1-.66,1.94c-.53.76-1.47,1.64-2.51,1.22l-.22-.1c.33.55.75,1.08,1.21,1.08.75,0,1.39-1.48,1.69-2.12a12.8,12.8,0,0,1,1.39-2A3.93,3.93,0,0,0,85.11,83.43Z"/><path class="cls-15" d="M89.33,76.8a46.53,46.53,0,0,0-3.1-6.89H79.6a46.24,46.24,0,0,0-3.11,6.89c-.58,2.17,2.74,6.82,6.41,7.31h0C86.58,83.62,89.91,79,89.33,76.8Z"/><path class="cls-15" d="M89.33,76.8a46.53,46.53,0,0,0-3.1-6.89H79.6a46.24,46.24,0,0,0-3.11,6.89c-.58,2.17,2.74,6.82,6.41,7.31h0C86.58,83.62,89.91,79,89.33,76.8Z"/><path class="cls-16" d="M77.27,77a52.06,52.06,0,0,1,3.83-7.06H79.6a46.48,46.48,0,0,0-3.11,6.88,5,5,0,0,0,1.22,3.77A5.49,5.49,0,0,1,77.27,77Z"/><path class="cls-17" d="M89.33,76.8a45.29,45.29,0,0,0-2.93-6.59A11.89,11.89,0,0,1,82.88,73c-2.27,1-5.71.58-4.11,5.4a24,24,0,0,0,2.29,5.16,5.65,5.65,0,0,0,1.84.59h0C86.58,83.62,89.91,79,89.33,76.8Z"/><path class="cls-18" d="M89.34,76.8a41.2,41.2,0,0,0-2.71-6.15,11.82,11.82,0,0,1-3.55,2.94c-2,.84-4.89.5-3.52,4.63a14.82,14.82,0,0,0,3.07,5.84l.28,0h0C86.59,83.62,89.92,79,89.34,76.8Z"/><path class="cls-19" d="M89.34,76.8a41.2,41.2,0,0,0-2.71-6.15c-.13.15-.28.32-.46.5a3.2,3.2,0,0,1,.6,1.86,17.57,17.57,0,0,1-.42,3.63,8.18,8.18,0,0,1-1.82,3.86,16.07,16.07,0,0,1-2.83,2l-.19.13a8.73,8.73,0,0,0,1.12,1.43l.28,0h0C86.59,83.62,89.92,79,89.34,76.8Z"/><path class="cls-19" d="M89.34,76.8a41.2,41.2,0,0,0-2.71-6.15l-.2.22a8.12,8.12,0,0,1,1.47,4.68A13,13,0,0,1,87.69,78a5.93,5.93,0,0,1-1.34,2.74,12.16,12.16,0,0,1-3.3,2.46l-.8.47.38.42.28,0h0C86.59,83.62,89.92,79,89.34,76.8Z"/><path class="cls-16" d="M85.71,72.62a11.5,11.5,0,0,1-4,2.16c-1.27.37-2.31.7-2,1.85.17.61,1.07.74,1.92.3a15.68,15.68,0,0,0,4.65-3.81C86.8,72.34,86.35,71.86,85.71,72.62Z"/><path class="cls-15" d="M86.28,70c0,.64-1.51,1.17-3.37,1.17s-3.38-.53-3.38-1.17,1.51-1.17,3.38-1.17S86.28,69.33,86.28,70Z"/><path class="cls-17" d="M85.13,69.09a4.67,4.67,0,0,1-2.29,1.3,6,6,0,0,1-3,0l-.26-.08c.36.51,1.69.89,3.28.89,1.86,0,3.37-.53,3.37-1.17C86.28,69.63,85.84,69.31,85.13,69.09Z"/><path class="cls-17" d="M85.92,69.45a4.19,4.19,0,0,1-2.3,1.16,7.44,7.44,0,0,1-2.49,0,7.84,7.84,0,0,1-1.56-.49h0c.14.59,1.59,1.07,3.36,1.07s3.37-.53,3.37-1.17A.68.68,0,0,0,85.92,69.45Z"/><path class="cls-12" d="M82.84,84.12a9.39,9.39,0,0,0,2.68-2.42,3.34,3.34,0,0,0,.29-1.76,3.92,3.92,0,0,1-.93,1.4C84.26,81.89,82.11,83.31,82.84,84.12Z"/><path class="cls-13" d="M85.59,80.41a2.53,2.53,0,0,1-.29,1.17,8.73,8.73,0,0,1-2.57,2.34.41.41,0,0,0,.12.2,9.39,9.39,0,0,0,2.68-2.42,3.29,3.29,0,0,0,.28-1.76A3.37,3.37,0,0,1,85.59,80.41Z"/><path class="cls-16" d="M85,81.46a3.49,3.49,0,0,0,.83-1.15,3.1,3.1,0,0,0,0-.37,3.92,3.92,0,0,1-.93,1.4c-.62.55-2.77,2-2,2.78h0C82.46,83.28,84.42,82,85,81.46Z"/><path class="cls-12" d="M82.81,84.09a2.49,2.49,0,0,0,3-.47A10.76,10.76,0,0,0,89,79.2a6.27,6.27,0,0,1-1.17,1.07c-.81.6-1.41,1.34-2.08,1.82A11.84,11.84,0,0,0,82.81,84.09Z"/><path class="cls-16" d="M85.78,82.33c.67-.48,1.27-1.22,2.08-1.82a6.21,6.21,0,0,0,.93-.81l.22-.5a5.88,5.88,0,0,1-1.17,1.07c-.82.61-1.41,1.34-2.07,1.82a11.87,11.87,0,0,0-3,2l.17.08A13.6,13.6,0,0,1,85.78,82.33Z"/><path class="cls-13" d="M88.63,79.64a10.76,10.76,0,0,1-2.94,3.7,2.55,2.55,0,0,1-2.72.59l-.15.16a2.51,2.51,0,0,0,3-.47,10.79,10.79,0,0,0,3.26-4.42A5.9,5.9,0,0,1,88.63,79.64Z"/><path class="cls-12" d="M83,84.12A9.4,9.4,0,0,1,80.3,81.7,3.29,3.29,0,0,1,80,79.94a3.83,3.83,0,0,0,.92,1.4C81.56,81.89,83.71,83.31,83,84.12Z"/><path class="cls-13" d="M80.23,80.41a2.53,2.53,0,0,0,.29,1.17,8.73,8.73,0,0,0,2.57,2.34.51.51,0,0,1-.12.2,9.26,9.26,0,0,1-2.68-2.42A3.24,3.24,0,0,1,80,79.94,2.64,2.64,0,0,0,80.23,80.41Z"/><path class="cls-16" d="M80.81,81.46A3.75,3.75,0,0,1,80,80.31c0-.22,0-.37,0-.37a3.83,3.83,0,0,0,.92,1.4c.61.55,2.77,2,2,2.78h0C83.35,83.28,81.4,82,80.81,81.46Z"/><path class="cls-12" d="M83,84.09a2.5,2.5,0,0,1-3-.47,10.7,10.7,0,0,1-3.26-4.42A6.27,6.27,0,0,0,78,80.27c.81.6,1.42,1.34,2.08,1.82A12,12,0,0,1,83,84.09Z"/><path class="cls-16" d="M80,82.33c-.66-.48-1.27-1.22-2.08-1.82A6.78,6.78,0,0,1,77,79.7a4.68,4.68,0,0,1-.22-.5A6.28,6.28,0,0,0,78,80.27c.82.61,1.41,1.34,2.08,1.82a11.82,11.82,0,0,1,3,2l-.16.08A13.1,13.1,0,0,0,80,82.33Z"/><path class="cls-13" d="M77.19,79.64a10.88,10.88,0,0,0,2.94,3.7,2.55,2.55,0,0,0,2.72.59l.15.16a2.51,2.51,0,0,1-3-.47,10.7,10.7,0,0,1-3.26-4.42A5.9,5.9,0,0,0,77.19,79.64Z"/><path class="cls-15" d="M102.9,77.62a46.93,46.93,0,0,0,.93-7.5L101,68.4h0l-2.83-1.71A46.24,46.24,0,0,0,91.91,71c-1.61,1.56-1.17,7.26,1.71,9.57h0C97,82,102.27,79.78,102.9,77.62Z"/><path class="cls-15" d="M102.9,77.62a46.93,46.93,0,0,0,.93-7.5L101,68.4h0l-2.83-1.71A46.24,46.24,0,0,0,91.91,71c-1.61,1.56-1.17,7.26,1.71,9.57h0C97,82,102.27,79.78,102.9,77.62Z"/><path class="cls-16" d="M92.51,71.52a50.06,50.06,0,0,1,6.93-4.06l-1.28-.78A47.25,47.25,0,0,0,91.92,71c-.72.7-1,2.2-.9,3.86A5.36,5.36,0,0,1,92.51,71.52Z"/><path class="cls-17" d="M102.9,77.62a42.8,42.8,0,0,0,.91-7.15,12.24,12.24,0,0,1-4.43.53c-2.45-.35-5.18-2.47-6.3,2.48a23.1,23.1,0,0,0-.73,5.6,5.74,5.74,0,0,0,1.27,1.45h0C97,82,102.27,79.78,102.9,77.62Z"/><path class="cls-18" d="M102.91,77.62a40,40,0,0,0,.88-6.66,12.14,12.14,0,0,1-4.56.68c-2.11-.3-4.45-2.12-5.41,2.13a14.72,14.72,0,0,0-.41,6.59l.22.18h0C97,82,102.28,79.78,102.91,77.62Z"/><path class="cls-19" d="M102.91,77.62a40,40,0,0,0,.88-6.66l-.65.19a3.31,3.31,0,0,1-.46,1.9,17,17,0,0,1-2.24,2.89,8.18,8.18,0,0,1-3.56,2.35,15.39,15.39,0,0,1-3.46.25H93.2a8.37,8.37,0,0,0,.21,1.81l.22.18h0C97,82,102.28,79.78,102.91,77.62Z"/><path class="cls-19" d="M102.91,77.62a40,40,0,0,0,.88-6.66l-.29.08a8.06,8.06,0,0,1-1.17,4.77,12.44,12.44,0,0,1-1.43,2,5.74,5.74,0,0,1-2.57,1.64,12,12,0,0,1-4.09.39c-.31,0-.62,0-.94,0,0,.19.07.37.11.56l.22.18h0C97,82,102.28,79.78,102.91,77.62Z"/><path class="cls-16" d="M102,72.16a11.56,11.56,0,0,1-4.51-.2c-1.29-.34-2.35-.6-2.65.56-.17.61.53,1.17,1.48,1.25a16,16,0,0,0,6-.86C103.06,72.48,102.91,71.85,102,72.16Z"/><path class="cls-15" d="M103.84,70.2c-.34.56-1.91.22-3.51-.74s-2.61-2.2-2.27-2.75,1.9-.23,3.49.74S104.17,69.64,103.84,70.2Z"/><path class="cls-17" d="M103.31,68.85a4.63,4.63,0,0,1-2.63-.08,6,6,0,0,1-2.5-1.57L98,67c0,.62,1,1.64,2.33,2.46,1.6,1,3.17,1.3,3.51.74C104,69.9,103.8,69.4,103.31,68.85Z"/><path class="cls-17" d="M103.8,69.56a4.14,4.14,0,0,1-2.56-.2,7.47,7.47,0,0,1-2.13-1.31A7.87,7.87,0,0,1,98,66.82l0,0c-.19.6.81,1.75,2.31,2.67s3.17,1.3,3.51.74A.73.73,0,0,0,103.8,69.56Z"/><path class="cls-12" d="M93.56,80.52a9.36,9.36,0,0,0,3.55-.68,3.34,3.34,0,0,0,1.15-1.37,3.82,3.82,0,0,1-1.51.73C95.94,79.34,93.35,79.44,93.56,80.52Z"/><path class="cls-13" d="M97.85,78.77a2.79,2.79,0,0,1-.86.85,8.75,8.75,0,0,1-3.42.67.88.88,0,0,0,0,.23,9.36,9.36,0,0,0,3.55-.68,3.37,3.37,0,0,0,1.15-1.36S98.1,78.61,97.85,78.77Z"/><path class="cls-16" d="M96.79,79.37a3.69,3.69,0,0,0,1.3-.56l.18-.34a3.81,3.81,0,0,1-1.52.73c-.81.14-3.4.24-3.18,1.32h0C93.68,79.6,96,79.51,96.79,79.37Z"/><path class="cls-12" d="M93.54,80.48a2.53,2.53,0,0,0,2.79,1.13,10.76,10.76,0,0,0,5.07-2.09,6.21,6.21,0,0,1-1.55.3c-1,.1-1.9.42-2.72.48A11.84,11.84,0,0,0,93.54,80.48Z"/><path class="cls-16" d="M97,80.51c.81-.06,1.71-.39,2.71-.48a7.21,7.21,0,0,0,1.22-.21c.15-.09.3-.2.45-.31a6.23,6.23,0,0,1-1.56.3c-1,.1-1.89.42-2.72.48a12.1,12.1,0,0,0-3.58.18,1.56,1.56,0,0,0,.09.15A13.44,13.44,0,0,1,97,80.51Z"/><path class="cls-13" d="M100.83,79.68a10.85,10.85,0,0,1-4.42,1.65,2.54,2.54,0,0,1-2.63-.91l-.22.06a2.51,2.51,0,0,0,2.79,1.14,10.87,10.87,0,0,0,5.07-2.09A5.06,5.06,0,0,1,100.83,79.68Z"/><path class="cls-12" d="M93.68,80.59a9.46,9.46,0,0,1-1-3.46,3.28,3.28,0,0,1,.67-1.65,3.8,3.8,0,0,0,.07,1.67C93.63,77.94,94.73,80.28,93.68,80.59Z"/><path class="cls-13" d="M93.25,76a2.51,2.51,0,0,0-.35,1.15,9,9,0,0,0,1,3.34.47.47,0,0,1-.2.1,9.38,9.38,0,0,1-1-3.45,3.26,3.26,0,0,1,.68-1.65A4.28,4.28,0,0,0,93.25,76Z"/><path class="cls-16" d="M93.2,77.19a3.73,3.73,0,0,1-.1-1.4c.12-.19.21-.31.21-.31a3.9,3.9,0,0,0,.06,1.67c.25.79,1.36,3.13.31,3.44l0,0C94.43,80.06,93.44,77.94,93.2,77.19Z"/><path class="cls-12" d="M93.73,80.59a2.52,2.52,0,0,1-2.3-1.94,10.72,10.72,0,0,1-.49-5.47,6.07,6.07,0,0,0,.45,1.51c.38.94.5,1.89.83,2.63A11.84,11.84,0,0,1,93.73,80.59Z"/><path class="cls-16" d="M92.1,77.53c-.33-.75-.45-1.69-.84-2.63a9.17,9.17,0,0,1-.39-1.17,5,5,0,0,0,.08-.54,6.66,6.66,0,0,0,.45,1.52c.39.93.51,1.88.84,2.63a11.77,11.77,0,0,1,1.5,3.26h-.18A13.51,13.51,0,0,0,92.1,77.53Z"/><path class="cls-13" d="M91.05,73.76a10.91,10.91,0,0,0,.6,4.68,2.55,2.55,0,0,0,2,1.92c0,.07,0,.14,0,.21a2.49,2.49,0,0,1-2.29-1.94,10.47,10.47,0,0,1-.49-5.46A4.14,4.14,0,0,0,91.05,73.76Z"/><path class="cls-15" d="M62,77.62a47.37,47.37,0,0,1-.91-7.5l2.83-1.72h0l2.84-1.71A45.8,45.8,0,0,1,73,71c1.63,1.56,1.18,7.26-1.7,9.57h0C67.89,82,62.62,79.78,62,77.62Z"/><path class="cls-15" d="M62,77.62a47.37,47.37,0,0,1-.91-7.5l2.83-1.72h0l2.84-1.71A45.8,45.8,0,0,1,73,71c1.63,1.56,1.18,7.26-1.7,9.57h0C67.89,82,62.62,79.78,62,77.62Z"/><path class="cls-16" d="M72.4,71.52a50.67,50.67,0,0,0-6.94-4.06l1.29-.78A46.69,46.69,0,0,1,73,71a5.15,5.15,0,0,1,.91,3.86A5.42,5.42,0,0,0,72.4,71.52Z"/><path class="cls-17" d="M62,77.62a43.74,43.74,0,0,1-.9-7.15,12.27,12.27,0,0,0,4.43.53c2.46-.35,5.18-2.47,6.31,2.48a22.58,22.58,0,0,1,.72,5.6,5.74,5.74,0,0,1-1.27,1.45h0C67.89,82,62.62,79.78,62,77.62Z"/><path class="cls-18" d="M62,77.62A40.94,40.94,0,0,1,61.12,71a12.14,12.14,0,0,0,4.56.68c2.1-.3,4.44-2.12,5.41,2.13a14.85,14.85,0,0,1,.4,6.59l-.22.18h0C67.88,82,62.62,79.78,62,77.62Z"/><path class="cls-19" d="M62,77.62A40.94,40.94,0,0,1,61.12,71l.65.19a3.09,3.09,0,0,0,.46,1.9,16.49,16.49,0,0,0,2.23,2.89A8.15,8.15,0,0,0,68,78.29a15.26,15.26,0,0,0,3.44.25h.24a8.38,8.38,0,0,1-.22,1.81l-.22.18h0C67.88,82,62.62,79.78,62,77.62Z"/><path class="cls-19" d="M62,77.62A40.94,40.94,0,0,1,61.12,71l.29.08a8.06,8.06,0,0,0,1.16,4.77,13.11,13.11,0,0,0,1.43,2,5.83,5.83,0,0,0,2.58,1.64,11.92,11.92,0,0,0,4.09.39c.3,0,.61,0,.92,0,0,.19-.06.37-.1.56l-.22.18h0C67.88,82,62.62,79.78,62,77.62Z"/><path class="cls-16" d="M62.93,72.16a11.57,11.57,0,0,0,4.51-.2c1.28-.34,2.34-.6,2.65.56.16.61-.53,1.17-1.48,1.25a16,16,0,0,1-6-.86C61.85,72.48,62,71.85,62.93,72.16Z"/><path class="cls-15" d="M61.07,70.2c.34.56,1.9.22,3.49-.74s2.61-2.2,2.28-2.75-1.9-.23-3.5.74S60.73,69.64,61.07,70.2Z"/><path class="cls-17" d="M61.6,68.85a4.6,4.6,0,0,0,2.62-.08,6,6,0,0,0,2.5-1.57l.18-.2c-.05.62-1,1.64-2.34,2.46-1.59,1-3.15,1.3-3.49.74C60.89,69.9,61.1,69.4,61.6,68.85Z"/><path class="cls-17" d="M61.11,69.56a4.15,4.15,0,0,0,2.56-.2,7.24,7.24,0,0,0,2.11-1.31,8,8,0,0,0,1.09-1.23s0,0,0,0c.18.6-.81,1.75-2.33,2.67s-3.15,1.3-3.49.74A.67.67,0,0,1,61.11,69.56Z"/><path class="cls-12" d="M71.34,80.52a9.36,9.36,0,0,1-3.55-.68,3.43,3.43,0,0,1-1.15-1.37,3.82,3.82,0,0,0,1.51.73C69,79.34,71.55,79.44,71.34,80.52Z"/><path class="cls-13" d="M67.06,78.77a2.59,2.59,0,0,0,.86.85,8.67,8.67,0,0,0,3.41.67.59.59,0,0,1,0,.23,9.3,9.3,0,0,1-3.54-.68,3.34,3.34,0,0,1-1.16-1.36S66.8,78.61,67.06,78.77Z"/><path class="cls-16" d="M68.11,79.37a3.55,3.55,0,0,1-1.29-.56,3.14,3.14,0,0,1-.18-.34,3.82,3.82,0,0,0,1.51.73c.81.14,3.4.24,3.19,1.32h0C71.22,79.6,68.88,79.51,68.11,79.37Z"/><path class="cls-12" d="M71.36,80.48a2.52,2.52,0,0,1-2.79,1.13,10.76,10.76,0,0,1-5.07-2.09,6.21,6.21,0,0,0,1.55.3c1,.1,1.9.42,2.72.48A11.82,11.82,0,0,1,71.36,80.48Z"/><path class="cls-16" d="M67.89,80.51c-.82-.06-1.7-.39-2.72-.48A7.41,7.41,0,0,1,64,79.82c-.14-.09-.29-.2-.43-.31a6.07,6.07,0,0,0,1.55.3c1,.1,1.9.42,2.72.48a12.09,12.09,0,0,1,3.58.18,1.56,1.56,0,0,1-.09.15A13.44,13.44,0,0,0,67.89,80.51Z"/><path class="cls-13" d="M64.07,79.68a10.9,10.9,0,0,0,4.43,1.65,2.55,2.55,0,0,0,2.63-.91l.21.06a2.51,2.51,0,0,1-2.78,1.14,10.78,10.78,0,0,1-5.07-2.09A4.46,4.46,0,0,0,64.07,79.68Z"/><path class="cls-12" d="M71.23,80.59a9.32,9.32,0,0,0,1-3.46,3.28,3.28,0,0,0-.67-1.65,3.64,3.64,0,0,1-.07,1.67C71.28,77.94,70.17,80.28,71.23,80.59Z"/><path class="cls-13" d="M71.65,76A2.51,2.51,0,0,1,72,77.14a8.93,8.93,0,0,1-1,3.34.63.63,0,0,0,.2.1,9.18,9.18,0,0,0,1-3.45,3.36,3.36,0,0,0-.68-1.65A4.28,4.28,0,0,1,71.65,76Z"/><path class="cls-16" d="M71.7,77.19a3.53,3.53,0,0,0,.1-1.4c-.12-.19-.21-.31-.21-.31a3.64,3.64,0,0,1-.07,1.67c-.24.79-1.35,3.13-.29,3.44a0,0,0,0,1,0,0C70.47,80.06,71.46,77.94,71.7,77.19Z"/><path class="cls-12" d="M71.18,80.59a2.52,2.52,0,0,0,2.29-1.94A10.72,10.72,0,0,0,74,73.18a6.07,6.07,0,0,1-.45,1.51c-.38.94-.5,1.89-.82,2.63A11.55,11.55,0,0,0,71.18,80.59Z"/><path class="cls-16" d="M72.8,77.53c.33-.75.46-1.69.84-2.63A7.49,7.49,0,0,0,74,73.73c0-.18,0-.36-.07-.54a6.06,6.06,0,0,1-.45,1.52c-.38.93-.5,1.88-.83,2.63a11.49,11.49,0,0,0-1.5,3.26h.17A14,14,0,0,1,72.8,77.53Z"/><path class="cls-13" d="M73.85,73.76a10.75,10.75,0,0,1-.59,4.68,2.57,2.57,0,0,1-2,1.92c0,.07,0,.14,0,.21a2.5,2.5,0,0,0,2.29-1.94,10.57,10.57,0,0,0,.5-5.46A3.61,3.61,0,0,1,73.85,73.76Z"/><path class="cls-15" d="M68.51,80.77a45.7,45.7,0,0,1,.78-7.51l3.15-1.05h0l3.14-1a45.74,45.74,0,0,1,5.11,5.57c1.24,1.89-.47,7.34-3.8,9h0C73.26,86.38,68.64,83,68.51,80.77Z"/><path class="cls-15" d="M68.51,80.77a45.7,45.7,0,0,1,.78-7.51l3.15-1.05h0l3.14-1a45.74,45.74,0,0,1,5.11,5.57c1.24,1.89-.47,7.34-3.8,9h0C73.26,86.38,68.64,83,68.51,80.77Z"/><path class="cls-16" d="M80,77.15a52.52,52.52,0,0,0-5.86-5.51l1.44-.47a45.4,45.4,0,0,1,5.11,5.56,5.17,5.17,0,0,1,0,4A5.58,5.58,0,0,0,80,77.15Z"/><path class="cls-17" d="M68.51,80.77a43,43,0,0,1,.72-7.18,11.92,11.92,0,0,0,4.19,1.51c2.47.22,5.61-1.24,5.59,3.84a23.48,23.48,0,0,1-.54,5.61,5.94,5.94,0,0,1-1.57,1.14h0C73.26,86.38,68.64,83,68.51,80.77Z"/><path class="cls-18" d="M68.5,80.77a39.54,39.54,0,0,1,.64-6.69,11.76,11.76,0,0,0,4.29,1.67c2.12.2,4.81-1.06,4.8,3.3a14.79,14.79,0,0,1-1.09,6.51l-.25.13h0C73.25,86.38,68.63,83,68.5,80.77Z"/><path class="cls-19" d="M68.5,80.77a39.54,39.54,0,0,1,.64-6.69l.59.33a3.2,3.2,0,0,0,0,2,17.52,17.52,0,0,0,1.53,3.32,8.31,8.31,0,0,0,3,3.08,15.28,15.28,0,0,0,3.31,1l.22.06a8.93,8.93,0,0,1-.62,1.71l-.25.13h0C73.25,86.38,68.63,83,68.5,80.77Z"/><path class="cls-19" d="M68.5,80.77a39.54,39.54,0,0,1,.64-6.69l.26.15a8,8,0,0,0,.07,4.9,14.25,14.25,0,0,0,1,2.24,5.83,5.83,0,0,0,2.13,2.17,12.34,12.34,0,0,0,3.91,1.3l.9.2c-.07.17-.14.35-.23.52l-.25.13h0C73.25,86.38,68.63,83,68.5,80.77Z"/><path class="cls-16" d="M70.63,75.65a11.5,11.5,0,0,0,4.44.82c1.34,0,2.43-.06,2.47,1.14,0,.62-.78,1-1.73.88a15.42,15.42,0,0,1-5.62-2.17C69.51,75.73,69.79,75.15,70.63,75.65Z"/><path class="cls-15" d="M69.26,73.33c.2.62,1.8.64,3.57.06s3-1.56,2.84-2.17-1.8-.65-3.57-.06S69.05,72.72,69.26,73.33Z"/><path class="cls-17" d="M70.07,72.13a4.73,4.73,0,0,0,2.58.52,6,6,0,0,0,2.79-1l.23-.16c-.19.6-1.33,1.38-2.84,1.88-1.77.58-3.37.56-3.57-.06C69.14,73,69.48,72.56,70.07,72.13Z"/><path class="cls-17" d="M69.44,72.71a4.15,4.15,0,0,0,2.54.38,7.16,7.16,0,0,0,3.69-1.76,0,0,0,0,0,0,0c0,.62-1.18,1.52-2.86,2.08s-3.37.56-3.57-.06A.7.7,0,0,1,69.44,72.71Z"/><path class="cls-12" d="M77,85.69a9.38,9.38,0,0,1-3.3-1.46,3.38,3.38,0,0,1-.82-1.59,3.72,3.72,0,0,0,1.31,1C74.92,84,77.4,84.68,77,85.69Z"/><path class="cls-13" d="M73.18,83a2.57,2.57,0,0,0,.65,1A8.76,8.76,0,0,0,77,85.46a.62.62,0,0,1,0,.23,9.3,9.3,0,0,1-3.3-1.46,3.34,3.34,0,0,1-.83-1.59S73,82.81,73.18,83Z"/><path class="cls-16" d="M74.08,83.84A3.54,3.54,0,0,1,72.94,83c-.07-.21-.11-.36-.11-.36a3.81,3.81,0,0,0,1.32,1c.77.32,3.25,1,2.81,2h0C77.05,84.77,74.79,84.15,74.08,83.84Z"/><path class="cls-12" d="M77,85.65a2.51,2.51,0,0,1-3,.48A10.75,10.75,0,0,1,69.55,83,6,6,0,0,0,71,83.6c1,.32,1.77.84,2.55,1.07A12.1,12.1,0,0,1,77,85.65Z"/><path class="cls-16" d="M73.6,84.9c-.78-.24-1.57-.75-2.54-1.07a8.65,8.65,0,0,1-1.13-.47L69.56,83A6.22,6.22,0,0,0,71,83.6c1,.31,1.76.83,2.53,1.07a12.08,12.08,0,0,1,3.47,1l-.13.13A13.64,13.64,0,0,0,73.6,84.9Z"/><path class="cls-13" d="M70.06,83.24a10.85,10.85,0,0,0,4,2.6,2.56,2.56,0,0,0,2.77-.3l.2.11a2.52,2.52,0,0,1-3,.48A10.82,10.82,0,0,1,69.52,83,4,4,0,0,0,70.06,83.24Z"/><path class="cls-12" d="M76.84,85.73a9.33,9.33,0,0,0,1.78-3.14,3.32,3.32,0,0,0-.29-1.76,3.61,3.61,0,0,1-.44,1.61C77.48,83.16,75.88,85.19,76.84,85.73Z"/><path class="cls-13" d="M78.28,81.34a2.51,2.51,0,0,1,.09,1.2,8.85,8.85,0,0,1-1.71,3,.54.54,0,0,0,.18.15,9.33,9.33,0,0,0,1.78-3.14,3.27,3.27,0,0,0-.28-1.77A4.85,4.85,0,0,1,78.28,81.34Z"/><path class="cls-16" d="M78.05,82.53a3.65,3.65,0,0,0,.42-1.35,2.75,2.75,0,0,0-.14-.36,3.71,3.71,0,0,1-.43,1.62c-.42.72-2,2.74-1.06,3.29l0,0C76.21,85.05,77.66,83.2,78.05,82.53Z"/><path class="cls-12" d="M76.79,85.72a2.5,2.5,0,0,0,2.67-1.39,10.59,10.59,0,0,0,1.7-5.21,6.43,6.43,0,0,1-.78,1.38c-.58.83-.91,1.72-1.39,2.37A11.69,11.69,0,0,0,76.79,85.72Z"/><path class="cls-16" d="M79.06,83.1c.49-.66.82-1.55,1.4-2.38a8.68,8.68,0,0,0,.64-1c0-.18,0-.36.05-.55a6.16,6.16,0,0,1-.78,1.38c-.58.84-.91,1.72-1.4,2.38a11.94,11.94,0,0,0-2.2,2.85l.18,0A13.52,13.52,0,0,1,79.06,83.1Z"/><path class="cls-13" d="M80.92,79.65a10.66,10.66,0,0,1-1.63,4.44A2.55,2.55,0,0,1,76.9,85.5a1.89,1.89,0,0,0-.09.21,2.51,2.51,0,0,0,2.67-1.38,10.77,10.77,0,0,0,1.7-5.22A3.86,3.86,0,0,1,80.92,79.65Z"/><path class="cls-15" d="M97.45,80.77a47.74,47.74,0,0,0-.79-7.51l-3.14-1.05h0l-3.14-1a46.4,46.4,0,0,0-5.12,5.57c-1.23,1.89.48,7.34,3.81,9h0C92.7,86.38,97.32,83,97.45,80.77Z"/><path class="cls-15" d="M97.45,80.77a47.74,47.74,0,0,0-.79-7.51l-3.14-1.05h0l-3.14-1a46.4,46.4,0,0,0-5.12,5.57c-1.23,1.89.48,7.34,3.81,9h0C92.7,86.38,97.32,83,97.45,80.77Z"/><path class="cls-16" d="M86,77.15a51.69,51.69,0,0,1,5.85-5.51l-1.43-.47a46.06,46.06,0,0,0-5.12,5.56c-.54.83-.51,2.37,0,4A5.45,5.45,0,0,1,86,77.15Z"/><path class="cls-17" d="M97.45,80.77a43,43,0,0,0-.72-7.18,12,12,0,0,1-4.2,1.51c-2.47.22-5.6-1.24-5.59,3.84a22.47,22.47,0,0,0,.55,5.61,5.79,5.79,0,0,0,1.57,1.14h0C92.7,86.38,97.32,83,97.45,80.77Z"/><path class="cls-18" d="M97.45,80.77a39.54,39.54,0,0,0-.64-6.69,11.76,11.76,0,0,1-4.29,1.67c-2.11.2-4.8-1.06-4.79,3.3a14.8,14.8,0,0,0,1.08,6.51l.25.13h0C92.7,86.38,97.33,83,97.45,80.77Z"/><path class="cls-19" d="M97.45,80.77a39.54,39.54,0,0,0-.64-6.69c-.16.1-.37.21-.59.33a3.2,3.2,0,0,1,0,2,16.92,16.92,0,0,1-1.53,3.32,8.08,8.08,0,0,1-3,3.08,15.37,15.37,0,0,1-3.3,1l-.23.06a9.66,9.66,0,0,0,.62,1.71l.25.13h0C92.7,86.38,97.33,83,97.45,80.77Z"/><path class="cls-19" d="M97.45,80.77a39.54,39.54,0,0,0-.64-6.69l-.26.15a8,8,0,0,1-.07,4.9,13.32,13.32,0,0,1-1,2.24,5.86,5.86,0,0,1-2.14,2.17,12.34,12.34,0,0,1-3.91,1.3l-.9.2c.07.17.15.35.23.52l.25.13h0C92.7,86.38,97.33,83,97.45,80.77Z"/><path class="cls-16" d="M95.32,75.65a11.44,11.44,0,0,1-4.43.82c-1.34,0-2.43-.06-2.47,1.14,0,.62.78,1,1.72.88a15.42,15.42,0,0,0,5.62-2.17C96.44,75.73,96.17,75.15,95.32,75.65Z"/><path class="cls-15" d="M96.69,73.33c-.2.62-1.8.64-3.57.06s-3-1.56-2.83-2.17,1.79-.65,3.57-.06S96.9,72.72,96.69,73.33Z"/><path class="cls-17" d="M95.87,72.13a4.66,4.66,0,0,1-2.57.52,6.08,6.08,0,0,1-2.79-1l-.21-.16c.18.6,1.32,1.38,2.82,1.88,1.77.58,3.37.56,3.57-.06C96.8,73,96.48,72.56,95.87,72.13Z"/><path class="cls-17" d="M96.51,72.71a4.14,4.14,0,0,1-2.54.38,7.14,7.14,0,0,1-2.35-.81,6.86,6.86,0,0,1-1.33-1,0,0,0,0,1,0,0c-.06.62,1.17,1.52,2.85,2.08s3.37.56,3.57-.06A.67.67,0,0,0,96.51,72.71Z"/><path class="cls-12" d="M89,85.69a9.45,9.45,0,0,0,3.3-1.46,3.38,3.38,0,0,0,.82-1.59,3.7,3.7,0,0,1-1.32,1C91,84,88.55,84.68,89,85.69Z"/><path class="cls-13" d="M92.77,83a2.57,2.57,0,0,1-.65,1,8.72,8.72,0,0,1-3.18,1.42,1,1,0,0,0,.06.23,9.47,9.47,0,0,0,3.31-1.46,3.32,3.32,0,0,0,.81-1.59A3.67,3.67,0,0,1,92.77,83Z"/><path class="cls-16" d="M91.88,83.84A3.66,3.66,0,0,0,93,83a3.33,3.33,0,0,0,.1-.36,3.72,3.72,0,0,1-1.31,1c-.76.32-3.26,1-2.81,2h0C88.9,84.77,91.16,84.15,91.88,83.84Z"/><path class="cls-12" d="M89,85.65a2.49,2.49,0,0,0,3,.48A10.72,10.72,0,0,0,96.41,83,6,6,0,0,1,95,83.6c-1,.32-1.76.84-2.54,1.07A12,12,0,0,0,89,85.65Z"/><path class="cls-16" d="M92.35,84.9c.78-.24,1.57-.75,2.54-1.07A10.75,10.75,0,0,0,96,83.36c.11-.14.23-.27.35-.41A6.25,6.25,0,0,1,95,83.6c-1,.31-1.76.83-2.55,1.07a12.11,12.11,0,0,0-3.46,1l.13.13A13.88,13.88,0,0,1,92.35,84.9Z"/><path class="cls-13" d="M95.89,83.24A10.81,10.81,0,0,1,92,85.84a2.56,2.56,0,0,1-2.77-.3l-.2.11a2.51,2.51,0,0,0,3,.48A10.73,10.73,0,0,0,96.42,83,3.41,3.41,0,0,1,95.89,83.24Z"/><path class="cls-12" d="M89.12,85.73a9.65,9.65,0,0,1-1.79-3.14,3.43,3.43,0,0,1,.29-1.76,3.85,3.85,0,0,0,.43,1.61C88.48,83.16,90.07,85.19,89.12,85.73Z"/><path class="cls-13" d="M87.68,81.34a2.51,2.51,0,0,0-.1,1.2,9.2,9.2,0,0,0,1.71,3,.61.61,0,0,1-.17.15,9.29,9.29,0,0,1-1.79-3.14,3.37,3.37,0,0,1,.28-1.77A3.83,3.83,0,0,0,87.68,81.34Z"/><path class="cls-16" d="M87.9,82.53a3.65,3.65,0,0,1-.42-1.35,2.75,2.75,0,0,1,.14-.36,3.88,3.88,0,0,0,.43,1.62c.43.72,2,2.74,1.07,3.29,0,0,0,0,0,0C89.74,85.05,88.3,83.2,87.9,82.53Z"/><path class="cls-12" d="M89.17,85.72a2.52,2.52,0,0,1-2.68-1.39,10.7,10.7,0,0,1-1.7-5.21,6.6,6.6,0,0,0,.77,1.38c.59.83.93,1.72,1.41,2.37A12.21,12.21,0,0,1,89.17,85.72Z"/><path class="cls-16" d="M86.89,83.1c-.49-.66-.81-1.55-1.4-2.38a8.68,8.68,0,0,1-.64-1c0-.18,0-.36,0-.55a6.16,6.16,0,0,0,.78,1.38c.58.84.92,1.72,1.4,2.38a11.94,11.94,0,0,1,2.2,2.85l-.17,0A14.29,14.29,0,0,0,86.89,83.1Z"/><path class="cls-13" d="M85,79.65a11,11,0,0,0,1.64,4.44,2.56,2.56,0,0,0,2.4,1.41,1.89,1.89,0,0,1,.09.21,2.51,2.51,0,0,1-2.67-1.38,10.78,10.78,0,0,1-1.71-5.22A4.41,4.41,0,0,0,85,79.65Z"/><path class="cls-20" d="M98.73,81s-4.54,4.87-7.64,8.07a28.42,28.42,0,0,0-5.72,9.28c-2.15,5.23,1.07,13.6,4.85,18.16,0,0-3.69,2.13-6.21.77s-3.75-.34-4.82,0-4.49,1-5.36-.34c0,0,8-12,4.85-18.93-2.05-4.41-4.05-6.61-6.9-10.12-1.6-2-4-4.35-7.09-7.64,0,0,7.78-.65,12.32,1.84s5.82-.09,10.18-1.45S93,82.8,98.73,81Z"/><path class="cls-21" d="M85.71,99.4a.36.36,0,0,1-.33.4l-6,.81a.36.36,0,0,1-.41-.33h0a.38.38,0,0,1,.34-.4l6-.81a.38.38,0,0,1,.4.33Z"/><path class="cls-22" d="M85.21,101.76a.38.38,0,0,1-.42.3l-6-.84a.37.37,0,0,1-.29-.43h0a.36.36,0,0,1,.43-.29l5.94.84a.36.36,0,0,1,.29.42Z"/><path class="cls-12" d="M85.32,100.47a.36.36,0,0,1-.37.36H79.14a.37.37,0,0,1-.37-.36h0a.38.38,0,0,1,.37-.37H85a.37.37,0,0,1,.37.37Z"/><path class="cls-23" d="M126.53,299.18s4.83-3.28,8.24-12.78l-1.86-23.72,11.73.05-.74,19.07-10.68,17.56S124.7,305.52,126.53,299.18Z"/><path class="cls-24" d="M143.9,282s-7.74,10.77-11,15.16a27.59,27.59,0,0,1-3.06,3.13c-1.49,1.42-3.69.51-3-1.34,0,0-3.39,2.71-6.48,3-.94.07-2.46.9-2.46,2.08,0,1,.52,2.18,2.81,2.18,1.71,0,8.66.06,11.45,0,2.06-.05,4.24-2.07,5.94-4.65,2.32-3.51,6-10.34,6-10.34v15.19h1.8v-8.57c0-1.63,3.13-5.2,3.13-9.51A6.24,6.24,0,0,0,143.9,282Z"/><path class="cls-23" d="M97.8,299.18s4.83-3.28,8.24-12.78l-1.86-23.72,11.74.05-.75,19.07L104.5,299.36S96,305.52,97.8,299.18Z"/><path class="cls-24" d="M115.17,282s-7.73,10.77-11,15.16a27.13,27.13,0,0,1-3,3.13c-1.5,1.42-3.69.51-3-1.34,0,0-3.39,2.71-6.49,3-.93.07-2.45.9-2.45,2.08,0,1,.52,2.18,2.81,2.18,1.71,0,8.67.06,11.45,0,2.06-.05,4.24-2.07,5.94-4.65,2.32-3.51,6-10.34,6-10.34v15.19h1.81v-8.57c0-1.63,3.12-5.2,3.12-9.51A6.24,6.24,0,0,0,115.17,282Z"/><path class="cls-5" d="M119.32,139.65s-39.41,39.76-46,123.85c-.6,7.84-.93,16.1-.93,24.81,0,0,25.43,12.52,63.94,12.32,25.43-.13,74.89-5.58,98.86-21.56,0,0-22.33-5.31-25.67-24.22a246.07,246.07,0,0,0-22.37-66.36c-11.5-22.61-29.87-41.26-44.75-48.94Z"/><path class="cls-23" d="M109.6,84.8h0a72.13,72.13,0,0,1,8.91-9.25,16.63,16.63,0,0,0,6.33-11c0-1.4-.06,0-.09-2.81a29.71,29.71,0,0,0-2.34-10l16.33-2.37s-1.57,4-1.11,6.95c.81,5,.93,9.08,4,14.24,2.64,4.44,5,13,5,15.28v.5H109.6V84.8Z"/><path class="cls-5" d="M142.27,139.55l-23.06.1-3.56-38.11C105.87,94.62,109.26,85,109.26,85h37.65a45.55,45.55,0,0,1-.51,19C140.31,127.37,140.61,137.4,142.27,139.55Z"/><path class="cls-23" d="M107.61,35.06c-.27,3.53-1.61,5.11-3.2,6.31-.67.5-.65,1.31-.07,1.46,1.53.4,1.87,2.14,2,2.91.2,1.15.92,1.25.82,2.13,0,.36.49,1.16.33,1.39-.25.49-.55,1.08,0,1.35,0,0,.9.62.62,3.14-.25,2.21,2.57,3.61,5.65,2.93,1.88-.42,10.11-2.41,12.09-2.88A103.36,103.36,0,0,0,138,50.53a27.2,27.2,0,0,0,4.38-3.36c7.05-4.81,11.1-23-5-32.85-4.16-2.54-15.67-1.72-22.78,1.4a11.06,11.06,0,0,0-6.7,7.67c-1.21,3.93-.51,8.2-.31,10.55Z"/><path class="cls-25" d="M108.63,31.25a7.13,7.13,0,0,1,1.52-.42,9.33,9.33,0,0,1,3.35,0,7.11,7.11,0,0,1,1.7.48,5.75,5.75,0,0,1,1.36.68l1.19.84a.25.25,0,0,1,.06.35.25.25,0,0,1-.31.08l0,0-1.23-.6a5.37,5.37,0,0,0-1.3-.41,5.94,5.94,0,0,0-1.53-.18,7.68,7.68,0,0,0-2.8.48,6.73,6.73,0,0,0-1.14.51,1,1,0,0,1-1.29-.47A1,1,0,0,1,108.63,31.25Z"/><path class="cls-5" d="M106.92,47.4a6.48,6.48,0,0,0,.42,2.39l3.83-2Z"/><path class="cls-26" d="M106.25,45.73c.39-.08.7,0,1.57.38a17.37,17.37,0,0,0,4.47.87c.32,0,.43.38.18.48a8.34,8.34,0,0,1-6.24,0s-1-.46-.73-1.11A.87.87,0,0,1,106.25,45.73Z"/><path class="cls-26" d="M106.47,49.52c.27-.28.56-.4,1.5-.58a17.52,17.52,0,0,0,4.17-1.85c.25-.17.56.07.4.3a8.28,8.28,0,0,1-5.1,3.58s-1,.16-1.23-.49A.87.87,0,0,1,106.47,49.52Z"/><path class="cls-27" d="M109.74,37.18c.16-1.4,1.23-2.7,3.72-2.7,2.12,0,3,1.83,3.13,3.32a11.75,11.75,0,0,0-3.4-1.1A7,7,0,0,0,109.74,37.18Z"/><path class="cls-28" d="M112.77,45.19c.71,1.74,3.41,2.3,6,1.24s4.2-3.34,3.5-5.1-3.42-2.3-6-1.24S112.07,43.44,112.77,45.19Z"/><path class="cls-4" d="M108.7,23.43l0-.05a5.37,5.37,0,0,0,1-.41c3.79-2.06,7.22,3.35,10.13,8,4.06,6.55,9,5.94,13.62,5.7a19.54,19.54,0,0,0-.37,8,7.15,7.15,0,0,0,4.33,5.19,11.17,11.17,0,0,0,.56,1.21,12.57,12.57,0,0,0,1.17,1.68,14.18,14.18,0,0,0,3,2.7,14.73,14.73,0,0,1-2.6-3,12.34,12.34,0,0,1-.91-1.72c-.06-.15-.11-.31-.16-.46a8,8,0,0,0,.9.85,8.34,8.34,0,0,0,2,1.22,8.22,8.22,0,0,1-1.61-1.56,6.48,6.48,0,0,1-.75-1.15c.29-.11.6-.24.93-.4a8.42,8.42,0,0,0,7.35,5.17c2.75.11,4.1-1.18,4.76-2.57a5.72,5.72,0,0,0,1.69-1,7.41,7.41,0,0,0,1.75-2.41c2.12-.54,4.57-2.17,4.15-6.92-.28-3.07-1.75-4.43-2.81-5a4.71,4.71,0,0,0-.41-2.44,6.75,6.75,0,0,0-1.53-2.08,7,7,0,0,0-1.73-2.93,6.56,6.56,0,0,0-4.91-1.73c-2.76-10.34-14.39-20.15-33.28-12.57a17.31,17.31,0,0,0-4,2.25c-.09.06-4,2.66-5.62,2.72S104.24,24.89,108.7,23.43Zm47,12.72a17.31,17.31,0,0,0-.38-2.59,5.84,5.84,0,0,1,.68.81,4.56,4.56,0,0,1,.7,2.15A4,4,0,0,0,155.67,36.15Zm-3.45,15.28a7.36,7.36,0,0,0,.43-2.69,7,7,0,0,0,1.07,0,6.55,6.55,0,0,1-.65,1.61A4.67,4.67,0,0,1,152.22,51.43Z"/><path class="cls-5" d="M146.48,27.34c0-.21.56-.36,1.24-.36l.37,0-.27-.24c-.49-.5-.77-1-.63-1.15s.64.14,1.14.64c.08.09.17.17.24.26,0-.11,0-.23,0-.36,0-.69.16-1.25.35-1.25s.36.56.36,1.25c0,.13,0,.25,0,.36a1.89,1.89,0,0,1,.24-.26c.49-.5,1-.78,1.13-.64s-.14.65-.63,1.15l-.27.24.36,0c.69,0,1.25.15,1.25.36s-.56.35-1.25.35a2.17,2.17,0,0,1-.36,0,3.2,3.2,0,0,1,.27.25c.49.49.77,1,.63,1.13s-.64-.14-1.13-.63a1.45,1.45,0,0,1-.24-.26c0,.11,0,.23,0,.36,0,.69-.15,1.25-.36,1.25s-.35-.56-.35-1.25c0-.13,0-.25,0-.36a3,3,0,0,1-.24.26c-.5.49-1,.78-1.14.63s.14-.64.63-1.13l.27-.25a2.17,2.17,0,0,1-.37,0C147,27.69,146.48,27.54,146.48,27.34Z"/><path class="cls-5" d="M145.86,32.85c-.11-.14.23-.55.75-.92l.28-.19a1.66,1.66,0,0,1-.32,0c-.63-.11-1.12-.34-1.08-.53s.56-.23,1.18-.12l.32.08-.2-.27c-.36-.52-.54-1-.4-1.13s.57.22.94.75l.18.29a1.86,1.86,0,0,1,0-.34c.1-.62.34-1.1.52-1.08s.23.57.12,1.19a2.55,2.55,0,0,1-.07.32c.08-.06.17-.12.26-.2.52-.36,1-.54,1.13-.39s-.23.56-.75.92a2.31,2.31,0,0,1-.28.19l.33,0c.62.11,1.11.33,1.08.52s-.57.23-1.19.12l-.33-.07a1.94,1.94,0,0,1,.21.27c.36.51.54,1,.4,1.12s-.58-.23-.93-.75a2.75,2.75,0,0,1-.19-.28,1.37,1.37,0,0,1,0,.34c-.11.62-.33,1.1-.51,1.07s-.24-.56-.13-1.19a3,3,0,0,1,.06-.32,2,2,0,0,1-.26.21C146.47,32.82,146,33,145.86,32.85Z"/><path class="cls-5" d="M150,31.2c-.08-.1.17-.41.56-.69a1.2,1.2,0,0,1,.21-.13l-.25,0c-.47-.08-.83-.25-.8-.38s.41-.18.89-.1l.24.06-.16-.21c-.28-.38-.4-.76-.29-.84s.42.18.7.56a2.53,2.53,0,0,1,.13.22l0-.25c.08-.47.25-.83.38-.81s.19.42.1.88a.62.62,0,0,1,0,.25l.2-.15c.38-.27.77-.4.84-.3s-.17.43-.56.69a.91.91,0,0,1-.21.15l.25,0c.47.08.83.25.81.38s-.42.18-.9.1a2,2,0,0,1-.24-.05c.06.06.11.13.16.19.27.39.41.77.29.85s-.42-.17-.7-.56l-.13-.21c0,.07,0,.16,0,.24-.08.47-.25.83-.38.81s-.19-.42-.11-.89l.06-.24-.2.15C150.41,31.18,150,31.32,150,31.2Z"/><path class="cls-5" d="M143.74,30.15c-.09-.13.22-.53.71-.87l.27-.17-.32,0c-.59-.1-1-.32-1-.49s.52-.22,1.11-.12a1.32,1.32,0,0,1,.3.08l-.18-.26c-.35-.48-.52-1-.38-1.06s.53.22.87.71l.18.27a1.87,1.87,0,0,1,0-.32c.1-.59.31-1,.47-1s.23.54.13,1.13a2.21,2.21,0,0,1-.07.3l.25-.19c.49-.35,1-.51,1.06-.37s-.22.53-.71.87l-.26.17.31,0c.59.1,1,.32,1,.49s-.53.22-1.11.12l-.31-.07a2.35,2.35,0,0,1,.19.25c.35.48.51.95.37,1.06s-.52-.22-.87-.71a2.85,2.85,0,0,1-.17-.26c0,.1,0,.2,0,.31-.09.6-.31,1-.49,1s-.22-.53-.11-1.11a1.55,1.55,0,0,1,.06-.31l-.24.19C144.31,30.13,143.84,30.29,143.74,30.15Z"/><path class="cls-5" d="M144.64,26.55c-.07-.1.16-.39.51-.63l.21-.13a2,2,0,0,1-.24,0c-.43-.08-.75-.23-.74-.35s.39-.17.82-.09l.23.05-.15-.19c-.25-.35-.37-.69-.27-.76s.39.15.64.51l.12.19a.83.83,0,0,1,0-.22c.07-.44.24-.76.36-.75s.16.39.08.82a1.43,1.43,0,0,1,0,.22,1.09,1.09,0,0,1,.17-.13c.37-.26.71-.38.77-.28s-.15.39-.5.64l-.2.12.23,0c.42.08.76.23.74.35s-.39.17-.81.1l-.23-.05.15.17c.24.36.36.71.26.78s-.39-.16-.63-.52a.8.8,0,0,1-.13-.19,2,2,0,0,1,0,.23c-.08.42-.25.76-.36.74s-.17-.39-.1-.82a2.25,2.25,0,0,0,.05-.22l-.17.14C145.06,26.53,144.71,26.65,144.64,26.55Z"/><path class="cls-5" d="M150.25,28c-.07-.11.19-.42.57-.7l.23-.14a1.24,1.24,0,0,1-.27,0c-.47-.08-.83-.25-.8-.39s.42-.18.89-.1l.25.05L151,26.5c-.28-.39-.41-.77-.3-.85s.43.17.7.57a1.28,1.28,0,0,1,.14.21,1.87,1.87,0,0,1,0-.25c.07-.47.25-.84.39-.82s.17.43.09.9c0,.08,0,.17-.05.25a1.08,1.08,0,0,1,.2-.16c.39-.27.77-.42.86-.3s-.18.43-.57.71l-.22.13.25,0c.48.08.84.26.82.39s-.43.18-.9.1l-.25-.05c.05.06.11.12.16.19.27.4.41.78.3.86s-.43-.18-.71-.57a2.39,2.39,0,0,1-.13-.21l0,.25c-.09.47-.27.84-.4.81s-.18-.42-.09-.89c0-.09,0-.17,0-.25a.74.74,0,0,1-.19.15C150.72,28,150.33,28.12,150.25,28Z"/><path class="cls-23" d="M130,36.75c-1.24,1.68-1.28,3.77-.07,4.66s3.18.26,4.42-1.42,1.29-3.76.09-4.65S131.21,35.07,130,36.75Z"/><path class="cls-5" d="M130.21,41.15a1.21,1.21,0,1,0,1.21-1.2A1.2,1.2,0,0,0,130.21,41.15Z"/><path class="cls-5" d="M119.39,75.68a1,1,0,0,1-2,0,1,1,0,1,1,2,0Z"/><path class="cls-5" d="M121.44,75.42a1,1,0,1,1-2,0,1,1,0,0,1,2,0Z"/><path class="cls-5" d="M123.48,75a1,1,0,0,1-1,1,1,1,0,1,1,1-1Z"/><path class="cls-5" d="M125.41,74.4a1,1,0,1,1-1-1A1,1,0,0,1,125.41,74.4Z"/><path class="cls-5" d="M127.38,73.76a1,1,0,1,1-1-1A1,1,0,0,1,127.38,73.76Z"/><path class="cls-5" d="M129.3,73a1,1,0,0,1-1,1,1,1,0,1,1,0-2.05A1,1,0,0,1,129.3,73Z"/><path class="cls-5" d="M131,72a1,1,0,1,1-1-1A1,1,0,0,1,131,72Z"/><path class="cls-5" d="M132.67,71a1,1,0,1,1-1-1A1,1,0,0,1,132.67,71Z"/><path class="cls-5" d="M134.34,69.91a1,1,0,0,1-2.05,0,1,1,0,1,1,2.05,0Z"/><path class="cls-5" d="M135.79,68.58a1,1,0,1,1-1-1A1,1,0,0,1,135.79,68.58Z"/><path class="cls-5" d="M137.2,67.39a1,1,0,1,1-1-1A1,1,0,0,1,137.2,67.39Z"/><path class="cls-5" d="M138.78,66.24a1,1,0,0,1-2.05,0,1,1,0,1,1,2.05,0Z"/><path class="cls-5" d="M140.23,64.83a1,1,0,0,1-2,0,1,1,0,1,1,2,0Z"/><path class="cls-4" d="M118,37a3.16,3.16,0,0,1-2.52-.3,4.75,4.75,0,0,0-2.18-.83,4.65,4.65,0,0,0-3.74,1.49c.32-.09.64-.15.95-.22a1.15,1.15,0,0,0-.26.69,1.3,1.3,0,0,0,2.59,0,1.26,1.26,0,0,0-.5-1,6.53,6.53,0,0,1,.88,0,8.19,8.19,0,0,1,3.48,1.22,3.31,3.31,0,0,0-.47-.66A2.73,2.73,0,0,0,118,37Z"/><path class="cls-11" d="M75.65,92.81s-3.65.4-2.91,5.53c.39,2.63,4.86,3.79,8.13,3.19,2-.38,4.55-3.83.72-6-1.54-.86-5.1-1.23-5.52-2C75.77,93,75.87,93.27,75.65,92.81Z"/><path class="cls-23" d="M129.22,118.41c-1.21,2.68-3.83,4.86-6.37,4.22h0c-2.54-.63-3.24-3.42-3.3-6.35a84.65,84.65,0,0,1,2-17.51c1.13-4.63,3.6-13,6-17.7,1.32-2.63,3.25-5,6.84-4.06,3.19.8,4.57,3.69,4.43,6.63-.27,6.08-2.06,12.74-3.29,17.63A103.22,103.22,0,0,1,129.22,118.41Z"/><path class="cls-23" d="M122.83,123S100.09,117.41,80,105.8l1.13-4s28.31,5.67,44.31,12.11c0,0,4,2.11,2.9,5.86C127.39,122.92,122.83,123,122.83,123Z"/><path class="cls-23" d="M80,105.8s-3.1.63-4.63-3.88c-.63-1.85-1.21-7,1.22-7.75.63-.2.83,1.5,1.75,3,0,0,.43.93.48,1.07.46,1.23,2.55,2.35,2.31,3.5Z"/></g></g></g></svg>