<svg xmlns="http://www.w3.org/2000/svg" viewBox="0 0 55.88 216.02"><defs><style>.cls-1{fill:#de0040;}</style></defs><title>heart-2</title><g id="Layer_2" data-name="Layer 2"><g id="Layer_1-2" data-name="Layer 1"><path class="cls-1" d="M519.22,285.35c6.75,0,10.59,4.88,10.89,9.7.37,6-7.26,13.24-9.77,15.63-6,5.75-9.88,8.9-12.7,11.19l-1.4,1.15-1.42-1.16c-2.83-2.28-6.69-5.39-12.73-11.11-2.52-2.37-10.18-9.61-9.83-15.59.28-4.85,4.13-9.75,10.93-9.75h.64c5.19.24,9,5.6,9,5.64l3.31,4.8,3.29-4.82c0-.05,3.83-5.41,9-5.67l.73,0m0-4-.93,0c-7.32.36-12.12,7.41-12.12,7.41s-4.84-7-12.16-7.36l-.82,0c-8.7,0-14.51,6.36-14.93,13.51s6.65,14.56,11.08,18.74c9.5,9,13.71,11.66,16.91,14.64,3.2-3,7.4-5.7,16.85-14.72,4.41-4.2,11.46-11.51,11-18.78s-6.23-13.45-14.88-13.45Z" transform="translate(-478.24 -112.28)"/><rect class="cls-1" x="27.67" width="0.5" height="176.51"/></g></g></svg>