<svg xmlns="http://www.w3.org/2000/svg" viewBox="0 0 27.71 33.32"><defs><style>.cls-1{fill:#ffc878;}.cls-2{fill:#c4a676;}</style></defs><title>heart</title><g id="Layer_2" data-name="Layer 2"><g id="OBJECTS"><g id="heart"><path class="cls-1" d="M.47,20.07c-1.89,4.67,2.27,9.15,6.2,11a31.6,31.6,0,0,0,9.41,2.27.42.42,0,0,0,.37-.22,43.18,43.18,0,0,0,3-6.7A22.3,22.3,0,0,0,21,19.13a6.06,6.06,0,0,0-2.39-5.08,4.24,4.24,0,0,0-5,.28,5.65,5.65,0,0,0-1.8,5.87c-1.74-1.52-3.7-2.94-6.06-3.12A5.1,5.1,0,0,0,.47,20.07ZM5.1,17.9c2.73-.1,5,1.58,7.18,3,.12.09.27-.11.16-.21a.27.27,0,0,0,.11-.21v0A8.25,8.25,0,0,1,12.82,17a4.22,4.22,0,0,1,2.4-2.48c2.28-.87,4.26.95,4.78,3.09.63,2.58-.32,5.52-1.11,8a36.09,36.09,0,0,1-3,6.88c-4.51-.68-9.38-1.4-12.66-4.89A7.56,7.56,0,0,1,.93,21.94,4.2,4.2,0,0,1,5.1,17.9Z"/><path class="cls-2" d="M3.19,27.53c3.28,3.49,8.15,4.21,12.66,4.89a36.09,36.09,0,0,0,3-6.88c.79-2.45,1.74-5.39,1.11-8-.52-2.14-2.5-4-4.78-3.09A4.22,4.22,0,0,0,12.82,17a8.25,8.25,0,0,0-.27,3.53v0a.27.27,0,0,1-.11.21c.11.1,0,.3-.16.21-2.15-1.46-4.45-3.14-7.18-3a4.2,4.2,0,0,0-4.17,4A7.56,7.56,0,0,0,3.19,27.53Z"/><path class="cls-1" d="M23.88,15.25A48.77,48.77,0,0,0,27,10.52a4.83,4.83,0,0,0,.39-4.2,2,2,0,0,0-3.05-1.09,4.28,4.28,0,0,0-2,2.4,3.28,3.28,0,0,0-2.57-1.41,2.33,2.33,0,0,0-2.2,2.39,5.24,5.24,0,0,0,1.61,4,17.62,17.62,0,0,0,4,2.33C23,15.3,23.61,15.66,23.88,15.25Zm-3-2.25a4.93,4.93,0,0,1-2.14-2.62c-.34-1-.67-2.7.59-3.22s2.28.75,2.87,1.64A.42.42,0,0,0,23,8.59a3.58,3.58,0,0,1,1.87-2.71C26.34,5.1,27,7.1,26.89,8.26a7.36,7.36,0,0,1-1.51,3.37l-2.05,3C22.51,14.09,21.69,13.55,20.87,13Z"/><path class="cls-2" d="M25.38,11.63a7.36,7.36,0,0,0,1.51-3.37c.1-1.16-.55-3.16-2.05-2.38A3.58,3.58,0,0,0,23,8.59a.42.42,0,0,1-.78.21c-.59-.89-1.64-2.15-2.87-1.64s-.93,2.21-.59,3.22A4.93,4.93,0,0,0,20.87,13c.82.55,1.64,1.09,2.46,1.65Z"/><path class="cls-1" d="M6.56,13a.24.24,0,0,0,.15,0,1.93,1.93,0,0,0,1.88-1.66,4.19,4.19,0,0,0-.25-3.28,1.52,1.52,0,0,0-2.13-.45,2.21,2.21,0,0,0-.67,1.83,1.74,1.74,0,0,0-2.4,1.8,2.14,2.14,0,0,0,1.35,1.62A3.27,3.27,0,0,0,6.56,13Zm-.85-2.73A.31.31,0,0,0,6.18,10a3.2,3.2,0,0,1,.1-1.44c.43-1.07,1.57-.48,1.84.36a4.53,4.53,0,0,1,0,1.94c-.12.88-.46,1.56-1.42,1.69a.26.26,0,0,0-.13.06,3.12,3.12,0,0,1-2.41-.66A1.14,1.14,0,0,1,5.71,10.23Z"/><path class="cls-2" d="M6.71,12.51c1-.13,1.3-.81,1.42-1.69a4.53,4.53,0,0,0,0-1.94C7.85,8,6.71,7.45,6.28,8.52A3.2,3.2,0,0,0,6.18,10a.31.31,0,0,1-.47.27,1.14,1.14,0,0,0-1.54,1.68,3.12,3.12,0,0,0,2.41.66A.26.26,0,0,1,6.71,12.51Z"/><path class="cls-1" d="M17,3.77A11.47,11.47,0,0,0,19,1.9,1.08,1.08,0,0,0,19.24.55a1.11,1.11,0,0,0-1.91,0,1.31,1.31,0,0,0-2.19.32,2,2,0,0,0,1.5,2.63A.24.24,0,0,0,17,3.77ZM15.46,1.83a1.14,1.14,0,0,1,.29-1A.71.71,0,0,1,17,1.34c0,.28.46.35.5.07V1.32a1.25,1.25,0,0,1,.14-.41q.41-.66,1.14-.09c.23.48-.45,1-.72,1.22A13.85,13.85,0,0,0,16.79,3.3,1.74,1.74,0,0,1,15.46,1.83Z"/><path class="cls-2" d="M18.07,2c.27-.26.95-.74.72-1.22q-.73-.57-1.14.09a1.25,1.25,0,0,0-.14.41v.09c0,.28-.53.21-.5-.07A.71.71,0,0,0,15.75.81a1.14,1.14,0,0,0-.29,1A1.74,1.74,0,0,0,16.79,3.3,13.85,13.85,0,0,1,18.07,2Z"/></g></g></g></svg>