<svg xmlns="http://www.w3.org/2000/svg" xmlns:xlink="http://www.w3.org/1999/xlink" viewBox="0 0 214.25 303.86"><defs><style>.cls-1{fill:#e8937c;}.cls-2{fill:#201811;}.cls-3{fill:#fbddde;}.cls-4{fill:#f5a98d;}.cls-5{fill:#17110a;}.cls-6{fill:#251d1a;}.cls-7{fill:#2c2620;}.cls-8{fill:#f7b49e;}.cls-9{fill:#6e262e;}.cls-10{fill:#8f4446;}.cls-11{fill:#2b221c;}.cls-12{fill:#362c28;}.cls-13{fill:#b25a5a;}.cls-14{fill:#ee7677;}.cls-15{fill:url(#radial-gradient);}.cls-16{fill:#e88175;}.cls-17{fill:#e5e5e5;}</style><radialGradient id="radial-gradient" cx="-4514.11" cy="349.67" r="4.21" gradientTransform="matrix(-0.99, 0.13, 0.13, 0.99, -4455.11, 276.37)" gradientUnits="userSpaceOnUse"><stop offset="0" stop-color="#f29183"/><stop offset="1" stop-color="#f5a98d"/></radialGradient></defs><title>logo</title><g id="Layer_2" data-name="Layer 2"><g id="Capa_1" data-name="Capa 1"><path class="cls-1" d="M61.19,92.44c-2.34,1.63-5.57,2.15-7.36.37h0c-1.79-1.78-1-4.43.39-6.9A81.15,81.15,0,0,1,64.52,72.4c3.21-3.29,9.37-9,13.64-11.76,2.38-1.54,5.13-2.51,7.66,0,2.27,2.23,2,5.3.42,7.68-3.21,4.91-8,9.54-11.39,13A101.48,101.48,0,0,1,61.19,92.44Z"/><path class="cls-1" d="M52.27,91.51s-9.84-20.34-13.6-42.43l3.69-1.65S55.58,71.94,60.65,87.78c0,0,.85,4.22-2.57,5.75C55.15,94.84,52.27,91.51,52.27,91.51Z"/><path class="cls-1" d="M39.54,50.67S32.19,46.31,30.06,35c-.17-.91-.11-2.87,1.41-2.86.75,0,1.48.4,2.89,1.88a29.44,29.44,0,0,1,3.51,4.79c-.35-1.68-.9-4.29.17-4.37,1.64-.12,2.61,8.63,3.94,11.89a9.33,9.33,0,0,0,1,2.18Z"/><path class="cls-2" d="M16.89,67.3c.58,3.43,2.29,7.45,5,13.09C31,99.33,44,109.06,44,109.06l10.46-11.7A98.1,98.1,0,0,0,38.15,70.12a73.72,73.72,0,0,0-11.32-9.77C22.19,57.08,15.53,59.2,16.89,67.3Z"/><rect class="cls-3" x="81.42" y="91.45" width="5.61" height="12.34" transform="translate(-30.84 39.45) rotate(-22.4)"/><path class="cls-2" d="M52.88,96.71s5.76-.74,21.64-4.14c7.24-1.56-5.72,1.73,6.35-1.1l5.6,12.63c-30.7,10.22-13,4.71-25.63,8.91-3.38,1.12-10.84.63-17.09-4.11Z"/><path class="cls-4" d="M199.76,270.28s-1.51-5.42-9.16-11.45l-34.23-6.64,9-11.7,23.84,8.58L202,264.23S205,273.9,199.76,270.28Z"/><path class="cls-3" d="M189.34,249.12s7.48,10.37,10.48,14.72a24.86,24.86,0,0,1,1.92,3.75c.83,1.8-.66,3.53-2.14,2.3,0,0,1.45,3.92.73,6.84-.21.87.08,2.52,1.16,2.89.86.29,2.14.19,2.84-1.91.53-1.56,2.73-7.89,3.52-10.46.59-1.91-.59-4.52-2.43-6.87-2.5-3.19-7.61-8.62-7.61-8.62l13.89,4.66.55-1.65-7.84-2.63c-1.49-.5-3.8-4.46-7.73-5.78A6,6,0,0,0,189.34,249.12Z"/><path class="cls-4" d="M96.73,296.05s3.91-4.05,5.25-13.69l-6.42-22,11.09-2.27,3,18.14-6.62,18.69S96.24,302.38,96.73,296.05Z"/><path class="cls-3" d="M109.72,276.36s-5.16,11.69-7.4,16.48a24.77,24.77,0,0,1-2.27,3.55c-1.12,1.63-3.38,1.22-3.06-.68,0,0-2.66,3.23-5.54,4.08-.86.26-2.13,1.34-1.9,2.47.19.89.91,1.94,3.09,1.49,1.6-.34,8.18-1.64,10.8-2.26,1.94-.45,3.59-2.78,4.69-5.55,1.49-3.78,3.6-10.93,3.6-10.93l3,14.34,1.71-.36s-1.24-5.95-1.7-8.1c-.31-1.54,1.93-5.52,1.09-9.59A6,6,0,0,0,109.72,276.36Z"/><path class="cls-3" d="M62.87,122.89s-24.33,88.38,7.84,155.84c0,0,41.5,7.35,75.51-7.59,29.48-13,47.14-28.17,68-46.5,0,0-27.27-4-33.64-21.41-15-40.83-68.8-78.18-92.63-82.21Z"/><path class="cls-5" d="M22.78,289.93l16.93-.05c.6,1.13,2.91,5.53,7,5.52l7.32,0c5.53,0,6.14,4.58,6.33,7.95l-23.5.08L35.22,302l-1.11,1.37-11.29,0Z"/><path class="cls-6" d="M60.61,156.05l-8,63.88-5.15,74.74-25.6-2.22L34.5,221.33s-8.23-66-7.57-69.05Z"/><path class="cls-6" d="M41.24,290H58.18c.59,1.14,2.89,5.56,6.95,5.56h7.32c5.53,0,6.12,4.59,6.31,8H55.25l-1.59-1.36-1.12,1.36H41.24Z"/><path class="cls-7" d="M63.72,156.77l7,60.5-7.87,78H38l5.13-75.54L32.23,181.18c-5.89-6.77-4.89-21.37-4.52-24.41Z"/><path class="cls-8" d="M48.6,25.61a10.47,10.47,0,0,1-2.69-1.74c-.67-.56-1.42-1.24-2.39-2.08a5.27,5.27,0,0,1-.38-1c-.6-2.1-1.25-6.12-3.66-9.07-.67-4.39-5-6.94-6.25-7.33C19.14-.1,7.57,10.94,6.64,11.83c0,0-8.58,6.79-4.94,16.34,3.23,8.48,8.41,14.48,13.47,15.95a33.48,33.48,0,0,1,2,5.57c1,3.11,3.95,17.23,3.95,17.23l20.33-7.73c-2-2.07-2.32-12.47-1.06-14,.53-.66,4.53-2,4.89-2,3-.44,5-2.64,4-4.53A6.24,6.24,0,0,1,48.75,37c0-.73.42-1,.48-1.6,0-.25-.16-.33-.4-.35a15.59,15.59,0,0,0-.51-3.08c.54-.33.39-.74.17-.94a5.24,5.24,0,0,1-.69-1.13c-.3-.82-.78-2,.39-2.43C50.34,26.62,49.23,25.88,48.6,25.61Z"/><path class="cls-9" d="M6.05,11.53c-.32-1.32-1.83-.87-1.83-.87,1.06-.86,3.21-.23,3.21-.23C6.64,9.28,7.85,7,7.85,7a1.89,1.89,0,0,0,.9,2.38c5.85-7,16.54-9.53,24.86-5.53a30.22,30.22,0,0,1,4.81,4c.32.33.63.67.9,1a5.46,5.46,0,0,0,1.85-2.65s2.09,6.05-2.07,7.71c-2.35,1.14-6.16.46-9.36.36-6.08-.17-8.17,3.25-7.36,7.85.58,3.24.84,4,1.65,8.27.32,1.57.39,2,.87,4.28.14.66-.78.78-1.5,1.05-.91.35-1.22-.76-1.38-1.05a6.08,6.08,0,0,0-5-3.51c-1.67-.09-2.05.63-2.34,1.48-.68,2,1.51,3.31,4.22,5.39,2,1.53-1.22,5.89-3.44,6.74C13.84,45.37,4.18,37,.93,28.47-2.84,18.56,6.05,11.53,6.05,11.53Z"/><path class="cls-8" d="M20.19,32.32C22,34,22.62,36.15,21.5,37.23s-3.53.65-5.37-1-2.42-3.82-1.3-4.9S18.36,30.7,20.19,32.32Z"/><path class="cls-10" d="M40.05,19.69a4.32,4.32,0,0,0-1.24.22,5.08,5.08,0,0,0-1.19.36l-1.35.67A11.05,11.05,0,0,0,34,22.67l-1,.87,0,0a.22.22,0,0,1-.3,0,.21.21,0,0,1,0-.28l.9-1a11.93,11.93,0,0,1,2.16-2.18l1.38-.95a7,7,0,0,1,1.37-.64A5.61,5.61,0,0,1,39.82,18L40,18a.85.85,0,0,1,.2,1.68Z"/><path class="cls-3" d="M41.93,33.31s-.55,0-.25.46S46.49,35.7,48.83,35v-.25A13.07,13.07,0,0,0,48.33,32C48.07,32.12,44.81,33.88,41.93,33.31Z"/><path class="cls-10" d="M40.28,22.44l.85-.2a3.34,3.34,0,0,0-3.33.1,3.8,3.8,0,0,0-1.21,1.25,3.45,3.45,0,0,0-.47,1.62,9.51,9.51,0,0,1,2.2-2s.07,0,.1-.05a1.1,1.1,0,0,0,0,.51,1.27,1.27,0,0,0,2.51-.36A1.15,1.15,0,0,0,40.28,22.44Z"/><polygon class="cls-3" points="16.1 47.31 40.78 54.06 41.52 59.6 17.4 52.86 16.1 47.31"/><path class="cls-11" d="M24.13,121.53c-1.26-7.13-8.58-38.19-10.23-45.25-2.56-10.92,3.49-23.36,3.49-23.36L39.1,58.41s8.93,8.06,11,17.13c4.64,19.8,19.72,81.36,19.72,81.36-3.67,1.27-36.47,9.38-45.42,5.82C24.44,162.72,25.69,130.45,24.13,121.53Z"/><path class="cls-12" d="M16,56l.44-6.38L41.7,58.21a27.58,27.58,0,0,1,9.61,22L55.72,99,38.66,70.1l2.42-3.78L36.82,68Z"/><path class="cls-4" d="M55.49,24.64c.19,3.41-.89,5.09-2.27,6.44-.57.56-.46,1.34.12,1.41,1.52.19,2.07,1.81,2.29,2.52.33,1.08,1,1.08,1.06,1.93,0,.36.61,1.05.5,1.3-.18.49-.4,1.09.2,1.28,0,0,.94.47,1,2.93.05,2.14,2.92,3.11,5.78,2.07,1.75-.63,9.36-3.58,11.2-4.27a98.87,98.87,0,0,0,11.18-4.66,27.25,27.25,0,0,0,3.76-3.76c6.14-5.49,7.71-23.4-9-30.78C77-.85,66.14,1.39,59.73,5.27a10.7,10.7,0,0,0-5.43,8.18c-.65,3.91.55,7.9,1,10.13Z"/><path class="cls-13" d="M56,20.87a8.76,8.76,0,0,1,1.4-.59,9.12,9.12,0,0,1,3.2-.46,6.57,6.57,0,0,1,1.69.25,5.86,5.86,0,0,1,1.38.48l1.25.66a.23.23,0,0,1,.1.32.24.24,0,0,1-.29.11l0,0-1.24-.41A5,5,0,0,0,62.11,21a5.33,5.33,0,0,0-1.49,0,7.5,7.5,0,0,0-2.61.81,6,6,0,0,0-1,.63.93.93,0,0,1-1-1.57Z"/><path class="cls-3" d="M56.39,36.54a6.09,6.09,0,0,0,.7,2.22l3.41-2.4Z"/><path class="cls-14" d="M55.55,35c.35-.11.66-.08,1.54.17a17,17,0,0,0,4.39.27c.3,0,.45.3.21.43a8,8,0,0,1-5.95.82s-1-.33-.83-1A.85.85,0,0,1,55.55,35Z"/><path class="cls-14" d="M56.23,38.61c.22-.3.49-.45,1.36-.75a16,16,0,0,0,3.75-2.29c.22-.19.54,0,.42.23a8,8,0,0,1-4.42,4.08s-1,.29-1.23-.33A.82.82,0,0,1,56.23,38.61Z"/><path class="cls-15" d="M61.7,33.67c.9,1.58,3.56,1.77,5.94.42s3.59-3.72,2.7-5.3S66.79,27,64.4,28.36,60.81,32.09,61.7,33.67Z"/><path class="cls-10" d="M55.07,13.39l0-.06a5.23,5.23,0,0,0,.87-.51c3.36-2.45,7.33,2.29,10.69,6.4,4.72,5.74,9.38,4.53,13.75,3.72a18.94,18.94,0,0,0,.67,7.75,6.89,6.89,0,0,0,4.79,4.41,9.92,9.92,0,0,0,.69,1.08,10.88,10.88,0,0,0,1.33,1.46,13.61,13.61,0,0,0,3.2,2.2,13.27,13.27,0,0,1-2.86-2.52,10.58,10.58,0,0,1-1.09-1.52c-.08-.14-.14-.29-.22-.42.31.25.64.48,1,.7a9.33,9.33,0,0,0,2,.92,8.67,8.67,0,0,1-1.76-1.29,9.18,9.18,0,0,1-.86-1,9,9,0,0,0,.86-.5,8.09,8.09,0,0,0,7.67,4,4.4,4.4,0,0,0,4.23-3.05A5.35,5.35,0,0,0,101.56,34a7.14,7.14,0,0,0,1.38-2.53c2-.78,4.09-2.65,3.09-7.14-.65-2.89-2.23-4-3.33-4.44A4.47,4.47,0,0,0,102,17.6a6.51,6.51,0,0,0-1.72-1.79,7,7,0,0,0-2-2.59,6.35,6.35,0,0,0-4.92-1C89.4,2.65,77-5.25,59.94,4.39A16.61,16.61,0,0,0,56.37,7c-.08.07-3.49,3.05-5,3.31S51,15.34,55.07,13.39Zm46.51,6.22a18.91,18.91,0,0,0-.7-2.43,6.14,6.14,0,0,1,.75.69,4.2,4.2,0,0,1,.94,2A3.76,3.76,0,0,0,101.58,19.61Zm-1.36,15a7.27,7.27,0,0,0,.06-2.62,6.36,6.36,0,0,0,1-.11,5.84,5.84,0,0,1-.42,1.63A4.94,4.94,0,0,1,100.22,34.65Z"/><path class="cls-3" d="M91.67,12.34c0-.18.49-.4,1.15-.49l.35,0-.29-.2c-.53-.41-.86-.86-.75-1s.64.06,1.17.46a3.23,3.23,0,0,1,.27.23A3.09,3.09,0,0,1,93.5,11c-.08-.66,0-1.21.19-1.24s.41.49.5,1.15l0,.35.19-.28c.41-.54.86-.87,1-.75s0,.63-.45,1.17l-.23.26c.11,0,.23,0,.35-.06.66-.09,1.2,0,1.24.18s-.49.42-1.15.5l-.36,0,.3.2c.52.41.85.86.74,1s-.64-.05-1.17-.45l-.27-.23c0,.11,0,.23.07.34.08.67,0,1.22-.19,1.25s-.41-.49-.5-1.15c0-.13,0-.24,0-.36-.07.1-.13.2-.2.29-.41.53-.86.87-1,.75s.06-.64.46-1.16a3.23,3.23,0,0,1,.23-.27c-.11,0-.23,0-.35.06C92.25,12.61,91.69,12.54,91.67,12.34Z"/><path class="cls-3" d="M91.77,17.7c-.11-.13.16-.56.6-1a2.32,2.32,0,0,1,.25-.21H92.3c-.61,0-1.1-.19-1.1-.37s.51-.29,1.12-.27l.33,0a2.55,2.55,0,0,1-.24-.23c-.41-.44-.64-.9-.51-1s.57.15,1,.59c.07.09.14.17.2.26v-.33c0-.61.19-1.1.36-1.09s.29.51.27,1.11a3,3,0,0,1,0,.32c.07-.07.14-.15.23-.23.44-.41.9-.64,1-.51s-.15.56-.59,1l-.26.21h.32c.62,0,1.11.19,1.1.37s-.51.29-1.12.27l-.32,0,.23.22c.42.45.65.91.52,1s-.57-.15-1-.6a2.52,2.52,0,0,1-.21-.25c0,.11,0,.22,0,.33,0,.61-.18,1.1-.35,1.09s-.3-.51-.28-1.12A1.66,1.66,0,0,1,93,17a2.49,2.49,0,0,1-.23.23C92.35,17.6,91.9,17.83,91.77,17.7Z"/><path class="cls-3" d="M95.48,15.61c-.08-.1.12-.42.45-.74l.18-.16h-.23c-.46,0-.83-.14-.82-.27s.38-.22.84-.2h.23L96,14.09c-.31-.33-.48-.67-.39-.77s.43.11.74.45a1.46,1.46,0,0,1,.16.19,1.93,1.93,0,0,1,0-.24c0-.46.14-.83.27-.82s.22.38.21.83a1,1,0,0,1,0,.25l.18-.18c.33-.3.68-.48.76-.38s-.1.42-.44.73a.9.9,0,0,1-.19.15h.24c.46,0,.83.15.83.28s-.38.22-.85.2l-.23,0,.17.17c.31.34.48.68.39.77s-.43-.11-.74-.45a1.37,1.37,0,0,0-.16-.18,1,1,0,0,1,0,.24c0,.45-.13.82-.26.82s-.22-.39-.2-.84a1.66,1.66,0,0,1,0-.24l-.18.17C95.92,15.53,95.57,15.7,95.48,15.61Z"/><path class="cls-3" d="M89.42,15.39c-.11-.13.13-.54.56-.93l.23-.2H89.9c-.58,0-1-.17-1-.33s.48-.28,1.05-.25l.3,0L90,13.49c-.38-.42-.6-.85-.49-1s.54.14.93.56l.2.24c0-.1,0-.2,0-.31,0-.57.18-1,.34-1s.28.48.26,1a3,3,0,0,1,0,.31,2.13,2.13,0,0,1,.21-.22c.42-.38.85-.6,1-.48s-.14.53-.57.92l-.22.19h.3c.58,0,1,.17,1,.34s-.48.28-1.05.25l-.31,0,.22.21c.39.42.61.86.49,1s-.54-.14-.92-.57l-.21-.23c0,.1,0,.2,0,.31,0,.57-.17,1-.33,1s-.29-.48-.27-1.06c0-.1,0-.2,0-.3l-.22.21C90,15.29,89.52,15.51,89.42,15.39Z"/><path class="cls-3" d="M89.81,11.83c-.07-.09.12-.39.42-.68L90.4,11h-.22c-.43,0-.76-.12-.75-.24s.35-.2.77-.19l.21,0s-.1-.1-.15-.15c-.29-.31-.45-.63-.37-.71s.4.11.69.41a2.09,2.09,0,0,1,.14.17.81.81,0,0,1,0-.22c0-.42.12-.76.24-.75s.2.35.18.76a.78.78,0,0,1,0,.22l.17-.15c.3-.29.62-.45.7-.36s-.1.39-.41.68l-.17.14h.22c.42,0,.75.13.74.25s-.34.21-.76.19l-.22,0s.11.1.16.16c.29.3.45.62.36.7s-.4-.1-.67-.41a1.14,1.14,0,0,1-.15-.17v.22c0,.42-.13.76-.24.75s-.21-.35-.19-.76c0-.08,0-.16,0-.23l-.16.16C90.22,11.76,89.89,11.92,89.81,11.83Z"/><path class="cls-3" d="M95.37,12.51c-.09-.1.11-.43.45-.75l.18-.15h-.23c-.47,0-.84-.14-.84-.28s.39-.22.85-.2l.24,0L95.85,11c-.32-.34-.49-.69-.4-.78s.44.11.75.46l.16.18V10.6c0-.46.14-.84.27-.83s.22.39.2.85a1.94,1.94,0,0,1,0,.24l.18-.17c.34-.32.69-.5.77-.4s-.11.43-.45.74a1.22,1.22,0,0,1-.18.16h.24c.46,0,.82.14.82.27s-.38.23-.84.21l-.24,0,.17.17c.32.34.49.69.4.78s-.43-.11-.75-.45L96.77,12v.25c0,.46-.14.82-.27.82s-.23-.39-.21-.85a2,2,0,0,1,0-.24l-.18.18C95.81,12.43,95.46,12.61,95.37,12.51Z"/><path class="cls-4" d="M77.07,23.44c-1,1.75-.75,3.75.51,4.45s3.09-.15,4.07-1.91.75-3.75-.51-4.46S78.05,21.67,77.07,23.44Z"/><path class="cls-3" d="M77.87,27.62a1.16,1.16,0,1,0,2.3-.31,1.15,1.15,0,0,0-1.3-1A1.16,1.16,0,0,0,77.87,27.62Z"/><path class="cls-16" d="M57.33,25.87c-.22-1.37,0-2.73,2.36-3.38A3.67,3.67,0,0,1,64,24.68a11.92,11.92,0,0,0-3.5-.17A6.8,6.8,0,0,0,57.33,25.87Z"/><path class="cls-10" d="M65.09,23.58a3.15,3.15,0,0,1-2.48.38,4.63,4.63,0,0,0-2.28-.23,4.58,4.58,0,0,0-3.18,2.4c.29-.18.57-.31.85-.47a1.08,1.08,0,0,0,0,.73,1.27,1.27,0,0,0,2.44-.67,1.19,1.19,0,0,0-.72-.78,6.68,6.68,0,0,1,.83-.27,8,8,0,0,1,3.63.26,3.67,3.67,0,0,0-.62-.5A2.8,2.8,0,0,0,65.09,23.58Z"/><path class="cls-4" d="M57.62,68.82h0a69.82,69.82,0,0,1,8.9-8.63A15.94,15.94,0,0,0,73,49.84c0-1.36-.06-.06,0-2.72a28.52,28.52,0,0,0-1.93-9.75l15.83-1.74s-1.66,3.81-1.31,6.67c.61,4.86.6,8.77,3.38,13.85,2.39,4.36,4.42,12.66,4.35,14.89v.48L57.57,70.28l0-1.46Z"/><path class="cls-3" d="M88.13,121.17l-25.41,1.51s.8-11.74.47-16c-.42-5.17-.31-21.56-.31-21.56C53.69,78.16,57.29,69,57.29,69l36.56.35a47.29,47.29,0,0,1-1.41,19.24C86.05,108.71,86.61,119.05,88.13,121.17Z"/><path class="cls-3" d="M67.36,60.36a1,1,0,0,1-2-.07,1,1,0,0,1,1-.95A1,1,0,0,1,67.36,60.36Z"/><path class="cls-3" d="M69.34,60.18a1,1,0,0,1-2-.06,1,1,0,1,1,2,.06Z"/><path class="cls-3" d="M71.33,59.8a1,1,0,0,1-1,1,1,1,0,1,1,.07-2A1,1,0,0,1,71.33,59.8Z"/><path class="cls-3" d="M73.21,59.33a1,1,0,1,1-1-1A1,1,0,0,1,73.21,59.33Z"/><path class="cls-3" d="M75.12,58.78a1,1,0,1,1-1-1A1,1,0,0,1,75.12,58.78Z"/><path class="cls-3" d="M77,58.1a1,1,0,0,1-1,.95,1,1,0,1,1,.07-2A1,1,0,0,1,77,58.1Z"/><path class="cls-3" d="M78.69,57.21a1,1,0,0,1-1,1,1,1,0,1,1,1-1Z"/><path class="cls-3" d="M80.32,56.32a1,1,0,1,1-.95-1A1,1,0,0,1,80.32,56.32Z"/><path class="cls-3" d="M82,55.31a1,1,0,1,1-.94-1A1,1,0,0,1,82,55.31Z"/><path class="cls-3" d="M83.41,54.07a1,1,0,1,1-2-.06,1,1,0,0,1,2,.06Z"/><path class="cls-3" d="M84.81,53a1,1,0,0,1-2-.07,1,1,0,0,1,2,.07Z"/><path class="cls-3" d="M86.37,51.91a1,1,0,1,1-1-1A1,1,0,0,1,86.37,51.91Z"/><path class="cls-3" d="M87.81,50.61a1,1,0,1,1-1-1A1,1,0,0,1,87.81,50.61Z"/><path class="cls-12" d="M23.19,76.2c0,3.48,1.13,7.72,3,13.69,6.14,20.11,17.47,31.68,17.47,31.68l12.11-10a98.26,98.26,0,0,0-12-29.38,74.16,74.16,0,0,0-9.71-11.37C30,66.9,23.06,68,23.19,76.2Z"/><rect class="cls-17" x="78.23" y="111.98" width="5.62" height="12.34" transform="translate(-25.59 22.46) rotate(-13.65)"/><path class="cls-12" d="M54.31,110.71a120.27,120.27,0,0,0,24.33.85l3.64,13.34c-31.89,5.46-33.37,2.11-38.83-3.52Z"/><path class="cls-4" d="M85.14,123a26.85,26.85,0,0,0,3.86-.84c2.82-1,4.37-4.82,4.28-7.78-.29-8.68-5-9.43-5-9.39-.39,2.7-.83,3.46-2.09,4.54a16.32,16.32,0,0,1-3.73,2.35Z"/><path class="cls-4" d="M95,91.9c1.44,2.2,1.36,7.76-4.14,10.39-2.78,1.33-5.48,1.07-6.76-1.64s2.61-6.07,4.32-6.86c.55-.26,1-.11.65-1-.17-.38-1.5.57-1.88.08-.81-1,2.7-3.46,3.82-3.93C91.58,88.73,94.32,90.93,95,91.9Z"/><path class="cls-4" d="M73.09,100.08c-1.49,2.41-4.24,4.18-6.6,3.26h0c-2.36-.92-2.68-3.67-2.39-6.49a80.53,80.53,0,0,1,4.08-16.49c1.63-4.3,5-12,7.83-16.22,1.57-2.35,3.71-4.34,7-3C86,62.24,87,65.17,86.48,68c-1,5.78-3.52,11.93-5.28,16.46A101.28,101.28,0,0,1,73.09,100.08Z"/><path class="cls-4" d="M65.74,103s-19.09-12.06-34-28.83L34,70.81S58.21,84.63,70.88,95.4c0,0,3,3.13.86,6.24C70,104.3,65.74,103,65.74,103Z"/><path class="cls-4" d="M32.91,74.89s-8.44-1.32-14.64-11c-.49-.78-1.16-2.63.26-3.17.7-.28,1.52-.18,3.37.66a29.43,29.43,0,0,1,5,3.14c-1-1.42-2.43-3.64-1.46-4.12,1.48-.72,5.63,7,8.08,9.58a9.42,9.42,0,0,0,1.72,1.65Z"/></g></g></svg>