<svg xmlns="http://www.w3.org/2000/svg" xmlns:xlink="http://www.w3.org/1999/xlink" viewBox="0 0 216.64 302"><defs><style>.cls-1{fill:#f7b190;}.cls-2{fill:#fbddde;}.cls-3{fill:#201811;}.cls-4{fill:#e8937c;}.cls-5{fill:#f5a98d;}.cls-6{fill:#efeeee;}.cls-7{fill:#b25a5a;}.cls-8{fill:#ee7677;}.cls-9{fill:#e88175;}.cls-10{fill:url(#radial-gradient);}.cls-11{fill:#8f4446;}.cls-12{fill:#f7b49e;}.cls-13{fill:#6e262e;}.cls-14{fill:#17110a;}.cls-15{fill:#251d1a;}.cls-16{fill:#2c2620;}.cls-17{fill:#2b221c;}.cls-18{fill:#362c28;}</style><radialGradient id="radial-gradient" cx="-3713.61" cy="42.65" r="4.3" gradientTransform="matrix(-1, 0, 0, 1, -3612.98, 0)" gradientUnits="userSpaceOnUse"><stop offset="0" stop-color="#f29183"/><stop offset="1" stop-color="#f5a98d"/></radialGradient></defs><title>Love began</title><g id="Layer_2" data-name="Layer 2"><g id="Capa_1" data-name="Capa 1"><path class="cls-1" d="M80.52,154.17S89.74,163,97.12,162c1.57-.22,3.12-2,2.25-3.76-1.05-2.12-3.15-3.34-4.54-4.72-.57-.55.6-1.05,1.39-.71s1.48.5,1.79.16c.7-.75-.67-2.07-1.71-2.95-1.88-1.62-8.41-3.55-11.8-3.68Z"/><rect class="cls-2" x="75.43" y="146.99" width="12.61" height="5.74" transform="translate(-88.96 149.82) rotate(-61.38)"/><path class="cls-3" d="M24.78,69.28c-1,3.42-1.2,7.88-1.2,14.28,0,21.48,7.62,36.19,7.62,36.19L46,113.61s1.57-16.17-2.91-32.31a76.25,76.25,0,0,0-6.09-14C34.18,62.21,27.11,61.22,24.78,69.28Z"/><path class="cls-3" d="M46,113.61s4.31,4.1,17.23,14.52c5.89,4.75,10.49,7.13,20.51,14.89L77.34,155.6c-27.89-17.79-27.64-17.82-39.13-25.17-3.07-2-6-4.66-7.77-12.32Z"/><path class="cls-4" d="M118.39,114.84c-.53,2.86-2.49,5.56-5.08,5.56h0c-2.58,0-3.91-2.5-4.68-5.29a82.26,82.26,0,0,1-2.24-17.22c0-4.71.32-13.29,1.45-18.36.62-2.83,1.91-5.52,5.55-5.52,3.26,0,5.25,2.44,5.84,5.28,1.2,5.88,1.08,12.67,1.08,17.65A102.82,102.82,0,0,1,118.39,114.84Z"/><path class="cls-4" d="M117.65,117.11s-11,20.28-27.15,36.57l-3.57-2.09S99.41,126,109.56,112.37c0,0,3-3.23,6.31-1.3C118.7,112.72,117.65,117.11,117.65,117.11Z"/><path class="cls-4" d="M86.93,151.59s-7.35,4.73-9.1,16.38c-.14.93,0,2.93,1.55,2.86.77,0,1.5-.47,2.88-2a30.48,30.48,0,0,0,3.4-5c-.3,1.72-.76,4.41.35,4.46,1.68.06,2.33-8.91,3.57-12.3a9.78,9.78,0,0,1,.92-2.26Z"/><path class="cls-5" d="M109.49,294.94s4.75-3.23,8.12-12.6L115.78,259l11.56.05-.73,18.8-10.53,17.31S107.68,301.19,109.49,294.94Z"/><path class="cls-6" d="M126.61,278s-7.62,10.62-10.86,15a25.88,25.88,0,0,1-3,3.08c-1.47,1.4-3.64.51-2.92-1.32,0,0-3.34,2.67-6.39,2.93-.93.07-2.42.89-2.42,2.06,0,.93.51,2.14,2.77,2.14,1.68,0,8.53.06,11.28,0,2-.05,4.18-2,5.86-4.59,2.28-3.46,5.88-10.18,5.88-10.18v15h1.79v-8.45c0-1.6,3.08-5.13,3.08-9.38A6.15,6.15,0,0,0,126.61,278Z"/><path class="cls-5" d="M81.16,294.94s4.76-3.23,8.13-12.6L87.46,259,99,259l-.73,18.8L87.76,295.12S79.35,301.19,81.16,294.94Z"/><path class="cls-6" d="M98.29,278s-7.62,10.62-10.86,15a25,25,0,0,1-3,3.08c-1.47,1.4-3.64.51-2.93-1.32,0,0-3.33,2.67-6.39,2.93-.92.07-2.41.89-2.41,2.06,0,.93.5,2.14,2.77,2.14,1.68,0,8.53.06,11.29,0,2-.05,4.17-2,5.85-4.59,2.28-3.46,5.88-10.18,5.88-10.18v15h1.79v-8.45c0-1.6,3.07-5.13,3.07-9.38A6.15,6.15,0,0,0,98.29,278Z"/><path class="cls-2" d="M102.38,137.67s-38.86,39.19-45.32,122.1c-.6,7.72-.93,15.87-.93,24.46,0,0,25.08,12.34,63.05,12.14,25.06-.13,73.82-5.49,97.46-21.25,0,0-22-5.24-25.31-23.88a242.82,242.82,0,0,0-22.05-65.42c-11.34-22.29-29.45-40.67-44.11-48.25Z"/><path class="cls-5" d="M92.79,83.6h0a71.3,71.3,0,0,1,8.78-9.13,16.42,16.42,0,0,0,6.24-10.8c0-1.38-.07,0-.09-2.78A29.21,29.21,0,0,0,105.44,51l16.11-2.34s-1.57,4-1.1,6.86c.79,5,.92,8.94,3.94,14,2.59,4.38,5,12.78,5,15.06l0,.49H92.8V83.6Z"/><path class="cls-2" d="M125,137.57l-22.74.1L98.75,100.1c-9.64-6.82-6.29-16.34-6.29-16.34h37.12a44.74,44.74,0,0,1-.51,18.76C123.07,125.56,123.37,135.45,125,137.57Z"/><path class="cls-5" d="M90.83,34.56c-.26,3.49-1.58,5-3.16,6.23-.66.48-.64,1.29-.06,1.43,1.5.4,1.84,2.12,2,2.87.2,1.13.91,1.23.81,2.1,0,.36.49,1.14.35,1.37-.26.49-.56,1.06,0,1.33,0,0,.88.61.6,3.1-.24,2.18,2.54,3.55,5.58,2.88,1.85-.4,10-2.37,11.92-2.83a102.37,102.37,0,0,0,12-3.23,27.8,27.8,0,0,0,4.32-3.31c6.95-4.73,10.94-22.67-5-32.38-4.11-2.51-15.45-1.7-22.46,1.38a10.87,10.87,0,0,0-6.6,7.56c-1.2,3.87-.5,8.08-.31,10.4Z"/><path class="cls-7" d="M91.84,30.8a8.27,8.27,0,0,1,1.49-.41,9.34,9.34,0,0,1,3.31,0,6.74,6.74,0,0,1,1.67.48,5.4,5.4,0,0,1,1.34.67l1.18.83a.24.24,0,0,1,.06.34.22.22,0,0,1-.3.07l0,0-1.21-.59a4.89,4.89,0,0,0-1.29-.4,5.39,5.39,0,0,0-1.51-.18,7.47,7.47,0,0,0-2.76.47,5.68,5.68,0,0,0-1.12.5,1,1,0,1,1-.81-1.73Z"/><path class="cls-2" d="M90.15,46.74a6.21,6.21,0,0,0,.42,2.34l3.77-2Z"/><path class="cls-8" d="M89.5,45.08c.38-.07.68,0,1.54.38a17,17,0,0,0,4.41.85c.31,0,.42.37.17.48a8.23,8.23,0,0,1-6.15,0s-.94-.46-.71-1.1A.84.84,0,0,1,89.5,45.08Z"/><path class="cls-8" d="M89.71,48.82c.27-.28.55-.4,1.47-.58a16.65,16.65,0,0,0,4.11-1.82c.26-.17.56.07.41.29a8.16,8.16,0,0,1-5,3.54s-1,.16-1.21-.49A.84.84,0,0,1,89.71,48.82Z"/><path class="cls-9" d="M92.93,36.65C93.09,35.27,94.14,34,96.6,34c2.09,0,3,1.8,3.08,3.28a11.56,11.56,0,0,0-3.34-1.09A6.85,6.85,0,0,0,92.93,36.65Z"/><path class="cls-10" d="M95.92,44.55c.7,1.72,3.36,2.27,6,1.22s4.15-3.3,3.45-5-3.37-2.27-6-1.23S95.23,42.82,95.92,44.55Z"/><path class="cls-11" d="M91.92,23.1l0-.05a7,7,0,0,0,1-.4c3.74-2,7.12,3.3,10,7.91,4,6.45,8.89,5.85,13.43,5.62a19.12,19.12,0,0,0-.36,7.94,7.07,7.07,0,0,0,4.26,5.12,9.75,9.75,0,0,0,.55,1.18,11.45,11.45,0,0,0,1.16,1.66,14.52,14.52,0,0,0,2.94,2.66,14.31,14.31,0,0,1-2.56-2.94,11.37,11.37,0,0,1-.89-1.69c-.06-.15-.11-.31-.16-.46a7.87,7.87,0,0,0,.88.85,9.07,9.07,0,0,0,1.94,1.2,8.36,8.36,0,0,1-1.6-1.54,9.25,9.25,0,0,1-.74-1.14,7.75,7.75,0,0,0,.93-.39,8.26,8.26,0,0,0,7.24,5.09c2.71.12,4-1.16,4.69-2.53a5.39,5.39,0,0,0,1.66-1A7.26,7.26,0,0,0,138,47.83c2.08-.53,4.51-2.14,4.09-6.82-.27-3-1.73-4.37-2.77-4.95a4.72,4.72,0,0,0-.4-2.41,6.85,6.85,0,0,0-1.51-2,7.24,7.24,0,0,0-1.71-2.89,6.51,6.51,0,0,0-4.85-1.7c-2.72-10.19-14.18-19.86-32.8-12.38a16.74,16.74,0,0,0-4,2.21c-.08.06-3.94,2.62-5.54,2.68S87.51,24.53,91.92,23.1Zm46.3,12.54a17.77,17.77,0,0,0-.39-2.56,5.57,5.57,0,0,1,.67.8,4.38,4.38,0,0,1,.7,2.12A4.19,4.19,0,0,0,138.22,35.64Zm-3.4,15.06a7.38,7.38,0,0,0,.41-2.65,6.3,6.3,0,0,0,1.06,0,5.79,5.79,0,0,1-.65,1.59A4.77,4.77,0,0,1,134.82,50.7Z"/><path class="cls-2" d="M129.15,27c0-.2.55-.35,1.23-.35h.36a2,2,0,0,1-.26-.24c-.49-.48-.76-1-.63-1.12s.64.14,1.13.62l.23.27c0-.11,0-.23,0-.36,0-.68.16-1.23.34-1.23s.36.55.36,1.23c0,.13,0,.25,0,.36l.23-.27c.49-.48,1-.76,1.13-.62s-.14.64-.63,1.12a2,2,0,0,1-.26.24h.35c.69,0,1.24.15,1.24.35s-.55.35-1.24.35l-.35,0a2,2,0,0,1,.26.25c.49.48.76,1,.63,1.11s-.64-.14-1.13-.62l-.23-.26c0,.11,0,.23,0,.35,0,.69-.15,1.24-.36,1.24s-.34-.55-.34-1.24c0-.12,0-.24,0-.35L131,28c-.49.48-1,.76-1.13.62s.14-.63.63-1.11a2,2,0,0,1,.26-.25l-.36,0C129.7,27.3,129.15,27.14,129.15,27Z"/><path class="cls-2" d="M128.54,32.39c-.1-.15.23-.55.74-.91l.28-.19a1.24,1.24,0,0,1-.33,0c-.62-.1-1.09-.33-1.06-.51s.55-.23,1.17-.12l.32.07a2.94,2.94,0,0,1-.2-.26c-.36-.51-.53-1-.39-1.11s.55.23.91.74a1.67,1.67,0,0,1,.18.28c0-.11,0-.22,0-.33.11-.61.34-1.09.51-1.06s.24.55.13,1.17c0,.11-.05.22-.07.32l.26-.2c.51-.36,1-.53,1.11-.39s-.23.55-.74.91l-.28.18.33,0c.61.11,1.09.34,1.06.51s-.55.24-1.17.13l-.32-.07c.07.08.13.17.2.26.37.51.53,1,.39,1.11s-.55-.23-.91-.74a2.2,2.2,0,0,1-.18-.28c0,.11,0,.22,0,.33-.11.62-.34,1.09-.51,1.06s-.23-.55-.13-1.17a3,3,0,0,1,.07-.32,1.79,1.79,0,0,1-.26.2C129.14,32.36,128.64,32.54,128.54,32.39Z"/><path class="cls-2" d="M132.58,30.76c-.07-.11.17-.41.55-.68a1.2,1.2,0,0,1,.21-.13l-.24,0c-.47-.08-.82-.26-.79-.39s.4-.17.87-.09l.23,0a1.25,1.25,0,0,0-.15-.19c-.26-.39-.39-.76-.28-.84s.42.17.68.55l.14.22a2.11,2.11,0,0,1,0-.25c.08-.46.25-.82.39-.8s.17.42.09.88a1.44,1.44,0,0,1-.05.24l.19-.15c.39-.27.76-.4.83-.29s-.16.42-.55.69l-.2.13.24,0c.46.08.82.25.8.38s-.42.18-.89.1a1.55,1.55,0,0,1-.23-.06l.15.2c.27.38.4.75.29.83s-.41-.17-.68-.56a.86.86,0,0,1-.13-.2c0,.08,0,.16,0,.24-.08.47-.25.82-.38.8s-.17-.42-.09-.88a1.55,1.55,0,0,1,.05-.23l-.2.14C133,30.74,132.66,30.88,132.58,30.76Z"/><path class="cls-2" d="M126.46,29.72c-.1-.13.21-.52.69-.85a2.85,2.85,0,0,1,.26-.17l-.3,0c-.59-.1-1-.31-1-.48s.52-.22,1.1-.12l.3.07c-.06-.08-.13-.16-.19-.25-.34-.48-.5-.94-.37-1.05s.52.22.87.7c.06.09.11.18.16.27,0-.11,0-.21,0-.32.1-.57.31-1,.48-1s.22.52.12,1.1a2.64,2.64,0,0,1-.07.3l.25-.19c.48-.34.95-.5,1-.37s-.22.52-.69.87l-.27.16.31,0c.58.1,1,.31,1,.48s-.52.22-1.1.12l-.31-.07.2.25c.33.48.5.94.36,1s-.52-.21-.86-.69l-.16-.26c0,.09,0,.2,0,.3-.09.59-.31,1-.47,1s-.22-.52-.12-1.1a2.21,2.21,0,0,1,.07-.3l-.25.19C127,29.7,126.56,29.86,126.46,29.72Z"/><path class="cls-2" d="M127.34,26.18c-.07-.1.16-.39.51-.63l.19-.13-.22,0c-.43-.08-.75-.23-.74-.35s.39-.16.81-.09l.22.05-.14-.18c-.24-.35-.37-.69-.27-.76s.39.15.63.51a.76.76,0,0,1,.12.19l0-.23c.08-.42.23-.75.35-.73s.17.38.09.81c0,.07,0,.15,0,.21l.18-.13c.35-.25.69-.37.76-.27s-.15.38-.5.63l-.19.12.22,0c.42.07.74.23.73.35s-.38.16-.81.09l-.21,0a1.4,1.4,0,0,1,.13.18c.25.35.37.69.27.76s-.38-.16-.63-.51a.76.76,0,0,1-.12-.19l0,.22c-.07.43-.23.75-.35.73s-.16-.38-.09-.8c0-.08,0-.15.05-.22l-.18.14C127.76,26.15,127.41,26.27,127.34,26.18Z"/><path class="cls-2" d="M132.88,27.61c-.08-.12.17-.43.56-.7l.21-.13-.25,0c-.47-.08-.83-.26-.8-.39s.42-.17.88-.09l.25.05a1.56,1.56,0,0,1-.16-.2c-.27-.38-.4-.76-.3-.84s.43.18.7.56l.14.21a1.13,1.13,0,0,1,0-.25c.08-.46.25-.82.38-.8s.17.42.09.89a2,2,0,0,1-.05.24l.2-.15c.38-.27.76-.41.84-.3s-.17.42-.56.7l-.21.13a1.07,1.07,0,0,1,.25,0c.47.08.82.25.8.39s-.41.17-.88.09l-.24-.05a1,1,0,0,1,.14.2c.28.38.41.76.3.84s-.42-.17-.7-.56a2.53,2.53,0,0,1-.13-.22,1.9,1.9,0,0,1,0,.25c-.08.47-.26.83-.39.81s-.17-.42-.09-.89a1.69,1.69,0,0,1,0-.24l-.2.15C133.33,27.58,133,27.72,132.88,27.61Z"/><path class="cls-5" d="M112.86,36.23c-1.23,1.65-1.26,3.71-.07,4.59s3.14.26,4.37-1.4,1.27-3.7.08-4.59S114.1,34.58,112.86,36.23Z"/><path class="cls-2" d="M113.12,40.57a1.19,1.19,0,1,0,1.19-1.18A1.19,1.19,0,0,0,113.12,40.57Z"/><path class="cls-5" d="M121.9,114.84c-.52,2.86-2.48,5.56-5.08,5.56h0c-2.58,0-3.9-2.5-4.67-5.29a82.93,82.93,0,0,1-2.24-17.22c0-4.71.32-13.29,1.44-18.36C112,76.7,113.27,74,116.91,74c3.26,0,5.26,2.44,5.84,5.28,1.2,5.88,1.07,12.67,1.07,17.65A101.86,101.86,0,0,1,121.9,114.84Z"/><path class="cls-5" d="M121.17,117.11s-11,20.28-27.15,36.57l-3.58-2.09s12.49-25.58,22.64-39.22c0,0,3-3.23,6.31-1.3C122.22,112.72,121.17,117.11,121.17,117.11Z"/><path class="cls-5" d="M94.71,153s-1.08,8.67-10.81,15.3c-.78.53-2.65,1.29-3.25-.15-.31-.71-.23-1.56.57-3.48a31.56,31.56,0,0,1,3-5.24c-1.43,1-3.64,2.6-4.16,1.62-.78-1.49,7-6,9.53-8.55a9.81,9.81,0,0,0,1.64-1.81Z"/><path class="cls-2" d="M102.44,74.6a1,1,0,1,1-1-1A1,1,0,0,1,102.44,74.6Z"/><path class="cls-2" d="M104.46,74.35a1,1,0,0,1-1,1,1,1,0,1,1,0-2A1,1,0,0,1,104.46,74.35Z"/><path class="cls-2" d="M106.48,73.89a1,1,0,0,1-1,1,1,1,0,1,1,0-2A1,1,0,0,1,106.48,73.89Z"/><path class="cls-2" d="M108.38,73.34a1,1,0,1,1-1-1A1,1,0,0,1,108.38,73.34Z"/><path class="cls-2" d="M110.32,72.71a1,1,0,1,1-1-1A1,1,0,0,1,110.32,72.71Z"/><path class="cls-2" d="M112.21,72a1,1,0,0,1-1,1,1,1,0,1,1,0-2A1,1,0,0,1,112.21,72Z"/><path class="cls-2" d="M113.9,71a1,1,0,1,1-2,0,1,1,0,1,1,2,0Z"/><path class="cls-2" d="M115.55,70a1,1,0,1,1-1-1A1,1,0,0,1,115.55,70Z"/><path class="cls-2" d="M117.19,68.92a1,1,0,1,1-1-1A1,1,0,0,1,117.19,68.92Z"/><path class="cls-2" d="M118.61,67.61a1,1,0,1,1-1-1A1,1,0,0,1,118.61,67.61Z"/><path class="cls-2" d="M120,66.43a1,1,0,0,1-2,0,1,1,0,0,1,2,0Z"/><path class="cls-2" d="M121.57,65.3a1,1,0,1,1-1-1A1,1,0,0,1,121.57,65.3Z"/><path class="cls-2" d="M123,63.91a1,1,0,0,1-1,1,1,1,0,1,1,0-2A1,1,0,0,1,123,63.91Z"/><path class="cls-11" d="M101,36.49a3.11,3.11,0,0,1-2.48-.28,4.35,4.35,0,0,0-5.84.64c.32-.09.63-.15.94-.22a1.14,1.14,0,0,0-.25.69,1.27,1.27,0,0,0,2.54,0,1.18,1.18,0,0,0-.49-1,5.22,5.22,0,0,1,.88,0,7.91,7.91,0,0,1,3.42,1.2,3.32,3.32,0,0,0-.46-.65A2.7,2.7,0,0,0,101,36.49Z"/><path class="cls-12" d="M57.3,32.64A10.76,10.76,0,0,1,55.35,30c-.43-.77-.89-1.68-1.52-2.85a5.62,5.62,0,0,1,0-1.09c.19-2.23,1-6.3-.2-10,.95-4.44-2.3-8.48-3.3-9.29C38.5-2.64,23.42,3.7,22.22,4.21c0,0-10.67,3.37-10.67,13.82,0,9.27,2.77,16.89,7.07,20.14a34.16,34.16,0,0,1-.07,6.06c-.18,3.33-2.5,17.91-2.5,17.91H38.29c-1.13-2.69,2.31-12.76,4.08-13.77.74-.43,5.05-.24,5.41-.16,3,.66,5.75-.7,5.51-2.86a6.54,6.54,0,0,1,0-1.8c.29-.69.77-.83,1-1.35.12-.23,0-.38-.25-.48a16.17,16.17,0,0,0,.63-3.14c.64-.11.63-.56.5-.84A5.34,5.34,0,0,1,55,36.42c0-.9,0-2.18,1.26-2.18C58.59,34.24,57.79,33.13,57.3,32.64Z"/><path class="cls-13" d="M21.76,3.71c.17-1.38-1.43-1.49-1.43-1.49,1.33-.44,3.15.94,3.15.94C23.15,1.78,25.13,0,25.13,0a1.94,1.94,0,0,0,0,2.6C33.26-1.92,44.4-.48,50.89,6.37A31.3,31.3,0,0,1,54.05,12c.18.43.34.87.48,1.29a5.66,5.66,0,0,0,2.73-1.85s-.21,6.54-4.78,6.61c-2.66.24-6-1.8-9.08-3.05-5.74-2.38-9,.12-9.89,4.81-.62,3.31-.66,4.17-1.42,8.5-.27,1.63-.37,2.07-.74,4.41-.1.68-1,.46-1.8.46-1,0-.9-1.17-.94-1.51a6.26,6.26,0,0,0-3.52-5.18c-1.56-.69-2.18-.13-2.76.57-1.38,1.67.23,3.71,2.07,6.69,1.36,2.19-3.32,5.18-5.75,5.18-1.76,0-7.94-11.49-7.94-20.84C10.71,7.2,21.76,3.71,21.76,3.71Z"/><path class="cls-12" d="M27.71,28.73c1.17,2.22.93,4.53-.55,5.15s-3.6-.66-4.76-2.88-.92-4.53.54-5.16S26.54,26.51,27.71,28.73Z"/><path class="cls-11" d="M51.27,23.88A4.34,4.34,0,0,0,50,23.63a5,5,0,0,0-1.27-.08l-1.53.15a10.85,10.85,0,0,0-2.81.82L43.11,25l0,0a.21.21,0,0,1-.27-.13.22.22,0,0,1,.1-.27l1.23-.66A12,12,0,0,1,47,22.65l1.66-.41a6.54,6.54,0,0,1,1.55-.12,5.16,5.16,0,0,1,1.48.09l.13,0a.86.86,0,0,1,.62,1.05.87.87,0,0,1-1,.62Z"/><path class="cls-2" d="M48.12,37.58s-.54-.19-.4.34,3.89,3.6,6.38,3.79l.1-.24a13.24,13.24,0,0,0,.52-2.84C54.42,38.68,50.66,39.17,48.12,37.58Z"/><path class="cls-11" d="M50.69,27.09l.87-.07a3.33,3.33,0,0,0-3.31-.38,3.81,3.81,0,0,0-1.38,1.07,3.54,3.54,0,0,0-.69,1.53,9.34,9.34,0,0,1,2.47-1.68.38.38,0,0,1,.1,0,1.19,1.19,0,0,0-.12.5,1.28,1.28,0,0,0,2.55,0A1.19,1.19,0,0,0,50.69,27.09Z"/><path class="cls-14" d="M1,288.13l17.32-.05c.6,1.15,3,5.66,7.12,5.65l7.48,0c5.65,0,6.27,4.68,6.47,8.13l-24,.08-1.62-1.39-1.14,1.4L1,302Z"/><path class="cls-15" d="M39.67,151.26l-8.23,65.32L26.18,293,0,290.71l7.79-75,.27-27.32a160,160,0,0,1,.51-16.15c-5.34-7.47-2.93-21.6-2.25-24.68Z"/><path class="cls-15" d="M19.87,288.18H37.19c.6,1.16,3,5.67,7.1,5.67h7.49c5.65,0,6.26,4.7,6.45,8.15h-24l-1.64-1.39L31.42,302H19.87Z"/><path class="cls-16" d="M42.85,152l-2.31,65.81,1.39,75.79H16.57l.34-74.4-3.6-29.45c-.89-6-2.65-12.79-2.65-12.79-6-6.93-5-21.85-4.62-25Z"/><polygon class="cls-2" points="17.97 42.53 40.88 53.6 38.17 58.96 17.97 48.35 17.97 42.53"/><path class="cls-17" d="M9,113V70.85c0-11.47,8.92-22.44,8.92-22.44L38.27,58.92s7,10.11,7,19.63V160c-3.94.42-36,3.59-44.07-2.05C1.21,158,9,126.32,9,113Z"/><path class="cls-18" d="M15.81,51.38l2-6.45,20.49,14a37.89,37.89,0,0,1,7.08,24.54v19.78L35.11,70.46l3.28-3.2-4.63.68Z"/><path class="cls-12" d="M70.2,156s9.23,8.81,16.61,7.77c1.56-.22,3.1-2,2.25-3.75-1.06-2.13-3.16-3.35-4.55-4.72-.56-.56.6-1.05,1.39-.72s1.48.5,1.79.16c.7-.75-.66-2.07-1.71-2.95-1.87-1.61-8.41-3.55-11.8-3.68Z"/><path class="cls-18" d="M15.17,71c-1,3.42-1.2,7.88-1.2,14.28,0,21.49,7.61,36.19,7.61,36.19l14.82-6.14S38,99.14,33.49,83A74.82,74.82,0,0,0,27.4,69C24.57,63.91,17.5,62.92,15.17,71Z"/><polygon class="cls-2" points="65.88 155.52 70.92 158.26 76.96 147.19 71.92 144.45 65.88 155.52"/><path class="cls-18" d="M36.4,115.31s4.31,4.1,17.23,14.52c5.89,4.75,10.49,7.12,20.51,14.89L67.72,157.3c-27.88-17.79-27.64-17.82-39.13-25.17-3.07-2-6-4.65-7.77-12.31Z"/></g></g></svg>