<svg xmlns="http://www.w3.org/2000/svg" xmlns:xlink="http://www.w3.org/1999/xlink" width="1933" height="1102" viewBox="0 0 1933 1102">
  <defs>
    <clipPath id="clip-path">
      <rect id="Rectangle_71" data-name="Rectangle 71" width="1933" height="1102" fill="rgba(255,255,255,0)" stroke="#707070" stroke-width="1"/>
    </clipPath>
  </defs>
  <g id="Mask_Group_4" data-name="Mask Group 4" clip-path="url(#clip-path)">
    <g id="Layer_2" data-name="Layer 2" transform="translate(0 0)">
      <g id="PRINT" transform="translate(0 0)">
        <path id="Path_4" data-name="Path 4" d="M979.657,1113.347a13.758,13.758,0,0,0,1.895-.981c6.364-3.932,8.015-11.787,3.691-17.562L933.469,1025.9l4.921-1.426a5.394,5.394,0,0,0,3.541-2.93,4.615,4.615,0,0,0-.293-4.336l-3.248-5.527a42.855,42.855,0,0,0-25.69-18.453,39.842,39.842,0,0,0,6.422-2.407,36.636,36.636,0,0,0,19.12-20.749,30.312,30.312,0,0,0-2.879-26.03c-5.569-8.667-15.635-14.163-26.7-14.575h-.517a31.511,31.511,0,0,0-7.727.981,6.44,6.44,0,0,0-2.83.6l-1.649.8-.492.245a27.245,27.245,0,0,0-14.37,13.862,21.95,21.95,0,0,0-1.7,7.288h0c-.738-.825-1.476-1.694-2.264-2.63-.3-.334-.591-.624-.861-.892l-35.656-47.4c-2.092-3.053-4.109-5.75-5.979-7.979l-2.067-2.741,1.944-.156a5.707,5.707,0,0,0,4.122-2.135,4.649,4.649,0,0,0,.8-4.239,17.881,17.881,0,0,0,2.756-1.337,19.082,19.082,0,0,0,16.733,6.686,15.809,15.809,0,0,0,13.214-8.914l.615.379a16.788,16.788,0,0,0,8.514,2.229c6.384.056,12.167-3.4,14.622-8.737a13.241,13.241,0,0,0-3.45-15.555l-.2-.178a12.485,12.485,0,0,0-4.921-2.919l-.3-.111h-.3a39.034,39.034,0,0,0-24.607-12.28,54.079,54.079,0,0,0-12.451-14.464,37.413,37.413,0,0,0-1.87-10.653c-.32-.981-.689-1.961-1.083-2.92a64.27,64.27,0,0,0,26.01-8.068l17.077-9.9a4.858,4.858,0,0,0,2.338-5.772,5.7,5.7,0,0,0-5.512-3.566l-20.227.579a8.443,8.443,0,0,1-3.691-2.229c-1.058-.958-2.141-2.095-3.3-3.3a60.193,60.193,0,0,0-6.5-6.151c-11.59-9.093-26.674-10.341-41.266-10.341l-22.146.156c-8.268-3.922-16.807-7.533-24.607-10.809l-4.306-1.827a59.045,59.045,0,0,0,23.82-15.6c15.9-17.829,15.847-44.572-.123-60.908-.886-.914-1.846-1.805-2.83-2.652a32.53,32.53,0,0,0,8.637-6.463c.517-.557.984-1.092,1.477-1.694a30.7,30.7,0,0,0,5.955-25.585,35.7,35.7,0,0,0-16.61-22.576,40.386,40.386,0,0,0-9.031-4.056l2.141-2.229a38.343,38.343,0,0,1,4.921-.334,16.773,16.773,0,0,0,2.707,3.387,17.172,17.172,0,0,0,11.959,4.725c8.714-.213,16.117-5.837,17.865-13.572a29.112,29.112,0,0,0,6.472,3.655,34.217,34.217,0,0,0,20.1,1.226,74.78,74.78,0,0,0,14.223-5.26l17.225-7.667a4.946,4.946,0,0,0,3.019-5.415,5.391,5.391,0,0,0-4.889-4.146l-3.1-.312.369-.49a19.741,19.741,0,0,0,1.28-19.055c-5.66-13.528-15.773-14.976-19.858-14.976a21.675,21.675,0,0,0-17.84,9.917c-3.445.267-6.865.691-10.286,1.248l44.834-47.692a130.076,130.076,0,0,1,27.88-20.838c-15.617,12.852-18.668,34.052-7.21,50.1,7.387,9.131,18.753,14.944,31.2,15.957a50.964,50.964,0,0,0,36.763-10.341,46.337,46.337,0,0,0,3.962-3.789c14.469-15.378,15.872-39.268,3.371-56.808a59.245,59.245,0,0,0-28.273-20.592l.886-.535c12.539-7.887,21.093-19.973,23.77-33.585l.812-5.17a4.735,4.735,0,0,0-1.113-3.829,5.772,5.772,0,0,0-3.809-1.943l-2.141-.2,80.908-86.047a11.737,11.737,0,0,0,1.526-14.33c80.195-84.353,141.909-149.429,141.909-149.429H-37.65v1277H1236.481Zm-4.355-9.338a2.992,2.992,0,0,1-3.888-.669l-87.4-116.222a31.561,31.561,0,0,1-1.132,21.707,43.264,43.264,0,0,1-23.4-23.668,35.1,35.1,0,0,1,1.673-28.437L846.68,937.486c2.854,7.978,4.4,15.8,3.3,22.063-3.125,17.562-16.831,32.672-34.155,37.619s-37.3-1.114-47.024-14.018a31.415,31.415,0,0,1-2.215-3.365,29.98,29.98,0,0,1-.935-26.588A30.958,30.958,0,0,1,784.3,935.971c15.3-4.182,31.652,2.547,38.239,15.734a16.776,16.776,0,0,1,2.9,10.586c-.443,4.814-3.273,10.318-7.924,12.659a15.585,15.585,0,0,1-15.256-1.738,7.153,7.153,0,0,1-3.42-6.686,5.478,5.478,0,0,1,3.818-4.117,6.329,6.329,0,0,1,5.828,1.019,2.858,2.858,0,0,1,1.353-3.187,5.954,5.954,0,0,1,4.208-.579c1.4.379,2.461,2.229,4.011,1.939a1.626,1.626,0,0,0,1.009-.579,19.951,19.951,0,0,0-9.572-16.336,27.257,27.257,0,0,0-23.3-4.012A25.633,25.633,0,0,0,770.841,955a25.371,25.371,0,0,0,.714,22.42c7.382,12.837,26.379,19.5,42.595,14.865A43.463,43.463,0,0,0,844.441,958.7c2.116-11.879-7.751-33.251-17.766-47.893l-64.3-85.49a86.486,86.486,0,0,1,2.042,52.462c8.711,3.945,13.239,15.935-3.962,17.406a13.7,13.7,0,0,1-10.7-2.919,8.264,8.264,0,0,1-.32-11.009,11.69,11.69,0,0,1,12.3-4.457,83.055,83.055,0,0,0,2.928-19.634,16.037,16.037,0,0,1-5.364,7.4,90.959,90.959,0,0,1-11.737,7.02c-3.937,2.229-9.252,5.884-11,9.828a49.453,49.453,0,0,1-1.55-11.812A17.19,17.19,0,0,1,739.1,858.46c3.371-3.722,8.612-5.5,13.509-7.377a27.392,27.392,0,0,0,11.442-6.931,85.15,85.15,0,0,0-8.932-28.549l-1.4-1.872a35.329,35.329,0,0,1-5.167,15.489,5.012,5.012,0,0,1,1.329,5.906,6.8,6.8,0,0,1-6.324,3.744c-5.783-.178-9.474-8.223-3.74-10.965a8.078,8.078,0,0,1,6.422-.111,32.564,32.564,0,0,0,4.922-17.606l-18.332-24.381a22.7,22.7,0,0,1,.738,6.842c-1.115,13.874-14.43,24.307-29.75,23.311a26.286,26.286,0,0,1-17.742-8.2c-.3-.357-.615-.735-.886-1.114a17.365,17.365,0,0,1-2.461-16.848c2.554-6.293,9.11-10.523,16.511-10.653a16.941,16.941,0,0,1,6.742,1.538,19.657,19.657,0,0,1,8.342,5.193c3.4,3.722,5.635,9.449,4.109,14.085a14.265,14.265,0,0,1-12.3,8.4,8.609,8.609,0,0,1-7.554-2.585,4.885,4.885,0,0,1-.466-5.36,5.9,5.9,0,0,1,4.944-2.975,2.877,2.877,0,0,1-1.477-3.142,5.163,5.163,0,0,1,2.461-3.075c1.28-.6,3.445,0,4.38-1.137v-.134a10.742,10.742,0,0,0-9.424-5.75,12.414,12.414,0,0,0-11.221,7.354,12.841,12.841,0,0,0,2.608,13.06,20.461,20.461,0,0,0,13.78,6.285,23.667,23.667,0,0,0,16.144-4.834,19.456,19.456,0,0,0,7.6-13.775c.345-4.279-1.624-12.926-12.845-30.02l-31.1-41.363c-.935-1.114-1.846-2.229-2.682-3.365s-1.7-2.34-2.461-3.5l-8.465-11.277a2.315,2.315,0,0,1,0-.245v-.178a2.078,2.078,0,0,1-.246-.735v-.2a2.4,2.4,0,0,1,0-.735,1.232,1.232,0,0,1,0-.267,2.043,2.043,0,0,1,.344-.58v-.134L685.7,683.468c9.474-11.143,17.815-26.409,17.077-39.447A42.246,42.246,0,0,0,676.62,607.7c-15.552-6.173-35.311-1.4-44.1,10.653a25.468,25.468,0,0,0-3.371,22.286,24.925,24.925,0,0,0,13.583,15.734,23.085,23.085,0,0,0,6.1,1.672,21.1,21.1,0,0,0,16.216-6.53,3.735,3.735,0,0,0,1.132-4.234c-1.28-2.028-4.921-1.337-6.816-2.541a8.09,8.09,0,0,1-3.543-5.326,4.729,4.729,0,0,1,3-4.814,9.3,9.3,0,0,1-7.421-5.559,7.968,7.968,0,0,1,1.786-8.571,14.246,14.246,0,0,1,12.673-2.964c8.44,1.627,16.536,7.756,18.086,15.467a19.026,19.026,0,0,1-1.4,10.965,27.121,27.121,0,0,1-13.288,15.043,33.636,33.636,0,0,1-28.987,1.939,30.405,30.405,0,0,1-12.3-45.085c10.31-14.263,32.752-19.746,51.01-12.5a47.734,47.734,0,0,1,29.529,40.717,34.5,34.5,0,0,1,0,4.457,275.853,275.853,0,0,0,9.843-40.561c1.624-8.669,3.3-17.428,5.487-26.1l-5.98-19.055c-3.519-11.3-6.964-23.779-1.378-34.365,1.944-3.7,4.921-6.886,7.112-10.452a14.2,14.2,0,0,0,2.461-11.745,40.4,40.4,0,0,1,14.764,25.295,35.506,35.506,0,0,1-.763,11.723,53.747,53.747,0,0,1,17.717-17.094,38.164,38.164,0,0,1,12.894-4.346,43.72,43.72,0,0,1,16.708-19.7c-3.754-8.736-1.543-18.652,5.66-25.384a3.545,3.545,0,0,1-.566-2.229,2.237,2.237,0,0,1,.566-1.6,4.819,4.819,0,0,1,5.815-1.775,4.033,4.033,0,0,1,2.538,5.06,4.648,4.648,0,0,1-5.3,2.8,5.234,5.234,0,0,1-1.058-.379,20.251,20.251,0,0,0-5.266,22.153,46.11,46.11,0,0,1,13.066-5.059h0c1.452-4.591,8.735-8.714,11.565-2.63a6.073,6.073,0,0,1-1.649,6.686c-3.125,2.919-8.76,1.917-9.843-1.4a43.086,43.086,0,0,0-11.861,4.68,24.2,24.2,0,0,0,16.905,10.831,4.942,4.942,0,0,1,2.461-1.582,4.866,4.866,0,0,1,5.693,2.7,4.165,4.165,0,0,1-2.495,5.365,5.394,5.394,0,0,1-3.837.079,4.723,4.723,0,0,1-2.733-2.441,3.776,3.776,0,0,1-.2-1.649,26.786,26.786,0,0,1-18.209-11.789,41.344,41.344,0,0,0-14.764,16.96,33.077,33.077,0,0,1,17.373,2.919c6.344,3.221,10.02,9.506,9.4,16.068-.006,6.073-4.145,11.515-10.409,13.684-7.012,1.665-14.4-1-18.234-6.575a23.561,23.561,0,0,1-3.519-17.7,34.917,34.917,0,0,1,1.23-5.26,35.582,35.582,0,0,0-10.409,3.722c-7.382,4.234-13.755,10.853-19.341,20.236-10.9,18.275-14.764,39.4-18.751,59.838-3.519,18.5-7.136,37.575-15.847,54.757l25.025-26.632a17.02,17.02,0,0,1,4.38-20.058,15.35,15.35,0,0,1,2.313,12.837l25.985-27.613a27.74,27.74,0,0,0-5.561-21.328h0a6.005,6.005,0,0,1-5.725-.99,4.737,4.737,0,0,1-1.6-5.075,5.38,5.38,0,0,1,4.279-3.585,5.739,5.739,0,0,1,5.995,2.274,4.608,4.608,0,0,1-.606,5.861,30.384,30.384,0,0,1,6.447,19.434l51.06-54.289c-3.382-8.583-.424-18.164,7.382-23.913a23.468,23.468,0,0,1-1.132,17.339l20.695-22a79.934,79.934,0,0,1,6.447-6.864L892.917,463.7a2.744,2.744,0,0,1,.3-.513c13.214-15.935,16.191-24.381,16.364-28.638A19,19,0,0,0,903.66,420.1a23.213,23.213,0,0,0-15.492-6.384,20.677,20.677,0,0,0-14.42,4.925,13.046,13.046,0,0,0-4.159,12.725,12.076,12.076,0,0,0,8.12,7.956,13.271,13.271,0,0,0,1.329,0c1.034-.111,2.239-.468,2.461-1.4.418-1.382-1.477-2.518-1.747-3.811a4.77,4.77,0,0,1,1.058-3.722,3.468,3.468,0,0,1,3.642-.891,4.888,4.888,0,0,1-.524-5.365,5.893,5.893,0,0,1,4.929-3.014,8.283,8.283,0,0,1,6.939,3.744,12.03,12.03,0,0,1,.369,13.929,17.822,17.822,0,0,1-11.836,5.683,16.824,16.824,0,0,1-5.069.357,17.881,17.881,0,0,1-11.516-5.772,3.441,3.441,0,0,1-.443-.379v-.2a15.811,15.811,0,0,1-3.174-5.861,17.825,17.825,0,0,1,5.586-17.517,26.771,26.771,0,0,1,18.6-6.418,29.115,29.115,0,0,1,19.37,8,23.843,23.843,0,0,1,7.427,18.072,22.964,22.964,0,0,1-1.7,7.132l18.751-19.924c-2.569-9.824.695-20.15,8.613-27.256a21.342,21.342,0,0,1,3.42,14.464l73.4-78a3.024,3.024,0,0,1,3.777-.119,2.377,2.377,0,0,1,.48,3.395L921.191,441.417a41.288,41.288,0,0,1,23.426-4.747,41.431,41.431,0,0,1-19,26.744,46.156,46.156,0,0,1-30.734,6.062l-16.659,17.718c7.751-4.613,15.65-8,22.614-8.692,19.513-1.939,39.224,6.062,49.091,19.879s8.686,32.872-2.461,44.773a30.936,30.936,0,0,1-3,2.808,38.713,38.713,0,0,1-28.052,7.867,33.358,33.358,0,0,1-23.278-11.745c-8.436-12.266-5.6-28.287,6.644-37.552a20.5,20.5,0,0,1,10.507-5.326,19.454,19.454,0,0,1,15.6,3.566,12.136,12.136,0,0,1,2.165,13.8,7.976,7.976,0,0,1-6.176,4.725,6.11,6.11,0,0,1-5.394-2.241,4.885,4.885,0,0,1-.463-5.358,3.518,3.518,0,0,1-3.74-.357,4.855,4.855,0,0,1-1.723-3.521c0-1.315,1.673-2.7,1.009-4.011a1.622,1.622,0,0,0-.886-.735,21.769,21.769,0,0,0-14.764,12.681,20.915,20.915,0,0,0,1.895,21.417,27.666,27.666,0,0,0,19.317,9.628,32.635,32.635,0,0,0,23.229-6.508c11.738-9.761,13.78-28.192,4.577-41.118-8.736-12.257-26.33-19.322-43.776-17.606-13.189,1.315-33.367,15.6-46.311,28.214L780.905,590.4A112.808,112.808,0,0,1,836.2,574.8c1.919-8.669,13.509-15.779,19.686-1.136a10.594,10.594,0,0,1-.3,10.118,10.446,10.446,0,0,1-11.615,3.187c-4.705-1.273-7.94-5.18-7.973-9.628a108.785,108.785,0,0,0-21.654,2.63,19.135,19.135,0,0,1,9.3,2.741,91.649,91.649,0,0,1,10.556,8.38c3.494,2.83,8.711,6.552,13.362,7.02a62.539,62.539,0,0,1-12.131,4.457,22.048,22.048,0,0,1-12.894-.624c-4.921-1.961-8.145-6.062-11.418-9.851a26.483,26.483,0,0,0-10.409-8.157,104.134,104.134,0,0,0-28.052,15.333l-1.624,1.738a46.083,46.083,0,0,1,17.889.423,6.023,6.023,0,0,1,5.93-2.719,6.5,6.5,0,0,1,5.635,4.457c1.353,5.1-6.25,10.452-10.68,6.173a6.269,6.269,0,0,1-1.821-5.594,42.657,42.657,0,0,0-20.006.446l-21.113,22.442a30.084,30.084,0,0,1,24.69-.346,25.423,25.423,0,0,1,15.051,17.729,21.031,21.031,0,0,1-4.011,17.651c-.3.379-.615.735-.935,1.092a21.9,21.9,0,0,1-17.225,6.686c-7.385-.541-13.638-5.15-15.724-11.589a12.735,12.735,0,0,1-.148-6.307,16.776,16.776,0,0,1,3.347-8.647,18.448,18.448,0,0,1,13.9-7.31A14.254,14.254,0,0,1,778,644.088a6.754,6.754,0,0,1-.738,7.265,6.172,6.172,0,0,1-5.595,1.848,5.679,5.679,0,0,1-4.47-3.564,3.254,3.254,0,0,1-2.953,2.229,6.015,6.015,0,0,1-3.962-1.426c-.984-.958-.861-3.009-2.461-3.521h-.172a9.146,9.146,0,0,0-3.617,9.761,12.116,12.116,0,0,0,10.8,7.845,15.934,15.934,0,0,0,13.214-5.728,16.459,16.459,0,0,0,2.854-13.773,20.075,20.075,0,0,0-9.42-12.83A24.047,24.047,0,0,0,754.8,629.2c-4.626.825-13.337,4.836-28.569,19.166L690.4,686.455c-.935,1.114-1.895,2.229-2.854,3.232s-2.042,2.117-3.076,3.1l-8.391,8.914,12.033,16c9.277,11.143,23.4,22.554,37.477,25.339,17.225,3.41,35.483-1.894,45.622-13.238,10.679-11.945,10.827-30.487.32-41.319a32.083,32.083,0,0,0-22.786-8.914,28.343,28.343,0,0,0-20.326,7.689,18.407,18.407,0,0,0-3.4,4.9,16.788,16.788,0,0,0,2.658,15.89c1.009,1.248,2.461,2.474,4.208,2.095,2.461-.579,2.707-3.9,4.5-5.282a9.612,9.612,0,0,1,6.619-1.672c2.042.4,4.306,1.984,4.331,3.878a9.494,9.494,0,0,1,7.872-4.99,9.839,9.839,0,0,1,8.639,3.809,10.915,10.915,0,0,1-.172,11.834c-3.986,6.953-12.648,12.391-21.26,11.745a24.513,24.513,0,0,1-11.295-4.145,26.707,26.707,0,0,1-12.525-15.6,25.89,25.89,0,0,1,5.709-25.7,34.282,34.282,0,0,1,24.607-9.4,38.009,38.009,0,0,1,26.945,10.541c12.451,12.77,12.3,33.83-.172,47.849-11.442,12.792-31.989,18.81-51.158,15a47.115,47.115,0,0,1-4.774-1.248,340.24,340.24,0,0,0,40.6,19.322c8.785,3.722,17.693,7.51,26.305,11.7l21.9-.178c12.943,0,27.068.2,36.911,7.889,3.42,2.674,6.029,6.084,9.228,8.914a17.765,17.765,0,0,0,11.885,5.193,49.422,49.422,0,0,1-30.833,6.218,45.658,45.658,0,0,1-12.3-3.744,50.676,50.676,0,0,1,13.509,20.058,29.869,29.869,0,0,1,1.23,12.436,43.6,43.6,0,0,1,16.536,19.723c10.294-.955,20.264,3.594,25.542,11.656a5.029,5.029,0,0,1,2.633.134,2.7,2.7,0,0,1,1.55.914,3.86,3.86,0,0,1,.258,5.517,4.91,4.91,0,0,1-6.023.855,3.929,3.929,0,0,1-1.617-5.324,3.78,3.78,0,0,1,.664-.825c-4.641-6.963-13.186-11-22.146-10.452a36.294,36.294,0,0,1,1.919,12.748h0c4.5,2.474,6.964,9.94-.271,10.787a7.359,7.359,0,0,1-6.767-3.209,5.413,5.413,0,0,1,4.134-8.313,33.962,33.962,0,0,0-1.87-11.611,23.7,23.7,0,0,0-15.995,11.9,4.2,4.2,0,0,1,1.009,2.608,4.437,4.437,0,0,1-4.343,4.6,4.605,4.605,0,0,1-5.081-3.934,4.145,4.145,0,0,1,.928-3.36,5.046,5.046,0,0,1,3.3-1.744,4.69,4.69,0,0,1,1.846.245,26.232,26.232,0,0,1,17.348-12.77A40.934,40.934,0,0,0,837.6,837.31a26.59,26.59,0,0,1-7.7,14.4,19.873,19.873,0,0,1-19.686,3.967c-6.466-1.611-11.17-6.66-11.836-12.7.084-6.575,4.88-12.336,11.836-14.219a31.22,31.22,0,0,1,19.686,1.6,42.355,42.355,0,0,1,5.241,2.474,26.584,26.584,0,0,0-1.206-10.073c-2.461-7.6-7.9-14.865-16.438-22.286-16.561-14.352-38.018-23.423-58.737-32.2-18.8-7.956-38.141-16.157-54.136-28.3l21.728,28.972c8.123-.973,16.083,2.627,20.1,9.093a20.2,20.2,0,0,1-14.3-1.359l22.565,30a36.25,36.25,0,0,0,24.164.78h0a5.564,5.564,0,0,1,11.073,0,5.092,5.092,0,0,1-4,4.61,5.778,5.778,0,0,1-6.065-2.047,39.756,39.756,0,0,1-22.417.49l44.293,58.947c10.029-.71,19.46,4.391,23.524,12.726a30.186,30.186,0,0,1-18.16-5.594L825.1,900.469c1.7,2.028,3.617,4.569,5.586,7.444l36.64,48.718a2.556,2.556,0,0,1,.492.379c13.46,15.779,21.654,20.615,26.157,21.885a24.234,24.234,0,0,0,16.945-1.355A20.679,20.679,0,0,0,921.806,965.7a16.13,16.13,0,0,0-1.4-13.907,15.606,15.606,0,0,0-12.451-7,13.237,13.237,0,0,0-10.63,4.992,9.019,9.019,0,0,0-.32,1.159,2.308,2.308,0,0,0,.812,2.585c1.378.736,3.076-.624,4.528-.513a5.709,5.709,0,0,1,3.666,1.917,2.7,2.7,0,0,1,0,3.41,6.526,6.526,0,0,1,5.856.958,5.083,5.083,0,0,1,1.895,5.1,7.835,7.835,0,0,1-5.807,5.081,15.555,15.555,0,0,1-14.937-3.365,14.338,14.338,0,0,1-2.928-11.834,12.785,12.785,0,0,1,.96-4.457,16.747,16.747,0,0,1,9.179-8.536l.541-.29h.221a19.749,19.749,0,0,1,7.087-1.226A21.37,21.37,0,0,1,925.3,949.3a21.031,21.031,0,0,1,1.895,17.963c-4.681,13.034-20.02,20.278-34.5,16.291a30.5,30.5,0,0,1-7.136-3.365l16.265,21.618c11.137.366,21.261,5.955,26.723,14.753a27.8,27.8,0,0,1-16.29-.847l63.757,84.688a2.357,2.357,0,0,1,.493,1.943A2.538,2.538,0,0,1,975.3,1104.009Z" transform="translate(37.65 -177.17)" fill="#fff"/>
        <path id="Path_5" data-name="Path 5" d="M309.381,360.574a12.328,12.328,0,0,0,8.465-11.344,14.13,14.13,0,0,0-7.973-13.818,31.212,31.212,0,0,0-17.077-2.429,32.843,32.843,0,0,0-1.55,6.062A21.372,21.372,0,0,0,294.321,355,14.569,14.569,0,0,0,309.381,360.574Z" transform="translate(517.443 13.901)" fill="#fff"/>
        <path id="Path_6" data-name="Path 6" d="M313.223,471.092c-5.713,1.57-9.677,6.273-9.843,11.678a12.694,12.694,0,0,0,9.843,10.408,17.215,17.215,0,0,0,16.831-3.321,24.517,24.517,0,0,0,7.087-14.286,39.8,39.8,0,0,0-6.029-2.942,28.057,28.057,0,0,0-17.889-1.538Z" transform="translate(535.796 182.963)" fill="#fff"/>
      </g>
    </g>
  </g>
</svg>
