<svg xmlns="http://www.w3.org/2000/svg" viewBox="0 0 492.18 488.69"><defs><style>.cls-1{fill:#fcfcfc;}</style></defs><title>Asset 1</title><g id="Layer_2" data-name="Layer 2"><g id="Layer_1-2" data-name="Layer 1"><path class="cls-1" d="M1.33,488.62l.58,0h160.6l.22,0,.42,0H285.57a3,3,0,0,1,.43,0,5.66,5.66,0,0,1,.6,0h26.17c.23,0,.47,0,.71,0h25.35a5.47,5.47,0,0,1,1.18.13H460.25l-46.83-68.62a5.29,5.29,0,0,0,.77-.44,5.67,5.67,0,0,0,1.5-7.88l-21-30.92,2-.64a2.27,2.27,0,0,0,1.51-2.82,2.44,2.44,0,0,0-.19-.44l-1.32-2.48a17.62,17.62,0,0,0-10.44-8.28,15.26,15.26,0,0,0,2.61-1.08,15.91,15.91,0,0,0,7.77-9.31,14.84,14.84,0,0,0-1.17-11.68,13.16,13.16,0,0,0-10.85-6.54h-.21a11.5,11.5,0,0,0-3.14.44,2.41,2.41,0,0,0-1.15.27l-.67.36-.2.11a11.65,11.65,0,0,0-5.84,6.22,10.79,10.79,0,0,0-.69,3.27c-.3-.37-.6-.76-.92-1.18-.12-.15-.24-.28-.35-.4l-14.49-21.27c-.85-1.37-1.67-2.58-2.43-3.58l-.84-1.23.79-.07a2.28,2.28,0,0,0,2.08-2.43,3,3,0,0,0-.08-.43,7.51,7.51,0,0,0,1.12-.6,7.4,7.4,0,0,0,6.8,3,6.46,6.46,0,0,0,5.37-4l.25.17a6.4,6.4,0,0,0,8-9.9l-.08-.08a5,5,0,0,0-2-1.31l-.12-.05h-.12a15.39,15.39,0,0,0-10-5.51,23.84,23.84,0,0,0-5.06-6.49,18.42,18.42,0,0,0-.76-4.78c-.13-.44-.28-.88-.44-1.31A24.34,24.34,0,0,0,370,283.16l6.94-4.44a2.28,2.28,0,0,0,1-2.59,2.31,2.31,0,0,0-2.24-1.6l-8.22.26a3.4,3.4,0,0,1-1.5-1c-.43-.43-.87-.94-1.34-1.48a25.49,25.49,0,0,0-2.64-2.76c-4.71-4.08-10.84-4.64-16.77-4.64l-9,.07c-3.36-1.76-6.83-3.38-10-4.85l-1.75-.82a24,24,0,0,0,9.68-7c6.46-8,6.44-20-.05-27.33-.36-.41-.75-.81-1.15-1.19a13.42,13.42,0,0,0,3.51-2.9c.21-.25.4-.49.6-.76a14.89,14.89,0,0,0,2.42-11.48,16,16,0,0,0-6.75-10.13A15.7,15.7,0,0,0,329,196.7l.87-1a13.36,13.36,0,0,1,2-.15,7.45,7.45,0,0,0,1.1,1.52,6.65,6.65,0,0,0,4.86,2.12,7.63,7.63,0,0,0,7.26-6.09,11.72,11.72,0,0,0,2.63,1.64,12.66,12.66,0,0,0,8.17.55,28.52,28.52,0,0,0,5.78-2.36l7-3.44a2.27,2.27,0,0,0-.76-4.29l-1.26-.14.15-.22a9.64,9.64,0,0,0,.52-8.55c-2.3-6.07-6.41-6.72-8.07-6.72A8.65,8.65,0,0,0,352,174c-1.4.12-2.79.31-4.18.56L366,153.18a53.55,53.55,0,0,1,11.33-9.35,16.83,16.83,0,0,0,9.75,29.64A19.33,19.33,0,0,0,402,168.83a18.48,18.48,0,0,0,1.61-1.7c5.88-6.9,6.45-17.62,1.37-25.49a24.38,24.38,0,0,0-11.49-9.24l.36-.24a23.32,23.32,0,0,0,9.66-15.07l.33-2.32a2.28,2.28,0,0,0-1.93-2.58h-.07l-.87-.09,32.88-38.61a5.69,5.69,0,0,0,.62-6.43C467.1,29.2,492.18,0,492.18,0H0V488.69a5.53,5.53,0,0,1,1-.09ZM270.5,196.83c4.19-6.4,13.31-8.86,20.73-5.61,6.76,3,11.57,10.31,12,18.27a16.68,16.68,0,0,1,0,2,134.9,134.9,0,0,0,4-18.2c.66-3.89,1.34-7.82,2.23-11.71L307,173c-1.43-5.07-2.83-10.67-.56-15.42.79-1.66,2-3.09,2.89-4.69a6.91,6.91,0,0,0,1-5.27,18.61,18.61,0,0,1,6,11.35,17.53,17.53,0,0,1-.31,5.26,23.07,23.07,0,0,1,7.2-7.67,14.45,14.45,0,0,1,5.24-2,19.2,19.2,0,0,1,6.79-8.84,10.75,10.75,0,0,1,2.3-11.39,1.67,1.67,0,0,1-.23-1,1.09,1.09,0,0,1,.23-.72,1.86,1.86,0,1,1,1.24,2.73,2.26,2.26,0,0,1-.43-.17,9.75,9.75,0,0,0-2.14,9.94,17.72,17.72,0,0,1,5.31-2.27c.59-2.06,3.55-3.91,4.7-1.18a2.93,2.93,0,0,1-.67,3c-1.27,1.31-3.56.86-4-.63a16.58,16.58,0,0,0-4.82,2.1,9.82,9.82,0,0,0,6.87,4.86,2,2,0,0,1,1-.71,1.93,1.93,0,0,1,1.3,3.62,2,2,0,0,1-2.64-1l0-.06a1.86,1.86,0,0,1-.08-.74,10.87,10.87,0,0,1-7.4-5.29,18.19,18.19,0,0,0-6,7.61,12.34,12.34,0,0,1,7.06,1.31,7.54,7.54,0,0,1,3.82,7.21,6.56,6.56,0,0,1-4.23,6.14,6.72,6.72,0,0,1-7.41-2.95,11.49,11.49,0,0,1-1.43-7.94,17.06,17.06,0,0,1,.5-2.36,13.79,13.79,0,0,0-4.23,1.67,23.54,23.54,0,0,0-7.86,9.08c-4.43,8.2-6,17.68-7.62,26.85-1.43,8.3-2.9,16.86-6.44,24.57l10.17-12a8.18,8.18,0,0,1,1.78-9,7.48,7.48,0,0,1,.94,5.76L325.4,190.5a13.43,13.43,0,0,0-2.26-9.57,2.26,2.26,0,1,1-1.6-4.23,2.12,2.12,0,0,1,.36-.1,2.23,2.23,0,0,1,2.19,3.65,14.59,14.59,0,0,1,2.62,8.72l20.75-24.36a9.66,9.66,0,0,1,3-10.73,11.57,11.57,0,0,1-.46,7.78l8.41-9.87a34.72,34.72,0,0,1,2.62-3.08l17.14-20.14a1,1,0,0,1,.12-.23c5.37-7.15,6.58-10.94,6.65-12.85a9,9,0,0,0-8.64-9.35h-.06a7.93,7.93,0,0,0-5.86,2.21,6.22,6.22,0,0,0-1.69,5.71,5.21,5.21,0,0,0,3.3,3.57,4.86,4.86,0,0,0,.54,0c.42,0,.91-.21,1-.63.17-.62-.6-1.13-.71-1.71a2.32,2.32,0,0,1,.43-1.67,1.31,1.31,0,0,1,1.48-.4,2.38,2.38,0,0,1,1.79-3.76,3.31,3.31,0,0,1,2.82,1.68,5.86,5.86,0,0,1,.15,6.25,7,7,0,0,1-4.81,2.55,6.21,6.21,0,0,1-2.06.16,7.09,7.09,0,0,1-4.68-2.59l-.18-.17v-.09a7.42,7.42,0,0,1-1.29-2.63,8.52,8.52,0,0,1,2.27-7.86,10.22,10.22,0,0,1,7.56-2.88,11.29,11.29,0,0,1,10.89,11.68v0a11,11,0,0,1-.69,3.2l7.62-8.94a13,13,0,0,1,3.5-12.23A10.38,10.38,0,0,1,399,104.1l29.83-35a1.14,1.14,0,0,1,1.61,0,1.12,1.12,0,0,1,.12,1.45l-40.91,48a15.42,15.42,0,0,1,9.52-2.13,18.65,18.65,0,0,1-7.72,12A17.29,17.29,0,0,1,379,131.16l-6.77,8c3.15-2.07,6.36-3.59,9.19-3.9,7.93-.87,15.94,2.72,19.95,8.92s3.53,14.75-1,20.09a13.22,13.22,0,0,1-1.22,1.26,14.67,14.67,0,0,1-11.4,3.53,13.18,13.18,0,0,1-9.46-5.27,13,13,0,0,1,2.7-16.85,8.08,8.08,0,0,1,4.27-2.39,7.33,7.33,0,0,1,6.34,1.6,5.87,5.87,0,0,1,.88,6.19,3.31,3.31,0,0,1-2.51,2.12,2.38,2.38,0,0,1-2.61-2.13,2.46,2.46,0,0,1,.23-1.28,1.31,1.31,0,0,1-1.52-.16,2.29,2.29,0,0,1-.7-1.58c0-.59.68-1.21.41-1.8a.65.65,0,0,0-.36-.33,9.18,9.18,0,0,0-6,5.69,10.2,10.2,0,0,0,.77,9.61,10.92,10.92,0,0,0,7.85,4.32,12.37,12.37,0,0,0,9.44-2.92c4.77-4.38,5.6-12.65,1.86-18.45-3.55-5.5-10.7-8.67-17.79-7.9-5.36.59-13.56,7-18.82,12.66l-30.05,35.28a42.7,42.7,0,0,1,22.47-7c.78-3.89,5.49-7.08,8-.51a5.17,5.17,0,0,1-.12,4.54,4,4,0,0,1-4.72,1.43,4.53,4.53,0,0,1-3.24-4.32,40.17,40.17,0,0,0-8.8,1.18A7.29,7.29,0,0,1,350,182a37.37,37.37,0,0,1,4.29,3.76c1.42,1.27,3.54,2.94,5.43,3.15a23.71,23.71,0,0,1-4.93,2,8.12,8.12,0,0,1-5.24-.28c-2-.88-3.31-2.72-4.64-4.42a11.08,11.08,0,0,0-4.23-3.66,41.29,41.29,0,0,0-11.4,6.88l-.66.78a17,17,0,0,1,7.27.19,2.36,2.36,0,0,1,2.41-1.22,2.72,2.72,0,0,1,2.29,2c.55,2.29-2.54,4.69-4.34,2.77a3,3,0,0,1-.74-2.51,15.68,15.68,0,0,0-8.13.2l-8.58,10.07a11.18,11.18,0,0,1,15.08,4.74,11,11,0,0,1,1.07,3.06,10.21,10.21,0,0,1-1.63,7.92c-.12.17-.25.33-.38.49a8.49,8.49,0,0,1-7,3,7.27,7.27,0,0,1-6.39-5.2,6.29,6.29,0,0,1-.06-2.83,8.05,8.05,0,0,1,1.36-3.88,7.33,7.33,0,0,1,5.65-3.28,5.85,5.85,0,0,1,5,3.81,3.29,3.29,0,0,1-.3,3.26,2.37,2.37,0,0,1-4.09-.77,1.35,1.35,0,0,1-1.2,1,2.34,2.34,0,0,1-1.61-.64c-.4-.43-.35-1.35-1-1.58h-.07a4.34,4.34,0,0,0-1.47,4.38,5,5,0,0,0,4.39,3.52,6.23,6.23,0,0,0,5.37-2.57,8,8,0,0,0,1.16-6.18,9,9,0,0,0-10.56-7.11h0c-1.88.37-5.42,2.17-11.61,8.6l-14.56,17.09c-.38.5-.77,1-1.16,1.45s-.83.95-1.25,1.39l-3.41,4,4.89,7.18c3.77,5,9.51,10.12,15.23,11.37,7,1.53,14.42-.85,18.54-5.94,4.34-5.36,4.4-13.68.13-18.54a12.39,12.39,0,0,0-9.26-4,10.92,10.92,0,0,0-8.26,3.45,8.4,8.4,0,0,0-1.38,2.2,8.14,8.14,0,0,0,1.08,7.13c.41.56,1,1.11,1.71.94,1-.26,1.1-1.75,1.83-2.37a3.62,3.62,0,0,1,2.69-.75c.83.18,1.75.89,1.76,1.74a3.85,3.85,0,0,1,6.71-.53,5.33,5.33,0,0,1-.07,5.31c-1.62,3.12-5.14,5.56-8.64,5.27a9.42,9.42,0,0,1-4.59-1.86,11.84,11.84,0,0,1-5.09-7,12.53,12.53,0,0,1,2.32-11.53,13.24,13.24,0,0,1,10-4.22,14.73,14.73,0,0,1,11,4.73c5.06,5.73,5,15.18-.07,21.47-4.65,5.74-13,8.44-20.79,6.73a18.68,18.68,0,0,1-1.94-.56,132.92,132.92,0,0,0,16.5,8.67c3.57,1.67,7.19,3.37,10.69,5.25l8.9-.08c5.26,0,11,.09,15,3.54,1.39,1.2,2.45,2.73,3.75,4a7,7,0,0,0,4.83,2.33,18.56,18.56,0,0,1-12.53,2.79,17.35,17.35,0,0,1-5-1.68,23,23,0,0,1,5.49,9,14.82,14.82,0,0,1,.5,5.58,19.2,19.2,0,0,1,6.72,8.85A10.79,10.79,0,0,1,373,309.06a1.86,1.86,0,0,1,1.07.06,1.08,1.08,0,0,1,.63.41,1.86,1.86,0,1,1-3,.47,1.41,1.41,0,0,1,.27-.37,9.77,9.77,0,0,0-9-4.69,17.85,17.85,0,0,1,.78,5.72c1.83,1.11,2.83,4.46-.11,4.84a2.9,2.9,0,0,1-2.75-1.44c-.93-1.57.11-3.67,1.68-3.73a16.73,16.73,0,0,0-.76-5.21,9.78,9.78,0,0,0-6.5,5.34,2,2,0,0,1,.41,1.17,1.92,1.92,0,1,1-3.83.3,2,2,0,0,1,1.67-2.28h.05a1.74,1.74,0,0,1,.75.11,10.82,10.82,0,0,1,7.05-5.73,18.08,18.08,0,0,0-5.75-7.81,12.34,12.34,0,0,1-3.13,6.46,7.52,7.52,0,0,1-8,1.78,6.59,6.59,0,0,1-4.81-5.7,6.73,6.73,0,0,1,4.81-6.38,11.57,11.57,0,0,1,8,.72,16.54,16.54,0,0,1,2.13,1.11,13,13,0,0,0-.49-4.52c-1-3.41-3.21-6.67-6.68-10-6.73-6.44-15.45-10.51-23.87-14.45-7.64-3.57-15.5-7.25-22-12.7l8.83,13a8.14,8.14,0,0,1,8.17,4.08,7.5,7.5,0,0,1-5.81-.61L322,282.46a13.43,13.43,0,0,0,9.82.35A2.25,2.25,0,1,1,334,285a2.22,2.22,0,0,1-1.78-1,14.7,14.7,0,0,1-9.11.22l18,26.45a9.62,9.62,0,0,1,9.56,5.71,11.48,11.48,0,0,1-7.38-2.51l7.3,10.72c.69.91,1.47,2.05,2.27,3.34l14.89,21.86.2.17c5.47,7.08,8.8,9.25,10.63,9.82a9,9,0,0,0,11.29-5.87l0-.05a7.9,7.9,0,0,0-.57-6.24,6.23,6.23,0,0,0-5.06-3.14,5.2,5.2,0,0,0-4.32,2.24,4.39,4.39,0,0,0-.13.52,1.1,1.1,0,0,0,.33,1.16c.56.33,1.25-.28,1.84-.23a2.26,2.26,0,0,1,1.49.86,1.31,1.31,0,0,1,0,1.53,2.45,2.45,0,0,1,2.38.43,2.41,2.41,0,0,1,.77,2.29,3.33,3.33,0,0,1-2.36,2.28,5.9,5.9,0,0,1-6.07-1.51A7,7,0,0,1,377,348.7a6.23,6.23,0,0,1,.39-2,7.13,7.13,0,0,1,3.73-3.83l.22-.13h.09a7.45,7.45,0,0,1,2.88-.55,8.5,8.5,0,0,1,7,4.27,10.3,10.3,0,0,1,.77,8.06,11.29,11.29,0,0,1-14,7.31,12.12,12.12,0,0,1-2.9-1.51l6.61,9.7a13,13,0,0,1,10.86,6.62,10.29,10.29,0,0,1-6.62-.38l25.91,38a1.14,1.14,0,0,1-.25,1.59l0,0a1.14,1.14,0,0,1-1.58-.3l-35.52-52.15a15.54,15.54,0,0,1-.46,9.74,18.66,18.66,0,0,1-9.51-10.62,17.24,17.24,0,0,1,.68-12.76l-5.88-8.63c1.16,3.58,1.79,7.09,1.34,9.9-1.27,7.88-6.84,14.66-13.88,16.88s-15.16-.5-19.11-6.29a14.32,14.32,0,0,1-.9-1.51,14.72,14.72,0,0,1-.38-11.93,13.17,13.17,0,0,1,7.58-7.73,12.94,12.94,0,0,1,15.54,7.06,8.16,8.16,0,0,1,1.18,4.75c-.18,2.16-1.33,4.63-3.22,5.68a5.84,5.84,0,0,1-6.2-.78,3.33,3.33,0,0,1-1.39-3,2.38,2.38,0,0,1,3.92-1.39,1.35,1.35,0,0,1,.55-1.43,2.23,2.23,0,0,1,1.71-.26c.57.17,1,1,1.63.87a.63.63,0,0,0,.41-.26,9.16,9.16,0,0,0-3.89-7.33,10.23,10.23,0,0,0-9.47-1.8,10.91,10.91,0,0,0-6.24,6.43,12.46,12.46,0,0,0,.29,10.06c3,5.76,10.72,8.75,17.31,6.67,6.24-2,11.19-8,12.31-15.07.86-5.33-3.15-14.92-7.22-21.49l-26.13-38.36a42.64,42.64,0,0,1,.83,23.54c3.54,1.77,5.38,7.15-1.61,7.81a5.21,5.21,0,0,1-4.35-1.31,4,4,0,0,1-.13-4.94,4.54,4.54,0,0,1,5-2,40.88,40.88,0,0,0,1.19-8.81,7.21,7.21,0,0,1-2.18,3.32,36.75,36.75,0,0,1-4.77,3.15c-1.6,1-3.76,2.64-4.47,4.41a24.93,24.93,0,0,1-.63-5.3,8.21,8.21,0,0,1,1.66-5c1.37-1.67,3.5-2.47,5.49-3.31a11.05,11.05,0,0,0,4.65-3.11,41.13,41.13,0,0,0-3.63-12.81l-.57-.84a17,17,0,0,1-2.1,6.95,2.4,2.4,0,0,1,.54,2.65,2.74,2.74,0,0,1-2.57,1.68c-2.35-.08-3.85-3.69-1.52-4.92a3,3,0,0,1,2.61-.05,15.71,15.71,0,0,0,2-7.9l-7.45-10.94a11,11,0,0,1-11.79,13.53,10.28,10.28,0,0,1-7.21-3.68c-.12-.16-.25-.33-.36-.5a8.46,8.46,0,0,1-1-7.56,7.31,7.31,0,0,1,6.71-4.78,6.39,6.39,0,0,1,2.74.69,7.9,7.9,0,0,1,3.39,2.33c1.38,1.67,2.29,4.24,1.67,6.32a5.84,5.84,0,0,1-5,3.77,3.32,3.32,0,0,1-3.07-1.16,2.38,2.38,0,0,1,.59-3.31,2.28,2.28,0,0,1,1.23-.43,1.33,1.33,0,0,1-.6-1.41,2.26,2.26,0,0,1,1-1.38c.52-.27,1.4,0,1.78-.51V275a4.34,4.34,0,0,0-3.83-2.58,5.07,5.07,0,0,0-4.56,3.3,6.2,6.2,0,0,0,1.06,5.86,8,8,0,0,0,5.6,2.82,9,9,0,0,0,9.65-8.3V276c.14-1.92-.66-5.8-5.22-13.47L293.25,244c-.38-.5-.75-1-1.09-1.51s-.69-1.05-1-1.57l-3.44-5.06v-.19a1,1,0,0,1-.1-.33v-.09a.92.92,0,0,1,0-.33v-.12a.94.94,0,0,1,.14-.26v-.06l6.2-7.28c3.85-5,7.24-11.85,6.94-17.7-.36-7.12-4.63-13.67-10.63-16.3-6.32-2.77-14.35-.63-17.92,4.78A12.42,12.42,0,0,0,271,208,11,11,0,0,0,276.5,215a8.57,8.57,0,0,0,2.48.75,8.18,8.18,0,0,0,6.59-2.93,1.78,1.78,0,0,0,.46-1.9c-.52-.91-2-.6-2.77-1.14a3.67,3.67,0,0,1-1.44-2.39,2.15,2.15,0,0,1,1.22-2.16,3.86,3.86,0,0,1-3.2-4.41,3.93,3.93,0,0,1,.91-1.93,5.39,5.39,0,0,1,5.15-1.33c3.43.73,6.72,3.48,7.35,6.94a9.3,9.3,0,0,1-.57,4.92,11.89,11.89,0,0,1-5.4,6.75,12.51,12.51,0,0,1-11.78.87,13.23,13.23,0,0,1-6.71-8.5A14.71,14.71,0,0,1,270.5,196.83Z"/></g></g></svg>