<svg xmlns="http://www.w3.org/2000/svg" xmlns:xlink="http://www.w3.org/1999/xlink" width="920.547" height="1171.983" viewBox="0 0 920.547 1171.983">
  <defs>
    <filter id="Rectangle_38" x="0" y="0" width="920.547" height="1171.983" filterUnits="userSpaceOnUse">
      <feOffset dx="20" dy="20" input="SourceAlpha"/>
      <feGaussianBlur stdDeviation="40" result="blur"/>
      <feFlood flood-opacity="0.161"/>
      <feComposite operator="in" in2="blur"/>
      <feComposite in="SourceGraphic"/>
    </filter>
    <radialGradient id="radial-gradient" cx="0.499" cy="0.501" r="0.589" gradientTransform="matrix(-0.751, 0, 0, 1, -831.006, 0)" gradientUnits="objectBoundingBox">
      <stop offset="0" stop-color="#f29183"/>
      <stop offset="1" stop-color="#f5a98d"/>
    </radialGradient>
    <radialGradient id="radial-gradient-2" cx="0.504" cy="0.493" r="0.628" gradientTransform="matrix(0.579, -0.529, 0.36, 0.849, -159.682, -138.386)" xlink:href="#radial-gradient"/>
    <radialGradient id="radial-gradient-3" cx="0.934" cy="1.105" r="0.626" gradientTransform="matrix(-0.581, -0.529, -0.362, 0.849, -603.947, -205.898)" xlink:href="#radial-gradient"/>
  </defs>
  <g id="modal-frame-bg" transform="translate(100 100)">
    <g transform="matrix(1, 0, 0, 1, -100, -100)" filter="url(#Rectangle_38)">
      <rect id="Rectangle_38-2" data-name="Rectangle 38" width="680.547" height="931.983" transform="translate(100 100)" fill="#fff"/>
    </g>
    <g id="Group_51" data-name="Group 51">
      <path id="Path_6080" data-name="Path 6080" d="M58.324,20.656a11.845,11.845,0,0,0-16.691-4.846C24.4,26.579,63.17,57.268,5.56,118.647,36.788,94.957,72.861,45.423,58.324,20.656Z" transform="translate(293.794 746.036)" fill="#939985"/>
      <path id="Path_6081" data-name="Path 6081" d="M5.71,64.543c12.383-14,20.459-37.688,10.23-47.918a6.461,6.461,0,0,0-8.615,0C.864,23.086,24.016,34.931,5.71,64.543Z" transform="translate(301.721 791.525)" fill="#939985"/>
      <path id="Path_6082" data-name="Path 6082" d="M70.937,51.715a7.538,7.538,0,0,1-5.384,8.615c-14,0-3.769-31.228-59.763-44.149C32.71,17.8,70.937,31.794,70.937,51.715Z" transform="translate(305.948 854.963)" fill="#939985"/>
      <path id="Path_6083" data-name="Path 6083" d="M5.79,16.15C24.634,21,44.017,36.071,41.325,50.07a6.461,6.461,0,0,1-7,4.846C25.173,53.3,37.556,30.687,5.79,16.15Z" transform="translate(305.948 853.378)" fill="#939985"/>
      <path id="Path_6084" data-name="Path 6084" d="M60.966,22.279a7.538,7.538,0,0,0-8.076-7c-12.922,0,0,29.074-47.38,47.918C31.892,58.353,62.581,40.585,60.966,22.279Z" transform="translate(291.152 806.329)" fill="#939985"/>
      <path id="Path_6085" data-name="Path 6085" d="M6.19,42.173S31.5,37.866,36.879,23.867V15.791c0-1.077-4.846,0-5.384,4.307A36.612,36.612,0,0,1,6.19,42.173Z" transform="translate(327.084 813.894)" fill="#939985"/>
      <path id="Path_6086" data-name="Path 6086" d="M5.59,26.081c46.3-13.46,53.841,14,63.532,7.538a5.922,5.922,0,0,0,0-9.153C59.969,10.467,27.665,15.851,5.59,26.081Z" transform="translate(295.38 845.601)" fill="#939985"/>
      <path id="Path_6087" data-name="Path 6087" d="M6.23,24.012a37.15,37.15,0,0,1,29.612,0H42.3c1.077,0,0-5.384-3.23-7C26.151,12.167,6.23,24.012,6.23,24.012Z" transform="translate(329.198 837.44)" fill="#939985"/>
      <path id="Path_6088" data-name="Path 6088" d="M8.65,99.769a11.845,11.845,0,0,0,16.691,4.307C42.569,93.308,3.8,63.157,61.414,1.24,31.8,25.468-4.272,74.463,8.65,99.769Z" transform="translate(314.395 65.522)" fill="#939985"/>
      <path id="Path_6089" data-name="Path 6089" d="M21.58,1.4C8.658,15.937,1.121,39.627,11.35,49.857a7,7,0,0,0,8.614,0C29.118,43.4,3.274,33.7,21.58,1.4Z" transform="translate(347.767 73.977)" fill="#939985"/>
      <path id="Path_6090" data-name="Path 6090" d="M5.606,8.925A7.538,7.538,0,0,1,13.144.31c14,0,3.769,31.228,59.763,44.149C45.987,42.845,6.683,28.846,5.606,8.925Z" transform="translate(292.133 16.38)" fill="#939985"/>
      <path id="Path_6091" data-name="Path 6091" d="M41.9,39.451C23.058,34.605,3.675,19.53,6.367,5.531a5.384,5.384,0,0,1,7-4.846C22.519,2.3,10.136,24.914,41.9,39.451Z" transform="translate(323.138 23.004)" fill="#939985"/>
      <path id="Path_6092" data-name="Path 6092" d="M6,42.607a7.538,7.538,0,0,0,8.076,7c12.922,0,0-29.074,47.38-48.457C39.381,6.534,6,24.3,6,42.607Z" transform="translate(317.044 60.767)" fill="#939985"/>
      <path id="Path_6093" data-name="Path 6093" d="M36.5,1.41S11.194,5.179,5.81,19.716c0,2.692,0,7,2.692,8.076s7.538-2.154,7.538-4.307A37.688,37.688,0,0,1,36.5,1.41Z" transform="translate(307.005 74.505)" fill="#939985"/>
      <path id="Path_6094" data-name="Path 6094" d="M72.556,8.771c-47.38,13.46-53.841-14-64.609-6.461a6.461,6.461,0,0,0,0,9.691C18.715,24.384,51.558,18.462,72.556,8.771Z" transform="translate(304.329 51.531)" fill="#939985"/>
      <path id="Path_6095" data-name="Path 6095" d="M41.743,2.251a37.15,37.15,0,0,1-29.612,0,5.922,5.922,0,0,0-6.461,0c0,2.692,0,5.922,3.23,7C23.437,13.557,41.743,2.251,41.743,2.251Z" transform="translate(299.607 68.281)" fill="#939985"/>
      <path id="Path_6096" data-name="Path 6096" d="M92.748,23.354c-15.614,16.152-53.841,7-83.992-8.615L.68,10.432V7.2H8.218C62.058,25.507,78.749-8.951,92.209,3.971a11.307,11.307,0,0,1,.538,19.383Z" transform="translate(35.932 52.562)" fill="#939985"/>
      <path id="Path_6097" data-name="Path 6097" d="M.68,17.1H4.449c14,3.769,29.074,0,34.458-8.076a4.846,4.846,0,0,0,0-7.538C31.908-2.819,27.6,14.41,6.6,14.41Z" transform="translate(35.932 42.123)" fill="#939985"/>
      <path id="Path_6098" data-name="Path 6098" d="M27.142,21.639a3.23,3.23,0,0,0,0-4.307c0-5.384-12.922,3.23-26.382-16.152C7.759,11.41,19.066,24.332,27.142,21.639Z" transform="translate(40.159 62.352)" fill="#939985"/>
      <path id="Path_6099" data-name="Path 6099" d="M1,1.46S5.307,12.228,11.768,13.3s3.769,0,3.23,0A15.614,15.614,0,0,1,1,1.46Z" transform="translate(52.841 77.147)" fill="#939985"/>
      <path id="Path_6100" data-name="Path 6100" d="M.8,1.22C11.03,20.064.8,26.525.8,30.294a3.23,3.23,0,0,0,4.307,0C11.568,23.833,6.722,9.3.8,1.22Z" transform="translate(42.273 64.466)" fill="#939985"/>
      <path id="Path_6101" data-name="Path 6101" d="M1,1.48A17.229,17.229,0,0,1,1,14.94v3.23c0,.538,0,0,2.692,0S1,1.48,1,1.48Z" transform="translate(52.841 78.204)" fill="#939985"/>
      <path id="Path_6102" data-name="Path 6102" d="M15.327,38.667c15.614,16.152,53.841,6.461,83.992-9.153l8.076-4.307v-3.23H99.857C46.017,40.82,29.326,6.362,15.866,18.746a11.845,11.845,0,0,0-.538,19.921Z" transform="translate(536.54 844.86)" fill="#939985"/>
      <path id="Path_6103" data-name="Path 6103" d="M45.3,29.971c-21,0-25.844-17.767-32.3-13.46a5.384,5.384,0,0,0,0,8.076c4.846,9.691,20.46,11.306,34.458,7.538h-.538Z" transform="translate(590.556 836.865)" fill="#939985"/>
      <path id="Path_6104" data-name="Path 6104" d="M12.8,36.1s-3.231,0,0-3.769,12.383,3.23,25.843-16.152C32.182,26.41,20.875,38.793,12.8,36.1Z" transform="translate(600.447 854.963)" fill="#939985"/>
      <path id="Path_6105" data-name="Path 6105" d="M26.911,16.45S22.6,27.218,15.6,28.295s-3.23,0-3.23,0h0A17.229,17.229,0,0,0,26.912,16.45Z" transform="translate(600.333 869.23)" fill="#939985"/>
      <path id="Path_6106" data-name="Path 6106" d="M20.981,16.22c-10.768,18.844,0,25.305-3.23,28.536a2.692,2.692,0,0,1-4.307,0C8.6,38.295,14.52,23.758,20.981,16.22Z" transform="translate(616.494 857.077)" fill="#939985"/>
      <path id="Path_6107" data-name="Path 6107" d="M15.072,16.48a15.075,15.075,0,0,0,0,13.46v2.692H12.38C9.688,32.632,15.072,16.48,15.072,16.48Z" transform="translate(614.326 870.815)" fill="#939985"/>
      <path id="Path_6108" data-name="Path 6108" d="M283.033,812.48h-8.076V9.176H6.83V1.1h276.2Z" transform="translate(360.902 58.125)" fill="#939985"/>
      <path id="Path_6109" data-name="Path 6109" d="M276.345,804.4v8.076H.68V1.1H8.218V804.4Z" transform="translate(35.932 58.125)" fill="#939985"/>
      <path id="Path_6110" data-name="Path 6110" d="M23.909,9.665A8.615,8.615,0,1,1,15.294,1.05a8.615,8.615,0,0,1,8.615,8.615Z" transform="translate(352.976 55.483)" fill="#939985"/>
      <circle id="Ellipse_47" data-name="Ellipse 47" cx="8.076" cy="8.076" r="8.076" transform="translate(300.97 858.221)" fill="#939985"/>
    </g>
    <g id="Layer_2" data-name="Layer 2" transform="translate(494.541 298.131)">
      <g id="Capa_1" data-name="Capa 1" transform="translate(0 -0.01)">
        <path id="Path_727" data-name="Path 727" d="M182.47,91.121c-.2,1.112-.967,2.16-1.972,2.16h0c-1,0-1.529-.975-1.819-2.056a31.985,31.985,0,0,1-.868-6.693,40.376,40.376,0,0,1,.562-7.133c.241-1.1.745-2.148,2.156-2.148A2.34,2.34,0,0,1,182.8,77.3a35.516,35.516,0,0,1,.42,6.857A39.968,39.968,0,0,1,182.47,91.121Z" transform="translate(-109.843 -46.482)" fill="#e8937c"/>
        <path id="Path_728" data-name="Path 728" d="M169.934,114.894a71.854,71.854,0,0,1-10.55,14.216L158,128.3s4.851-9.938,8.792-15.244a2.1,2.1,0,0,1,2.454-.5C170.346,113.193,169.934,114.894,169.934,114.894Z" transform="translate(-97.606 -69.376)" fill="#e8937c"/>
        <path id="Path_729" data-name="Path 729" d="M152.26,154.13a9.315,9.315,0,0,0-3.536,6.368c-.054.382,0,1.147.6,1.112.3,0,.585-.183,1.12-.787a11.928,11.928,0,0,0,1.323-1.953c-.115.673-.294,1.716.134,1.732.657.023.91-3.463,1.388-4.778a3.823,3.823,0,0,1,.359-.879Z" transform="translate(-91.866 -95.211)" fill="#e8937c"/>
        <path id="Path_730" data-name="Path 730" d="M180.77,277.292s1.846-1.254,3.157-4.9l-.715-9.086,4.5.019-.283,7.3-4.094,6.731S180.066,279.72,180.77,277.292Z" transform="translate(-111.61 -162.658)" fill="#f5a98d"/>
        <path id="Path_731" data-name="Path 731" d="M182.272,282.62s-2.966,4.128-4.2,5.814a10.576,10.576,0,0,1-1.17,1.2c-.573.543-1.414.195-1.147-.516a5.725,5.725,0,0,1-2.485,1.147c-.355.031-.936.348-.936.8,0,.363.195.829,1.074.829.654,0,3.318.027,4.388,0,.787-.019,1.625-.791,2.293-1.781.887-1.345,2.293-3.96,2.293-3.96v5.822h.692v-3.287c0-.623,1.2-1.991,1.2-3.643a2.393,2.393,0,0,0-2-2.423Z" transform="translate(-106.458 -174.586)" fill="#efeeee"/>
        <path id="Path_732" data-name="Path 732" d="M151.968,277.292s1.85-1.254,3.157-4.9l-.715-9.086,4.5.019-.283,7.3-4.09,6.731S151.261,279.72,151.968,277.292Z" transform="translate(-93.818 -162.658)" fill="#f5a98d"/>
        <path id="Path_733" data-name="Path 733" d="M153.466,282.62s-2.962,4.128-4.2,5.814a10.219,10.219,0,0,1-1.17,1.2c-.573.543-1.414.195-1.147-.516a5.724,5.724,0,0,1-2.485,1.147c-.359.031-.94.348-.94.8,0,.363.195.829,1.078.829.654,0,3.314.027,4.384,0a3.379,3.379,0,0,0,2.274-1.781c.891-1.345,2.293-3.96,2.293-3.96v5.822h.692v-3.287c0-.623,1.2-1.991,1.2-3.643a2.393,2.393,0,0,0-1.972-2.423Z" transform="translate(-88.66 -174.586)" fill="#efeeee"/>
        <path id="Path_734" data-name="Path 734" d="M144.616,139.938S129.514,155.171,127,187.39c-.233,3-.382,6.173-.382,9.51,0,0,9.751,4.8,24.509,4.717,9.74-.05,28.668-2.133,37.873-8.26,0,0-8.555-2.034-9.835-9.281a94.485,94.485,0,0,0-8.57-25.423c-4.411-8.665-11.444-15.81-17.147-18.753Z" transform="translate(-78.22 -86.42)" fill="#fbddde"/>
        <path id="Path_735" data-name="Path 735" d="M164,63.039h0a27.522,27.522,0,0,1,3.413-3.551,6.364,6.364,0,0,0,2.423-4.2c0-.535-.027,0-.034-1.078a11.392,11.392,0,0,0-.9-3.849l6.261-.906a6.228,6.228,0,0,0-.424,2.676c.306,1.911.352,3.475,1.529,5.455a17.87,17.87,0,0,1,1.934,5.852v.191H164Z" transform="translate(-101.312 -30.544)" fill="#f5a98d"/>
        <path id="Path_736" data-name="Path 736" d="M175.9,106.083l-8.837.038-1.368-14.6a5.654,5.654,0,0,1-2.446-6.349h14.43a17.479,17.479,0,0,1-.2,7.289C175.151,101.415,175.25,105.257,175.9,106.083Z" transform="translate(-100.713 -52.61)" fill="#fbddde"/>
        <path id="Path_737" data-name="Path 737" d="M159.706,21.372a2.935,2.935,0,0,1-1.227,2.416c-.256.191-.248.5-.023.562.585.153.715.818.764,1.109.076.443.356.482.313.818,0,.141.191.443.134.535-.1.187-.218.413,0,.516,0,0,.344.237.237,1.2-.1.849.986,1.38,2.163,1.12.722-.157,3.876-.921,4.633-1.1A39.369,39.369,0,0,0,171.35,27.3a10.875,10.875,0,0,0,1.682-1.284c2.7-1.842,4.251-8.815-1.911-12.591-1.594-.971-6.005-.657-8.727.539a4.235,4.235,0,0,0-2.569,2.936,10.454,10.454,0,0,0-.118,4.048Z" transform="translate(-97.783 -7.933)" fill="#f5a98d"/>
        <path id="Path_738" data-name="Path 738" d="M162.8,30.969a3.271,3.271,0,0,1,.585-.161,3.677,3.677,0,0,1,1.284,0,2.511,2.511,0,0,1,.65.187,2.293,2.293,0,0,1,.524.256l.459.325a.1.1,0,0,1,.023.13.092.092,0,0,1-.118.031h0l-.474-.229a2.033,2.033,0,0,0-.5-.157,2.251,2.251,0,0,0-.585-.069,3.031,3.031,0,0,0-1.074.18,2.752,2.752,0,0,0-.436.2.382.382,0,0,1-.317-.673Z" transform="translate(-100.493 -18.993)" fill="#b25a5a"/>
        <path id="Path_739" data-name="Path 739" d="M161.26,47.52a2.477,2.477,0,0,0,.161.914l1.472-.764Z" transform="translate(-99.619 -29.352)" fill="#fbddde"/>
        <path id="Path_740" data-name="Path 740" d="M160.115,45.825c.149-.027.264,0,.6.145a6.674,6.674,0,0,0,1.712.333c.119,0,.164.145.065.183a3.192,3.192,0,0,1-2.389,0s-.363-.18-.275-.428A.329.329,0,0,1,160.115,45.825Z" transform="translate(-98.726 -28.299)" fill="#ee7677"/>
        <path id="Path_741" data-name="Path 741" d="M160.626,48.1c.1-.111.214-.153.573-.226a6.5,6.5,0,0,0,1.6-.707c.1-.065.214.027.157.115A3.188,3.188,0,0,1,161,48.651s-.382.065-.47-.187A.325.325,0,0,1,160.626,48.1Z" transform="translate(-99.153 -29.119)" fill="#ee7677"/>
        <path id="Path_742" data-name="Path 742" d="M167.032,41.8c.268.673,1.3.887,2.313.478s1.613-1.281,1.342-1.953-1.307-.879-2.32-.474S166.756,41.136,167.032,41.8Z" transform="translate(-103.143 -24.489)" fill="url(#radial-gradient)"/>
        <path id="Path_743" data-name="Path 743" d="M160.428,16.5v-.023a2.011,2.011,0,0,0,.382-.153c1.453-.791,2.767,1.284,3.88,3.058,1.556,2.5,3.459,2.293,5.221,2.179a7.53,7.53,0,0,0-.141,3.089,2.745,2.745,0,0,0,1.659,1.988,3.648,3.648,0,0,0,.214.463,4.764,4.764,0,0,0,.455.68,5.451,5.451,0,0,0,1.147,1.032,5.573,5.573,0,0,1-1-1.147,4.148,4.148,0,0,1-.344-.657c-.027-.057-.042-.118-.065-.176a3.056,3.056,0,0,0,.344.325,3.44,3.44,0,0,0,.764.47,3.294,3.294,0,0,1-.631-.612,2.989,2.989,0,0,1-.287-.44,3.443,3.443,0,0,0,.359-.157A3.218,3.218,0,0,0,175.2,28.4a1.75,1.75,0,0,0,1.823-.986,1.992,1.992,0,0,0,.646-.382,2.8,2.8,0,0,0,.677-.921c.81-.21,1.751-.833,1.586-2.653a2.216,2.216,0,0,0-1.074-1.911,1.808,1.808,0,0,0-.157-.936,2.722,2.722,0,0,0-.589-.8,2.745,2.745,0,0,0-.661-1.12,2.515,2.515,0,0,0-1.884-.665c-1.055-3.972-5.516-7.729-12.748-4.824a6.4,6.4,0,0,0-1.548.864,7.327,7.327,0,0,1-2.152,1.04C158.494,15.135,158.715,17.054,160.428,16.5Zm18,4.874a6.382,6.382,0,0,0-.149-.994,2.233,2.233,0,0,1,.26.31,1.717,1.717,0,0,1,.268.826A1.529,1.529,0,0,0,178.424,21.373ZM177.1,27.225a2.852,2.852,0,0,0,.161-1.028,3.169,3.169,0,0,0,.413,0,2.4,2.4,0,0,1-.252.619A1.766,1.766,0,0,1,177.1,27.225Z" transform="translate(-98.099 -7.517)" fill="#8f4446"/>
        <path id="Path_744" data-name="Path 744" d="M200.91,25.88c0-.076.218-.138.482-.138h.141l-.1-.092c-.187-.191-.3-.382-.241-.44s.245.057.432.245l.1.1v-.138c0-.268.057-.482.134-.482s.138.214.138.482v.138l.092-.1c.187-.187.382-.3.436-.245s-.053.248-.241.44l-.1.092h.138c.268,0,.482.061.482.138s-.214.138-.482.138h-.138a1.177,1.177,0,0,1,.1.1c.187.187.294.382.241.436s-.248-.057-.436-.245l-.092-.1v.141c0,.264-.061.478-.138.478s-.134-.214-.134-.478V26.2l-.1.1c-.187.187-.382.3-.432.245s.054-.248.241-.436a1.168,1.168,0,0,1,.1-.1h-.141C201.128,26.018,200.91,25.957,200.91,25.88Z" transform="translate(-124.114 -15.403)" fill="#fbddde"/>
        <path id="Path_745" data-name="Path 745" d="M200.064,30.8c-.042-.061.088-.218.287-.359l.107-.069a.71.71,0,0,1-.126,0c-.241-.042-.424-.13-.413-.2s.218-.088.455-.05l.126.031-.08-.1c-.141-.2-.206-.382-.153-.432s.218.088.359.287a.875.875,0,0,1,.069.111.8.8,0,0,1,0-.13c.042-.237.13-.424.2-.409s.088.214.05.451a.2.2,0,0,1-.027.126.558.558,0,0,1,.1-.076c.195-.141.382-.21.428-.153s-.088.214-.287.355l-.107.069h.126c.237.042.424.13.413.2s-.214.092-.455.05l-.13-.027a1.045,1.045,0,0,1,.084.1c.138.2.2.382.149.432s-.214-.088-.355-.287a1.231,1.231,0,0,1-.069-.107v.126c-.042.241-.13.424-.2.413s-.092-.214-.05-.455a.194.194,0,0,1,.031-.126l-.1.08C200.3,30.786,200.106,30.855,200.064,30.8Z" transform="translate(-123.501 -18.206)" fill="#fbddde"/>
        <path id="Path_746" data-name="Path 746" d="M204.236,29.679c-.031-.042.065-.161.214-.268l.08-.05h-.092c-.183-.031-.321-.1-.31-.149s.157-.069.336-.038l.1.023-.061-.076c-.107-.149-.153-.294-.111-.325s.161.069.268.218l.054.08a.792.792,0,0,1,0-.1c.031-.18.1-.321.149-.31s.069.161.038.34a.551.551,0,0,1,0,.092.66.66,0,0,1,.076-.057c.145-.1.29-.157.321-.111s-.069.161-.218.264L205,29.27a.383.383,0,0,1,.092,0c.18.031.321.1.313.145s-.164.073-.344.038l-.1-.019a.6.6,0,0,1,.061.076c.107.149.157.294.111.321s-.157-.065-.264-.214a.49.49,0,0,1-.054-.08.429.429,0,0,1,0,.1c-.031.18-.1.317-.145.31s-.073-.161-.042-.344l.023-.092-.076.057C204.408,29.671,204.263,29.721,204.236,29.679Z" transform="translate(-126.102 -17.718)" fill="#fbddde"/>
        <path id="Path_747" data-name="Path 747" d="M197.97,28.226c-.038-.054.08-.2.271-.336a.554.554,0,0,1,.1-.065h-.118c-.226-.038-.382-.122-.382-.187s.2-.084.424-.046l.118.027c-.023-.031-.05-.061-.073-.1-.134-.187-.195-.382-.141-.405s.2.084.333.268l.069.1V27.37c.038-.226.122-.4.183-.382s.088.206.05.428a1.078,1.078,0,0,1-.027.118l.1-.073c.187-.134.382-.2.405-.141s-.084.2-.271.333l-.1.065h.118c.226.038.382.122.382.187s-.2.084-.428.046l-.118-.027c.023.031.05.061.073.1.134.183.2.382.141.405s-.2-.084-.333-.271a.736.736,0,0,1-.065-.1v.118c-.034.226-.118.382-.187.382s-.084-.2-.046-.428a1.071,1.071,0,0,1,.027-.118l-.1.073C198.188,28.215,198.008,28.276,197.97,28.226Z" transform="translate(-122.217 -16.667)" fill="#fbddde"/>
        <path id="Path_748" data-name="Path 748" d="M198.919,25.126c-.027-.038.061-.145.195-.241l.08-.05H199.1c-.164-.027-.29-.092-.283-.138s.149-.057.31-.031h.088l-.054-.065c-.1-.138-.141-.268-.1-.3s.149.061.245.2l.046.073a.382.382,0,0,1,0-.088c.027-.164.092-.291.138-.279s.061.145.031.31a.549.549,0,0,1,0,.084l.069-.054c.134-.1.268-.141.294-.1s-.061.149-.195.245l-.076.046h.088c.164.031.29.092.283.138s-.149.061-.31.034h-.088l.054.069c.1.138.141.268.1.294s-.149-.061-.245-.195L199.45,25a.768.768,0,0,1,0,.088c-.031.164-.092.291-.138.283s-.061-.145-.034-.313a.545.545,0,0,1,0-.084l-.069.054C199.079,25.119,198.946,25.168,198.919,25.126Z" transform="translate(-122.822 -14.951)" fill="#fbddde"/>
        <path id="Path_749" data-name="Path 749" d="M204.53,26.451c-.031-.042.069-.164.214-.268l.084-.054h-.1c-.184-.031-.321-.1-.313-.149s.164-.073.344-.038a.382.382,0,0,1,.1.023l-.061-.08c-.107-.149-.157-.294-.111-.325s.161.065.268.214l.05.084v-.1c.034-.18.1-.321.153-.313s.069.164.034.344a.7.7,0,0,1-.019.1l.076-.061c.153-.1.3-.157.329-.115s-.069.164-.218.271a.626.626,0,0,1-.084.054.417.417,0,0,1,.1,0c.18.031.321.1.31.149s-.161.069-.34.038l-.1-.019c0,.023.042.046.061.073.107.149.157.3.115.329s-.164-.069-.268-.218l-.054-.084a.885.885,0,0,1,0,.1c-.034.18-.1.321-.153.31s-.065-.164-.034-.344a.644.644,0,0,1,0-.092l-.076.057C204.706,26.443,204.557,26.493,204.53,26.451Z" transform="translate(-126.281 -15.718)" fill="#fbddde"/>
        <path id="Path_750" data-name="Path 750" d="M183.767,35.714a1.1,1.1,0,1,0,1.667,1.238,1.1,1.1,0,1,0-1.667-1.238Z" transform="translate(-113.297 -21.628)" fill="#f5a98d"/>
        <path id="Path_751" data-name="Path 751" d="M184.62,40.513a.463.463,0,1,0,.463-.463.463.463,0,0,0-.463.463Z" transform="translate(-114.05 -24.737)" fill="#fbddde"/>
        <path id="Path_752" data-name="Path 752" d="M170.6,92.8c-.642.929-1.77,1.571-2.676,1.147h0c-.917-.413-.986-1.529-.81-2.618a31.837,31.837,0,0,1,1.957-6.46,39,39,0,0,1,3.44-6.273c.673-.906,1.56-1.651,2.848-1.066a2.339,2.339,0,0,1,1.227,2.8,34.735,34.735,0,0,1-2.439,6.422A39.4,39.4,0,0,1,170.6,92.8Z" transform="translate(-103.189 -47.759)" fill="#f5a98d"/>
        <path id="Path_753" data-name="Path 753" d="M172.534,75.242a.382.382,0,1,1-.382-.382A.382.382,0,0,1,172.534,75.242Z" transform="translate(-106.112 -46.241)" fill="#fbddde"/>
        <path id="Path_754" data-name="Path 754" d="M174.584,74.982a.382.382,0,1,1-.382-.382A.382.382,0,0,1,174.584,74.982Z" transform="translate(-107.378 -46.081)" fill="#fbddde"/>
        <path id="Path_755" data-name="Path 755" d="M176.6,74.5a.392.392,0,1,1-.392-.392A.392.392,0,0,1,176.6,74.5Z" transform="translate(-108.614 -45.775)" fill="#fbddde"/>
        <path id="Path_756" data-name="Path 756" d="M178.564,73.952a.382.382,0,1,1-.382-.382A.382.382,0,0,1,178.564,73.952Z" transform="translate(-109.837 -45.444)" fill="#fbddde"/>
        <path id="Path_757" data-name="Path 757" d="M180.544,73.312a.382.382,0,1,1-.382-.382A.382.382,0,0,1,180.544,73.312Z" transform="translate(-111.06 -45.049)" fill="#fbddde"/>
        <path id="Path_758" data-name="Path 758" d="M182.431,72.521a.4.4,0,1,1-.4-.4A.4.4,0,0,1,182.431,72.521Z" transform="translate(-112.209 -44.552)" fill="#fbddde"/>
        <path id="Path_759" data-name="Path 759" d="M184.174,71.552a.382.382,0,1,1-.382-.382A.382.382,0,0,1,184.174,71.552Z" transform="translate(-113.303 -43.962)" fill="#fbddde"/>
        <path id="Path_760" data-name="Path 760" d="M185.844,70.572a.382.382,0,1,1-.382-.382A.382.382,0,0,1,185.844,70.572Z" transform="translate(-114.334 -43.356)" fill="#fbddde"/>
        <path id="Path_761" data-name="Path 761" d="M187.484,69.447a.392.392,0,1,1-.392-.392A.392.392,0,0,1,187.484,69.447Z" transform="translate(-115.335 -42.655)" fill="#fbddde"/>
        <path id="Path_762" data-name="Path 762" d="M188.974,68.132a.382.382,0,1,1-.382-.382A.382.382,0,0,1,188.974,68.132Z" transform="translate(-116.268 -41.849)" fill="#fbddde"/>
        <path id="Path_763" data-name="Path 763" d="M190.384,66.932A.382.382,0,1,1,190,66.55.382.382,0,0,1,190.384,66.932Z" transform="translate(-117.139 -41.108)" fill="#fbddde"/>
        <path id="Path_764" data-name="Path 764" d="M191.964,65.772a.382.382,0,1,1-.382-.382A.382.382,0,0,1,191.964,65.772Z" transform="translate(-118.115 -40.391)" fill="#fbddde"/>
        <path id="Path_765" data-name="Path 765" d="M193.424,64.382a.382.382,0,1,1-.382-.382A.382.382,0,0,1,193.424,64.382Z" transform="translate(-119.017 -39.533)" fill="#fbddde"/>
        <path id="Path_766" data-name="Path 766" d="M152.143,92.716c-4.006-5.26-12.5-13-12.5-13L138,80.92s6.88,11.142,10.867,14.606a2.606,2.606,0,0,0,3.081-.31A2.135,2.135,0,0,0,152.143,92.716Z" transform="translate(-85.25 -49.244)" fill="#f5a98d"/>
        <path id="Path_767" data-name="Path 767" d="M129.326,75.511c.99-.084,1.663-.581,1.563-1.739-.149-1.766-.826-9.285-.826-9.285l.715-.057s.673,7.515.822,9.281c.107,1.216,1.2,1.5,2.106,1.43l.635-.057.042.539-5.917.493-.046-.535Z" transform="translate(-79.332 -39.798)" fill="#acdef9"/>
        <path id="Path_768" data-name="Path 768" d="M129.9,38l.638,7.507c.122,1.426-.26,3.222-2.293,3.4-1.8.153-2.733-1.529-2.852-2.962l-.638-7.507Z" transform="translate(-77.071 -23.471)" fill="#acdef9"/>
        <path id="Path_769" data-name="Path 769" d="M130.926,46.55l.382,4.48c.092,1.112-.214,2.389-1.819,2.527a2.142,2.142,0,0,1-2.217-2.186l-.382-4.48Z" transform="translate(-78.387 -28.753)" fill="#fdcf80"/>
        <path id="Path_770" data-name="Path 770" d="M135.241,73.551c-.91-.887-2.488-3.627-3.008-3.352-.344.18.214.959.566,1.464-.352-.241-.612-.252-.654-.764,0,0-.765-.153-.765,1.124,0,1.827.512,1.862.512,1.862a7.419,7.419,0,0,0,3.165,1.46l.814-1.208A3.257,3.257,0,0,1,135.241,73.551Z" transform="translate(-81.161 -43.35)" fill="#f5a98d"/>
        <path id="Path_771" data-name="Path 771" d="M163.45,34.64a1.2,1.2,0,0,1,1.529-.81,1.368,1.368,0,0,1,.975,1.372,4.545,4.545,0,0,0-1.2-.585A2.584,2.584,0,0,0,163.45,34.64Z" transform="translate(-100.972 -20.875)" fill="#e88175"/>
        <path id="Path_772" data-name="Path 772" d="M166.328,35.754a1.189,1.189,0,0,1-.917-.237,1.636,1.636,0,0,0-2.221-.061l.363-.034a.459.459,0,0,0-.126.245.482.482,0,0,0,.952.134.466.466,0,0,0-.134-.382,2.336,2.336,0,0,1,.329.034,3.058,3.058,0,0,1,1.219.627,1.147,1.147,0,0,0-.134-.264A1.036,1.036,0,0,0,166.328,35.754Z" transform="translate(-100.812 -21.649)" fill="#8f4446"/>
        <path id="Path_773" data-name="Path 773" d="M96.823,74.091l-3.589,3.154L91.04,73.063l4.411-2.083Z" transform="translate(-56.241 -43.844)" fill="#f5a58f"/>
        <path id="Path_774" data-name="Path 774" d="M94.562,77.967l2.125-1.552L94.765,72.26,92.67,73.353Z" transform="translate(-57.248 -44.635)" fill="#fbddde"/>
        <path id="Path_775" data-name="Path 775" d="M18.044,65.053a21.245,21.245,0,0,0,2.022,5.191c3.677,7.5,10.538,13,10.538,13l3.524-5.485a46.369,46.369,0,0,0-6.953-11.02,38.863,38.863,0,0,0-5.2-4.468C20.12,60.982,17.478,61.842,18.044,65.053Z" transform="translate(-11.099 -38.109)" fill="#201811"/>
        <path id="Path_776" data-name="Path 776" d="M50.048,84.781s11.743-8.325,16.219-10.4l1.911,4.851a67.172,67.172,0,0,1-12.79,10.676c-1.185.765-3.543,2.1-5.393,1.147C48.591,90.327,50.048,84.781,50.048,84.781Z" transform="translate(-30.508 -45.945)" fill="#201811"/>
        <path id="Path_777" data-name="Path 777" d="M101.74,68.849a3.935,3.935,0,0,1,1.212-1.3,5.848,5.848,0,0,1,2.894-.436l.126,2.263s-.057,1.884-.585,2.068a13.585,13.585,0,0,1-2.24.264Z" transform="translate(-62.851 -41.434)" fill="#f5a58f"/>
        <path id="Path_778" data-name="Path 778" d="M105.606,72.59c-.99-.1-1.659-.6-1.529-1.758.168-1.762.929-9.273.929-9.273l-.719-.069s-.764,7.511-.925,9.273c-.118,1.216-1.212,1.491-2.118,1.407l-.635-.061-.05.535,5.9.566.05-.535Z" transform="translate(-62.122 -37.982)" fill="#acdef9"/>
        <path id="Path_779" data-name="Path 779" d="M105.79,35.06l-.722,7.5c-.138,1.422.222,3.226,2.293,3.44,1.793.172,2.748-1.5,2.886-2.928l.719-7.5Z" transform="translate(-64.89 -21.655)" fill="#acdef9"/>
        <path id="Path_780" data-name="Path 780" d="M106.89,43.58l-.432,4.476c-.107,1.112.187,2.393,1.789,2.55a2.138,2.138,0,0,0,2.24-2.164l.428-4.476Z" transform="translate(-65.753 -26.918)" fill="#fdcf80"/>
        <path id="Path_781" data-name="Path 781" d="M108.126,67.1a1.529,1.529,0,0,1-.822.849c-.573.18-1.384.088-1.678.478s-.348,3.822,2.259,2.981c1.6-.5,1.013-3.008.925-3.44a1.147,1.147,0,0,0-.684-.868Z" transform="translate(-65.166 -41.448)" fill="#f6b09c"/>
        <path id="Path_782" data-name="Path 782" d="M29.5,13.722a4.224,4.224,0,0,1-.764-1.028c-.168-.3-.348-.657-.592-1.109a2.229,2.229,0,0,1,0-.424,9.316,9.316,0,0,0-.076-3.884,4.124,4.124,0,0,0-1.288-3.608c-4.587-3.662-10.451-1.2-10.921-1,0,0-4.147,1.307-4.147,5.351,0,3.6,1.078,6.567,2.745,7.825a13.172,13.172,0,0,1-.015,2.389c-.069,1.3-.967,6.957-.967,6.957h8.643c-.44-1.044.894-4.969,1.586-5.351a7.6,7.6,0,0,1,2.1-.061c1.166.256,2.232-.271,2.141-1.109a2.607,2.607,0,0,1,0-.7c.115-.271.3-.321.405-.524.046-.092,0-.149-.1-.187a6.043,6.043,0,0,0,.245-1.219c.248-.046.248-.222.195-.325a2.34,2.34,0,0,1-.088-.535c0-.344,0-.845.489-.845C30,14.345,29.695,13.913,29.5,13.722Z" transform="translate(-7.234 -1.031)" fill="#f7b49e"/>
        <path id="Path_783" data-name="Path 783" d="M15.176,1.439c.065-.539-.558-.581-.558-.581.52-.172,1.227.382,1.227.382-.13-.554.642-1.246.642-1.246a.764.764,0,0,0,0,1.009A8.48,8.48,0,0,1,26.5,2.463a11.964,11.964,0,0,1,1.223,2.171c.069.168.138.34.191.5a2.19,2.19,0,0,0,1.059-.722S28.9,6.958,27.118,6.989c-1.036.092-2.355-.7-3.532-1.189-2.232-.929-3.49.046-3.822,1.869-.245,1.288-.26,1.621-.554,3.3-.111.635-.145.807-.291,1.72-.042.26-.4.176-.7.176-.382,0-.348-.459-.382-.589a2.423,2.423,0,0,0-1.365-2.011.757.757,0,0,0-1.074.218c-.535.65.088,1.445.807,2.6.527.856-1.292,2.014-2.236,2.014-.684,0-3.089-4.465-3.089-8.1C10.88,2.792,15.176,1.439,15.176,1.439Z" transform="translate(-6.721 0.01)" fill="#6e262e"/>
        <path id="Path_784" data-name="Path 784" d="M24.372,27.3c.455.864.359,1.758-.214,2s-1.4-.256-1.85-1.12-.359-1.758.21-2S23.925,26.457,24.372,27.3Z" transform="translate(-13.604 -16.133)" fill="#f7b49e"/>
        <path id="Path_785" data-name="Path 785" d="M46.821,23.169a1.758,1.758,0,0,0-.493-.107,1.957,1.957,0,0,0-.493-.034l-.592.073a4.251,4.251,0,0,0-1.093.317l-.5.18h0a.084.084,0,0,1-.069-.153l.482-.256a4.51,4.51,0,0,1,1.086-.508l.65-.161a2.522,2.522,0,0,1,.592-.031,2.091,2.091,0,0,1,.57.031h.054a.336.336,0,0,1-.164.65Z" transform="translate(-26.895 -13.884)" fill="#8f4446"/>
        <path id="Path_786" data-name="Path 786" d="M48.654,38.19s-.206-.073-.157.134A4.8,4.8,0,0,0,50.978,39.8s.034-.092.034-.1a4.721,4.721,0,0,0,.206-1.1A4.337,4.337,0,0,1,48.654,38.19Z" transform="translate(-29.955 -23.581)" fill="#fbddde"/>
        <path id="Path_787" data-name="Path 787" d="M1,292.963l6.727-.023c.237.451,1.147,2.2,2.767,2.2h2.913c2.194,0,2.435,1.819,2.515,3.157l-9.338.019-.615-.55-.463.55H1.019Z" transform="translate(-0.618 -180.962)" fill="#17110a"/>
        <path id="Path_788" data-name="Path 788" d="M15.42,151.5l-3.188,25.385-2.06,29.7L0,205.694l3.027-29.138.1-10.615a62.3,62.3,0,0,1,.2-6.28c-2.076-2.9-1.147-8.409-.879-9.59Z" transform="translate(0 -92.703)" fill="#251d1a"/>
        <path id="Path_789" data-name="Path 789" d="M20.2,293h6.735c.229.447,1.147,2.206,2.756,2.206H32.6c2.194,0,2.435,1.827,2.508,3.165H25.765l-.631-.543-.447.543H20.2Z" transform="translate(-12.479 -180.999)" fill="#251d1a"/>
        <path id="Path_790" data-name="Path 790" d="M20.247,154.55l-.894,25.58.539,29.456H10.033l.134-28.917-1.4-11.444c-.34-2.343-1.028-4.969-1.028-4.969-2.339-2.676-1.942-8.49-1.793-9.7Z" transform="translate(-3.596 -95.47)" fill="#2c2620"/>
        <path id="Path_791" data-name="Path 791" d="M18.27,43.24l8.9,4.3-1.055,2.083L18.27,45.5Z" transform="translate(-11.286 -26.708)" fill="#fbddde"/>
        <path id="Path_792" data-name="Path 792" d="M4.24,74.3V57.9C4.24,53.446,7.7,49.18,7.7,49.18l7.9,4.1s2.71,3.929,2.71,7.63V92.58c-1.529.161-13.986,1.4-17.128-.8C1.2,91.785,4.24,79.477,4.24,74.3Z" transform="translate(-0.735 -30.377)" fill="#2b221c"/>
        <path id="Path_793" data-name="Path 793" d="M16.07,48.191l.764-2.511L24.8,51.119a14.72,14.72,0,0,1,2.748,9.556v7.679L23.573,55.607l1.261-1.246-1.8.264Z" transform="translate(-9.927 -28.215)" fill="#362c28"/>
        <path id="Path_794" data-name="Path 794" d="M16.6,70.962c-.925,1.024-1.326,2.951-1.846,5.351A46.057,46.057,0,0,0,13.61,90.277l6.211.382s.959-4.74,1.712-11.521a31.919,31.919,0,0,0,0-6.842C21.075,70.094,18.778,68.542,16.6,70.962Z" transform="translate(-8.331 -43.077)" fill="#362c28"/>
        <path id="Path_795" data-name="Path 795" d="M25.87,172.9s-.027,4.946,2.228,6.747a1.076,1.076,0,0,0,1.659-.363,7.4,7.4,0,0,0,.118-2.538c0-.306.459-.107.573.2s.252.55.428.55c.382,0,.409-.742.382-1.269a10.683,10.683,0,0,0-2.11-4.308Z" transform="translate(-15.981 -106.201)" fill="#f7b49e"/>
        <rect id="Rectangle_9" data-name="Rectangle 9" width="4.889" height="2.225" transform="translate(8.872 65.36) rotate(-14.82)" fill="#fbddde"/>
        <path id="Path_796" data-name="Path 796" d="M19.6,118.466c.5,1.873,2.381,13.145,2.863,18.034l-5.256,1.529c-2.408-12.595-2.641-12.805-3.627-18-.26-1.388.241-3.566,2.328-3.96C16.923,115.893,19.255,117.181,19.6,118.466Z" transform="translate(-8.349 -71.69)" fill="#362c28"/>
        <path id="Path_797" data-name="Path 797" d="M49.044,26.15l.333-.034a1.277,1.277,0,0,0-1.265-.126,1.4,1.4,0,0,0-.531.417,1.33,1.33,0,0,0-.26.592,3.593,3.593,0,0,1,.933-.661.145.145,0,0,0,.038,0,.451.451,0,0,0-.042.191.488.488,0,0,0,.975-.015A.455.455,0,0,0,49.044,26.15Z" transform="translate(-29.232 -15.982)" fill="#8f4446"/>
      </g>
    </g>
    <g id="car" transform="translate(378.554 713.124)">
      <g id="Capa_1-2" data-name="Capa 1" transform="translate(-0.014 -0.003)">
        <path id="Path_6111" data-name="Path 6111" d="M49.33,282.459s2.95,4.6,9.03-.783,9.08-6.72,14.587-5.9c4.687.695,14.152-1.389,15.453-4.862" transform="translate(-28.682 -157.547)" fill="rgba(0,0,0,0)"/>
        <rect id="Rectangle_42" data-name="Rectangle 42" width="6.289" height="11.365" transform="translate(11.045 126.595) rotate(-70.88)" fill="#e58783"/>
        <path id="Path_6112" data-name="Path 6112" d="M27.5,294.651l-1.117-.385,2.059-5.946,1.121.389Z" transform="translate(-15.336 -167.671)" fill="#cb7a6d"/>
        <path id="Path_6113" data-name="Path 6113" d="M50.481,302.631l-1.121-.393,2.059-5.938,1.121.385Z" transform="translate(-28.7 -172.312)" fill="#cb7a6d"/>
        <line id="Line_1" data-name="Line 1" x1="2.05" y2="5.904" transform="translate(13.074 121.373)" fill="none"/>
        <line id="Line_2" data-name="Line 2" x1="2.046" y2="5.9" transform="translate(14.413 121.837)" fill="none"/>
        <line id="Line_3" data-name="Line 3" x1="2.042" y2="5.9" transform="translate(15.752 122.301)" fill="none"/>
        <line id="Line_4" data-name="Line 4" x1="2.05" y2="5.904" transform="translate(17.087 122.766)" fill="none"/>
        <line id="Line_5" data-name="Line 5" x1="2.046" y2="5.904" transform="translate(18.422 123.226)" fill="none"/>
        <line id="Line_6" data-name="Line 6" x1="2.046" y2="5.904" transform="translate(19.761 123.691)" fill="none"/>
        <path id="Path_6114" data-name="Path 6114" d="M97.162,270.29s-.418,5.469-5.381,6.511-8.787.347-11.549,4.6c-1.142,1.737-5.628,5.645-8.072,3.214" transform="translate(-41.959 -157.186)" fill="rgba(0,0,0,0)"/>
        <path id="Path_6115" data-name="Path 6115" d="M63.59,302.683,52.635,305.7l-1.665-6.068,10.959-3.009Z" transform="translate(-29.636 -172.498)" fill="#f4a6a0"/>
        <rect id="Rectangle_43" data-name="Rectangle 43" width="1.188" height="6.289" transform="translate(21.332 127.133) rotate(-15.43)" fill="#cb7a6d"/>
        <path id="Path_6116" data-name="Path 6116" d="M77.228,302.683,76.09,303l-1.67-6.063,1.147-.314Z" transform="translate(-43.273 -172.498)" fill="#cb7a6d"/>
        <line id="Line_7" data-name="Line 7" x2="1.657" y2="6.026" transform="translate(23.405 126.582)" fill="none"/>
        <line id="Line_8" data-name="Line 8" x2="1.653" y2="6.021" transform="translate(24.774 126.21)" fill="none"/>
        <line id="Line_9" data-name="Line 9" x2="1.657" y2="6.026" transform="translate(26.134 125.833)" fill="none"/>
        <line id="Line_10" data-name="Line 10" x2="1.653" y2="6.026" transform="translate(27.502 125.457)" fill="none"/>
        <line id="Line_11" data-name="Line 11" x2="1.657" y2="6.026" transform="translate(28.862 125.084)" fill="none"/>
        <line id="Line_12" data-name="Line 12" x2="1.661" y2="6.026" transform="translate(30.226 124.708)" fill="none"/>
        <path id="Path_6117" data-name="Path 6117" d="M22.15,278.432s2.779-2.607,8.076-.264,13.34.912,16.32.523c5.988-.783,12.947,4.377,19.282,1.6s6.134-6.9,6.134-6.9" transform="translate(-12.876 -158.989)" fill="rgba(0,0,0,0)"/>
        <rect id="Rectangle_44" data-name="Rectangle 44" width="11.365" height="6.289" transform="translate(0 125.464) rotate(-44.88)" fill="#f4a6a0"/>
        <path id="Path_6118" data-name="Path 6118" d="M5.277,302.266l-.841.837L0,298.647l.837-.837Z" transform="translate(0.006 -173.19)" fill="#cb7a6d"/>
        <rect id="Rectangle_45" data-name="Rectangle 45" width="1.184" height="6.289" transform="matrix(0.708, -0.706, 0.706, 0.708, 7.215, 118.274)" fill="#cb7a6d"/>
        <line id="Line_13" data-name="Line 13" x2="4.41" y2="4.427" transform="translate(1.537 123.959)" fill="none"/>
        <line id="Line_14" data-name="Line 14" x2="4.406" y2="4.427" transform="translate(2.542 122.958)" fill="none"/>
        <line id="Line_15" data-name="Line 15" x2="4.406" y2="4.427" transform="translate(3.546 121.963)" fill="none"/>
        <line id="Line_16" data-name="Line 16" x2="4.406" y2="4.427" transform="translate(4.546 120.962)" fill="none"/>
        <line id="Line_17" data-name="Line 17" x2="4.406" y2="4.427" transform="translate(5.55 119.962)" fill="none"/>
        <line id="Line_18" data-name="Line 18" x2="4.406" y2="4.427" transform="translate(6.554 118.966)" fill="none"/>
        <rect id="Rectangle_46" data-name="Rectangle 46" width="77.141" height="11.792" transform="translate(84.072 78.398)" fill="#575756"/>
        <rect id="Rectangle_47" data-name="Rectangle 47" width="77.141" height="2.08" transform="translate(84.072 78.398)" fill="#7c7c7b"/>
        <line id="Line_19" data-name="Line 19" x2="71.362" transform="translate(84.533 82.482)" fill="none"/>
        <rect id="Rectangle_48" data-name="Rectangle 48" width="13.298" height="1.502" transform="translate(105.145 84.31)" fill="#3c3c3b"/>
        <path id="Path_6119" data-name="Path 6119" d="M219.795,189.472l7.645.5-3.582-12.219c-1.05-3.645-4.226-6.314-6.172-5.888a2.511,2.511,0,0,0-1.791,3.151Z" transform="translate(-125.487 -99.922)" fill="#3c322d"/>
        <rect id="Rectangle_49" data-name="Rectangle 49" width="131.653" height="17.571" transform="translate(76.327 94.813)" fill="#eed596"/>
        <path id="Path_6120" data-name="Path 6120" d="M248.329,178.017a1.627,1.627,0,0,0,.862-1.808h0c-.259-.636-1.008-.716-1.774-.623a21.86,21.86,0,0,0-4.473,1.176,26.808,26.808,0,0,0-4.385,2.193,1.516,1.516,0,0,0-.8,1.925,1.6,1.6,0,0,0,1.887.908,24.323,24.323,0,0,0,4.461-1.5A27.813,27.813,0,0,0,248.329,178.017Z" transform="translate(-138.192 -102.092)" fill="#e8937c"/>
        <path id="Path_6121" data-name="Path 6121" d="M261.357,165.135a49.242,49.242,0,0,0,6.277-10.361l-.875-.674a85.972,85.972,0,0,0-7.407,9.511,1.42,1.42,0,0,0,.314,1.674C260.373,165.833,261.357,165.135,261.357,165.135Z" transform="translate(-150.734 -89.616)" fill="#e8937c"/>
        <path id="Path_6122" data-name="Path 6122" d="M277.31,148.5a6.32,6.32,0,0,1,3.13-3.883c.218-.13.724-.3.862.1.071.192.033.418-.209.912a8.123,8.123,0,0,1-.9,1.339c.4-.243,1.013-.628,1.134-.356.18.418-1.967,1.465-2.678,2.092a2.777,2.777,0,0,0-.464.456Z" transform="translate(-161.264 -84.012)" fill="#e8937c"/>
        <path id="Path_6123" data-name="Path 6123" d="M56.018,76.4a7.093,7.093,0,0,1,8.495-11.3,7.093,7.093,0,1,1,12.361-6.122h0l1.674,17.993a1.984,1.984,0,0,1,1.439,1.255l-.942.736a8.327,8.327,0,0,0-.749-1.439l-17.763.686A7.042,7.042,0,0,1,56.018,76.4Z" transform="translate(-31.194 -31.089)" fill="#ec665e"/>
        <path id="Path_6124" data-name="Path 6124" d="M115,112.16s8.009,7.5,12.767,8.411,18.244-.1,24.53,1.013,14.085,3.766,18.445,2.331,13.39,2.025,16.014,4.256,10.235,14.5,17.633,13.989" transform="translate(-66.873 -65.226)" fill="rgba(0,0,0,0)"/>
        <path id="Path_6125" data-name="Path 6125" d="M49.82,119.6a7.089,7.089,0,0,1,8.679-3.117,7.093,7.093,0,1,1,11.064-8.026l5.122,17.023a8.435,8.435,0,0,0,1.607.243l-.389,1.13a1.984,1.984,0,0,1-1.636-.962L56.72,130.164h0a7.089,7.089,0,0,1-6.9-10.562Z" transform="translate(-28.423 -60.387)" fill="#f29797"/>
        <path id="Path_6126" data-name="Path 6126" d="M185,90.84s6.482,8.11,14.491,10.746,24.45,11.3,26.781,13.629,5.549,5.118,16.294,1.875" transform="translate(-107.581 -52.827)" fill="rgba(0,0,0,0)"/>
        <path id="Path_6127" data-name="Path 6127" d="M142.209,43.023A7.089,7.089,0,1,1,152.976,34.4a7.114,7.114,0,1,1,13.545,1.9L158.4,52.116a8.055,8.055,0,0,0,.988,1.289l-1.067.544a1.981,1.981,0,0,1-.51-1.829Z" transform="translate(-81.11 -15.291)" fill="#ec665e"/>
        <path id="Path_6128" data-name="Path 6128" d="M145,63.48a13.135,13.135,0,0,0,6.277,9.206c5.674,3.348,21.99,8.105,26.145,13.173s9.122,5.674,13.077,6.486,11.859,5.574,13.683,7.7,7.193,7.8,12.972,8.21" transform="translate(-84.319 -36.916)" fill="rgba(0,0,0,0)"/>
        <path id="Path_6129" data-name="Path 6129" d="M99.473,13.054a7.089,7.089,0,0,1,13.21-5.021A7.093,7.093,0,1,1,126.4,9.443h0l-8.177,16.081a1.962,1.962,0,0,1,.561,1.812l-1.188.121a8.319,8.319,0,0,0,.134-1.615l-15.4-8.892a7.068,7.068,0,0,1-2.862-3.9Z" transform="translate(-57.677 0.003)" fill="#fbddde"/>
        <path id="Path_6130" data-name="Path 6130" d="M93.922,61.638a7.114,7.114,0,0,1,7.8-4.913,7.093,7.093,0,1,1,8.787-10.641h0l8.859,15.734a1.985,1.985,0,0,1,1.816.54l-.557,1.054a8.259,8.259,0,0,0-1.255-1.008l-15.939,7.884a7.089,7.089,0,0,1-9.507-8.649Z" transform="translate(-54.427 -25.161)" fill="#f8c3c5"/>
        <path id="Path_6131" data-name="Path 6131" d="M157.91,89.15s9.047,1.975,11.859,4.486,11.018,11.018,16.265,11.248,12.39,1.824,15.583,4.185,8.662,5.624,9.88,5.929,5.168,3.875,5.779,9.047" transform="translate(-91.827 -51.844)" fill="rgba(0,0,0,0)"/>
        <path id="Path_6132" data-name="Path 6132" d="M225.18,102s2.511,6.787,8.817,10.043,14.315,7.373,16.546,10.516,14.876,6.612,21.759,5.293" transform="translate(-130.948 -59.317)" fill="rgba(0,0,0,0)"/>
        <path id="Path_6133" data-name="Path 6133" d="M168.935,61.261a7.089,7.089,0,0,1,10.08-9.913,7.093,7.093,0,1,1,13.139-4.218h0l-1.034,18.027a2.045,2.045,0,0,1,1.255,1.435l-1.038.586a8.466,8.466,0,0,0-.527-1.536l-17.671-1.967A7.022,7.022,0,0,1,168.935,61.261Z" transform="translate(-97.262 -23.599)" fill="#f8c3c5"/>
        <path id="Path_6134" data-name="Path 6134" d="M96.927,129.985A7.114,7.114,0,0,1,101,121.713a7.089,7.089,0,0,1-2.419-13.926,7,7,0,0,1,4.335.264h0l15.8,8.75a1.982,1.982,0,0,1,1.829-.494l.08,1.188a8.607,8.607,0,0,0-1.611-.188l-9.436,15.064a7.114,7.114,0,0,1-12.625-2.385Z" transform="translate(-54.218 -62.551)" fill="#fbddde"/>
        <path id="Path_6135" data-name="Path 6135" d="M157.12,128.191s5.674-2.331,15.9.1a84.48,84.48,0,0,0,20.671,2.636c5.98.2,13.173,2.331,17.65,5.879s16.922,15.1,19.964,12.553" transform="translate(-91.367 -73.963)" fill="rgba(0,0,0,0)"/>
        <path id="Path_6136" data-name="Path 6136" d="M179.89,131.05s2.837,4.055,7.114,4.155,31.225.988,36.8,4.536,7.386,1.138,11.846-.08" transform="translate(-104.609 -76.211)" fill="rgba(0,0,0,0)"/>
        <path id="Path_6137" data-name="Path 6137" d="M121.065,94.515a7.093,7.093,0,0,1,8.746-11.11,7.089,7.089,0,1,1,12.5-5.842h0l1.255,18.014a1.972,1.972,0,0,1,1.41,1.255l-.954.711a8.6,8.6,0,0,0-.716-1.456l-17.78.285A7.034,7.034,0,0,1,121.065,94.515Z" transform="translate(-69.08 -41.827)" fill="#f29797"/>
        <path id="Path_6138" data-name="Path 6138" d="M244.033,173.416h0a18.9,18.9,0,0,0-2.339-2.431,4.369,4.369,0,0,1-1.674-2.875v-.741a7.8,7.8,0,0,1,.615-2.636l-4.285-.623a4.344,4.344,0,0,1,.293,1.829,9.113,9.113,0,0,1-1.05,3.737,12.215,12.215,0,0,0-1.293,4.013v.13h9.737v-.393Z" transform="translate(-136.251 -95.437)" fill="#f5a98d"/>
        <path id="Path_6139" data-name="Path 6139" d="M251.353,180.091a.268.268,0,0,0,.318.209.264.264,0,0,0,.209-.314.268.268,0,0,0-.314-.213A.272.272,0,0,0,251.353,180.091Z" transform="translate(-146.166 -104.543)" fill="#fbddde"/>
        <path id="Path_6140" data-name="Path 6140" d="M250.062,180.19a.264.264,0,0,0,.318.209.269.269,0,1,0-.318-.209Z" transform="translate(-145.415 -104.6)" fill="#fbddde"/>
        <path id="Path_6141" data-name="Path 6141" d="M248.742,180.161a.268.268,0,1,0,.038-.2A.268.268,0,0,0,248.742,180.161Z" transform="translate(-144.647 -104.583)" fill="#fbddde"/>
        <path id="Path_6142" data-name="Path 6142" d="M247.493,180.055a.272.272,0,0,0,.318.209.268.268,0,0,0,.209-.318.272.272,0,0,0-.318-.213A.276.276,0,0,0,247.493,180.055Z" transform="translate(-143.921 -104.52)" fill="#fbddde"/>
        <path id="Path_6143" data-name="Path 6143" d="M246.2,179.91a.272.272,0,0,0,.318.213.268.268,0,1,0-.318-.213Z" transform="translate(-143.171 -104.441)" fill="#fbddde"/>
        <path id="Path_6144" data-name="Path 6144" d="M244.923,179.674a.268.268,0,1,0,.209-.315A.268.268,0,0,0,244.923,179.674Z" transform="translate(-142.426 -104.302)" fill="#fbddde"/>
        <path id="Path_6145" data-name="Path 6145" d="M243.752,179.28a.272.272,0,0,0,.322.209.27.27,0,1,0-.322-.209Z" transform="translate(-141.745 -104.071)" fill="#fbddde"/>
        <path id="Path_6146" data-name="Path 6146" d="M242.611,178.879a.264.264,0,0,0,.314.209.268.268,0,1,0-.1-.523.259.259,0,0,0-.209.314Z" transform="translate(-141.081 -103.837)" fill="#fbddde"/>
        <path id="Path_6147" data-name="Path 6147" d="M241.442,178.41a.268.268,0,1,0,.038-.2A.269.269,0,0,0,241.442,178.41Z" transform="translate(-140.401 -103.565)" fill="#fbddde"/>
        <path id="Path_6148" data-name="Path 6148" d="M240.391,177.771a.268.268,0,0,0,.314.213.28.28,0,0,0,.213-.318.272.272,0,0,0-.318-.213.264.264,0,0,0-.209.318Z" transform="translate(-139.79 -103.194)" fill="#fbddde"/>
        <path id="Path_6149" data-name="Path 6149" d="M239.372,177.216a.269.269,0,1,0,.209-.314.264.264,0,0,0-.209.314Z" transform="translate(-139.198 -102.873)" fill="#fbddde"/>
        <path id="Path_6150" data-name="Path 6150" d="M238.261,176.7a.264.264,0,0,0,.314.209.269.269,0,1,0-.1-.527.264.264,0,0,0-.209.318Z" transform="translate(-138.551 -102.571)" fill="#fbddde"/>
        <path id="Path_6151" data-name="Path 6151" d="M237.192,176.021a.268.268,0,1,0,.038-.2.268.268,0,0,0-.038.2Z" transform="translate(-137.93 -102.176)" fill="#fbddde"/>
        <path id="Path_6152" data-name="Path 6152" d="M237.4,146.29a2.025,2.025,0,0,0,1.59.962c.213,0,.326.2.213.314a.866.866,0,0,0-.042.925c.117.285-.033.418.113.59.059.075.05.326.117.36s.276.159.18.305c0,0-.117.259.3.783s-.071,1.163-.837,1.435c-.473.172-2.586.866-3.092,1.038a26.646,26.646,0,0,1-3.159.954,7.216,7.216,0,0,1-1.439-.138c-2.235-.092-5.662-3.586-3.44-8.017.577-1.142,3.256-2.557,5.268-2.85a2.887,2.887,0,0,1,2.561.783,7.018,7.018,0,0,1,1.532,2.306Z" transform="translate(-132.11 -83.103)" fill="#f5a98d"/>
        <path id="Path_6153" data-name="Path 6153" d="M247.323,149.858a2.092,2.092,0,0,0-1.017.326,2.193,2.193,0,0,0-.741.837.063.063,0,0,1-.084.042.071.071,0,0,1-.038-.088l.146-.356a2.239,2.239,0,0,1,.523-.682,2.511,2.511,0,0,1,1.147-.573h0a.255.255,0,1,1,.092.5Z" transform="translate(-142.73 -86.859)" fill="#b25a5a"/>
        <path id="Path_6154" data-name="Path 6154" d="M254.815,157.39a1.673,1.673,0,0,1,.234.586l-1.13.084Z" transform="translate(-147.661 -91.529)" fill="#fbddde"/>
        <path id="Path_6155" data-name="Path 6155" d="M254.169,156.242c-.092.038-.151.1-.293.3a4.66,4.66,0,0,1-.879.816c-.067.046-.038.142.033.13a2.159,2.159,0,0,0,1.389-.862s.146-.234,0-.347A.239.239,0,0,0,254.169,156.242Z" transform="translate(-147.103 -90.85)" fill="#ee7677"/>
        <path id="Path_6156" data-name="Path 6156" d="M254.652,158.347c-.1-.025-.184,0-.418.075a4.213,4.213,0,0,1-1.184.167c-.084,0-.117.1-.054.126a2.18,2.18,0,0,0,1.636.092s.255-.109.205-.285A.23.23,0,0,0,254.652,158.347Z" transform="translate(-147.104 -92.08)" fill="#ee7677"/>
        <path id="Path_6157" data-name="Path 6157" d="M248.966,152.485a.855.855,0,0,0-1.2-.088.837.837,0,0,0-.243,1.172,3.264,3.264,0,0,1,.6-.716A1.833,1.833,0,0,1,248.966,152.485Z" transform="translate(-143.858 -88.511)" fill="#e88175"/>
        <path id="Path_6158" data-name="Path 6158" d="M248.5,157.2c.084.49-.439.988-1.176,1.117s-1.4-.163-1.486-.649.439-.988,1.176-1.117S248.411,156.72,248.5,157.2Z" transform="translate(-142.956 -91.022)" fill="url(#radial-gradient-2)"/>
        <path id="Path_6159" data-name="Path 6159" d="M234.718,142.115a5.07,5.07,0,0,1-1.628.172,4.4,4.4,0,0,0-1.209.059c-5.264.929-6.49,4.728-5.674,7.415a1.737,1.737,0,0,0-.837,1.067,1.912,1.912,0,0,0,.021.9,1.674,1.674,0,0,0-.05.678,1.2,1.2,0,0,0,.247.6,1.544,1.544,0,0,0,.071,1.506c.565,1.117,1.335,1.142,1.883.967a1.917,1.917,0,0,0,.724.293,1.415,1.415,0,0,0,.515,0,1.2,1.2,0,0,0,1.419-.088,2.209,2.209,0,0,0,.916-2.176,2.176,2.176,0,0,0,.268-.038,1.734,1.734,0,0,1,0,.36,2.348,2.348,0,0,1-.142.573,2.511,2.511,0,0,0,.268-.544,2.711,2.711,0,0,0,.08-.318.611.611,0,0,0,.029.126,2.962,2.962,0,0,1,.038.511,3.765,3.765,0,0,1-.167,1.025,3.515,3.515,0,0,0,.322-1.552,3.292,3.292,0,0,0-.046-.347,1.871,1.871,0,0,0,.243-1.757,5.114,5.114,0,0,0-1.2-1.745c1.059-.582,2.247-1.138,2.243-3.155,0-1.448,0-3.13,1.147-3.2a1.2,1.2,0,0,0,.268-.042h0C235.651,143.1,235.09,141.9,234.718,142.115Zm-9.11,10.85a1.121,1.121,0,0,1-.142-.573,1.514,1.514,0,0,1,.038-.276,4.346,4.346,0,0,0,.272.628,1.1,1.1,0,0,0-.167.222Zm2.724,2.59a1.674,1.674,0,0,1-.368-.268,1.924,1.924,0,0,0,.234-.155,1.975,1.975,0,0,0,.464.54,1.356,1.356,0,0,1-.347-.117Z" transform="translate(-131.033 -82.631)" fill="#8f4446"/>
        <path id="Path_6160" data-name="Path 6160" d="M226.764,159.413c-.025-.042-.167,0-.322.1l-.08.054.025-.092c.042-.176.033-.331,0-.343s-.126.121-.167.3a.865.865,0,0,0,0,.092l-.042-.084c-.1-.155-.213-.255-.255-.23s0,.176.092.331l.054.079a.331.331,0,0,0-.092-.025c-.18-.042-.326-.038-.339,0s.117.121.3.163h.1l-.084.046c-.155.1-.259.209-.23.255s.172,0,.326-.1l.08-.054a.375.375,0,0,0-.025.092c-.046.176-.033.331,0,.343s.126-.126.167-.3a.713.713,0,0,0,0-.092l.05.084c.1.155.205.255.251.23s0-.176-.092-.331a.517.517,0,0,0-.059-.075l.092.025c.18.038.331.029.343,0s-.121-.126-.3-.167h-.1l.084-.046C226.693,159.572,226.8,159.459,226.764,159.413Z" transform="translate(-131.214 -92.54)" fill="#fbddde"/>
        <path id="Path_6161" data-name="Path 6161" d="M228.86,161.689c0-.05-.13-.1-.3-.1h-.088a.447.447,0,0,0,.067-.059c.126-.109.205-.226.172-.264s-.159.025-.285.138l-.063.063v-.088c0-.167-.025-.3-.071-.305s-.092.126-.1.293a.645.645,0,0,0,0,.088l-.054-.067c-.109-.121-.23-.2-.264-.167s.025.159.134.28l.063.063h-.092c-.163,0-.3.021-.3.067s.13.1.3.1h.088l-.071.054c-.121.113-.2.23-.167.268s.155-.025.285-.138l.063-.059a.522.522,0,0,0,0,.088c0,.163,0,.3.063.305s.1-.13.1-.3a.612.612,0,0,0,0-.088.381.381,0,0,0,.054.067c.113.126.23.2.264.167s-.025-.155-.134-.28a.445.445,0,0,0-.063-.063h.088C228.718,161.765,228.86,161.735,228.86,161.689Z" transform="translate(-132.401 -93.669)" fill="#fbddde"/>
        <path id="Path_6162" data-name="Path 6162" d="M226.537,162.354c0-.038-.1-.071-.222-.08h-.067l.054-.042c.092-.079.146-.172.126-.2s-.121,0-.213.1a.217.217,0,0,0-.046.042v-.067c0-.121,0-.226-.054-.226s-.071.1-.075.222v.067a.615.615,0,0,1-.042-.054c-.084-.092-.172-.151-.2-.126s0,.121.1.213l.046.046h-.067c-.121,0-.226,0-.23.054s.1.071.226.075h.063l-.05.038c-.1.084-.151.172-.13.2s.121,0,.213-.1a.239.239,0,0,0,.046-.046v.067c0,.126,0,.226.05.23s.067-.1.08-.222v-.067a.221.221,0,0,0,.042.05c.08.092.167.151.2.126s0-.117-.1-.209l-.042-.046h.063C226.432,162.426,226.533,162.4,226.537,162.354Z" transform="translate(-131.221 -94.146)" fill="#fbddde"/>
        <path id="Path_6163" data-name="Path 6163" d="M229.189,159.6c0-.046-.121-.088-.276-.1h-.084l.063-.05c.117-.1.188-.213.159-.247s-.151,0-.264.126l-.063.059a.514.514,0,0,0,0-.084c0-.155,0-.285-.063-.289s-.088.126-.1.28a.28.28,0,0,0,0,.084.766.766,0,0,0-.054-.067c-.1-.117-.218-.188-.247-.155s.021.146.126.264l.054.059h-.079c-.155,0-.285.021-.285.063s.121.088.276.1h.084l-.067.05c-.113.1-.188.218-.159.251s.151-.025.268-.126c.025,0,.042-.042.063-.063v.084c0,.155,0,.285.063.289s.092-.121.1-.28v-.084a.381.381,0,0,0,.054.067c.1.117.213.188.247.159s-.025-.151-.13-.268l-.054-.059h.08C229.059,159.673,229.185,159.643,229.189,159.6Z" transform="translate(-132.634 -92.477)" fill="#fbddde"/>
        <path id="Path_6164" data-name="Path 6164" d="M227.922,158.2c0-.033-.088-.063-.2-.071h-.063l.05-.038c.084-.08.138-.159.117-.18s-.109,0-.2.092l-.042.042a.322.322,0,0,1,0-.063c0-.113,0-.205-.05-.209s-.067.088-.071.205v.059l-.038-.046c-.075-.084-.155-.138-.184-.113s.021.1.1.192l.042.042h-.059c-.117,0-.213,0-.213.05s.092.063.2.071h.063a.185.185,0,0,0-.046.038c-.084.075-.134.155-.117.18s.113,0,.2-.092l.042-.042v.059c0,.113,0,.209.046.209s.063-.088.071-.2a.16.16,0,0,0,0-.063l.038.046c.075.088.155.138.18.117s0-.109-.092-.192a.218.218,0,0,0-.042-.046h.063C227.83,158.247,227.922,158.226,227.922,158.2Z" transform="translate(-132.07 -91.75)" fill="#fbddde"/>
        <path id="Path_6165" data-name="Path 6165" d="M225.329,160.769c0-.038-.1-.071-.226-.075a.356.356,0,0,0-.067,0,.29.29,0,0,0,.054-.046c.1-.084.151-.172.126-.2s-.117,0-.213.1l-.046.046v-.063c0-.13,0-.23-.05-.234s-.071.1-.08.226v.067l-.042-.054c-.084-.092-.172-.151-.2-.126s.021.121.1.213l.046.046h-.054c-.121,0-.23,0-.23.05s.1.071.226.08h.063l-.05.042c-.1.084-.151.172-.126.2s.117,0,.213-.1l.046-.046v.067c0,.126,0,.226.05.23s.075-.1.084-.222V160.9l.038.05c.088.092.176.151.205.126s0-.117-.1-.209a.263.263,0,0,0-.046-.05h.05C225.224,160.827,225.325,160.806,225.329,160.769Z" transform="translate(-130.523 -93.221)" fill="#fbddde"/>
        <path id="Path_6166" data-name="Path 6166" d="M238.555,159.222c.515.2.812.661.665,1.025a.891.891,0,0,1-1.184.3c-.511-.2-.808-.661-.665-1.025S238.032,159.021,238.555,159.222Z" transform="translate(-138.016 -92.54)" fill="#f5a98d"/>
        <path id="Path_6167" data-name="Path 6167" d="M240.775,161.567a.314.314,0,0,1-.1.418.309.309,0,1,1,.1-.435Z" transform="translate(-139.68 -93.869)" fill="#fbddde"/>
        <path id="Path_6168" data-name="Path 6168" d="M246.75,153.927a.837.837,0,0,0,.519-.418,1.155,1.155,0,0,1,.364-.485,1.226,1.226,0,0,1,1.042-.192l-.243.084a.293.293,0,0,1,.155.121.339.339,0,0,1-.573.36.335.335,0,0,1-.025-.289,2.307,2.307,0,0,0-.2.117,2.176,2.176,0,0,0-.607.757,1.191,1.191,0,0,1,0-.213A.724.724,0,0,1,246.75,153.927Z" transform="translate(-143.492 -88.853)" fill="#8f4446"/>
        <path id="Path_6169" data-name="Path 6169" d="M235.095,200.778l6.055.025.933-10a3.876,3.876,0,0,0,1.674-4.352h-9.88a11.851,11.851,0,0,0,.134,5C235.605,197.581,235.53,200.213,235.095,200.778Z" transform="translate(-135.887 -108.429)" fill="#fbddde"/>
        <path id="Path_6170" data-name="Path 6170" d="M287.729,188.74l7.612.686-3.285-12.282c-.958-3.67-4.072-6.415-6.022-6.034a2.511,2.511,0,0,0-1.875,3.1Z" transform="translate(-165.196 -99.488)" fill="#3c322d"/>
        <path id="Path_6171" data-name="Path 6171" d="M354.438,197.2l-16.608-5.331.619-1.9,16.6,5.327Z" transform="translate(-196.459 -110.476)" fill="#3c322d"/>
        <rect id="Rectangle_50" data-name="Rectangle 50" width="11.009" height="1.745" transform="translate(138.924 85.051) rotate(-68.89)" fill="#3c322d"/>
        <path id="Path_6172" data-name="Path 6172" d="M361.045,169.615l-2.7,2.046L339.93,147.6l2.05-1.506Z" transform="translate(-197.681 -84.958)" fill="#8cd3f6"/>
        <path id="Path_6173" data-name="Path 6173" d="M357.507,171.815l-2.7,2.046L336.25,149.616l2.7-2.046Z" transform="translate(-195.54 -85.818)" fill="#f4a6a0"/>
        <path id="Path_6174" data-name="Path 6174" d="M308.438,145.989a2.57,2.57,0,0,1-.527-.573c-.121-.167-.255-.372-.418-.628a1.07,1.07,0,0,1-.029-.255,5.35,5.35,0,0,0-.322-2.343,2.511,2.511,0,0,0-1.029-2.092c-3.034-1.9-6.4,0-6.674.159a3.644,3.644,0,0,0-2.13,3.54c.251,2.18,1.109,3.892,2.205,4.54a8.235,8.235,0,0,1,.146,1.431c.05.783-.1,4.272-.1,4.272l5.226-.6a5.149,5.149,0,0,1,.582-3.348,4.549,4.549,0,0,1,1.255-.184c.728.071,1.339-.322,1.222-.837a1.305,1.305,0,0,1-.046-.418c.046-.167.159-.213.205-.343.021-.059,0-.092-.075-.109a3.652,3.652,0,0,0,.067-.753c.146-.046.134-.151.1-.213a1.258,1.258,0,0,1-.092-.305c-.021-.205-.067-.511.234-.544C308.786,146.328,308.568,146.089,308.438,145.989Z" transform="translate(-172.88 -80.986)" fill="#f7b49e"/>
        <path id="Path_6175" data-name="Path 6175" d="M298.986,139.611c0-.326-.377-.31-.377-.31.3-.138.766.134.766.134-.117-.314.305-.787.305-.787a.456.456,0,0,0,.071.611,5.164,5.164,0,0,1,6.155.184,7.665,7.665,0,0,1,.891,1.226c.05.1.1.2.151.293a1.373,1.373,0,0,0,.594-.51s.125,1.544-.946,1.674a5.649,5.649,0,0,1-2.218-.473c-1.419-.418-2.092.272-2.193,1.4-.059.8-.046,1-.1,2.038-.021.389-.033.5-.054,1.054,0,.163-.23.138-.418.159s-.243-.251-.264-.331a1.473,1.473,0,0,0-.967-1.121c-.389-.121-.519.029-.632.209-.285.418.151.866.665,1.515.381.481-.636,1.31-1.209,1.377-.418.046-2.18-2.486-2.435-4.687A3.783,3.783,0,0,1,298.986,139.611Z" transform="translate(-172.567 -80.446)" fill="#6e262e"/>
        <path id="Path_6176" data-name="Path 6176" d="M305.056,154.213c.335.49.339,1.038,0,1.226s-.866-.059-1.2-.548-.343-1.042,0-1.226S304.721,153.723,305.056,154.213Z" transform="translate(-176.556 -89.327)" fill="#f7b49e"/>
        <path id="Path_6177" data-name="Path 6177" d="M317.264,150.249a2.222,2.222,0,0,0-.962.067,2.715,2.715,0,0,0-.636.272l-.289.142h0a.054.054,0,0,1-.071-.021.059.059,0,0,1,0-.067l.276-.188a2.77,2.77,0,0,1,.632-.381,2.456,2.456,0,0,1,.741-.209,1.285,1.285,0,0,1,.347,0h.038a.211.211,0,1,1-.054.418Z" transform="translate(-183.354 -87.145)" fill="#8f4446"/>
        <path id="Path_6178" data-name="Path 6178" d="M318.973,158.7s-.13-.029-.079.092a2.854,2.854,0,0,0,1.6.72v-.063a3,3,0,0,0,.046-.682A2.616,2.616,0,0,1,318.973,158.7Z" transform="translate(-185.44 -92.287)" fill="#fbddde"/>
        <path id="Path_6179" data-name="Path 6179" d="M318.48,152.444l.205-.042a.778.778,0,0,0-.787,0,.837.837,0,0,0-.3.289.787.787,0,0,0-.121.381,2.238,2.238,0,0,1,.531-.464h.025a.305.305,0,0,0,0,.121.3.3,0,0,0,.335.251.285.285,0,0,0,.264-.318A.259.259,0,0,0,318.48,152.444Z" transform="translate(-184.625 -88.566)" fill="#8f4446"/>
        <path id="Path_6180" data-name="Path 6180" d="M302.49,163.44l5.687,1.983-.494,1.331-5.034-1.946Z" transform="translate(-175.907 -95.047)" fill="#fbddde"/>
        <path id="Path_6181" data-name="Path 6181" d="M300.357,182.174c-.251-2.214-.942-8.168-1.147-9.909a9.9,9.9,0,0,1,1.49-5.515l5.063,1.916a9.792,9.792,0,0,1,2.18,4.423l2.214,19.157c-.916.205-8.369,1.82-10.415.716C299.758,192.962,300.733,185.3,300.357,182.174Z" transform="translate(-173.979 -96.972)" fill="#2b221c"/>
        <path id="Path_6182" data-name="Path 6182" d="M301.85,166.373l.289-1.573,5.214,2.732a8.942,8.942,0,0,1,2.331,5.574l.536,4.653-3.31-7.436.682-.837-1.071.285Z" transform="translate(-175.535 -95.838)" fill="#362c28"/>
        <path id="Path_6183" data-name="Path 6183" d="M334.92,182.437s1.527-1.8,2.557-2.055c1.435-.364,1.6-.167,1.824.557a2.377,2.377,0,0,1-.837,2.4.351.351,0,0,1-.393,0,4.544,4.544,0,0,0,.134-.448c-.8,0-1.4.988-2.235,1.674Z" transform="translate(-194.767 -104.796)" fill="#f7b49e"/>
        <rect id="Rectangle_51" data-name="Rectangle 51" width="1.251" height="3.151" transform="matrix(0.879, -0.477, 0.477, 0.879, 139.526, 77.55)" fill="#fbddde"/>
        <path id="Path_6184" data-name="Path 6184" d="M301.1,175.313a11.6,11.6,0,0,0,1.28,3.879c2.142,4.569,4.26,6.314,4.26,6.314l2.8-2.435s-1.255-2.958-2.9-6.084a13.132,13.132,0,0,0-2.385-3.009C303.021,172.983,301,173.326,301.1,175.313Z" transform="translate(-175.095 -100.862)" fill="#362c28"/>
        <path id="Path_6185" data-name="Path 6185" d="M314.525,189.472a85.222,85.222,0,0,1,7.453-4.482l1.481,2.929c-2.239,1.448-4.758,3.235-7.532,4.9C314.3,193.8,311.972,191.1,314.525,189.472Z" transform="translate(-182.247 -107.58)" fill="#362c28"/>
        <path id="Path_6186" data-name="Path 6186" d="M366.943,195.4h-2.6v7.532h2.6a3.766,3.766,0,0,0,0-7.532Z" transform="translate(-211.876 -113.634)" fill="#acacac"/>
        <rect id="Rectangle_52" data-name="Rectangle 52" width="1.573" height="7.52" transform="translate(150.89 81.766)" fill="#d2d2d2"/>
        <path id="Path_6187" data-name="Path 6187" d="M240.183,254.737a14.257,14.257,0,1,1-14.257-14.257A14.257,14.257,0,0,1,240.183,254.737Z" transform="translate(-123.091 -139.85)" fill="#3c322d"/>
        <path id="Path_6188" data-name="Path 6188" d="M242.222,262.018A9.026,9.026,0,1,1,233.2,253,9.026,9.026,0,0,1,242.222,262.018Z" transform="translate(-130.36 -147.131)" fill="#ededed"/>
        <path id="Path_6189" data-name="Path 6189" d="M242.679,263.64a7.854,7.854,0,1,1-7.853-7.85,7.854,7.854,0,0,1,7.853,7.85Z" transform="translate(-131.989 -148.754)" fill="#575756"/>
        <path id="Path_6190" data-name="Path 6190" d="M243.347,266.024a6.139,6.139,0,1,1-6.137-6.134,6.139,6.139,0,0,1,6.137,6.134Z" transform="translate(-134.373 -151.138)" fill="#706f6f"/>
        <path id="Path_6191" data-name="Path 6191" d="M517.736,224.759c0,3.67-1.787,6.645-3.988,6.645s-3.988-2.975-3.988-6.645,1.783-6.649,3.988-6.649S517.736,221.1,517.736,224.759Z" transform="translate(-296.445 -126.841)" fill="#f4a6a0"/>
        <path id="Path_6192" data-name="Path 6192" d="M519.38,218.15h0v.7c1.314,1.084,2.218,3.348,2.218,5.946s-.9,4.858-2.218,5.942v.7h0c2.2,0,3.988-2.975,3.988-6.645S521.581,218.15,519.38,218.15Z" transform="translate(-302.04 -126.864)" fill="#575756"/>
        <path id="Path_6193" data-name="Path 6193" d="M442.456,187.959c0,3.67-1.787,6.649-3.992,6.649s-3.984-2.979-3.984-6.649,1.783-6.649,3.984-6.649S442.456,184.289,442.456,187.959Z" transform="translate(-252.666 -105.44)" fill="#f4a6a0"/>
        <path id="Path_6194" data-name="Path 6194" d="M444.071,181.31h-.021v.707c1.314,1.088,2.218,3.348,2.218,5.946s-.9,4.858-2.218,5.942v.7h.021c2.205,0,3.988-2.979,3.988-6.649S446.276,181.31,444.071,181.31Z" transform="translate(-258.232 -105.44)" fill="#575756"/>
        <path id="Path_6195" data-name="Path 6195" d="M273.043,219.421l-.255-15.416a9.269,9.269,0,0,0-1.879-5.327,18.775,18.775,0,0,0-3.31-3.519,48.781,48.781,0,0,0-11.382-6.758,33.161,33.161,0,0,0-11.93-3.092l-5.335-1.649-26.743.126a9.94,9.94,0,0,1,1.159,1.561c2.46,3.523,2.444,9.1-1.983,9.1h-61c-11.717,0-10.788-9.248-10.788-9.248-17.261,0-35.15,9.792-35.15,9.792-11.1,6.009-9.863,19.667-9.4,24.429l40.464,5.628,3.62-5.628Z" transform="translate(-55.1 -106.806)" fill="#f4a6a0"/>
        <path id="Path_6196" data-name="Path 6196" d="M440.242,254.737a14.261,14.261,0,1,1-14.259-14.257,14.261,14.261,0,0,1,14.259,14.257Z" transform="translate(-239.43 -139.85)" fill="#3c322d"/>
        <path id="Path_6197" data-name="Path 6197" d="M442.272,262.018A9.026,9.026,0,1,1,433.25,253,9.026,9.026,0,0,1,442.272,262.018Z" transform="translate(-246.699 -147.131)" fill="#ededed"/>
        <path id="Path_6198" data-name="Path 6198" d="M442.74,263.64a7.85,7.85,0,1,1-7.85-7.85,7.85,7.85,0,0,1,7.85,7.85Z" transform="translate(-248.339 -148.754)" fill="#575756"/>
        <path id="Path_6199" data-name="Path 6199" d="M443.407,266.024a6.139,6.139,0,1,1-6.137-6.134,6.139,6.139,0,0,1,6.137,6.134Z" transform="translate(-250.718 -151.138)" fill="#706f6f"/>
        <path id="Path_6200" data-name="Path 6200" d="M110.265,257.894a4.394,4.394,0,0,1-4.394,4.394h-11.1c-2.427,0-2.544-1.967-2.544-4.394h0c0-2.427.117-4.394,2.544-4.394h11.1A4.394,4.394,0,0,1,110.265,257.894Z" transform="translate(-53.631 -147.422)" fill="#575756"/>
        <path id="Path_6201" data-name="Path 6201" d="M508.671,258.951c0,2.423-1.222,4.281-3.641,4.084-1.937-.159-3.812-.464-4.837-.619-2.4-.356-4.394-1.042-4.394-3.465h0c0-2.431,2.042-2.414,4.394-3.009.531-.134,2.841-.682,4.749-1.088C507.366,254.34,508.671,256.528,508.671,258.951Z" transform="translate(-288.327 -148.166)" fill="#575756"/>
        <path id="Path_6202" data-name="Path 6202" d="M135.061,189.56s-.088.741-.151,2.046a30.882,30.882,0,0,0,.188,5.373,8.119,8.119,0,0,0,.364,1.674c.1.314.172.464.285.925,0,.1.059.109,0,.276a1.255,1.255,0,0,1-.163.418,1.85,1.85,0,0,1-.477.377,13.729,13.729,0,0,1-4.038.992c-2.8.377-5.766.674-8.716,1.1a77.416,77.416,0,0,0-8.595,1.532,38.917,38.917,0,0,0-7.193,2.4,20.6,20.6,0,0,0-4.574,2.787,12.864,12.864,0,0,0-1.126,1.013l-.385.372.347-.418a10.349,10.349,0,0,1,1.038-1.113,19.031,19.031,0,0,1,4.465-3.13,30.448,30.448,0,0,1,3.348-1.481,35.9,35.9,0,0,1,3.887-1.234,77.185,77.185,0,0,1,8.67-1.674c2.975-.385,5.963-.64,8.733-.971a15.7,15.7,0,0,0,3.808-.778c.151-.054.193-.134.289-.193,0-.025,0,0,.029,0s0-.126,0-.18a6.905,6.905,0,0,0-.222-.837,8.855,8.855,0,0,1-.314-1.77,25.977,25.977,0,0,1,.184-5.44C134.914,190.292,135.061,189.56,135.061,189.56Z" transform="translate(-58.428 -110.238)" fill="#d27773"/>
        <path id="Path_6203" data-name="Path 6203" d="M194.265,259.913V258.7c0-2.063,1.674-2.348,3.741-2.348h29.865c2.063,0,3.737.285,3.737,2.348v1.255s-.176,2.117,1.674,2.117h2.54a6.666,6.666,0,0,0,1.347-4.03v-4.1a6.716,6.716,0,0,0-6.716-6.72H195.4a6.72,6.72,0,0,0-6.7,6.72v4.1a6.666,6.666,0,0,0,1.347,4.03h2.126A1.979,1.979,0,0,0,194.265,259.913Z" transform="translate(-109.733 -143.775)" fill="#f18d86"/>
        <path id="Path_6204" data-name="Path 6204" d="M137.81,241.567,155.1,241.3l17.73-.142,20.32-.067,20.324.063,17.726.146,17.295.268-17.295.268-17.726.146-20.324.063-20.32-.063-17.73-.146Z" transform="translate(-80.138 -140.205)" fill="#d27773"/>
        <path id="Path_6205" data-name="Path 6205" d="M446.006,216.341s-.753-.234-2.092-.536c-.67-.151-1.477-.364-2.414-.552l-3.159-.573c-1.155-.188-2.419-.213-3.745-.339-1.335-.063-2.77.038-4.243.021l-9.244.063-9.248-.063-8.064-.142c-4.72-.121-7.867-.259-7.867-.259s3.147-.134,7.867-.259l8.064-.142,9.239-.059,9.244.063c1.477,0,2.9,0,4.256.109,1.36.18,2.661.264,3.825.5a55.659,55.659,0,0,1,5.528,1.486C445.274,216.053,446.006,216.341,446.006,216.341Z" transform="translate(-230.247 -124.16)" fill="#d27773"/>
        <path id="Path_6206" data-name="Path 6206" d="M413.177,185.008l-1.021-.142a12.135,12.135,0,0,0-2.678-.113c-2.243.121-5.231.259-8.218.251s-5.98-.071-8.223-.192-3.737-.268-3.737-.268,1.494-.159,3.737-.268,5.231-.205,8.223-.188,5.975.126,8.218.247a14.927,14.927,0,0,1,2.7.418Z" transform="translate(-226.392 -107.054)" fill="#d27773"/>
        <path id="Path_6207" data-name="Path 6207" d="M96.306,234.485a1.05,1.05,0,0,1-1.046-1.034c0-.222-.059-5.54,2.929-8.528A1.047,1.047,0,1,1,99.67,226.4c-2.364,2.364-2.31,6.967-2.31,7.013a1.05,1.05,0,0,1-1.029,1.067Z" transform="translate(-55.393 -130.625)" fill="#575756"/>
        <path id="Path_6208" data-name="Path 6208" d="M95.552,234.046a.783.783,0,0,1-.783-.77c0-.222-.063-5.44,2.845-8.34a.787.787,0,1,1,1.113,1.109c-2.444,2.444-2.389,7.156-2.385,7.2a.791.791,0,0,1-.774.8Z" transform="translate(-55.108 -130.658)" fill="#ec654b"/>
        <path id="Path_6209" data-name="Path 6209" d="M185.88,141.668A30.337,30.337,0,0,0,192.5,136.5c2.36-2.732,13.273-6.892,20.5-4.867,10.624,2.971,12.21,7.3,14.646,7.951,4.7,1.255,14.252,7.335,15.847,10.147" transform="translate(-108.093 -76.238)" fill="rgba(0,0,0,0)"/>
        <path id="Path_6210" data-name="Path 6210" d="M126.836,161.372a7.114,7.114,0,0,1,3.247-8.633,7.093,7.093,0,1,1,1.059-13.625l16.286,7.114a8.652,8.652,0,0,0,1.226-1.067l.6,1.029a1.987,1.987,0,0,1-1.787.624l-8.114,16.148h0a7.089,7.089,0,0,1-12.516-1.586Z" transform="translate(-70.724 -80.652)" fill="#ec665e"/>
        <path id="Path_6211" data-name="Path 6211" d="M249.642,177.692a1.624,1.624,0,0,0,1-1.741h0c-.209-.653-.95-.791-1.72-.757a22.336,22.336,0,0,0-4.553.837,27.065,27.065,0,0,0-4.536,1.85c-.674.389-1.255.933-.95,1.858a1.594,1.594,0,0,0,1.808,1.054,24.23,24.23,0,0,0,4.565-1.155,27.449,27.449,0,0,0,4.385-1.946Z" transform="translate(-138.869 -101.88)" fill="#f5a98d"/>
        <path id="Path_6212" data-name="Path 6212" d="M263.1,165.573a49.283,49.283,0,0,0,7.08-9.846l-.837-.736a85.087,85.087,0,0,0-8.122,8.913,1.442,1.442,0,0,0,.184,1.707C262.05,166.2,263.1,165.573,263.1,165.573Z" transform="translate(-151.786 -90.133)" fill="#f5a98d"/>
        <path id="Path_6213" data-name="Path 6213" d="M281.35,150.616a6.451,6.451,0,0,0,3-3.979c.071-.243.113-.774-.3-.837-.205,0-.418.071-.837.418a8.093,8.093,0,0,0-1.084,1.2c.142-.444.364-1.134.071-1.188-.439-.075-.946,2.264-1.4,3.109a2.409,2.409,0,0,1-.326.565Z" transform="translate(-163.107 -84.789)" fill="#f5a98d"/>
      </g>
    </g>
    <g id="fm" transform="translate(505.54 545.153)" opacity="0.85">
      <g id="Capa_1-3" data-name="Capa 1" transform="translate(-5.999 -77.032)">
        <path id="Path_647" data-name="Path 647" d="M161.07,389.536s.083-3.861,1.886-5.226a.841.841,0,0,1,1.288.32,5.821,5.821,0,0,1,.041,1.986c0,.237.353.094.45-.146s.21-.422.345-.416c.314,0,.3.582.276,1a8.3,8.3,0,0,1-1.738,3.31Z" transform="translate(-116.647 -278.182)" fill="#f4a38e"/>
        <rect id="Rectangle_7" data-name="Rectangle 7" width="1.74" height="3.825" transform="matrix(0.41, -0.912, 0.912, 0.41, 43.377, 111.973)" fill="#fbddde"/>
        <path id="Path_648" data-name="Path 648" d="M77.066,433.809a16.405,16.405,0,0,0,3.756,2.176,25.883,25.883,0,0,0,10.9,2.593l.234-4.857a30.319,30.319,0,0,0-9.228-3.379A22.727,22.727,0,0,0,78.1,430.2C76.34,430.32,75.157,432.13,77.066,433.809Z" transform="translate(-55.104 -311.498)" fill="#201811"/>
        <path id="Path_649" data-name="Path 649" d="M131.857,414.791a43.436,43.436,0,0,0,2.81-3.966c1.3-1.892,1.909-3.337,4.018-6.545l3.95,1.655c-4.725,8.842-4.738,8.771-6.691,12.411-.519.971-1.8,1.6-4.325,1.495Z" transform="translate(-95.319 -292.769)" fill="#201811"/>
        <path id="Path_650" data-name="Path 650" d="M210.075,439.953a1.847,1.847,0,0,1-.982-2.057h0c.3-.725,1.15-.827,2.019-.712a25.1,25.1,0,0,1,5.091,1.338,30.511,30.511,0,0,1,4.986,2.5c.725.5,1.332,1.169.918,2.19a1.822,1.822,0,0,1-2.148,1.037,27.583,27.583,0,0,1-5.078-1.707,31.278,31.278,0,0,1-4.807-2.584Z" transform="translate(-151.365 -316.569)" fill="#e8937c"/>
        <path id="Path_651" data-name="Path 651" d="M192.041,412.675a56.006,56.006,0,0,1-7.171-11.791l.993-.764a96.255,96.255,0,0,1,8.42,10.825,1.674,1.674,0,0,1-.356,1.931C193.15,413.472,192.041,412.675,192.041,412.675Z" transform="translate(-133.882 -289.757)" fill="#e8937c"/>
        <path id="Path_652" data-name="Path 652" d="M176.444,388.088a7.24,7.24,0,0,0-3.561-4.413c-.245-.146-.827-.339-.979.11-.077.221-.041.474.24,1.04a9.208,9.208,0,0,0,1.02,1.525c-.45-.276-1.15-.714-1.288-.408-.21.463,2.234,1.671,3.034,2.4a3.1,3.1,0,0,1,.53.518Z" transform="translate(-124.463 -277.725)" fill="#e8937c"/>
        <path id="Path_653" data-name="Path 653" d="M145.769,8.6a8.627,8.627,0,0,0-17.149-1.332,8.63,8.63,0,1,0-15.533,6.366h0l15.073,15.972a2.41,2.41,0,0,0-.03,2.306l1.429-.276a10.46,10.46,0,0,1-.712-1.84l14.91-15.674A8.591,8.591,0,0,0,145.769,8.6Z" transform="translate(-80.721 0.032)" fill="#ec665e"/>
        <path id="Path_654" data-name="Path 654" d="M163.483,112.28s-2.885,15.575-1.037,21.8,1.729,19.03.113,23.3-.805,27.567,1.04,31.717,0,33.339-3.809,35.3" transform="translate(-115.72 -81.304)" fill="none" stroke="#ea7872" stroke-miterlimit="10" stroke-width="1.25"/>
        <path id="Path_655" data-name="Path 655" d="M218.182,48.086a8.624,8.624,0,0,0-9.824,5.414,8.63,8.63,0,1,0-16.223,3.652L203.561,75.52a10.346,10.346,0,0,1-1.07,1.655l1.346.552a2.429,2.429,0,0,0,.436-2.267L222.28,62.874h0a8.622,8.622,0,0,0-4.093-14.794Z" transform="translate(-138.4 -32.174)" fill="#f29797"/>
        <path id="Path_656" data-name="Path 656" d="M178.38,161.42s0,10.729-6.068,16.612-9.689,19.03-8.652,27.511,1.655,12.37-2.162,18.771-6.823,13.324-4.92,24.144" transform="translate(-112.968 -116.891)" fill="none" stroke="#ea7872" stroke-miterlimit="10" stroke-width="1.25"/>
        <path id="Path_657" data-name="Path 657" d="M272.157,96.738a8.635,8.635,0,0,0-10.638,3.585,8.627,8.627,0,1,0-16.612.678l7.957,20.117a10.37,10.37,0,0,1-1.351,1.442l1.227.781a2.4,2.4,0,0,0,.827-2.149l19.971-9.162h0a8.624,8.624,0,0,0-1.379-15.291Z" transform="translate(-177.06 -64.973)" fill="#ec665e"/>
        <path id="Path_658" data-name="Path 658" d="M193.436,207.64s-13.851,14.993-18.694,27.914c-1.379,3.687-4.154,17.765-9.228,23.071-4.068,4.253-3,22.616-.866,29.125" transform="translate(-117.866 -150.363)" fill="none" stroke="#ea7872" stroke-miterlimit="10" stroke-width="1.25"/>
        <path id="Path_659" data-name="Path 659" d="M33.191,137.593a8.627,8.627,0,1,0-16.606-2.452,8.627,8.627,0,1,0-13.054,10.3l18.236,11.636a10.306,10.306,0,0,1-.251,1.958l1.453-.083a2.457,2.457,0,0,0-.585-2.231L33.194,137.59Z" transform="translate(-0.001 -91.07)" fill="#ec665e"/>
        <path id="Path_660" data-name="Path 660" d="M81.17,243.19s3.5,10.423,6.343,13.611c8.707,9.78,18.432,24.649,19.552,28.289,3.034,9.863-3.373,22.754-2.077,29.759" transform="translate(-58.783 -176.108)" fill="none" stroke="#ea7872" stroke-miterlimit="10" stroke-width="1.25"/>
        <path id="Path_661" data-name="Path 661" d="M134.28,172.09s6.749,21.281,5.886,27.682-.348,19.378,2.593,23.719,3.114,7.094,2.077,9.515-4.5,20.409.519,27.856" transform="translate(-97.245 -124.618)" fill="none" stroke="#ea7872" stroke-miterlimit="10" stroke-width="1.25"/>
        <path id="Path_662" data-name="Path 662" d="M63.5,58.123a8.627,8.627,0,0,0-15.23,8.018,8.627,8.627,0,1,0-9.736,13.666h0l21.278,5.469a2.421,2.421,0,0,0,1.205,1.969l1.065-.99a10.546,10.546,0,0,1-1.586-1.178l4.261-21.209A8.6,8.6,0,0,0,63.5,58.123Z" transform="translate(-23.996 -39.128)" fill="#fbddde"/>
        <path id="Path_663" data-name="Path 663" d="M142.5,80.891a8.622,8.622,0,0,0-8.975,6.73,8.63,8.63,0,1,0-15.911,5.348h0l14.019,16.921a2.41,2.41,0,0,0-.182,2.3l1.442-.174a10.1,10.1,0,0,1-.587-1.884L148.2,95.453A8.624,8.624,0,0,0,142.5,80.891Z" transform="translate(-84.228 -57.753)" fill="#f8c3c5"/>
        <path id="Path_664" data-name="Path 664" d="M168.889,195.51s.229,9-.692,14.066a96.341,96.341,0,0,0-.924,21.107c.455,8.533-.692,13.035,1.616,18.112.811,1.784,2.882,11.995,1.729,17.185" transform="translate(-121.01 -141.579)" fill="none" stroke="#ea7872" stroke-miterlimit="10" stroke-width="1.25"/>
        <path id="Path_665" data-name="Path 665" d="M118,272.46s3.345,9.46,9.228,15c3.908,3.676,6.432,14.4,6.084,17.748s-.894,8.779-.317,10.743,1.729,9,0,13.263c0,0-4.267,6.344-3.806,10.613" transform="translate(-85.455 -197.306)" fill="none" stroke="#ea7872" stroke-miterlimit="10" stroke-width="1.25"/>
        <path id="Path_666" data-name="Path 666" d="M78.293,163.723a8.627,8.627,0,0,0-17.158,1.236,8.627,8.627,0,1,0-14.411,8.605h0l17.3,13.55a2.376,2.376,0,0,0,.312,2.286l1.379-.477a10.3,10.3,0,0,1-.976-1.715L77.148,169.49a8.586,8.586,0,0,0,1.145-5.767Z" transform="translate(-32.066 -113.242)" fill="#f8c3c5"/>
        <path id="Path_667" data-name="Path 667" d="M179.622,256.57s.692,6.23-2.306,9.46-6.343,8.073-5.883,13.5-.461,10.842-2.653,14.648-1.732,18.573-.348,25.493" transform="translate(-121.133 -185.798)" fill="none" stroke="#ea7872" stroke-miterlimit="10" stroke-width="1.25"/>
        <path id="Path_668" data-name="Path 668" d="M210.51,145.516a8.622,8.622,0,0,0-10.618,3.619,8.63,8.63,0,1,0-16.785.157h0l8.095,20.426a2.409,2.409,0,0,0-.883,2.132l1.423.276a10.281,10.281,0,0,1,.022-1.975l19.654-9.035a8.619,8.619,0,0,0-.9-15.6Z" transform="translate(-132.42 -100.347)" fill="#fbddde"/>
        <path id="Path_669" data-name="Path 669" d="M162.161,274.14s2.885,5.883-.116,15.111-1.125,13.12-.552,17.734-3.255,16.984-4.181,21.253,2.885,15.8,3.922,16.377" transform="translate(-113.821 -198.522)" fill="none" stroke="#ea7872" stroke-miterlimit="10" stroke-width="1.25"/>
        <path id="Path_670" data-name="Path 670" d="M145.987,167.634a8.627,8.627,0,0,0-17.174-.941,8.63,8.63,0,1,0-15.384,6.716h0l15.445,15.624a2.414,2.414,0,0,0,.019,2.309l1.42-.3a10.443,10.443,0,0,1-.753-1.826l14.551-16A8.55,8.55,0,0,0,145.987,167.634Z" transform="translate(-80.884 -115.297)" fill="#f29797"/>
        <path id="Path_671" data-name="Path 671" d="M240.717,659.373a7.9,7.9,0,0,0,2.463-3.82l-.552-7.083h3.505l-.221,5.7-3.191,5.24S240.168,661.267,240.717,659.373Z" transform="translate(-174.271 -469.611)" fill="#f5a98d"/>
        <path id="Path_672" data-name="Path 672" d="M239.39,669.35s-2.311,3.213-3.293,4.529a7.45,7.45,0,0,1-.91.935c-.447.425-1.1.154-.885-.4a4.4,4.4,0,0,1-1.931.885c-.276.025-.731.276-.731.626,0,.276.152.648.827.648.51,0,2.587.019,3.42,0,.618,0,1.266-.618,1.776-1.379.692-1.051,1.782-3.089,1.782-3.089v4.537H240V674.08c0-.483.932-1.553.932-2.838A1.864,1.864,0,0,0,239.39,669.35Z" transform="translate(-167.753 -484.732)" fill="#efeeee"/>
        <path id="Path_673" data-name="Path 673" d="M209.6,659.373a7.927,7.927,0,0,0,2.463-3.82l-.552-7.083h3.5l-.221,5.7-3.188,5.24S209.053,661.267,209.6,659.373Z" transform="translate(-151.735 -469.611)" fill="#f5a98d"/>
        <path id="Path_674" data-name="Path 674" d="M208.263,669.35s-2.308,3.219-3.29,4.529a7.57,7.57,0,0,1-.913.935c-.444.425-1.1.154-.885-.4a4.378,4.378,0,0,1-1.931.885c-.276.025-.734.276-.734.626,0,.276.154.648.827.648.51,0,2.587.019,3.42,0,.615,0,1.266-.618,1.773-1.379.692-1.051,1.784-3.089,1.784-3.089v4.537h.538V674.08c0-.483.935-1.553.935-2.838A1.864,1.864,0,0,0,208.263,669.35Z" transform="translate(-145.209 -484.732)" fill="#efeeee"/>
        <path id="Path_675" data-name="Path 675" d="M196.331,515.145s-11.777,11.876-13.735,37c-.179,2.339-.276,4.81-.276,7.411,0,0,7.6,3.743,19.108,3.682,7.593-.041,22.368-1.655,29.53-6.443,0,0-6.669-1.586-7.67-7.234a73.476,73.476,0,0,0-6.68-19.822c-3.436-6.757-8.922-12.326-13.368-14.618Z" transform="translate(-132.036 -373.039)" fill="#fbddde"/>
        <path id="Path_676" data-name="Path 676" d="M222.58,428.013h0a21.46,21.46,0,0,1,2.661-2.758,4.965,4.965,0,0,0,1.889-3.271c0-.419-.019-.017-.025-.844a8.8,8.8,0,0,0-.7-3l4.882-.709a4.9,4.9,0,0,0-.331,2.08,10.261,10.261,0,0,0,1.194,4.253,13.827,13.827,0,0,1,1.506,4.562v.149H222.583v-.461Z" transform="translate(-161.192 -302.292)" fill="#f5a98d"/>
        <path id="Path_677" data-name="Path 677" d="M231.7,444.809a.306.306,0,1,1-.24-.364A.312.312,0,0,1,231.7,444.809Z" transform="translate(-167.358 -321.852)" fill="#fbddde"/>
        <path id="Path_678" data-name="Path 678" d="M233.913,444.974a.309.309,0,1,1-.24-.361A.309.309,0,0,1,233.913,444.974Z" transform="translate(-168.956 -321.973)" fill="#fbddde"/>
        <path id="Path_679" data-name="Path 679" d="M236.205,444.915a.307.307,0,1,1-.24-.361A.307.307,0,0,1,236.205,444.915Z" transform="translate(-170.619 -321.931)" fill="#fbddde"/>
        <path id="Path_680" data-name="Path 680" d="M238.4,444.731a.3.3,0,0,1-.359.24.309.309,0,1,1,.359-.24Z" transform="translate(-172.203 -321.794)" fill="#fbddde"/>
        <path id="Path_681" data-name="Path 681" d="M240.588,444.486a.306.306,0,1,1-.24-.361A.306.306,0,0,1,240.588,444.486Z" transform="translate(-173.794 -321.62)" fill="#fbddde"/>
        <path id="Path_682" data-name="Path 682" d="M242.8,444.035a.307.307,0,1,1-.24-.361A.307.307,0,0,1,242.8,444.035Z" transform="translate(-175.392 -321.294)" fill="#fbddde"/>
        <path id="Path_683" data-name="Path 683" d="M244.811,443.407a.306.306,0,1,1-.6-.124.3.3,0,0,1,.359-.24.306.306,0,0,1,.24.364Z" transform="translate(-176.85 -320.836)" fill="#fbddde"/>
        <path id="Path_684" data-name="Path 684" d="M246.8,442.723a.3.3,0,1,1-.045-.229A.306.306,0,0,1,246.8,442.723Z" transform="translate(-178.29 -320.345)" fill="#fbddde"/>
        <path id="Path_685" data-name="Path 685" d="M248.8,441.9a.308.308,0,0,1-.6-.119.315.315,0,0,1,.364-.243A.309.309,0,0,1,248.8,441.9Z" transform="translate(-179.74 -319.746)" fill="#fbddde"/>
        <path id="Path_686" data-name="Path 686" d="M250.637,440.81a.312.312,0,0,1-.364.24.306.306,0,1,1,.364-.24Z" transform="translate(-181.072 -318.959)" fill="#fbddde"/>
        <path id="Path_687" data-name="Path 687" d="M252.407,439.843a.306.306,0,1,1-.24-.359A.306.306,0,0,1,252.407,439.843Z" transform="translate(-182.353 -318.259)" fill="#fbddde"/>
        <path id="Path_688" data-name="Path 688" d="M254.316,438.995a.309.309,0,1,1-.244-.346A.309.309,0,0,1,254.316,438.995Z" transform="translate(-183.735 -317.654)" fill="#fbddde"/>
        <path id="Path_689" data-name="Path 689" d="M256.154,437.775a.306.306,0,0,1-.361.237.3.3,0,0,1-.24-.359.307.307,0,0,1,.6.121Z" transform="translate(-185.066 -316.76)" fill="#fbddde"/>
        <path id="Path_690" data-name="Path 690" d="M225.112,384.727a2.332,2.332,0,0,1-1.812,1.1c-.245.022-.372.232-.245.361a.99.99,0,0,1,.05,1.054c-.132.325.036.463-.13.67-.069.085-.058.372-.132.408-.143.083-.312.182-.207.348,0,0,.132.3-.339.894-.411.524.085,1.318.974,1.633.552.193,2.946.987,3.522,1.183a30.742,30.742,0,0,0,3.585,1.084,8.219,8.219,0,0,0,1.641-.16c2.546-.1,6.448-4.079,3.914-9.126-.654-1.3-3.7-2.907-6-3.241a3.309,3.309,0,0,0-2.91.888,8.155,8.155,0,0,0-1.746,2.628Z" transform="translate(-160.88 -275.825)" fill="#f5a98d"/>
        <path id="Path_691" data-name="Path 691" d="M235.14,391.895a2.486,2.486,0,0,1,.452.135,2.82,2.82,0,0,1,.855.521,1.958,1.958,0,0,1,.348.392,1.782,1.782,0,0,1,.24.386l.168.4a.072.072,0,0,1-.039.1.074.074,0,0,1-.091-.03v-.014l-.218-.345a1.494,1.494,0,0,0-.276-.309,1.614,1.614,0,0,0-.358-.29,2.4,2.4,0,0,0-.783-.323,2.1,2.1,0,0,0-.37-.05.289.289,0,0,1,.066-.574Z" transform="translate(-170.051 -283.799)" fill="#b25a5a"/>
        <path id="Path_692" data-name="Path 692" d="M224.456,405.78a1.93,1.93,0,0,0-.276.673l1.288.1Z" transform="translate(-162.351 -293.855)" fill="#fbddde"/>
        <path id="Path_693" data-name="Path 693" d="M224.591,403.8c.11.044.176.108.336.345a5.19,5.19,0,0,0,1,.927c.077.05.047.163-.033.149a2.482,2.482,0,0,1-1.586-.979s-.165-.276,0-.4a.259.259,0,0,1,.284-.044Z" transform="translate(-162.389 -292.402)" fill="#ee7677"/>
        <path id="Path_694" data-name="Path 694" d="M222.972,407.443c.116-.028.207,0,.474.088a5.066,5.066,0,0,0,1.349.19c.091,0,.132.108.058.141a2.482,2.482,0,0,1-1.862.1s-.29-.124-.232-.32A.257.257,0,0,1,222.972,407.443Z" transform="translate(-161.317 -295.052)" fill="#ee7677"/>
        <path id="Path_695" data-name="Path 695" d="M233.63,397.135a.975.975,0,0,1,1.379-.1.986.986,0,0,1,.276,1.338,3.546,3.546,0,0,0-.687-.827A2.069,2.069,0,0,0,233.63,397.135Z" transform="translate(-169.194 -287.356)" fill="#e88175"/>
        <path id="Path_696" data-name="Path 696" d="M231.8,405.046c-.1.552.5,1.12,1.338,1.269s1.594-.185,1.691-.739-.5-1.109-1.327-1.271S231.9,404.489,231.8,405.046Z" transform="translate(-167.864 -292.758)" fill="url(#radial-gradient-3)"/>
        <path id="Path_697" data-name="Path 697" d="M238.395,380.865h.019a1.4,1.4,0,0,0,.309.044c1.288.08,1.3,1.994,1.3,3.641,0,2.3,1.349,2.926,2.554,3.585a5.813,5.813,0,0,0-1.362,1.986,2.13,2.13,0,0,0,.276,2,3.688,3.688,0,0,0-.047.392,3.477,3.477,0,0,0,.03.612,4.32,4.32,0,0,0,.331,1.156,4.313,4.313,0,0,1-.187-1.167,3.69,3.69,0,0,1,.041-.579.7.7,0,0,1,.03-.143,3.163,3.163,0,0,0,.094.361,2.581,2.581,0,0,0,.306.618,2.628,2.628,0,0,1-.165-.651,2.552,2.552,0,0,1,0-.411,1.878,1.878,0,0,0,.3.044,2.518,2.518,0,0,0,1.048,2.482,1.359,1.359,0,0,0,1.613.1,1.656,1.656,0,0,0,.585.014,2.206,2.206,0,0,0,.827-.334c.621.2,1.5.174,2.146-1.1a1.757,1.757,0,0,0,.077-1.715,1.415,1.415,0,0,0,.276-.681,1.979,1.979,0,0,0-.063-.772,2.08,2.08,0,0,0,.025-1.015,1.961,1.961,0,0,0-.971-1.216c.932-3.056-.469-7.38-6.454-8.44a4.964,4.964,0,0,0-1.379-.066,5.745,5.745,0,0,1-1.853-.2C237.683,379.166,237.032,380.529,238.395,380.865Zm9.9,10.641a5.055,5.055,0,0,0,.312-.717,1.653,1.653,0,0,1,.044.312,1.3,1.3,0,0,1-.163.656A1.188,1.188,0,0,0,248.3,391.506Zm-3.285,3.332a2.258,2.258,0,0,0,.53-.615,2.14,2.14,0,0,0,.276.177,1.787,1.787,0,0,1-.422.3A1.352,1.352,0,0,1,245.011,394.837Z" transform="translate(-172.05 -274.735)" fill="#8f4446"/>
        <path id="Path_698" data-name="Path 698" d="M272.8,409.143c.03-.05.2,0,.372.1l.088.063a.406.406,0,0,0-.03-.1c-.044-.2-.036-.375.019-.389s.143.138.19.342a.849.849,0,0,1,.019.1c.017-.03.033-.063.052-.094.11-.174.237-.292.276-.259s0,.2-.1.372a.837.837,0,0,1-.063.088l.1-.028c.2-.047.375-.039.389.019s-.138.141-.339.188a.8.8,0,0,1-.108.019l.094.052c.176.11.292.24.262.276s-.2,0-.372-.1l-.091-.061a.785.785,0,0,1,.03.1c.047.2.039.372-.019.386s-.141-.138-.188-.339a.744.744,0,0,1-.019-.108c-.019.03-.033.063-.055.1-.11.174-.237.29-.276.259s0-.2.1-.372c.022-.03.041-.063.063-.091l-.1.03c-.2.044-.375.036-.389-.019s.141-.141.342-.187a.787.787,0,0,1,.1-.022l-.091-.052C272.884,409.317,272.768,409.19,272.8,409.143Z" transform="translate(-197.494 -296.055)" fill="#fbddde"/>
        <path id="Path_699" data-name="Path 699" d="M269.31,412.86c0-.052.149-.1.339-.116h.1a.562.562,0,0,1-.077-.063c-.143-.127-.229-.259-.19-.3s.176.03.32.157a.849.849,0,0,1,.072.069.561.561,0,0,1,0-.1c0-.19.025-.345.077-.348s.108.146.116.334v.1a.76.76,0,0,1,.063-.077c.124-.141.259-.226.3-.193s-.028.182-.154.323a.859.859,0,0,1-.072.069.619.619,0,0,1,.1,0c.188-.014.342.025.348.077s-.149.108-.336.116a.647.647,0,0,1-.1,0l.08.061c.141.127.226.262.193.306s-.182-.03-.323-.157a.885.885,0,0,1-.075-.069.964.964,0,0,1,0,.1c.014.188-.025.345-.077.348s-.1-.146-.116-.337v-.1a.557.557,0,0,1-.063.077c-.127.143-.259.229-.3.193s.03-.179.154-.32a.438.438,0,0,1,.072-.072h-.1C269.47,412.943,269.313,412.916,269.31,412.86Z" transform="translate(-195.034 -298.476)" fill="#fbddde"/>
        <path id="Path_700" data-name="Path 700" d="M274,414.118c0-.039.11-.08.251-.088h.074l-.05-.058c-.108-.094-.171-.2-.146-.223s.135.019.243.116a.443.443,0,0,1,.052.05v-.074c0-.141.019-.259.058-.259s.083.11.088.251a.338.338,0,0,1,0,.075c.014-.017.03-.039.05-.058.094-.108.2-.171.223-.143s-.019.135-.116.24c-.017.022-.036.036-.05.055a.31.31,0,0,1,.074,0c.138,0,.257.019.259.058s-.11.083-.254.088h-.072l.058.047c.1.094.168.2.143.226s-.135-.019-.243-.116a.462.462,0,0,1-.052-.05v.072c0,.143-.019.259-.061.262s-.08-.11-.086-.254a.669.669,0,0,1,0-.072l-.047.055c-.094.108-.2.171-.226.143s.022-.135.116-.24l.052-.052h-.074C274.127,414.184,274,414.159,274,414.118Z" transform="translate(-198.43 -299.504)" fill="#fbddde"/>
        <path id="Path_701" data-name="Path 701" d="M268.92,409.283c0-.052.138-.1.314-.11h.1c-.025-.016-.05-.039-.074-.058-.132-.119-.212-.245-.177-.276s.166.028.3.146l.066.066v-.1c0-.174.022-.32.072-.325s.1.141.11.317a.523.523,0,0,1,0,.094l.061-.074c.119-.132.245-.212.276-.177s-.028.168-.143.3a.757.757,0,0,1-.066.066h.094c.179,0,.325.022.328.072s-.138.1-.317.11h-.091l.072.058c.132.119.215.245.179.276s-.168-.028-.3-.146a.52.52,0,0,1-.069-.066.512.512,0,0,1,0,.094c0,.176-.019.325-.072.328s-.1-.141-.108-.317v-.1a.722.722,0,0,1-.061.075c-.116.135-.243.212-.276.182s.028-.171.146-.3c.019-.025.044-.047.063-.069h-.094C269.069,409.369,268.923,409.336,268.92,409.283Z" transform="translate(-194.751 -295.919)" fill="#fbddde"/>
        <path id="Path_702" data-name="Path 702" d="M271.81,406.95c0-.036.1-.074.229-.08h.072l-.055-.041c-.1-.088-.157-.179-.13-.207s.121.019.221.1l.047.047v-.066c0-.13.017-.237.055-.237s.072.1.08.229a.577.577,0,0,1,0,.069.412.412,0,0,1,.044-.052c.085-.1.179-.157.207-.132s-.022.124-.108.221a.372.372,0,0,1-.047.047h.069c.13,0,.237.017.237.052s-.1.074-.229.083h-.088l.052.044c.1.086.154.177.132.2s-.124-.017-.221-.1l-.05-.047v.069c0,.13-.017.234-.055.237s-.072-.1-.08-.232a.272.272,0,0,1,0-.069l-.044.055c-.085.1-.179.154-.207.13s.019-.121.108-.221l.047-.047h-.069C271.918,407.011,271.81,406.986,271.81,406.95Z" transform="translate(-196.844 -294.355)" fill="#fbddde"/>
        <path id="Path_703" data-name="Path 703" d="M276.14,411.323c0-.044.113-.08.254-.091h.077a.5.5,0,0,1-.061-.047c-.108-.1-.171-.2-.143-.229s.135.022.243.116l.055.055a.349.349,0,0,1,0-.074c0-.143.019-.262.058-.276s.08.113.088.254a.664.664,0,0,0,0,.077l.047-.058c.094-.108.2-.174.226-.143s-.022.135-.116.243l-.052.052h.074c.143,0,.276.019.276.061s-.113.08-.257.088h-.074l.058.047c.108.1.171.2.146.229s-.135-.022-.243-.119a.347.347,0,0,1-.055-.052.694.694,0,0,1,0,.077c0,.143-.017.259-.058.276s-.08-.11-.088-.254a.359.359,0,0,1,0-.077l-.05.061c-.094.1-.2.171-.226.143s.022-.135.116-.243l.052-.055a.56.56,0,0,1-.074,0C276.259,411.39,276.143,411.362,276.14,411.323Z" transform="translate(-199.98 -297.474)" fill="#fbddde"/>
        <path id="Path_704" data-name="Path 704" d="M250.373,408.9c-.579.229-.918.75-.753,1.167a1.012,1.012,0,0,0,1.349.342c.582-.229.918-.75.756-1.167A1.013,1.013,0,0,0,250.373,408.9Z" transform="translate(-180.744 -296.039)" fill="#f5a98d"/>
        <path id="Path_705" data-name="Path 705" d="M250.032,412.945a.359.359,0,1,0,.229-.158A.359.359,0,0,0,250.032,412.945Z" transform="translate(-181.032 -298.924)" fill="#fbddde"/>
        <path id="Path_706" data-name="Path 706" d="M235.5,399.152a.952.952,0,0,1-.593-.474,1.321,1.321,0,0,0-1.605-.77c.1.028.185.064.276.091a.365.365,0,0,0-.177.138.386.386,0,0,0,.654.408.347.347,0,0,0,.025-.32,1.482,1.482,0,0,1,.232.13,2.43,2.43,0,0,1,.689.858,1,1,0,0,0-.017-.24A.855.855,0,0,0,235.5,399.152Z" transform="translate(-168.955 -288.118)" fill="#8f4446"/>
        <path id="Path_707" data-name="Path 707" d="M207.1,439.378a1.844,1.844,0,0,1-1.136-1.978h0c.237-.745,1.084-.9,1.958-.863a25.2,25.2,0,0,1,5.182.952,30.766,30.766,0,0,1,5.169,2.107c.761.444,1.418,1.062,1.081,2.115a1.822,1.822,0,0,1-2.06,1.2A27.664,27.664,0,0,1,212.1,441.6a31.04,31.04,0,0,1-5-2.217Z" transform="translate(-149.122 -316.126)" fill="#f5a98d"/>
        <path id="Path_708" data-name="Path 708" d="M186.946,413.694a56.108,56.108,0,0,1-8.056-11.2l.932-.841a97.38,97.38,0,0,1,9.239,10.144,1.619,1.619,0,0,1-.207,1.931C188.116,414.4,186.946,413.694,186.946,413.694Z" transform="translate(-129.552 -290.865)" fill="#f5a98d"/>
        <path id="Path_709" data-name="Path 709" d="M170.3,391.329a7.249,7.249,0,0,1-3.423-4.531c-.08-.276-.124-.883.345-.924.234-.019.472.077.952.485a9.46,9.46,0,0,1,1.23,1.362c-.16-.5-.414-1.291-.083-1.349.5-.088,1.078,2.573,1.591,3.539a3.033,3.033,0,0,0,.372.64Z" transform="translate(-120.816 -279.438)" fill="#f5a98d"/>
        <path id="Path_710" data-name="Path 710" d="M231.65,472.249l-6.9.03-1.062-11.385a4.429,4.429,0,0,1-1.909-4.964h11.245a13.631,13.631,0,0,1-.152,5.687C231.057,468.609,231.148,471.607,231.65,472.249Z" transform="translate(-160.493 -330.174)" fill="#fbddde"/>
        <path id="Path_711" data-name="Path 711" d="M79.06,368.34a3.226,3.226,0,0,1-.866-.485c-.218-.16-.461-.353-.781-.593a1.654,1.654,0,0,1-.138-.3,7.241,7.241,0,0,0-1.31-2.73,3.253,3.253,0,0,0-2.082-2.146c-4.443-1.1-7.8,2.537-8.07,2.832,0,0-2.518,2.267-1.2,5.149,1.164,2.557,2.89,4.305,4.482,4.664a10.513,10.513,0,0,1,.745,1.682c.367.941,1.561,5.24,1.561,5.24l5.872-1.269c-.648-.6-.709-5.337-.348-5.839a5.906,5.906,0,0,1,1.473-.725c.913-.2,1.5-.916,1.158-1.481a1.826,1.826,0,0,1-.218-.5c0-.223.108-.325.116-.5,0-.077-.055-.1-.132-.1a4.734,4.734,0,0,0-.218-.943.171.171,0,0,0,.033-.3,1.634,1.634,0,0,1-.237-.334c-.108-.245-.276-.6.077-.756C79.631,368.619,79.273,368.412,79.06,368.34Z" transform="translate(-46.516 -262.062)" fill="#f7b49e"/>
        <path id="Path_712" data-name="Path 712" d="M65.015,363.8c-.127-.4-.582-.229-.582-.229.309-.276.985-.138.985-.138-.276-.339.061-1.078.061-1.078a.587.587,0,0,0,.328.728,6.6,6.6,0,0,1,7.574-2.206,9.6,9.6,0,0,1,1.569,1.142c.1.1.2.2.3.3a1.7,1.7,0,0,0,.519-.852s.764,1.826-.485,2.424a7.261,7.261,0,0,1-2.888.3c-1.884.066-2.463,1.167-2.121,2.57.243.99.342,1.233.678,2.524.127.483.157.618.353,1.31.055.2-.226.254-.441.353-.276.124-.4-.21-.45-.3a1.892,1.892,0,0,0-1.627-.99c-.516,0-.618.234-.692.5-.168.634.532,1,1.415,1.583.654.433-.276,1.845-.932,2.151-.485.221-3.635-2.168-4.813-4.747C62.406,366.15,65.015,363.8,65.015,363.8Z" transform="translate(-45.894 -261.027)" fill="#6e262e"/>
        <path id="Path_713" data-name="Path 713" d="M81.877,393.807c.6.466.827,1.134.5,1.492s-1.076.276-1.68-.2-.827-1.131-.5-1.487S81.273,393.343,81.877,393.807Z" transform="translate(-57.968 -284.886)" fill="#f7b49e"/>
        <path id="Path_714" data-name="Path 714" d="M102.2,377.9a2.04,2.04,0,0,0-.361.072,3.061,3.061,0,0,0-.781.375,3.5,3.5,0,0,0-.681.574c-.165.185-.276.306-.276.306h0a.063.063,0,0,1-.094-.085l.24-.353a3.629,3.629,0,0,1,.634-.712,3.36,3.36,0,0,1,.811-.552,2.264,2.264,0,0,1,.444-.157.257.257,0,0,1,.3.215.276.276,0,0,1-.234.317Z" transform="translate(-72.415 -273.278)" fill="#8f4446"/>
        <path id="Path_715" data-name="Path 715" d="M110.854,393.011s-.174.017-.066.143a3.7,3.7,0,0,0,2.234.246v-.08a3.723,3.723,0,0,0-.212-.85A3.4,3.4,0,0,1,110.854,393.011Z" transform="translate(-80.207 -284.216)" fill="#fbddde"/>
        <path id="Path_716" data-name="Path 716" d="M106.264,382.38l.232-.13a1,1,0,0,0-.957.309,1.1,1.1,0,0,0-.245.469,1,1,0,0,0,0,.51,2.884,2.884,0,0,1,.466-.772.3.3,0,0,0,.028-.022.331.331,0,0,0,.03.152.386.386,0,0,0,.7-.32A.353.353,0,0,0,106.264,382.38Z" transform="translate(-76.229 -276.799)" fill="#8f4446"/>
        <path id="Path_717" data-name="Path 717" d="M64.65,681.957l5.24-.016c.182.35.9,1.718,2.157,1.713h2.27c1.71,0,1.9,1.418,1.961,2.463l-7.284.025-.494-.422-.348.425h-3.5Z" transform="translate(-46.82 -493.85)" fill="#17110a"/>
        <path id="Path_718" data-name="Path 718" d="M75.582,528.689l-2.5,19.794-1.594,23.167-7.932-.689,2.361-22.718.08-8.274a48.251,48.251,0,0,1,.163-4.912c-1.619-2.264-.888-6.545-.684-7.477Z" transform="translate(-46.03 -382.063)" fill="#251d1a"/>
        <path id="Path_719" data-name="Path 719" d="M85.39,682.05h5.24c.182.35.891,1.716,2.151,1.716h2.27c1.71,0,1.9,1.426,1.955,2.482H89.728l-.491-.425-.348.425h-3.5Z" transform="translate(-61.839 -493.929)" fill="#251d1a"/>
        <path id="Path_720" data-name="Path 720" d="M81.087,532.41l-.7,19.946.422,22.966H73.125l.108-22.547-1.1-8.925c-.276-1.823-.8-3.878-.8-3.878-1.826-2.1-1.514-6.619-1.4-7.563Z" transform="translate(-50.575 -385.56)" fill="#2c2620"/>
        <path id="Path_721" data-name="Path 721" d="M83.3,412.15l7.7,3.861a17.974,17.974,0,0,1,.532,4.336c-.091,2.466-8.23-6.44-8.23-6.44Z" transform="translate(-60.326 -298.469)" fill="#fbddde"/>
        <path id="Path_722" data-name="Path 722" d="M67.256,438.167V425.394c0-3.475,2.7-6.8,2.7-6.8l6.161,3.188s2.124,3.064,2.124,5.946v24.693c-1.194.127-10.905,1.1-13.354-.621C64.89,451.8,67.256,442.2,67.256,438.167Z" transform="translate(-46.993 -303.132)" fill="#261e18"/>
        <path id="Path_723" data-name="Path 723" d="M80.93,416.735l.6-1.955,8.067,4.948c.494,1.379.276,6.727.276,6.727v6l-3.1-9.929,1-.971-1.407.2Z" transform="translate(-58.609 -300.373)" fill="#302723"/>
        <path id="Path_724" data-name="Path 724" d="M77.492,437.694a16.721,16.721,0,0,0,3.776,2.143,23.811,23.811,0,0,0,12.381,1.655l-1.6-4.631a36.636,36.636,0,0,0-8.922-2.684,22.888,22.888,0,0,0-4.631-.1C76.737,434.211,75.567,436.031,77.492,437.694Z" transform="translate(-55.401 -314.296)" fill="#362c28"/>
        <path id="Path_725" data-name="Path 725" d="M168.328,389.172s2.5-2.957,2.046-5.166a.841.841,0,0,0-1.178-.615,5.7,5.7,0,0,0-1.343,1.465c-.16.179-.328-.165-.243-.411s.124-.452.017-.552c-.24-.2-.615.24-.863.571a8.416,8.416,0,0,0-.9,3.635Z" transform="translate(-120.121 -277.573)" fill="#f7b49e"/>
        <rect id="Rectangle_8" data-name="Rectangle 8" width="1.74" height="3.823" transform="matrix(0.424, -0.906, 0.906, 0.424, 44.687, 111.291)" fill="#fbddde"/>
        <path id="Path_726" data-name="Path 726" d="M132.43,412.963s1.164-1.379,4.076-5.475c1.329-1.87,1.964-3.31,4.137-6.479l3.925,1.715c-4.873,8.757-4.887,8.688-6.9,12.3-.535.963-1.3,1.889-3.585,2.573Z" transform="translate(-95.906 -290.401)" fill="#362c28"/>
      </g>
    </g>
  </g>
</svg>
