<svg xmlns="http://www.w3.org/2000/svg" xmlns:xlink="http://www.w3.org/1999/xlink" width="1320" height="1719.019" viewBox="0 0 1320 1719.019">
  <defs>
    <filter id="Rectangle_38" x="0" y="0" width="1320" height="1719.019" filterUnits="userSpaceOnUse">
      <feOffset dx="20" dy="20" input="SourceAlpha"/>
      <feGaussianBlur stdDeviation="40" result="blur"/>
      <feFlood flood-opacity="0.161"/>
      <feComposite operator="in" in2="blur"/>
      <feComposite in="SourceGraphic"/>
    </filter>
    <radialGradient id="radial-gradient" cx="0.504" cy="0.493" r="0.628" gradientTransform="matrix(0.579, -0.529, 0.36, 0.849, -159.682, -138.386)" gradientUnits="objectBoundingBox">
      <stop offset="0" stop-color="#f29183"/>
      <stop offset="1" stop-color="#f5a98d"/>
    </radialGradient>
    <radialGradient id="radial-gradient-2" cx="0.934" cy="1.105" r="0.626" gradientTransform="matrix(-0.581, -0.529, -0.362, 0.849, -603.947, -205.898)" xlink:href="#radial-gradient"/>
    <radialGradient id="radial-gradient-3" cx="0.499" cy="0.501" r="0.589" gradientTransform="matrix(-0.751, 0, 0, 1, -831.006, 0)" xlink:href="#radial-gradient"/>
  </defs>
  <g id="Layer_1" data-name="Layer 1" transform="translate(100 100)">
    <g transform="matrix(1, 0, 0, 1, -100, -100)" filter="url(#Rectangle_38)">
      <rect id="Rectangle_38-2" data-name="Rectangle 38" width="1080" height="1479.019" transform="translate(100 100)" fill="#fff"/>
    </g>
    <g id="car" transform="translate(604.359 1134.325)">
      <g id="Capa_1" data-name="Capa 1" transform="translate(0 0)">
        <path id="Path_6111" data-name="Path 6111" d="M49.33,289.1s4.646,7.249,14.222-1.232,14.3-10.584,22.974-9.3c7.381,1.094,22.288-2.188,24.338-7.658" transform="translate(-16.811 -92.37)" fill="rgba(0,0,0,0)"/>
        <rect id="Rectangle_42" data-name="Rectangle 42" width="9.905" height="17.899" transform="translate(17.395 199.38) rotate(-70.88)" fill="#e58783"/>
        <path id="Path_6112" data-name="Path 6112" d="M28.14,298.291l-1.76-.606,3.242-9.365,1.766.613Z" transform="translate(-8.986 -98.306)" fill="#cb7a6d"/>
        <path id="Path_6113" data-name="Path 6113" d="M51.126,306.271l-1.766-.62L52.6,296.3l1.766.606Z" transform="translate(-16.821 -101.027)" fill="#cb7a6d"/>
        <line id="Line_1" data-name="Line 1" x1="3.229" y2="9.299" transform="translate(20.591 191.154)" fill="none"/>
        <line id="Line_2" data-name="Line 2" x1="3.223" y2="9.292" transform="translate(22.7 191.886)" fill="none"/>
        <line id="Line_3" data-name="Line 3" x1="3.216" y2="9.292" transform="translate(24.808 192.617)" fill="none"/>
        <line id="Line_4" data-name="Line 4" x1="3.229" y2="9.299" transform="translate(26.911 193.349)" fill="none"/>
        <line id="Line_5" data-name="Line 5" x1="3.223" y2="9.299" transform="translate(29.013 194.074)" fill="none"/>
        <line id="Line_6" data-name="Line 6" x1="3.223" y2="9.299" transform="translate(31.122 194.805)" fill="none"/>
        <path id="Path_6114" data-name="Path 6114" d="M111.537,270.29s-.659,8.614-8.475,10.255-13.84.547-18.189,7.249c-1.8,2.735-8.864,8.89-12.713,5.061" transform="translate(-24.595 -92.158)" fill="rgba(0,0,0,0)"/>
        <path id="Path_6115" data-name="Path 6115" d="M70.846,306.169l-17.253,4.745-2.623-9.556,17.26-4.738Z" transform="translate(-17.37 -101.136)" fill="#f4a6a0"/>
        <rect id="Rectangle_43" data-name="Rectangle 43" width="1.872" height="9.905" transform="translate(33.596 200.227) rotate(-15.43)" fill="#cb7a6d"/>
        <path id="Path_6116" data-name="Path 6116" d="M78.842,306.169l-1.793.494-2.63-9.549,1.806-.494Z" transform="translate(-25.366 -101.136)" fill="#cb7a6d"/>
        <line id="Line_7" data-name="Line 7" x2="2.61" y2="9.49" transform="translate(36.862 199.359)" fill="none"/>
        <line id="Line_8" data-name="Line 8" x2="2.603" y2="9.483" transform="translate(39.017 198.773)" fill="none"/>
        <line id="Line_9" data-name="Line 9" x2="2.61" y2="9.49" transform="translate(41.159 198.179)" fill="none"/>
        <line id="Line_10" data-name="Line 10" x2="2.603" y2="9.49" transform="translate(43.314 197.586)" fill="none"/>
        <line id="Line_11" data-name="Line 11" x2="2.61" y2="9.49" transform="translate(45.456 197)" fill="none"/>
        <line id="Line_12" data-name="Line 12" x2="2.616" y2="9.49" transform="translate(47.604 196.407)" fill="none"/>
        <path id="Path_6117" data-name="Path 6117" d="M22.15,281.331s4.376-4.106,12.719-.415,21.01,1.437,25.7.824c9.431-1.232,20.39,6.894,30.368,2.518S100.6,273.39,100.6,273.39" transform="translate(-7.543 -93.215)" fill="rgba(0,0,0,0)"/>
        <rect id="Rectangle_44" data-name="Rectangle 44" width="17.899" height="9.905" transform="translate(0 197.597) rotate(-44.88)" fill="#f4a6a0"/>
        <path id="Path_6118" data-name="Path 6118" d="M8.31,304.829l-1.325,1.318L0,299.128l1.318-1.318Z" transform="translate(0.009 -101.542)" fill="#cb7a6d"/>
        <rect id="Rectangle_45" data-name="Rectangle 45" width="1.865" height="9.905" transform="matrix(0.708, -0.706, 0.706, 0.708, 11.363, 186.274)" fill="#cb7a6d"/>
        <line id="Line_13" data-name="Line 13" x2="6.946" y2="6.973" transform="translate(2.421 195.227)" fill="none"/>
        <line id="Line_14" data-name="Line 14" x2="6.94" y2="6.973" transform="translate(4.003 193.652)" fill="none"/>
        <line id="Line_15" data-name="Line 15" x2="6.94" y2="6.973" transform="translate(5.584 192.083)" fill="none"/>
        <line id="Line_16" data-name="Line 16" x2="6.94" y2="6.973" transform="translate(7.16 190.508)" fill="none"/>
        <line id="Line_17" data-name="Line 17" x2="6.94" y2="6.973" transform="translate(8.741 188.933)" fill="none"/>
        <line id="Line_18" data-name="Line 18" x2="6.94" y2="6.973" transform="translate(10.323 187.365)" fill="none"/>
        <rect id="Rectangle_46" data-name="Rectangle 46" width="121.493" height="18.572" transform="translate(132.409 123.471)" fill="#575756"/>
        <rect id="Rectangle_47" data-name="Rectangle 47" width="121.493" height="3.275" transform="translate(132.409 123.471)" fill="#7c7c7b"/>
        <line id="Line_19" data-name="Line 19" x2="112.391" transform="translate(133.134 129.904)" fill="none"/>
        <rect id="Rectangle_48" data-name="Rectangle 48" width="20.944" height="2.366" transform="translate(165.598 132.784)" fill="#3c3c3b"/>
        <path id="Path_6119" data-name="Path 6119" d="M222.1,199.619l12.041.791L228.5,181.166c-1.654-5.74-6.656-9.945-9.721-9.273a3.954,3.954,0,0,0-2.821,4.963Z" transform="translate(-73.568 -58.584)" fill="#3c322d"/>
        <rect id="Rectangle_49" data-name="Rectangle 49" width="207.345" height="27.673" transform="translate(120.21 149.325)" fill="#eed596"/>
        <path id="Path_6120" data-name="Path 6120" d="M254.477,179.433c1.021-.659,1.766-1.839,1.358-2.847h0c-.409-1-1.588-1.127-2.794-.982A34.43,34.43,0,0,0,246,177.456a42.224,42.224,0,0,0-6.907,3.453c-1,.659-1.839,1.615-1.265,3.032a2.524,2.524,0,0,0,2.972,1.43,38.308,38.308,0,0,0,7.025-2.359A43.805,43.805,0,0,0,254.477,179.433Z" transform="translate(-81.017 -59.856)" fill="#e8937c"/>
        <path id="Path_6121" data-name="Path 6121" d="M262.595,171.479a77.555,77.555,0,0,0,9.886-16.318L271.1,154.1s-7.961,8.89-11.665,14.98a2.237,2.237,0,0,0,.494,2.636C261.046,172.579,262.595,171.479,262.595,171.479Z" transform="translate(-88.371 -52.541)" fill="#e8937c"/>
        <path id="Path_6122" data-name="Path 6122" d="M277.31,150.814a9.953,9.953,0,0,1,4.93-6.116c.343-.2,1.14-.468,1.358.152.112.3.053.659-.329,1.437a12.8,12.8,0,0,1-1.417,2.109c.626-.382,1.595-.989,1.786-.56.283.659-3.1,2.307-4.218,3.3a4.373,4.373,0,0,0-.731.718Z" transform="translate(-94.545 -49.256)" fill="#e8937c"/>
        <path id="Path_6123" data-name="Path 6123" d="M57.38,89.582A11.171,11.171,0,0,1,70.758,71.788a11.171,11.171,0,1,1,19.468-9.642h0l2.636,28.338a3.125,3.125,0,0,1,2.267,1.977l-1.483,1.16a13.113,13.113,0,0,0-1.18-2.267L64.491,92.435A11.091,11.091,0,0,1,57.38,89.582Z" transform="translate(-18.283 -18.227)" fill="#ec665e"/>
        <path id="Path_6124" data-name="Path 6124" d="M115,112.16s12.614,11.81,20.107,13.247,28.734-.158,38.632,1.595,22.183,5.931,29.05,3.671,21.089,3.19,25.221,6.7,16.12,22.829,27.772,22.031" transform="translate(-39.202 -38.241)" fill="rgba(0,0,0,0)"/>
        <path id="Path_6125" data-name="Path 6125" d="M50.358,128.659a11.164,11.164,0,0,1,13.668-4.91,11.171,11.171,0,1,1,17.425-12.64l8.067,26.809a13.284,13.284,0,0,0,2.531.382l-.613,1.779a3.125,3.125,0,0,1-2.577-1.516L61.225,145.3h0a11.164,11.164,0,0,1-10.874-16.634Z" transform="translate(-16.659 -35.404)" fill="#f29797"/>
        <path id="Path_6126" data-name="Path 6126" d="M185,90.84s10.208,12.772,22.822,16.924S246.33,125.558,250,129.229s8.739,8.06,25.663,2.952" transform="translate(-63.07 -30.972)" fill="rgba(0,0,0,0)"/>
        <path id="Path_6127" data-name="Path 6127" d="M143.777,52.64a11.164,11.164,0,1,1,16.957-13.583,11.2,11.2,0,1,1,21.333,2.992L169.282,66.961a12.686,12.686,0,0,0,1.555,2.03l-1.681.857a3.12,3.12,0,0,1-.8-2.88Z" transform="translate(-47.55 -8.964)" fill="#ec665e"/>
        <path id="Path_6128" data-name="Path 6128" d="M145,63.48a20.687,20.687,0,0,0,9.885,14.5c8.936,5.272,34.632,12.765,41.176,20.746s14.367,8.936,20.595,10.215,18.677,8.778,21.55,12.133,11.329,12.291,20.43,12.93" transform="translate(-49.431 -21.643)" fill="rgba(0,0,0,0)"/>
        <path id="Path_6129" data-name="Path 6129" d="M99.637,20.561a11.164,11.164,0,0,1,20.806-7.908,11.171,11.171,0,1,1,21.61,2.221h0L129.175,40.2a3.091,3.091,0,0,1,.883,2.854l-1.872.191A13.1,13.1,0,0,0,128.4,40.7l-24.252-14a11.131,11.131,0,0,1-4.508-6.136Z" transform="translate(-33.811 0.003)" fill="#fbddde"/>
        <path id="Path_6130" data-name="Path 6130" d="M94.107,72.2a11.2,11.2,0,0,1,12.278-7.737A11.171,11.171,0,1,1,120.225,47.7h0l13.952,24.78a3.126,3.126,0,0,1,2.86.85l-.877,1.661a13.008,13.008,0,0,0-1.977-1.588l-25.1,12.416A11.164,11.164,0,0,1,94.107,72.2Z" transform="translate(-31.906 -14.751)" fill="#f8c3c5"/>
        <path id="Path_6131" data-name="Path 6131" d="M157.91,89.15s14.248,3.111,18.677,7.065,17.352,17.352,25.617,17.715,19.514,2.873,24.542,6.59,13.642,8.857,15.56,9.339,8.139,6.1,9.1,14.248" transform="translate(-53.833 -30.396)" fill="rgba(0,0,0,0)"/>
        <path id="Path_6132" data-name="Path 6132" d="M225.18,102s3.954,10.69,13.886,15.817,22.546,11.612,26.058,16.562,23.429,10.413,34.27,8.337" transform="translate(-76.77 -34.777)" fill="rgba(0,0,0,0)"/>
        <path id="Path_6133" data-name="Path 6133" d="M169.9,73.15a11.164,11.164,0,0,1,15.876-15.612,11.171,11.171,0,1,1,20.694-6.643h0l-1.628,28.391a3.22,3.22,0,0,1,1.977,2.26l-1.634.923a13.334,13.334,0,0,0-.83-2.419l-27.831-3.1A11.059,11.059,0,0,1,169.9,73.15Z" transform="translate(-57.02 -13.835)" fill="#f8c3c5"/>
        <path id="Path_6134" data-name="Path 6134" d="M99.046,142.878a11.2,11.2,0,0,1,6.412-13.029,11.164,11.164,0,0,1-3.809-21.933,11.032,11.032,0,0,1,6.828.415h0l24.878,13.78a3.122,3.122,0,0,1,2.88-.778l.125,1.872a13.555,13.555,0,0,0-2.537-.3l-14.861,23.725a11.2,11.2,0,0,1-19.883-3.756Z" transform="translate(-31.783 -36.673)" fill="#fbddde"/>
        <path id="Path_6135" data-name="Path 6135" d="M157.12,128.77s8.936-3.671,25.043.158,23.139,3.836,32.556,4.152,20.746,3.671,27.8,9.259,26.651,23.784,31.442,19.771" transform="translate(-53.564 -43.364)" fill="rgba(0,0,0,0)"/>
        <path id="Path_6136" data-name="Path 6136" d="M179.89,131.05s4.468,6.386,11.2,6.544,49.177,1.555,57.955,7.144,11.632,1.793,18.657-.125" transform="translate(-61.328 -44.682)" fill="rgba(0,0,0,0)"/>
        <path id="Path_6137" data-name="Path 6137" d="M122.37,107.5a11.171,11.171,0,0,1,13.774-17.5,11.164,11.164,0,1,1,19.692-9.2h0l1.977,28.371a3.106,3.106,0,0,1,2.221,1.977l-1.5,1.12a13.537,13.537,0,0,0-1.127-2.293l-28,.448A11.078,11.078,0,0,1,122.37,107.5Z" transform="translate(-40.496 -24.523)" fill="#f29797"/>
        <path id="Path_6138" data-name="Path 6138" d="M249.629,178.767h0a29.76,29.76,0,0,0-3.684-3.829,6.88,6.88,0,0,1-2.636-4.528v-1.167a12.283,12.283,0,0,1,.969-4.152l-6.748-.982a6.841,6.841,0,0,1,.461,2.88c-.336,2.076-.389,3.743-1.654,5.885a19.238,19.238,0,0,0-2.036,6.32v.2h15.336v-.619Z" transform="translate(-79.88 -55.954)" fill="#f5a98d"/>
        <path id="Path_6139" data-name="Path 6139" d="M251.356,180.277a.422.422,0,0,0,.5.329.415.415,0,0,0,.329-.494.422.422,0,0,0-.494-.336A.428.428,0,0,0,251.356,180.277Z" transform="translate(-85.692 -61.293)" fill="#fbddde"/>
        <path id="Path_6140" data-name="Path 6140" d="M250.065,180.376a.415.415,0,0,0,.5.329.424.424,0,1,0-.5-.329Z" transform="translate(-85.252 -61.327)" fill="#fbddde"/>
        <path id="Path_6141" data-name="Path 6141" d="M248.745,180.347a.422.422,0,1,0,.06-.319A.422.422,0,0,0,248.745,180.347Z" transform="translate(-84.802 -61.317)" fill="#fbddde"/>
        <path id="Path_6142" data-name="Path 6142" d="M247.5,180.243a.428.428,0,0,0,.5.329.422.422,0,0,0,.329-.5.428.428,0,0,0-.5-.336A.435.435,0,0,0,247.5,180.243Z" transform="translate(-84.376 -61.28)" fill="#fbddde"/>
        <path id="Path_6143" data-name="Path 6143" d="M246.206,180.092a.428.428,0,0,0,.5.336.422.422,0,1,0-.5-.336Z" transform="translate(-83.937 -61.234)" fill="#fbddde"/>
        <path id="Path_6144" data-name="Path 6144" d="M244.926,179.859a.422.422,0,1,0,.329-.5A.422.422,0,0,0,244.926,179.859Z" transform="translate(-83.5 -61.152)" fill="#fbddde"/>
        <path id="Path_6145" data-name="Path 6145" d="M243.755,179.466a.428.428,0,0,0,.507.33.425.425,0,1,0-.507-.33Z" transform="translate(-83.101 -61.017)" fill="#fbddde"/>
        <path id="Path_6146" data-name="Path 6146" d="M242.615,179.065a.415.415,0,0,0,.494.329.422.422,0,1,0-.165-.824.408.408,0,0,0-.329.494Z" transform="translate(-82.711 -60.879)" fill="#fbddde"/>
        <path id="Path_6147" data-name="Path 6147" d="M241.445,178.6a.422.422,0,1,0,.06-.319A.424.424,0,0,0,241.445,178.6Z" transform="translate(-82.313 -60.72)" fill="#fbddde"/>
        <path id="Path_6148" data-name="Path 6148" d="M240.395,177.957a.422.422,0,0,0,.494.336.442.442,0,0,0,.336-.5.428.428,0,0,0-.5-.336.415.415,0,0,0-.33.5Z" transform="translate(-81.954 -60.502)" fill="#fbddde"/>
        <path id="Path_6149" data-name="Path 6149" d="M239.375,177.4a.424.424,0,1,0,.33-.494.415.415,0,0,0-.33.494Z" transform="translate(-81.607 -60.314)" fill="#fbddde"/>
        <path id="Path_6150" data-name="Path 6150" d="M238.265,176.887a.415.415,0,0,0,.494.33.423.423,0,1,0-.165-.83.415.415,0,0,0-.33.5Z" transform="translate(-81.228 -60.137)" fill="#fbddde"/>
        <path id="Path_6151" data-name="Path 6151" d="M237.2,176.207a.422.422,0,1,0,.06-.319.422.422,0,0,0-.06.319Z" transform="translate(-80.864 -59.905)" fill="#fbddde"/>
        <path id="Path_6152" data-name="Path 6152" d="M243.273,148.239a3.19,3.19,0,0,0,2.5,1.516c.336,0,.514.31.336.494a1.364,1.364,0,0,0-.066,1.456c.185.448-.053.659.178.929.092.119.079.514.185.567s.435.25.283.481c0,0-.185.409.468,1.232s-.112,1.832-1.318,2.26c-.745.27-4.073,1.364-4.87,1.634a41.962,41.962,0,0,1-4.976,1.5,11.364,11.364,0,0,1-2.267-.217c-3.519-.145-8.917-5.648-5.417-12.627.909-1.8,5.127-4.027,8.3-4.488a4.547,4.547,0,0,1,4.033,1.232,11.052,11.052,0,0,1,2.412,3.631Z" transform="translate(-77.452 -48.723)" fill="#f5a98d"/>
        <path id="Path_6153" data-name="Path 6153" d="M248.406,150.144a3.3,3.3,0,0,0-1.6.514,3.454,3.454,0,0,0-1.167,1.318.1.1,0,0,1-.132.066.112.112,0,0,1-.059-.138l.231-.56a3.526,3.526,0,0,1,.824-1.074,3.955,3.955,0,0,1,1.806-.9h0a.4.4,0,1,1,.145.791Z" transform="translate(-83.678 -50.925)" fill="#b25a5a"/>
        <path id="Path_6154" data-name="Path 6154" d="M255.33,157.39a2.636,2.636,0,0,1,.369.923l-1.779.132Z" transform="translate(-86.569 -53.663)" fill="#fbddde"/>
        <path id="Path_6155" data-name="Path 6155" d="M254.865,156.254c-.145.059-.237.152-.461.475a7.34,7.34,0,0,1-1.384,1.285c-.105.072-.059.224.053.2a3.4,3.4,0,0,0,2.188-1.358s.231-.369,0-.547A.376.376,0,0,0,254.865,156.254Z" transform="translate(-86.242 -53.265)" fill="#ee7677"/>
        <path id="Path_6156" data-name="Path 6156" d="M255.623,158.352c-.158-.04-.29,0-.659.119a6.635,6.635,0,0,1-1.865.264c-.132,0-.185.152-.086.2a3.434,3.434,0,0,0,2.577.145s.4-.171.323-.448A.363.363,0,0,0,255.623,158.352Z" transform="translate(-86.243 -53.986)" fill="#ee7677"/>
        <path id="Path_6157" data-name="Path 6157" d="M249.878,152.648a1.346,1.346,0,0,0-1.891-.138,1.318,1.318,0,0,0-.382,1.845,5.14,5.14,0,0,1,.949-1.127A2.887,2.887,0,0,1,249.878,152.648Z" transform="translate(-84.339 -51.894)" fill="#e88175"/>
        <path id="Path_6158" data-name="Path 6158" d="M250.034,157.587c.132.771-.692,1.555-1.852,1.76s-2.208-.257-2.34-1.022.692-1.555,1.852-1.76S249.9,156.836,250.034,157.587Z" transform="translate(-83.811 -53.366)" fill="url(#radial-gradient)"/>
        <path id="Path_6159" data-name="Path 6159" d="M240.117,142.129a7.985,7.985,0,0,1-2.564.27,6.933,6.933,0,0,0-1.9.092c-8.291,1.463-10.222,7.447-8.936,11.678a2.735,2.735,0,0,0-1.318,1.681,3.011,3.011,0,0,0,.033,1.41,2.636,2.636,0,0,0-.079,1.068,1.9,1.9,0,0,0,.389.942,2.432,2.432,0,0,0,.112,2.372c.89,1.76,2.1,1.8,2.966,1.522a3.019,3.019,0,0,0,1.14.461,2.228,2.228,0,0,0,.811,0,1.891,1.891,0,0,0,2.234-.138,3.48,3.48,0,0,0,1.443-3.427,3.422,3.422,0,0,0,.422-.059,2.727,2.727,0,0,1,0,.567,3.7,3.7,0,0,1-.224.9,3.955,3.955,0,0,0,.422-.857,4.273,4.273,0,0,0,.125-.5.961.961,0,0,0,.046.2,4.663,4.663,0,0,1,.059.8,5.93,5.93,0,0,1-.264,1.615,5.536,5.536,0,0,0,.507-2.445,5.194,5.194,0,0,0-.072-.547,2.946,2.946,0,0,0,.382-2.768,8.054,8.054,0,0,0-1.885-2.748c1.667-.916,3.539-1.793,3.532-4.969,0-2.28,0-4.93,1.806-5.035a1.894,1.894,0,0,0,.422-.066h0C241.587,143.678,240.7,141.793,240.117,142.129ZM225.77,159.218a1.766,1.766,0,0,1-.224-.9,2.383,2.383,0,0,1,.059-.435,6.843,6.843,0,0,0,.428.989,1.733,1.733,0,0,0-.264.349Zm4.29,4.079a2.636,2.636,0,0,1-.58-.422,3.028,3.028,0,0,0,.369-.244,3.11,3.11,0,0,0,.732.85,2.136,2.136,0,0,1-.547-.185Z" transform="translate(-76.82 -48.446)" fill="#8f4446"/>
        <path id="Path_6160" data-name="Path 6160" d="M227.412,159.577c-.04-.066-.264,0-.507.152l-.125.086.04-.145c.066-.277.053-.521,0-.54s-.2.191-.264.475a1.367,1.367,0,0,0,0,.145l-.066-.132c-.158-.244-.336-.4-.4-.362s0,.277.145.521l.086.125a.521.521,0,0,0-.145-.04c-.283-.066-.514-.059-.534,0s.185.191.468.257h.152l-.132.072c-.244.152-.409.33-.362.4s.27,0,.514-.152l.125-.086a.591.591,0,0,0-.04.145c-.073.277-.053.521,0,.54s.2-.2.264-.475a1.116,1.116,0,0,0,0-.145l.079.132c.152.244.323.4.4.363s0-.277-.145-.521a.814.814,0,0,0-.092-.119l.145.04c.283.059.521.046.54,0s-.191-.2-.468-.264h-.152l.132-.072C227.3,159.828,227.465,159.65,227.412,159.577Z" transform="translate(-76.926 -54.256)" fill="#fbddde"/>
        <path id="Path_6161" data-name="Path 6161" d="M229.538,162.045c0-.079-.2-.152-.468-.165h-.138a.7.7,0,0,0,.105-.092c.2-.171.323-.356.27-.415s-.25.04-.448.217l-.1.1v-.138c0-.264-.04-.475-.112-.481s-.145.2-.158.461a1.017,1.017,0,0,0,0,.138l-.086-.105c-.171-.191-.362-.316-.415-.264s.04.25.211.442l.1.1h-.145c-.257,0-.468.033-.474.105s.2.152.468.165h.138l-.112.086c-.191.178-.31.362-.264.422s.244-.04.448-.217l.1-.092a.825.825,0,0,0,0,.138c0,.257,0,.475.1.481s.152-.2.165-.468a.97.97,0,0,0,0-.138.6.6,0,0,0,.086.105c.178.2.362.316.415.264s-.04-.244-.211-.442a.7.7,0,0,0-.1-.1h.138C229.314,162.164,229.538,162.118,229.538,162.045Z" transform="translate(-77.622 -54.918)" fill="#fbddde"/>
        <path id="Path_6162" data-name="Path 6162" d="M227.047,162.622c0-.059-.152-.112-.349-.125h-.105l.086-.066c.145-.125.231-.27.2-.31s-.191,0-.336.165a.342.342,0,0,0-.073.066v-.105c0-.191,0-.356-.086-.356s-.112.152-.119.349v.105a.966.966,0,0,1-.066-.086c-.132-.145-.27-.237-.316-.2s0,.191.165.336l.072.073h-.105c-.191,0-.356,0-.362.086s.158.112.356.119h.1l-.079.059c-.152.132-.237.27-.2.31s.191,0,.336-.158a.376.376,0,0,0,.072-.072v.105c0,.2,0,.356.079.362s.105-.158.125-.349v-.105a.347.347,0,0,0,.066.079c.125.145.264.237.31.2s0-.185-.165-.33l-.066-.073h.1C226.882,162.734,227.04,162.694,227.047,162.622Z" transform="translate(-76.93 -55.198)" fill="#fbddde"/>
        <path id="Path_6163" data-name="Path 6163" d="M229.826,159.936c0-.072-.191-.138-.435-.152h-.132l.1-.079c.185-.165.3-.336.25-.389s-.237,0-.415.2l-.1.092a.812.812,0,0,0,0-.132c0-.244,0-.448-.1-.455s-.138.2-.152.442a.441.441,0,0,0,0,.132,1.206,1.206,0,0,0-.086-.105c-.165-.185-.343-.3-.389-.244s.033.231.2.415l.086.092h-.125c-.244,0-.448.033-.448.1s.191.138.435.152h.132l-.105.079c-.178.165-.3.343-.25.4s.237-.04.422-.2c.04,0,.066-.066.1-.1v.132c0,.244,0,.448.1.455s.145-.191.158-.442v-.132a.6.6,0,0,0,.086.105c.158.185.336.3.389.25s-.039-.237-.2-.422l-.086-.092h.125C229.622,160.048,229.82,160,229.826,159.936Z" transform="translate(-77.759 -54.219)" fill="#fbddde"/>
        <path id="Path_6164" data-name="Path 6164" d="M228.389,158.442c0-.053-.138-.1-.316-.112h-.1l.079-.059c.132-.125.217-.25.185-.283s-.171,0-.31.145l-.066.066a.509.509,0,0,1,0-.1c0-.178,0-.323-.079-.33s-.105.138-.112.323v.092l-.059-.073c-.119-.132-.244-.217-.29-.178s.033.165.152.3l.066.066h-.092c-.185,0-.336,0-.336.079s.145.1.316.112h.1a.29.29,0,0,0-.072.059c-.132.119-.211.244-.185.283s.178,0,.31-.145l.066-.066v.092c0,.178,0,.33.072.33s.1-.138.112-.316a.252.252,0,0,0,0-.1l.059.073c.119.138.244.217.283.185s0-.171-.145-.3a.343.343,0,0,0-.066-.073h.1C228.244,158.521,228.389,158.488,228.389,158.442Z" transform="translate(-77.428 -53.793)" fill="#fbddde"/>
        <path id="Path_6165" data-name="Path 6165" d="M225.834,161.038c0-.059-.158-.112-.356-.119a.558.558,0,0,0-.105,0,.457.457,0,0,0,.086-.072c.152-.132.237-.27.2-.31s-.185,0-.336.158l-.073.072v-.1c0-.2,0-.362-.079-.369s-.112.158-.125.356v.105l-.066-.086c-.132-.145-.27-.237-.316-.2s.033.191.165.336l.073.072h-.086c-.191,0-.362,0-.362.079s.158.112.356.125h.1l-.079.066c-.152.132-.237.27-.2.316s.185,0,.336-.165l.072-.072v.105c0,.2,0,.356.079.362s.119-.152.132-.349v-.105l.059.079c.138.145.277.237.323.2s0-.185-.165-.33a.416.416,0,0,0-.073-.079h.079C225.669,161.13,225.827,161.1,225.834,161.038Z" transform="translate(-76.521 -54.655)" fill="#fbddde"/>
        <path id="Path_6166" data-name="Path 6166" d="M239.256,159.275c.811.316,1.279,1.041,1.048,1.615a1.4,1.4,0,0,1-1.865.475c-.8-.316-1.272-1.041-1.048-1.615S238.432,158.958,239.256,159.275Z" transform="translate(-80.914 -54.256)" fill="#f5a98d"/>
        <path id="Path_6167" data-name="Path 6167" d="M241.108,161.655a.494.494,0,0,1-.158.659.487.487,0,1,1,.158-.685Z" transform="translate(-81.89 -55.035)" fill="#fbddde"/>
        <path id="Path_6168" data-name="Path 6168" d="M246.75,154.582a1.318,1.318,0,0,0,.817-.659,1.82,1.82,0,0,1,.573-.764,1.931,1.931,0,0,1,1.641-.3l-.382.132a.461.461,0,0,1,.244.191.534.534,0,0,1-.9.567.527.527,0,0,1-.04-.455,3.629,3.629,0,0,0-.316.184,3.427,3.427,0,0,0-.956,1.193,1.876,1.876,0,0,1,0-.336A1.14,1.14,0,0,1,246.75,154.582Z" transform="translate(-84.125 -52.094)" fill="#8f4446"/>
        <path id="Path_6169" data-name="Path 6169" d="M235.912,209.015l9.536.04,1.47-15.751a6.1,6.1,0,0,0,2.636-6.854h-15.56a18.663,18.663,0,0,0,.211,7.869C236.716,203.98,236.6,208.126,235.912,209.015Z" transform="translate(-79.666 -63.572)" fill="#fbddde"/>
        <path id="Path_6170" data-name="Path 6170" d="M289.831,198.9l11.988,1.081-5.173-19.343c-1.509-5.78-6.412-10.1-9.483-9.5a3.954,3.954,0,0,0-2.952,4.89Z" transform="translate(-96.85 -58.329)" fill="#3c322d"/>
        <path id="Path_6171" data-name="Path 6171" d="M363.987,201.351l-26.157-8.4.975-2.985,26.15,8.389Z" transform="translate(-115.18 -64.772)" fill="#3c322d"/>
        <rect id="Rectangle_50" data-name="Rectangle 50" width="17.339" height="2.748" transform="translate(218.796 133.95) rotate(-68.89)" fill="#3c322d"/>
        <path id="Path_6172" data-name="Path 6172" d="M373.185,183.141l-4.257,3.223-29-37.9,3.229-2.373Z" transform="translate(-115.896 -49.81)" fill="#8cd3f6"/>
        <path id="Path_6173" data-name="Path 6173" d="M369.729,185.754l-4.257,3.223L336.25,150.793l4.251-3.223Z" transform="translate(-114.641 -50.315)" fill="#f4a6a0"/>
        <path id="Path_6174" data-name="Path 6174" d="M314.851,149.857a4.047,4.047,0,0,1-.83-.9c-.191-.264-.4-.587-.659-.989a1.684,1.684,0,0,1-.046-.4,8.426,8.426,0,0,0-.507-3.691,3.954,3.954,0,0,0-1.621-3.3c-4.778-2.985-10.083,0-10.512.25,0,0-3.8,1.7-3.354,5.575.4,3.434,1.746,6.129,3.473,7.151a12.969,12.969,0,0,1,.231,2.254c.079,1.232-.152,6.729-.152,6.729l8.231-.949c-.534-.949.31-4.824.916-5.272a7.164,7.164,0,0,1,1.977-.29c1.147.112,2.109-.507,1.924-1.318a2.055,2.055,0,0,1-.072-.659c.072-.264.251-.336.323-.54.033-.092,0-.145-.119-.171a5.75,5.75,0,0,0,.105-1.186c.231-.073.211-.237.152-.336a1.98,1.98,0,0,1-.145-.481c-.033-.323-.105-.8.369-.857C315.4,150.391,315.056,150.016,314.851,149.857Z" transform="translate(-101.355 -47.482)" fill="#f7b49e"/>
        <path id="Path_6175" data-name="Path 6175" d="M300.275,140.347c0-.514-.593-.488-.593-.488.475-.217,1.206.211,1.206.211-.185-.494.481-1.239.481-1.239a.718.718,0,0,0,.112.962,8.132,8.132,0,0,1,9.694.29,12.074,12.074,0,0,1,1.4,1.931c.079.152.165.31.237.461a2.162,2.162,0,0,0,.936-.8s.2,2.432-1.489,2.636c-.975.2-2.32-.409-3.493-.745-2.234-.659-3.3.428-3.453,2.2-.092,1.252-.072,1.575-.165,3.209-.033.613-.053.784-.086,1.661,0,.257-.362.218-.659.25s-.382-.4-.415-.521a2.32,2.32,0,0,0-1.522-1.766c-.613-.191-.817.046-1,.33-.448.659.237,1.364,1.048,2.386.6.758-1,2.063-1.9,2.168-.659.073-3.434-3.915-3.836-7.381C296.333,142.107,300.275,140.347,300.275,140.347Z" transform="translate(-101.172 -47.165)" fill="#6e262e"/>
        <path id="Path_6176" data-name="Path 6176" d="M305.889,154.563c.527.771.534,1.634,0,1.931s-1.364-.092-1.885-.863-.54-1.641,0-1.931S305.362,153.792,305.889,154.563Z" transform="translate(-103.511 -52.372)" fill="#f7b49e"/>
        <path id="Path_6177" data-name="Path 6177" d="M318.4,150.477a3.5,3.5,0,0,0-1.516.105,4.276,4.276,0,0,0-1,.428l-.455.224h0a.086.086,0,0,1-.112-.033.092.092,0,0,1,0-.105l.435-.3a4.362,4.362,0,0,1,1-.6,3.868,3.868,0,0,1,1.167-.33,2.024,2.024,0,0,1,.547,0h.059a.332.332,0,1,1-.086.659Z" transform="translate(-107.496 -51.093)" fill="#8f4446"/>
        <path id="Path_6178" data-name="Path 6178" d="M319.026,158.7s-.2-.046-.125.145a4.494,4.494,0,0,0,2.517,1.134v-.1a4.726,4.726,0,0,0,.073-1.074A4.119,4.119,0,0,1,319.026,158.7Z" transform="translate(-108.719 -54.107)" fill="#fbddde"/>
        <path id="Path_6179" data-name="Path 6179" d="M319.055,152.529l.323-.066a1.226,1.226,0,0,0-1.239,0,1.319,1.319,0,0,0-.468.455,1.239,1.239,0,0,0-.191.6,3.524,3.524,0,0,1,.837-.732h.039a.482.482,0,0,0,0,.191.468.468,0,0,0,.527.4.448.448,0,0,0,.415-.5A.409.409,0,0,0,319.055,152.529Z" transform="translate(-108.241 -51.926)" fill="#8f4446"/>
        <path id="Path_6180" data-name="Path 6180" d="M302.49,163.44l8.956,3.124-.778,2.1L302.74,165.6Z" transform="translate(-103.13 -55.726)" fill="#fbddde"/>
        <path id="Path_6181" data-name="Path 6181" d="M301.037,191.042c-.4-3.486-1.483-12.864-1.806-15.606-.488-4.244,2.346-8.686,2.346-8.686l7.974,3.018s3.025,3.447,3.434,6.966l3.486,30.171c-1.443.323-13.181,2.867-16.4,1.127C300.094,208.032,301.63,195.971,301.037,191.042Z" transform="translate(-102 -56.855)" fill="#2b221c"/>
        <path id="Path_6182" data-name="Path 6182" d="M301.85,167.278l.455-2.478,8.212,4.3a14.084,14.084,0,0,1,3.671,8.778l.844,7.328L309.818,173.5l1.074-1.318-1.687.448Z" transform="translate(-102.912 -56.19)" fill="#362c28"/>
        <path id="Path_6183" data-name="Path 6183" d="M334.92,183.72s2.405-2.834,4.027-3.236c2.26-.573,2.518-.264,2.873.877.152.481.283,2.788-1.318,3.776a.554.554,0,0,1-.62,0,7.148,7.148,0,0,0,.211-.705c-1.259,0-2.208,1.555-3.519,2.636Z" transform="translate(-114.188 -61.442)" fill="#f7b49e"/>
        <rect id="Rectangle_51" data-name="Rectangle 51" width="1.971" height="4.963" transform="matrix(0.879, -0.477, 0.477, 0.879, 219.745, 122.136)" fill="#fbddde"/>
        <path id="Path_6184" data-name="Path 6184" d="M301.1,176.392a18.262,18.262,0,0,0,2.017,6.109c3.374,7.2,6.709,9.945,6.709,9.945l4.4-3.836s-1.977-4.659-4.56-9.582a20.684,20.684,0,0,0-3.756-4.738C304.129,172.721,300.953,173.261,301.1,176.392Z" transform="translate(-102.654 -59.135)" fill="#362c28"/>
        <path id="Path_6185" data-name="Path 6185" d="M315.176,192.048a134.22,134.22,0,0,1,11.737-7.058l2.333,4.613c-3.526,2.28-7.493,5.094-11.863,7.724C314.827,198.869,311.156,194.618,315.176,192.048Z" transform="translate(-106.847 -63.074)" fill="#362c28"/>
        <path id="Path_6186" data-name="Path 6186" d="M368.439,195.4h-4.1v11.863h4.1a5.931,5.931,0,0,0,0-11.863Z" transform="translate(-124.219 -66.623)" fill="#acacac"/>
        <rect id="Rectangle_52" data-name="Rectangle 52" width="2.478" height="11.843" transform="translate(237.643 128.777)" fill="#d2d2d2"/>
        <path id="Path_6187" data-name="Path 6187" d="M256.576,262.933a22.453,22.453,0,1,1-22.453-22.453A22.453,22.453,0,0,1,256.576,262.933Z" transform="translate(-72.164 -81.994)" fill="#3c322d"/>
        <path id="Path_6188" data-name="Path 6188" d="M252.6,267.2A14.215,14.215,0,1,1,238.385,253,14.215,14.215,0,0,1,252.6,267.2Z" transform="translate(-76.426 -86.263)" fill="#ededed"/>
        <path id="Path_6189" data-name="Path 6189" d="M251.71,268.153a12.37,12.37,0,1,1-12.368-12.363,12.37,12.37,0,0,1,12.368,12.363Z" transform="translate(-77.38 -87.214)" fill="#575756"/>
        <path id="Path_6190" data-name="Path 6190" d="M250.406,269.551a9.668,9.668,0,1,1-9.666-9.661,9.668,9.668,0,0,1,9.666,9.661Z" transform="translate(-78.778 -88.612)" fill="#706f6f"/>
        <path id="Path_6191" data-name="Path 6191" d="M522.321,228.582c0,5.78-2.814,10.465-6.281,10.465s-6.281-4.686-6.281-10.465,2.807-10.472,6.281-10.472S522.321,222.822,522.321,228.582Z" transform="translate(-173.802 -74.367)" fill="#f4a6a0"/>
        <path id="Path_6192" data-name="Path 6192" d="M519.38,218.15h0v1.107c2.069,1.707,3.493,5.272,3.493,9.365s-1.424,7.651-3.493,9.358v1.107h0c3.467,0,6.281-4.686,6.281-10.465S522.847,218.15,519.38,218.15Z" transform="translate(-177.083 -74.38)" fill="#575756"/>
        <path id="Path_6193" data-name="Path 6193" d="M447.041,191.782c0,5.78-2.814,10.472-6.287,10.472s-6.274-4.692-6.274-10.472,2.807-10.472,6.274-10.472S447.041,186,447.041,191.782Z" transform="translate(-148.134 -61.819)" fill="#f4a6a0"/>
        <path id="Path_6194" data-name="Path 6194" d="M444.083,181.31h-.033v1.114c2.069,1.713,3.493,5.272,3.493,9.365s-1.424,7.651-3.493,9.358v1.107h.033c3.473,0,6.281-4.692,6.281-10.472S447.556,181.31,444.083,181.31Z" transform="translate(-151.398 -61.819)" fill="#575756"/>
        <path id="Path_6195" data-name="Path 6195" d="M375.546,239.981l-.4-24.279a14.6,14.6,0,0,0-2.959-8.389,29.571,29.571,0,0,0-5.213-5.542c-6.2-5.272-13.214-8.436-17.926-10.643a52.228,52.228,0,0,0-18.789-4.87l-8.4-2.6-42.119.2a15.655,15.655,0,0,1,1.826,2.458c3.875,5.549,3.849,14.334-3.124,14.334H182.364c-18.453,0-16.99-14.565-16.99-14.565-27.185,0-55.359,15.421-55.359,15.421-17.478,9.464-15.533,30.975-14.808,38.474l63.728,8.864,5.7-8.864Z" transform="translate(-32.3 -62.62)" fill="#f4a6a0"/>
        <path id="Path_6196" data-name="Path 6196" d="M456.64,262.933a22.46,22.46,0,1,1-22.458-22.453,22.46,22.46,0,0,1,22.458,22.453Z" transform="translate(-140.374 -81.994)" fill="#3c322d"/>
        <path id="Path_6197" data-name="Path 6197" d="M452.651,267.2A14.215,14.215,0,1,1,438.442,253,14.215,14.215,0,0,1,452.651,267.2Z" transform="translate(-144.636 -86.263)" fill="#ededed"/>
        <path id="Path_6198" data-name="Path 6198" d="M451.767,268.154A12.363,12.363,0,1,1,439.4,255.79a12.363,12.363,0,0,1,12.363,12.364Z" transform="translate(-145.598 -87.214)" fill="#575756"/>
        <path id="Path_6199" data-name="Path 6199" d="M450.466,269.551a9.668,9.668,0,1,1-9.666-9.661,9.668,9.668,0,0,1,9.666,9.661Z" transform="translate(-146.992 -88.612)" fill="#706f6f"/>
        <path id="Path_6200" data-name="Path 6200" d="M120.634,260.42a6.92,6.92,0,0,1-6.92,6.92H96.237c-3.822,0-4.007-3.1-4.007-6.92h0c0-3.822.185-6.92,4.007-6.92h17.478A6.92,6.92,0,0,1,120.634,260.42Z" transform="translate(-31.438 -86.434)" fill="#575756"/>
        <path id="Path_6201" data-name="Path 6201" d="M516.072,261.35c0,3.816-1.924,6.742-5.734,6.432-3.051-.25-6-.732-7.618-.975-3.776-.56-6.92-1.641-6.92-5.457h0c0-3.829,3.216-3.8,6.92-4.738.837-.211,4.475-1.074,7.48-1.714C514.016,254.088,516.072,257.534,516.072,261.35Z" transform="translate(-169.043 -86.87)" fill="#575756"/>
        <path id="Path_6202" data-name="Path 6202" d="M154.942,189.56s-.138,1.167-.237,3.223a48.635,48.635,0,0,0,.3,8.462,12.787,12.787,0,0,0,.573,2.636c.152.494.27.732.448,1.456,0,.152.092.171,0,.435a1.977,1.977,0,0,1-.257.659,2.913,2.913,0,0,1-.751.593,21.623,21.623,0,0,1-6.36,1.562c-4.4.593-9.081,1.061-13.728,1.733a121.928,121.928,0,0,0-13.536,2.412,61.292,61.292,0,0,0-11.329,3.776,32.444,32.444,0,0,0-7.2,4.389,20.261,20.261,0,0,0-1.773,1.595l-.606.587.547-.659a16.3,16.3,0,0,1,1.634-1.753,29.973,29.973,0,0,1,7.032-4.93,47.951,47.951,0,0,1,5.272-2.333,56.532,56.532,0,0,1,6.122-1.944,121.561,121.561,0,0,1,13.655-2.636c4.686-.606,9.391-1.008,13.754-1.529a24.733,24.733,0,0,0,6-1.226c.237-.086.3-.211.455-.3,0-.04,0,0,.046,0s0-.2,0-.283a10.876,10.876,0,0,0-.349-1.318,13.945,13.945,0,0,1-.494-2.788,40.913,40.913,0,0,1,.29-8.567C154.712,190.713,154.942,189.56,154.942,189.56Z" transform="translate(-34.251 -64.632)" fill="#d27773"/>
        <path id="Path_6203" data-name="Path 6203" d="M197.465,267.205v-1.9c0-3.249,2.636-3.7,5.892-3.7h47.035c3.249,0,5.885.448,5.885,3.7v1.977s-.277,3.335,2.636,3.335h4a10.5,10.5,0,0,0,2.122-6.347v-6.452a10.577,10.577,0,0,0-10.577-10.584H199.245A10.584,10.584,0,0,0,188.7,257.814v6.452a10.5,10.5,0,0,0,2.122,6.347h3.348A3.117,3.117,0,0,0,197.465,267.205Z" transform="translate(-64.331 -84.296)" fill="#f18d86"/>
        <path id="Path_6204" data-name="Path 6204" d="M137.81,241.841l27.238-.422,27.923-.224,32-.105,32.009.1,27.917.231,27.238.422-27.238.422-27.917.231-32.009.1-32-.1-27.923-.231Z" transform="translate(-46.98 -82.202)" fill="#d27773"/>
        <path id="Path_6205" data-name="Path 6205" d="M474.8,217.975s-1.186-.369-3.3-.844c-1.054-.237-2.326-.573-3.8-.87l-4.976-.9c-1.819-.3-3.809-.336-5.9-.534-2.1-.1-4.363.059-6.683.033l-14.558.1-14.565-.1-12.7-.224c-7.434-.191-12.39-.409-12.39-.409s4.956-.211,12.39-.409l12.7-.224,14.551-.092,14.558.1c2.326,0,4.56,0,6.7.171,2.142.283,4.191.415,6.024.784a87.662,87.662,0,0,1,8.706,2.34C473.643,217.52,474.8,217.975,474.8,217.975Z" transform="translate(-134.99 -72.795)" fill="#d27773"/>
        <path id="Path_6206" data-name="Path 6206" d="M426.9,185.538l-1.608-.224a19.113,19.113,0,0,0-4.218-.178c-3.532.191-8.238.409-12.943.4s-9.418-.112-12.95-.3-5.885-.422-5.885-.422,2.353-.25,5.885-.422,8.238-.323,12.95-.3,9.411.2,12.943.389a23.509,23.509,0,0,1,4.257.659Z" transform="translate(-132.73 -62.765)" fill="#d27773"/>
        <path id="Path_6207" data-name="Path 6207" d="M96.908,240.159a1.654,1.654,0,0,1-1.648-1.628c0-.349-.092-8.726,4.613-13.431a1.65,1.65,0,1,1,2.333,2.333c-3.724,3.724-3.638,10.973-3.638,11.045a1.654,1.654,0,0,1-1.621,1.681Z" transform="translate(-32.471 -76.585)" fill="#575756"/>
        <path id="Path_6208" data-name="Path 6208" d="M96,239.434a1.232,1.232,0,0,1-1.232-1.213c0-.349-.1-8.567,4.481-13.134A1.239,1.239,0,1,1,101,226.833c-3.849,3.849-3.763,11.269-3.756,11.342a1.246,1.246,0,0,1-1.219,1.259Z" transform="translate(-32.304 -76.605)" fill="#ec654b"/>
        <path id="Path_6209" data-name="Path 6209" d="M185.88,147.746s6.7-3.836,10.419-8.139,20.9-10.854,32.293-7.665c16.733,4.679,19.231,11.494,23.066,12.522,7.4,1.977,22.447,11.553,24.958,15.982" transform="translate(-63.37 -44.698)" fill="rgba(0,0,0,0)"/>
        <path id="Path_6210" data-name="Path 6210" d="M129.832,174.415a11.2,11.2,0,0,1,5.114-13.6,11.171,11.171,0,1,1,1.667-21.458l25.65,11.2a13.628,13.628,0,0,0,1.931-1.681l.949,1.621a3.13,3.13,0,0,1-2.814.982l-12.779,25.432h0a11.164,11.164,0,0,1-19.712-2.5Z" transform="translate(-41.46 -47.286)" fill="#ec665e"/>
        <path id="Path_6211" data-name="Path 6211" d="M255.876,179.131c1.081-.573,1.9-1.707,1.575-2.742h0c-.33-1.028-1.5-1.246-2.709-1.193a35.177,35.177,0,0,0-7.17,1.318,42.626,42.626,0,0,0-7.144,2.913c-1.061.613-1.977,1.47-1.5,2.926a2.511,2.511,0,0,0,2.847,1.661,38.159,38.159,0,0,0,7.19-1.819,43.234,43.234,0,0,0,6.907-3.064Z" transform="translate(-81.414 -59.732)" fill="#f5a98d"/>
        <path id="Path_6212" data-name="Path 6212" d="M264.3,171.657A77.615,77.615,0,0,0,275.45,156.15l-1.318-1.16s-8.633,8.244-12.792,14.037a2.271,2.271,0,0,0,.29,2.689C262.645,172.639,264.3,171.657,264.3,171.657Z" transform="translate(-88.988 -52.845)" fill="#f5a98d"/>
        <path id="Path_6213" data-name="Path 6213" d="M281.851,153.385a10.159,10.159,0,0,0,4.732-6.267c.112-.382.178-1.219-.475-1.318-.323,0-.659.112-1.318.659a12.747,12.747,0,0,0-1.707,1.891c.224-.7.573-1.786.112-1.872-.692-.119-1.489,3.565-2.2,4.9a3.8,3.8,0,0,1-.514.89Z" transform="translate(-95.625 -49.711)" fill="#f5a98d"/>
      </g>
    </g>
    <g id="Group_51" data-name="Group 51" transform="translate(57.661 26.286)">
      <path id="Path_6080" data-name="Path 6080" d="M88.66,24.415a18.655,18.655,0,0,0-26.287-7.632C35.239,33.743,96.291,82.077,5.56,178.744,54.742,141.434,111.555,63.421,88.66,24.415Z" transform="translate(412.143 1167.994)" fill="#939985"/>
      <path id="Path_6081" data-name="Path 6081" d="M5.71,93.039c19.5-22.047,32.222-59.357,16.111-75.468a10.175,10.175,0,0,0-13.567,0C-1.922,27.746,34.541,46.4,5.71,93.039Z" transform="translate(424.553 1240.132)" fill="#939985"/>
      <path id="Path_6082" data-name="Path 6082" d="M108.393,72.145a11.871,11.871,0,0,1-8.48,13.567c-22.047,0-5.936-49.182-94.123-69.532C48.188,18.724,108.393,40.771,108.393,72.145Z" transform="translate(431.669 1340.734)" fill="#939985"/>
      <path id="Path_6083" data-name="Path 6083" d="M5.79,16.15c29.679,7.632,60.2,31.374,55.965,53.421A10.175,10.175,0,0,1,50.732,77.2C36.316,74.659,55.819,39.045,5.79,16.15Z" transform="translate(431.455 1338.22)" fill="#939985"/>
      <path id="Path_6084" data-name="Path 6084" d="M92.85,26.315A11.871,11.871,0,0,0,80.13,15.292c-20.351,0,0,45.79-74.62,75.468C47.06,83.129,95.394,55.146,92.85,26.315Z" transform="translate(407.909 1263.609)" fill="#939985"/>
      <path id="Path_6085" data-name="Path 6085" d="M6.19,57.564s39.854-6.784,48.334-28.831V16.014c0-1.7-7.632,0-8.48,6.784A57.661,57.661,0,0,1,6.19,57.564Z" transform="translate(465.244 1275.606)" fill="#939985"/>
      <path id="Path_6086" data-name="Path 6086" d="M5.59,31.875c72.924-21.2,84.8,22.047,100.059,11.871a9.327,9.327,0,0,0,0-14.415C91.234,7.284,40.356,15.763,5.59,31.875Z" transform="translate(414.75 1325.887)" fill="#939985"/>
      <path id="Path_6087" data-name="Path 6087" d="M6.23,28.706a58.509,58.509,0,0,1,46.638,0H63.043c1.7,0,0-8.48-5.088-11.023C37.6,10.051,6.23,28.706,6.23,28.706Z" transform="translate(468.669 1312.944)" fill="#939985"/>
      <path id="Path_6088" data-name="Path 6088" d="M10.2,156.416A18.655,18.655,0,0,0,36.489,163.2C63.623,146.241,2.57,98.755,93.3,1.24,46.664,39.4-10.149,116.562,10.2,156.416Z" transform="translate(445.118 77.621)" fill="#939985"/>
      <path id="Path_6089" data-name="Path 6089" d="M30.2,1.4C9.853,24.295-2.019,61.6,14.092,77.716a11.023,11.023,0,0,0,13.567,0C42.075,67.541,1.373,52.277,30.2,1.4Z" transform="translate(498.226 91.028)" fill="#939985"/>
      <path id="Path_6090" data-name="Path 6090" d="M5.651,13.878A11.871,11.871,0,0,1,17.522.311c22.047,0,5.936,49.182,94.123,69.533C69.247,67.3,7.346,45.252,5.651,13.878Z" transform="translate(409.564 -0.31)" fill="#939985"/>
      <path id="Path_6091" data-name="Path 6091" d="M62.477,61.883C32.8,54.251,2.272,30.508,6.512,8.461A8.48,8.48,0,0,1,17.535.83C31.95,3.374,12.447,38.988,62.477,61.883Z" transform="translate(458.966 10.194)" fill="#939985"/>
      <path id="Path_6092" data-name="Path 6092" d="M6,66.443A11.871,11.871,0,0,0,18.719,77.466c20.351,0,0-45.79,74.62-76.316C58.573,9.63,6,37.612,6,66.443Z" transform="translate(449.36 70.079)" fill="#939985"/>
      <path id="Path_6093" data-name="Path 6093" d="M54.144,1.41S14.29,7.346,5.81,30.241c0,4.24,0,11.023,4.24,12.719s11.871-3.392,11.871-6.784A59.357,59.357,0,0,1,54.144,1.41Z" transform="translate(433.111 91.866)" fill="#939985"/>
      <path id="Path_6094" data-name="Path 6094" d="M110.959,13.252C36.339,34.451,26.164-8.794,9.2,3.077a10.176,10.176,0,0,0,0,15.263C26.164,37.843,77.889,28.516,110.959,13.252Z" transform="translate(429.089 55.433)" fill="#939985"/>
      <path id="Path_6095" data-name="Path 6095" d="M62.483,2.8a58.509,58.509,0,0,1-46.638,0A9.327,9.327,0,0,0,5.67,2.8c0,4.24,0,9.328,5.088,11.023C33.653,20.609,62.483,2.8,62.483,2.8Z" transform="translate(421.309 81.994)" fill="#939985"/>
      <path id="Path_6096" data-name="Path 6096" d="M145.681,36.209C121.09,61.648,60.885,47.232,13.4,22.641L.68,15.858V10.77H12.551C97.347,39.6,123.634-14.669,144.833,5.682a17.807,17.807,0,0,1,.848,30.526Z" transform="translate(-0.68 57.067)" fill="#939985"/>
      <path id="Path_6097" data-name="Path 6097" d="M.68,26.477H6.616c22.047,5.936,45.79,0,54.269-12.719a7.632,7.632,0,0,0,0-11.871C49.862-4.9,43.078,22.237,10.008,22.237Z" transform="translate(-0.68 40.513)" fill="#939985"/>
      <path id="Path_6098" data-name="Path 6098" d="M42.31,33.4a5.088,5.088,0,0,0,0-6.784c0-8.48-20.351,5.088-41.55-25.439C11.783,17.291,29.591,37.642,42.31,33.4Z" transform="translate(6.024 72.593)" fill="#939985"/>
      <path id="Path_6099" data-name="Path 6099" d="M1,1.46S7.784,18.419,17.959,20.115s5.936,0,5.088,0A24.591,24.591,0,0,1,1,1.46Z" transform="translate(26.135 96.056)" fill="#939985"/>
      <path id="Path_6100" data-name="Path 6100" d="M.8,1.22C16.911,30.9.8,41.074.8,47.01a5.088,5.088,0,0,0,6.784,0C17.759,36.834,10.128,13.939.8,1.22Z" transform="translate(9.375 75.945)" fill="#939985"/>
      <path id="Path_6101" data-name="Path 6101" d="M1,1.48a27.135,27.135,0,0,1,0,21.2v5.088c0,.848,0,0,4.24,0S1,1.48,1,1.48Z" transform="translate(26.135 97.732)" fill="#939985"/>
      <path id="Path_6102" data-name="Path 6102" d="M18.3,51.7C42.893,77.144,103.1,61.881,150.583,37.29L163.3,30.506V25.418H151.431C66.635,55.1,40.349.828,19.15,20.331A18.655,18.655,0,0,0,18.3,51.7Z" transform="translate(801.375 1324.712)" fill="#939985"/>
      <path id="Path_6103" data-name="Path 6103" d="M64.925,38.1c-33.07,0-40.7-27.983-50.878-21.2a8.48,8.48,0,0,0,0,12.719c7.632,15.263,32.222,17.807,54.269,11.871h-.848Z" transform="translate(887.034 1312.033)" fill="#939985"/>
      <path id="Path_6104" data-name="Path 6104" d="M13.625,47.554s-5.088,0,0-5.936,19.5,5.088,40.7-25.439C44.151,32.291,26.344,51.794,13.625,47.554Z" transform="translate(902.719 1340.734)" fill="#939985"/>
      <path id="Path_6105" data-name="Path 6105" d="M35.852,16.45S29.068,33.409,18.045,35.105s-5.088,0-5.088,0h0A27.135,27.135,0,0,0,35.852,16.45Z" transform="translate(902.539 1363.359)" fill="#939985"/>
      <path id="Path_6106" data-name="Path 6106" d="M26.336,16.22c-16.959,29.679,0,39.854-5.088,44.942a4.24,4.24,0,0,1-6.784,0C6.832,50.986,16.16,28.091,26.336,16.22Z" transform="translate(928.167 1344.085)" fill="#939985"/>
      <path id="Path_6107" data-name="Path 6107" d="M17.053,16.48a23.742,23.742,0,0,0,0,21.2v4.24h-4.24C8.573,41.919,17.053,16.48,17.053,16.48Z" transform="translate(924.73 1365.872)" fill="#939985"/>
      <path id="Path_6108" data-name="Path 6108" d="M441.832,1290.176H429.113V13.931H6.83V1.1h435Z" transform="translate(522.845 65.889)" fill="#939985"/>
      <path id="Path_6109" data-name="Path 6109" d="M434.835,1277.345v12.831H.68V1.1H12.551V1277.345Z" transform="translate(-0.68 65.889)" fill="#939985"/>
      <path id="Path_6110" data-name="Path 6110" d="M33.815,14.617A13.567,13.567,0,1,1,20.247,1.05,13.567,13.567,0,0,1,33.815,14.617Z" transform="translate(506.573 61.7)" fill="#939985"/>
      <circle id="Ellipse_47" data-name="Ellipse 47" cx="12.719" cy="12.719" r="12.719" transform="translate(420.006 1336.562)" fill="#939985"/>
    </g>
    <g id="fm" transform="translate(794.927 744.352)" opacity="0.85">
      <g id="Capa_1-2" data-name="Capa 1" transform="translate(0)">
        <path id="Path_647" data-name="Path 647" d="M161.07,392.639s.13-6.081,2.971-8.231a1.325,1.325,0,0,1,2.029.5,9.169,9.169,0,0,1,.065,3.127c0,.374.556.148.708-.23s.33-.664.543-.656c.5,0,.478.917.434,1.568a13.069,13.069,0,0,1-2.737,5.212Z" transform="translate(-91.106 -217.264)" fill="#f4a38e"/>
        <rect id="Rectangle_7" data-name="Rectangle 7" width="2.741" height="6.025" transform="matrix(0.41, -0.912, 0.912, 0.41, 68.315, 176.35)" fill="#fbddde"/>
        <path id="Path_648" data-name="Path 648" d="M77.627,435.918a25.837,25.837,0,0,0,5.916,3.427,40.764,40.764,0,0,0,17.171,4.083l.369-7.65a47.749,47.749,0,0,0-14.534-5.321,35.792,35.792,0,0,0-7.293-.226C76.485,430.423,74.621,433.273,77.627,435.918Z" transform="translate(-43.038 -243.285)" fill="#201811"/>
        <path id="Path_649" data-name="Path 649" d="M131.994,420.834s-.061.283,4.426-6.246c2.042-2.98,3.006-5.256,6.329-10.308l6.22,2.606c-7.441,13.926-7.463,13.813-10.538,19.547-.817,1.529-2.828,2.524-6.811,2.354Z" transform="translate(-74.448 -228.657)" fill="#201811"/>
        <path id="Path_650" data-name="Path 650" d="M210.687,441.568c-1.168-.743-2.011-2.1-1.546-3.24h0c.465-1.142,1.811-1.3,3.18-1.121a39.528,39.528,0,0,1,8.019,2.107,48.053,48.053,0,0,1,7.853,3.931c1.142.786,2.1,1.842,1.446,3.449a2.87,2.87,0,0,1-3.384,1.633,43.444,43.444,0,0,1-8-2.689,49.262,49.262,0,0,1-7.571-4.07Z" transform="translate(-118.222 -247.246)" fill="#e8937c"/>
        <path id="Path_651" data-name="Path 651" d="M196.164,419.893a88.208,88.208,0,0,1-11.294-18.569l1.564-1.2s9.065,10.112,13.261,17.049c0,0,.869,1.907-.56,3.041C197.91,421.148,196.164,419.893,196.164,419.893Z" transform="translate(-104.568 -226.304)" fill="#e8937c"/>
        <path id="Path_652" data-name="Path 652" d="M179.077,390.723s-.773-4.1-5.608-6.95c-.387-.23-1.3-.534-1.542.174-.122.347-.065.747.378,1.638a14.5,14.5,0,0,0,1.607,2.4c-.708-.434-1.811-1.125-2.029-.643-.33.73,3.518,2.632,4.778,3.783a4.877,4.877,0,0,1,.834.817Z" transform="translate(-97.211 -216.907)" fill="#e8937c"/>
        <path id="Path_653" data-name="Path 653" d="M165.493,13.569a13.587,13.587,0,0,0-27.009-2.1A13.592,13.592,0,1,0,114.02,21.5h0l23.739,25.155a3.8,3.8,0,0,0-.048,3.631l2.25-.434a16.474,16.474,0,0,1-1.121-2.9l23.482-24.685A13.531,13.531,0,0,0,165.493,13.569Z" transform="translate(-63.046 0.032)" fill="#ec665e"/>
        <path id="Path_654" data-name="Path 654" d="M165.606,112.28s-4.544,24.529-1.633,34.337,2.724,29.972.178,36.7-1.268,43.416,1.638,49.953,0,52.507-6,55.6" transform="translate(-90.382 -63.495)" fill="none" stroke="#ea7872" stroke-miterlimit="10" stroke-width="1.25"/>
        <path id="Path_655" data-name="Path 655" d="M233.747,50.182a13.583,13.583,0,0,0-15.472,8.527,13.592,13.592,0,1,0-25.55,5.751l18,28.929A16.294,16.294,0,0,1,209.036,96l2.12.869a3.825,3.825,0,0,0,.686-3.571l28.36-19.82h0a13.579,13.579,0,0,0-6.446-23.3Z" transform="translate(-108.096 -25.122)" fill="#f29797"/>
        <path id="Path_656" data-name="Path 656" d="M191.252,161.42s0,16.9-9.556,26.162-15.26,29.972-13.626,43.329,2.606,19.482-3.405,29.564-10.746,20.985-7.749,38.025" transform="translate(-88.232 -91.289)" fill="none" stroke="#ea7872" stroke-miterlimit="10" stroke-width="1.25"/>
        <path id="Path_657" data-name="Path 657" d="M288.063,100.767a13.6,13.6,0,0,0-16.754,5.647,13.587,13.587,0,1,0-26.162,1.069l12.532,31.683a16.329,16.329,0,0,1-2.128,2.272l1.933,1.229a3.774,3.774,0,0,0,1.3-3.384l31.453-14.43h0a13.583,13.583,0,0,0-2.172-24.082Z" transform="translate(-138.291 -50.739)" fill="#ec665e"/>
        <path id="Path_658" data-name="Path 658" d="M211.076,207.64s-21.814,23.613-29.442,43.963c-2.172,5.808-6.542,27.978-14.534,36.335-6.407,6.7-4.726,35.619-1.364,45.87" transform="translate(-92.058 -117.433)" fill="none" stroke="#ea7872" stroke-miterlimit="10" stroke-width="1.25"/>
        <path id="Path_659" data-name="Path 659" d="M52.273,144.393a13.587,13.587,0,1,0-26.154-3.862A13.587,13.587,0,1,0,5.561,156.747l28.721,18.326a16.232,16.232,0,0,1-.4,3.084l2.289-.13a3.87,3.87,0,0,0-.921-3.514l17.023-30.124Z" transform="translate(-0.001 -71.122)" fill="#ec665e"/>
        <path id="Path_660" data-name="Path 660" d="M81.17,243.19s5.517,16.415,9.991,21.436c13.713,15.4,29.029,38.82,30.793,44.554,4.778,15.533-5.312,35.836-3.271,46.869" transform="translate(-45.912 -137.541)" fill="none" stroke="#ea7872" stroke-miterlimit="10" stroke-width="1.25"/>
        <path id="Path_661" data-name="Path 661" d="M134.28,172.09s10.629,33.516,9.27,43.6-.547,30.519,4.083,37.356,4.9,11.172,3.271,14.986-7.085,32.144.817,43.872" transform="translate(-75.953 -97.325)" fill="none" stroke="#ea7872" stroke-miterlimit="10" stroke-width="1.25"/>
        <path id="Path_662" data-name="Path 662" d="M80.953,60.47A13.587,13.587,0,0,0,56.966,73.1,13.587,13.587,0,1,0,41.633,94.62h0l33.512,8.614a3.813,3.813,0,0,0,1.9,3.1l1.677-1.559a16.609,16.609,0,0,1-2.5-1.855l6.711-33.4A13.544,13.544,0,0,0,80.953,60.47Z" transform="translate(-18.742 -30.553)" fill="#fbddde"/>
        <path id="Path_663" data-name="Path 663" d="M157.568,81.541a13.579,13.579,0,0,0-14.135,10.6,13.592,13.592,0,1,0-25.059,8.423h0l22.079,26.649a3.8,3.8,0,0,0-.287,3.623l2.272-.274a15.91,15.91,0,0,1-.925-2.967l25.02-23.117a13.583,13.583,0,0,0-8.965-22.935Z" transform="translate(-65.785 -45.1)" fill="#f8c3c5"/>
        <path id="Path_664" data-name="Path 664" d="M169.921,195.51s.361,14.174-1.09,22.153-2.172,19.8-1.455,33.243-1.09,20.529,2.545,28.525c1.277,2.81,4.539,18.891,2.723,27.066" transform="translate(-94.514 -110.572)" fill="none" stroke="#ea7872" stroke-miterlimit="10" stroke-width="1.25"/>
        <path id="Path_665" data-name="Path 665" d="M118,272.46s5.269,14.9,14.534,23.621c6.155,5.79,10.13,22.683,9.582,27.952s-1.407,13.826-.5,16.919,2.723,14.169,0,20.889c0,0-6.72,9.991-5.994,16.715" transform="translate(-66.744 -154.097)" fill="none" stroke="#ea7872" stroke-miterlimit="10" stroke-width="1.25"/>
        <path id="Path_666" data-name="Path 666" d="M97.85,167.944a13.587,13.587,0,0,0-27.022,1.946,13.587,13.587,0,1,0-22.7,13.552h0l27.244,21.341a3.742,3.742,0,0,0,.491,3.6l2.172-.751a16.218,16.218,0,0,1-1.538-2.7l19.547-27.9a13.522,13.522,0,0,0,1.8-9.083Z" transform="translate(-25.045 -88.44)" fill="#f8c3c5"/>
        <path id="Path_667" data-name="Path 667" d="M186.727,256.57s1.09,9.813-3.631,14.9-9.991,12.714-9.265,21.254-.725,17.075-4.179,23.07-2.728,29.251-.547,40.149" transform="translate(-94.61 -145.109)" fill="none" stroke="#ea7872" stroke-miterlimit="10" stroke-width="1.25"/>
        <path id="Path_668" data-name="Path 668" d="M226.413,149.506a13.578,13.578,0,0,0-16.723,5.7,13.592,13.592,0,1,0-26.436.248h0L196,187.623a3.8,3.8,0,0,0-1.39,3.358l2.241.434a16.191,16.191,0,0,1,.035-3.11l30.953-14.23a13.574,13.574,0,0,0-1.425-24.568Z" transform="translate(-103.425 -78.368)" fill="#fbddde"/>
        <path id="Path_669" data-name="Path 669" d="M165.031,274.14s4.544,9.265-.182,23.8-1.772,20.663-.869,27.93-5.126,26.749-6.585,33.473,4.544,24.89,6.177,25.793" transform="translate(-88.899 -155.047)" fill="none" stroke="#ea7872" stroke-miterlimit="10" stroke-width="1.25"/>
        <path id="Path_670" data-name="Path 670" d="M165.708,172.472a13.587,13.587,0,0,0-27.048-1.481,13.592,13.592,0,1,0-24.229,10.577h0l24.325,24.607a3.8,3.8,0,0,0,.03,3.636l2.237-.474a16.447,16.447,0,0,1-1.186-2.876l22.918-25.194A13.466,13.466,0,0,0,165.708,172.472Z" transform="translate(-63.174 -90.045)" fill="#f29797"/>
        <path id="Path_671" data-name="Path 671" d="M240.762,665.641s2.276-1.542,3.879-6.016l-.869-11.155h5.521l-.348,8.97-5.026,8.253S239.9,668.625,240.762,665.641Z" transform="translate(-136.113 -366.778)" fill="#f5a98d"/>
        <path id="Path_672" data-name="Path 672" d="M243.846,669.35s-3.64,5.06-5.186,7.132a11.732,11.732,0,0,1-1.433,1.472c-.7.669-1.738.243-1.394-.63a6.923,6.923,0,0,1-3.041,1.394c-.434.039-1.151.434-1.151.986,0,.434.239,1.021,1.3,1.021.8,0,4.074.03,5.386,0,.973,0,1.994-.973,2.8-2.172,1.09-1.655,2.806-4.865,2.806-4.865v7.146h.869V676.8c0-.76,1.468-2.445,1.468-4.47A2.936,2.936,0,0,0,243.846,669.35Z" transform="translate(-131.022 -378.588)" fill="#efeeee"/>
        <path id="Path_673" data-name="Path 673" d="M209.643,665.641s2.272-1.542,3.879-6.016l-.869-11.155h5.517l-.348,8.97-5.021,8.253S208.783,668.625,209.643,665.641Z" transform="translate(-118.512 -366.778)" fill="#f5a98d"/>
        <path id="Path_674" data-name="Path 674" d="M212.72,669.35s-3.636,5.069-5.182,7.132a11.92,11.92,0,0,1-1.438,1.473c-.7.669-1.737.243-1.394-.63a6.9,6.9,0,0,1-3.041,1.394c-.434.039-1.155.434-1.155.986,0,.434.243,1.021,1.3,1.021.8,0,4.074.03,5.386,0,.969,0,1.994-.973,2.793-2.172,1.09-1.655,2.81-4.865,2.81-4.865v7.145h.847V676.8c0-.76,1.473-2.446,1.473-4.47A2.936,2.936,0,0,0,212.72,669.35Z" transform="translate(-113.414 -378.588)" fill="#efeeee"/>
        <path id="Path_675" data-name="Path 675" d="M204.386,515.159s-18.548,18.7-21.632,58.272c-.282,3.683-.434,7.575-.434,11.672,0,0,11.971,5.894,30.093,5.8,11.958-.065,35.228-2.606,46.508-10.147,0,0-10.5-2.5-12.08-11.394a115.72,115.72,0,0,0-10.521-31.218c-5.412-10.642-14.052-19.412-21.054-23.022Z" transform="translate(-103.125 -291.351)" fill="#fbddde"/>
        <path id="Path_676" data-name="Path 676" d="M222.58,434.1h0a33.8,33.8,0,0,1,4.192-4.344,7.819,7.819,0,0,0,2.976-5.152c0-.66-.03-.026-.039-1.329a13.86,13.86,0,0,0-1.095-4.726l7.688-1.116a7.714,7.714,0,0,0-.521,3.275c.378,2.359.434,4.265,1.881,6.7a21.776,21.776,0,0,1,2.372,7.185v.234H222.584V434.1Z" transform="translate(-125.897 -236.095)" fill="#f5a98d"/>
        <path id="Path_677" data-name="Path 677" d="M232.048,445.021a.482.482,0,1,1-.378-.573A.491.491,0,0,1,232.048,445.021Z" transform="translate(-130.713 -251.372)" fill="#fbddde"/>
        <path id="Path_678" data-name="Path 678" d="M234.265,445.186a.486.486,0,1,1-.378-.569A.486.486,0,0,1,234.265,445.186Z" transform="translate(-131.961 -251.467)" fill="#fbddde"/>
        <path id="Path_679" data-name="Path 679" d="M236.554,445.126a.483.483,0,1,1-.378-.569A.483.483,0,0,1,236.554,445.126Z" transform="translate(-133.261 -251.434)" fill="#fbddde"/>
        <path id="Path_680" data-name="Path 680" d="M238.747,444.946a.478.478,0,0,1-.565.378.486.486,0,1,1,.565-.378Z" transform="translate(-134.497 -251.327)" fill="#fbddde"/>
        <path id="Path_681" data-name="Path 681" d="M240.937,444.7a.482.482,0,1,1-.378-.569A.482.482,0,0,1,240.937,444.7Z" transform="translate(-135.741 -251.191)" fill="#fbddde"/>
        <path id="Path_682" data-name="Path 682" d="M243.144,444.246a.483.483,0,1,1-.378-.569A.483.483,0,0,1,243.144,444.246Z" transform="translate(-136.988 -250.936)" fill="#fbddde"/>
        <path id="Path_683" data-name="Path 683" d="M245.161,443.62a.482.482,0,1,1-.943-.2.474.474,0,0,1,.565-.378.482.482,0,0,1,.378.573Z" transform="translate(-138.127 -250.579)" fill="#fbddde"/>
        <path id="Path_684" data-name="Path 684" d="M247.146,442.932a.478.478,0,1,1-.071-.361A.482.482,0,0,1,247.146,442.932Z" transform="translate(-139.252 -250.195)" fill="#fbddde"/>
        <path id="Path_685" data-name="Path 685" d="M249.151,442.108a.485.485,0,0,1-.951-.187.5.5,0,0,1,.573-.382A.487.487,0,0,1,249.151,442.108Z" transform="translate(-140.384 -249.728)" fill="#fbddde"/>
        <path id="Path_686" data-name="Path 686" d="M250.986,441.02a.491.491,0,0,1-.573.378.482.482,0,1,1,.573-.378Z" transform="translate(-141.424 -249.113)" fill="#fbddde"/>
        <path id="Path_687" data-name="Path 687" d="M252.756,440.052a.482.482,0,1,1-.378-.565A.482.482,0,0,1,252.756,440.052Z" transform="translate(-142.425 -248.566)" fill="#fbddde"/>
        <path id="Path_688" data-name="Path 688" d="M254.665,439.2a.486.486,0,1,1-.384-.545A.486.486,0,0,1,254.665,439.2Z" transform="translate(-143.505 -248.093)" fill="#fbddde"/>
        <path id="Path_689" data-name="Path 689" d="M256.5,437.986a.482.482,0,0,1-.569.374.474.474,0,0,1-.378-.565.483.483,0,0,1,.947.191Z" transform="translate(-144.544 -247.395)" fill="#fbddde"/>
        <path id="Path_690" data-name="Path 690" d="M226.815,386.937a3.672,3.672,0,0,1-2.854,1.737c-.387.035-.586.365-.387.569a1.56,1.56,0,0,1,.078,1.659c-.208.512.056.73-.2,1.055-.109.135-.091.586-.208.643-.226.13-.491.287-.326.547,0,0,.209.469-.534,1.407-.647.825.135,2.076,1.533,2.572.869.3,4.639,1.555,5.547,1.863a48.406,48.406,0,0,0,5.647,1.707,12.944,12.944,0,0,0,2.585-.252c4.009-.165,10.156-6.424,6.164-14.373-1.029-2.046-5.834-4.578-9.448-5.1a5.212,5.212,0,0,0-4.583,1.4,12.843,12.843,0,0,0-2.75,4.14Z" transform="translate(-125.654 -215.424)" fill="#f5a98d"/>
        <path id="Path_691" data-name="Path 691" d="M235.329,391.9a3.917,3.917,0,0,1,.712.213,4.442,4.442,0,0,1,1.347.821,3.084,3.084,0,0,1,.547.617,2.806,2.806,0,0,1,.378.608l.265.634a.113.113,0,0,1-.061.152.117.117,0,0,1-.143-.048v-.022l-.343-.543a2.354,2.354,0,0,0-.434-.486,2.542,2.542,0,0,0-.565-.456,3.776,3.776,0,0,0-1.234-.508,3.3,3.3,0,0,0-.582-.078.455.455,0,0,1,.1-.9Z" transform="translate(-132.817 -221.651)" fill="#b25a5a"/>
        <path id="Path_692" data-name="Path 692" d="M224.614,405.78a3.04,3.04,0,0,0-.434,1.06l2.029.152Z" transform="translate(-126.803 -229.506)" fill="#fbddde"/>
        <path id="Path_693" data-name="Path 693" d="M224.8,403.811c.174.069.278.169.53.543a8.174,8.174,0,0,0,1.572,1.46c.122.078.074.256-.052.235a3.91,3.91,0,0,1-2.5-1.542s-.261-.434,0-.626a.408.408,0,0,1,.447-.069Z" transform="translate(-126.833 -228.371)" fill="#ee7677"/>
        <path id="Path_694" data-name="Path 694" d="M223.1,407.449c.182-.044.326,0,.747.139a7.979,7.979,0,0,0,2.124.3c.143,0,.209.169.091.222a3.909,3.909,0,0,1-2.932.165s-.456-.2-.365-.5A.4.4,0,0,1,223.1,407.449Z" transform="translate(-125.995 -230.441)" fill="#ee7677"/>
        <path id="Path_695" data-name="Path 695" d="M233.63,397.324a1.536,1.536,0,0,1,2.172-.156,1.553,1.553,0,0,1,.434,2.107,5.585,5.585,0,0,0-1.082-1.3A3.258,3.258,0,0,0,233.63,397.324Z" transform="translate(-132.148 -224.43)" fill="#e88175"/>
        <path id="Path_696" data-name="Path 696" d="M231.809,405.5c-.152.869.791,1.764,2.107,2s2.511-.291,2.663-1.164-.786-1.746-2.089-2S231.965,404.618,231.809,405.5Z" transform="translate(-131.109 -228.648)" fill="url(#radial-gradient-2)"/>
        <path id="Path_697" data-name="Path 697" d="M238.867,381.72h.03a2.2,2.2,0,0,0,.487.07c2.029.126,2.05,3.141,2.05,5.734,0,3.618,2.124,4.609,4.022,5.647a9.156,9.156,0,0,0-2.146,3.127,3.355,3.355,0,0,0,.434,3.149,5.811,5.811,0,0,0-.074.617,5.473,5.473,0,0,0,.048.964,6.8,6.8,0,0,0,.521,1.82,6.792,6.792,0,0,1-.3-1.837,5.813,5.813,0,0,1,.065-.912,1.107,1.107,0,0,1,.048-.226,4.978,4.978,0,0,0,.148.569,4.065,4.065,0,0,0,.482.973,4.139,4.139,0,0,1-.261-1.025,4.02,4.02,0,0,1,0-.647,2.957,2.957,0,0,0,.473.07,3.966,3.966,0,0,0,1.651,3.909,2.14,2.14,0,0,0,2.541.156,2.607,2.607,0,0,0,.921.022,3.474,3.474,0,0,0,1.3-.526c.977.313,2.363.274,3.379-1.737a2.767,2.767,0,0,0,.122-2.7,2.229,2.229,0,0,0,.434-1.073,3.117,3.117,0,0,0-.1-1.216,3.275,3.275,0,0,0,.039-1.6,3.088,3.088,0,0,0-1.529-1.916c1.468-4.813-.738-11.624-10.164-13.292a7.818,7.818,0,0,0-2.172-.1,9.049,9.049,0,0,1-2.919-.313C237.746,379.044,236.721,381.19,238.867,381.72Zm15.594,16.758a7.963,7.963,0,0,0,.491-1.13,2.6,2.6,0,0,1,.07.491,2.041,2.041,0,0,1-.256,1.034A1.87,1.87,0,0,0,254.461,398.478Zm-5.173,5.247a3.556,3.556,0,0,0,.834-.969,3.376,3.376,0,0,0,.434.278,2.813,2.813,0,0,1-.665.478A2.128,2.128,0,0,1,249.287,403.725Z" transform="translate(-134.378 -214.572)" fill="#8f4446"/>
        <path id="Path_698" data-name="Path 698" d="M272.856,409.331c.048-.078.308,0,.586.165l.139.1a.638.638,0,0,0-.048-.165c-.069-.317-.057-.591.03-.613s.226.217.3.539a1.338,1.338,0,0,1,.03.165c.026-.048.052-.1.082-.148.174-.274.374-.46.434-.408s0,.308-.165.586a1.31,1.31,0,0,1-.1.139l.165-.043c.321-.074.591-.061.612.03s-.217.222-.534.3a1.262,1.262,0,0,1-.169.031l.148.082c.278.174.46.378.413.434s-.313,0-.586-.165l-.143-.1a1.234,1.234,0,0,1,.048.165c.074.313.061.586-.03.608s-.222-.217-.3-.534a1.168,1.168,0,0,1-.03-.169c-.03.048-.052.1-.087.152-.174.274-.374.456-.434.408s0-.313.165-.586c.035-.048.065-.1.1-.143l-.165.048c-.317.07-.591.057-.612-.03s.221-.221.539-.3a1.248,1.248,0,0,1,.165-.035l-.143-.083C272.986,409.6,272.8,409.4,272.856,409.331Z" transform="translate(-154.251 -231.224)" fill="#fbddde"/>
        <path id="Path_699" data-name="Path 699" d="M269.31,413.263c0-.083.235-.165.534-.182H270a.887.887,0,0,1-.122-.1c-.226-.2-.36-.408-.3-.474s.278.048.5.248a1.329,1.329,0,0,1,.113.109.885.885,0,0,1,0-.156c0-.3.039-.543.122-.547s.169.23.182.526v.161a1.2,1.2,0,0,1,.1-.122c.2-.221.408-.356.473-.3s-.043.287-.243.508a1.365,1.365,0,0,1-.113.109.967.967,0,0,1,.161,0c.3-.022.539.039.547.122s-.235.169-.53.182a1.008,1.008,0,0,1-.161,0l.126.1c.222.2.356.413.3.482s-.287-.048-.508-.248a1.4,1.4,0,0,1-.117-.109,1.521,1.521,0,0,1,0,.156c.022.3-.039.543-.122.547s-.165-.23-.182-.53v-.161a.879.879,0,0,1-.1.122c-.2.226-.408.361-.473.3s.048-.282.243-.5a.689.689,0,0,1,.113-.113h-.161C269.562,413.393,269.314,413.35,269.31,413.263Z" transform="translate(-152.329 -233.114)" fill="#fbddde"/>
        <path id="Path_700" data-name="Path 700" d="M274,414.427c0-.061.174-.126.4-.139h.117l-.078-.091c-.169-.148-.269-.308-.23-.352s.213.03.382.182a.7.7,0,0,1,.083.078v-.117c0-.221.03-.408.091-.408s.13.174.139.4a.531.531,0,0,1,0,.117c.022-.026.048-.061.078-.091.148-.169.308-.269.352-.226s-.03.213-.182.378c-.026.035-.056.056-.078.087a.488.488,0,0,1,.117,0c.217,0,.4.03.408.091s-.174.13-.4.139h-.113l.091.074c.165.148.265.308.226.356s-.213-.03-.382-.182a.727.727,0,0,1-.082-.078v.113c0,.226-.03.408-.1.413s-.126-.174-.135-.4a1.057,1.057,0,0,1,0-.113l-.074.087c-.148.169-.308.269-.356.226s.035-.213.182-.378l.083-.083h-.117C274.2,414.531,274,414.492,274,414.427Z" transform="translate(-154.982 -233.918)" fill="#fbddde"/>
        <path id="Path_701" data-name="Path 701" d="M268.92,409.659c0-.083.217-.161.5-.174h.152c-.039-.026-.078-.061-.117-.091-.208-.187-.334-.387-.278-.434s.261.043.474.23l.1.1v-.152c0-.274.035-.5.113-.513s.156.222.174.5a.818.818,0,0,1,0,.148l.1-.117c.187-.208.387-.334.434-.278s-.044.265-.226.474a1.183,1.183,0,0,1-.1.1h.148c.282,0,.513.035.517.113s-.217.161-.5.174h-.143l.113.091c.208.187.339.386.282.434s-.265-.043-.473-.23a.82.82,0,0,1-.109-.1.807.807,0,0,1,0,.148c0,.278-.03.512-.113.517s-.156-.221-.169-.5v-.152a1.136,1.136,0,0,1-.1.117c-.182.213-.382.334-.434.287s.044-.269.23-.478c.03-.039.069-.074.1-.109h-.148C269.155,409.794,268.924,409.742,268.92,409.659Z" transform="translate(-152.109 -231.118)" fill="#fbddde"/>
        <path id="Path_702" data-name="Path 702" d="M271.81,407.226c0-.056.156-.117.361-.126h.113l-.087-.065c-.152-.139-.248-.282-.2-.326s.191.03.348.165l.074.074v-.1c0-.2.026-.374.087-.374s.113.161.126.361a.921.921,0,0,1,0,.109.652.652,0,0,1,.07-.083c.135-.156.282-.248.326-.208s-.035.2-.169.347a.583.583,0,0,1-.074.074h.109c.2,0,.374.026.374.082s-.161.117-.36.13h-.139l.083.069c.152.135.243.278.208.321s-.2-.026-.347-.165l-.078-.074v.109c0,.2-.026.369-.087.374s-.113-.161-.126-.365a.426.426,0,0,1,0-.109l-.07.087c-.135.152-.282.243-.326.2s.03-.191.169-.348l.074-.074h-.108C271.979,407.321,271.81,407.282,271.81,407.226Z" transform="translate(-153.743 -229.896)" fill="#fbddde"/>
        <path id="Path_703" data-name="Path 703" d="M276.14,411.638c0-.07.178-.126.4-.143h.122a.786.786,0,0,1-.1-.074c-.169-.152-.269-.308-.226-.36s.213.035.382.182l.087.087a.55.55,0,0,1,0-.117c0-.226.03-.413.091-.434s.126.178.139.4a1.049,1.049,0,0,0,0,.122l.074-.091c.148-.169.308-.274.356-.226s-.035.213-.182.382l-.083.083h.117c.226,0,.434.03.434.1s-.178.126-.4.139h-.117l.091.074c.169.152.269.309.23.361s-.213-.035-.382-.187a.547.547,0,0,1-.087-.083,1.093,1.093,0,0,1,0,.122c0,.226-.026.408-.091.434s-.126-.174-.139-.4a.567.567,0,0,1,0-.122l-.078.1c-.148.165-.308.269-.356.226s.035-.213.183-.382l.082-.087a.893.893,0,0,1-.117,0C276.327,411.742,276.144,411.7,276.14,411.638Z" transform="translate(-156.192 -232.332)" fill="#fbddde"/>
        <path id="Path_704" data-name="Path 704" d="M250.83,408.963c-.912.36-1.446,1.181-1.186,1.837a1.593,1.593,0,0,0,2.124.539c.917-.36,1.447-1.181,1.19-1.837A1.6,1.6,0,0,0,250.83,408.963Z" transform="translate(-141.168 -231.212)" fill="#f5a98d"/>
        <path id="Path_705" data-name="Path 705" d="M250.064,413.04a.565.565,0,1,0,.361-.249A.565.565,0,0,0,250.064,413.04Z" transform="translate(-141.393 -233.465)" fill="#fbddde"/>
        <path id="Path_706" data-name="Path 706" d="M236.762,399.9a1.5,1.5,0,0,1-.934-.747,2.081,2.081,0,0,0-2.528-1.212c.152.043.291.1.434.143a.574.574,0,0,0-.278.217.608.608,0,0,0,1.029.643.547.547,0,0,0,.039-.5,2.336,2.336,0,0,1,.365.2,3.827,3.827,0,0,1,1.086,1.351,1.574,1.574,0,0,0-.026-.378A1.347,1.347,0,0,0,236.762,399.9Z" transform="translate(-131.961 -225.025)" fill="#8f4446"/>
        <path id="Path_707" data-name="Path 707" d="M207.788,441.014c-1.221-.652-2.172-1.937-1.79-3.115h0c.374-1.173,1.707-1.416,3.084-1.359a39.686,39.686,0,0,1,8.162,1.5,48.454,48.454,0,0,1,8.14,3.319c1.2.7,2.233,1.672,1.7,3.332a2.87,2.87,0,0,1-3.245,1.885,43.57,43.57,0,0,1-8.179-2.068,48.887,48.887,0,0,1-7.875-3.492Z" transform="translate(-116.47 -246.9)" fill="#f5a98d"/>
        <path id="Path_708" data-name="Path 708" d="M191.578,420.619a88.367,88.367,0,0,1-12.688-17.644l1.468-1.325s9.817,9.387,14.552,15.976c0,0,1.034,1.833-.326,3.041C193.42,421.731,191.578,420.619,191.578,420.619Z" transform="translate(-101.185 -227.17)" fill="#f5a98d"/>
        <path id="Path_709" data-name="Path 709" d="M172.3,394.467s-3.783-1.737-5.391-7.137c-.126-.434-.2-1.39.543-1.455.369-.03.743.122,1.5.764a14.9,14.9,0,0,1,1.937,2.146c-.252-.795-.652-2.033-.13-2.124.791-.139,1.7,4.053,2.506,5.573a4.776,4.776,0,0,0,.586,1.008Z" transform="translate(-94.362 -218.245)" fill="#f5a98d"/>
        <path id="Path_710" data-name="Path 710" d="M237.42,481.632l-10.859.048-1.672-17.931a6.975,6.975,0,0,1-3.006-7.819h17.709a21.468,21.468,0,0,1-.239,8.957C236.486,475.9,236.629,480.62,237.42,481.632Z" transform="translate(-125.352 -257.872)" fill="#fbddde"/>
        <path id="Path_711" data-name="Path 711" d="M87.586,372.056a5.082,5.082,0,0,1-1.364-.765c-.343-.252-.725-.556-1.229-.934a2.606,2.606,0,0,1-.217-.473,11.4,11.4,0,0,0-2.063-4.3,5.124,5.124,0,0,0-3.28-3.379c-7-1.737-12.288,4-12.71,4.461,0,0-3.966,3.571-1.894,8.11,1.833,4.027,4.552,6.781,7.059,7.345a16.558,16.558,0,0,1,1.173,2.65c.578,1.481,2.459,8.253,2.459,8.253l9.248-2c-1.021-.947-1.116-8.405-.547-9.2a9.3,9.3,0,0,1,2.32-1.142c1.438-.308,2.359-1.442,1.824-2.333a2.876,2.876,0,0,1-.343-.786c0-.352.169-.512.182-.791,0-.122-.087-.161-.209-.161a7.456,7.456,0,0,0-.343-1.486.269.269,0,0,0,.052-.465,2.575,2.575,0,0,1-.374-.526c-.169-.386-.434-.943.122-1.19C88.486,372.495,87.921,372.169,87.586,372.056Z" transform="translate(-36.331 -204.673)" fill="#f7b49e"/>
        <path id="Path_712" data-name="Path 712" d="M65.96,365.727c-.2-.63-.917-.36-.917-.36.487-.434,1.551-.217,1.551-.217-.434-.534.1-1.7.1-1.7a.925.925,0,0,0,.517,1.147,10.4,10.4,0,0,1,11.928-3.475,15.127,15.127,0,0,1,2.472,1.8c.165.152.321.308.469.465a2.684,2.684,0,0,0,.817-1.342s1.2,2.876-.765,3.818c-1.108.626-2.984.413-4.548.469-2.967.1-3.879,1.837-3.34,4.048.382,1.559.539,1.942,1.069,3.975.2.76.248.973.556,2.063.087.313-.356.4-.7.556-.434.2-.625-.33-.708-.474A2.98,2.98,0,0,0,71.9,374.94c-.812,0-.973.369-1.09.791-.265,1,.838,1.568,2.228,2.493,1.029.682-.434,2.906-1.468,3.388-.765.348-5.725-3.414-7.58-7.475C61.851,369.428,65.96,365.727,65.96,365.727Z" transform="translate(-35.845 -203.865)" fill="#6e262e"/>
        <path id="Path_713" data-name="Path 713" d="M82.931,394.044c.943.734,1.3,1.785.782,2.35s-1.694.434-2.645-.313-1.3-1.781-.782-2.341S81.98,393.314,82.931,394.044Z" transform="translate(-45.276 -222.5)" fill="#f7b49e"/>
        <path id="Path_714" data-name="Path 714" d="M103.471,378.211a3.214,3.214,0,0,0-.569.113,4.82,4.82,0,0,0-1.229.591,5.509,5.509,0,0,0-1.073.9c-.261.291-.434.482-.434.482h0a.1.1,0,0,1-.148-.135l.378-.556a5.717,5.717,0,0,1,1-1.121,5.293,5.293,0,0,1,1.277-.869,3.565,3.565,0,0,1,.7-.248.4.4,0,0,1,.469.339.434.434,0,0,1-.369.5Z" transform="translate(-56.559 -213.434)" fill="#8f4446"/>
        <path id="Path_715" data-name="Path 715" d="M110.912,393.321s-.274.026-.1.226a5.834,5.834,0,0,0,3.518.387v-.126a5.862,5.862,0,0,0-.335-1.338A5.357,5.357,0,0,1,110.912,393.321Z" transform="translate(-62.645 -221.977)" fill="#fbddde"/>
        <path id="Path_716" data-name="Path 716" d="M106.841,382.468l.365-.2a1.581,1.581,0,0,0-1.507.486,1.737,1.737,0,0,0-.387.739,1.572,1.572,0,0,0,0,.8,4.542,4.542,0,0,1,.734-1.216.476.476,0,0,0,.043-.035.521.521,0,0,0,.048.239.608.608,0,0,0,1.1-.5A.556.556,0,0,0,106.841,382.468Z" transform="translate(-59.538 -216.184)" fill="#8f4446"/>
        <path id="Path_717" data-name="Path 717" d="M64.65,681.966l8.253-.026c.287.551,1.412,2.706,3.4,2.7h3.575c2.693,0,2.989,2.233,3.088,3.879l-11.472.039-.777-.664-.547.669H64.659Z" transform="translate(-36.568 -385.709)" fill="#17110a"/>
        <path id="Path_718" data-name="Path 718" d="M82.494,529.326,78.563,560.5l-2.511,36.487L63.56,595.9l3.718-35.779.126-13.031a75.993,75.993,0,0,1,.256-7.736c-2.55-3.566-1.4-10.307-1.077-11.776Z" transform="translate(-35.952 -298.399)" fill="#251d1a"/>
        <path id="Path_719" data-name="Path 719" d="M85.39,682.05h8.253c.287.552,1.4,2.7,3.388,2.7h3.575c2.693,0,2.989,2.246,3.08,3.909H92.223l-.773-.669-.547.669H85.39Z" transform="translate(-48.299 -385.771)" fill="#251d1a"/>
        <path id="Path_720" data-name="Path 720" d="M87.556,532.41l-1.1,31.414.665,36.17H75.015l.169-35.51-1.738-14.056c-.434-2.871-1.26-6.107-1.26-6.107-2.876-3.3-2.385-10.425-2.2-11.911Z" transform="translate(-39.501 -301.131)" fill="#2c2620"/>
        <path id="Path_721" data-name="Path 721" d="M83.3,412.15l12.123,6.081a28.309,28.309,0,0,1,.838,6.828c-.143,3.883-12.962-10.143-12.962-10.143Z" transform="translate(-47.117 -233.109)" fill="#fbddde"/>
        <path id="Path_722" data-name="Path 722" d="M68.617,449.422V429.306c0-5.473,4.257-10.716,4.257-10.716l9.7,5.021s3.345,4.826,3.345,9.365v38.889c-1.881.2-17.175,1.737-21.032-.977C64.89,470.893,68.617,455.781,68.617,449.422Z" transform="translate(-36.704 -236.751)" fill="#261e18"/>
        <path id="Path_723" data-name="Path 723" d="M80.93,417.86l.943-3.08,12.705,7.793c.778,2.172.434,10.594.434,10.594v9.443l-4.887-15.638,1.568-1.529-2.215.321Z" transform="translate(-45.777 -234.596)" fill="#302723"/>
        <path id="Path_724" data-name="Path 724" d="M78.063,439.815a26.335,26.335,0,0,0,5.947,3.375c9.317,4.292,19.5,2.606,19.5,2.606l-2.524-7.293a57.7,57.7,0,0,0-14.052-4.227,36.052,36.052,0,0,0-7.293-.156C76.873,434.329,75.031,437.2,78.063,439.815Z" transform="translate(-43.27 -245.471)" fill="#362c28"/>
        <path id="Path_725" data-name="Path 725" d="M169.743,392.55s3.931-4.657,3.223-8.136a1.324,1.324,0,0,0-1.855-.969A8.977,8.977,0,0,0,169,385.752c-.252.282-.517-.261-.382-.647s.2-.712.026-.869c-.378-.308-.969.378-1.36.9a13.255,13.255,0,0,0-1.412,5.725Z" transform="translate(-93.819 -216.789)" fill="#f7b49e"/>
        <rect id="Rectangle_8" data-name="Rectangle 8" width="2.741" height="6.02" transform="matrix(0.424, -0.906, 0.906, 0.424, 70.38, 175.276)" fill="#fbddde"/>
        <path id="Path_726" data-name="Path 726" d="M132.43,419.836s1.833-2.172,6.42-8.622c2.094-2.945,3.093-5.212,6.516-10.2l6.181,2.7c-7.675,13.791-7.7,13.683-10.859,19.364-.843,1.516-2.046,2.975-5.647,4.053Z" transform="translate(-74.906 -226.808)" fill="#362c28"/>
      </g>
    </g>
    <g id="Layer_2" data-name="Layer 2" transform="translate(787.052 473.622)">
      <g id="Capa_1-3" data-name="Capa 1" transform="translate(0 0)">
        <path id="Path_727" data-name="Path 727" d="M185.148,100.245c-.319,1.752-1.523,3.4-3.106,3.4h0c-1.577,0-2.408-1.535-2.866-3.239a50.374,50.374,0,0,1-1.367-10.541,63.591,63.591,0,0,1,.885-11.234c.379-1.74,1.174-3.383,3.4-3.383a3.686,3.686,0,0,1,3.576,3.233,55.934,55.934,0,0,1,.662,10.8A62.948,62.948,0,0,1,185.148,100.245Z" transform="translate(-70.767 -29.943)" fill="#e8937c"/>
        <path id="Path_728" data-name="Path 728" d="M176.795,116.38a113.165,113.165,0,0,1-16.616,22.389L158,137.486s7.639-15.652,13.846-24.008c0,0,1.836-1.975,3.865-.789C177.445,113.7,176.795,116.38,176.795,116.38Z" transform="translate(-62.883 -44.692)" fill="#e8937c"/>
        <path id="Path_729" data-name="Path 729" d="M154.3,154.13s-4.5,2.9-5.569,10.03c-.084.6,0,1.806.945,1.752.476,0,.921-.289,1.764-1.24a18.788,18.788,0,0,0,2.083-3.076c-.181,1.06-.464,2.7.211,2.727,1.035.036,1.433-5.454,2.185-7.525a6.021,6.021,0,0,1,.566-1.385Z" transform="translate(-59.185 -61.336)" fill="#e8937c"/>
        <path id="Path_730" data-name="Path 730" d="M180.827,285.332s2.908-1.975,4.973-7.712l-1.126-14.31,7.08.03-.445,11.5-6.448,10.6S179.719,289.154,180.827,285.332Z" transform="translate(-71.905 -104.789)" fill="#f5a98d"/>
        <path id="Path_731" data-name="Path 731" d="M187.988,282.62s-4.672,6.5-6.622,9.157a16.658,16.658,0,0,1-1.842,1.884c-.9.855-2.227.307-1.806-.813a9.016,9.016,0,0,1-3.913,1.806c-.56.048-1.475.548-1.475,1.264,0,.572.307,1.306,1.692,1.306,1.029,0,5.225.042,6.911,0,1.24-.03,2.559-1.246,3.612-2.805,1.4-2.119,3.612-6.237,3.612-6.237v9.169h1.09v-5.177c0-.981,1.89-3.136,1.89-5.737a3.769,3.769,0,0,0-3.149-3.817Z" transform="translate(-68.586 -112.474)" fill="#efeeee"/>
        <path id="Path_732" data-name="Path 732" d="M152.026,285.332s2.914-1.975,4.973-7.712l-1.126-14.31,7.08.03-.446,11.5-6.441,10.6S150.912,289.154,152.026,285.332Z" transform="translate(-60.442 -104.789)" fill="#f5a98d"/>
        <path id="Path_733" data-name="Path 733" d="M159.184,282.62s-4.666,6.5-6.622,9.157a16.1,16.1,0,0,1-1.842,1.884c-.9.855-2.227.307-1.806-.813A9.016,9.016,0,0,1,145,294.654c-.566.048-1.481.548-1.481,1.264,0,.572.307,1.306,1.7,1.306,1.029,0,5.219.042,6.905,0,1.246-.03,2.559-1.246,3.582-2.805,1.4-2.119,3.612-6.237,3.612-6.237v9.169h1.09v-5.177c0-.981,1.884-3.136,1.884-5.737a3.769,3.769,0,0,0-3.106-3.817Z" transform="translate(-57.12 -112.474)" fill="#efeeee"/>
        <path id="Path_734" data-name="Path 734" d="M154.963,139.96s-23.785,23.99-27.741,74.733c-.367,4.732-.6,9.722-.6,14.978,0,0,15.357,7.555,38.6,7.429,15.339-.078,45.151-3.359,59.647-13.009,0,0-13.473-3.2-15.49-14.617a148.807,148.807,0,0,0-13.5-40.04c-6.947-13.648-18.024-24.9-27.006-29.535Z" transform="translate(-50.394 -55.673)" fill="#fbddde"/>
        <path id="Path_735" data-name="Path 735" d="M164,70.851h0a43.346,43.346,0,0,1,5.376-5.593,10.024,10.024,0,0,0,3.817-6.622c0-.843-.042,0-.054-1.7a17.942,17.942,0,0,0-1.415-6.062l9.861-1.427a9.809,9.809,0,0,0-.668,4.214c.482,3.01.554,5.472,2.408,8.591a28.143,28.143,0,0,1,3.046,9.217v.3H164Z" transform="translate(-65.27 -19.674)" fill="#f5a98d"/>
        <path id="Path_736" data-name="Path 736" d="M183.3,118.106l-13.918.06-2.155-23c-5.9-4.172-3.853-10-3.853-10H186.1a27.529,27.529,0,0,1-.313,11.48C182.119,110.755,182.276,116.806,183.3,118.106Z" transform="translate(-64.884 -33.891)" fill="#fbddde"/>
        <path id="Path_737" data-name="Path 737" d="M160.522,26.274a4.623,4.623,0,0,1-1.932,3.8c-.4.3-.391.789-.036.885.921.241,1.126,1.288,1.2,1.746.12.7.56.759.494,1.288,0,.223.3.7.211.843-.157.295-.343.65,0,.813,0,0,.542.373.373,1.9-.151,1.336,1.553,2.173,3.407,1.764,1.138-.247,6.1-1.451,7.3-1.734a62,62,0,0,0,7.32-1.975,17.127,17.127,0,0,0,2.649-2.023c4.25-2.9,6.694-13.882-3.01-19.83-2.51-1.529-9.458-1.035-13.744.849a6.67,6.67,0,0,0-4.046,4.623,16.464,16.464,0,0,0-.187,6.375Z" transform="translate(-62.997 -5.107)" fill="#f5a98d"/>
        <path id="Path_738" data-name="Path 738" d="M162.87,31.094a5.151,5.151,0,0,1,.921-.253,5.791,5.791,0,0,1,2.023,0,3.955,3.955,0,0,1,1.023.295,3.611,3.611,0,0,1,.825.4l.722.512a.15.15,0,0,1,.036.2.144.144,0,0,1-.187.048h0l-.746-.361a3.2,3.2,0,0,0-.789-.247,3.545,3.545,0,0,0-.921-.108,4.774,4.774,0,0,0-1.692.283,4.334,4.334,0,0,0-.686.313.6.6,0,0,1-.5-1.06Z" transform="translate(-64.743 -12.233)" fill="#b25a5a"/>
        <path id="Path_739" data-name="Path 739" d="M161.26,47.52a3.9,3.9,0,0,0,.253,1.439l2.318-1.2Z" transform="translate(-64.18 -18.906)" fill="#fbddde"/>
        <path id="Path_740" data-name="Path 740" d="M160.287,45.83c.235-.042.415,0,.945.229a10.511,10.511,0,0,0,2.7.524c.187,0,.259.229.1.289a5.027,5.027,0,0,1-3.763,0s-.572-.283-.433-.674A.518.518,0,0,1,160.287,45.83Z" transform="translate(-63.605 -18.228)" fill="#ee7677"/>
        <path id="Path_741" data-name="Path 741" d="M160.695,48.646c.163-.175.337-.241.9-.355a10.234,10.234,0,0,0,2.516-1.114c.156-.1.337.042.247.181a5.021,5.021,0,0,1-3.082,2.161s-.6.1-.74-.295A.512.512,0,0,1,160.695,48.646Z" transform="translate(-63.88 -18.756)" fill="#ee7677"/>
        <path id="Path_742" data-name="Path 742" d="M167.07,43.045c.421,1.06,2.053,1.4,3.642.753s2.54-2.017,2.113-3.076-2.059-1.385-3.654-.746S166.637,41.991,167.07,43.045Z" transform="translate(-66.45 -15.774)" fill="url(#radial-gradient-3)"/>
        <path id="Path_743" data-name="Path 743" d="M161.364,18.986V18.95a3.168,3.168,0,0,0,.6-.241c2.288-1.246,4.359,2.023,6.11,4.816,2.45,3.943,5.448,3.612,8.223,3.431a11.86,11.86,0,0,0-.223,4.864,4.322,4.322,0,0,0,2.613,3.13,5.744,5.744,0,0,0,.337.728,7.5,7.5,0,0,0,.716,1.072,8.584,8.584,0,0,0,1.806,1.625,8.777,8.777,0,0,1-1.577-1.806,6.533,6.533,0,0,1-.542-1.035c-.042-.09-.066-.187-.1-.277a4.815,4.815,0,0,0,.542.512,5.417,5.417,0,0,0,1.2.74,5.189,5.189,0,0,1-.993-.963,4.708,4.708,0,0,1-.451-.692,5.423,5.423,0,0,0,.566-.247,5.069,5.069,0,0,0,4.431,3.124A2.756,2.756,0,0,0,187.5,36.18a3.137,3.137,0,0,0,1.017-.6,4.407,4.407,0,0,0,1.066-1.451c1.276-.331,2.757-1.312,2.5-4.178a3.49,3.49,0,0,0-1.692-3.01,2.848,2.848,0,0,0-.247-1.475,4.287,4.287,0,0,0-.927-1.258,4.323,4.323,0,0,0-1.041-1.764,3.961,3.961,0,0,0-2.968-1.047c-1.662-6.255-8.687-12.173-20.077-7.6a10.072,10.072,0,0,0-2.438,1.361c-.048.036-2.408,1.6-3.389,1.637S158.667,19.859,161.364,18.986Zm28.343,7.676a10.052,10.052,0,0,0-.235-1.565,3.517,3.517,0,0,1,.409.488,2.7,2.7,0,0,1,.421,1.3A2.409,2.409,0,0,0,189.707,26.662Zm-2.083,9.217a4.492,4.492,0,0,0,.253-1.619,4.99,4.99,0,0,0,.65,0,3.782,3.782,0,0,1-.4.975A2.781,2.781,0,0,1,187.624,35.879Z" transform="translate(-63.201 -4.839)" fill="#8f4446"/>
        <path id="Path_744" data-name="Path 744" d="M200.91,26.421c0-.12.343-.217.759-.217h.223l-.163-.144c-.3-.3-.47-.6-.379-.692s.385.09.68.385l.151.163V25.7c0-.421.09-.759.211-.759s.217.337.217.759v.217l.144-.163c.295-.295.6-.47.686-.385s-.084.391-.379.692l-.163.144h.217c.421,0,.759.1.759.217s-.337.217-.759.217H202.9a1.853,1.853,0,0,1,.163.15c.3.295.464.6.379.686s-.391-.09-.686-.385l-.144-.163v.223c0,.415-.1.753-.217.753s-.211-.337-.211-.753v-.223l-.151.163c-.3.295-.6.47-.68.385s.084-.391.379-.686a1.839,1.839,0,0,1,.163-.15h-.223C201.253,26.638,200.91,26.541,200.91,26.421Z" transform="translate(-79.96 -9.92)" fill="#fbddde"/>
        <path id="Path_745" data-name="Path 745" d="M200.148,31.562c-.066-.1.138-.343.452-.566l.169-.108a1.118,1.118,0,0,1-.2,0c-.379-.066-.668-.2-.65-.313s.343-.138.716-.078l.2.048-.126-.163c-.223-.313-.325-.6-.241-.68s.343.138.566.452a1.378,1.378,0,0,1,.108.175,1.252,1.252,0,0,1,0-.2c.066-.373.2-.668.313-.644s.138.337.078.71a.323.323,0,0,1-.042.2.878.878,0,0,1,.163-.12c.307-.223.6-.331.674-.241s-.138.337-.452.56l-.169.108h.2c.373.066.668.2.65.313s-.337.144-.716.078l-.2-.042a1.646,1.646,0,0,1,.132.157c.217.313.319.6.235.68s-.337-.138-.56-.452a1.936,1.936,0,0,1-.108-.169v.2c-.066.379-.2.668-.313.65s-.145-.337-.078-.716a.306.306,0,0,1,.048-.2l-.163.126C200.515,31.538,200.214,31.646,200.148,31.562Z" transform="translate(-79.566 -11.726)" fill="#fbddde"/>
        <path id="Path_746" data-name="Path 746" d="M204.3,30.249c-.048-.066.1-.253.337-.421l.126-.078h-.145c-.289-.048-.506-.157-.488-.235s.247-.108.53-.06l.151.036-.1-.12c-.169-.235-.241-.464-.175-.512s.253.108.421.343l.084.126a1.238,1.238,0,0,1,0-.151c.048-.283.156-.506.235-.488s.108.253.06.536a.868.868,0,0,1,0,.144,1.044,1.044,0,0,1,.12-.09c.229-.163.458-.247.506-.175s-.108.253-.343.415l-.12.084a.6.6,0,0,1,.145,0c.283.048.506.151.494.229s-.259.114-.542.06l-.151-.03a.945.945,0,0,1,.1.12c.169.235.247.464.175.506s-.247-.1-.415-.337a.771.771,0,0,1-.084-.126.678.678,0,0,1,0,.151c-.048.283-.15.5-.229.488s-.114-.253-.066-.542l.036-.144-.12.09C204.569,30.236,204.34,30.315,204.3,30.249Z" transform="translate(-81.241 -11.411)" fill="#fbddde"/>
        <path id="Path_747" data-name="Path 747" d="M198.045,28.939c-.06-.084.126-.319.427-.53a.873.873,0,0,1,.157-.1h-.187c-.355-.06-.6-.193-.6-.295s.313-.132.668-.072l.187.042c-.036-.048-.078-.1-.114-.151-.211-.295-.307-.6-.223-.638s.319.132.524.421l.108.163v-.187c.06-.355.193-.632.289-.6s.138.325.078.674a1.7,1.7,0,0,1-.042.187l.15-.114c.3-.211.6-.313.638-.223s-.132.313-.427.524l-.156.1h.187c.355.06.6.193.6.295s-.319.132-.674.072l-.187-.042c.036.048.078.1.114.15.211.289.313.6.223.638s-.319-.132-.524-.427a1.159,1.159,0,0,1-.1-.157v.187c-.054.355-.187.6-.3.6s-.132-.319-.072-.674a1.683,1.683,0,0,1,.042-.187l-.151.114C198.388,28.921,198.1,29.017,198.045,28.939Z" transform="translate(-78.738 -10.734)" fill="#fbddde"/>
        <path id="Path_748" data-name="Path 748" d="M198.976,25.654c-.042-.06.1-.229.307-.379l.126-.078h-.144c-.259-.042-.458-.144-.445-.217s.235-.09.488-.048h.138l-.084-.1c-.15-.217-.223-.421-.163-.47s.235.1.385.313l.072.114a.6.6,0,0,1,0-.138c.042-.259.145-.458.217-.439s.1.229.048.488a.864.864,0,0,1,0,.132l.108-.084c.211-.151.421-.223.464-.163s-.1.235-.307.385l-.12.072h.138c.259.048.458.144.446.217s-.235.1-.488.054h-.138l.084.108c.15.217.223.421.163.464s-.235-.1-.385-.307l-.072-.12a1.2,1.2,0,0,1,0,.138c-.048.259-.144.458-.217.445s-.1-.229-.054-.494a.857.857,0,0,1,0-.132l-.108.084C199.229,25.642,199.018,25.72,198.976,25.654Z" transform="translate(-79.128 -9.628)" fill="#fbddde"/>
        <path id="Path_749" data-name="Path 749" d="M204.594,27.027c-.048-.066.108-.259.337-.421l.132-.084h-.151c-.289-.048-.506-.157-.494-.235s.259-.114.542-.06a.6.6,0,0,1,.15.036l-.1-.126c-.169-.235-.247-.464-.175-.512s.253.1.421.337l.078.132v-.15c.054-.283.157-.506.241-.494s.108.259.054.542a1.108,1.108,0,0,1-.03.15l.12-.1c.241-.163.47-.247.518-.181s-.108.259-.343.427a.985.985,0,0,1-.132.084.656.656,0,0,1,.157,0c.283.048.506.151.488.235s-.253.108-.536.06l-.157-.03c0,.036.066.072.1.114.169.235.247.47.181.518s-.259-.108-.421-.343l-.084-.132a1.381,1.381,0,0,1,0,.157c-.054.283-.157.506-.241.488s-.1-.259-.054-.542a1.015,1.015,0,0,1,0-.144l-.12.09C204.871,27.015,204.636,27.093,204.594,27.027Z" transform="translate(-81.357 -10.122)" fill="#fbddde"/>
        <path id="Path_750" data-name="Path 750" d="M183.978,36.114c-.753,1.011-.771,2.27-.048,2.811s1.926.151,2.673-.861.783-2.27.054-2.805S184.737,35.1,183.978,36.114Z" transform="translate(-72.992 -13.93)" fill="#f5a98d"/>
        <path id="Path_751" data-name="Path 751" d="M184.62,40.778a.728.728,0,1,0,.728-.728.728.728,0,0,0-.728.728Z" transform="translate(-73.477 -15.933)" fill="#fbddde"/>
        <path id="Path_752" data-name="Path 752" d="M172.65,101.694c-1.011,1.463-2.787,2.474-4.214,1.806h0c-1.445-.65-1.553-2.408-1.276-4.124A50.141,50.141,0,0,1,170.242,89.2a61.415,61.415,0,0,1,5.418-9.879c1.06-1.427,2.456-2.6,4.485-1.68a3.684,3.684,0,0,1,1.932,4.413,54.706,54.706,0,0,1-3.841,10.114A62.051,62.051,0,0,1,172.65,101.694Z" transform="translate(-66.48 -30.765)" fill="#f5a98d"/>
        <path id="Path_753" data-name="Path 753" d="M172.974,75.462a.6.6,0,1,1-.6-.6A.6.6,0,0,1,172.974,75.462Z" transform="translate(-68.363 -29.787)" fill="#fbddde"/>
        <path id="Path_754" data-name="Path 754" d="M175.024,75.2a.6.6,0,1,1-.6-.6A.6.6,0,0,1,175.024,75.2Z" transform="translate(-69.179 -29.684)" fill="#fbddde"/>
        <path id="Path_755" data-name="Path 755" d="M177.054,74.722a.617.617,0,1,1-.617-.617A.617.617,0,0,1,177.054,74.722Z" transform="translate(-69.975 -29.487)" fill="#fbddde"/>
        <path id="Path_756" data-name="Path 756" d="M179,74.172a.6.6,0,1,1-.6-.6A.6.6,0,0,1,179,74.172Z" transform="translate(-70.763 -29.274)" fill="#fbddde"/>
        <path id="Path_757" data-name="Path 757" d="M180.984,73.532a.6.6,0,1,1-.6-.6A.6.6,0,0,1,180.984,73.532Z" transform="translate(-71.551 -29.019)" fill="#fbddde"/>
        <path id="Path_758" data-name="Path 758" d="M182.886,72.748a.623.623,0,1,1-.623-.623A.623.623,0,0,1,182.886,72.748Z" transform="translate(-72.291 -28.699)" fill="#fbddde"/>
        <path id="Path_759" data-name="Path 759" d="M184.614,71.772a.6.6,0,1,1-.6-.6A.6.6,0,0,1,184.614,71.772Z" transform="translate(-72.995 -28.319)" fill="#fbddde"/>
        <path id="Path_760" data-name="Path 760" d="M186.284,70.792a.6.6,0,1,1-.6-.6A.6.6,0,0,1,186.284,70.792Z" transform="translate(-73.66 -27.929)" fill="#fbddde"/>
        <path id="Path_761" data-name="Path 761" d="M187.934,69.672a.617.617,0,1,1-.617-.617A.617.617,0,0,1,187.934,69.672Z" transform="translate(-74.305 -27.477)" fill="#fbddde"/>
        <path id="Path_762" data-name="Path 762" d="M189.414,68.352a.6.6,0,1,1-.6-.6A.6.6,0,0,1,189.414,68.352Z" transform="translate(-74.906 -26.958)" fill="#fbddde"/>
        <path id="Path_763" data-name="Path 763" d="M190.824,67.152a.6.6,0,1,1-.6-.6A.6.6,0,0,1,190.824,67.152Z" transform="translate(-75.467 -26.48)" fill="#fbddde"/>
        <path id="Path_764" data-name="Path 764" d="M192.4,65.992a.6.6,0,1,1-.6-.6A.6.6,0,0,1,192.4,65.992Z" transform="translate(-76.096 -26.018)" fill="#fbddde"/>
        <path id="Path_765" data-name="Path 765" d="M193.864,64.6a.6.6,0,1,1-.6-.6A.6.6,0,0,1,193.864,64.6Z" transform="translate(-76.677 -25.465)" fill="#fbddde"/>
        <path id="Path_766" data-name="Path 766" d="M160.274,100.188C153.965,91.9,140.589,79.72,140.589,79.72L138,81.61s10.836,17.549,17.115,23a4.1,4.1,0,0,0,4.852-.488C161.635,102.5,160.274,100.188,160.274,100.188Z" transform="translate(-54.923 -31.722)" fill="#f5a98d"/>
        <path id="Path_767" data-name="Path 767" d="M129.847,81.882c1.559-.132,2.619-.915,2.462-2.739-.235-2.781-1.3-14.623-1.3-14.623l1.126-.09s1.06,11.836,1.294,14.617c.169,1.914,1.884,2.366,3.317,2.252l1-.09.066.849-9.319.777-.072-.843Z" transform="translate(-51.11 -25.636)" fill="#acdef9"/>
        <path id="Path_768" data-name="Path 768" d="M132.863,38l1.005,11.823c.193,2.245-.409,5.075-3.612,5.352-2.829.241-4.3-2.408-4.491-4.666L124.76,38.686Z" transform="translate(-49.653 -15.117)" fill="#acdef9"/>
        <path id="Path_769" data-name="Path 769" d="M133.247,46.55l.6,7.056c.144,1.752-.337,3.763-2.866,3.979-2.2.187-3.335-1.692-3.492-3.443l-.6-7.056Z" transform="translate(-50.501 -18.52)" fill="#fdcf80"/>
        <path id="Path_770" data-name="Path 770" d="M137.46,75.489c-1.433-1.4-3.919-5.713-4.738-5.28-.542.283.337,1.511.891,2.306-.554-.379-.963-.4-1.029-1.2,0,0-1.2-.241-1.2,1.77,0,2.878.807,2.932.807,2.932a11.685,11.685,0,0,0,4.985,2.3l1.282-1.9A5.13,5.13,0,0,1,137.46,75.489Z" transform="translate(-52.288 -27.925)" fill="#f5a98d"/>
        <path id="Path_771" data-name="Path 771" d="M163.45,35.124a1.885,1.885,0,0,1,2.408-1.276,2.155,2.155,0,0,1,1.535,2.161,7.158,7.158,0,0,0-1.884-.921A4.069,4.069,0,0,0,163.45,35.124Z" transform="translate(-65.052 -13.445)" fill="#e88175"/>
        <path id="Path_772" data-name="Path 772" d="M168.132,36.158a1.872,1.872,0,0,1-1.445-.373,2.577,2.577,0,0,0-3.5-.1l.572-.054a.722.722,0,0,0-.2.385.759.759,0,0,0,1.5.211.735.735,0,0,0-.211-.6,3.679,3.679,0,0,1,.518.054,4.816,4.816,0,0,1,1.92.987,1.807,1.807,0,0,0-.211-.415A1.631,1.631,0,0,0,168.132,36.158Z" transform="translate(-64.948 -13.944)" fill="#8f4446"/>
        <path id="Path_773" data-name="Path 773" d="M100.148,75.88,94.5,80.847,91.04,74.261l6.947-3.281Z" transform="translate(-36.233 -28.243)" fill="#f5a58f"/>
        <path id="Path_774" data-name="Path 774" d="M95.65,81.248,99,78.8,95.969,72.26l-3.3,1.722Z" transform="translate(-36.882 -28.753)" fill="#fbddde"/>
        <path id="Path_775" data-name="Path 775" d="M18.089,66.984c.379,2.143,1.463,4.66,3.185,8.175,5.791,11.811,16.6,20.468,16.6,20.468l5.551-8.639A73.028,73.028,0,0,0,32.471,69.632a61.206,61.206,0,0,0-8.193-7.037C21.358,60.572,17.2,61.927,18.089,66.984Z" transform="translate(-7.15 -24.548)" fill="#201811"/>
        <path id="Path_776" data-name="Path 776" d="M50.429,90.761S68.923,77.649,75.972,74.38l3.01,7.639A105.792,105.792,0,0,1,58.839,98.834c-1.866,1.2-5.581,3.311-8.494,1.806C48.136,99.5,50.429,90.761,50.429,90.761Z" transform="translate(-19.655 -29.596)" fill="#201811"/>
        <path id="Path_777" data-name="Path 777" d="M101.74,69.867a6.2,6.2,0,0,1,1.908-2.053,9.211,9.211,0,0,1,4.557-.686l.2,3.564s-.09,2.968-.921,3.257a21.393,21.393,0,0,1-3.528.415Z" transform="translate(-40.492 -26.69)" fill="#f5a58f"/>
        <path id="Path_778" data-name="Path 778" d="M108.507,78.972c-1.559-.15-2.613-.945-2.408-2.769.265-2.775,1.463-14.6,1.463-14.6l-1.132-.108s-1.2,11.829-1.457,14.6c-.187,1.914-1.908,2.348-3.335,2.215l-1-.1-.078.843,9.295.891.078-.843Z" transform="translate(-40.022 -24.466)" fill="#acdef9"/>
        <path id="Path_779" data-name="Path 779" d="M106.221,35.06l-1.138,11.817c-.217,2.239.349,5.081,3.612,5.418,2.823.271,4.328-2.366,4.545-4.611l1.132-11.811Z" transform="translate(-41.806 -13.947)" fill="#acdef9"/>
        <path id="Path_780" data-name="Path 780" d="M107.15,43.58l-.68,7.05c-.169,1.752.295,3.769,2.817,4.015,2.2.211,3.359-1.656,3.528-3.407l.674-7.05Z" transform="translate(-42.362 -17.338)" fill="#fdcf80"/>
        <path id="Path_781" data-name="Path 781" d="M109.643,67.1a2.408,2.408,0,0,1-1.294,1.336c-.9.283-2.179.138-2.643.753s-.548,6.02,3.558,4.7c2.522-.795,1.6-4.738,1.457-5.418a1.806,1.806,0,0,0-1.078-1.367Z" transform="translate(-41.983 -26.699)" fill="#f6b09c"/>
        <path id="Path_782" data-name="Path 782" d="M39.728,20.647a6.652,6.652,0,0,1-1.2-1.619c-.265-.476-.548-1.035-.933-1.746a3.51,3.51,0,0,1,0-.668c.114-1.367.632-3.859-.12-6.116.6-2.721-1.409-5.189-2.029-5.683C28.217-.953,18.982,2.93,18.242,3.243c0,0-6.532,2.059-6.532,8.428,0,5.677,1.7,10.343,4.322,12.323a20.745,20.745,0,0,1-.024,3.763C15.9,29.8,14.485,38.714,14.485,38.714H28.1c-.692-1.643,1.409-7.826,2.5-8.428a11.965,11.965,0,0,1,3.311-.1c1.836.4,3.516-.427,3.371-1.746a4.106,4.106,0,0,1,0-1.108c.181-.427.476-.506.638-.825.072-.144,0-.235-.157-.295a9.518,9.518,0,0,0,.385-1.92c.391-.072.391-.349.307-.512a3.685,3.685,0,0,1-.138-.843c0-.542,0-1.33.771-1.33C40.522,21.629,40.035,20.948,39.728,20.647Z" transform="translate(-4.66 -0.661)" fill="#f7b49e"/>
        <path id="Path_783" data-name="Path 783" d="M17.647,2.272c.1-.849-.879-.915-.879-.915.819-.271,1.932.6,1.932.6C18.5,1.086,19.711,0,19.711,0a1.2,1.2,0,0,0,0,1.589,13.355,13.355,0,0,1,15.767,2.3A18.842,18.842,0,0,1,37.4,7.3c.108.265.217.536.3.795a3.449,3.449,0,0,0,1.668-1.138s-.12,4-2.92,4.052c-1.631.144-3.708-1.108-5.563-1.872-3.516-1.463-5.5.072-6.02,2.944-.385,2.029-.409,2.553-.873,5.2-.175,1-.229,1.27-.458,2.709-.066.409-.632.277-1.1.277-.6,0-.548-.722-.6-.927a3.817,3.817,0,0,0-2.149-3.167A1.193,1.193,0,0,0,18,16.521c-.843,1.023.138,2.276,1.27,4.094.831,1.349-2.035,3.173-3.522,3.173-1.078,0-4.864-7.031-4.864-12.763C10.88,4.4,17.647,2.272,17.647,2.272Z" transform="translate(-4.33 0.01)" fill="#6e262e"/>
        <path id="Path_784" data-name="Path 784" d="M25.723,27.981c.716,1.361.566,2.769-.337,3.155s-2.2-.4-2.914-1.764-.566-2.769.331-3.155S25.019,26.65,25.723,27.981Z" transform="translate(-8.765 -10.39)" fill="#f7b49e"/>
        <path id="Path_785" data-name="Path 785" d="M48.71,23.564a2.769,2.769,0,0,0-.777-.169,3.083,3.083,0,0,0-.777-.054l-.933.114a6.694,6.694,0,0,0-1.722.5l-.789.283h0A.132.132,0,0,1,43.6,24l.759-.4a7.1,7.1,0,0,1,1.71-.8l1.023-.253a3.973,3.973,0,0,1,.933-.048,3.293,3.293,0,0,1,.9.048h.084a.53.53,0,0,1-.259,1.023Z" transform="translate(-17.327 -8.941)" fill="#8f4446"/>
        <path id="Path_786" data-name="Path 786" d="M48.749,38.2s-.325-.114-.247.211a7.556,7.556,0,0,0,3.907,2.318s.054-.144.054-.15a7.435,7.435,0,0,0,.325-1.74A6.831,6.831,0,0,1,48.749,38.2Z" transform="translate(-19.298 -15.188)" fill="#fbddde"/>
        <path id="Path_787" data-name="Path 787" d="M1,292.976l10.6-.036c.373.71,1.806,3.468,4.359,3.462h4.587c3.456,0,3.835,2.866,3.961,4.973L9.8,301.4l-.969-.867L8.1,301.4H1.03Z" transform="translate(-0.398 -116.581)" fill="#17110a"/>
        <path id="Path_788" data-name="Path 788" d="M24.285,152.315l-5.021,39.979-3.245,46.77L0,237.674l4.768-45.891.157-16.718a98.123,98.123,0,0,1,.319-9.891c-3.269-4.569-1.806-13.244-1.385-15.1Z" transform="translate(0 -59.72)" fill="#251d1a"/>
        <path id="Path_789" data-name="Path 789" d="M20.2,293H30.807c.361.7,1.806,3.474,4.34,3.474h4.581c3.456,0,3.835,2.878,3.949,4.985H28.965l-.993-.855-.7.855H20.2Z" transform="translate(-8.039 -116.605)" fill="#251d1a"/>
        <path id="Path_790" data-name="Path 790" d="M28.541,154.55l-1.409,40.286.849,46.391H12.455l.211-45.542-2.209-18.024c-.536-3.69-1.619-7.826-1.619-7.826-3.684-4.214-3.058-13.371-2.823-15.279Z" transform="translate(-2.317 -61.503)" fill="#2c2620"/>
        <path id="Path_791" data-name="Path 791" d="M18.27,43.24l14.021,6.779L30.629,53.3,18.27,46.8Z" transform="translate(-7.271 -17.203)" fill="#fbddde"/>
        <path id="Path_792" data-name="Path 792" d="M5.994,88.744V62.918c0-7.019,5.454-13.738,5.454-13.738L23.9,55.64s4.268,6.189,4.268,12.016v49.876c-2.408.253-22.028,2.2-26.976-1.252C1.208,116.28,5.994,96.9,5.994,88.744Z" transform="translate(-0.474 -19.567)" fill="#2b221c"/>
        <path id="Path_793" data-name="Path 793" d="M16.07,49.635l1.2-3.955L29.82,54.247A23.183,23.183,0,0,1,34.148,69.3V81.391L27.887,61.314l1.987-1.963-2.829.415Z" transform="translate(-6.396 -18.174)" fill="#362c28"/>
        <path id="Path_794" data-name="Path 794" d="M18.395,71.666c-1.457,1.613-2.089,4.648-2.908,8.428-2.878,13.292-1.806,21.991-1.806,21.991l9.783.6s1.511-7.465,2.7-18.145c.3-2.679.47-8.759,0-10.776C25.438,70.3,21.82,67.855,18.395,71.666Z" transform="translate(-5.367 -27.749)" fill="#362c28"/>
        <path id="Path_795" data-name="Path 795" d="M25.87,173.461s-.042,7.79,3.51,10.625a1.694,1.694,0,0,0,2.613-.572c.494-1.361.163-2.805.187-4,0-.482.722-.169.9.319s.4.867.674.867c.6,0,.644-1.168.6-2-.078-1.511-1.951-5.225-3.323-6.785Z" transform="translate(-10.296 -68.416)" fill="#f7b49e"/>
        <rect id="Rectangle_9" data-name="Rectangle 9" width="7.7" height="3.504" transform="translate(13.973 102.937) rotate(-14.82)" fill="#fbddde"/>
        <path id="Path_796" data-name="Path 796" d="M23.1,119.851c.783,2.95,3.751,20.7,4.509,28.4l-8.278,2.408c-3.793-19.836-4.16-20.167-5.713-28.343-.409-2.185.379-5.617,3.666-6.237C18.882,115.8,22.554,117.828,23.1,119.851Z" transform="translate(-5.379 -46.183)" fill="#362c28"/>
        <path id="Path_797" data-name="Path 797" d="M50.035,26.306l.524-.054a2.011,2.011,0,0,0-1.993-.2,2.2,2.2,0,0,0-.837.656,2.1,2.1,0,0,0-.409.933A5.659,5.659,0,0,1,48.789,26.6a.229.229,0,0,0,.06,0,.71.71,0,0,0-.066.3.769.769,0,0,0,1.535-.024A.716.716,0,0,0,50.035,26.306Z" transform="translate(-18.833 -10.293)" fill="#8f4446"/>
      </g>
    </g>
  </g>
</svg>
