<svg xmlns="http://www.w3.org/2000/svg" xmlns:xlink="http://www.w3.org/1999/xlink" width="420" height="702" viewBox="0 0 420 702">
  <defs>
    <clipPath id="clip-path">
      <rect id="Rectangle_68" data-name="Rectangle 68" width="420" height="702" transform="translate(30 78)" fill="#fff"/>
    </clipPath>
  </defs>
  <g id="Mask_Group_2" data-name="Mask Group 2" transform="translate(-30 -78)" clip-path="url(#clip-path)">
    <g id="Layer_2" data-name="Layer 2" transform="translate(30 78)">
      <g id="Layer_1" data-name="Layer 1">
        <rect id="Rectangle_69" data-name="Rectangle 69" width="420" height="701.587" fill="#fff"/>
        <path id="Path_6249" data-name="Path 6249" d="M217.31,473.165a7.31,7.31,0,0,0-10.3-2.991c-10.633,6.646,13.291,25.585-22.263,63.465C204.019,519.019,226.282,488.449,217.31,473.165Z" transform="translate(0 126.413)" fill="#939985"/>
        <path id="Path_6250" data-name="Path 6250" d="M189.731,528.323c7.642-8.639,12.627-23.259,6.313-29.573a3.987,3.987,0,0,0-5.316,0C186.741,502.737,201.028,510.047,189.731,528.323Z" transform="translate(0 126.413)" fill="#939985"/>
        <path id="Path_6251" data-name="Path 6251" d="M232.595,559.557a4.652,4.652,0,0,1-3.323,5.316c-8.639,0-2.326-19.272-36.883-27.247C209,538.623,232.595,547.263,232.595,559.557Z" transform="translate(0 126.413)" fill="#939985"/>
        <path id="Path_6252" data-name="Path 6252" d="M192.389,536.63c11.63,2.99,23.592,12.294,21.93,20.933a3.987,3.987,0,0,1-4.32,2.991C204.351,559.557,211.994,545.6,192.389,536.63Z" transform="translate(0 126.413)" fill="#939985"/>
        <path id="Path_6253" data-name="Path 6253" d="M217.31,511.377a4.652,4.652,0,0,0-4.984-4.32c-7.975,0,0,17.943-29.241,29.573C199.367,533.639,218.307,522.674,217.31,511.377Z" transform="translate(0 126.413)" fill="#939985"/>
        <path id="Path_6254" data-name="Path 6254" d="M205.68,528.323s15.617-2.658,18.94-11.3v-4.984c0-.665-2.991,0-3.323,2.658a22.6,22.6,0,0,1-15.617,13.623Z" transform="translate(0 126.413)" fill="#939985"/>
        <path id="Path_6255" data-name="Path 6255" d="M185.744,537.959c28.576-8.307,33.228,8.639,39.209,4.652a3.655,3.655,0,0,0,0-5.649C219.3,528.323,199.367,531.646,185.744,537.959Z" transform="translate(0 126.413)" fill="#939985"/>
        <path id="Path_6256" data-name="Path 6256" d="M207.009,531.646a22.927,22.927,0,0,1,18.275,0h3.987c.665,0,0-3.323-1.994-4.32C219.3,524.335,207.009,531.646,207.009,531.646Z" transform="translate(0 126.413)" fill="#939985"/>
        <path id="Path_6257" data-name="Path 6257" d="M199.367,102.009a7.31,7.31,0,0,0,10.3,2.658C220.3,98.022,196.377,79.415,231.93,41.2,213.655,56.155,191.392,86.392,199.367,102.009Z" fill="#939985"/>
        <path id="Path_6258" data-name="Path 6258" d="M227.943,46.519c-7.975,8.972-12.627,23.592-6.313,29.905a4.32,4.32,0,0,0,5.316,0C232.595,72.437,216.646,66.456,227.943,46.519Z" fill="#939985"/>
        <path id="Path_6259" data-name="Path 6259" d="M183.75,15.617A4.652,4.652,0,0,1,188.4,10.3c8.639,0,2.326,19.272,36.883,27.247C208.671,36.551,184.415,27.911,183.75,15.617Z" fill="#939985"/>
        <path id="Path_6260" data-name="Path 6260" d="M225.285,38.544c-11.63-2.991-23.592-12.294-21.93-20.934a3.323,3.323,0,0,1,4.32-2.991C213.323,15.617,205.68,29.573,225.285,38.544Z" fill="#939985"/>
        <path id="Path_6261" data-name="Path 6261" d="M199.367,63.8a4.652,4.652,0,0,0,4.984,4.32c7.975,0,0-17.943,29.241-29.905C219.968,41.535,199.367,52.5,199.367,63.8Z" fill="#939985"/>
        <path id="Path_6262" data-name="Path 6262" d="M211.994,46.851s-15.617,2.326-18.94,11.3c0,1.661,0,4.32,1.661,4.984s4.652-1.329,4.652-2.658a23.259,23.259,0,0,1,12.627-13.623Z" fill="#939985"/>
        <path id="Path_6263" data-name="Path 6263" d="M232.595,37.215c-29.241,8.307-33.228-8.639-39.873-3.987a3.987,3.987,0,0,0,0,5.981C199.367,46.851,219.636,43.2,232.595,37.215Z" fill="#939985"/>
        <path id="Path_6264" data-name="Path 6264" d="M210.665,43.528a22.927,22.927,0,0,1-18.275,0,3.655,3.655,0,0,0-3.987,0c0,1.661,0,3.655,1.994,4.32C199.367,50.506,210.665,43.528,210.665,43.528Z" fill="#939985"/>
        <path id="Path_6265" data-name="Path 6265" d="M79.415,46.851c-9.636,9.968-33.228,4.32-51.835-5.316l-4.984-2.658V36.883h4.652c33.228,11.3,43.528-9.968,51.835-1.994a6.978,6.978,0,0,1,.332,11.962Z" fill="#939985"/>
        <path id="Path_6266" data-name="Path 6266" d="M22.595,36.551h2.326c8.639,2.326,17.943,0,21.266-4.984a2.991,2.991,0,0,0,0-4.652c-4.32-2.658-6.978,7.975-19.937,7.975Z" fill="#939985"/>
        <path id="Path_6267" data-name="Path 6267" d="M41.535,51.835a1.994,1.994,0,0,0,0-2.658c0-3.323-7.975,1.994-16.282-9.968C29.573,45.522,36.551,53.5,41.535,51.835Z" fill="#939985"/>
        <path id="Path_6268" data-name="Path 6268" d="M33.228,48.513s2.658,6.646,6.646,7.31,2.326,0,1.994,0a9.636,9.636,0,0,1-8.639-7.31Z" fill="#939985"/>
        <path id="Path_6269" data-name="Path 6269" d="M26.582,40.538c6.313,11.63,0,15.617,0,17.943a1.994,1.994,0,0,0,2.658,0C33.228,54.494,30.237,45.522,26.582,40.538Z" fill="#939985"/>
        <path id="Path_6270" data-name="Path 6270" d="M33.228,49.177a10.633,10.633,0,0,1,0,8.307v1.994c0,.332,0,0,1.661,0S33.228,49.177,33.228,49.177Z" fill="#939985"/>
        <path id="Path_6271" data-name="Path 6271" d="M340.585,545.269c9.636,9.968,33.228,3.987,51.835-5.649l4.984-2.658v-1.994h-4.652c-33.228,11.63-43.528-9.636-51.835-1.994a7.31,7.31,0,0,0-.332,12.294Z" transform="translate(0 126.413)" fill="#939985"/>
        <path id="Path_6272" data-name="Path 6272" d="M392.421,534.968c-12.959,0-15.949-10.965-19.937-8.307a3.323,3.323,0,0,0,0,4.984c2.991,5.981,12.627,6.978,21.266,4.652h-.332Z" transform="translate(0 126.413)" fill="#939985"/>
        <path id="Path_6274" data-name="Path 6274" d="M387.949,547.569s-3.5,5.675-7.823,6.339-1.994,0-1.994,0h0c4.171-.453,8.53-2.346,9.816-6.339Z" transform="translate(3 120.413)" fill="#939985"/>
        <g id="Group_74" data-name="Group 74" transform="translate(-33.553 22.225) rotate(-3)">
          <path id="Path_6273" data-name="Path 6273" d="M378.5,549.921s-2.061,0,0-2.326,7.9,1.994,16.488-9.968C390.861,543.94,383.346,553.019,378.5,549.921Z" transform="translate(1 123.413)" fill="#939985"/>
          <path id="Path_6275" data-name="Path 6275" d="M5.436.57C-1.4,11.169,4.8,15.238,2.787,17.232c-.316.418-.386.785-.913.785a2.2,2.2,0,0,1-1.522-.808C-2.662,13.222-.75,3.131,5.436.57Z" transform="matrix(0.978, 0.208, -0.208, 0.978, 392.201, 660.971)" fill="#939985"/>
        </g>
        <path id="Path_6277" data-name="Path 6277" d="M397.405,663.707h-4.984V42.793H226.946V36.551H397.405Z" transform="translate(0 0)" fill="#939985"/>
        <path id="Path_6278" data-name="Path 6278" d="M192.722,657.465v6.242H22.595V36.551h4.652V657.465Z" transform="translate(0 0)" fill="#939985"/>
        <path id="Path_6279" data-name="Path 6279" d="M232.595,40.206a5.316,5.316,0,1,1-5.316-5.316,5.316,5.316,0,0,1,5.316,5.316Z" fill="#939985"/>
        <circle id="Ellipse_56" data-name="Ellipse 56" cx="4.984" cy="4.984" r="4.984" transform="translate(185.744 656.065)" fill="#939985"/>
      </g>
    </g>
  </g>
</svg>
