<svg xmlns="http://www.w3.org/2000/svg" width="29.715" height="33" viewBox="0 0 29.715 33">
  <g id="RSVP-Icon" transform="translate(-0.64 -0.288)">
    <path id="Path_6233" data-name="Path 6233" d="M31.634,68.482l.441.43L28.684,65.6v6.8l-9.861,9.972L8.961,72.4V65.6l-2.95,2.882A2.424,2.424,0,0,0,4.64,70.67V84.962a2.408,2.408,0,0,0,2.39,2.426H30.615a2.408,2.408,0,0,0,2.39-2.426V70.67a2.423,2.423,0,0,0-1.371-2.187Z" transform="translate(-3.325 -54.775)" fill="rgba(255,255,255,0)"/>
    <path id="Path_6234" data-name="Path 6234" d="M30.648,4.288V21.426l9.8,9.971,9.8-9.971V4.288Z" transform="translate(-24.946 -3.325)" fill="rgba(255,255,255,0)"/>
    <path id="Path_6239" data-name="Path 6239" d="M25.366.288H5.629a.665.665,0,0,0-.665.665v9.911L2.256,13.471A3.036,3.036,0,0,0,.64,16.144V30.231A3.06,3.06,0,0,0,3.7,33.288H27.3a3.061,3.061,0,0,0,3.057-3.057V16.144a3.036,3.036,0,0,0-1.617-2.674l-2.707-2.606V.953A.665.665,0,0,0,25.366.288ZM6.294,1.618H24.7V17.57l-9.2,9.166-9.2-9.166ZM4.964,16.2,3.185,14.422,4.964,12.71Zm24.061,14.03A1.729,1.729,0,0,1,27.3,31.958H3.7A1.729,1.729,0,0,1,1.97,30.231V16.144a1.677,1.677,0,0,1,.226-.831L5.078,18.2a.634.634,0,0,0,.082.122l9.868,9.828a.634.634,0,0,0,.176.116c.015.007.027.022.043.029a.668.668,0,0,0,.5,0c.016-.007.028-.021.043-.029a.649.649,0,0,0,.176-.116l9.869-9.828a.654.654,0,0,0,.083-.124l2.88-2.88a1.678,1.678,0,0,1,.227.831ZM27.809,14.422,26.031,16.2v-3.49Z" transform="translate(0 0)" fill="#c4a676"/>
    <path id="Path_6240" data-name="Path 6240" d="M47.8,71.225H60.914a.675.675,0,1,0,0-1.349H47.8a.675.675,0,1,0,0,1.349Z" transform="translate(-38.859 -58.025)" fill="#c4a676"/>
    <path id="Path_6241" data-name="Path 6241" d="M61.589,93.607a.675.675,0,0,0-.675-.675H47.8a.675.675,0,1,0,0,1.349H60.914A.675.675,0,0,0,61.589,93.607Z" transform="translate(-38.859 -77.25)" fill="#c4a676"/>
  </g>
</svg>
