<svg id="Layer_2" data-name="Layer 2" xmlns="http://www.w3.org/2000/svg" width="551" height="550.788" viewBox="0 0 551 550.788">
  <g id="Layer_1" data-name="Layer 1">
    <g id="Group_40" data-name="Group 40">
      <path id="Path_6025" data-name="Path 6025" d="M74.424,7.812v.878A14.663,14.663,0,0,1,74,11.352a15.064,15.064,0,0,1-.586,1.757,16.581,16.581,0,0,1-.958,1.969A16.4,16.4,0,0,1,69.1,19.017a15.569,15.569,0,0,1-12.509,3.54,11.524,11.524,0,0,1-3.62-1.277,11.551,11.551,0,0,1-3.114-2.342,12.961,12.961,0,0,1-2.262-3.3,12.03,12.03,0,0,1-1.065-3.886,6.122,6.122,0,0,1,0-.985V8.744a3.468,3.468,0,0,1,.24-1.038A10.007,10.007,0,0,1,48.688,4.06,9.688,9.688,0,0,1,55.794.6h1.943a8.49,8.49,0,0,1,1.916.612,8.144,8.144,0,0,1,2.928,2.422,7.984,7.984,0,0,1,1.357,3.353q0,.439,0,.878v.745h0V8.8a5.908,5.908,0,0,1-4.9,5.323,4.312,4.312,0,0,1-1.3,0H56.619A4.258,4.258,0,0,1,54.7,12.976a4.418,4.418,0,0,1-1.251-2.661,5.59,5.59,0,0,1,0-.745V9.356A.442.442,0,0,1,54.33,9.3h0v.213a3.275,3.275,0,0,0,0,.559,3.327,3.327,0,0,0,1.171,1.7,3.274,3.274,0,0,0,1.2.559h.958a3.353,3.353,0,0,0,.878,0h.452l.426-.213a3.938,3.938,0,0,0,.8-.559c.16,0,.24-.24.346-.346a2.485,2.485,0,0,0,.346-.4,4.526,4.526,0,0,0,.426-.9A5,5,0,0,0,61.6,8.691h0V7.44a5.722,5.722,0,0,0-.958-2.369,6.175,6.175,0,0,0-2.049-1.73,5.323,5.323,0,0,0-1.3-.426h-1.49a7.585,7.585,0,0,0-7,5.483,4.365,4.365,0,0,0-.186.745c0,.266,0,.612,0,.9a8.624,8.624,0,0,0,0,1.65,10.459,10.459,0,0,0,8.25,9.155,13.307,13.307,0,0,0,6.254-.293A14.744,14.744,0,0,0,68.2,17.9a14.585,14.585,0,0,0,3.274-3.593A15.064,15.064,0,0,0,73.04,10.9,11.793,11.793,0,0,0,73.6,8.5V7.626a.346.346,0,0,1,.4-.293.32.32,0,1,1,.426.479Z" transform="translate(77.354 0.994)" fill="#b39a7a"/>
      <path id="Path_6026" data-name="Path 6026" d="M7.846,149.886h.878a15.307,15.307,0,0,1,2.661.452,11.308,11.308,0,0,1,1.757.585,13.014,13.014,0,0,1,1.969.932,15.97,15.97,0,0,1,4.045,3.38,15.011,15.011,0,0,1,2.9,5.616,15.25,15.25,0,0,1,.532,6.973,12,12,0,0,1-1.277,3.619,11.417,11.417,0,0,1-2.342,3.087,12.321,12.321,0,0,1-3.3,2.262,12.03,12.03,0,0,1-3.886,1.065,6.115,6.115,0,0,1-.985,0H8.724a3.468,3.468,0,0,1-1.038-.24A10.008,10.008,0,0,1,4.04,175.7a9.688,9.688,0,0,1-3.46-7.026v-.9h0v-.9a7.718,7.718,0,0,1,.612-1.916A7.985,7.985,0,0,1,3.614,162a7.985,7.985,0,0,1,3.407-1.65H8.857a7.475,7.475,0,0,1,1.544.373,5.828,5.828,0,0,1,3.779,4.524,4.365,4.365,0,0,1,0,1.3v.24h0v.24a3.434,3.434,0,0,1,0,.506,4.6,4.6,0,0,1-1.144,1.916,4.338,4.338,0,0,1-2.661,1.224,6.794,6.794,0,0,1-.745,0h-.24a.452.452,0,0,1-.426-.452.426.426,0,0,1,.373-.4h.9a3.327,3.327,0,0,0,1.7-1.171,3.273,3.273,0,0,0,.559-1.2v-.745h0v-.16a3.353,3.353,0,0,0,0-.878,2.661,2.661,0,0,1,0-.426c0-.16-.16-.293-.213-.426a3.46,3.46,0,0,0-.559-.825,2.128,2.128,0,0,0-.346-.346l-.4-.319a4.766,4.766,0,0,0-.9-.452,5,5,0,0,0-1.224-.266H7.473a6.1,6.1,0,0,0-2.369.958,6.281,6.281,0,0,0-1.73,2.076,4.817,4.817,0,0,0-.426,1.277v1.517a7.638,7.638,0,0,0,2.661,5.483,7.984,7.984,0,0,0,2.821,1.544l.745.186h.9a11.636,11.636,0,0,0,1.65,0,10.646,10.646,0,0,0,6.068-2.661,10.273,10.273,0,0,0,3.22-5.589,13.44,13.44,0,0,0-.293-6.281,14.744,14.744,0,0,0-2.661-5.083,14.984,14.984,0,0,0-3.62-3.167,15.278,15.278,0,0,0-3.407-1.6,13.923,13.923,0,0,0-2.4-.559H7.766a.346.346,0,0,1-.293-.4.319.319,0,0,1,.373-.426Z" transform="translate(1.04 249.008)" fill="#b39a7a"/>
      <path id="Path_6027" data-name="Path 6027" d="M149.883,212.934v-.878a15.3,15.3,0,0,1,.452-2.661,11.307,11.307,0,0,1,.585-1.757,13.018,13.018,0,0,1,.932-1.97,15.971,15.971,0,0,1,3.38-4.019,15.063,15.063,0,0,1,5.456-3.034,15.25,15.25,0,0,1,6.973-.506,11.952,11.952,0,0,1,3.62,1.251,11.525,11.525,0,0,1,3.087,2.369A12.188,12.188,0,0,1,176.63,205a12.4,12.4,0,0,1,1.065,3.886,6.29,6.29,0,0,1,0,1.011c0,.346,0,.612,0,1.065v.932a3.84,3.84,0,0,1-.24,1.065,9.687,9.687,0,0,1-1.916,3.62,9.821,9.821,0,0,1-7.026,3.487H166.6a7.771,7.771,0,0,1-4.87-3.034,7.984,7.984,0,0,1-1.384-3.327v-1.623h0V211.9a6.92,6.92,0,0,1,.373-1.517,5.908,5.908,0,0,1,4.524-3.806,5.456,5.456,0,0,1,1.3,0h1.144a4.365,4.365,0,0,1,1.916,1.171,4.231,4.231,0,0,1,1.224,2.661,6.786,6.786,0,0,1,0,.745v.266a.426.426,0,0,1-.452.4.4.4,0,0,1-.4-.346v-.878a3.433,3.433,0,0,0-1.171-1.7,4.444,4.444,0,0,0-1.2-.559h-.878a5.084,5.084,0,0,0-.878.16h-.426a1.277,1.277,0,0,0-.426.213,2.661,2.661,0,0,0-.825.532,1.545,1.545,0,0,0-.346.373,2.343,2.343,0,0,0-.319.4,3.6,3.6,0,0,0-.452.9,4.47,4.47,0,0,0-.266,1.224h0v1.144a6.149,6.149,0,0,0,.958,2.342,5.7,5.7,0,0,0,2.076,1.73,6.122,6.122,0,0,0,1.277.452h1.517a7.532,7.532,0,0,0,5.483-2.661,7.984,7.984,0,0,0,1.544-2.821,1.085,1.085,0,0,1,.186-.745c.186-.239,0-.612,0-.9a11.877,11.877,0,0,0,0-1.65,10.486,10.486,0,0,0-8.25-9.288,13.439,13.439,0,0,0-6.281.293,15.223,15.223,0,0,0-5.083,2.661,14.452,14.452,0,0,0-4.844,7.026,13.732,13.732,0,0,0-.559,2.369v.878a.4.4,0,0,1-.4.319.346.346,0,0,1-.532-.346Z" transform="translate(249.09 328.825)" fill="#b39a7a"/>
      <path id="Path_6028" data-name="Path 6028" d="M212.915,74.425h-.878A14.662,14.662,0,0,1,209.376,74a15.063,15.063,0,0,1-1.757-.586,16.578,16.578,0,0,1-1.97-.958,16.317,16.317,0,0,1-3.912-3.353,15.33,15.33,0,0,1-3.62-12.509,11.47,11.47,0,0,1,1.251-3.62,11.631,11.631,0,0,1,2.369-3.114,12.826,12.826,0,0,1,3.274-2.262,12.4,12.4,0,0,1,3.886-1.065,6.28,6.28,0,0,1,1.011,0h2a3.839,3.839,0,0,1,1.065.24,9.688,9.688,0,0,1,3.62,1.916,9.821,9.821,0,0,1,3.566,7.106v1.943a8.487,8.487,0,0,1-.612,1.916,7.691,7.691,0,0,1-5.749,4.312h-1.836a5.509,5.509,0,0,1-1.517-.346,5.935,5.935,0,0,1-3.806-4.551,5.323,5.323,0,0,1,0-1.3v-.213h0v-.745a4.073,4.073,0,0,1,1.171-1.916,4.365,4.365,0,0,1,2.661-1.251,5.594,5.594,0,0,1,.745,0h.266a.446.446,0,0,1,.053.878h-.213a3.274,3.274,0,0,0-.559,0,3.433,3.433,0,0,0-2,1.278,4.444,4.444,0,0,0-.559,1.2v.8h0v.16a5.086,5.086,0,0,0,.16.878,2.9,2.9,0,0,0,0,.452,2.1,2.1,0,0,0,.213.426,2.98,2.98,0,0,0,.532.8,1.171,1.171,0,0,0,.373.346,2.478,2.478,0,0,0,.4.346,3.488,3.488,0,0,0,.9.426,4.471,4.471,0,0,0,1.224.266h1.118a5.749,5.749,0,0,0,2.342-.958,5.615,5.615,0,0,0,1.73-2.049,6.92,6.92,0,0,0,.452-1.3V55.795a7.532,7.532,0,0,0-2.661-5.483,7.452,7.452,0,0,0-2.821-1.517,4.365,4.365,0,0,0-.745-.186h-.9a8.356,8.356,0,0,0-1.623,0,10.459,10.459,0,0,0-9.315,8.277,13.307,13.307,0,0,0,.293,6.254,14.185,14.185,0,0,0,9.581,9.927,11.606,11.606,0,0,0,2.369.559h.878a.4.4,0,0,1,.319.4A.346.346,0,0,1,212.915,74.425Z" transform="translate(328.923 77.275)" fill="#b39a7a"/>
      <path id="Path_6029" data-name="Path 6029" d="M149.886,7.812v.878a15.307,15.307,0,0,0,.452,2.661,11.307,11.307,0,0,0,.585,1.757,13.014,13.014,0,0,0,.932,1.969,15.97,15.97,0,0,0,3.38,4.045,15.011,15.011,0,0,0,5.616,2.9,15.25,15.25,0,0,0,6.973.532,12,12,0,0,0,3.619-1.277,11.417,11.417,0,0,0,3.087-2.342,12.323,12.323,0,0,0,2.289-3.3,12.028,12.028,0,0,0,1.065-3.886,6.116,6.116,0,0,0,0-.985c0-.373,0-.639,0-1.065V8.744a3.468,3.468,0,0,0-.24-1.038,10.007,10.007,0,0,0-1.916-3.646A9.688,9.688,0,0,0,168.516.6H166.6a7.718,7.718,0,0,0-1.916.612,7.984,7.984,0,0,0-2.954,2.422,7.985,7.985,0,0,0-1.384,3.353V8.611h0V8.8a7.475,7.475,0,0,0,.373,1.544,5.828,5.828,0,0,0,4.524,3.779,4.365,4.365,0,0,0,1.3,0h1.144a4.6,4.6,0,0,0,1.916-1.144,4.338,4.338,0,0,0,1.224-2.661,6.8,6.8,0,0,0,0-.745V9.356a.452.452,0,0,0-.452-.426.426.426,0,0,0-.4.373v.9a3.327,3.327,0,0,1-1.171,1.7,3.274,3.274,0,0,1-1.2.559h-.958a3.353,3.353,0,0,1-.878,0h-.426c-.16,0-.293-.16-.426-.213a3.46,3.46,0,0,1-.825-.559,2.13,2.13,0,0,1-.346-.346c0-.16-.24-.266-.319-.4a4.764,4.764,0,0,1-.452-.9,5,5,0,0,1-.266-1.224h0V7.44a6.1,6.1,0,0,1,.958-2.369,6.282,6.282,0,0,1,2.076-1.73,4.816,4.816,0,0,1,1.277-.426h1.517a7.638,7.638,0,0,1,5.483,2.661A7.984,7.984,0,0,1,175.568,8.4a1.085,1.085,0,0,0,.186.745c.186.24,0,.612,0,.9a11.627,11.627,0,0,1,0,1.65,10.646,10.646,0,0,1-2.661,6.068,10.433,10.433,0,0,1-5.589,3.22,13.441,13.441,0,0,1-6.281-.293,14.744,14.744,0,0,1-5.083-2.661,14.983,14.983,0,0,1-3.274-3.62,15.277,15.277,0,0,1-1.6-3.407,13.923,13.923,0,0,1-.559-2.4V7.733a.346.346,0,0,0-.4-.293.319.319,0,0,0-.426.373Z" transform="translate(249.087 0.994)" fill="#b39a7a"/>
      <path id="Path_6030" data-name="Path 6030" d="M7.812,74.424h.878A14.663,14.663,0,0,0,11.352,74a15.064,15.064,0,0,0,1.757-.586,16.577,16.577,0,0,0,1.863-1.038A16.394,16.394,0,0,0,19.017,69.1a15.569,15.569,0,0,0,3.54-12.509,11.524,11.524,0,0,0-1.277-3.62,11.551,11.551,0,0,0-2.342-3.114,12.961,12.961,0,0,0-3.3-2.262,12.03,12.03,0,0,0-3.886-1.065,6.122,6.122,0,0,0-.985,0H8.691a3.468,3.468,0,0,0-1.038.24,10.007,10.007,0,0,0-3.646,1.916A9.688,9.688,0,0,0,.6,55.794v1.943a8.49,8.49,0,0,0,.612,1.916,8.144,8.144,0,0,0,2.422,2.928,7.984,7.984,0,0,0,3.353,1.357H8.824a5.908,5.908,0,0,0,5.323-4.9,4.312,4.312,0,0,0,0-1.3v-.213h0v-.266a3.087,3.087,0,0,0,0-.479A4.258,4.258,0,0,0,13,54.863a4.418,4.418,0,0,0-2.661-1.251,5.593,5.593,0,0,0-.745,0h-.24a.442.442,0,0,0-.053.878h.213a3.273,3.273,0,0,1,.559,0,3.327,3.327,0,0,1,1.7,1.171,3.274,3.274,0,0,1,.559,1.2v.8h0v.16a3.353,3.353,0,0,1,0,.878,2.9,2.9,0,0,0,0,.452c0,.133-.16.266-.213.426a3.938,3.938,0,0,1-.559.8c0,.16-.24.24-.346.346a2.484,2.484,0,0,1-.4.346,4.525,4.525,0,0,1-.9.426,5,5,0,0,1-1.224.266H7.44A5.722,5.722,0,0,1,5.071,60.8a6.175,6.175,0,0,1-1.73-2.049,5.323,5.323,0,0,1-.426-1.3v-1.65a7.585,7.585,0,0,1,5.483-7,4.366,4.366,0,0,1,.745-.186h.9a8.624,8.624,0,0,1,1.65,0,10.646,10.646,0,0,1,6.068,2.661,10.326,10.326,0,0,1,3.087,5.589,13.307,13.307,0,0,1-.293,6.254A14.744,14.744,0,0,1,17.9,68.2a14.585,14.585,0,0,1-3.593,3.274A15.064,15.064,0,0,1,10.9,73.04a11.792,11.792,0,0,1-2.4.559H7.626a.346.346,0,0,0-.293.4.32.32,0,1,0,.479.426Z" transform="translate(1.074 77.275)" fill="#b39a7a"/>
      <path id="Path_6031" data-name="Path 6031" d="M74.425,212.915v-.878A14.663,14.663,0,0,0,74,209.376a15.066,15.066,0,0,0-.586-1.757,16.578,16.578,0,0,0-.958-1.97,16.317,16.317,0,0,0-3.353-3.912,15.33,15.33,0,0,0-12.509-3.62,11.47,11.47,0,0,0-3.62,1.251,11.63,11.63,0,0,0-3.114,2.369,12.826,12.826,0,0,0-2.262,3.274,12.4,12.4,0,0,0-1.065,3.886,6.279,6.279,0,0,0,0,1.011c0,.346,0,.612,0,1.065v.932a3.839,3.839,0,0,0,.24,1.065,9.687,9.687,0,0,0,1.916,3.62,9.821,9.821,0,0,0,7.106,3.566h1.943a8.487,8.487,0,0,0,1.916-.612,7.691,7.691,0,0,0,4.312-5.749V212.17h0v-.186a5.509,5.509,0,0,0-.346-1.517,5.935,5.935,0,0,0-4.551-3.806,5.324,5.324,0,0,0-1.3,0H56.646a4.072,4.072,0,0,0-1.916,1.171,4.285,4.285,0,0,0-1.251,2.661,5.589,5.589,0,0,0,0,.745v.266a.446.446,0,0,0,.878.053h0v-.213a3.273,3.273,0,0,1,0-.559,3.433,3.433,0,0,1,1.437-2.023,4.444,4.444,0,0,1,1.2-.559h.958a5.086,5.086,0,0,1,.878.16h.452a2.1,2.1,0,0,1,.426.213,2.981,2.981,0,0,1,.8.532,1.17,1.17,0,0,1,.346.373,2.478,2.478,0,0,1,.346.4,3.486,3.486,0,0,1,.426.9,4.471,4.471,0,0,1,.266,1.224h0v1.144a5.749,5.749,0,0,1-.958,2.342,5.615,5.615,0,0,1-2.049,1.73,6.92,6.92,0,0,1-1.3.452H55.795a7.532,7.532,0,0,1-5.483-2.661,7.452,7.452,0,0,1-1.517-2.821,4.363,4.363,0,0,1-.186-.745v-.9a8.677,8.677,0,0,1,0-1.65,10.459,10.459,0,0,1,8.277-9.288,13.307,13.307,0,0,1,6.254.293,14.185,14.185,0,0,1,9.927,9.581,11.6,11.6,0,0,1,.559,2.369q0,.878,0,.878a.4.4,0,0,0,.4.319.346.346,0,0,0,.4-.133Z" transform="translate(77.354 328.844)" fill="#b39a7a"/>
      <path id="Path_6032" data-name="Path 6032" d="M212.934,149.88h-.878a15.308,15.308,0,0,0-2.661.452,11.309,11.309,0,0,0-1.757.585,13.016,13.016,0,0,0-1.969.931,15.969,15.969,0,0,0-4.019,3.38,15.064,15.064,0,0,0-3.034,5.456,15.25,15.25,0,0,0-.506,6.973,11.952,11.952,0,0,0,1.251,3.62,11.524,11.524,0,0,0,2.369,3.087A12.188,12.188,0,0,0,205,176.628a12.4,12.4,0,0,0,3.886,1.065,6.292,6.292,0,0,0,1.011,0h2a3.839,3.839,0,0,0,1.065-.24,9.687,9.687,0,0,0,3.62-1.916,9.821,9.821,0,0,0,3.487-7.026v-.9h0v-.985a7.771,7.771,0,0,0-3.034-4.87,7.984,7.984,0,0,0-3.327-1.384H211.87a6.917,6.917,0,0,0-1.517.373,5.908,5.908,0,0,0-3.806,4.524,5.456,5.456,0,0,0,0,1.3v.24h0v.745a4.365,4.365,0,0,0,1.171,1.916,4.285,4.285,0,0,0,2.661,1.224,6.783,6.783,0,0,0,.745,0h.266a.426.426,0,0,0,.4-.452.4.4,0,0,0-.346-.4h-.878a3.433,3.433,0,0,1-1.7-1.171,4.444,4.444,0,0,1-.559-1.2v-.745h0v-.16a5.073,5.073,0,0,1,.16-.878,2.667,2.667,0,0,1,0-.426,1.279,1.279,0,0,1,.213-.426,2.662,2.662,0,0,1,.532-.825,1.542,1.542,0,0,1,.373-.346,2.344,2.344,0,0,1,.4-.319,3.594,3.594,0,0,1,.9-.452,4.47,4.47,0,0,1,1.224-.266h1.118a6.147,6.147,0,0,1,2.342.958,5.694,5.694,0,0,1,1.73,2.076,6.124,6.124,0,0,1,.452,1.277v1.517a7.532,7.532,0,0,1-2.661,5.483,7.984,7.984,0,0,1-2.821,1.544l-.745.186h-.9a11.394,11.394,0,0,1-1.623,0,10.459,10.459,0,0,1-9.315-8.25,13.441,13.441,0,0,1,.293-6.281,15.223,15.223,0,0,1,2.661-5.083,14.451,14.451,0,0,1,7.026-4.844,13.729,13.729,0,0,1,2.369-.559h.878a.4.4,0,0,0,.319-.4.346.346,0,0,0-.293-.373Z" transform="translate(328.904 249.013)" fill="#b39a7a"/>
      <path id="Path_6033" data-name="Path 6033" d="M83.562,15.3l-.16-.878a6.309,6.309,0,0,0-.24-1.118,8.117,8.117,0,0,0-.4-1.331,15.118,15.118,0,0,0-1.677-3.353,15.3,15.3,0,0,0-3.274-3.3A14.8,14.8,0,0,0,72.836,2.66a12.455,12.455,0,0,0-3.007-.4H66.662a10.646,10.646,0,0,0-2.928,1.091,9.741,9.741,0,0,0-2.661,2,10.3,10.3,0,0,0-2.661,5.962v2.5a7.456,7.456,0,0,0,.16.745,7.984,7.984,0,0,0,1.49,2.821,7.745,7.745,0,0,0,5.323,2.661h1.544a5.163,5.163,0,0,0,1.331-.426,5.855,5.855,0,0,0,2.182-1.73,6.255,6.255,0,0,0,1.065-2.449V14.45a4.631,4.631,0,0,0-.266-1.277,3.753,3.753,0,0,0-.479-.985,2.9,2.9,0,0,0-.346-.452,2.448,2.448,0,0,0-.373-.373l-.426-.346a3.726,3.726,0,0,0-.452-.24,1.543,1.543,0,0,0-.16-.133l-.452-.133a3.966,3.966,0,0,0-.958,0h-.931a3.54,3.54,0,0,0-2.369,2.475v.878a.452.452,0,0,1-.506.426.479.479,0,0,1-.426-.479V12.693a4.285,4.285,0,0,1,1.3-2.5A4.365,4.365,0,0,1,66.5,9.127H67.62a4.737,4.737,0,0,1,1.224,0,5.7,5.7,0,0,1,4.312,3.62,5.8,5.8,0,0,1,.373,1.49h0v1.57a7.612,7.612,0,0,1-1.3,3.247,7.319,7.319,0,0,1-2.821,2.4,6.68,6.68,0,0,1-1.863.639H65.624a9.608,9.608,0,0,1-7.026-3.38,9.421,9.421,0,0,1-1.969-3.62,5.663,5.663,0,0,0-.266-1.065,3.631,3.631,0,0,1,0-.932v.213h0V12.267a6.6,6.6,0,0,1,0-1.011,12.642,12.642,0,0,1,6.254-9.741,12.03,12.03,0,0,1,3.7-1.3,15.117,15.117,0,0,1,7.106.506,15.543,15.543,0,0,1,5.536,3.114,16.1,16.1,0,0,1,3.353,4.152,18.393,18.393,0,0,1,.9,2.023,11.871,11.871,0,0,1,.532,1.783,11.444,11.444,0,0,1,.346,2.661v.878a.27.27,0,1,1-.532-.027Z" transform="translate(93.66 -0.001)" fill="#b39a7a"/>
      <path id="Path_6034" data-name="Path 6034" d="M15.3,140.67l-.878.16a6.014,6.014,0,0,0-1.038.213,12.005,12.005,0,0,0-1.331.4A15.115,15.115,0,0,0,8.7,143.118a16.606,16.606,0,0,0-3.38,3.274,14.691,14.691,0,0,0-2.661,5,12.456,12.456,0,0,0-.479,2.981c0,.532,0,1.065,0,1.57v.16h0v1.437a10.645,10.645,0,0,0,1.091,2.928,10.167,10.167,0,0,0,7.984,5.323,4.15,4.15,0,0,0,.825,0h1.677l.745-.16a7.585,7.585,0,0,0,2.821-1.49,7.691,7.691,0,0,0,2.661-5.323V157.3a5.323,5.323,0,0,0-.426-1.357,5.962,5.962,0,0,0-1.73-2.156,5.882,5.882,0,0,0-2.449-1.064H14.45a4.736,4.736,0,0,0-1.277.239,3.753,3.753,0,0,0-.985.479,2.9,2.9,0,0,0-.452.346,1.756,1.756,0,0,0-.373.4l-.346.426a2.422,2.422,0,0,0-.24.452,1.411,1.411,0,0,0-.213.452l-.133.479a3.752,3.752,0,0,0,0,.932v.16h0v.745a3.407,3.407,0,0,0,2.475,2.369,3.249,3.249,0,0,0,.586,0h.293a.452.452,0,0,1,.426.506.479.479,0,0,1-.479.426h-.293a3.806,3.806,0,0,1-.745,0,4.524,4.524,0,0,1-2.5-1.331,4.365,4.365,0,0,1-1.065-1.836v-.745h0v-.213a5.03,5.03,0,0,1,0-1.251,5.749,5.749,0,0,1,5.11-4.657h1.73a7.984,7.984,0,0,1,3.247,1.3,7.505,7.505,0,0,1,2.4,2.821,7,7,0,0,1,.639,1.863,1.783,1.783,0,0,1,0,.479V158h0v.9a9.661,9.661,0,0,1-3.38,7.053,10.194,10.194,0,0,1-3.62,1.969,5.521,5.521,0,0,0-1.065.24H12.268a6.6,6.6,0,0,1-1.011,0,12.482,12.482,0,0,1-9.741-6.414,12.029,12.029,0,0,1-1.3-3.7,14.984,14.984,0,0,1,.506-7.079,15.676,15.676,0,0,1,3.114-5.829,16.1,16.1,0,0,1,4.152-3.247,17.941,17.941,0,0,1,2.023-.878,16.656,16.656,0,0,1,1.783-.559,13.49,13.49,0,0,1,2.661-.346h.878a.293.293,0,0,1,.319.266.319.319,0,0,1-.346.293Z" transform="translate(0.078 232.78)" fill="#b39a7a"/>
      <path id="Path_6035" data-name="Path 6035" d="M140.636,205.317l.16.878a1.924,1.924,0,0,0,.213,1.011,11.988,11.988,0,0,0,.4,1.331,14.556,14.556,0,0,0,1.677,3.353,15.965,15.965,0,0,0,3.274,3.487,14.212,14.212,0,0,0,5,2.475,13.973,13.973,0,0,0,2.981.506,15.461,15.461,0,0,0,1.57,0h1.6a10.646,10.646,0,0,0,5.509-3.087,10.247,10.247,0,0,0,2.661-5.935,4.579,4.579,0,0,0,0-.852v-1.757a1.268,1.268,0,0,0-.16-.745,7.584,7.584,0,0,0-1.49-2.821,7.8,7.8,0,0,0-5.323-2.661H157.19a5.324,5.324,0,0,0-1.357.4,5.8,5.8,0,0,0-3.22,4.178,6.435,6.435,0,0,0,0,.665v.559a4.975,4.975,0,0,0,.24,1.277,4.765,4.765,0,0,0,.479.985,4.886,4.886,0,0,0,.346.426,2.821,2.821,0,0,0,.4.4l.426.319,1.384.612a5.57,5.57,0,0,0,.932,0h.9a3.674,3.674,0,0,0,1.277-.665,3.461,3.461,0,0,0,1.091-1.81,2.983,2.983,0,0,0,0-.585v-.293a.452.452,0,0,1,.506-.426.479.479,0,0,1,.426.479v.24a3.748,3.748,0,0,1,0,.745,4.5,4.5,0,0,1-1.331,2.661,4.632,4.632,0,0,1-1.836,1.038h-1.091a5.084,5.084,0,0,1-1.251,0,5.722,5.722,0,0,1-4.312-3.593,5.937,5.937,0,0,1-.346-1.49v-.16h0v-1.57a7.984,7.984,0,0,1,1.3-3.247,7.505,7.505,0,0,1,2.821-2.4,7.985,7.985,0,0,1,1.863-.639h1.916a9.661,9.661,0,0,1,7.053,3.38,10.192,10.192,0,0,1,1.969,3.62,5.113,5.113,0,0,0,.24,1.065,3.846,3.846,0,0,1,0,.958h0v.9a6.445,6.445,0,0,1,0,1.011,12.509,12.509,0,0,1-3.274,7.292,12.055,12.055,0,0,1-3.14,2.449,11.366,11.366,0,0,1-3.7,1.3,14.665,14.665,0,0,1-7.079-.506,15.277,15.277,0,0,1-5.562-3.114,13.839,13.839,0,0,1-4.232-6.148,16.638,16.638,0,0,1-.559-1.783,13.043,13.043,0,0,1-.346-2.661v-.9a.293.293,0,1,1,.586,0Z" transform="translate(232.894 329.975)" fill="#b39a7a"/>
      <path id="Path_6036" data-name="Path 6036" d="M205.334,83.469l.878-.16a6.736,6.736,0,0,0,1.011-.24,8.117,8.117,0,0,0,1.331-.4,14.559,14.559,0,0,0,3.353-1.677,14.824,14.824,0,0,0,5.988-8.25,15.753,15.753,0,0,0,.4-3.007,15.431,15.431,0,0,0,0-1.57v-.16h0V66.569a9.82,9.82,0,0,0-1.091-2.928,9.236,9.236,0,0,0-2-2.661,10.3,10.3,0,0,0-5.935-2.661h-2.528l-.745.16a7.514,7.514,0,0,0-5.483,6.813v1.544a5.057,5.057,0,0,0,.4,1.331,5.669,5.669,0,0,0,1.757,2.182,6.147,6.147,0,0,0,2.422,1.065h1.224a4.87,4.87,0,0,0,1.277-.266,4.763,4.763,0,0,0,.985-.479,4.878,4.878,0,0,0,.426-.346c0-.133.293-.24.4-.373l.319-.426a3.73,3.73,0,0,0,.24-.452,2.658,2.658,0,0,0,.239-.479l.133-.452a5.86,5.86,0,0,0,0-.958v.16h0V66.6a3.54,3.54,0,0,0-.665-1.251,3.354,3.354,0,0,0-1.81-1.118h-.878a.452.452,0,0,1-.426-.506.479.479,0,0,1,.479-.426h.985a4.285,4.285,0,0,1,2.661,1.3,4.632,4.632,0,0,1,1.038,1.836v.878h0v.24a4.761,4.761,0,0,1,0,1.224,5.722,5.722,0,0,1-3.593,4.311,6.1,6.1,0,0,1-1.49.373h-1.757a7.744,7.744,0,0,1-3.247-1.3,7.32,7.32,0,0,1-2.4-2.821,7.667,7.667,0,0,1-.639-1.863v-.9h0v-.9a9.608,9.608,0,0,1,3.38-7.026,9.422,9.422,0,0,1,3.62-1.969l1.065-.266h2.023a6.438,6.438,0,0,1,1.011,0,12.376,12.376,0,0,1,7.292,3.3,11.949,11.949,0,0,1,2.449,3.114,11.363,11.363,0,0,1,1.3,3.7,14.8,14.8,0,0,1-.506,7.106,15.171,15.171,0,0,1-3.114,5.536A15.678,15.678,0,0,1,213,82.511a16.42,16.42,0,0,1-2.023.9,11.873,11.873,0,0,1-1.783.532,11.256,11.256,0,0,1-2.661.346h-.9a.266.266,0,0,1-.293-.266.279.279,0,0,1,0-.559Z" transform="translate(330.038 93.673)" fill="#b39a7a"/>
      <path id="Path_6037" data-name="Path 6037" d="M140.67,15.3l.16-.878a10.331,10.331,0,0,1,.213-1.038,12,12,0,0,1,.4-1.331A15.117,15.117,0,0,1,143.118,8.7a16.607,16.607,0,0,1,3.274-3.38,14.691,14.691,0,0,1,5-2.661,12.456,12.456,0,0,1,2.981-.479h3.167a10.645,10.645,0,0,1,2.928,1.091,10.167,10.167,0,0,1,5.323,7.984,4.15,4.15,0,0,1,0,.825v.8a7.985,7.985,0,0,1,0,.878,7.452,7.452,0,0,1-.16.745,7.585,7.585,0,0,1-1.49,2.821,7.691,7.691,0,0,1-5.323,2.661H157.3a5.323,5.323,0,0,1-1.357-.426,5.962,5.962,0,0,1-2.156-1.73,5.882,5.882,0,0,1-1.064-2.449,5.326,5.326,0,0,1,0-.639V14.45a4.736,4.736,0,0,1,.239-1.277,3.753,3.753,0,0,1,.479-.985,2.9,2.9,0,0,1,.346-.452,1.756,1.756,0,0,1,.4-.373l.426-.346a2.422,2.422,0,0,1,.452-.24,1.411,1.411,0,0,1,.452-.213l.479-.133a3.752,3.752,0,0,1,.932,0h.932a3.407,3.407,0,0,1,2.369,2.475,3.249,3.249,0,0,1,0,.586v.293a.452.452,0,0,0,.506.426.479.479,0,0,0,.426-.479v-.293a3.8,3.8,0,0,0,0-.745,4.524,4.524,0,0,0-1.331-2.5A4.364,4.364,0,0,0,158,9.127H156.9a5.03,5.03,0,0,0-1.251,0A5.749,5.749,0,0,0,151,14.237h0v1.57a7.984,7.984,0,0,0,1.3,3.247,7.505,7.505,0,0,0,2.821,2.4,7,7,0,0,0,1.863.639H158.9a9.661,9.661,0,0,0,7.053-3.38,10.193,10.193,0,0,0,1.969-3.62,5.515,5.515,0,0,1,.24-1.065,3.631,3.631,0,0,0,0-.932v.213h0V12.268a6.6,6.6,0,0,0,0-1.011,12.482,12.482,0,0,0-6.574-9.741,12.029,12.029,0,0,0-3.7-1.3,14.984,14.984,0,0,0-7.079.506,15.676,15.676,0,0,0-5.669,3.114,16.1,16.1,0,0,0-3.247,4.152,17.93,17.93,0,0,0-.878,2.023,16.652,16.652,0,0,0-.559,1.783,13.307,13.307,0,0,0-.346,2.661v.878a.293.293,0,0,0,.266.319.319.319,0,0,0,.293-.346Z" transform="translate(232.86 -0.001)" fill="#b39a7a"/>
      <path id="Path_6038" data-name="Path 6038" d="M15.3,83.552l-.878-.16a6.309,6.309,0,0,1-1.118-.24,8.117,8.117,0,0,1-1.331-.4,15.118,15.118,0,0,1-3.353-1.677,15.3,15.3,0,0,1-3.3-3.274A14.8,14.8,0,0,1,2.66,72.826a12.455,12.455,0,0,1-.4-3.007c0-.506,0-1.038,0-1.57v-.16h0V66.652a10.646,10.646,0,0,1,1.091-2.928,9.741,9.741,0,0,1,2-2.661A10.3,10.3,0,0,1,11.309,58.4h2.5l.745.16a7.984,7.984,0,0,1,2.821,1.49,7.745,7.745,0,0,1,2.661,5.323v1.544a5.163,5.163,0,0,1-.426,1.331,5.855,5.855,0,0,1-1.73,2.182A6.254,6.254,0,0,1,15.434,71.5H14.45a4.631,4.631,0,0,1-1.277-.266,3.753,3.753,0,0,1-.985-.479,2.9,2.9,0,0,1-.452-.346,2.448,2.448,0,0,1-.373-.373l-.346-.426a3.726,3.726,0,0,1-.24-.452,1.543,1.543,0,0,1-.133-.16l-.133-.452a3.966,3.966,0,0,1,0-.958v-.16h0v-.745a3.54,3.54,0,0,1,2.475-2.369h.878a.452.452,0,0,0,.426-.506.479.479,0,0,0-.479-.426H12.693a4.285,4.285,0,0,0-2.5,1.3,4.365,4.365,0,0,0-1.065,1.836v.745h0v.24a4.737,4.737,0,0,0,0,1.224,5.7,5.7,0,0,0,3.62,4.312,5.8,5.8,0,0,0,1.49.373h1.73a7.612,7.612,0,0,0,3.247-1.3,7.319,7.319,0,0,0,2.4-2.821,6.68,6.68,0,0,0,.639-1.863,1.65,1.65,0,0,0,0-.479v-.426h0v-.9a9.608,9.608,0,0,0-3.38-7.026,9.421,9.421,0,0,0-3.62-1.969l-1.065-.266H12.267a6.6,6.6,0,0,0-1.011,0,12.642,12.642,0,0,0-9.741,6.254,12.03,12.03,0,0,0-1.3,3.7,15.117,15.117,0,0,0,.506,7.106,15.543,15.543,0,0,0,3.114,5.536A16.1,16.1,0,0,0,7.982,82.3a18.391,18.391,0,0,0,2.023.9,11.87,11.87,0,0,0,1.783.532,11.631,11.631,0,0,0,2.661.346h.878a.27.27,0,1,0-.027-.532Z" transform="translate(0.079 93.591)" fill="#b39a7a"/>
      <path id="Path_6039" data-name="Path 6039" d="M83.545,205.317l-.16.878a6.735,6.735,0,0,1-.24,1.011,8.115,8.115,0,0,1-.4,1.331,14.559,14.559,0,0,1-1.677,3.353,14.769,14.769,0,0,1-3.274,3.486,14.317,14.317,0,0,1-4.977,2.475,13.918,13.918,0,0,1-3.007.506,15.462,15.462,0,0,1-1.57,0h-1.6a9.823,9.823,0,0,1-2.928-1.091,9.236,9.236,0,0,1-2.661-2,10.3,10.3,0,0,1-2.661-5.935c0-.293,0-.559,0-.852v-1.757a1.268,1.268,0,0,1,.16-.745,7.514,7.514,0,0,1,6.813-5.483h1.544a5.057,5.057,0,0,1,1.331.4,5.67,5.67,0,0,1,2.182,1.757,6.148,6.148,0,0,1,1.065,2.422V206.3a4.87,4.87,0,0,1-.266,1.277,4.764,4.764,0,0,1-.479.985,4.87,4.87,0,0,1-.346.426c-.133,0-.24.293-.373.4l-.426.319a3.73,3.73,0,0,1-.452.24,2.658,2.658,0,0,1-.479.239l-.452.133a5.86,5.86,0,0,1-.958,0h-.586a3.539,3.539,0,0,1-1.251-.665,3.354,3.354,0,0,1-1.118-1.81c0-.24,0-.452,0-.585v-.293a.452.452,0,0,0-.506-.426.479.479,0,0,0-.426.479V208a4.285,4.285,0,0,0,1.3,2.661,4.632,4.632,0,0,0,1.836,1.038H67.63a4.762,4.762,0,0,0,1.224,0,5.722,5.722,0,0,0,4.311-3.593,6.1,6.1,0,0,0,.373-1.49v-.16h0v-1.57a7.745,7.745,0,0,0-1.3-3.247,7.32,7.32,0,0,0-2.821-2.4,7.667,7.667,0,0,0-1.863-.639H65.634a9.608,9.608,0,0,0-7.026,3.38,9.421,9.421,0,0,0-1.969,3.62,5.2,5.2,0,0,1-.266,1.065,3.846,3.846,0,0,0,0,.958h0v.9a6.442,6.442,0,0,0,0,1.011,12.376,12.376,0,0,0,3.3,7.292,11.949,11.949,0,0,0,3.114,2.449,11.366,11.366,0,0,0,3.7,1.3,14.8,14.8,0,0,0,7.106-.506,15.17,15.17,0,0,0,5.536-3.114,16.1,16.1,0,0,0,3.353-4.125,16.418,16.418,0,0,0,.9-2.023,11.87,11.87,0,0,0,.532-1.783,11.259,11.259,0,0,0,.346-2.661c0-.586,0-.9,0-.9a.266.266,0,0,0-.266-.293.24.24,0,0,0-.452.133Z" transform="translate(93.676 329.975)" fill="#b39a7a"/>
      <path id="Path_6040" data-name="Path 6040" d="M205.334,140.619l.878.16a6.305,6.305,0,0,1,1.011.213,11.991,11.991,0,0,1,1.331.4,14.556,14.556,0,0,1,3.353,1.677,15.965,15.965,0,0,1,3.487,3.274,14.716,14.716,0,0,1,2.5,5,15.968,15.968,0,0,1,.479,2.981,15.456,15.456,0,0,1,0,1.57v.16h0v1.437A10.646,10.646,0,0,1,215.287,163a10.247,10.247,0,0,1-5.935,2.661,4.577,4.577,0,0,1-.852,0h-1.757L206,165.5a7.585,7.585,0,0,1-2.821-1.49,7.8,7.8,0,0,1-2.661-5.323v-1.517a5.324,5.324,0,0,1,.4-1.357,5.8,5.8,0,0,1,4.178-3.22h1.224a4.975,4.975,0,0,1,1.277.24,4.764,4.764,0,0,1,.985.479,4.878,4.878,0,0,1,.426.346,2.82,2.82,0,0,1,.4.4l.319.426a3.219,3.219,0,0,0,.612,1.384,5.562,5.562,0,0,1,0,.931v.16h0v.745a3.675,3.675,0,0,1-.665,1.277,3.461,3.461,0,0,1-1.81,1.091,2.983,2.983,0,0,1-.585,0h-.293a.452.452,0,0,0-.426.506.479.479,0,0,0,.479.426h.24a3.751,3.751,0,0,0,.745,0,4.5,4.5,0,0,0,2.661-1.331,4.631,4.631,0,0,0,1.038-1.836c0-.16,0-.319,0-.506v-.24h0v-.213a5.085,5.085,0,0,0,0-1.251,5.722,5.722,0,0,0-3.593-4.311,5.934,5.934,0,0,0-1.49-.346h-1.757a7.984,7.984,0,0,0-3.247,1.3,7.5,7.5,0,0,0-2.4,2.821,7.988,7.988,0,0,0-.639,1.863q0,.266,0,.479v.426h0v.9a9.661,9.661,0,0,0,3.38,7.053,10.193,10.193,0,0,0,3.62,1.969,5.112,5.112,0,0,1,1.065.24h2.023a6.445,6.445,0,0,0,1.011,0,12.508,12.508,0,0,0,7.292-3.274,12.057,12.057,0,0,0,2.449-3.14,11.364,11.364,0,0,0,1.3-3.7,14.664,14.664,0,0,0-.506-7.079,15.277,15.277,0,0,0-3.114-5.562A15.677,15.677,0,0,0,213,141.923a15.97,15.97,0,0,0-2.023-.878,16.653,16.653,0,0,0-1.783-.559,13.038,13.038,0,0,0-2.661-.346h-.9a.293.293,0,0,0,0,.586Z" transform="translate(330.038 232.831)" fill="#b39a7a"/>
      <path id="Path_6041" data-name="Path 6041" d="M94.071,7.812v.878a14.665,14.665,0,0,1-.426,2.661,15.064,15.064,0,0,1-.586,1.757,16.583,16.583,0,0,1-.958,1.969,16.4,16.4,0,0,1-3.353,4.045,15.569,15.569,0,0,1-12.455,3.433,11.524,11.524,0,0,1-3.62-1.277,11.55,11.55,0,0,1-3.114-2.342,12.961,12.961,0,0,1-2.262-3.3,12.029,12.029,0,0,1-1.065-3.886,6.123,6.123,0,0,1,0-.985V8.744a1.625,1.625,0,0,1,.24-1.038A10.007,10.007,0,0,1,68.308,4.06,9.688,9.688,0,0,1,75.414.6h1.943a8.49,8.49,0,0,1,1.916.612A7.985,7.985,0,0,1,82.2,3.634a7.612,7.612,0,0,1,1.384,3.353q0,.439,0,.878v.745h0V8.8a5.908,5.908,0,0,1-4.9,5.323,4.179,4.179,0,0,1-1.278,0H76.266a4.258,4.258,0,0,1-1.916-1.144A4.418,4.418,0,0,1,73.1,10.314a5.594,5.594,0,0,1,0-.745V9.356A.471.471,0,0,1,74.03,9.3h0v.213a3.273,3.273,0,0,0,0,.559,3.513,3.513,0,0,0,1.171,1.7,3.273,3.273,0,0,0,1.2.559h.958a3.353,3.353,0,0,0,.878,0h.452c.16,0,.266-.16.426-.213a3.939,3.939,0,0,0,.8-.559c.16,0,.239-.24.346-.346a2.485,2.485,0,0,0,.346-.4,4.526,4.526,0,0,0,.426-.9A5,5,0,0,0,81.3,8.691h0V7.44a5.722,5.722,0,0,0-.958-2.369,6.175,6.175,0,0,0-2.049-1.73,5.323,5.323,0,0,0-1.3-.426h-1.49a7.585,7.585,0,0,0-7,5.483,4.365,4.365,0,0,0-.186.745v.9a8.621,8.621,0,0,0,0,1.65,10.459,10.459,0,0,0,8.277,9.288,13.307,13.307,0,0,0,6.254-.293A14.478,14.478,0,0,0,91.2,14.546a15.064,15.064,0,0,0,1.57-3.407,11.788,11.788,0,0,0,.559-2.4V7.866a.346.346,0,0,1,.4-.293.373.373,0,0,1,.346.24Z" transform="translate(110.085 0.994)" fill="#b39a7a"/>
      <path id="Path_6042" data-name="Path 6042" d="M7.812,130.2h.878a15.3,15.3,0,0,1,2.661.452,9.047,9.047,0,0,1,1.757.586,13.016,13.016,0,0,1,1.863,1.091,15.968,15.968,0,0,1,4.045,3.38,15.011,15.011,0,0,1,3.007,5.456,15.25,15.25,0,0,1,.532,6.973,12,12,0,0,1-1.277,3.619,11.418,11.418,0,0,1-2.342,3.087,12.962,12.962,0,0,1-3.3,2.262,12.031,12.031,0,0,1-3.886,1.064,6.116,6.116,0,0,1-.985,0H8.691a3.469,3.469,0,0,1-1.038-.24,10.008,10.008,0,0,1-3.646-1.916A9.688,9.688,0,0,1,.6,148.832v-.9h0v-.9a8.3,8.3,0,0,1,.612-1.943,7.692,7.692,0,0,1,5.775-4.418H8.824a7.477,7.477,0,0,1,1.544.373,5.828,5.828,0,0,1,3.859,4.6,4.365,4.365,0,0,1,0,1.3v.24h0v.24a3.434,3.434,0,0,1,0,.506,4.6,4.6,0,0,1-1.144,1.916,4.338,4.338,0,0,1-2.661,1.224H9.356a.452.452,0,0,1-.426-.452.426.426,0,0,1,.373-.4h.9a3.327,3.327,0,0,0,1.7-1.171,3.273,3.273,0,0,0,.559-1.2V147.1h0v-.16a3.353,3.353,0,0,0,0-.878,2.235,2.235,0,0,1,0-.452c0-.133-.16-.266-.213-.4a3.459,3.459,0,0,0-.559-.825,2.13,2.13,0,0,0-.346-.346l-.4-.319a4.766,4.766,0,0,0-.9-.452A5,5,0,0,0,8.824,143H7.44a5.721,5.721,0,0,0-2.369.958,6.015,6.015,0,0,0-1.73,2.076,4.818,4.818,0,0,0-.426,1.278v1.517a7.638,7.638,0,0,0,2.661,5.483A7.985,7.985,0,0,0,8.4,155.858l.745.186h.9a11.621,11.621,0,0,0,1.65,0,10.645,10.645,0,0,0,6.068-2.661,10.433,10.433,0,0,0,3.22-5.589,13.44,13.44,0,0,0-.293-6.281,14.744,14.744,0,0,0-2.661-5.083,14.984,14.984,0,0,0-3.593-3.247,15.278,15.278,0,0,0-3.407-1.6,13.918,13.918,0,0,0-2.4-.559H7.759a.346.346,0,0,1-.293-.4.319.319,0,0,1,.346-.426Z" transform="translate(1.074 216.314)" fill="#b39a7a"/>
      <path id="Path_6043" data-name="Path 6043" d="M130.2,212.934v-.878a15.306,15.306,0,0,1,.452-2.661,9.046,9.046,0,0,1,.585-1.757,13.014,13.014,0,0,1,.932-1.969,15.971,15.971,0,0,1,3.38-4.019,15.064,15.064,0,0,1,5.456-3.034,15.25,15.25,0,0,1,6.973-.506,11.951,11.951,0,0,1,3.62,1.251,11.525,11.525,0,0,1,3.087,2.369A12.829,12.829,0,0,1,156.951,205a12.4,12.4,0,0,1,1.065,3.886,6.287,6.287,0,0,1,0,1.011v2a3.84,3.84,0,0,1-.24,1.065,9.688,9.688,0,0,1-1.916,3.62,9.821,9.821,0,0,1-7.026,3.487h-1.916a8.3,8.3,0,0,1-1.943-.612,7.691,7.691,0,0,1-4.311-5.749v-1.623h0V211.9a6.918,6.918,0,0,1,.373-1.517,5.909,5.909,0,0,1,4.524-3.806,5.456,5.456,0,0,1,1.3,0h1.144a4.365,4.365,0,0,1,1.916,1.171,4.232,4.232,0,0,1,1.224,2.661,6.79,6.79,0,0,1,0,.745v.266a.426.426,0,0,1-.452.4.4.4,0,0,1-.4-.346v-.878a3.433,3.433,0,0,0-1.171-1.7,4.444,4.444,0,0,0-1.2-.559h-.878a5.085,5.085,0,0,0-.878.16h-.452a1.463,1.463,0,0,0-.4.213,2.662,2.662,0,0,0-.825.532,1.545,1.545,0,0,0-.346.373,2.344,2.344,0,0,0-.319.4,3.591,3.591,0,0,0-.452.9,4.471,4.471,0,0,0-.266,1.224h0v1.144a6.149,6.149,0,0,0,.958,2.342,5.483,5.483,0,0,0,2.076,1.73,6.118,6.118,0,0,0,1.277.452h1.517a7.532,7.532,0,0,0,5.483-2.661,7.983,7.983,0,0,0,1.544-2.821,1.085,1.085,0,0,1,.186-.745c.186-.239,0-.612,0-.9a11.872,11.872,0,0,0,0-1.65,10.486,10.486,0,0,0-8.25-9.288,13.44,13.44,0,0,0-6.281.293,15.223,15.223,0,0,0-5.083,2.661,14.452,14.452,0,0,0-4.844,7.026,13.73,13.73,0,0,0-.559,2.369q0,.878,0,.878a.4.4,0,0,1-.4.319.346.346,0,0,1-.532-.346Z" transform="translate(216.393 328.825)" fill="#b39a7a"/>
      <path id="Path_6044" data-name="Path 6044" d="M212.921,94.071h-.878a14.665,14.665,0,0,1-2.661-.426,15.067,15.067,0,0,1-1.757-.586,16.582,16.582,0,0,1-1.969-.958,16.314,16.314,0,0,1-4.019-3.353,15.329,15.329,0,0,1-3.513-12.455,11.47,11.47,0,0,1,1.251-3.62,11.63,11.63,0,0,1,2.369-3.114,12.826,12.826,0,0,1,3.273-2.262,12.4,12.4,0,0,1,3.886-1.065,6.278,6.278,0,0,1,1.011,0h2a1.74,1.74,0,0,1,1.065.24,9.688,9.688,0,0,1,3.779,1.836,9.82,9.82,0,0,1,3.486,7.026v1.943a8.487,8.487,0,0,1-.612,1.916,7.984,7.984,0,0,1-2.422,2.928,7.612,7.612,0,0,1-3.327,1.384h-1.836a5.51,5.51,0,0,1-1.517-.346,5.935,5.935,0,0,1-3.806-4.551,5.321,5.321,0,0,1,0-1.277v-.24h0v-.745a4.072,4.072,0,0,1,1.171-1.916,4.365,4.365,0,0,1,2.661-1.251,5.6,5.6,0,0,1,.745,0h.266a.446.446,0,0,1,.053.878H211.4a3.273,3.273,0,0,0-.559,0,3.619,3.619,0,0,0-1.7,1.171,4.445,4.445,0,0,0-.559,1.2v.8h0v.16a5.083,5.083,0,0,0,.16.878,2.9,2.9,0,0,0,0,.452,1.6,1.6,0,0,0,.213.426,2.982,2.982,0,0,0,.532.8,1.171,1.171,0,0,0,.373.346,2.473,2.473,0,0,0,.4.346,3.487,3.487,0,0,0,.9.426,4.47,4.47,0,0,0,1.224.266h1.171a5.748,5.748,0,0,0,2.342-.958,5.616,5.616,0,0,0,1.73-2.049,6.919,6.919,0,0,0,.452-1.3V75.495a7.532,7.532,0,0,0-2.661-5.483,7.451,7.451,0,0,0-2.821-1.517,4.363,4.363,0,0,0-.745-.186h-.9a8.357,8.357,0,0,0-1.623,0,10.459,10.459,0,0,0-9.315,8.277,13.307,13.307,0,0,0,.293,6.254,14.478,14.478,0,0,0,6.148,8.357,15.2,15.2,0,0,0,3.433,1.57,11.6,11.6,0,0,0,2.369.559h.878a.373.373,0,0,1,0,.719Z" transform="translate(328.917 110.005)" fill="#b39a7a"/>
      <path id="Path_6045" data-name="Path 6045" d="M130.221,7.812v.878a15.3,15.3,0,0,0,.452,2.661,9.046,9.046,0,0,0,.586,1.757,13.015,13.015,0,0,0,1.091,1.863,15.969,15.969,0,0,0,3.38,4.045,15.011,15.011,0,0,0,5.456,3.007,15.25,15.25,0,0,0,6.973.532,12,12,0,0,0,3.619-1.277,11.418,11.418,0,0,0,3.087-2.342,12.96,12.96,0,0,0,2.262-3.3,12.03,12.03,0,0,0,1.065-3.886,6.116,6.116,0,0,0,0-.985c0-.373,0-.639,0-1.065V8.744a3.469,3.469,0,0,0-.24-1.038,10.008,10.008,0,0,0-1.916-3.646A9.688,9.688,0,0,0,148.851.6h-1.916a8.3,8.3,0,0,0-1.943.612,7.692,7.692,0,0,0-4.311,5.775V8.611h0V8.8a7.477,7.477,0,0,0,.373,1.544,5.829,5.829,0,0,0,4.6,3.886,4.365,4.365,0,0,0,1.3,0h1.144a4.6,4.6,0,0,0,1.916-1.144,4.338,4.338,0,0,0,1.224-2.661,6.79,6.79,0,0,0,0-.745V9.356a.452.452,0,0,0-.452-.426.426.426,0,0,0-.4.373v.9a3.327,3.327,0,0,1-1.171,1.7,3.274,3.274,0,0,1-1.2.559h-.958a3.353,3.353,0,0,1-.878,0h-.452l-.4-.213a3.46,3.46,0,0,1-.825-.559,2.128,2.128,0,0,1-.346-.346c0-.16-.24-.266-.319-.4a4.764,4.764,0,0,1-.452-.9,5,5,0,0,1-.266-1.224h0V7.44a6.1,6.1,0,0,1,.958-2.369,6.015,6.015,0,0,1,2.076-1.73,4.817,4.817,0,0,1,1.277-.426h1.517a7.638,7.638,0,0,1,5.483,2.661A7.985,7.985,0,0,1,155.984,8.4a1.085,1.085,0,0,0,.186.745c.186.24,0,.612,0,.9a11.627,11.627,0,0,1,0,1.65,10.646,10.646,0,0,1-2.661,6.068,10.433,10.433,0,0,1-5.589,3.22,13.44,13.44,0,0,1-6.281-.293,14.745,14.745,0,0,1-5.083-2.661,14.984,14.984,0,0,1-3.247-3.593,15.274,15.274,0,0,1-1.6-3.407,13.926,13.926,0,0,1-.559-2.4V7.759a.346.346,0,0,0-.4-.293.319.319,0,0,0-.532.346Z" transform="translate(216.374 0.994)" fill="#b39a7a"/>
      <path id="Path_6046" data-name="Path 6046" d="M7.812,94.071h.878a14.665,14.665,0,0,0,2.661-.426,15.062,15.062,0,0,0,1.757-.586,16.584,16.584,0,0,0,1.863-1.038,16.4,16.4,0,0,0,4.045-3.353,15.569,15.569,0,0,0,3.54-12.376,11.524,11.524,0,0,0-1.277-3.62,11.551,11.551,0,0,0-2.342-3.114,12.961,12.961,0,0,0-3.3-2.262,12.03,12.03,0,0,0-3.886-1.065,6.123,6.123,0,0,0-.985,0H8.744a1.625,1.625,0,0,0-1.038.24A10.007,10.007,0,0,0,4.06,68.308,9.688,9.688,0,0,0,.6,75.414v1.943a8.49,8.49,0,0,0,.612,1.916A7.985,7.985,0,0,0,3.634,82.2a7.612,7.612,0,0,0,3.353,1.384H8.824a5.908,5.908,0,0,0,5.323-4.9,4.179,4.179,0,0,0,0-1.278v-.24h0V76.9a3.087,3.087,0,0,0,0-.479A4.258,4.258,0,0,0,13,74.509a4.418,4.418,0,0,0-2.661-1.251,5.589,5.589,0,0,0-.745,0h-.24a.442.442,0,0,0-.053.878h.213a3.273,3.273,0,0,1,.559,0,3.513,3.513,0,0,1,1.7,1.171,3.274,3.274,0,0,1,.559,1.2v.8h0v.16a3.354,3.354,0,0,1,0,.878,2.9,2.9,0,0,0,0,.452c0,.16-.16.266-.213.426a3.939,3.939,0,0,1-.559.8c0,.16-.24.239-.346.346a2.484,2.484,0,0,1-.4.346,4.525,4.525,0,0,1-.9.426,5,5,0,0,1-1.224.266H7.44a5.722,5.722,0,0,1-2.369-.958A6.175,6.175,0,0,1,3.341,78.4a5.323,5.323,0,0,1-.426-1.3v-1.6a7.585,7.585,0,0,1,5.483-7,4.364,4.364,0,0,1,.612-.186h.9a8.621,8.621,0,0,1,1.65,0,10.459,10.459,0,0,1,9.288,8.277,13.307,13.307,0,0,1-.293,6.254A14.478,14.478,0,0,1,14.413,91.2a15.064,15.064,0,0,1-3.407,1.57,11.788,11.788,0,0,1-2.4.559H7.733a.346.346,0,0,0-.293.4.373.373,0,0,0,.373.346Z" transform="translate(1.074 110.005)" fill="#b39a7a"/>
      <path id="Path_6047" data-name="Path 6047" d="M94.071,212.921v-.878a14.666,14.666,0,0,0-.426-2.661,15.068,15.068,0,0,0-.586-1.757,16.587,16.587,0,0,0-.958-1.97,16.315,16.315,0,0,0-3.353-4.019,15.33,15.33,0,0,0-12.455-3.513,11.471,11.471,0,0,0-3.62,1.251,11.63,11.63,0,0,0-3.114,2.369,12.826,12.826,0,0,0-2.262,3.273,12.4,12.4,0,0,0-1.065,3.886,6.278,6.278,0,0,0,0,1.011c0,.346,0,.612,0,1.065v.932a1.74,1.74,0,0,0,.24,1.065,9.688,9.688,0,0,0,1.836,3.779,9.821,9.821,0,0,0,7.026,3.486h1.943a8.487,8.487,0,0,0,1.916-.612,7.984,7.984,0,0,0,2.928-2.422,7.612,7.612,0,0,0,1.384-3.327q0-.439,0-.878v-.745h0v-.186a5.51,5.51,0,0,0-.346-1.517,5.935,5.935,0,0,0-4.551-3.806,5.323,5.323,0,0,0-1.277,0H76.186a4.072,4.072,0,0,0-1.916,1.171,4.285,4.285,0,0,0-1.251,2.661,5.6,5.6,0,0,0,0,.745v.266a.446.446,0,0,0,.878.053h0v-.213a3.273,3.273,0,0,1,0-.559,3.619,3.619,0,0,1,1.171-1.7,4.444,4.444,0,0,1,1.2-.559h.958a5.087,5.087,0,0,1,.878.16h.452a1.6,1.6,0,0,1,.426.213,2.981,2.981,0,0,1,.8.532,1.171,1.171,0,0,1,.346.373,2.478,2.478,0,0,1,.346.4,3.486,3.486,0,0,1,.426.9,4.471,4.471,0,0,1,.266,1.224h0v1.144a5.748,5.748,0,0,1-.958,2.342,5.616,5.616,0,0,1-2.049,1.73,6.92,6.92,0,0,1-1.3.452H75.495a7.585,7.585,0,0,1-5.483-2.661,7.453,7.453,0,0,1-1.517-2.821,4.363,4.363,0,0,1-.186-.745c0-.266,0-.612,0-.9a8.679,8.679,0,0,1,0-1.65,10.459,10.459,0,0,1,8.277-9.288,13.308,13.308,0,0,1,6.254.293,14.478,14.478,0,0,1,8.357,6.148,15.2,15.2,0,0,1,1.57,3.433,11.6,11.6,0,0,1,.559,2.369v.878a.373.373,0,1,0,.719,0Z" transform="translate(110.084 328.838)" fill="#b39a7a"/>
      <path id="Path_6048" data-name="Path 6048" d="M212.934,130.2h-.878a15.3,15.3,0,0,0-2.661.452,9.045,9.045,0,0,0-1.757.585,13.012,13.012,0,0,0-1.969.932,15.969,15.969,0,0,0-4.019,3.38,15.065,15.065,0,0,0-3.034,5.456,15.252,15.252,0,0,0-.506,6.973,11.951,11.951,0,0,0,1.251,3.62,11.525,11.525,0,0,0,2.369,3.087A12.828,12.828,0,0,0,205,156.948a12.4,12.4,0,0,0,3.886,1.065,6.287,6.287,0,0,0,1.011,0h2a3.84,3.84,0,0,0,1.065-.24,9.687,9.687,0,0,0,3.62-1.916,9.821,9.821,0,0,0,3.487-7.026v-.9h0v-.985a8.3,8.3,0,0,0-.612-1.943,7.691,7.691,0,0,0-5.749-4.312H211.87a6.92,6.92,0,0,0-1.517.373,5.908,5.908,0,0,0-3.806,4.524,5.454,5.454,0,0,0,0,1.3v.24h0v.745a4.365,4.365,0,0,0,1.171,1.916,4.285,4.285,0,0,0,2.661,1.224h1.065a.426.426,0,0,0,.4-.452.4.4,0,0,0-.346-.4h-.878a3.433,3.433,0,0,1-1.7-1.171,4.444,4.444,0,0,1-.559-1.2v-.745h0v-.16a5.082,5.082,0,0,1,.16-.878,4.106,4.106,0,0,1,0-.452,1.462,1.462,0,0,1,.213-.4,2.663,2.663,0,0,1,.532-.825,1.543,1.543,0,0,1,.373-.346,2.338,2.338,0,0,1,.4-.319,3.592,3.592,0,0,1,.9-.452,4.469,4.469,0,0,1,1.224-.266h1.118a5.748,5.748,0,0,1,2.342.958,5.482,5.482,0,0,1,1.73,2.076,6.122,6.122,0,0,1,.452,1.277v1.517a7.532,7.532,0,0,1-2.661,5.483,7.984,7.984,0,0,1-2.821,1.544l-.745.186h-.9a11.394,11.394,0,0,1-1.623,0,10.459,10.459,0,0,1-9.315-8.25,13.441,13.441,0,0,1,.293-6.281,15.224,15.224,0,0,1,2.661-5.083,14.451,14.451,0,0,1,7.026-4.844,13.734,13.734,0,0,1,2.369-.559h.878a.4.4,0,0,0,.319-.4.346.346,0,0,0-.346-.373Z" transform="translate(328.904 216.316)" fill="#b39a7a"/>
      <path id="Path_6049" data-name="Path 6049" d="M103.209,15.3l-.16-.878a6.307,6.307,0,0,0-.24-1.118,8.121,8.121,0,0,0-.4-1.331,15.117,15.117,0,0,0-1.677-3.353,15.3,15.3,0,0,0-3.274-3.3A14.8,14.8,0,0,0,92.483,2.66a12.455,12.455,0,0,0-3.007-.4H87.107l-.506.106h-.373A10.646,10.646,0,0,0,83.3,3.458a9.741,9.741,0,0,0-2.661,2,10.3,10.3,0,0,0-2.661,5.962v2.5a1.31,1.31,0,0,0,.16.745,7.985,7.985,0,0,0,1.49,2.821,7.745,7.745,0,0,0,5.323,2.661h1.544a5.163,5.163,0,0,0,1.331-.426,5.855,5.855,0,0,0,2.182-1.73,6.255,6.255,0,0,0,1.065-2.449V14.45a4.63,4.63,0,0,0-.266-1.277,3.752,3.752,0,0,0-.479-.985,2.9,2.9,0,0,0-.346-.452,1.557,1.557,0,0,0-.373-.373l-.426-.346q.044-.118.08-.24a1.543,1.543,0,0,0-.612-.133l-.452-.133a3.965,3.965,0,0,0-.958,0h-.932a3.54,3.54,0,0,0-2.369,2.475v.878a.452.452,0,0,1-.506.426.479.479,0,0,1-.426-.479V12.693a4.285,4.285,0,0,1,1.3-2.5,4.365,4.365,0,0,1,1.836-1.065h1.118a4.737,4.737,0,0,1,1.224,0,5.7,5.7,0,0,1,4.312,3.62,5.8,5.8,0,0,1,.373,1.49h0v1.57a7.612,7.612,0,0,1-1.251,3.353,7.319,7.319,0,0,1-2.821,2.4,6.68,6.68,0,0,1-1.863.639H85.324a9.608,9.608,0,0,1-7.026-3.38,9.422,9.422,0,0,1-1.969-3.62,5.662,5.662,0,0,0-.266-1.065,3.636,3.636,0,0,1,0-.932v.106h0V12.267a6.6,6.6,0,0,1,0-1.011,12.642,12.642,0,0,1,6.2-9.741,12.03,12.03,0,0,1,3.7-1.3,15.117,15.117,0,0,1,7.106.506,15.623,15.623,0,0,1,8.889,7.266,18.391,18.391,0,0,1,.9,2.023,11.872,11.872,0,0,1,.532,1.783,11.444,11.444,0,0,1,.346,2.661v.878a.319.319,0,0,1-.293.319.293.293,0,0,1-.24-.346Z" transform="translate(126.39 -0.001)" fill="#b39a7a"/>
      <path id="Path_6050" data-name="Path 6050" d="M15.3,120.99l-.878.16a6.016,6.016,0,0,0-1.038.213,12,12,0,0,0-1.331.4A15.118,15.118,0,0,0,8.7,123.438a15.969,15.969,0,0,0-3.38,3.274,14.691,14.691,0,0,0-2.661,5,12.243,12.243,0,0,0-.479,2.981c0,.532,0,1.065,0,1.57v.16h0v1.437a10.646,10.646,0,0,0,1.091,2.928,10.167,10.167,0,0,0,7.984,5.323,4.15,4.15,0,0,0,.825,0h1.677l.745-.16a7.584,7.584,0,0,0,2.821-1.49,7.692,7.692,0,0,0,2.661-5.323v-1.517a5.323,5.323,0,0,0-.426-1.357,5.749,5.749,0,0,0-1.73-2.156,5.881,5.881,0,0,0-2.449-1.065H14.45a4.631,4.631,0,0,0-1.277.266,3.754,3.754,0,0,0-.985.479,2.9,2.9,0,0,0-.452.346,1.758,1.758,0,0,0-.373.4l-.346.4a4.017,4.017,0,0,0-.24.479,1.411,1.411,0,0,0-.213.452l-.133.479a3.753,3.753,0,0,0,0,.932v.16h0v.745a3.407,3.407,0,0,0,2.475,2.369,3.249,3.249,0,0,0,.586,0h.293a.452.452,0,0,1,.426.506.479.479,0,0,1-.479.426H12.694a4.525,4.525,0,0,1-2.5-1.331,4.364,4.364,0,0,1-1.065-1.836v-.745h0v-.213a5.03,5.03,0,0,1,0-1.251,5.749,5.749,0,0,1,5.11-4.658h1.73a7.612,7.612,0,0,1,3.247,1.3,7.505,7.505,0,0,1,2.342,2.5,7,7,0,0,1,.639,1.863,1.783,1.783,0,0,1,0,.479v.426h0v.9a9.661,9.661,0,0,1-3.38,7.053,10.194,10.194,0,0,1-3.62,1.969,5.518,5.518,0,0,0-1.065.24H12.268a6.6,6.6,0,0,1-1.011,0,12.482,12.482,0,0,1-9.741-6.281,12.03,12.03,0,0,1-1.3-3.7,14.984,14.984,0,0,1,.506-7.079,15.676,15.676,0,0,1,3.114-5.562,16.1,16.1,0,0,1,4.152-3.353,17.934,17.934,0,0,1,2.023-.878,16.663,16.663,0,0,1,1.783-.559,13.5,13.5,0,0,1,2.661-.346h.878a.293.293,0,0,1,.319.266.319.319,0,0,1-.346.293Z" transform="translate(0.078 200.083)" fill="#b39a7a"/>
      <path id="Path_6051" data-name="Path 6051" d="M120.939,205.4l.16.878a6.307,6.307,0,0,0,.213,1.011,11.991,11.991,0,0,0,.4,1.331,14.557,14.557,0,0,0,1.677,3.353,15.358,15.358,0,0,0,3.274,3.486,14.211,14.211,0,0,0,5,2.475,13.679,13.679,0,0,0,2.981.506,15.465,15.465,0,0,0,1.57,0h1.6a10.646,10.646,0,0,0,5.509-3.087,10.246,10.246,0,0,0,2.661-5.935,4.574,4.574,0,0,0,0-.852v-1.757a1.268,1.268,0,0,0-.16-.745,7.585,7.585,0,0,0-1.49-2.821,7.8,7.8,0,0,0-5.323-2.661h-1.517a5.324,5.324,0,0,0-1.357.4,5.563,5.563,0,0,0-2.156,1.757,5.775,5.775,0,0,0-1.065,2.422,6.435,6.435,0,0,0,0,.665v.559a4.871,4.871,0,0,0,.266,1.277,4.763,4.763,0,0,0,.479.985,4.874,4.874,0,0,0,.346.426,2.822,2.822,0,0,0,.4.4l.4.319a4.026,4.026,0,0,0,.479.239,2.422,2.422,0,0,0,.452.239l.479.133a5.567,5.567,0,0,0,.932,0h.9a3.674,3.674,0,0,0,1.277-.665,3.46,3.46,0,0,0,1.091-1.81,2.979,2.979,0,0,0,0-.585v-.293a.452.452,0,0,1,.506-.426.479.479,0,0,1,.426.479v.985a4.418,4.418,0,0,1-3.167,3.566h-1.091a5.08,5.08,0,0,1-1.251,0,5.722,5.722,0,0,1-4.311-3.593,5.936,5.936,0,0,1-.346-1.49v-.16h0v-1.57a7.984,7.984,0,0,1,1.3-3.247,7.5,7.5,0,0,1,2.821-2.4,7.985,7.985,0,0,1,1.863-.639h1.916a9.661,9.661,0,0,1,7.053,3.38,10.192,10.192,0,0,1,1.969,3.619,5.113,5.113,0,0,0,.24,1.065,3.846,3.846,0,0,1,0,.958h0v.9a6.445,6.445,0,0,1,0,1.011,12.508,12.508,0,0,1-3.274,7.292,12.054,12.054,0,0,1-3.14,2.449,11.365,11.365,0,0,1-3.7,1.3,14.665,14.665,0,0,1-7.079-.506,15.276,15.276,0,0,1-5.562-3.114,13.839,13.839,0,0,1-4.232-6.148,16.645,16.645,0,0,1-.559-1.783,13.038,13.038,0,0,1-.346-2.661v-.9a.293.293,0,0,1,.586,0Z" transform="translate(200.213 329.892)" fill="#b39a7a"/>
      <path id="Path_6052" data-name="Path 6052" d="M205.466,103.232l.878-.16a6.736,6.736,0,0,0,1.011-.24,8.118,8.118,0,0,0,1.331-.4,14.559,14.559,0,0,0,3.353-1.677,14.824,14.824,0,0,0,5.988-8.25,15.759,15.759,0,0,0,.479-3.007,15.461,15.461,0,0,0,0-1.57h0V86.465a9.823,9.823,0,0,0-1.091-2.928,9.236,9.236,0,0,0-2-2.661,10.3,10.3,0,0,0-5.935-2.661h-2.608a1.31,1.31,0,0,0-.745.16,7.514,7.514,0,0,0-5.483,6.813v1.6a5.058,5.058,0,0,0,.4,1.331,5.67,5.67,0,0,0,1.757,2.182,6.148,6.148,0,0,0,2.422,1.065h1.224a4.869,4.869,0,0,0,1.277-.266,4.762,4.762,0,0,0,.985-.479,4.868,4.868,0,0,0,.426-.346,2.657,2.657,0,0,0,.4-.373l.319-.426a3.726,3.726,0,0,0,.239-.452,2.662,2.662,0,0,0,.24-.479l.133-.452a5.86,5.86,0,0,0,0-.958v-.16h0v-.745a3.539,3.539,0,0,0-.665-1.251,3.353,3.353,0,0,0-2.023-1.011H206.9a.453.453,0,0,1-.426-.506.479.479,0,0,1,.479-.426h.985a4.338,4.338,0,0,1,2.661,1.3,4.631,4.631,0,0,1,1.038,1.836c0,.186,0,.346,0,.506v.373h0v.24a4.762,4.762,0,0,1,0,1.224,5.722,5.722,0,0,1-3.593,4.312,6.1,6.1,0,0,1-1.49.373H204.8a7.745,7.745,0,0,1-3.247-1.3,7.319,7.319,0,0,1-2.4-2.821,7.663,7.663,0,0,1-.639-1.863c0-.186,0-.319,0-.452V85.294a9.608,9.608,0,0,1,3.38-7.026,9.422,9.422,0,0,1,3.62-1.97l1.065-.266h2.023a6.44,6.44,0,0,1,1.011,0,12.376,12.376,0,0,1,7.292,3.3,11.95,11.95,0,0,1,2.449,3.114,11.362,11.362,0,0,1,1.3,3.7,14.8,14.8,0,0,1-.506,7.106,15.622,15.622,0,0,1-7.239,8.889,16.418,16.418,0,0,1-2.023.9,11.874,11.874,0,0,1-1.783.532,11.257,11.257,0,0,1-2.661.346h-.9a.293.293,0,0,1-.293-.293.24.24,0,0,1,.213-.4Z" transform="translate(329.905 126.287)" fill="#b39a7a"/>
      <path id="Path_6053" data-name="Path 6053" d="M120.99,15.3a3.568,3.568,0,0,1,.16-.878,6.016,6.016,0,0,1,.213-1.038,12,12,0,0,1,.4-1.331A15.117,15.117,0,0,1,123.438,8.7a15.97,15.97,0,0,1,3.274-3.38,14.691,14.691,0,0,1,5-2.661,12.243,12.243,0,0,1,2.981-.479h3.167a10.646,10.646,0,0,1,2.928,1.091,10.167,10.167,0,0,1,5.323,7.984,4.15,4.15,0,0,1,0,.825v.8a7.985,7.985,0,0,1,0,.878,7.443,7.443,0,0,1-.16.745,7.585,7.585,0,0,1-1.49,2.821,7.692,7.692,0,0,1-5.323,2.661h-1.517a5.323,5.323,0,0,1-1.357-.426,5.749,5.749,0,0,1-2.156-1.73,5.881,5.881,0,0,1-1.065-2.449,5.329,5.329,0,0,1,0-.639V14.45a4.631,4.631,0,0,1,.266-1.277,3.753,3.753,0,0,1,.479-.985,2.9,2.9,0,0,1,.346-.452,1.758,1.758,0,0,1,.4-.373l.4-.346.479-.24a1.405,1.405,0,0,1,.106-.133l.479-.133a3.753,3.753,0,0,1,.931,0h.932a3.407,3.407,0,0,1,2.369,2.475,3.249,3.249,0,0,1,0,.586v.293a.452.452,0,0,0,.506.426.479.479,0,0,0,.426-.479V12.694a4.525,4.525,0,0,0-1.331-2.5A4.365,4.365,0,0,0,138,9.127h-1.091a5.03,5.03,0,0,0-1.251,0A5.749,5.749,0,0,0,131,14.237h0v1.57a7.984,7.984,0,0,0,1.3,3.247,7.5,7.5,0,0,0,2.821,2.4,7,7,0,0,0,1.863.639H138.9a9.661,9.661,0,0,0,7.053-3.38,10.194,10.194,0,0,0,1.969-3.62,5.521,5.521,0,0,1,.24-1.065,3.636,3.636,0,0,0,0-.932v.213h0V12.268a6.6,6.6,0,0,0,0-1.011,12.482,12.482,0,0,0-6.254-9.741,12.03,12.03,0,0,0-3.7-1.3,14.984,14.984,0,0,0-7.079.506,15.676,15.676,0,0,0-5.562,3.114,16.1,16.1,0,0,0-3.353,4.152,17.937,17.937,0,0,0-.878,2.023,16.651,16.651,0,0,0-.559,1.783,13.306,13.306,0,0,0-.346,2.661v.878a.293.293,0,0,0,.266.319.319.319,0,0,0,.293-.346Z" transform="translate(200.163 -0.001)" fill="#b39a7a"/>
      <path id="Path_6054" data-name="Path 6054" d="M15.3,103.265l-.878-.16a6.307,6.307,0,0,1-1.118-.24,8.121,8.121,0,0,1-1.331-.4,15.116,15.116,0,0,1-3.353-1.677,15.3,15.3,0,0,1-3.3-3.274A14.8,14.8,0,0,1,2.66,92.54a12.455,12.455,0,0,1-.479-3.007c0-.506,0-1.038,0-1.57h0V86.5a10.646,10.646,0,0,1,1.091-2.928,9.74,9.74,0,0,1,2-2.661,10.3,10.3,0,0,1,5.962-2.661h2.5l.745.16A7.984,7.984,0,0,1,17.3,79.9a7.745,7.745,0,0,1,2.661,5.323v1.544a5.163,5.163,0,0,1-.426,1.331,5.855,5.855,0,0,1-1.73,2.182,6.254,6.254,0,0,1-2.449,1.065h-.9a4.631,4.631,0,0,1-1.277-.266,3.753,3.753,0,0,1-.985-.479,2.9,2.9,0,0,1-.452-.346,1.557,1.557,0,0,1-.373-.373,2.687,2.687,0,0,0-.346-.426q-.122-.062-.24-.133a1.544,1.544,0,0,1-.133-.612l-.133-.452a3.966,3.966,0,0,1,0-.958v-.16h0v-.745A3.54,3.54,0,0,1,12.853,84h.878a.452.452,0,0,0,.426-.506.479.479,0,0,0-.479-.426h-.985a4.285,4.285,0,0,0-2.5,1.3,4.365,4.365,0,0,0-1.065,1.836v.745h0v.24a4.737,4.737,0,0,0,0,1.224,5.7,5.7,0,0,0,3.62,4.312,5.8,5.8,0,0,0,1.49.373h1.73a7.612,7.612,0,0,0,3.194-1.118,7.319,7.319,0,0,0,2.4-2.821,6.68,6.68,0,0,0,.639-1.863,1.623,1.623,0,0,0,0-.452V85.38a9.608,9.608,0,0,0-3.38-7.026,9.422,9.422,0,0,0-3.62-1.969,5.662,5.662,0,0,1-1.065-.266l-.825-.107H12.267a6.6,6.6,0,0,0-1.011,0A12.642,12.642,0,0,0,1.515,82.32a12.03,12.03,0,0,0-1.3,3.7,15.117,15.117,0,0,0,.506,7.106,15.623,15.623,0,0,0,7.266,8.889,18.4,18.4,0,0,0,2.023.9,11.876,11.876,0,0,0,1.783.532,11.631,11.631,0,0,0,2.661.346h.878a.319.319,0,0,0,.319-.293.293.293,0,0,0-.346-.24Z" transform="translate(0.079 126.254)" fill="#b39a7a"/>
      <path id="Path_6055" data-name="Path 6055" d="M103.242,205.45l-.16.878a6.736,6.736,0,0,1-.24,1.011,8.118,8.118,0,0,1-.4,1.331,14.559,14.559,0,0,1-1.677,3.353,14.769,14.769,0,0,1-3.274,3.486,14.318,14.318,0,0,1-4.977,2.475,13.92,13.92,0,0,1-3.007.506,15.466,15.466,0,0,1-1.57,0h-.8l-.506-.08h-.373a9.82,9.82,0,0,1-2.928-1.091,9.236,9.236,0,0,1-2.661-2,10.3,10.3,0,0,1-2.661-5.935c0-.293,0-.559,0-.852V206.86a1.268,1.268,0,0,1,.16-.745,7.514,7.514,0,0,1,6.813-5.483h1.81a5.057,5.057,0,0,1,1.331.4,5.67,5.67,0,0,1,2.182,1.757,6.148,6.148,0,0,1,1.065,2.422v1.224a4.87,4.87,0,0,1-.266,1.277,4.763,4.763,0,0,1-.479.985,4.867,4.867,0,0,1-.346.426,2.656,2.656,0,0,1-.373.4l-.426.319a3.724,3.724,0,0,1-.452.239,2.664,2.664,0,0,1-.479.24l-.452.133a5.863,5.863,0,0,1-.958,0h-.9a3.54,3.54,0,0,1-1.251-.665,3.353,3.353,0,0,1-1.011-2.023c0-.24,0-.452,0-.586v-.293a.453.453,0,0,0-.506-.426.479.479,0,0,0-.426.479v.985a4.338,4.338,0,0,0,1.3,2.661,4.631,4.631,0,0,0,1.836,1.038H87.3a4.76,4.76,0,0,0,1.224,0,5.722,5.722,0,0,0,4.312-3.593,6.094,6.094,0,0,0,.373-1.49v-.16h0v-1.57a7.745,7.745,0,0,0-1.3-3.247,7.319,7.319,0,0,0-2.821-2.4,7.662,7.662,0,0,0-1.863-.639H85.3a9.608,9.608,0,0,0-7.026,3.38,9.421,9.421,0,0,0-1.969,3.62,5.193,5.193,0,0,1-.266,1.064,3.846,3.846,0,0,0,0,.958h0v.9a6.436,6.436,0,0,0,0,1.011,12.376,12.376,0,0,0,3.3,7.292,11.949,11.949,0,0,0,3.114,2.449,11.365,11.365,0,0,0,3.7,1.3,14.8,14.8,0,0,0,7.106-.506,15.17,15.17,0,0,0,5.536-3.114,15.569,15.569,0,0,0,3.353-4.125,16.419,16.419,0,0,0,.9-2.023,11.867,11.867,0,0,0,.532-1.783,11.259,11.259,0,0,0,.346-2.661v-.9a.293.293,0,0,0-.293-.293.264.264,0,1,0-.4.346Z" transform="translate(126.357 329.842)" fill="#b39a7a"/>
      <path id="Path_6056" data-name="Path 6056" d="M205.417,120.922l.878.16a6.307,6.307,0,0,1,1.011.213,11.99,11.99,0,0,1,1.331.4,14.557,14.557,0,0,1,3.353,1.677,15.356,15.356,0,0,1,3.486,3.274,14.716,14.716,0,0,1,2.5,5,14.424,14.424,0,0,1,.479,4.551v.16h0V137.8a10.646,10.646,0,0,1-3.087,5.509,10.246,10.246,0,0,1-5.935,2.661,4.574,4.574,0,0,1-.852,0h-1.757l-.745-.16a7.585,7.585,0,0,1-2.821-1.49,7.8,7.8,0,0,1-2.661-5.323v-1.517a5.325,5.325,0,0,1,.4-1.357,5.563,5.563,0,0,1,1.757-2.156,5.775,5.775,0,0,1,2.422-1.065H206.4a4.872,4.872,0,0,1,1.277.266,4.763,4.763,0,0,1,.985.479,4.864,4.864,0,0,1,.426.346,2.824,2.824,0,0,1,.4.4l.319.4a4.032,4.032,0,0,1,.239.479,2.423,2.423,0,0,1,.239.452l.133.479a5.572,5.572,0,0,1,0,.932v.16h0v.745a3.674,3.674,0,0,1-.665,1.277,3.46,3.46,0,0,1-1.81,1.091,2.978,2.978,0,0,1-.585,0h-.293a.452.452,0,0,0-.426.506.479.479,0,0,0,.479.426h.985a4.418,4.418,0,0,0,3.566-3.167c0-.16,0-.319,0-.506v-.24h0v-.213a5.079,5.079,0,0,0,0-1.251,5.722,5.722,0,0,0-3.593-4.312,5.934,5.934,0,0,0-1.49-.346h-1.757a7.745,7.745,0,0,0-3.247,1.3,7.5,7.5,0,0,0-2.4,2.821,7.985,7.985,0,0,0-.639,1.863q0,.266,0,.479v.426h0v.9a9.661,9.661,0,0,0,3.38,7.053,10.194,10.194,0,0,0,3.62,1.969,5.112,5.112,0,0,1,1.065.24h2.023a6.445,6.445,0,0,0,1.011,0,12.509,12.509,0,0,0,7.292-3.274,12.054,12.054,0,0,0,2.449-3.14,11.364,11.364,0,0,0,1.3-3.7,14.664,14.664,0,0,0-.506-7.079,15.276,15.276,0,0,0-3.114-5.562,15.675,15.675,0,0,0-4.125-3.353,15.976,15.976,0,0,0-2.023-.878,16.644,16.644,0,0,0-1.783-.559,13.04,13.04,0,0,0-2.661-.346h-.9a.293.293,0,0,0,0,.586Z" transform="translate(329.955 200.151)" fill="#b39a7a"/>
      <path id="Path_6057" data-name="Path 6057" d="M113.421,7.812v.878A14.666,14.666,0,0,1,113,11.352a15.064,15.064,0,0,1-.586,1.757,16.584,16.584,0,0,1-.958,1.969,16.4,16.4,0,0,1-3.353,4.045,15.223,15.223,0,0,1-5.323,3.007,15.383,15.383,0,0,1-7,.532,12.748,12.748,0,0,1-6.707-3.62,12.961,12.961,0,0,1-2.262-3.3,12.03,12.03,0,0,1-1.065-3.886,6.127,6.127,0,0,1,0-.985c0-.373,0-.639,0-1.065V8.85a1.624,1.624,0,0,1,.24-1.038A10.008,10.008,0,0,1,87.9,4.166,9.688,9.688,0,0,1,94.791.6h1.943a8.49,8.49,0,0,1,1.916.612,7.692,7.692,0,0,1,4.311,5.775V8.611h0V8.8a5.908,5.908,0,0,1-4.9,5.323,4.311,4.311,0,0,1-1.3,0H95.643a4.258,4.258,0,0,1-1.916-1.144,4.418,4.418,0,0,1-1.251-2.661,5.589,5.589,0,0,1,0-.745V9.356a.442.442,0,0,1,.878-.053h0v.213a3.271,3.271,0,0,0,0,.559,3.327,3.327,0,0,0,1.171,1.7,3.273,3.273,0,0,0,1.2.559h.931a3.353,3.353,0,0,0,.878,0h.452a2.961,2.961,0,0,1,.426-.213,3.939,3.939,0,0,0,.8-.559,2.129,2.129,0,0,0,.559-.479c0-.16.266-.266.346-.4a4.525,4.525,0,0,0,.426-.9,5,5,0,0,0,.266-1.224h0V7.44a5.722,5.722,0,0,0-1.038-2.369,6.015,6.015,0,0,0-2.076-1.73,4.818,4.818,0,0,0-1.278-.426H94.9a7.638,7.638,0,0,0-5.483,2.661A7.984,7.984,0,0,0,87.872,8.4a1.228,1.228,0,0,1-.16.745c-.16.24,0,.612,0,.9a11.627,11.627,0,0,0,0,1.65,10.646,10.646,0,0,0,2.661,6.068,10.406,10.406,0,0,0,5.616,3.22,13.307,13.307,0,0,0,6.254-.293,14.744,14.744,0,0,0,5.083-2.661,15.561,15.561,0,0,0,4.657-7.026,13.916,13.916,0,0,0,.559-2.4V7.733a.346.346,0,0,1,.532-.293.319.319,0,0,1,.346.373Z" transform="translate(142.499 0.994)" fill="#b39a7a"/>
      <path id="Path_6058" data-name="Path 6058" d="M7.846,110.8h.878a12.454,12.454,0,0,1,2.661.426,11.312,11.312,0,0,1,1.757.586,13.015,13.015,0,0,1,1.969.932,15.969,15.969,0,0,1,4.045,3.38,15.01,15.01,0,0,1,3.007,5.323,15.25,15.25,0,0,1,.532,6.973,12.7,12.7,0,0,1-3.726,7.026,12.882,12.882,0,0,1-3.3,2.236,11.391,11.391,0,0,1-3.886,1.065H8.724a1.624,1.624,0,0,1-1.038-.24,10.007,10.007,0,0,1-3.646-1.916,9.688,9.688,0,0,1-3.46-7.026v-.9h0v-1.2a7.984,7.984,0,0,1,.612-1.916,7.479,7.479,0,0,1,2.422-2.928,7.639,7.639,0,0,1,3.407-1.357H8.857a7.479,7.479,0,0,1,1.544.373,5.829,5.829,0,0,1,3.779,4.524,4.365,4.365,0,0,1,0,1.3v.24h0v.24a3.433,3.433,0,0,1,0,.506,4.6,4.6,0,0,1-1.144,1.916,4.338,4.338,0,0,1-2.661,1.224H9.389a.453.453,0,0,1-.426-.452.426.426,0,0,1,.373-.4h.9a3.327,3.327,0,0,0,1.7-1.171,3.274,3.274,0,0,0,.4-1.3v-.8h0a3.353,3.353,0,0,0,0-.878,2.662,2.662,0,0,1,0-.426c0-.16-.16-.293-.213-.426a4.1,4.1,0,0,0-.559-.825,2.131,2.131,0,0,0-.346-.346l-.4-.319a4.765,4.765,0,0,0-.9-.452,5,5,0,0,0-1.224-.266H7.473a5.776,5.776,0,0,0-2.369.985,5.935,5.935,0,0,0-1.73,2.049,4.976,4.976,0,0,0-.426,1.3h0v1.357A7.638,7.638,0,0,0,5.61,134.7a7.984,7.984,0,0,0,2.821,1.544l.745.186h2.555A10.779,10.779,0,0,0,17.8,133.77a10.273,10.273,0,0,0,3.22-5.589,13.44,13.44,0,0,0-.426-6.041,14.372,14.372,0,0,0-2.661-5.057,14.583,14.583,0,0,0-3.593-3.274,15.275,15.275,0,0,0-3.407-1.6,13.309,13.309,0,0,0-2.4-.532H7.659a.346.346,0,0,1-.293-.4.339.339,0,1,1,.479-.479Z" transform="translate(1.04 183.923)" fill="#b39a7a"/>
      <path id="Path_6059" data-name="Path 6059" d="M110.74,212.934v-.878a12.454,12.454,0,0,1,.426-2.661,11.307,11.307,0,0,1,.586-1.756,13.012,13.012,0,0,1,.932-1.97,15.97,15.97,0,0,1,3.38-4.019,15.064,15.064,0,0,1,5.323-3.034,15.252,15.252,0,0,1,6.973-.506,11.684,11.684,0,0,1,3.62,1.251,12.085,12.085,0,0,1,3.114,2.369A12.722,12.722,0,0,1,137.328,205a11.736,11.736,0,0,1,1.065,3.886V211.9a1.74,1.74,0,0,1-.24,1.065,9.687,9.687,0,0,1-1.916,3.62,9.821,9.821,0,0,1-7.026,3.487h-1.916a7.981,7.981,0,0,1-1.916-.612,7.479,7.479,0,0,1-2.928-2.422,7.64,7.64,0,0,1-1.411-3.327v-1.623h0V211.9a6.92,6.92,0,0,1,.373-1.517,5.908,5.908,0,0,1,4.524-3.806,5.452,5.452,0,0,1,1.3,0h1.144a4.364,4.364,0,0,1,1.916,1.171,4.232,4.232,0,0,1,1.224,2.661,6.8,6.8,0,0,1,0,.745v.266a.426.426,0,0,1-.852,0v-.878a3.433,3.433,0,0,0-1.171-1.7,4.445,4.445,0,0,0-1.2-.559h-.9a5.088,5.088,0,0,0-.878.16H126.1a1.28,1.28,0,0,0-.426.213,3.114,3.114,0,0,0-.825.532,1.544,1.544,0,0,0-.346.373,2.342,2.342,0,0,0-.319.4,3.591,3.591,0,0,0-.452.9,4.47,4.47,0,0,0-.266,1.224h0v1.144a5.8,5.8,0,0,0,.985,2.342,5.323,5.323,0,0,0,2.049,1.73,6.333,6.333,0,0,0,1.3.452h1.49a7.532,7.532,0,0,0,5.483-2.661,7.984,7.984,0,0,0,1.544-2.821,1.086,1.086,0,0,1,.186-.745c.186-.24,0-.612,0-.9v-1.65a10.779,10.779,0,0,0-2.661-6.068,10.646,10.646,0,0,0-5.589-3.22,13.442,13.442,0,0,0-6.281.293,14.823,14.823,0,0,0-5.057,2.661,15.091,15.091,0,0,0-3.274,3.593,15.41,15.41,0,0,0-1.6,3.433,13.309,13.309,0,0,0-.532,2.369v.878a.4.4,0,0,1-.4.319A.346.346,0,0,1,110.74,212.934Z" transform="translate(184.064 328.825)" fill="#b39a7a"/>
      <path id="Path_6060" data-name="Path 6060" d="M212.925,113.538h-.878a14.663,14.663,0,0,1-2.661-.426,15.055,15.055,0,0,1-1.757-.586,16.579,16.579,0,0,1-1.97-.958,16.313,16.313,0,0,1-4.019-3.353,15.356,15.356,0,0,1-3.513-12.509A12.3,12.3,0,0,1,201.747,89a12.827,12.827,0,0,1,3.274-2.262,12.4,12.4,0,0,1,3.886-1.065,6.276,6.276,0,0,1,1.011,0h2a1.74,1.74,0,0,1,1.065.24,9.687,9.687,0,0,1,3.62,1.916,9.821,9.821,0,0,1,3.487,7.026v.9h0v1.011a8.489,8.489,0,0,1-.612,1.916A7.691,7.691,0,0,1,213.723,103h-1.836a6.68,6.68,0,0,1-1.517-.346,5.935,5.935,0,0,1-3.806-4.551,5.324,5.324,0,0,1,0-1.3v-.213h0v-.745a4.072,4.072,0,0,1,1.171-1.916,4.365,4.365,0,0,1,2.661-1.251,5.6,5.6,0,0,1,.745,0h.266a.446.446,0,0,1,.053.878h-.213a3.271,3.271,0,0,0-.559,0,3.433,3.433,0,0,0-1.7,1.171,4.444,4.444,0,0,0-.559,1.2v.745h0v.16a5.094,5.094,0,0,0,.16.878,2.9,2.9,0,0,0,0,.452,2.1,2.1,0,0,0,.213.426,2.982,2.982,0,0,0,.532.8,1.545,1.545,0,0,0,.373.346,1.429,1.429,0,0,0,.4.319,2.876,2.876,0,0,0,.9.452,4.471,4.471,0,0,0,1.224.266H213.4a5.749,5.749,0,0,0,2.342-.958,5.483,5.483,0,0,0,1.73-2.076,6.124,6.124,0,0,0,.452-1.278V94.935a7.532,7.532,0,0,0-2.661-5.483,7.985,7.985,0,0,0-2.821-1.544l-.745-.16h-.9a11.385,11.385,0,0,0-1.624,0,10.459,10.459,0,0,0-9.315,8.277,13.308,13.308,0,0,0,.293,6.254,15.223,15.223,0,0,0,2.661,5.083,14.931,14.931,0,0,0,3.513,3.167,14.293,14.293,0,0,0,3.433,1.6,13.738,13.738,0,0,0,2.369.559H213a.4.4,0,0,1,.319.4.346.346,0,0,1-.4.452Z" transform="translate(328.914 142.303)" fill="#b39a7a"/>
      <path id="Path_6061" data-name="Path 6061" d="M110.8,7.812v.878a12.454,12.454,0,0,0,.426,2.661,11.312,11.312,0,0,0,.586,1.757,13.015,13.015,0,0,0,.932,1.969,15.969,15.969,0,0,0,3.38,4.045,15.01,15.01,0,0,0,5.323,3.007,15.25,15.25,0,0,0,6.973.532,11.764,11.764,0,0,0,3.62-1.277,11.976,11.976,0,0,0,3.407-2.449,12.881,12.881,0,0,0,2.236-3.3,11.391,11.391,0,0,0,1.065-3.886V8.744a1.624,1.624,0,0,0-.24-1.038,10.007,10.007,0,0,0-1.916-3.646A9.688,9.688,0,0,0,129.432.6h-1.969a7.984,7.984,0,0,0-1.916.612,7.479,7.479,0,0,0-2.928,2.422,7.639,7.639,0,0,0-1.357,3.353V8.611h0V8.8a7.479,7.479,0,0,0,.373,1.544,5.829,5.829,0,0,0,4.524,3.779,4.365,4.365,0,0,0,1.3,0h1.144a4.6,4.6,0,0,0,1.916-1.144,4.338,4.338,0,0,0,1.224-2.661,6.794,6.794,0,0,0,0-.745V9.356a.453.453,0,0,0-.452-.426.426.426,0,0,0-.4.373v.9a3.327,3.327,0,0,1-1.171,1.7,3.273,3.273,0,0,1-1.2.559h-1.065a3.353,3.353,0,0,1-.878,0h-.426l-.426-.213a4.1,4.1,0,0,1-.825-.559,2.131,2.131,0,0,1-.346-.346c0-.16-.24-.266-.319-.4a4.765,4.765,0,0,1-.452-.9,5,5,0,0,1-.266-1.224h0V7.44a5.775,5.775,0,0,1,.985-2.369,5.935,5.935,0,0,1,2.049-1.73,4.976,4.976,0,0,1,1.3-.426h1.357A7.638,7.638,0,0,1,134.7,5.577,7.984,7.984,0,0,1,136.245,8.4a1.085,1.085,0,0,0,.186.745c.186.24,0,.612,0,.9V11.7a10.779,10.779,0,0,1-2.661,6.068,10.433,10.433,0,0,1-5.589,3.22,13.44,13.44,0,0,1-6.041-.426,14.372,14.372,0,0,1-5.057-2.661,14.584,14.584,0,0,1-3.274-3.593,15.276,15.276,0,0,1-1.6-3.407,13.309,13.309,0,0,1-.532-2.4V7.626a.346.346,0,0,0-.4-.293.339.339,0,1,0-.479.479Z" transform="translate(184.002 0.994)" fill="#b39a7a"/>
      <path id="Path_6062" data-name="Path 6062" d="M7.812,113.455h.878a14.666,14.666,0,0,0,2.661-.426,15.058,15.058,0,0,0,1.757-.586,16.586,16.586,0,0,0,1.863-1.011,16.394,16.394,0,0,0,4.045-3.353,15.224,15.224,0,0,0,3.007-5.323,15.383,15.383,0,0,0,.532-7,12.748,12.748,0,0,0-3.62-6.707,12.962,12.962,0,0,0-3.3-2.262,12.029,12.029,0,0,0-3.886-1.065,6.123,6.123,0,0,0-.985,0H8.744a1.625,1.625,0,0,0-1.038.24A10.007,10.007,0,0,0,4.06,87.878,9.688,9.688,0,0,0,.6,94.824v.9h0v.9a8.49,8.49,0,0,0,.612,1.916A7.692,7.692,0,0,0,6.987,103H8.824a7.186,7.186,0,0,0,1.544-.346A5.855,5.855,0,0,0,14.147,98.1a4.311,4.311,0,0,0,0-1.3v-.213h0v-.266a3.087,3.087,0,0,0,0-.479A4.258,4.258,0,0,0,13,93.92a4.418,4.418,0,0,0-2.661-1.251,5.584,5.584,0,0,0-.745,0h-.24a.442.442,0,0,0-.053.878h.213a3.273,3.273,0,0,1,.559,0,3.327,3.327,0,0,1,1.7,1.171,3.274,3.274,0,0,1,.559,1.2v.745h0v.16a3.354,3.354,0,0,1,0,.878,2.9,2.9,0,0,0,0,.452,2.959,2.959,0,0,0-.213.426,3.939,3.939,0,0,1-.559.8,2.129,2.129,0,0,1-.346.346c-.16,0-.266.266-.4.319a3.567,3.567,0,0,1-.9.452,5,5,0,0,1-1.224.266H7.44A5.722,5.722,0,0,1,5.071,99.8a6.015,6.015,0,0,1-1.73-2.076,4.818,4.818,0,0,1-.426-1.278V94.931a7.638,7.638,0,0,1,2.661-5.483A7.984,7.984,0,0,1,8.4,87.9l.745-.16h.9a11.626,11.626,0,0,1,1.65,0,10.646,10.646,0,0,1,6.068,2.661,10.246,10.246,0,0,1,3.22,5.616,13.307,13.307,0,0,1-.293,6.254,14.744,14.744,0,0,1-2.661,5.083,14.452,14.452,0,0,1-3.62,3.087,14.158,14.158,0,0,1-3.407,1.6,13.914,13.914,0,0,1-2.4.559H7.733a.346.346,0,0,0-.293.4.319.319,0,0,0,.373.452Z" transform="translate(1.074 142.387)" fill="#b39a7a"/>
      <path id="Path_6063" data-name="Path 6063" d="M113.538,212.925v-.878a14.663,14.663,0,0,0-.426-2.661,15.055,15.055,0,0,0-.586-1.757,16.579,16.579,0,0,0-.958-1.97,16.314,16.314,0,0,0-3.353-4.019,15.356,15.356,0,0,0-12.509-3.513A12.3,12.3,0,0,0,89,201.747a12.828,12.828,0,0,0-2.262,3.274,12.4,12.4,0,0,0-1.065,3.886,6.276,6.276,0,0,0,0,1.011c0,.346,0,.612,0,1.065v.932a1.74,1.74,0,0,0,.24,1.065,9.688,9.688,0,0,0,1.916,3.62,9.821,9.821,0,0,0,7.026,3.487H96.8a8.487,8.487,0,0,0,1.916-.612,7.691,7.691,0,0,0,4.312-5.749q0-.439,0-.878V212.1h0v-.186a5.51,5.51,0,0,0-.346-1.517,5.935,5.935,0,0,0-4.551-3.806,5.323,5.323,0,0,0-1.3,0H95.706a4.072,4.072,0,0,0-1.916,1.171,4.285,4.285,0,0,0-1.251,2.661,5.592,5.592,0,0,0,0,.745v.266a.446.446,0,0,0,.878.053h0v-.213a3.271,3.271,0,0,1,0-.559,3.433,3.433,0,0,1,1.171-1.7,4.441,4.441,0,0,1,1.2-.559h.932a5.089,5.089,0,0,1,.878.16h.452a2.1,2.1,0,0,1,.426.213,2.98,2.98,0,0,1,.8.532,1.544,1.544,0,0,1,.346.373,2.476,2.476,0,0,1,.346.4,3.485,3.485,0,0,1,.426.9,4.47,4.47,0,0,1,.266,1.224h0V213.4a5.748,5.748,0,0,1-.958,2.342,5.482,5.482,0,0,1-2.076,1.73,6.123,6.123,0,0,1-1.278.452H94.828a7.532,7.532,0,0,1-5.483-2.661,7.985,7.985,0,0,1-1.544-2.821,1.228,1.228,0,0,0-.16-.745c-.16-.24,0-.612,0-.9a11.867,11.867,0,0,1,0-1.65,10.459,10.459,0,0,1,8.277-9.288,13.308,13.308,0,0,1,6.254.293,15.223,15.223,0,0,1,5.083,2.661,15.673,15.673,0,0,1,3.274,3.513,15.2,15.2,0,0,1,1.57,3.433,13.736,13.736,0,0,1,.559,2.369V213a.4.4,0,0,0,.4.319.346.346,0,0,0,.479-.4Z" transform="translate(142.383 328.834)" fill="#b39a7a"/>
      <path id="Path_6064" data-name="Path 6064" d="M212.934,110.74h-.878a12.454,12.454,0,0,0-2.661.426,11.31,11.31,0,0,0-1.757.586,13.011,13.011,0,0,0-1.969.932,15.969,15.969,0,0,0-4.019,3.38,15.064,15.064,0,0,0-3.034,5.323,15.252,15.252,0,0,0-.506,6.973,11.952,11.952,0,0,0,1.251,3.62,12.084,12.084,0,0,0,2.369,3.114A12.722,12.722,0,0,0,205,137.328a11.736,11.736,0,0,0,3.886,1.065H211.9a1.74,1.74,0,0,0,1.065-.24,9.687,9.687,0,0,0,3.62-1.916,9.821,9.821,0,0,0,3.487-7.026v-.9h0v-.985a7.983,7.983,0,0,0-.612-1.916,7.479,7.479,0,0,0-2.422-2.928,7.639,7.639,0,0,0-3.327-1.41H211.87a6.918,6.918,0,0,0-1.517.373,5.909,5.909,0,0,0-3.806,4.524,5.456,5.456,0,0,0,0,1.3v.24h0v.745a4.365,4.365,0,0,0,1.171,1.916,4.285,4.285,0,0,0,2.661,1.224h1.065a.426.426,0,0,0,0-.852h-.878a3.434,3.434,0,0,1-1.7-1.171,4.446,4.446,0,0,1-.559-1.2V127.4h0a5.073,5.073,0,0,1,.16-.878,2.656,2.656,0,0,1,0-.426,1.279,1.279,0,0,1,.213-.426,3.111,3.111,0,0,1,.532-.825,1.545,1.545,0,0,1,.373-.346,2.342,2.342,0,0,1,.4-.319,3.592,3.592,0,0,1,.9-.452,4.472,4.472,0,0,1,1.224-.266h1.171a5.8,5.8,0,0,1,2.342.985,5.323,5.323,0,0,1,1.73,2.049,6.33,6.33,0,0,1,.452,1.3v1.49a7.532,7.532,0,0,1-2.661,5.483,7.984,7.984,0,0,1-2.821,1.544l-.745.186h-2.528a10.779,10.779,0,0,1-6.095-2.661,10.645,10.645,0,0,1-3.22-5.589,13.44,13.44,0,0,1,.293-6.281,14.824,14.824,0,0,1,2.661-5.057,15.091,15.091,0,0,1,3.593-3.274,15.406,15.406,0,0,1,3.433-1.6,13.308,13.308,0,0,1,2.369-.532h.878a.4.4,0,0,0,.319-.4.346.346,0,0,0-.346-.373Z" transform="translate(328.904 183.985)" fill="#b39a7a"/>
      <path id="Path_6065" data-name="Path 6065" d="M116.86,5.029a14.266,14.266,0,0,0-4.737-2.369,12.03,12.03,0,0,0-2.981-.479h-3.167a10.646,10.646,0,0,0-2.928,1.091,9.741,9.741,0,0,0-2.661,2,10.3,10.3,0,0,0-2.661,5.962,7.983,7.983,0,0,0,0,.825v1.677a7.452,7.452,0,0,0,.16.745,7.584,7.584,0,0,0,1.49,2.821,7.745,7.745,0,0,0,5.323,2.661h1.544a5.51,5.51,0,0,0,1.331-.426,5.855,5.855,0,0,0,2.182-1.73,6.255,6.255,0,0,0,1.065-2.449v-.9a4.63,4.63,0,0,0-.266-1.277,3.752,3.752,0,0,0-.479-.985,2.9,2.9,0,0,0-.346-.452,2.447,2.447,0,0,0-.373-.373l-.426-.346a3.726,3.726,0,0,0-.452-.24,1.89,1.89,0,0,0-.479-.213l-.479-.133a3.566,3.566,0,0,0-.931,0h-.9a3.407,3.407,0,0,0-2.369,2.475,3.249,3.249,0,0,0,0,.586v.293a.452.452,0,0,1-.506.426.479.479,0,0,1-.426-.479V12.694a4.285,4.285,0,0,1,1.3-2.5,4.365,4.365,0,0,1,1.836-1.065h1.118a4.817,4.817,0,0,1,1.224,0,5.7,5.7,0,0,1,4.312,3.62,7.159,7.159,0,0,1,.373,1.49h0v1.57a7.611,7.611,0,0,1-1.3,3.247,7.319,7.319,0,0,1-2.821,2.4,6.68,6.68,0,0,1-1.863.639h-1.916a9.608,9.608,0,0,1-7.026-3.38,9.421,9.421,0,0,1-1.969-3.62,6.918,6.918,0,0,1-.266-1.065c0-.346,0-.639,0-.932v.213h0V12.268a6.6,6.6,0,0,1,0-1.011,12.455,12.455,0,0,1,3.3-7.292A12.083,12.083,0,0,1,105.629.211a15.117,15.117,0,0,1,7.106.506A15.969,15.969,0,0,1,116.86,2.74,15.276,15.276,0,0,1,121.012.717a14.984,14.984,0,0,1,7.079-.506,12.03,12.03,0,0,1,3.566,1.3,12.482,12.482,0,0,1,6.414,9.741,6.612,6.612,0,0,1,0,1.011v1.038h0v.932a1.7,1.7,0,0,1-.24,1.065,10.194,10.194,0,0,1-1.969,3.62,9.661,9.661,0,0,1-7.053,3.38h-1.916a7,7,0,0,1-1.863-.639,7.718,7.718,0,0,1-2.821-2.4,7.985,7.985,0,0,1-1.2-3.3V14.344h0a4.9,4.9,0,0,1,.373-1.49,5.642,5.642,0,0,1,4.285-3.62,5.03,5.03,0,0,1,1.251,0h1.091a4.631,4.631,0,0,1,1.863,1.065,4.445,4.445,0,0,1,1.3,2.5,3.812,3.812,0,0,1,0,.745v.24a.467.467,0,0,1-.932.053v-.985a3.567,3.567,0,0,0-1.118-1.783,3.327,3.327,0,0,0-1.277-.692h-.932a3.753,3.753,0,0,0-.931,0l-.479.133a1.73,1.73,0,0,0-.452.213,2.421,2.421,0,0,0-.452.24l-.426.346a1.757,1.757,0,0,0-.4.373c0,.16-.24.266-.346.452a3.752,3.752,0,0,0-.479.985,4.735,4.735,0,0,0-.24,1.277v.559a5.323,5.323,0,0,0,0,.639,5.882,5.882,0,0,0,1.065,2.449,5.962,5.962,0,0,0,2.156,1.73,5.323,5.323,0,0,0,1.357.426h1.517a7.692,7.692,0,0,0,5.323-2.661,7.586,7.586,0,0,0,1.49-2.821,7.461,7.461,0,0,0,.16-.745,7.977,7.977,0,0,0,0-.878v-.8a4.145,4.145,0,0,0,0-.825,10.087,10.087,0,0,0-2.661-5.962,9.874,9.874,0,0,0-2.661-2,10.3,10.3,0,0,0-2.928-1.091h-3.167a12.455,12.455,0,0,0-2.981.479,14.132,14.132,0,0,0-4.524,2.129Z" transform="translate(158.516 -0.001)" fill="#b39a7a"/>
      <path id="Path_6066" data-name="Path 6066" d="M215.633,116.877a15.384,15.384,0,0,0,2.289-4.737,15.164,15.164,0,0,0,.479-2.981,15.43,15.43,0,0,0,0-1.57v-.16h0v-1.437a9.821,9.821,0,0,0-1.091-2.928,9.235,9.235,0,0,0-2-2.661,10.3,10.3,0,0,0-5.935-2.661h-2.635L206,97.9a7.585,7.585,0,0,0-2.821,1.49,7.985,7.985,0,0,0-2.661,5.323v1.544a5.324,5.324,0,0,0,.4,1.331,5.67,5.67,0,0,0,1.757,2.182,6.147,6.147,0,0,0,2.422,1.065h1.224a4.87,4.87,0,0,0,1.277-.266,4.764,4.764,0,0,0,.985-.479,4.86,4.86,0,0,0,.426-.346,3.82,3.82,0,0,0,.4-.373l.319-.426a3.733,3.733,0,0,0,.24-.452,4.02,4.02,0,0,0,.239-.479l.133-.479a5.317,5.317,0,0,0,0-.931v-.16h0V105.7a3.674,3.674,0,0,0-.665-1.278,3.461,3.461,0,0,0-1.81-1.091,2.978,2.978,0,0,0-.585,0h-.293a.452.452,0,0,1-.426-.506.479.479,0,0,1,.479-.426h.985a4.338,4.338,0,0,1,2.661,1.3,4.631,4.631,0,0,1,1.038,1.836c0,.16,0,.319,0,.506v.24h0v.24a4.871,4.871,0,0,1,0,1.224,5.722,5.722,0,0,1-3.593,4.312,7.615,7.615,0,0,1-1.49.373h-1.757a7.744,7.744,0,0,1-3.247-1.3,7.32,7.32,0,0,1-2.4-2.821,7.669,7.669,0,0,1-.639-1.863v-.9h0v-.9a9.661,9.661,0,0,1,7-9,7.778,7.778,0,0,1,1.065-.266h2.023a6.438,6.438,0,0,1,1.011,0,12.376,12.376,0,0,1,7.292,3.3,11.524,11.524,0,0,1,2.448,3.114,11.364,11.364,0,0,1,1.3,3.7,14.8,14.8,0,0,1-.506,7.106,15.973,15.973,0,0,1-2,4.125,15.226,15.226,0,0,1,2,4.125,14.663,14.663,0,0,1,.506,7.079,11.363,11.363,0,0,1-1.3,3.7,12.055,12.055,0,0,1-2.448,3.141,12.509,12.509,0,0,1-7.292,3.274,6.441,6.441,0,0,1-1.011,0h-2.023a1.74,1.74,0,0,1-1.065-.24,10.194,10.194,0,0,1-3.62-1.969,9.661,9.661,0,0,1-3.38-7.053v-.9h0v-.9a7.989,7.989,0,0,1,.639-1.863,7.718,7.718,0,0,1,2.4-2.821,7.984,7.984,0,0,1,3.247-1.3h1.756a5.084,5.084,0,0,1,1.49.373,5.642,5.642,0,0,1,3.593,4.285,5.085,5.085,0,0,1,0,1.251v.213h0v.745a4.95,4.95,0,0,1-1.038,1.863,4.5,4.5,0,0,1-2.661,1.3,3.75,3.75,0,0,1-.745,0h-.24a.467.467,0,0,1-.053-.932h.878a3.726,3.726,0,0,0,1.81-1.118,3.673,3.673,0,0,0,.665-1.277v-.745h0v-.186a5.568,5.568,0,0,0,0-.931l-.133-.479a3.735,3.735,0,0,0-.239-.452,2.425,2.425,0,0,0-.24-.452l-.319-.426a2.823,2.823,0,0,0-.4-.4l-.426-.346a4.764,4.764,0,0,0-.985-.479,4.975,4.975,0,0,0-1.278-.24h-1.224a5.8,5.8,0,0,0-4.178,3.22,5.324,5.324,0,0,0-.4,1.357v1.517a7.8,7.8,0,0,0,2.661,5.323,7.585,7.585,0,0,0,2.821,1.49l.745.16h1.677a4.579,4.579,0,0,0,.852,0,10.087,10.087,0,0,0,5.935-2.661,9.343,9.343,0,0,0,2-2.661,9.554,9.554,0,0,0,1.091-2.928v-1.011h0v-.16a15.453,15.453,0,0,0,0-1.57,15.965,15.965,0,0,0-.479-2.981A15.223,15.223,0,0,0,215.633,116.877Z" transform="translate(330.038 158.42)" fill="#b39a7a"/>
      <path id="Path_6067" data-name="Path 6067" d="M116.677,215.617a14.612,14.612,0,0,0,4.711,2.262,13.962,13.962,0,0,0,2.981.506,15.421,15.421,0,0,0,1.57,0h1.6a9.553,9.553,0,0,0,2.928-1.091,9.341,9.341,0,0,0,2.661-2,10.087,10.087,0,0,0,2.661-5.935,4.574,4.574,0,0,0,0-.852v-1.783a1.268,1.268,0,0,0-.16-.745,7.585,7.585,0,0,0-1.49-2.821,7.8,7.8,0,0,0-5.323-2.661H127.3a5.324,5.324,0,0,0-1.357.4,5.8,5.8,0,0,0-3.22,4.178,6.446,6.446,0,0,0,0,.665v.559a4.976,4.976,0,0,0,.24,1.277,4.765,4.765,0,0,0,.479.985c0,.16.239.266.346.426a2.82,2.82,0,0,0,.4.4l.426.319a2.425,2.425,0,0,0,.452.239,3.725,3.725,0,0,0,.452.24l.479.133a5.57,5.57,0,0,0,.931,0h.9a3.674,3.674,0,0,0,1.278-.665,3.726,3.726,0,0,0,1.118-1.81v-.878a.467.467,0,0,1,.932.053v.24a3.751,3.751,0,0,1,0,.745,4.5,4.5,0,0,1-1.3,2.661,4.95,4.95,0,0,1-1.863,1.038H126.9a5.084,5.084,0,0,1-1.251,0,5.642,5.642,0,0,1-4.285-3.593,5.084,5.084,0,0,1-.373-1.49v-.16h0v-1.57a7.985,7.985,0,0,1,1.3-3.247,7.719,7.719,0,0,1,2.821-2.4,7.985,7.985,0,0,1,1.863-.639h1.916a9.661,9.661,0,0,1,7.053,3.38,10.193,10.193,0,0,1,1.969,3.619,5.108,5.108,0,0,0,.24,1.065,3.846,3.846,0,0,1,0,.958h0v.9a6.441,6.441,0,0,1,0,1.011,12.509,12.509,0,0,1-3.274,7.292,12.055,12.055,0,0,1-3.141,2.449,11.365,11.365,0,0,1-3.7,1.3,14.665,14.665,0,0,1-7.079-.506,15.222,15.222,0,0,1-4.125-2,15.966,15.966,0,0,1-4.125,2,14.8,14.8,0,0,1-7.106.506,11.365,11.365,0,0,1-3.7-1.3,11.527,11.527,0,0,1-3.114-2.449,12.376,12.376,0,0,1-3.3-7.292,6.443,6.443,0,0,1,0-1.011v-.9h0v-.958a7.786,7.786,0,0,1,.266-1.065,9.422,9.422,0,0,1,1.969-3.62,9.608,9.608,0,0,1,7.026-3.38h1.916a7.667,7.667,0,0,1,1.863.639,7.319,7.319,0,0,1,2.821,2.4,7.746,7.746,0,0,1,1.3,3.247v1.57h0v.16a7.611,7.611,0,0,1-.373,1.49,5.722,5.722,0,0,1-4.312,3.593,4.874,4.874,0,0,1-1.224,0h-1.118a4.632,4.632,0,0,1-1.836-1.038,4.338,4.338,0,0,1-1.3-2.661v-.985a.479.479,0,0,1,.426-.479.452.452,0,0,1,.506.426v.293a2.982,2.982,0,0,0,0,.585,3.46,3.46,0,0,0,1.091,1.81,3.673,3.673,0,0,0,1.278.665h.9a5.317,5.317,0,0,0,.931,0l.479-.133.479-.24a3.718,3.718,0,0,0,.452-.239l.426-.319c.133,0,.24-.266.373-.4a4.869,4.869,0,0,0,.346-.426,4.763,4.763,0,0,0,.479-.985,4.872,4.872,0,0,0,.266-1.278v-1.224a6.149,6.149,0,0,0-1.065-2.422,5.669,5.669,0,0,0-2.182-1.756,5.326,5.326,0,0,0-1.331-.4h-1.49a7.984,7.984,0,0,0-5.323,2.661,7.585,7.585,0,0,0-1.49,2.821,1.227,1.227,0,0,1-.16.745c-.16.24,0,.612,0,.9v1.623a10.3,10.3,0,0,0,2.661,5.935,9.236,9.236,0,0,0,2.661,2,9.819,9.819,0,0,0,2.928,1.091h1.384a15.452,15.452,0,0,0,1.57,0,13.3,13.3,0,0,0,2.981-.506,14.744,14.744,0,0,0,4.6-2.156Z" transform="translate(158.698 329.975)" fill="#b39a7a"/>
      <path id="Path_6068" data-name="Path 6068" d="M5.078,116.777a14.132,14.132,0,0,0-2.369,4.711,12.455,12.455,0,0,0-.479,2.981c0,.532,0,1.065,0,1.57v.213h0v1.437a10.3,10.3,0,0,0,1.091,2.928,9.874,9.874,0,0,0,2,2.661,10.087,10.087,0,0,0,5.962,2.661,4.148,4.148,0,0,0,.825,0h1.677l.745-.16a7.585,7.585,0,0,0,3.087-1.544,7.692,7.692,0,0,0,2.661-5.323V127.4a5.323,5.323,0,0,0-.426-1.357,5.962,5.962,0,0,0-1.7-2.449,5.882,5.882,0,0,0-2.449-1.065,5.335,5.335,0,0,0-.639,0H14.5a4.736,4.736,0,0,0-1.277.24,3.752,3.752,0,0,0-.985.479c-.186,0-.293.24-.452.346a1.758,1.758,0,0,0-.373.4,5.173,5.173,0,0,0-.346.426,2.421,2.421,0,0,0-.24.452,1.73,1.73,0,0,0-.213.452l-.133.479a3.752,3.752,0,0,0,0,.931v.186h0v.745a3.327,3.327,0,0,0,.692,1.277,3.566,3.566,0,0,0,1.783,1.118h.878a.467.467,0,0,1-.053.932h-.293a3.807,3.807,0,0,1-.745,0,4.445,4.445,0,0,1-2.5-1.3,4.631,4.631,0,0,1-1.065-1.863v-.745h0v-.213a5.03,5.03,0,0,1,0-1.251,5.642,5.642,0,0,1,3.62-4.285,4.9,4.9,0,0,1,1.49-.373h.9l.825-.027a7.984,7.984,0,0,1,3.247,1.3,7.718,7.718,0,0,1,2.4,2.821,7,7,0,0,1,.639,1.863,1.783,1.783,0,0,1,0,.479v.426h0v.9a9.661,9.661,0,0,1-3.38,7.053,10.194,10.194,0,0,1-3.62,1.969,5.518,5.518,0,0,0-1.065.24H12.317a6.6,6.6,0,0,1-1.011,0,12.482,12.482,0,0,1-9.741-6.414,12.03,12.03,0,0,1-1.3-3.7,14.984,14.984,0,0,1,.506-6.946,15.277,15.277,0,0,1,1.943-4.152,15.968,15.968,0,0,1-2.023-4.125,15.117,15.117,0,0,1-.506-7.106,12.083,12.083,0,0,1,3.753-6.813,12.455,12.455,0,0,1,7.292-3.3,6.6,6.6,0,0,1,1.011,0h2.049a6.921,6.921,0,0,1,1.065.266,9.661,9.661,0,0,1,7.053,9.075v.9h0v.426a1.783,1.783,0,0,1,0,.479,6.68,6.68,0,0,1-.639,1.863,7.319,7.319,0,0,1-2.4,2.821,7.612,7.612,0,0,1-3.353,1.411H14.233a7.16,7.16,0,0,1-1.49-.373,5.7,5.7,0,0,1-3.62-4.312,4.817,4.817,0,0,1,0-1.224v-.24h0v-.745a4.365,4.365,0,0,1,1.065-1.836,4.285,4.285,0,0,1,2.5-1.3h.985a.479.479,0,0,1,.479.426.452.452,0,0,1-.426.506h-.24a3.249,3.249,0,0,0-.586,0,3.407,3.407,0,0,0-2.475,2.369q0,.24,0,.479v.266h0v.16a3.566,3.566,0,0,0,0,.932l.133.479a1.889,1.889,0,0,0,.213.479,3.726,3.726,0,0,0,.24.452,5.169,5.169,0,0,1,.346.426,2.45,2.45,0,0,0,.373.373,2.9,2.9,0,0,0,.452.346,3.752,3.752,0,0,0,.985.479,4.63,4.63,0,0,0,1.277.266h1.2a6.255,6.255,0,0,0,2.449-1.065,5.855,5.855,0,0,0,1.73-2.182,5.509,5.509,0,0,0,.426-1.331V104.96a7.745,7.745,0,0,0-2.661-5.323,7.585,7.585,0,0,0-2.821-1.49l-.745-.16h-2.5a10.3,10.3,0,0,0-5.962,2.661,9.74,9.74,0,0,0-2,2.661,10.646,10.646,0,0,0-1.091,2.928v1.437h0v1.517a12.03,12.03,0,0,0,.24,2.848,14.266,14.266,0,0,0,2.369,4.737Z" transform="translate(0.029 158.52)" fill="#b39a7a"/>
      <path id="Path_6069" data-name="Path 6069" d="M4.666,4.666A1.49,1.49,0,0,1,5.731,4.24H116.952A1.517,1.517,0,0,1,118.5,5.757,1.544,1.544,0,0,1,116.952,7.3H7.3V116.952A1.544,1.544,0,0,1,5.757,118.5a1.517,1.517,0,0,1-1.517-1.544V5.7a1.464,1.464,0,0,1,.426-1.038Z" transform="translate(7.121 7.042)" fill="#b39a7a"/>
      <path id="Path_6070" data-name="Path 6070" d="M273.54,4.666a1.464,1.464,0,0,1,.426,1.038V116.952a1.544,1.544,0,0,1-1.544,1.544,1.517,1.517,0,0,1-1.517-1.544V7.3H161.227a1.517,1.517,0,0,1-1.517-1.544,1.49,1.49,0,0,1,1.517-1.517H272.475a1.57,1.57,0,0,1,1.065.426Z" transform="translate(265.424 7.042)" fill="#b39a7a"/>
      <path id="Path_6071" data-name="Path 6071" d="M273.54,273.54a1.57,1.57,0,0,1-1.065.426H161.227a1.517,1.517,0,0,1-1.517-1.544,1.49,1.49,0,0,1,1.517-1.517H270.9V161.227a1.49,1.49,0,0,1,1.517-1.517,1.517,1.517,0,0,1,1.544,1.517V272.475a1.57,1.57,0,0,1-.426,1.065Z" transform="translate(265.424 265.345)" fill="#b39a7a"/>
      <path id="Path_6072" data-name="Path 6072" d="M4.666,273.54a1.57,1.57,0,0,1-.426-1.065V161.227a1.49,1.49,0,0,1,1.517-1.517A1.517,1.517,0,0,1,7.3,161.227V270.9H116.952a1.517,1.517,0,0,1,1.544,1.517,1.544,1.544,0,0,1-1.544,1.544H5.731a1.49,1.49,0,0,1-1.065-.426Z" transform="translate(7.121 265.345)" fill="#b39a7a"/>
      <circle id="Ellipse_1" data-name="Ellipse 1" cx="2.475" cy="2.475" r="2.475" transform="translate(156.915 10.83)" fill="#b39a7a"/>
      <circle id="Ellipse_2" data-name="Ellipse 2" cx="2.475" cy="2.475" r="2.475" transform="translate(10.909 388.807)" fill="#b39a7a"/>
      <circle id="Ellipse_3" data-name="Ellipse 3" cx="2.475" cy="2.475" r="2.475" transform="translate(388.886 534.786)" fill="#b39a7a"/>
      <circle id="Ellipse_4" data-name="Ellipse 4" cx="2.475" cy="2.475" r="2.475" transform="translate(534.866 156.836)" fill="#b39a7a"/>
      <circle id="Ellipse_5" data-name="Ellipse 5" cx="2.475" cy="2.475" r="2.475" transform="translate(388.886 10.83)" fill="#b39a7a"/>
      <circle id="Ellipse_6" data-name="Ellipse 6" cx="2.475" cy="2.475" r="2.475" transform="translate(10.909 156.836)" fill="#b39a7a"/>
      <circle id="Ellipse_7" data-name="Ellipse 7" cx="2.475" cy="2.475" r="2.475" transform="translate(156.915 534.786)" fill="#b39a7a"/>
      <circle id="Ellipse_8" data-name="Ellipse 8" cx="2.475" cy="2.475" r="2.475" transform="translate(534.866 388.807)" fill="#b39a7a"/>
      <circle id="Ellipse_9" data-name="Ellipse 9" cx="2.475" cy="2.475" r="2.475" transform="translate(183.157 8.275)" fill="#b39a7a"/>
      <circle id="Ellipse_10" data-name="Ellipse 10" cx="2.475" cy="2.475" r="2.475" transform="translate(8.354 362.538)" fill="#b39a7a"/>
      <circle id="Ellipse_11" data-name="Ellipse 11" cx="2.475" cy="2.475" r="2.475" transform="translate(362.617 537.341)" fill="#b39a7a"/>
      <circle id="Ellipse_12" data-name="Ellipse 12" cx="2.475" cy="2.475" r="2.475" transform="translate(537.42 183.078)" fill="#b39a7a"/>
      <circle id="Ellipse_13" data-name="Ellipse 13" cx="2.475" cy="2.475" r="2.475" transform="translate(362.617 8.275)" fill="#b39a7a"/>
      <circle id="Ellipse_14" data-name="Ellipse 14" cx="2.475" cy="2.475" r="2.475" transform="translate(8.354 183.078)" fill="#b39a7a"/>
      <circle id="Ellipse_15" data-name="Ellipse 15" cx="2.475" cy="2.475" r="2.475" transform="translate(183.157 537.341)" fill="#b39a7a"/>
      <circle id="Ellipse_16" data-name="Ellipse 16" cx="2.475" cy="2.475" r="2.475" transform="translate(537.42 362.538)" fill="#b39a7a"/>
      <circle id="Ellipse_17" data-name="Ellipse 17" cx="2.475" cy="2.475" r="2.475" transform="translate(209.212 10.909)" fill="#b39a7a"/>
      <circle id="Ellipse_18" data-name="Ellipse 18" cx="2.475" cy="2.475" r="2.475" transform="translate(10.989 336.509)" fill="#b39a7a"/>
      <circle id="Ellipse_19" data-name="Ellipse 19" cx="2.475" cy="2.475" r="2.475" transform="translate(336.589 534.733)" fill="#b39a7a"/>
      <circle id="Ellipse_20" data-name="Ellipse 20" cx="2.475" cy="2.475" r="2.475" transform="translate(534.812 209.133)" fill="#b39a7a"/>
      <circle id="Ellipse_21" data-name="Ellipse 21" cx="2.475" cy="2.475" r="2.475" transform="translate(336.589 10.909)" fill="#b39a7a"/>
      <circle id="Ellipse_22" data-name="Ellipse 22" cx="2.475" cy="2.475" r="2.475" transform="translate(10.989 209.133)" fill="#b39a7a"/>
      <circle id="Ellipse_23" data-name="Ellipse 23" cx="2.475" cy="2.475" r="2.475" transform="translate(209.212 534.733)" fill="#b39a7a"/>
      <circle id="Ellipse_24" data-name="Ellipse 24" cx="2.475" cy="2.475" r="2.475" transform="translate(534.812 336.509)" fill="#b39a7a"/>
      <circle id="Ellipse_25" data-name="Ellipse 25" cx="2.475" cy="2.475" r="2.475" transform="translate(234.948 8.221)" fill="#b39a7a"/>
      <path id="Path_6073" data-name="Path 6073" d="M5.545,116.77a2.475,2.475,0,1,1-2.475,2.475,2.475,2.475,0,0,1,2.475-2.475Z" transform="translate(5.177 194.003)" fill="#b39a7a"/>
      <circle id="Ellipse_26" data-name="Ellipse 26" cx="2.475" cy="2.475" r="2.475" transform="translate(310.853 537.394)" fill="#b39a7a"/>
      <circle id="Ellipse_27" data-name="Ellipse 27" cx="2.475" cy="2.475" r="2.475" transform="translate(537.474 234.869)" fill="#b39a7a"/>
      <circle id="Ellipse_28" data-name="Ellipse 28" cx="2.475" cy="2.475" r="2.475" transform="translate(310.853 8.221)" fill="#b39a7a"/>
      <circle id="Ellipse_29" data-name="Ellipse 29" cx="2.475" cy="2.475" r="2.475" transform="translate(8.301 234.869)" fill="#b39a7a"/>
      <circle id="Ellipse_30" data-name="Ellipse 30" cx="2.475" cy="2.475" r="2.475" transform="translate(234.948 537.394)" fill="#b39a7a"/>
      <path id="Path_6074" data-name="Path 6074" d="M204.4,116.77a2.475,2.475,0,1,0,2.475,2.475,2.475,2.475,0,0,0-2.475-2.475Z" transform="translate(335.554 194.003)" fill="#b39a7a"/>
      <circle id="Ellipse_31" data-name="Ellipse 31" cx="2.475" cy="2.475" r="2.475" transform="translate(261.057 10.909)" fill="#b39a7a"/>
      <circle id="Ellipse_32" data-name="Ellipse 32" cx="2.475" cy="2.475" r="2.475" transform="translate(10.989 284.638)" fill="#b39a7a"/>
      <circle id="Ellipse_33" data-name="Ellipse 33" cx="2.475" cy="2.475" r="2.475" transform="translate(284.717 534.733)" fill="#b39a7a"/>
      <circle id="Ellipse_34" data-name="Ellipse 34" cx="2.475" cy="2.475" r="2.475" transform="translate(534.812 260.978)" fill="#b39a7a"/>
      <circle id="Ellipse_35" data-name="Ellipse 35" cx="2.475" cy="2.475" r="2.475" transform="translate(284.717 10.909)" fill="#b39a7a"/>
      <circle id="Ellipse_36" data-name="Ellipse 36" cx="2.475" cy="2.475" r="2.475" transform="translate(10.989 260.978)" fill="#b39a7a"/>
      <circle id="Ellipse_37" data-name="Ellipse 37" cx="2.475" cy="2.475" r="2.475" transform="translate(261.057 534.733)" fill="#b39a7a"/>
      <circle id="Ellipse_38" data-name="Ellipse 38" cx="2.475" cy="2.475" r="2.475" transform="translate(534.812 284.638)" fill="#b39a7a"/>
      <circle id="Ellipse_39" data-name="Ellipse 39" cx="2.475" cy="2.475" r="2.475" transform="translate(130.78 8.168)" fill="#b39a7a"/>
      <circle id="Ellipse_40" data-name="Ellipse 40" cx="2.475" cy="2.475" r="2.475" transform="translate(8.247 414.915)" fill="#b39a7a"/>
      <circle id="Ellipse_41" data-name="Ellipse 41" cx="2.475" cy="2.475" r="2.475" transform="translate(414.994 537.474)" fill="#b39a7a"/>
      <circle id="Ellipse_42" data-name="Ellipse 42" cx="2.475" cy="2.475" r="2.475" transform="translate(537.554 130.701)" fill="#b39a7a"/>
      <circle id="Ellipse_43" data-name="Ellipse 43" cx="2.475" cy="2.475" r="2.475" transform="translate(414.994 8.168)" fill="#b39a7a"/>
      <circle id="Ellipse_44" data-name="Ellipse 44" cx="2.475" cy="2.475" r="2.475" transform="translate(8.247 130.701)" fill="#b39a7a"/>
      <circle id="Ellipse_45" data-name="Ellipse 45" cx="2.475" cy="2.475" r="2.475" transform="translate(130.78 537.474)" fill="#b39a7a"/>
      <circle id="Ellipse_46" data-name="Ellipse 46" cx="2.475" cy="2.475" r="2.475" transform="translate(537.554 414.915)" fill="#b39a7a"/>
    </g>
  </g>
</svg>
