<svg id="Layer_2" data-name="Layer 2" xmlns="http://www.w3.org/2000/svg" xmlns:xlink="http://www.w3.org/1999/xlink" width="315.64" height="427.119" viewBox="0 0 315.64 427.119">
  <defs>
    <radialGradient id="radial-gradient" cx="0.501" cy="0.5" r="0.567" gradientTransform="matrix(-0.793, 0.093, 0.074, 0.996, -10.149, -5.743)" gradientUnits="objectBoundingBox">
      <stop offset="0" stop-color="#f29183"/>
      <stop offset="1" stop-color="#f5a98d"/>
    </radialGradient>
  </defs>
  <g id="Capa_1" data-name="Capa 1" transform="translate(0 0)">
    <path id="Path_861" data-name="Path 861" d="M189.376,133.876c4.045.276,9.066-.564,16.179-2.116,23.944-5.184,47.386-25.121,47.386-25.121L234.308,94.78a336.63,336.63,0,0,0-35.928,15.829,85.069,85.069,0,0,0-14.151,10.168C179.208,125.11,179.821,133.275,189.376,133.876Z" transform="translate(-164.114 23.915)" fill="#2b221c"/>
    <path id="Path_862" data-name="Path 862" d="M153.522,72.17s13.7-8.315,13.149-16.781c-.2-3.181-2.5-5.372-4.583-4.608a33.3,33.3,0,0,0-7.626,5.084c-.7.564-1.115-.814-.651-1.666s.739-1.615.4-2.016c-.764-.877-2.417.513-3.556,1.59-2.041,1.929-5.009,9.092-5.6,12.936Z" transform="translate(-32.699 12.777)" fill="#f7b49e"/>
    <rect id="Rectangle_11" data-name="Rectangle 11" width="14.376" height="6.537" transform="matrix(-0.823, -0.568, 0.568, -0.823, 119.781, 89.768)" fill="#fbddde"/>
    <path id="Path_863" data-name="Path 863" d="M154.609,103.017s28.9-29.378,38.908-39.8L207,71.986c.188.288-33.436,42.978-33.436,42.978C173.131,115.54,154.609,103.017,154.609,103.017Z" transform="translate(-84.979 15.954)" fill="#2b221c"/>
    <path id="Path_864" data-name="Path 864" d="M261.662,84.986a12.21,12.21,0,0,1-2.7-2.58c-.651-.776-1.365-1.7-2.3-2.88a5.612,5.612,0,0,1-.213-1.252c-.238-2.5-.138-7.276-2.267-11.17.163-5.172-4.308-9.029-5.61-9.73-15.178-8.152-30.781,2.041-32.033,2.868,0,0-11.27,5.948-9.142,17.67,1.891,10.406,6.549,18.383,12.034,21.138a38.817,38.817,0,0,1,1.152,6.825c.488,3.757.864,20.575.864,20.575l24.908-4.508c-1.8-2.793,0-14.777,1.766-16.28.739-.626,5.61-1.252,6.049-1.252,3.481.125,6.261-1.954,5.585-4.333a6.6,6.6,0,0,1-.338-2.029c.175-.827.676-1.077.877-1.716.088-.288-.1-.426-.388-.488a18.5,18.5,0,0,0,.075-3.644c.689-.263.6-.764.388-1.052a6.259,6.259,0,0,1-.551-1.44c-.163-.989-.451-2.429.977-2.692C263.453,86.5,262.326,85.436,261.662,84.986Z" transform="translate(-206.208 13.686)" fill="#f7b49e"/>
    <path id="Path_865" data-name="Path 865" d="M220.839,60.168c-.1-1.59-1.916-1.39-1.916-1.39,1.4-.764,3.757.413,3.757.413-.651-1.478,1.252-3.87,1.252-3.87a2.2,2.2,0,0,0,.526,2.918c8.19-6.75,20.976-7.4,29.654-1.052a35.767,35.767,0,0,1,4.659,5.623,15.493,15.493,0,0,1,.814,1.352,6.449,6.449,0,0,0,2.692-2.642s1.1,7.376-4.007,8.39c-2.943.814-7.163-.789-10.82-1.565-6.913-1.49-10.018,1.966-10.093,7.413,0,3.832.1,4.809.138,9.818,0,1.878,0,2.4.075,5.1,0,.789-1.065.726-1.929.889-1.127.2-1.252-1.127-1.365-1.5a7.075,7.075,0,0,0-5.009-5.084c-1.891-.463-2.5.288-2.98,1.252-1.252,2.166,1.027,4.12,3.694,7.075,1.979,2.191-2.667,6.5-5.385,7-1.979.351-11.27-11.27-13.174-21.765C209.155,66.329,220.839,60.168,220.839,60.168Z" transform="translate(-211.13 13.32)" fill="#6e262e"/>
    <path id="Path_866" data-name="Path 866" d="M240.676,80.644c1.766,2.254,1.966,4.884.438,5.886s-4.17,0-5.923-2.254-1.966-4.9-.438-5.9S238.923,78.39,240.676,80.644Z" transform="translate(-219.196 19.68)" fill="#f7b49e"/>
    <path id="Path_867" data-name="Path 867" d="M223.108,70.37a6.413,6.413,0,0,0-1.666.213,7.69,7.69,0,0,0-1.716.438l-1.791.8a13.6,13.6,0,0,0-2.955,2.029l-1.252.989a.25.25,0,0,0,0,.351.238.238,0,0,0,.313.063h0l1.34-.789a12.586,12.586,0,0,1,2.993-1.49l1.741-.551a6.337,6.337,0,0,1,1.44-.175,5.31,5.31,0,0,1,1.465,0,.98.98,0,0,0,.351-1.928h-.263Z" transform="translate(-176.094 17.745)" fill="#8f4446"/>
    <path id="Path_868" data-name="Path 868" d="M209.51,84.733s-.639-.1-.376.463,5.1,3.243,7.927,2.955v-.288a13.775,13.775,0,0,0,0-3.293C216.8,84.683,212.691,86,209.51,84.733Z" transform="translate(-163.335 21.34)" fill="#fbddde"/>
    <path id="Path_869" data-name="Path 869" d="M219.176,74.727h1.1a4.183,4.183,0,0,0-4.095-.8,5.01,5.01,0,0,0-1.828,1.252,4.358,4.358,0,0,0-1.014,1.853,12.085,12.085,0,0,1,3.243-1.866h.138a1.428,1.428,0,0,0-.2.6,1.6,1.6,0,0,0,3.181.25A1.465,1.465,0,0,0,219.176,74.727Z" transform="translate(-171.798 18.598)" fill="#8f4446"/>
    <path id="Path_870" data-name="Path 870" d="M202.1,327.46h21.2c.751,1.415,3.632,6.938,8.766,6.925h9.167c6.925,0,7.676,5.735,7.927,9.956l-29.428.1-2-1.7-1.4,1.716H202.175Z" transform="translate(-186.606 82.615)" fill="#17110a"/>
    <path id="Path_871" data-name="Path 871" d="M250.441,194.541l-10.093,80-6.449,93.6-32.058-2.78,15.841-89.062s-10.306-82.713-9.48-86.47Z" transform="translate(-187.56 47.892)" fill="#251d1a"/>
    <path id="Path_872" data-name="Path 872" d="M183.69,327.51h21.226c.726,1.428,3.594,6.963,8.691,6.963h9.179c6.925,0,7.664,5.748,7.9,10.018H201.247l-1.991-1.716-1.4,1.716H183.7Z" transform="translate(-145.079 82.628)" fill="#251d1a"/>
    <path id="Path_873" data-name="Path 873" d="M237.186,194.313l8.766,75.763L236.1,367.753H205.027l6.424-94.6-13.662-48.288c-7.376-8.49-6.124-26.761-5.66-30.568Z" transform="translate(-170.435 49.022)" fill="#2c2620"/>
    <path id="Path_874" data-name="Path 874" d="M155.331,57.1c-.551-3.268-2.755-6.374-5.7-6.412h0c-2.955,0-4.508,2.768-5.422,5.936a93.759,93.759,0,0,0-2.843,19.6c-.125,5.36.138,15.153,1.327,20.938.676,3.243,2.091,6.261,6.261,6.387,3.757,0,6.023-2.68,6.737-5.911,1.478-6.687,1.44-14.426,1.528-20.036A117.385,117.385,0,0,0,155.331,57.1Z" transform="translate(-18.579 12.792)" fill="#e8937c"/>
    <path id="Path_875" data-name="Path 875" d="M141.192,67.256s11.646-23.605,16.28-49.315L153.127,16s-15.616,28.427-21.664,46.848c0,0-1.039,4.921,2.943,6.725C137.8,71.1,141.192,67.256,141.192,67.256Z" transform="translate(-6.306 4.041)" fill="#e8937c"/>
    <path id="Path_876" data-name="Path 876" d="M130.292,23.093s7.363-6.7,7.151-20.124c0-1.077-.551-3.306-2.279-2.93-.877.188-1.615.814-2.868,2.818a35.639,35.639,0,0,0-2.88,6.261c0-2,0-5.109-1.252-4.946-1.916.238-.964,10.457-1.7,14.5a11.632,11.632,0,0,1-.614,2.7Z" transform="translate(20.599 0.004)" fill="#e8937c"/>
    <path id="Path_877" data-name="Path 877" d="M53.485,277.2s-.188-6.562-7.151-15.528L22.73,249.145,29.792,238,48,250.172l9.643,20.763S58.369,282.756,53.485,277.2Z" transform="translate(229.495 60.046)" fill="#f5a98d"/>
    <path id="Path_878" data-name="Path 878" d="M11,248.136s5.573,13.85,7.727,19.6a30.132,30.132,0,0,1,1.127,4.784c.426,2.267-1.753,3.757-3.068,2,0,0,.526,4.834-1.1,7.939-.488.927-.626,2.868.5,3.582.889.576,2.367.826,3.757-1.352,1.039-1.615,5.3-8.165,6.925-10.845,1.19-1.991.6-5.272-.827-8.44-1.954-4.345-6.211-11.859-6.211-11.859l14.4,9.142,1.127-1.728-8.127-5.184c-1.54-.964-3.043-6.1-7.125-8.691a7.013,7.013,0,0,0-9.1,1.052Z" transform="translate(266.508 62.032)" fill="#fbddde"/>
    <path id="Path_879" data-name="Path 879" d="M130.743,107.918h0a80.685,80.685,0,0,1,8.991-11.27,18.609,18.609,0,0,0,5.948-12.924c-.15-1.578-.088,0-.388-3.143A32.984,32.984,0,0,0,141.612,69.6l18.045-4.358s-1.352,4.646-.513,7.9c1.415,5.535,1.979,10.018,5.948,15.516,3.419,4.684,7,13.963,7.238,16.543l.075.564-41.526,3.882-.15-1.691Z" transform="translate(-20.476 16.463)" fill="#f5a98d"/>
    <path id="Path_880" data-name="Path 880" d="M136.8,60.486c.063,3.982-1.252,5.9-2.918,7.4-.7.626-.6,1.54.075,1.64,1.753.288,2.317,2.2,2.5,3.043.351,1.252,1.177,1.252,1.14,2.292,0,.426.664,1.252.538,1.528-.238.589-.526,1.252.175,1.515,0,0,1.077.589,1.014,3.444,0,2.5,3.256,3.757,6.625,2.68,2.079-.664,11.07-3.757,13.237-4.483a114.975,114.975,0,0,0,13.224-4.921,31.472,31.472,0,0,0,4.6-4.12c7.388-6.111,10.018-26.9-9.054-36.241-4.921-2.4-17.72-.288-25.346,3.945a12.523,12.523,0,0,0-6.7,9.279c-.939,4.521.3,9.242.764,11.847Z" transform="translate(-33.972 8.394)" fill="#f5a98d"/>
    <path id="Path_881" data-name="Path 881" d="M162.728,53.647a7.974,7.974,0,0,1,1.252-.689,8.766,8.766,0,0,1,3.093-.826,6.624,6.624,0,0,1,1.728,0,6.261,6.261,0,0,1,1.515.326l1.44.551h0a.263.263,0,0,0,.351-.15.276.276,0,0,0-.113-.338l-1.428-.827a6.487,6.487,0,0,0-1.59-.614,7.1,7.1,0,0,0-1.954-.363,10.256,10.256,0,0,0-3.757.388,8.9,8.9,0,0,0-1.665.626,1.089,1.089,0,1,0,1.1,1.866Z" transform="translate(-58.059 12.791)" fill="#b25a5a"/>
    <path id="Path_882" data-name="Path 882" d="M165.69,66.145a7.2,7.2,0,0,0,.726,2.617L170.5,66.12Z" transform="translate(-62.348 16.685)" fill="#fbddde"/>
    <path id="Path_883" data-name="Path 883" d="M165.245,64.7c.426-.125.776-.075,1.791.263a19,19,0,0,0,5.084.513c.363,0,.526.376.25.513a9.379,9.379,0,0,1-6.975.676s-1.1-.413-.914-1.177a.952.952,0,0,1,.764-.789Z" transform="translate(-62.817 16.312)" fill="#ee7677"/>
    <path id="Path_884" data-name="Path 884" d="M164.75,68.747c.276-.338.589-.5,1.615-.814a19.36,19.36,0,0,0,4.471-2.5c.276-.225.639,0,.488.276a9.254,9.254,0,0,1-5.335,4.546s-1.14.3-1.428-.426a.952.952,0,0,1,.188-1.077Z" transform="translate(-61.684 16.487)" fill="#ee7677"/>
    <path id="Path_885" data-name="Path 885" d="M156.34,65.065c.964,1.891,4.057,2.229,6.9.764s4.345-4.183,3.369-6.074-4.057-2.217-6.9-.751S155.363,63.187,156.34,65.065Z" transform="translate(-46.674 14.659)" fill="url(#radial-gradient)"/>
    <path id="Path_886" data-name="Path 886" d="M123.581,43.832c1.791-.238,5.9-3.556,6-3.632a19.361,19.361,0,0,1,4.283-2.943c20.324-10.456,34.375-.689,38.545,10.582a7.363,7.363,0,0,1,5.66,1.49,7.99,7.99,0,0,1,2.254,3.093A7.6,7.6,0,0,1,182.25,54.6a5.41,5.41,0,0,1,.714,2.68c1.252.551,3.043,1.929,3.669,5.322.964,5.272-1.615,7.363-3.92,8.177A8.014,8.014,0,0,1,181,73.661a6.1,6.1,0,0,1-1.778,1.252,5.122,5.122,0,0,1-5.072,3.381,9.455,9.455,0,0,1-8.766-5.009,9.116,9.116,0,0,1-1,.551,12.271,12.271,0,0,0,.952,1.252,9.73,9.73,0,0,0,1.979,1.565,10.082,10.082,0,0,1-2.329-1.152,10.308,10.308,0,0,1-1.09-.864c.063.163.15.338.225.5a15.2,15.2,0,0,0,1.14,1.741,16.93,16.93,0,0,0,3.218,3.056,16.993,16.993,0,0,1-3.619-2.692,15.327,15.327,0,0,1-1.478-1.766,10.181,10.181,0,0,1-.751-1.252,8.065,8.065,0,0,1-5.385-5.36,22.14,22.14,0,0,1-.438-9.054c-5.122.751-10.619,1.941-15.829-5.009-3.757-4.934-8.152-10.632-12.172-7.927a6.184,6.184,0,0,1-1.039.564h0C122.93,49.63,121.753,44.058,123.581,43.832Zm59.208,13.337a5.072,5.072,0,0,0-1.014-2.329,6.64,6.64,0,0,0-.839-.839,21.054,21.054,0,0,1,.726,2.843A5.009,5.009,0,0,1,182.789,57.169Zm-2.567,15.954a7.062,7.062,0,0,0,.564-1.878,8.08,8.08,0,0,1-1.252.088,8.379,8.379,0,0,1-.188,3.043A5.423,5.423,0,0,0,180.221,73.123Z" transform="translate(-24.935 8.28)" fill="#8f4446"/>
    <path id="Path_887" data-name="Path 887" d="M131.429,45.5c0-.213.576-.451,1.352-.526h.413c-.113-.063-.213-.15-.338-.238-.589-.5-.964-1.027-.826-1.252s.739.088,1.34.576a3.33,3.33,0,0,1,.3.288v-.413c-.075-.764,0-1.415.276-1.428s.451.589.526,1.352v.413l.25-.326c.488-.6,1.027-.964,1.252-.827s-.088.739-.576,1.34a3.339,3.339,0,0,1-.288.3h.413c.776-.063,1.4,0,1.44.275s-.589.451-1.365.526h-.413l.338.238c.576.5.952,1.039.814,1.252s-.739-.1-1.34-.6a3.132,3.132,0,0,1-.3-.276,2.2,2.2,0,0,1,0,.413c.075.776,0,1.415-.263,1.44s-.451-.589-.526-1.365v-.413a3.314,3.314,0,0,1-.263.326c-.488.6-1.027.977-1.252.826s.1-.739.6-1.34l.263-.3h-.4C132.08,45.841,131.441,45.728,131.429,45.5Z" transform="translate(14.09 10.729)" fill="#fbddde"/>
    <path id="Path_888" data-name="Path 888" d="M133.049,50.743c-.138-.163.2-.664.739-1.115l.3-.238h-.376c-.714,0-1.252-.263-1.252-.463s.6-.326,1.252-.275h.376c-.088-.088-.163-.188-.25-.288-.463-.538-.714-1.077-.564-1.252s.664.188,1.115.726l.238.3v-.376c0-.714.263-1.252.463-1.252s.326.614.263,1.327a3.232,3.232,0,0,1,0,.363c.075-.088.175-.163.276-.263.526-.451,1.077-.7,1.252-.551s-.2.651-.751,1.115a2.636,2.636,0,0,1-.288.238h.388c.689,0,1.252.263,1.252.476s-.614.326-1.327.263h-.363a1.339,1.339,0,0,1,.25.275c.463.526.714,1.077.564,1.252s-.651-.2-1.115-.739a2.255,2.255,0,0,1-.238-.3v.376c0,.714-.263,1.252-.463,1.252s-.313-.614-.275-1.315V49.9l-.263.25C133.787,50.643,133.249,50.88,133.049,50.743Z" transform="translate(12.282 11.738)" fill="#fbddde"/>
    <path id="Path_889" data-name="Path 889" d="M130.121,48.7c-.088-.113.163-.488.564-.839l.225-.163h-.25c-.526,0-.952-.2-.939-.351s.451-.238.989-.2h.275l-.188-.213c-.363-.4-.538-.8-.426-.914s.488.15.839.551a1.663,1.663,0,0,1,.175.238,2.115,2.115,0,0,1,0-.288c0-.538.188-.952.338-.939s.25.451.213.977a1.964,1.964,0,0,1,0,.288l.213-.2c.4-.338.827-.526.914-.413s-.138.488-.551.826c-.075.075-.15.125-.225.188h.276c.538,0,.952.2.952.351s-.451.238-.989.213h-.275l.188.213c.338.4.538.814.413.914s-.476-.15-.826-.564a1.25,1.25,0,0,1-.175-.213,2.039,2.039,0,0,1,0,.276c0,.526-.2.952-.351.952s-.238-.463-.2-.989a2.279,2.279,0,0,1,0-.288l-.2.2C130.66,48.611,130.234,48.811,130.121,48.7Z" transform="translate(19.68 11.503)" fill="#fbddde"/>
    <path id="Path_890" data-name="Path 890" d="M135.278,48.44c-.125-.15.188-.614.689-1.052l.275-.213H135.9c-.676-.063-1.252-.25-1.19-.438s.564-.3,1.252-.25h.351a1.677,1.677,0,0,1-.25-.263c-.426-.5-.664-1.014-.513-1.14s.6.188,1.039.7a2.4,2.4,0,0,1,.225.275,1.819,1.819,0,0,1,0-.363c0-.664.25-1.19.438-1.177s.3.576.25,1.252a3.376,3.376,0,0,1,0,.351,2.38,2.38,0,0,1,.263-.238c.5-.438,1.014-.676,1.14-.526s-.175.614-.689,1.052l-.288.213h.363c.664,0,1.19.25,1.177.438s-.564.3-1.252.25h-.351l.25.263c.438.513.676,1.027.513,1.152s-.6-.2-1.039-.7a2.5,2.5,0,0,1-.225-.288,3.533,3.533,0,0,1,0,.363c0,.664-.25,1.252-.451,1.252s-.3-.576-.238-1.252a1.5,1.5,0,0,1,0-.351,2.5,2.5,0,0,1-.263.238C135.917,48.352,135.353,48.59,135.278,48.44Z" transform="translate(7.473 11.236)" fill="#fbddde"/>
    <path id="Path_891" data-name="Path 891" d="M135.512,44.935c-.088-.113.138-.451.513-.764a1.141,1.141,0,0,1,.2-.163h-.25c-.5,0-.889-.175-.864-.326s.4-.213.9-.175h.25a.839.839,0,0,1-.175-.188c-.326-.376-.488-.739-.388-.839s.451.138.764.513l.163.2v-.25c0-.488.188-.877.338-.864s.213.413.175.9v.25l.188-.175c.376-.313.751-.488.839-.376s-.138.451-.5.764l-.213.163h.263c.476,0,.864.188.864.326s-.426.225-.9.175h-.263l.188.188c.313.376.476.739.376.839s-.451-.138-.764-.513a2.3,2.3,0,0,1-.163-.2v.25c0,.488-.188.877-.326.864s-.225-.413-.188-.9a1.874,1.874,0,0,0,0-.25,2.323,2.323,0,0,1-.175.175C135.975,44.86,135.6,45.035,135.512,44.935Z" transform="translate(7.865 10.62)" fill="#fbddde"/>
    <path id="Path_892" data-name="Path 892" d="M130.146,45.826c-.1-.125.15-.5.564-.852l.225-.175h-.263c-.551,0-.964-.188-.952-.351s.451-.25.989-.2H131a1.616,1.616,0,0,1-.2-.213c-.351-.4-.539-.814-.426-.914s.5.15.839.551c.075.075.125.15.188.225v-.288c0-.526.2-.964.351-.939s.25.451.2.989a2.054,2.054,0,0,1,0,.275l.2-.188c.426-.351.826-.538.939-.426s-.163.488-.564.852l-.225.175h.276c.538,0,.964.2.952.363s-.451.238-.989.2h-.276l.188.2c.351.413.538.826.413.927s-.488-.15-.839-.564a2.619,2.619,0,0,1-.175-.213,2.133,2.133,0,0,1,0,.275c0,.538-.188.964-.338.952s-.25-.451-.213-.989v-.288l-.2.2C130.672,45.751,130.246,45.939,130.146,45.826Z" transform="translate(19.668 10.769)" fill="#fbddde"/>
    <path id="Path_893" data-name="Path 893" d="M145.848,55.168c-1.252,2-1.052,4.345.4,5.222s3.594,0,4.809-2.041,1.052-4.345-.388-5.222S147.075,53.165,145.848,55.168Z" transform="translate(-17.836 13.323)" fill="#f5a98d"/>
    <path id="Path_894" data-name="Path 894" d="M147.08,58.908a1.365,1.365,0,1,0,.319-1A1.352,1.352,0,0,0,147.08,58.908Z" transform="translate(-18.317 14.492)" fill="#fbddde"/>
    <path id="Path_895" data-name="Path 895" d="M158.29,90.571a1.127,1.127,0,0,1-1.039,1.252A1.14,1.14,0,0,1,156,90.783a1.165,1.165,0,0,1,1.039-1.252,1.139,1.139,0,0,1,1.252,1.039Z" transform="translate(-38.005 22.59)" fill="#fbddde"/>
    <path id="Path_896" data-name="Path 896" d="M156.5,90.2a1.152,1.152,0,1,1-1.247-.986A1.152,1.152,0,0,1,156.5,90.2Z" transform="translate(-33.99 22.51)" fill="#fbddde"/>
    <path id="Path_897" data-name="Path 897" d="M154.727,89.583a1.177,1.177,0,0,1-1.039,1.252,1.158,1.158,0,0,1-.225-2.3,1.177,1.177,0,0,1,1.265,1.052Z" transform="translate(-29.959 22.338)" fill="#fbddde"/>
    <path id="Path_898" data-name="Path 898" d="M153.034,88.923a1.14,1.14,0,1,1-1.252-1.052,1.152,1.152,0,0,1,1.252,1.052Z" transform="translate(-26.187 22.171)" fill="#fbddde"/>
    <path id="Path_899" data-name="Path 899" d="M151.345,88.211a1.152,1.152,0,1,1-1.252-1.039,1.14,1.14,0,0,1,1.252,1.039Z" transform="translate(-22.357 21.994)" fill="#fbddde"/>
    <path id="Path_900" data-name="Path 900" d="M149.7,87.331a1.157,1.157,0,1,1-2.3.213,1.127,1.127,0,0,1,1.039-1.252,1.14,1.14,0,0,1,1.265,1.039Z" transform="translate(-18.63 21.772)" fill="#fbddde"/>
    <path id="Path_901" data-name="Path 901" d="M148.3,86.311a1.177,1.177,0,0,1-1.039,1.252,1.152,1.152,0,1,1,1.039-1.252Z" transform="translate(-15.489 21.515)" fill="#fbddde"/>
    <path id="Path_902" data-name="Path 902" d="M146.82,85.29a1.152,1.152,0,0,1-1.027,1.252,1.165,1.165,0,0,1-1.252-1.039,1.152,1.152,0,0,1,2.292-.213Z" transform="translate(-12.197 21.271)" fill="#fbddde"/>
    <path id="Path_903" data-name="Path 903" d="M145.445,84.21a1.152,1.152,0,1,1-1.252-1.039,1.165,1.165,0,0,1,1.252,1.039Z" transform="translate(-9.068 20.986)" fill="#fbddde"/>
    <path id="Path_904" data-name="Path 904" d="M144.3,82.861a1.152,1.152,0,1,1-1.252-1.039,1.127,1.127,0,0,1,1.252,1.039Z" transform="translate(-6.478 20.644)" fill="#fbddde"/>
    <path id="Path_905" data-name="Path 905" d="M143.1,81.67a1.152,1.152,0,1,1-1.252-1.039A1.177,1.177,0,0,1,143.1,81.67Z" transform="translate(-3.776 20.345)" fill="#fbddde"/>
    <path id="Path_906" data-name="Path 906" d="M141.776,80.511a1.152,1.152,0,1,1-2.292.213,1.165,1.165,0,0,1,1.039-1.252,1.14,1.14,0,0,1,1.252,1.039Z" transform="translate(-0.816 20.052)" fill="#fbddde"/>
    <path id="Path_907" data-name="Path 907" d="M140.605,79.13a1.152,1.152,0,1,1-1.252-1.039,1.152,1.152,0,0,1,1.252,1.039Z" transform="translate(1.833 19.704)" fill="#fbddde"/>
    <path id="Path_908" data-name="Path 908" d="M172.024,157.914l-25.784,2.5-7.964-42.264c-11.659-6.712-8.879-17.883-8.879-17.883l42.139-3.932A51.343,51.343,0,0,1,172.95,117.7C168.6,144.49,169.957,155.685,172.024,157.914Z" transform="translate(-19.517 24.309)" fill="#fbddde"/>
    <path id="Path_909" data-name="Path 909" d="M146.643,86.071c-3.193-.864-6.938-.188-8.227,2.5h0c-1.252,2.667.639,5.26,3.131,7.426a94.171,94.171,0,0,0,16.593,10.807c4.809,2.354,13.775,6.261,19.561,7.589,3.218.751,6.612.751,8.415-2.993,1.615-3.344.1-6.6-2.5-8.6-5.435-4.133-12.523-7.363-17.532-9.818A116.862,116.862,0,0,0,146.643,86.071Z" transform="translate(-43.978 21.629)" fill="#e8937c"/>
    <path id="Path_910" data-name="Path 910" d="M196.889,97.794s-8.766-24.82-23.881-46.084L168.6,53.4s9.392,31.044,18.321,48.263c0,0,2.793,4.17,6.875,2.6C197.277,102.928,196.889,97.794,196.889,97.794Z" transform="translate(-92.395 13.05)" fill="#e8937c"/>
    <path id="Path_911" data-name="Path 911" d="M196.855,59.591s-8.328-5.46-10.206-18.784c-.163-1.077,0-3.356,1.791-3.256.877.063,1.7.551,3.268,2.342a35.9,35.9,0,0,1,3.832,5.76c-.326-1.979-.827-5.009.426-5.084,1.928,0,2.58,10.181,3.957,14.051a11.383,11.383,0,0,0,1.014,2.592Z" transform="translate(-118.972 9.477)" fill="#e8937c"/>
    <path id="Path_912" data-name="Path 912" d="M96.142,322.931s2.793-5.936.639-17.081L81.39,283.985l11.371-6.675,10.206,18.859-.25,23.1S98,330.093,96.142,322.931Z" transform="translate(110.751 69.963)" fill="#f5a98d"/>
    <path id="Path_913" data-name="Path 913" d="M81.372,292.579s-1.252,14.852-1.966,20.976a30.3,30.3,0,0,1-1.165,4.771c-.626,2.217-3.268,2.6-3.632.4,0,0-1.716,4.558-4.558,6.587-.864.6-1.866,2.279-1.252,3.431.551.9,1.741,1.8,3.97.476,1.653-.977,8.4-4.9,11.058-6.549,1.979-1.252,2.918-4.433,3.093-7.9.225-4.721-.15-13.412-.15-13.412l8.766,14.689,1.741-1.039s-3.619-6.1-4.909-8.29c-.939-1.578,0-6.825-2.429-10.982A7.013,7.013,0,0,0,81.372,292.579Z" transform="translate(132.446 73.704)" fill="#fbddde"/>
    <path id="Path_914" data-name="Path 914" d="M7.13,148.29s-31.507,108.2,37.944,184.473c0,0,28.151-.538,66.371-20.713,25.346-13.324,69.176-44.944,84.779-73.308,0,0-25.046,6.261-38.157-10.832a276.262,276.262,0,0,0-56.7-54.549c-23.192-16.58-49.29-28.1-68.111-28.051Z" transform="translate(119.416 36.663)" fill="#fbddde"/>
    <path id="Path_915" data-name="Path 915" d="M161.59,56.76c.276-1.7,1.641-3.331,4.684-3.106a4.458,4.458,0,0,1,3.644,4.2,14.689,14.689,0,0,0-4.082-1.54A8.428,8.428,0,0,0,161.59,56.76Z" transform="translate(-56.633 13.535)" fill="#e88175"/>
    <path id="Path_916" data-name="Path 916" d="M170.549,56.656a3.97,3.97,0,0,1-3.068-.488,5.685,5.685,0,0,0-2.617-1.14,5.573,5.573,0,0,0-4.633,1.628c.4-.1.776-.15,1.165-.238a1.465,1.465,0,0,0-.338.852,1.578,1.578,0,0,0,3.143.138,1.478,1.478,0,0,0-.564-1.252,7.9,7.9,0,0,1,1.089,0,10.018,10.018,0,0,1,4.17,1.666,4.306,4.306,0,0,0-.526-.814A3.544,3.544,0,0,0,170.549,56.656Z" transform="translate(-55.561 13.877)" fill="#8f4446"/>
    <path id="Path_917" data-name="Path 917" d="M219.04,94.05,247,101.789l-1.954,6.574-24.833-7.789Z" transform="translate(-205.662 23.731)" fill="#fbddde"/>
    <path id="Path_918" data-name="Path 918" d="M203.195,173.58c-1.928-10.557-7.088-38.958-8.6-47.261-2.342-12.861,5.4-27,5.4-27l24.958,7.639s9.931,9.918,11.872,20.587c4.233,23.317,21.151,91.88,21.151,91.88-4.345,1.252-45.257,11.17-55.463,6.5C202.506,225.925,205.912,188.52,203.195,173.58Z" transform="translate(-185.459 25.061)" fill="#2b221c"/>
    <path id="Path_919" data-name="Path 919" d="M207,103.866l.889-7.626,25.834,11.5a43.279,43.279,0,0,1,12.961,26.072l3.97,22.24-18.171-34.663,3.031-4.258-5.009,1.691Z" transform="translate(-194.236 24.284)" fill="#362c28"/>
    <path id="Path_920" data-name="Path 920" d="M198.112,126.582c1.615,3.757.726,3.168,5.4,8.766,15.679,18.784,46.272,33.085,46.272,33.085l1.29-20.825s-25.309-24.945-43.755-31.708C201.142,113.671,194.267,117.816,198.112,126.582Z" transform="translate(-182.129 29.093)" fill="#362c28"/>
    <path id="Path_921" data-name="Path 921" d="M137.632,133.96s13.562-1.453,19.761-11.27c.977-1.528-2.191-6.086-4.4-6.261-2.7-.163-5.71,2.367-7.864,2.955-.877.238-.689-1.252.088-1.791s1.34-1.165,1.19-1.665c-.338-1.115-2.429-.526-3.895,0-2.667.939-8.328,6.261-10.381,9.53Z" transform="translate(-7.404 29.091)" fill="#f7b49e"/>
    <path id="Path_922" data-name="Path 922" d="M153.379,136.539l5.6-3.381-7.464-12.3-5.573,3.394Z" transform="translate(-26.093 30.495)" fill="#fbddde"/>
    <path id="Path_923" data-name="Path 923" d="M148.14,146.607l61-24.607,8.766,13.537c0,.326-62.852,30.055-62.852,30.055C147.564,167.783,148.14,146.607,148.14,146.607Z" transform="translate(-87.764 30.782)" fill="#362c28"/>
  </g>
</svg>
