<svg xmlns="http://www.w3.org/2000/svg" xmlns:xlink="http://www.w3.org/1999/xlink" viewBox="0 0 252.09 341.03"><defs><style>.cls-1{fill:#2b221c;}.cls-2{fill:#f7b49e;}.cls-3{fill:#fbddde;}.cls-4{fill:#6e262e;}.cls-5{fill:#8f4446;}.cls-6{fill:#17110a;}.cls-7{fill:#251d1a;}.cls-8{fill:#2c2620;}.cls-9{fill:#e8937c;}.cls-10{fill:#f5a98d;}.cls-11{fill:#b25a5a;}.cls-12{fill:#ee7677;}.cls-13{fill:url(#radial-gradient);}.cls-14{fill:#e88175;}.cls-15{fill:#362c28;}</style><radialGradient id="radial-gradient" cx="684.36" cy="-79.12" r="3.92" gradientTransform="translate(-528.38 76.75) rotate(5.33)" gradientUnits="userSpaceOnUse"><stop offset="0" stop-color="#f29183"/><stop offset="1" stop-color="#f5a98d"/></radialGradient></defs><title>Together since</title><g id="Layer_2" data-name="Layer 2"><g id="Capa_1" data-name="Capa 1"><path class="cls-1" d="M231.88,126c-3.23.22-7.24-.45-12.92-1.69-19.12-4.14-37.84-20.06-37.84-20.06L196,94.78a268.81,268.81,0,0,1,28.69,12.64,67.93,67.93,0,0,1,11.3,8.12C240,119,239.51,125.52,231.88,126Z"/><path class="cls-2" d="M155.57,67.83s-10.94-6.64-10.5-13.4c.16-2.54,2-4.29,3.66-3.68a26.59,26.59,0,0,1,6.09,4.06c.56.45.89-.65.52-1.33s-.59-1.29-.32-1.61c.61-.7,1.93.41,2.84,1.27,1.63,1.54,4,7.26,4.47,10.33Z"/><rect class="cls-3" x="153.9" y="63.66" width="11.48" height="5.22" transform="translate(-9.37 102.49) rotate(-34.64)"/><path class="cls-1" d="M196.45,95s-23.08-23.46-31.07-31.78l-10.77,7c-.15.23,26.7,34.32,26.7,34.32C181.66,105,196.45,95,196.45,95Z"/><path class="cls-2" d="M207.77,78.79a9.75,9.75,0,0,0,2.16-2.06c.52-.62,1.09-1.36,1.84-2.3a4.48,4.48,0,0,0,.17-1c.19-2,.11-5.81,1.81-8.92-.13-4.13,3.44-7.21,4.48-7.77,12.12-6.51,24.58,1.63,25.58,2.29,0,0,9,4.75,7.3,14.11-1.51,8.31-5.23,14.68-9.61,16.88a31,31,0,0,0-.92,5.45c-.39,3-.69,16.43-.69,16.43L220,108.3c1.44-2.23,0-11.8-1.41-13-.59-.5-4.48-1-4.83-1-2.78.1-5-1.56-4.46-3.46a5.27,5.27,0,0,0,.27-1.62c-.14-.66-.54-.86-.7-1.37-.07-.23.08-.34.31-.39a14.77,14.77,0,0,1-.06-2.91c-.55-.21-.48-.61-.31-.84a5,5,0,0,0,.44-1.15c.13-.79.36-1.94-.78-2.15C206.34,80,207.24,79.15,207.77,78.79Z"/><path class="cls-4" d="M244.3,58.68c.08-1.27,1.53-1.11,1.53-1.11-1.12-.61-3,.33-3,.33.52-1.18-1-3.09-1-3.09a1.76,1.76,0,0,1-.42,2.33c-6.54-5.39-16.75-5.91-23.68-.84a28.56,28.56,0,0,0-3.72,4.49,12.37,12.37,0,0,0-.65,1.08,5.15,5.15,0,0,1-2.15-2.11s-.88,5.89,3.2,6.7c2.35.65,5.72-.63,8.64-1.25,5.52-1.19,8,1.57,8.06,5.92,0,3.06-.08,3.84-.11,7.84,0,1.5,0,1.92-.06,4.07,0,.63.85.58,1.54.71.9.16,1-.9,1.09-1.2a5.65,5.65,0,0,1,4-4.06c1.51-.37,2,.23,2.38,1,1,1.73-.82,3.29-2.95,5.65-1.58,1.75,2.13,5.19,4.3,5.59,1.58.28,9-9,10.52-17.38C253.63,63.6,244.3,58.68,244.3,58.68Z"/><path class="cls-2" d="M234.9,80.11c-1.41,1.8-1.57,3.9-.35,4.7s3.33,0,4.73-1.8,1.57-3.91.35-4.71S236.3,78.31,234.9,80.11Z"/><path class="cls-5" d="M214.51,70.36a5.12,5.12,0,0,1,1.33.17,6.14,6.14,0,0,1,1.37.35l1.43.64A10.86,10.86,0,0,1,221,73.14l1,.79a.2.2,0,0,1,0,.28.19.19,0,0,1-.25.05l0,0-1.07-.63a10.05,10.05,0,0,0-2.39-1.19L216.9,72a5.06,5.06,0,0,0-1.15-.14,4.24,4.24,0,0,0-1.17,0,.78.78,0,1,1-.28-1.54h.21Z"/><path class="cls-3" d="M215.18,84.7s.51-.08.3.37-4.07,2.59-6.33,2.36l0-.23a11,11,0,0,1,0-2.63C209.36,84.66,212.64,85.71,215.18,84.7Z"/><path class="cls-5" d="M214.22,74.52h-.88a3.34,3.34,0,0,1,3.27-.64,4,4,0,0,1,1.46,1,3.48,3.48,0,0,1,.81,1.48,9.65,9.65,0,0,0-2.59-1.49l-.11,0a1.14,1.14,0,0,1,.16.48,1.28,1.28,0,0,1-2.54.2A1.17,1.17,0,0,1,214.22,74.52Z"/><path class="cls-6" d="M239.68,327.46l-16.93,0c-.6,1.13-2.9,5.54-7,5.53l-7.32,0c-5.53,0-6.13,4.58-6.33,7.95l23.5.08,1.6-1.36,1.12,1.37,11.3,0Z"/><path class="cls-7" d="M201.84,193.59l8.06,63.88,5.15,74.74,25.6-2.22L228,258.87s8.23-66.05,7.57-69.05Z"/><path class="cls-7" d="M221.22,327.51H204.27c-.58,1.14-2.87,5.56-6.94,5.56H190c-5.53,0-6.12,4.59-6.31,8h23.51l1.59-1.37,1.12,1.37h11.3Z"/><path class="cls-8" d="M198.75,194.31l-7,60.5,7.87,78h24.81l-5.13-75.54,10.91-38.56c5.89-6.78,4.89-21.37,4.52-24.41Z"/><path class="cls-9" d="M142.85,55.81c.44-2.61,2.2-5.09,4.55-5.12h0c2.36,0,3.6,2.21,4.33,4.74A74.87,74.87,0,0,1,154,71.08c.1,4.28-.11,12.1-1.06,16.72-.54,2.59-1.67,5-5,5.1-3,0-4.81-2.14-5.38-4.72-1.18-5.34-1.15-11.52-1.22-16A93.74,93.74,0,0,1,142.85,55.81Z"/><path class="cls-9" d="M144.34,56.93s-9.3-18.85-13-39.38L134.81,16s12.47,22.7,17.3,37.41c0,0,.83,3.93-2.35,5.37C147.05,60,144.34,56.93,144.34,56.93Z"/><path class="cls-9" d="M131.56,18.44s-5.88-5.35-5.71-16.07c0-.86.44-2.64,1.82-2.34.7.15,1.29.65,2.29,2.25a28.46,28.46,0,0,1,2.3,5c0-1.6,0-4.08,1-3.95,1.53.19.77,8.35,1.36,11.58a9.29,9.29,0,0,0,.49,2.16Z"/><path class="cls-10" d="M26.08,269.3s.15-5.24,5.71-12.4l18.85-10L45,238l-14.54,9.72-7.7,16.58S22.18,273.74,26.08,269.3Z"/><path class="cls-3" d="M30.45,247.68S26,258.74,24.28,263.33a24.06,24.06,0,0,0-.9,3.82c-.34,1.81,1.4,3,2.45,1.6,0,0-.42,3.86.88,6.34.39.74.5,2.29-.4,2.86-.71.46-1.89.66-3-1.08-.83-1.29-4.23-6.52-5.53-8.66-.95-1.59-.48-4.21.66-6.74C20,258,23.4,252,23.4,252L11.9,259.3,11,257.92l6.49-4.14c1.23-.77,2.43-4.87,5.69-6.94A5.6,5.6,0,0,1,30.45,247.68Z"/><path class="cls-10" d="M164,99.32h0a64.43,64.43,0,0,0-7.18-9A14.86,14.86,0,0,1,152.07,80c.12-1.26.07,0,.31-2.51a26.34,26.34,0,0,1,2.94-8.77l-14.41-3.48s1.08,3.71.41,6.31c-1.13,4.42-1.58,8-4.75,12.39-2.73,3.74-5.59,11.15-5.78,13.21l-.06.45,33.16,3.1.12-1.35Z"/><path class="cls-10" d="M169.94,55c-.05,3.18,1,4.71,2.33,5.91.56.5.48,1.23-.06,1.31-1.4.23-1.85,1.76-2,2.43-.28,1-.94,1-.91,1.83,0,.34-.53,1-.43,1.22.19.47.42,1-.14,1.21,0,0-.86.47-.81,2.75,0,2-2.6,3-5.29,2.14-1.66-.53-8.84-3-10.57-3.58a91.81,91.81,0,0,1-10.56-3.93A25.13,25.13,0,0,1,137.83,63c-5.9-4.88-8-21.48,7.23-28.94,3.93-1.92,14.15-.23,20.24,3.15a10,10,0,0,1,5.35,7.41c.75,3.61-.24,7.38-.61,9.46Z"/><path class="cls-11" d="M168.47,53.05a6.37,6.37,0,0,0-1-.55,7,7,0,0,0-2.47-.66,5.29,5.29,0,0,0-1.38,0,5,5,0,0,0-1.21.26l-1.15.44h0a.21.21,0,0,1-.28-.12.22.22,0,0,1,.09-.27l1.14-.66a5.18,5.18,0,0,1,1.27-.49,5.67,5.67,0,0,1,1.56-.29,8.19,8.19,0,0,1,3,.31,7.11,7.11,0,0,1,1.33.5.87.87,0,1,1-.88,1.49Z"/><path class="cls-3" d="M169.53,66.14a5.75,5.75,0,0,1-.58,2.09l-3.26-2.11Z"/><path class="cls-12" d="M170.26,64.69c-.34-.1-.62-.06-1.43.21a15.17,15.17,0,0,1-4.06.41c-.29,0-.42.3-.2.41a7.49,7.49,0,0,0,5.57.54s.88-.33.73-.94A.76.76,0,0,0,170.26,64.69Z"/><path class="cls-12" d="M169.75,68.06c-.22-.27-.47-.4-1.29-.65a15.46,15.46,0,0,1-3.57-2c-.22-.18-.51,0-.39.22a7.39,7.39,0,0,0,4.26,3.63s.91.24,1.14-.34A.76.76,0,0,0,169.75,68.06Z"/><path class="cls-13" d="M164.48,63.66c-.77,1.51-3.24,1.78-5.51.61s-3.47-3.34-2.69-4.85,3.24-1.77,5.51-.6S165.26,62.16,164.48,63.66Z"/><path class="cls-5" d="M173.28,41.61c-1.43-.19-4.71-2.84-4.79-2.9a15.46,15.46,0,0,0-3.42-2.35c-16.23-8.35-27.45-.55-30.78,8.45A5.88,5.88,0,0,0,129.77,46a6.38,6.38,0,0,0-1.8,2.47,6.07,6.07,0,0,0-1.54,1.74,4.32,4.32,0,0,0-.57,2.14c-1,.44-2.43,1.54-2.93,4.25-.77,4.21,1.29,5.88,3.13,6.53a6.4,6.4,0,0,0,1.37,2.3,4.87,4.87,0,0,0,1.42,1,4.09,4.09,0,0,0,4.05,2.7,7.55,7.55,0,0,0,7-4,7.28,7.28,0,0,0,.8.44,9.8,9.8,0,0,1-.76,1,7.77,7.77,0,0,1-1.58,1.25,8.05,8.05,0,0,0,1.86-.92,8.23,8.23,0,0,0,.87-.69c-.05.13-.12.27-.18.4A12.14,12.14,0,0,1,140,68a13.52,13.52,0,0,1-2.57,2.44,13.57,13.57,0,0,0,2.89-2.15,12.24,12.24,0,0,0,1.18-1.41,8.13,8.13,0,0,0,.6-1,6.44,6.44,0,0,0,4.3-4.28,17.68,17.68,0,0,0,.35-7.23c4.09.6,8.48,1.55,12.64-4,3-3.94,6.51-8.49,9.72-6.33a4.94,4.94,0,0,0,.83.45l0,0C173.8,46.24,174.74,41.79,173.28,41.61ZM126,52.26a4.05,4.05,0,0,1,.81-1.86,5.3,5.3,0,0,1,.67-.67A16.81,16.81,0,0,0,126.9,52,4,4,0,0,0,126,52.26ZM128.05,65a5.64,5.64,0,0,1-.45-1.5,6.45,6.45,0,0,0,1,.07,6.69,6.69,0,0,0,.15,2.43A4.33,4.33,0,0,1,128.05,65Z"/><path class="cls-3" d="M135.85,44.9c0-.17-.46-.36-1.08-.42l-.33,0c.09-.05.17-.12.27-.19.47-.4.77-.82.66-1s-.59.07-1.07.46a2.66,2.66,0,0,0-.24.23c0-.1,0-.21,0-.33.06-.61,0-1.13-.22-1.14s-.36.47-.42,1.08c0,.12,0,.22,0,.33l-.2-.26c-.39-.48-.82-.77-1-.66s.07.59.46,1.07a2.66,2.66,0,0,0,.23.24l-.33,0c-.62-.05-1.12,0-1.15.22s.47.36,1.09.42l.33,0-.27.19c-.46.4-.76.83-.65,1s.59-.08,1.07-.48a2.5,2.5,0,0,0,.24-.22,1.75,1.75,0,0,0,0,.33c-.06.62,0,1.13.21,1.15s.36-.47.42-1.09c0-.12,0-.22,0-.33a2.65,2.65,0,0,0,.21.26c.39.48.82.78,1,.66s-.08-.59-.48-1.07l-.21-.24.32,0C135.33,45.17,135.84,45.08,135.85,44.9Z"/><path class="cls-3" d="M136,49.89c.11-.13-.16-.53-.59-.89l-.24-.19h.3c.57,0,1-.21,1-.37s-.48-.26-1-.22l-.3,0c.07-.07.13-.15.2-.23.37-.43.57-.86.45-1s-.53.15-.89.58l-.19.24c0-.1,0-.2,0-.3,0-.57-.21-1-.37-1s-.26.49-.21,1.06a2.58,2.58,0,0,0,0,.29c-.06-.07-.14-.13-.22-.21-.42-.36-.86-.56-1-.44s.16.52.6.89a2.11,2.11,0,0,0,.23.19h-.31c-.55,0-1,.21-1,.38s.49.26,1.06.21l.29,0a1.07,1.07,0,0,0-.2.22c-.37.42-.57.86-.45,1s.52-.16.89-.59a1.8,1.8,0,0,0,.19-.24c0,.1,0,.19,0,.3,0,.57.21,1,.37,1s.25-.49.22-1.05c0-.11,0-.21,0-.3l.21.2C135.41,49.81,135.84,50,136,49.89Z"/><path class="cls-3" d="M132.43,48.07c.07-.09-.13-.39-.45-.67l-.18-.13H132c.42,0,.76-.16.75-.28s-.36-.19-.79-.16l-.22,0,.15-.17c.29-.32.43-.64.34-.73s-.39.12-.67.44a1.33,1.33,0,0,0-.14.19,1.69,1.69,0,0,0,0-.23c0-.43-.15-.76-.27-.75s-.2.36-.17.78a1.57,1.57,0,0,0,0,.23l-.17-.16c-.32-.27-.66-.42-.73-.33s.11.39.44.66c.06.06.12.1.18.15h-.22c-.43,0-.76.16-.76.28s.36.19.79.17l.22,0-.15.17c-.27.32-.43.65-.33.73s.38-.12.66-.45a1,1,0,0,0,.14-.17,1.62,1.62,0,0,0,0,.22c0,.42.16.76.28.76s.19-.37.16-.79a1.81,1.81,0,0,0,0-.23l.16.16C132,48,132.34,48.16,132.43,48.07Z"/><path class="cls-3" d="M138.06,47.65c.1-.12-.15-.49-.55-.84l-.22-.17h.27c.54-.05,1-.2.95-.35s-.45-.24-1-.2l-.28,0a1.34,1.34,0,0,0,.2-.21c.34-.4.53-.81.41-.91s-.48.15-.83.56a1.92,1.92,0,0,0-.18.22,1.45,1.45,0,0,0,0-.29c0-.53-.2-.95-.35-.94s-.24.46-.2,1a2.7,2.7,0,0,0,0,.28,1.9,1.9,0,0,0-.21-.19c-.4-.35-.81-.54-.91-.42s.14.49.55.84l.23.17h-.29c-.53,0-.95.2-.94.35s.45.24,1,.2l.28,0-.2.21c-.35.41-.54.82-.41.92s.48-.16.83-.56a2,2,0,0,0,.18-.23,2.81,2.81,0,0,0,0,.29c0,.53.2,1,.36,1s.24-.46.19-1a1.2,1.2,0,0,0,0-.28,2,2,0,0,0,.21.19C137.55,47.58,138,47.77,138.06,47.65Z"/><path class="cls-3" d="M137.56,44.36c.07-.09-.11-.36-.41-.61a.91.91,0,0,0-.16-.13h.2c.4,0,.71-.14.69-.26s-.32-.17-.72-.14l-.2,0a.67.67,0,0,0,.14-.15c.26-.3.39-.59.31-.67s-.36.11-.61.41l-.13.16v-.2c0-.39-.15-.7-.27-.69s-.17.33-.14.72l0,.2-.15-.14c-.3-.25-.6-.39-.67-.3s.11.36.4.61l.17.13h-.21c-.38,0-.69.15-.69.26s.34.18.72.14l.21,0-.15.15c-.25.3-.38.59-.3.67s.36-.11.61-.41a1.83,1.83,0,0,0,.13-.16v.2c0,.39.15.7.26.69s.18-.33.15-.72a1.5,1.5,0,0,1,0-.2,1.85,1.85,0,0,0,.14.14C137.19,44.3,137.49,44.44,137.56,44.36Z"/><path class="cls-3" d="M132.42,45.19c.08-.1-.12-.4-.45-.68l-.18-.14H132c.44,0,.77-.15.76-.28s-.36-.2-.79-.16l-.23,0a1.29,1.29,0,0,0,.16-.17c.28-.32.43-.65.34-.73s-.4.12-.67.44c-.06.06-.1.12-.15.18v-.23c0-.42-.16-.77-.28-.75s-.2.36-.16.79a1.64,1.64,0,0,0,0,.22l-.16-.15c-.34-.28-.66-.43-.75-.34s.13.39.45.68l.18.14h-.22c-.43,0-.77.16-.76.29s.36.19.79.16l.22,0-.15.16c-.28.33-.43.66-.33.74s.39-.12.67-.45a2.09,2.09,0,0,0,.14-.17,1.7,1.7,0,0,0,0,.22c0,.43.15.77.27.76s.2-.36.17-.79c0-.08,0-.15,0-.23l.16.16C132,45.13,132.34,45.28,132.42,45.19Z"/><path class="cls-10" d="M149.83,54.69c1,1.6.84,3.47-.32,4.17s-2.87,0-3.84-1.63-.84-3.47.31-4.17S148.85,53.09,149.83,54.69Z"/><path class="cls-3" d="M149.23,58.61a1.08,1.08,0,1,1-1-1.18A1.09,1.09,0,0,1,149.23,58.61Z"/><path class="cls-3" d="M156,90.36a.9.9,0,0,0,.83,1,.91.91,0,0,0,1-.83.93.93,0,0,0-.83-1A.91.91,0,0,0,156,90.36Z"/><path class="cls-3" d="M154.22,90a.92.92,0,1,0,1.83.17.92.92,0,0,0-1.83-.17Z"/><path class="cls-3" d="M152.42,89.37a.94.94,0,0,0,.83,1,.92.92,0,0,0,.18-1.84A.94.94,0,0,0,152.42,89.37Z"/><path class="cls-3" d="M150.76,88.71a.91.91,0,1,0,1-.84A.92.92,0,0,0,150.76,88.71Z"/><path class="cls-3" d="M149.05,88a.92.92,0,1,0,1-.83A.91.91,0,0,0,149.05,88Z"/><path class="cls-3" d="M147.39,87.12a.92.92,0,1,0,1.84.17.9.9,0,0,0-.83-1A.91.91,0,0,0,147.39,87.12Z"/><path class="cls-3" d="M146,86.1a.94.94,0,0,0,.83,1,.92.92,0,1,0-.83-1Z"/><path class="cls-3" d="M144.55,85.09a.92.92,0,0,0,.82,1,.93.93,0,0,0,1-.83.92.92,0,0,0-1.83-.17Z"/><path class="cls-3" d="M143.15,84a.92.92,0,1,0,1-.83A.93.93,0,0,0,143.15,84Z"/><path class="cls-3" d="M142,82.65a.92.92,0,1,0,1-.83A.9.9,0,0,0,142,82.65Z"/><path class="cls-3" d="M140.8,81.46a.92.92,0,1,0,1-.83A.94.94,0,0,0,140.8,81.46Z"/><path class="cls-3" d="M139.49,80.3a.92.92,0,1,0,1.83.17.93.93,0,0,0-.83-1A.91.91,0,0,0,139.49,80.3Z"/><path class="cls-3" d="M138.31,78.92a.92.92,0,1,0,1-.83A.92.92,0,0,0,138.31,78.92Z"/><path class="cls-3" d="M130.27,145.51l20.59,2,6.36-33.75c9.31-5.36,7.09-14.28,7.09-14.28l-33.65-3.14a41,41,0,0,0-1.13,17.06C133,134.79,131.92,143.73,130.27,145.51Z"/><path class="cls-9" d="M170.07,86c2.55-.69,5.54-.15,6.57,2h0c1,2.13-.51,4.2-2.5,5.93a75.2,75.2,0,0,1-13.25,8.63c-3.84,1.88-11,5-15.62,6.06-2.57.6-5.28.6-6.72-2.39-1.29-2.67-.08-5.27,2-6.87,4.34-3.3,10-5.88,14-7.84A93.32,93.32,0,0,1,170.07,86Z"/><path class="cls-9" d="M168.61,88.51s7-19.82,19.07-36.8l3.52,1.35s-7.5,24.79-14.63,38.54c0,0-2.23,3.33-5.49,2.08C168.3,92.61,168.61,88.51,168.61,88.51Z"/><path class="cls-9" d="M189.86,55.15s6.65-4.36,8.15-15c.13-.86,0-2.68-1.43-2.6-.7.05-1.36.44-2.61,1.87a28.66,28.66,0,0,0-3.06,4.6c.26-1.58.66-4-.34-4.06-1.54,0-2.06,8.13-3.16,11.22a9.09,9.09,0,0,1-.81,2.07Z"/><path class="cls-10" d="M86.84,313.74s-2.23-4.74-.51-13.64l12.29-17.46-9.08-5.33-8.15,15.06.2,18.45S85.36,319.46,86.84,313.74Z"/><path class="cls-3" d="M81.31,292.49s1,11.86,1.57,16.75a24.2,24.2,0,0,0,.93,3.81c.5,1.77,2.61,2.08,2.9.32,0,0,1.37,3.64,3.64,5.26.69.48,1.49,1.82,1,2.74-.44.72-1.39,1.44-3.17.38-1.32-.78-6.71-3.91-8.83-5.23-1.58-1-2.33-3.54-2.47-6.31-.18-3.77.12-10.71.12-10.71l-7,11.73-1.39-.83s2.89-4.87,3.92-6.62c.75-1.26,0-5.45,1.94-8.77A5.6,5.6,0,0,1,81.31,292.49Z"/><path class="cls-3" d="M151,147.69S176.16,234.09,120.7,295c0,0-22.48-.43-53-16.54C47.46,267.82,12.46,242.57,0,219.92c0,0,20,5,30.47-8.65a220.61,220.61,0,0,1,45.28-43.56c18.52-13.24,39.36-22.44,54.39-22.4Z"/><path class="cls-14" d="M168.24,56.13c-.22-1.36-1.31-2.66-3.74-2.48A3.56,3.56,0,0,0,161.59,57a11.73,11.73,0,0,1,3.26-1.23A6.73,6.73,0,0,1,168.24,56.13Z"/><path class="cls-5" d="M160.23,56.32a3.17,3.17,0,0,0,2.45-.39,4.54,4.54,0,0,1,2.09-.91,4.45,4.45,0,0,1,3.7,1.3c-.32-.08-.62-.12-.93-.19a1.17,1.17,0,0,1,.27.68,1.26,1.26,0,0,1-2.51.11,1.18,1.18,0,0,1,.45-1,6.31,6.31,0,0,0-.87,0,8,8,0,0,0-3.33,1.33,3.44,3.44,0,0,1,.42-.65A2.83,2.83,0,0,1,160.23,56.32Z"/><polygon class="cls-3" points="241.37 94.05 219.04 100.23 220.6 105.48 240.43 99.26 241.37 94.05"/><path class="cls-1" d="M237.89,158.62c1.54-8.43,5.66-31.11,6.87-37.74,1.87-10.27-4.31-21.56-4.31-21.56l-19.93,6.1s-7.93,7.92-9.48,16.44c-3.38,18.62-16.89,73.37-16.89,73.37,3.47,1,36.14,8.92,44.29,5.19C238.44,200.42,235.72,170.55,237.89,158.62Z"/><path class="cls-15" d="M241.86,102.33l-.71-6.09-20.63,9.18a34.56,34.56,0,0,0-10.35,20.82L207,144l14.51-27.68-2.42-3.4,4,1.35Z"/><path class="cls-15" d="M239.29,124.31c-1.29,3-.58,2.53-4.31,7-12.52,15-36.95,26.42-36.95,26.42L197,141.1s20.21-19.92,34.94-25.32C236.87,114,242.36,117.31,239.29,124.31Z"/><path class="cls-2" d="M148.06,130.2s-10.83-1.16-15.78-9c-.78-1.22,1.75-4.86,3.51-5,2.16-.13,4.56,1.89,6.28,2.36.7.19.55-1-.07-1.43s-1.07-.93-.95-1.33c.27-.89,1.94-.42,3.11,0,2.13.75,6.65,5,8.29,7.61Z"/><polygon class="cls-3" points="150.41 133.38 145.94 130.68 151.9 120.86 156.35 123.57 150.41 133.38"/><path class="cls-15" d="M203.84,141.65,155.13,122l-7,10.81c0,.26,50.19,24,50.19,24C204.3,158.56,203.84,141.65,203.84,141.65Z"/></g></g></svg>