<?xml version="1.0" encoding="iso-8859-1"?>
<!-- Generator: Adobe Illustrator 18.0.0, SVG Export Plug-In . SVG Version: 6.00 Build 0)  -->
<!DOCTYPE svg PUBLIC "-//W3C//DTD SVG 1.1//EN" "http://www.w3.org/Graphics/SVG/1.1/DTD/svg11.dtd">
<svg version="1.1" id="Capa_1" xmlns="http://www.w3.org/2000/svg" xmlns:xlink="http://www.w3.org/1999/xlink" x="0px" y="0px"
	 viewBox="0 0 179.679 179.679" style="enable-background:new 0 0 179.679 179.679;" xml:space="preserve">
<g>
	<g style="opacity:0.08;">
		<path d="M72.021,130.844c-0.535,1.498-1.068,2.996-1.602,4.494C77.36,136.588,78.962,132.096,72.021,130.844z"/>
	</g>
	<g>
		<polygon style="fill-rule:evenodd;clip-rule:evenodd;fill:#DEF8F9;" points="96.913,82.943 95.198,80.756 95.898,79.584 
			96.913,79.584 97.928,79.584 98.628,80.756 		"/>
		<g>
			<path style="fill-rule:evenodd;clip-rule:evenodd;fill:#1A1A1A;" d="M146.844,82.99c-5.552,3.723-10.476,7.934-17.832,9.158
				c-9.436,1.572-21.644-1.959-31.018-2.924l-0.374,4.584c8.533,2.096,20.97,6.482,30.762,6.414
				c7.409-0.053,13.851-3.287,17.238-5.154C156.531,89.058,158.133,75.422,146.844,82.99z"/>
			<path style="fill-rule:evenodd;clip-rule:evenodd;fill:#FFD8B8;" d="M98.195,85.738c-1.646-0.365-2.309,0.32-2.144,1.502
				c-2.35-0.848-4.698,0.371-4.981,1.652c-0.551,2.49,1.745,5.115,5.129,5.865c3.384,0.748,6.573-0.664,7.125-3.154
				C103.875,89.113,101.579,86.486,98.195,85.738z"/>
		</g>
		<path style="fill-rule:evenodd;clip-rule:evenodd;fill:#91613A;" d="M163.846,51.377c-16.063-8.283-44.639,7.553-46.311-13.811
			c7.647,5.367,9.393,2.455,18.511,0.248C145.243,35.59,157.613,37.695,163.846,51.377z"/>
		<path style="fill-rule:evenodd;clip-rule:evenodd;fill:#91613A;" d="M164.661,52.187c-14.46-10.84-45.273,0.018-43.367-21.326
			c6.647,6.566,8.853,3.986,18.211,3.326C148.945,33.523,160.791,37.66,164.661,52.187z"/>
		<g>
			<polygon style="fill-rule:evenodd;clip-rule:evenodd;fill:#323232;" points="130.943,174.23 130.022,154.016 129.694,141.148 
				129.362,131.43 146.377,132.334 143.631,172.127 			"/>
			<polygon style="fill-rule:evenodd;clip-rule:evenodd;fill:#323232;" points="129.578,136.861 129.784,136.855 129.695,141.15 
				129.694,141.148 			"/>
		</g>
		<g>
			<path style="fill-rule:evenodd;clip-rule:evenodd;fill:#323232;" d="M169.244,170.326l-38.382,5.102l0.979-12.799l36.701-1.232
				C168.777,164.373,169.01,167.349,169.244,170.326z"/>
			
				<ellipse transform="matrix(-0.9969 0.0782 -0.0782 -0.9969 352.9019 327.182)" style="fill-rule:evenodd;clip-rule:evenodd;fill:#1A1A1A;" cx="170.042" cy="170.504" rx="4.619" ry="9.196"/>
		</g>
		<g>
			<g>
				<polygon style="fill-rule:evenodd;clip-rule:evenodd;fill:#323232;" points="100.313,135.652 119.765,130.076 132.206,126.779 
					141.584,124.205 144.644,140.967 105.297,147.51 				"/>
				<polygon style="fill-rule:evenodd;clip-rule:evenodd;fill:#323232;" points="136.35,125.672 136.403,125.871 132.204,126.779 
					132.206,126.779 				"/>
			</g>
			<g>
				<path style="fill-rule:evenodd;clip-rule:evenodd;fill:#323232;" d="M102.287,174.26l-1.988-38.668l12.679,2.01l-1.734,36.68
					C108.258,174.275,105.272,174.267,102.287,174.26z"/>
				
					<ellipse transform="matrix(0.0024 -1 1 0.0024 -73.2386 276.6686)" style="fill-rule:evenodd;clip-rule:evenodd;fill:#1A1A1A;" cx="102.045" cy="175.041" rx="4.619" ry="9.197"/>
			</g>
		</g>
		<path style="fill-rule:evenodd;clip-rule:evenodd;fill:#E7B791;" d="M51.78,62.328c3.772,0.898,6.477,2.715,10.249,3.613
			c1.269-5.322,2.537-10.646,3.805-15.969c-3.772-0.899-7.543-1.797-11.316-2.697C53.25,52.599,52.175,56.084,51.78,62.328z"/>
		<path style="fill-rule:evenodd;clip-rule:evenodd;fill:#FFD8B8;" d="M57.192,96.457l-5.918-21.121
			c-0.438-5.5-0.32-10.623,0.956-17.549c3.849,0.281,7.445,2.152,11.32,1.193c2.81,1.133,6.093,7.941,5.886,13.897l-0.331,22.5
			L57.192,96.457z"/>
		
			<ellipse transform="matrix(0.412 -0.9112 0.9112 0.412 18.2492 60.6695)" style="fill-rule:evenodd;clip-rule:evenodd;fill:#91613A;" cx="56.132" cy="16.195" rx="15.362" ry="15.518"/>
		<path style="fill-rule:evenodd;clip-rule:evenodd;fill:#FFFFFF;" d="M51.336,27.148c-0.023,0.043-0.05,0.086-0.08,0.125
			c0.096,0.082,0.176,0.186,0.227,0.311c0.174,0.42-0.024,0.898-0.443,1.072c-0.046,0.02-0.094,0.035-0.141,0.045
			c0.021,0.125,0.014,0.256-0.026,0.385c-0.136,0.432-0.596,0.672-1.028,0.537c-0.048-0.016-0.095-0.035-0.138-0.059
			c-0.063,0.109-0.153,0.207-0.268,0.279c-0.381,0.242-0.888,0.131-1.132-0.25c-0.027-0.043-0.05-0.088-0.068-0.133
			c-0.119,0.043-0.25,0.059-0.384,0.041c-0.449-0.059-0.765-0.471-0.707-0.92c0.006-0.049,0.018-0.098,0.033-0.145
			c-0.119-0.043-0.229-0.115-0.32-0.215c-0.307-0.334-0.285-0.854,0.049-1.158c0.037-0.035,0.077-0.064,0.118-0.092
			c-0.063-0.109-0.101-0.234-0.107-0.369c-0.02-0.453,0.331-0.836,0.783-0.855c0.05-0.004,0.1,0,0.149,0.006
			c0.022-0.125,0.074-0.246,0.156-0.354c0.275-0.359,0.79-0.428,1.149-0.152c0.04,0.031,0.077,0.064,0.109,0.101
			c0.099-0.082,0.215-0.141,0.347-0.17c0.442-0.1,0.88,0.18,0.979,0.621c0.011,0.051,0.018,0.1,0.02,0.148
			c0.126,0,0.254,0.029,0.374,0.092C51.389,26.25,51.545,26.746,51.336,27.148z"/>
		<path style="fill-rule:evenodd;clip-rule:evenodd;fill:#FFFFFF;" d="M55.575,23.435c-0.024,0.045-0.05,0.086-0.08,0.125
			c0.097,0.082,0.176,0.188,0.227,0.313c0.174,0.418-0.024,0.898-0.443,1.072c-0.047,0.02-0.094,0.033-0.142,0.045
			c0.021,0.123,0.015,0.256-0.026,0.383c-0.136,0.434-0.596,0.674-1.028,0.537c-0.048-0.016-0.094-0.033-0.137-0.057
			c-0.064,0.109-0.153,0.205-0.268,0.277c-0.382,0.244-0.889,0.133-1.132-0.25c-0.027-0.043-0.05-0.086-0.069-0.133
			c-0.119,0.045-0.249,0.06-0.383,0.043c-0.449-0.059-0.766-0.471-0.707-0.92c0.007-0.051,0.018-0.098,0.033-0.146
			c-0.119-0.043-0.229-0.113-0.32-0.215c-0.307-0.332-0.284-0.852,0.049-1.158c0.038-0.033,0.078-0.064,0.118-0.09
			c-0.063-0.109-0.1-0.236-0.107-0.371c-0.02-0.451,0.331-0.836,0.783-0.855c0.051-0.002,0.101,0,0.149,0.006
			c0.022-0.123,0.074-0.244,0.156-0.352c0.275-0.359,0.79-0.428,1.15-0.152c0.041,0.031,0.077,0.064,0.11,0.102
			c0.097-0.082,0.214-0.141,0.347-0.172c0.442-0.098,0.88,0.182,0.978,0.623c0.011,0.049,0.018,0.1,0.02,0.147
			c0.126,0.002,0.254,0.031,0.374,0.094C55.628,22.539,55.784,23.033,55.575,23.435z"/>
		<path style="fill-rule:evenodd;clip-rule:evenodd;fill:#FFFFFF;" d="M60.684,21.141c-0.024,0.045-0.05,0.088-0.08,0.127
			c0.097,0.08,0.176,0.186,0.227,0.311c0.174,0.418-0.024,0.898-0.442,1.072c-0.047,0.02-0.094,0.033-0.142,0.045
			c0.021,0.123,0.015,0.256-0.026,0.385c-0.136,0.432-0.596,0.672-1.028,0.535c-0.047-0.014-0.094-0.033-0.137-0.057
			c-0.063,0.109-0.153,0.205-0.267,0.279c-0.382,0.242-0.889,0.131-1.133-0.252c-0.027-0.041-0.05-0.086-0.068-0.131
			c-0.119,0.043-0.249,0.059-0.384,0.041c-0.449-0.059-0.765-0.471-0.707-0.92c0.006-0.049,0.017-0.098,0.032-0.145
			c-0.119-0.043-0.229-0.115-0.32-0.215c-0.307-0.334-0.285-0.853,0.049-1.16c0.037-0.033,0.076-0.065,0.118-0.09
			c-0.063-0.109-0.101-0.236-0.107-0.369c-0.02-0.453,0.331-0.838,0.783-0.857c0.05-0.002,0.1,0,0.148,0.008
			c0.023-0.125,0.074-0.246,0.157-0.354c0.275-0.359,0.79-0.428,1.149-0.152c0.041,0.031,0.077,0.065,0.11,0.102
			c0.097-0.082,0.214-0.141,0.346-0.17c0.442-0.1,0.88,0.18,0.979,0.621c0.011,0.051,0.017,0.1,0.019,0.148
			c0.126,0,0.254,0.029,0.374,0.092C60.737,20.244,60.893,20.74,60.684,21.141z"/>
		<path style="fill-rule:evenodd;clip-rule:evenodd;fill:#FFFFFF;" d="M67.324,20.82c0.04,0.031,0.082,0.057,0.125,0.08
			c-0.053,0.115-0.08,0.244-0.074,0.379c0.02,0.451,0.403,0.803,0.856,0.781c0.05-0.002,0.099-0.008,0.147-0.02
			c0.034,0.123,0.096,0.238,0.187,0.338c0.306,0.334,0.826,0.355,1.159,0.049c0.038-0.033,0.071-0.07,0.101-0.109
			c0.104,0.072,0.225,0.121,0.359,0.139c0.449,0.059,0.861-0.258,0.92-0.707c0.007-0.051,0.009-0.1,0.006-0.148
			c0.125-0.012,0.251-0.053,0.365-0.125c0.381-0.244,0.494-0.752,0.25-1.133c-0.027-0.043-0.058-0.082-0.091-0.117
			c0.089-0.09,0.158-0.203,0.199-0.332c0.135-0.432-0.104-0.893-0.537-1.027c-0.048-0.016-0.097-0.025-0.145-0.031
			c0.01-0.127-0.009-0.258-0.061-0.381c-0.173-0.42-0.653-0.617-1.071-0.445c-0.047,0.021-0.091,0.043-0.132,0.07
			c-0.073-0.102-0.171-0.191-0.291-0.252c-0.401-0.209-0.897-0.053-1.106,0.35c-0.024,0.043-0.042,0.09-0.057,0.137
			c-0.122-0.031-0.254-0.037-0.386-0.008c-0.442,0.1-0.721,0.537-0.622,0.98c0.011,0.049,0.026,0.096,0.045,0.141
			c-0.114,0.055-0.218,0.135-0.3,0.242C66.895,20.031,66.965,20.545,67.324,20.82z"/>
		<path style="fill-rule:evenodd;clip-rule:evenodd;fill:#FFFFFF;" d="M61.724,20.91c0.04,0.031,0.082,0.057,0.126,0.078
			c-0.053,0.115-0.08,0.244-0.074,0.379c0.02,0.453,0.404,0.805,0.856,0.783c0.051-0.002,0.1-0.008,0.147-0.02
			c0.033,0.121,0.096,0.238,0.187,0.338c0.306,0.334,0.825,0.355,1.158,0.049c0.038-0.033,0.071-0.07,0.101-0.109
			c0.104,0.07,0.226,0.121,0.36,0.139c0.449,0.059,0.86-0.258,0.919-0.707c0.007-0.051,0.008-0.1,0.007-0.148
			c0.125-0.012,0.25-0.053,0.364-0.127c0.382-0.242,0.494-0.75,0.25-1.131c-0.027-0.043-0.058-0.082-0.091-0.119
			c0.089-0.09,0.158-0.201,0.199-0.33c0.136-0.432-0.104-0.893-0.537-1.029c-0.048-0.014-0.097-0.025-0.145-0.031
			c0.011-0.125-0.008-0.256-0.06-0.381c-0.174-0.418-0.654-0.617-1.072-0.443c-0.047,0.02-0.091,0.043-0.132,0.07
			c-0.073-0.104-0.171-0.192-0.291-0.254c-0.402-0.209-0.897-0.053-1.105,0.35c-0.025,0.045-0.042,0.092-0.057,0.139
			c-0.123-0.033-0.254-0.037-0.386-0.008c-0.442,0.1-0.721,0.537-0.623,0.979c0.011,0.051,0.026,0.098,0.045,0.143
			c-0.115,0.053-0.218,0.135-0.3,0.242C61.296,20.119,61.365,20.635,61.724,20.91z"/>
		
			<ellipse transform="matrix(0.412 -0.9112 0.9112 0.412 2.4073 83.6167)" style="fill-rule:evenodd;clip-rule:evenodd;fill:#FFD8B8;" cx="65.99" cy="39.943" rx="19.555" ry="20.202"/>
		<path style="fill-rule:evenodd;clip-rule:evenodd;fill:#FCF7F9;" d="M51.274,75.336c1.428-0.104,11.071-10.201,17.349-8.471
			c0.563,1.938,0.883,4.021,0.813,6.012l0.004,21.166l-4.039,1.164l-8.21,1.248L51.274,75.336z"/>
		<path style="fill-rule:evenodd;clip-rule:evenodd;fill:#91613A;" d="M84.982,33.978c-4.858-2.949-26.156,5.82-35.96,16.092
			c-3.452-5.416-4.222-12.297-1.439-18.449c4.45-9.842,16.298-14.094,26.464-9.496C79.397,24.545,83.213,28.932,84.982,33.978z"/>
		
			<ellipse transform="matrix(0.1957 -0.9807 0.9807 0.1957 7.8205 91.7183)" style="fill-rule:evenodd;clip-rule:evenodd;fill:#FFD8B8;" cx="59.824" cy="41.092" rx="5.762" ry="3.686"/>
		<path style="fill-rule:evenodd;clip-rule:evenodd;fill:#91613A;" d="M56.272,68.338c4.035-25.428,21.627-35.996,28.909-34.283
			C76.518,27.539,57.392,38.676,56.272,68.338z"/>
		<path style="fill-rule:evenodd;clip-rule:evenodd;fill:#F9EDF2;" d="M63.265,2.588C47.625,24.305,44.127,47.26,49.905,75.359
			c-18.69,3.727-31.495,2.213-44.93-7.188C9.735,42.406,40.924-12.527,63.265,2.588z"/>
		
			<ellipse transform="matrix(0.412 -0.9112 0.9112 0.412 4.749 99.4993)" style="fill-rule:evenodd;clip-rule:evenodd;fill:#666666;" cx="79.464" cy="46.07" rx="2.467" ry="1.41"/>
		<path style="fill-rule:evenodd;clip-rule:evenodd;fill:#E7B791;" d="M77.427,56.398c-1.831-1.572-3.963-3.814-5.192-5.535
			c0.684,2.475,2.243,4.59,4.222,6.113C76.905,56.711,77.076,56.617,77.427,56.398z"/>
		
			<ellipse transform="matrix(-0.1731 -0.9849 0.9849 -0.1731 -66.8696 294.286)" style="fill-rule:evenodd;clip-rule:evenodd;fill:#FFFFFF;" cx="90.106" cy="175.215" rx="4.212" ry="8.387"/>
		<path style="fill-rule:evenodd;clip-rule:evenodd;fill:#FCF7F9;" d="M67.757,88.75c8.239,3.037,17.883,35.057,19.717,40.256
			c3.33,9.439,9.715,33.81,15.779,39.939c6.063,6.127-0.036,9.146-6.498,8.006c-6.08-1.074-9.96-1.051-13.354,0.783
			c-4.854,2.625-7.707,2.139-13.915,1.051c-5.78-1.014-9.714-1.459-17.639-0.238c-6.215,0.957-9.5-0.162-12.417-1.959
			c-4.205-2.592-6.564-2.182-12.571-1.781c-6.007,0.4-12.423-2.645-5.995-8.389c6.428-5.746,13.851-29.693,17.753-38.912
			c3.903-9.217,6.896-22.725,11.741-29.508c2.583-3.617,3.987-5.363,4.607-6.666L67.757,88.75z"/>
		<path style="fill-rule:evenodd;clip-rule:evenodd;fill:#FFE0E9;" d="M40.755,177.336c-0.455-0.232-0.893-0.482-1.325-0.748
			c-3.961-2.439-6.283-2.219-11.559-1.852c5.884-8.594,17.955-36.697,20.728-49.428C49.531,139.984,43.655,167.953,40.755,177.336z"
			/>
		<path style="fill-rule:evenodd;clip-rule:evenodd;fill:#FFE0E9;" d="M95.823,176.791c-5.55-0.906-9.204-0.795-12.421,0.943
			c-0.24,0.131-0.475,0.252-0.705,0.367c-2.342-9.957-6.313-37.553-4.515-51.887C80.167,139.078,90.471,167.824,95.823,176.791z"/>
		<path style="fill-rule:evenodd;clip-rule:evenodd;fill:#FFE0E9;" d="M68.803,178.666c-4.677-0.801-8.247-1.182-14.034-0.516
			c4.192-14.891,8.176-44.912,8.631-52.699C63.376,133.267,65.52,163.57,68.803,178.666z"/>
		<g>
			<path style="fill-rule:evenodd;clip-rule:evenodd;fill:#FFD8B8;" d="M62.391,64.484c6.139,10.645,17.517,24.623,30.071,33.355
				l-2.466,3.391c-12.784-6.574-28.268-20.031-33.94-27.668C49.281,64.443,56.198,53.746,62.391,64.484z"/>
			<path style="fill-rule:evenodd;clip-rule:evenodd;fill:#FFD8B8;" d="M96.257,98.211c1.397,0.941,1.358,1.895,0.387,2.588
				c2.231,1.121,2.964,3.664,2.231,4.75c-1.427,2.115-4.913,2.258-7.786,0.318c-2.873-1.938-4.045-5.225-2.618-7.338
				C89.898,96.414,93.383,96.271,96.257,98.211z"/>
		</g>
		
			<rect x="144.871" y="75.731" transform="matrix(-0.9941 -0.1088 0.1088 -0.9941 290.9955 172.9996)" style="fill-rule:evenodd;clip-rule:evenodd;fill:#FFFFFF;" width="10.696" height="5.655"/>
		<polygon style="fill-rule:evenodd;clip-rule:evenodd;fill:#1A1A1A;" points="130.581,122.195 149.661,124.283 150.237,129.391 
			130.052,127.18 		"/>
		<path style="fill-rule:evenodd;clip-rule:evenodd;fill:#FFFFFF;" d="M149.335,77.476c-3.352,19.082-8.266,29.977-17.6,35.791
			l1.468-10.334l10.313-20.51l1.694-7.258L149.335,77.476z"/>
		<g>
			<path style="fill-rule:evenodd;clip-rule:evenodd;fill:#212E36;" d="M144.221,79.564c0.585-0.623,2.268-2.99,2.437-2.299
				c0.233,0.949-0.528,6.08-1.026,6.922c-0.362,0.611-1.285-2.142-1.665-2.908C143.895,80.805,144.014,80,144.221,79.564z"/>
			<path style="fill-rule:evenodd;clip-rule:evenodd;fill:#405059;" d="M143.527,79.053l0.599,0.088
				c0.154,0.023,0.261,0.168,0.238,0.32l-0.29,1.959c-0.023,0.154-0.167,0.262-0.321,0.238l-0.6-0.09
				c-0.153-0.021-0.261-0.166-0.238-0.32l0.291-1.959C143.229,79.137,143.373,79.029,143.527,79.053z"/>
		</g>
		<polygon style="fill-rule:evenodd;clip-rule:evenodd;fill:#323232;" points="150.948,127.463 150.267,116.291 155.644,78.49 
			147.422,79.387 132.353,108.633 130.268,125.146 		"/>
		<g>
			<path style="fill-rule:evenodd;clip-rule:evenodd;fill:#1A1A1A;" d="M145.826,83.84c-4.041,5.322-7.33,10.906-13.889,14.453
				c-8.413,4.553-21.107,5.18-30.285,7.313l1.136,4.457c8.751-0.791,21.938-0.682,31.177-3.93
				c6.991-2.455,12.031-7.609,14.628-10.475C156.959,86.43,154.043,73.012,145.826,83.84z"/>
			<path style="fill-rule:evenodd;clip-rule:evenodd;fill:#FFD8B8;" d="M100.709,102.244c-1.675,0.189-2.08,1.053-1.539,2.115
				c-2.498-0.037-4.322,1.879-4.175,3.182c0.289,2.535,3.313,4.271,6.757,3.881c3.444-0.391,6.002-2.762,5.714-5.297
				C107.177,103.59,104.153,101.851,100.709,102.244z"/>
		</g>
		<g>
			<path style="fill-rule:evenodd;clip-rule:evenodd;fill:#1A1A1A;" d="M155.233,152.785c-6.706-3.113-13.218-16.551-14.65-24.557
				l9.611-11.551C150.194,116.678,155.054,141.639,155.233,152.785z"/>
			<path style="fill-rule:evenodd;clip-rule:evenodd;fill:#323232;" d="M142.068,126.445l8.126-9.768c0,0,4.273,21.266,4.907,33.133
				C149.168,147.344,143.882,133.588,142.068,126.445z"/>
		</g>
		<g>
			
				<ellipse transform="matrix(-0.1002 -0.995 0.995 -0.1002 105.3543 207.5029)" style="fill-rule:evenodd;clip-rule:evenodd;fill:#FFD8B8;" cx="146.502" cy="56.114" rx="21.443" ry="22.152"/>
			<path style="fill-rule:evenodd;clip-rule:evenodd;fill:#91613A;" d="M128.845,43.279c7.008,14.213,34.882,17.143,31.756,29.291
				c5.481-4.426,8.685-11.309,7.942-18.676c-1.187-11.783-12.017-20.342-24.19-19.115C137.947,35.424,132.447,38.652,128.845,43.279
				z"/>
			
				<ellipse transform="matrix(-0.1001 -0.995 0.995 -0.1001 85.9258 193.2637)" style="fill-rule:evenodd;clip-rule:evenodd;fill:#666666;" cx="130.357" cy="57.776" rx="2.706" ry="1.546"/>
			<path style="fill-rule:evenodd;clip-rule:evenodd;fill:#E7B791;" d="M128.57,68.894c3.424-0.383,6.017-2.168,7.626-3.611
				c-1.575,2.332-3.935,3.988-6.523,4.879C129.398,69.904,128.851,69.205,128.57,68.894z"/>
		</g>
		
			<ellipse transform="matrix(0.1269 -0.9919 0.9919 0.1269 74.1739 203.1925)" style="fill-rule:evenodd;clip-rule:evenodd;fill:#FFD8B8;" cx="152.51" cy="59.462" rx="6.318" ry="4.043"/>
		<path style="fill-rule:evenodd;clip-rule:evenodd;fill:#91613A;" d="M125.533,48.541c4.918,0.939,9.541,2.281,15.313,5.973
			c6.344,4.057,17.359-18.742,8.192-19.865C139.873,33.523,129.18,34.17,125.533,48.541z"/>
		<path style="fill-rule:evenodd;clip-rule:evenodd;fill:#91613A;" d="M127.015,66.439c3.621-1.295,9.759-3.781,11.257-2.041
			c1.498,1.742,2.664,9.637,5.942,10.799c3.278,1.164,6.122-2.428,5-7.914c-1.123-5.486-1.076-8.633-4.368-10.652
			c-3.293-2.018,1.739-8.17,2.521-3.814c0.782,4.355,5.542,20.15,2.932,23.346c-1.519,1.859-7.916,2.346-12.365,0.648
			c-2.086-0.795-4.27-2.008-6.212-4.697c0.979,0.734,6.863,3.49,8.384,2.873c1.448-0.588-1.31-8.43-2.878-9.734
			c-1.569-1.305-8.871,2.127-9.556,2.246C126.985,67.617,126.591,66.592,127.015,66.439z"/>
		<path style="fill-rule:evenodd;clip-rule:evenodd;fill:none;stroke:#F7E8BF;stroke-miterlimit:10;" d="M96.908,87.51
			c1.392,0,2.528-1.137,2.528-2.527c0-1.393-1.136-2.529-2.528-2.529c-1.392,0-2.528,1.137-2.528,2.529
			C94.38,86.373,95.516,87.51,96.908,87.51z"/>
		<rect x="91.689" y="84.982" style="fill-rule:evenodd;clip-rule:evenodd;fill:#323232;" width="10.438" height="4.236"/>
		<path style="fill-rule:evenodd;clip-rule:evenodd;fill:#323232;" d="M106.237,75.387c-1.37,3.197-2.74,6.396-4.109,9.596
			C108.369,87.654,112.479,78.06,106.237,75.387z"/>
	</g>
</g>
<g>
</g>
<g>
</g>
<g>
</g>
<g>
</g>
<g>
</g>
<g>
</g>
<g>
</g>
<g>
</g>
<g>
</g>
<g>
</g>
<g>
</g>
<g>
</g>
<g>
</g>
<g>
</g>
<g>
</g>
</svg>
