<svg id="Capa_1" data-name="Capa 1" xmlns="http://www.w3.org/2000/svg" xmlns:xlink="http://www.w3.org/1999/xlink" width="534.41" height="749.722" viewBox="0 0 534.41 749.722">
  <defs>
    <radialGradient id="radial-gradient" cx="-0.227" cy="1.095" r="0.558" gradientTransform="matrix(-0.809, 0.13, 0.106, 0.991, -901.869, 64.933)" gradientUnits="objectBoundingBox">
      <stop offset="0" stop-color="#f29183"/>
      <stop offset="1" stop-color="#f5a98d"/>
    </radialGradient>
  </defs>
  <path id="Path_15" data-name="Path 15" d="M73.741,141.362c-5.838,4.022-13.9,5.3-18.361.913h0c-4.465-4.392-2.495-10.93.973-17.025a200.472,200.472,0,0,1,25.7-33.334C90.056,83.8,105.423,69.71,116.075,62.9c5.937-3.8,12.8-6.193,19.109,0,5.663,5.5,4.989,13.077,1.048,18.949-8.008,12.115-19.957,23.539-28.414,32.076a252.629,252.629,0,0,1-34.077,27.437Z" transform="translate(78.912 86.713)" fill="#e8937c"/>
  <path id="Path_16" data-name="Path 16" d="M72.6,156.192S48.05,106.006,38.67,51.5l9.205-4.071S80.855,107.905,93.5,146.989c0,0,2.12,10.412-6.411,14.187C79.782,164.408,72.6,156.192,72.6,156.192Z" transform="translate(57.803 69.588)" fill="#e8937c"/>
  <path id="Path_17" data-name="Path 17" d="M53.808,77.861S35.472,67.1,30.158,39.2c-.424-2.245-.274-7.081,3.517-7.057,1.871,0,3.692.987,7.21,4.639A72.686,72.686,0,0,1,49.642,48.6c-.873-4.145-2.245-10.585.424-10.782,4.091-.3,6.511,21.293,9.829,29.337a22.9,22.9,0,0,0,2.495,5.379Z" transform="translate(44.835 47.152)" fill="#e8937c"/>
  <path id="Path_18" data-name="Path 18" d="M17.158,79.658c1.447,8.463,5.713,18.382,12.473,32.3,22.726,46.732,55.157,70.74,55.157,70.74l26.094-28.868A241.528,241.528,0,0,0,70.195,86.616,183.353,183.353,0,0,0,41.955,62.51C30.38,54.441,13.766,59.672,17.158,79.658Z" transform="translate(24.98 86.387)" fill="#201811"/>
  <path id="Path_77" data-name="Path 77" d="M0,0,13.973.054l.119,30.5L.119,30.5Z" transform="translate(197.795 229.391) rotate(-22.4)" fill="#fbddde"/>
  <path id="Path_19" data-name="Path 19" d="M66.526,104.4s14.369-1.826,53.984-10.215c18.061-3.849-14.269,4.269,15.841-2.714l13.97,31.163c-76.586,25.217-32.431,11.621-63.938,21.984-8.432,2.763-27.042,1.554-42.634-10.141Z" transform="translate(65.395 134.212)" fill="#201811"/>
  <path id="Path_20" data-name="Path 20" d="M264.613,313.993s-3.767-13.373-22.851-28.251L156.37,269.358l22.452-28.868,59.473,21.17L270.2,299.066S277.685,322.925,264.613,313.993Z" transform="translate(233.724 352.88)" fill="#f5a98d"/>
  <path id="Path_21" data-name="Path 21" d="M189.34,253.713S208,279.3,215.484,290.032a61.085,61.085,0,0,1,4.79,9.253c2.071,4.441-1.646,8.71-5.339,5.675,0,0,3.617,9.672,1.821,16.877-.524,2.147.2,6.218,2.894,7.131,2.145.716,5.339.469,7.085-4.713,1.322-3.849,6.81-19.468,8.781-25.809,1.472-4.713-1.472-11.153-6.062-16.951-6.237-7.871-18.984-21.269-18.984-21.269l34.651,11.5,1.372-4.071-19.558-6.489c-3.717-1.234-9.48-11-19.284-14.261A15.042,15.042,0,0,0,189.34,253.713Z" transform="translate(283.003 360.951)" fill="#fbddde"/>
  <path id="Path_22" data-name="Path 22" d="M98.479,351.751s9.754-9.993,13.1-33.778L95.56,263.691l27.666-5.6,7.484,44.758L114.2,348.963S97.256,367.37,98.479,351.751Z" transform="translate(142.834 378.706)" fill="#f5a98d"/>
  <path id="Path_23" data-name="Path 23" d="M139.908,276.365s-12.872,28.844-18.46,40.663a61.018,61.018,0,0,1-5.663,8.759c-2.794,4.022-8.432,3.01-7.634-1.678,0,0-6.636,7.97-13.82,10.067-2.145.641-5.314,3.306-4.74,6.094.474,2.2,2.27,4.787,7.709,3.676,3.991-.839,20.406-4.047,26.942-5.576,4.84-1.11,8.956-6.859,11.7-13.694,3.717-9.327,8.981-26.968,8.981-26.968l7.484,35.382,4.266-.888s-3.093-14.681-4.241-19.986c-.773-3.8,4.815-13.62,2.719-23.662A14.93,14.93,0,0,0,139.908,276.365Z" transform="translate(133.81 405.51)" fill="#fbddde"/>
  <path id="Path_24" data-name="Path 24" d="M76.049,125.634S15.354,343.7,95.607,510.15c0,0,103.528,18.135,188.372-18.727,73.543-32.076,117.6-69.506,169.637-114.733,0,0-68.03-9.87-83.92-52.826-37.42-100.743-171.633-192.9-231.08-202.843Z" transform="translate(80.794 177.573)" fill="#fbddde"/>
  <path id="Path_25" data-name="Path 25" d="M22.78,290l42.235-.123c1.5,2.788,7.259,13.645,17.463,13.62h18.261c13.8,0,15.317,11.3,15.791,19.616l-58.625.2-4.091-3.528-2.769,3.38H22.88Z" transform="translate(34.052 425.354)" fill="#17110a"/>
  <path id="Path_26" data-name="Path 26" d="M118.528,161.582,98.571,319.2,85.723,503.61,21.86,498.132l31.533-175.48S32.861,159.806,34.508,152.28Z" transform="translate(32.677 223.443)" fill="#251d1a"/>
  <path id="Path_27" data-name="Path 27" d="M41.24,290H83.5c1.472,2.813,7.21,13.719,17.338,13.719H119.1c13.8,0,15.267,11.325,15.741,19.739H76.19L72.224,320.1l-2.794,3.356H41.24Z" transform="translate(61.644 425.53)" fill="#251d1a"/>
  <path id="Path_28" data-name="Path 28" d="M117.995,156.77l17.463,149.276L115.824,498.5H53.832l12.8-186.386L39.438,217c-14.694-16.7-12.2-52.728-11.276-60.229Z" transform="translate(40.969 230.031)" fill="#2c2620"/>
  <path id="Path_29" data-name="Path 29" d="M120.044,58.317a26.152,26.152,0,0,1-6.711-4.293c-1.671-1.382-3.542-3.06-5.962-5.132a12.915,12.915,0,0,1-.948-2.467c-1.5-5.181-3.118-15.1-9.13-22.379C95.622,13.214,84.82,6.922,81.7,5.96,46.552-5.119,17.688,22.121,15.368,24.317c0,0-21.4,16.753-12.324,40.317,8.058,20.923,20.98,35.728,33.6,39.355a82.019,82.019,0,0,1,4.989,13.743c2.495,7.674,9.854,42.513,9.854,42.513l50.716-19.073c-4.989-5.107-5.788-30.768-2.644-34.543,1.322-1.628,11.3-4.935,12.2-4.935,7.484-1.086,12.473-6.514,9.979-11.177a15.276,15.276,0,0,1-1.322-4.1c0-1.8,1.048-2.467,1.2-3.948,0-.617-.4-.814-1-.864a38.081,38.081,0,0,0-1.272-7.6c1.347-.814.973-1.826.424-2.319a12.9,12.9,0,0,1-1.721-2.788c-.748-2.023-1.946-4.935.973-6C124.385,60.81,121.616,58.984,120.044,58.317Z" transform="translate(1.2 4.863)" fill="#f7b49e"/>
  <path id="Path_30" data-name="Path 30" d="M15.1,25.59c-.8-3.257-4.565-2.147-4.565-2.147,2.644-2.122,8.008-.567,8.008-.567-1.971-2.837,1.048-8.463,1.048-8.463a4.642,4.642,0,0,0,2.245,5.872C36.424,3.013,63.092-3.229,83.848,6.64a75.207,75.207,0,0,1,12,9.869c.8.814,1.572,1.653,2.245,2.467a13.473,13.473,0,0,0,4.615-6.539s5.214,14.928-5.164,19.023c-5.862,2.813-15.367,1.135-23.35.888-15.168-.419-20.381,8.019-18.361,19.369,1.447,7.994,2.1,9.869,4.116,20.405.8,3.874.973,4.935,2.17,10.56.349,1.628-1.946,1.925-3.742,2.591-2.27.864-3.043-1.875-3.443-2.591a15.163,15.163,0,0,0-12.473-8.66c-4.166-.222-5.114,1.554-5.838,3.652-1.7,4.935,3.767,8.167,10.527,13.3,4.989,3.775-3.043,14.533-8.582,16.63-4.041,1.48-28.14-19.172-36.247-40.218C-7.082,42.935,15.1,25.59,15.1,25.59Z" transform="translate(0.002 2.85)" fill="#6e262e"/>
  <path id="Path_31" data-name="Path 31" d="M29.054,34.636c4.515,4.145,6.062,9.45,3.268,12.115s-8.806,1.6-13.4-2.467-6.037-9.425-3.243-12.09S24.488,30.639,29.054,34.636Z" transform="translate(21.318 45.1)" fill="#f7b49e"/>
  <path id="Path_32" data-name="Path 32" d="M51.116,22.17a10.884,10.884,0,0,0-3.093.543,12.777,12.777,0,0,0-2.969.888l-3.368,1.653a27.539,27.539,0,0,0-5.663,4.269L33.528,31.67h0a.553.553,0,0,1-.748,0,.514.514,0,0,1,0-.691l2.245-2.467a29.6,29.6,0,0,1,5.388-5.379l3.443-2.344a17.55,17.55,0,0,1,3.418-1.579A14.09,14.09,0,0,1,50.542,18h.449a2.1,2.1,0,0,1,.5,4.145Z" transform="translate(48.8 26.403)" fill="#8f4446"/>
  <path id="Path_33" data-name="Path 33" d="M42.437,35.232s-1.372,0-.624,1.135,12,4.762,17.837,3.035v-.617A31.934,31.934,0,0,0,58.4,32C57.755,32.3,49.622,36.639,42.437,35.232Z" transform="translate(62.168 46.947)" fill="#fbddde"/>
  <path id="Path_34" data-name="Path 34" d="M46.5,23.315l2.12-.493a8.412,8.412,0,0,0-8.307.247,9.424,9.424,0,0,0-3.019,3.084,8.443,8.443,0,0,0-1.172,4,23.633,23.633,0,0,1,5.488-4.935.315.315,0,0,0,.249-.123,2.685,2.685,0,0,0,0,1.258,3.17,3.17,0,0,0,6.262-.888A2.841,2.841,0,0,0,46.5,23.315Z" transform="translate(53.991 32.044)" fill="#8f4446"/>
  <path id="Path_35" data-name="Path 35" d="M16.1,47.31,77.668,63.965l1.846,13.669L19.343,61Z" transform="translate(24.068 69.412)" fill="#fbddde"/>
  <path id="Path_36" data-name="Path 36" d="M40.364,222.207c-3.143-17.592-21.4-94.229-25.52-111.649C8.458,83.614,23.55,52.92,23.55,52.92L77.709,66.466s22.277,19.887,27.441,42.266c11.575,48.854,49.195,200.746,49.195,200.746-9.155,3.134-90.98,23.144-113.308,14.36C41.138,323.838,44.256,244.216,40.364,222.207Z" transform="translate(19.836 77.644)" fill="#2b221c"/>
  <path id="Path_37" data-name="Path 37" d="M16,65.362,17.1,49.62,80.113,70.815A67.717,67.717,0,0,1,104.087,125.1l11,46.362L72.529,100.152l6.037-9.327L67.939,94.97Z" transform="translate(23.919 72.802)" fill="#362c28"/>
  <path id="Path_38" data-name="Path 38" d="M59.444,60.265c.474,8.414-2.22,12.559-5.663,15.89-1.422,1.382-1.148,3.306.3,3.479,3.792.469,5.164,4.466,5.713,6.218.823,2.665,2.495,2.665,2.644,4.762,0,.888,1.522,2.591,1.247,3.208-.449,1.209-1,2.689.5,3.158,0,0,2.345,1.16,2.495,7.229.125,5.28,7.284,7.674,14.419,5.107,4.366-1.554,23.35-8.833,27.94-10.536a248.181,248.181,0,0,0,27.89-11.5,67.613,67.613,0,0,0,9.38-9.277c15.317-13.546,19.234-57.737-22.452-75.946C113.1-2.629,86.012,2.9,70.022,12.472A26.391,26.391,0,0,0,56.476,32.655C54.854,42.3,57.848,52.147,58.97,57.649Z" transform="translate(78.989 0.522)" fill="#f5a98d"/>
  <path id="Path_39" data-name="Path 39" d="M56.629,22.419a21.985,21.985,0,0,1,3.492-1.456A22.984,22.984,0,0,1,68.1,19.828a16.559,16.559,0,0,1,4.216.617,14.727,14.727,0,0,1,3.443,1.184l3.118,1.628a.569.569,0,0,1,.3.341.562.562,0,0,1-.048.448.6.6,0,0,1-.723.271h0l-3.093-1.012a12.6,12.6,0,0,0-3.443-.567,13.442,13.442,0,0,0-3.717,0,18.86,18.86,0,0,0-6.511,2,14.994,14.994,0,0,0-2.495,1.554,2.337,2.337,0,0,1-3.206-.7,2.282,2.282,0,0,1,.711-3.171Z" transform="translate(83.076 29.066)" fill="#b25a5a"/>
  <path id="Path_40" data-name="Path 40" d="M56.39,36.8a14.909,14.909,0,0,0,1.746,5.478l8.507-5.922Z" transform="translate(84.288 53.344)" fill="#fbddde"/>
  <path id="Path_41" data-name="Path 41" d="M56.536,35.089c.873-.271,1.646-.2,3.842.419a42.87,42.87,0,0,0,10.952.666c.748,0,1.123.74.524,1.061A20.15,20.15,0,0,1,57.01,39.259s-2.495-.814-2.071-2.467A2.107,2.107,0,0,1,56.536,35.089Z" transform="translate(82.047 51.26)" fill="#ee7677"/>
  <path id="Path_42" data-name="Path 42" d="M56.553,43.185c.549-.74,1.222-1.11,3.393-1.851a40,40,0,0,0,9.355-5.65c.549-.469,1.347,0,1.048.567A19.875,19.875,0,0,1,59.322,46.318s-2.495.716-3.068-.814A2.006,2.006,0,0,1,56.553,43.185Z" transform="translate(83.726 52.071)" fill="#ee7677"/>
  <path id="Path_43" data-name="Path 43" d="M62.139,42.783c2.245,3.9,8.881,4.367,14.818,1.036s8.956-9.179,6.736-13.077-8.856-4.417-14.818-1.061S59.919,38.885,62.139,42.783Z" transform="translate(91.786 40.284)" fill="url(#radial-gradient)"/>
  <path id="Path_44" data-name="Path 44" d="M61.555,33.033v-.148a13.081,13.081,0,0,0,2.17-1.258c8.382-6.045,18.286,5.65,26.668,15.791,11.775,14.163,23.4,11.177,34.3,9.179a46.243,46.243,0,0,0,1.671,19.122A17.117,17.117,0,0,0,138.316,86.6a24.439,24.439,0,0,0,1.721,2.665,26.957,26.957,0,0,0,3.318,3.6,33.967,33.967,0,0,0,7.983,5.428,32.993,32.993,0,0,1-7.135-6.218,26.113,26.113,0,0,1-2.719-3.75c-.2-.345-.349-.716-.549-1.036a23.883,23.883,0,0,0,7.484,4,21.617,21.617,0,0,1-4.391-3.183,22.714,22.714,0,0,1-2.145-2.467,22.507,22.507,0,0,0,2.145-1.234,20.243,20.243,0,0,0,19.134,9.87,10.967,10.967,0,0,0,10.552-7.526,13.333,13.333,0,0,0,3.817-2.862,17.561,17.561,0,0,0,3.443-6.242c4.989-1.925,10.2-6.539,7.708-17.617-1.622-7.131-5.563-9.87-8.307-10.955a10.944,10.944,0,0,0-1.746-5.65A16.142,16.142,0,0,0,174.339,39a17.3,17.3,0,0,0-4.989-6.391,15.982,15.982,0,0,0-12.274-2.467C147.2,6.533,116.263-12.959,73.7,10.826a41.418,41.418,0,0,0-8.906,6.44c-.2.173-8.706,7.526-12.473,8.167S51.4,37.844,61.555,33.033ZM177.582,48.38a46.26,46.26,0,0,0-1.746-6,15.252,15.252,0,0,1,1.871,1.7,10.314,10.314,0,0,1,2.345,4.935,9.463,9.463,0,0,0-2.47-.642ZM174.189,85.39a17.745,17.745,0,0,0,.15-6.465,16.033,16.033,0,0,0,2.495-.271,14.283,14.283,0,0,1-1.048,4.022,12.149,12.149,0,0,1-1.6,2.813Z" transform="translate(75.83 -0.004)" fill="#8f4446"/>
  <path id="Path_45" data-name="Path 45" d="M91.67,16.128c0-.444,1.222-.987,2.869-1.209h.873l-.724-.493c-1.322-1.012-2.145-2.122-1.871-2.467s1.6.148,2.919,1.135a8.038,8.038,0,0,1,.674.568,7.566,7.566,0,0,1-.175-.839c-.2-1.628,0-2.986.474-3.06s1.023,1.209,1.247,2.837v.864l.474-.691c1.023-1.332,2.145-2.147,2.495-1.851s0,1.554-1.123,2.887l-.574.642a1.867,1.867,0,0,0,.873-.148c1.646-.222,2.994,0,3.093.444s-1.222,1.036-2.869,1.234h-.9l.748.493c1.3,1.012,2.12,2.122,1.846,2.467s-1.6-.123-2.919-1.11l-.674-.568a1.462,1.462,0,0,0,.175.839c.2,1.653,0,3.01-.474,3.084s-1.023-1.209-1.247-2.837V17.46c-.175.247-.324.493-.5.716-1.023,1.308-2.145,2.147-2.495,1.851s.15-1.579,1.148-2.862a8,8,0,0,1,.574-.666,1.867,1.867,0,0,0-.873.148C93.117,16.794,91.72,16.621,91.67,16.128Z" transform="translate(137.02 14.31)" fill="#fbddde"/>
  <path id="Path_46" data-name="Path 46" d="M92.622,23.056c-.274-.321.4-1.382,1.5-2.467a5.773,5.773,0,0,1,.624-.518h-.8c-1.522,0-2.744-.469-2.744-.913s1.272-.716,2.794-.666h.823a6.325,6.325,0,0,1-.6-.567c-1.023-1.086-1.6-2.221-1.272-2.467s1.422.37,2.495,1.456c.175.222.349.419.5.642V16.74c0-1.505.474-2.714.9-2.689s.723,1.258.674,2.739a7.3,7.3,0,0,1,0,.79c.175-.173.349-.37.574-.568,1.1-1.012,2.245-1.579,2.495-1.258s-.374,1.382-1.472,2.467l-.649.518h.8c1.547,0,2.769.469,2.744.913s-1.272.716-2.794.666h-.8l.574.543c1.048,1.11,1.621,2.245,1.3,2.467s-1.422-.37-2.495-1.48a6.233,6.233,0,0,1-.524-.617q0,.407,0,.814c0,1.505-.449,2.714-.873,2.689s-.748-1.258-.7-2.763a4.052,4.052,0,0,1,0-.642,6.184,6.184,0,0,1-.574.567C94.069,22.809,92.946,23.377,92.622,23.056Z" transform="translate(136.317 20.607)" fill="#fbddde"/>
  <path id="Path_47" data-name="Path 47" d="M96.108,19.587c-.2-.247.3-1.036,1.123-1.826l.449-.395h-.574c-1.148,0-2.071-.345-2.046-.666s.948-.543,2.1-.493h.574l-.324-.37c-.773-.814-1.2-1.653-.973-1.9s1.073.271,1.846,1.11a3.612,3.612,0,0,1,.4.469,4.7,4.7,0,0,1,0-.592c0-1.135.349-2.048.674-2.023s.549.938.524,2.048a2.437,2.437,0,0,1,0,.617l.449-.444c.823-.74,1.7-1.184,1.9-.938s-.249,1.036-1.1,1.8a2.241,2.241,0,0,1-.474.37h.6c1.148,0,2.071.37,2.071.691s-.948.543-2.12.493h-.574l.424.419c.773.839,1.2,1.678.973,1.9s-1.073-.271-1.846-1.11a3.391,3.391,0,0,0-.4-.444,2.436,2.436,0,0,1,0,.592c0,1.11-.324,2.023-.649,2.023s-.549-.962-.5-2.073a4.058,4.058,0,0,1,0-.592l-.449.419C97.206,19.389,96.333,19.809,96.108,19.587Z" transform="translate(142.086 18.92)" fill="#fbddde"/>
  <path id="Path_48" data-name="Path 48" d="M90.2,20.394c-.274-.321.324-1.332,1.4-2.295l.574-.493h-.773c-1.447,0-2.495-.419-2.495-.814s1.2-.691,2.619-.617h.748l-.624-.469c-.948-1.036-1.5-2.1-1.222-2.467s1.347.345,2.32,1.382l.5.592v-.765c0-1.406.449-2.467.848-2.467s.7,1.184.649,2.467a7.35,7.35,0,0,1,0,.765,5.28,5.28,0,0,1,.524-.543c1.048-.938,2.12-1.48,2.495-1.184s-.349,1.308-1.422,2.27l-.549.469h.748c1.447,0,2.495.419,2.495.839s-1.2.691-2.619.617h-.773l.549.518c.973,1.036,1.522,2.122,1.222,2.467s-1.347-.345-2.3-1.406l-.524-.567v.765c0,1.406-.424,2.467-.823,2.467s-.723-1.184-.674-2.615v-.74l-.549.518C91.644,20.147,90.447,20.69,90.2,20.394Z" transform="translate(132.879 17.57)" fill="#fbddde"/>
  <path id="Path_49" data-name="Path 49" d="M90.378,15.513c-.175-.222.3-.962,1.048-1.678l.424-.37H91.3c-1.073,0-1.9-.3-1.871-.592s.873-.493,1.921-.469h.524l-.374-.37c-.723-.765-1.123-1.554-.923-1.752s1,.271,1.721,1.012a5.159,5.159,0,0,1,.349.419,1.976,1.976,0,0,1,0-.543c0-1.036.3-1.875.6-1.851s.5.864.449,1.875a1.9,1.9,0,0,1,0,.543l.424-.37c.748-.716,1.547-1.11,1.746-.888s-.249.962-1.023,1.678l-.424.345h.549c1.048,0,1.871.321,1.846.617s-.848.518-1.9.469H94.37a5.586,5.586,0,0,1,.4.395c.723.74,1.123,1.53.9,1.727s-1-.247-1.672-1.012a2.825,2.825,0,0,1-.374-.419v.543c0,1.036-.324,1.875-.6,1.851s-.524-.864-.474-1.875V14.23l-.4.395C91.4,15.341,90.578,15.735,90.378,15.513Z" transform="translate(133.671 13.666)" fill="#fbddde"/>
  <path id="Path_50" data-name="Path 50" d="M96.028,16.531c-.225-.247.274-1.061,1.123-1.851l.449-.37h-.574c-1.173,0-2.1-.345-2.1-.691s.973-.543,2.12-.493h.6l-.424-.321c-.8-.839-1.222-1.7-1-1.925s1.1.271,1.871,1.135l.4.444v-.642c0-1.135.349-2.073.674-2.048s.549.962.5,2.1a4.745,4.745,0,0,1,0,.592l.449-.419c.848-.79,1.721-1.234,1.921-.987s-.274,1.061-1.123,1.826a3.037,3.037,0,0,1-.449.395h.6c1.148,0,2.046.345,2.046.666s-.948.567-2.1.518h-.6l.424.419c.8.839,1.222,1.7,1,1.925s-1.073-.271-1.871-1.11l-.449-.419v.617c0,1.135-.349,2.023-.674,2.023s-.574-.962-.524-2.1a4.89,4.89,0,0,1,0-.592l-.449.444C97.125,16.333,96.252,16.778,96.028,16.531Z" transform="translate(141.892 14.327)" fill="#fbddde"/>
  <path id="Path_51" data-name="Path 51" d="M77.991,26.623C75.5,30.941,76.12,35.875,79.263,37.6s7.709-.37,10.153-4.713,1.871-9.253-1.272-11S80.436,22.256,77.991,26.623Z" transform="translate(114.276 31.203)" fill="#f5a98d"/>
  <path id="Path_52" data-name="Path 52" d="M77.887,29.558a2.894,2.894,0,0,0,5.738-.765,2.831,2.831,0,0,0-1.1-1.906,2.936,2.936,0,0,0-4.073.54A2.839,2.839,0,0,0,77.887,29.558Z" transform="translate(116.377 38.581)" fill="#fbddde"/>
  <path id="Path_53" data-name="Path 53" d="M57.429,31c-.549-3.38,0-6.736,5.887-8.34a9.18,9.18,0,0,1,10.752,5.4,30.059,30.059,0,0,0-8.731-.419A17.06,17.06,0,0,0,57.429,31Z" transform="translate(85.594 32.825)" fill="#e88175"/>
  <path id="Path_54" data-name="Path 54" d="M76.958,23.58a7.932,7.932,0,0,1-6.187.938,11.67,11.67,0,0,0-5.688-.567,11.412,11.412,0,0,0-7.933,5.922c.723-.444,1.422-.765,2.12-1.16a2.637,2.637,0,0,0,0,1.8,3.176,3.176,0,0,0,3.809,1.931,3.132,3.132,0,0,0,2.278-3.585,2.949,2.949,0,0,0-1.8-1.925,16.8,16.8,0,0,1,2.071-.666,20.169,20.169,0,0,1,9.056.642,9.137,9.137,0,0,0-1.547-1.234A7.006,7.006,0,0,0,76.958,23.58Z" transform="translate(85.424 34.591)" fill="#8f4446"/>
  <path id="Path_55" data-name="Path 55" d="M57.695,117.522h0A173.33,173.33,0,0,1,79.9,96.229,39.28,39.28,0,0,0,96.063,70.691c0-3.356-.15-.148,0-6.711a69.7,69.7,0,0,0-4.815-24.057l39.49-4.293s-4.141,9.4-3.268,16.457c1.522,11.991,1.5,21.639,8.432,34.173C141.865,97.018,146.929,117.5,146.754,123v1.184l-89.184-3.06v-3.6Z" transform="translate(86.052 52.273)" fill="#f5a98d"/>
  <path id="Path_56" data-name="Path 56" d="M135.264,197.723l-63.389,3.726s2-28.967,1.173-39.478c-1.048-12.756-.773-53.2-.773-53.2C49.348,91.6,58.328,69,58.328,69l91.2.864a115.455,115.455,0,0,1-3.517,47.472C130.075,166.98,131.472,192.492,135.264,197.723Z" transform="translate(84.595 101.24)" fill="#fbddde"/>
  <path id="Path_57" data-name="Path 57" d="M70.35,61.857a2.48,2.48,0,1,1-.712-1.776A2.453,2.453,0,0,1,70.35,61.857Z" transform="translate(97.694 87.065)" fill="#fbddde"/>
  <path id="Path_58" data-name="Path 58" d="M72.33,61.692a2.5,2.5,0,1,1-2.42-2.541A2.484,2.484,0,0,1,72.33,61.692Z" transform="translate(100.654 86.785)" fill="#fbddde"/>
  <path id="Path_59" data-name="Path 59" d="M74.268,61.268a2.451,2.451,0,1,1-2.32-2.467,2.481,2.481,0,0,1,2.32,2.467Z" transform="translate(103.68 86.271)" fill="#fbddde"/>
  <path id="Path_60" data-name="Path 60" d="M76.2,60.8A2.495,2.495,0,1,1,73.7,58.33,2.481,2.481,0,0,1,76.2,60.8Z" transform="translate(106.439 85.583)" fill="#fbddde"/>
  <path id="Path_61" data-name="Path 61" d="M78.109,60.247a2.495,2.495,0,1,1-2.495-2.467A2.481,2.481,0,0,1,78.109,60.247Z" transform="translate(109.294 84.776)" fill="#fbddde"/>
  <path id="Path_62" data-name="Path 62" d="M79.938,59.642a2.453,2.453,0,1,1-2.32-2.591A2.483,2.483,0,0,1,79.938,59.642Z" transform="translate(112.155 83.704)" fill="#fbddde"/>
  <path id="Path_63" data-name="Path 63" d="M81.679,58.677a2.495,2.495,0,1,1-2.495-2.467A2.481,2.481,0,0,1,81.679,58.677Z" transform="translate(114.63 82.472)" fill="#fbddde"/>
  <path id="Path_64" data-name="Path 64" d="M83.309,57.789a2.468,2.468,0,0,1-1.571,2.289,2.514,2.514,0,0,1-2.732-.593,2.447,2.447,0,0,1-.458-2.729,2.5,2.5,0,0,1,4.762,1.033Z" transform="translate(117.066 81.164)" fill="#fbddde"/>
  <path id="Path_65" data-name="Path 65" d="M84.989,56.78a2.468,2.468,0,0,1-1.578,2.29,2.514,2.514,0,0,1-2.734-.6,2.447,2.447,0,0,1-.441-2.737,2.5,2.5,0,0,1,4.754,1.051Z" transform="translate(119.577 79.681)" fill="#fbddde"/>
  <path id="Path_66" data-name="Path 66" d="M86.4,55.582a2.5,2.5,0,1,1-2.42-2.541A2.484,2.484,0,0,1,86.4,55.582Z" transform="translate(121.684 77.82)" fill="#fbddde"/>
  <path id="Path_67" data-name="Path 67" d="M87.8,54.52a2.5,2.5,0,1,1-2.407-2.554A2.485,2.485,0,0,1,87.8,54.52Z" transform="translate(123.776 76.242)" fill="#fbddde"/>
  <path id="Path_68" data-name="Path 68" d="M89.359,53.377a2.495,2.495,0,1,1-2.495-2.467A2.481,2.481,0,0,1,89.359,53.377Z" transform="translate(126.109 74.695)" fill="#fbddde"/>
  <path id="Path_69" data-name="Path 69" d="M90.8,52.077A2.495,2.495,0,1,1,88.3,49.61,2.481,2.481,0,0,1,90.8,52.077Z" transform="translate(128.261 72.787)" fill="#fbddde"/>
  <path id="Path_70" data-name="Path 70" d="M23.193,87.3c0,8.586,2.819,19.048,7.484,33.778,15.317,49.619,43.582,78.166,43.582,78.166l30.21-24.674A240.964,240.964,0,0,0,74.533,102.08,183.536,183.536,0,0,0,50.31,74.026C40.181,64.354,22.868,67.068,23.193,87.3Z" transform="translate(34.663 100.704)" fill="#362c28"/>
  <path id="Path_78" data-name="Path 78" d="M0,0,14.011.035,14.089,30.5.077,30.466Z" transform="translate(191.736 278.351) rotate(-13.65)" fill="#e5e5e5"/>
  <path id="Path_71" data-name="Path 71" d="M70.542,110.71a303.322,303.322,0,0,0,60.7,2.1l9.081,32.915c-79.555,13.472-83.247,5.206-96.868-8.685Z" transform="translate(64.947 162.444)" fill="#362c28"/>
  <path id="Path_72" data-name="Path 72" d="M89.146,149.43a67.631,67.631,0,0,0,9.629-2.073c7.035-2.467,10.9-11.893,10.677-19.2-.723-21.417-12.473-23.267-12.473-23.169-.973,6.662-2.071,8.537-5.214,11.2a40.783,40.783,0,0,1-9.305,5.8Z" transform="translate(123.254 154.048)" fill="#f5a98d"/>
  <path id="Path_73" data-name="Path 73" d="M111.671,96.264c3.592,5.428,3.393,19.147-10.328,25.636-6.935,3.282-13.671,2.64-16.864-4.047s6.511-14.977,10.777-16.926c1.372-.642,2.495-.271,1.622-2.467-.424-.938-3.742,1.406-4.69.2-2.021-2.467,6.736-8.537,9.53-9.7C103.14,88.442,109.975,93.871,111.671,96.264Z" transform="translate(125.326 130.479)" fill="#f5a98d"/>
  <path id="Path_74" data-name="Path 74" d="M86.661,157.854C82.944,163.8,76.083,168.168,70.2,165.9h0c-5.887-2.27-6.686-9.055-5.962-16.013A196.912,196.912,0,0,1,74.412,109.2c4.066-10.61,12.473-29.609,19.533-40.021,3.917-5.8,9.255-10.708,17.463-7.4,7.459,2.714,9.954,9.944,8.656,16.926-2.495,14.261-8.781,29.436-13.172,40.613A248.921,248.921,0,0,1,86.661,157.854Z" transform="translate(95.678 89.071)" fill="#f5a98d"/>
  <path id="Path_75" data-name="Path 75" d="M116.558,150.235S68.935,120.478,31.74,79.1l5.638-8.29s60.4,34.1,92,60.673c0,0,7.484,7.723,2.145,15.4C127.186,153.442,116.558,150.235,116.558,150.235Z" transform="translate(47.445 103.896)" fill="#f5a98d"/>
  <path id="Path_76" data-name="Path 76" d="M55.68,96.222S34.625,92.965,19.158,69.08c-1.222-1.925-2.894-6.489.649-7.822,1.746-.691,3.792-.444,8.407,1.628a73.545,73.545,0,0,1,12.473,7.748c-2.495-3.5-6.062-8.981-3.642-10.166C40.737,58.693,51.09,77.741,57.2,84.107a23.388,23.388,0,0,0,4.291,4.071Z" transform="translate(26.423 88.551)" fill="#f5a98d"/>
</svg>
